<?xml version="1.0" encoding="UTF-8" standalone="no"?>
<!-- Created with Inkscape (http://www.inkscape.org/) -->

<svg
   width="3in"
   height="1.5in"
   viewBox="0 0 76.200001 38.100001"
   version="1.1"
   id="svg5"
   sodipodi:docname="channels.svg"
   inkscape:version="1.1.1 (3bf5ae0d25, 2021-09-20)"
   xmlns:inkscape="http://www.inkscape.org/namespaces/inkscape"
   xmlns:sodipodi="http://sodipodi.sourceforge.net/DTD/sodipodi-0.dtd"
   xmlns="http://www.w3.org/2000/svg"
   xmlns:svg="http://www.w3.org/2000/svg">
  <sodipodi:namedview
     id="namedview7"
     pagecolor="#505050"
     bordercolor="#ffffff"
     borderopacity="1"
     inkscape:pageshadow="0"
     inkscape:pageopacity="0"
     inkscape:pagecheckerboard="1"
     inkscape:document-units="mm"
     showgrid="false"
     units="in"
     inkscape:snap-page="true"
     inkscape:zoom="1.7033109"
     inkscape:cx="103.32817"
     inkscape:cy="66.634929"
     inkscape:window-width="1920"
     inkscape:window-height="1015"
     inkscape:window-x="-9"
     inkscape:window-y="-9"
     inkscape:window-maximized="1"
     inkscape:current-layer="layer1"
     inkscape:snap-bbox="true"
     inkscape:snap-intersection-paths="true"
     inkscape:snap-smooth-nodes="true"
     inkscape:snap-midpoints="true"
     inkscape:bbox-paths="true"
     inkscape:bbox-nodes="true"
     inkscape:snap-bbox-edge-midpoints="true"
     inkscape:snap-bbox-midpoints="true"
     inkscape:object-paths="true"
     inkscape:snap-global="true" />
  <defs
     id="defs2">
    <inkscape:path-effect
       effect="powerclip"
       id="path-effect3634"
       is_visible="true"
       lpeversion="1"
       inverse="true"
       flatten="false"
       hide_clip="false"
       message="Use fill-rule evenodd on &lt;b&gt;fill and stroke&lt;/b&gt; dialog if no flatten result after convert clip to paths." />
    <inkscape:path-effect
       effect="powerclip"
       id="path-effect3578"
       is_visible="true"
       lpeversion="1"
       inverse="true"
       flatten="false"
       hide_clip="false"
       message="Use fill-rule evenodd on &lt;b&gt;fill and stroke&lt;/b&gt; dialog if no flatten result after convert clip to paths." />
    <inkscape:path-effect
       effect="roughen"
       id="path-effect3534"
       is_visible="true"
       lpeversion="1.1"
       method="segments"
       max_segment_size="0.26955"
       segments="7"
       displace_x="0.69;1"
       displace_y="0.5;1"
       global_randomize="1;1"
       handles="along"
       shift_nodes="true"
       fixed_displacement="false"
       spray_tool_friendly="false" />
    <inkscape:path-effect
       effect="powerclip"
       id="path-effect2834"
       is_visible="true"
       lpeversion="1"
       inverse="true"
       flatten="false"
       hide_clip="false"
       message="Use fill-rule evenodd on &lt;b&gt;fill and stroke&lt;/b&gt; dialog if no flatten result after convert clip to paths." />
    <inkscape:path-effect
       effect="roughen"
       id="path-effect1339"
       is_visible="true"
       lpeversion="1.1"
       method="segments"
       max_segment_size="5.115"
       segments="6"
       displace_x="0;1"
       displace_y="0.64;1"
       global_randomize="1;1"
       handles="along"
       shift_nodes="true"
       fixed_displacement="false"
       spray_tool_friendly="false" />
    <inkscape:path-effect
       effect="roughen"
       id="path-effect1319"
       is_visible="true"
       lpeversion="1.1"
       method="segments"
       max_segment_size="0.12"
       segments="10"
       displace_x="0;1"
       displace_y="0.4;1"
       global_randomize="1;1"
       handles="along"
       shift_nodes="true"
       fixed_displacement="false"
       spray_tool_friendly="false" />
    <inkscape:path-effect
       effect="roughen"
       id="path-effect1299"
       is_visible="true"
       lpeversion="1.1"
       method="segments"
       max_segment_size="5"
       segments="8"
       displace_x="0;1"
       displace_y="0.54;1"
       global_randomize="1;1"
       handles="along"
       shift_nodes="true"
       fixed_displacement="false"
       spray_tool_friendly="false" />
    <inkscape:path-effect
       effect="interpolate"
       id="path-effect1251"
       is_visible="true"
       lpeversion="1"
       trajectory="M 38.1,16.2873 V 31.183446"
       equidistant_spacing="true"
       steps="5" />
    <inkscape:path-effect
       effect="fill_between_many"
       method="originald"
       linkedpaths="#path1279,0,1|#path857,0,1|"
       id="path-effect1359"
       join="true"
       close="true"
       autoreverse="true" />
    <inkscape:path-effect
       effect="fill_between_many"
       method="originald"
       linkedpaths="#path1277,0,1|#path1279,0,1|"
       id="path-effect1570"
       join="true"
       close="true"
       autoreverse="true" />
    <inkscape:path-effect
       effect="fill_between_many"
       method="originald"
       linkedpaths="#path1277,0,1|#path1275,0,1|"
       id="path-effect1648"
       join="true"
       close="true"
       autoreverse="true" />
    <inkscape:path-effect
       effect="fill_between_many"
       method="originald"
       linkedpaths="#path1273,0,1|#path1275,0,1|"
       id="path-effect1746"
       join="true"
       close="true"
       autoreverse="true" />
    <inkscape:path-effect
       effect="fill_between_many"
       method="originald"
       linkedpaths="#path861,0,1|#path1273,0,1|"
       id="path-effect1858"
       join="true"
       close="true"
       autoreverse="true" />
    <clipPath
       clipPathUnits="userSpaceOnUse"
       id="clipPath2830">
      <path
         style="display:none;fill:#ff0000;stroke:#000000;stroke-width:0.264583px;stroke-linecap:butt;stroke-linejoin:miter;stroke-opacity:1"
         d="M 0,18.026159 3.2392559,31.042718 H 5.438902 L 8.7202113,17.857174"
         id="path2832" />
      <path
         id="lpe_path-effect2834"
         style="fill:#ff0000;stroke:#000000;stroke-width:0.264583px;stroke-linecap:butt;stroke-linejoin:miter;stroke-opacity:1"
         class="powerclip"
         d="M -5.125,8.219773 H 81.324999 V 43.232291 H -5.125 Z M 0.29763618,15.831054 3.239256,31.034589 H 5.438902 L 8.4687019,15.735478 m 55.1845161,-4.751654 1.297689,1.663059 0.458685,2.058729 0.872541,2.564842 1.145785,1.872835 1.136004,1.8838 0.71078,1.694534 1.088534,2.425471 1.445476,0.03033 0.496754,-0.0666 0.855708,-0.19431 1.001498,-0.121393 1.080737,-0.143054 1.053407,0.136505 0.579308,-0.76127 0.292679,-2.021828 -0.120695,-2.082469 -0.0014,-1.922906 0.0035,-2.012958 0.415798,-2.005849 -0.138713,-2.191122 -0.243577,-1.8659573" />
    </clipPath>
    <clipPath
       clipPathUnits="userSpaceOnUse"
       id="clipPath3574">
      <path
         style="display:none;fill:#ff5555;stroke:#000000;stroke-width:0.264583px;stroke-linecap:butt;stroke-linejoin:miter;stroke-opacity:1"
         d="m 63.653218,10.983824 1.297688,1.663059 0.458687,2.058729 0.87254,2.564842 1.145784,1.872835 1.136004,1.8838 0.710782,1.694534 1.088533,2.425471 1.445477,0.03033 0.496753,-0.0666 0.855707,-0.19431 1.001498,-0.121393 1.080739,-0.143054 1.053406,0.136505 0.579308,-0.76127 0.29268,-2.021828 -0.120695,-2.082469 -0.0013,-1.922906 0.0035,-2.012958 0.415798,-2.005849 -0.138713,-2.191122 -0.243575,-1.8659574"
         id="path3576" />
      <path
         id="lpe_path-effect3578"
         style="fill:#ff5555;stroke:#000000;stroke-width:0.264583px;stroke-linecap:butt;stroke-linejoin:miter;stroke-opacity:1"
         class="powerclip"
         d="M -5.125,8.219773 H 81.324999 V 43.232291 H -5.125 Z M 0.29763618,15.831054 3.239256,31.034589 H 5.438902 L 8.4687019,15.735478 m 55.1845161,-4.751654 1.297689,1.663059 0.458685,2.058729 0.872541,2.564842 1.145785,1.872835 1.136004,1.8838 0.71078,1.694534 1.088534,2.425471 1.445476,0.03033 0.496754,-0.0666 0.855708,-0.19431 1.001498,-0.121393 1.080737,-0.143054 1.053407,0.136505 0.579308,-0.76127 0.292679,-2.021828 -0.120695,-2.082469 -0.0014,-1.922906 0.0035,-2.012958 0.415798,-2.005849 -0.138713,-2.191122 -0.243577,-1.8659573" />
    </clipPath>
    <clipPath
       clipPathUnits="userSpaceOnUse"
       id="clipPath3626">
      <g
         id="g3632"
         style="display:none;stroke-width:0.999999">
        <path
           style="fill:#800080;stroke:#000000;stroke-width:0.264583px;stroke-linecap:butt;stroke-linejoin:miter;stroke-opacity:1"
           d="M 0.29763618,15.831054 3.239256,31.034589 H 5.438902 L 8.4687019,15.735478"
           id="path3628"
           sodipodi:nodetypes="cccc" />
        <path
           style="fill:#ff5555;stroke:#000000;stroke-width:0.264583px;stroke-linecap:butt;stroke-linejoin:miter;stroke-opacity:1"
           d="m 63.653218,10.983824 1.297689,1.663059 0.458685,2.058729 0.872541,2.564842 1.145785,1.872835 1.136004,1.8838 0.71078,1.694534 1.088534,2.425471 1.445476,0.03033 0.496754,-0.0666 0.855708,-0.19431 1.001498,-0.121393 1.080737,-0.143054 1.053407,0.136505 0.579308,-0.76127 0.292679,-2.021828 -0.120695,-2.082469 -0.0014,-1.922906 0.0035,-2.012958 0.415798,-2.005849 -0.138713,-2.191122 -0.243577,-1.8659573"
           id="path3630" />
      </g>
      <path
         id="lpe_path-effect3634"
         style="stroke-width:0.999999"
         class="powerclip"
         d="M -5.125,8.219773 H 81.324999 V 43.232291 H -5.125 Z M 0.29763618,15.831054 3.239256,31.034589 H 5.438902 L 8.4687019,15.735478 m 55.1845161,-4.751654 1.297689,1.663059 0.458685,2.058729 0.872541,2.564842 1.145785,1.872835 1.136004,1.8838 0.71078,1.694534 1.088534,2.425471 1.445476,0.03033 0.496754,-0.0666 0.855708,-0.19431 1.001498,-0.121393 1.080737,-0.143054 1.053407,0.136505 0.579308,-0.76127 0.292679,-2.021828 -0.120695,-2.082469 -0.0014,-1.922906 0.0035,-2.012958 0.415798,-2.005849 -0.138713,-2.191122 -0.243577,-1.8659573" />
    </clipPath>
  </defs>
  <g
     inkscape:label="Layer 1"
     inkscape:groupmode="layer"
     id="layer1">
    <rect
       style="opacity:1;fill:#87cdde;stroke:#0000ff;stroke-width:0.25;stroke-linecap:round;stroke-linejoin:round;stroke-miterlimit:4;stroke-dasharray:none;paint-order:fill markers stroke"
       id="rect3908"
       width="7.4949007"
       height="11.688937"
       x="0.52140945"
       y="20.160955" />
    <rect
       style="opacity:1;fill:#87cdde;stroke:#0000ff;stroke-width:0.25;stroke-linecap:round;stroke-linejoin:round;stroke-miterlimit:4;stroke-dasharray:none;paint-order:fill markers stroke"
       id="rect4250"
       width="11.1841"
       height="12.116109"
       x="65.726006"
       y="16.368397" />
    <g
       id="g2818"
       clip-path="url(#clipPath3626)"
       inkscape:path-effect="#path-effect2834;#path-effect3578;#path-effect3634">
      <g
         id="g1527">
        <path
           d="m 0,34.018304 c 28.264578,-0.503479 51.622481,-5.06142 76.199999,-5.669716 V 38.1 H 0 Z"
           id="path1361"
           style="fill:#008080;stroke:#4d4d4d;stroke-width:0.25;stroke-miterlimit:4;stroke-dasharray:none"
           inkscape:original-d="m 0,34.018304 c 28.264578,-0.503479 51.622481,-5.06142 76.199999,-5.669716 V 38.1 H 0 Z" />
        <path
           style="fill:none;stroke:#4d4d4d;stroke-width:0.25"
           d="M 1.29879,34.089336 0.1,35.288126 m 0,1.414214 2.646264,-2.646264 M 4.205882,34.010671 0.216553,38 m 1.414214,0 4.038386,-4.038386 M 7.141515,33.903465 3.04498,38 m 1.414214,0 4.161244,-4.161244 M 10.105113,33.768294 5.873407,38 m 1.414214,0 4.311748,-4.311748 M 13.097195,33.60464 8.701835,38 m 1.414213,0 4.488898,-4.488898 M 16.117523,33.412738 11.530261,38 m 1.414214,0 4.69143,-4.69143 M 19.162393,33.196296 14.358689,38 m 1.414213,0 4.9205,-4.9205 M 22.235044,32.952071 17.187115,38 m 1.414214,0 5.175357,-5.175357 M 25.31893,32.696613 20.015543,38 m 1.414214,0 5.445723,-5.445723 M 28.432029,32.411941 22.84397,38 m 1.414214,0 5.735927,-5.735927 M 31.555636,32.116761 25.672397,38 m 1.414214,0 6.036588,-6.036588 M 34.72478,31.776044 28.500824,38 m 1.414214,0 6.349527,-6.349527 M 37.838847,31.490405 31.329252,38 m 1.414213,0 6.680733,-6.680733 M 40.988171,31.169508 34.157679,38 m 1.414213,0 6.991361,-6.991361 M 44.138336,30.84777 36.986106,38 m 1.414213,0 7.313099,-7.313099 M 47.288501,30.526032 39.814533,38 m 1.414213,0 7.634212,-7.634212 M 50.42924,30.21372 42.64296,38 m 1.414214,0 7.938349,-7.938349 M 53.560065,29.911322 45.471387,38 m 1.414214,0 8.22856,-8.22856 M 56.668255,29.631559 48.299814,38 m 1.414214,0 8.504955,-8.504955 M 59.756413,29.371828 51.128241,38 m 1.414214,0 8.751389,-8.751389 M 62.827739,29.128929 53.956668,38 m 1.414214,0 8.979205,-8.979205 m 1.514,-0.09979 L 56.785096,38 m 1.414213,0 9.173029,-9.173029 M 68.871119,28.742404 59.613523,38 m 1.414213,0 9.33303,-9.33303 M 71.844307,28.597643 62.44195,38 m 1.414213,0 9.460108,-9.460108 M 74.779544,28.490833 65.270377,38 m 1.414214,0 9.415408,-9.415408 m 0,1.414213 L 68.098804,38 m 1.414214,0 6.586981,-6.586981 m 0,1.414213 L 70.927231,38 m 1.414214,0 3.758554,-3.758554 m 0,1.414213 L 73.755658,38 m 1.414214,0 0.930127,-0.930127 M 0.1,36.817316 1.282684,38 M 2.696897,38 0.1,35.403103 M 0.22443,34.113319 4.111111,38 M 5.525324,38 1.607763,34.082439 M 2.988091,34.048553 6.939538,38 M 8.353752,38 4.35964,34.005888 M 5.727283,33.959318 9.767965,38 m 1.414214,0 -4.094412,-4.094412 M 8.443544,33.847152 12.596392,38 m 1.414214,0 -4.216925,-4.216925 M 11.138416,33.713596 15.42482,38 m 1.414213,0 -4.360108,-4.360108 M 13.813451,33.560205 18.253246,38 m 1.414214,0 -4.522405,-4.522405 M 16.470216,33.388542 21.081674,38 m 1.414213,0 -4.702251,-4.702251 M 19.110287,33.200186 23.910101,38 m 1.414213,0 -4.898064,-4.898064 M 21.732166,32.993638 26.738528,38 m 1.414213,0 -5.114333,-5.114333 M 24.344651,32.777696 29.566955,38 m 1.414214,0 -5.333452,-5.333452 M 26.943444,32.548062 32.395382,38 m 1.414214,0 -5.570424,-5.570424 M 29.5349,32.31109 35.22381,38 m 1.414213,0 -5.811875,-5.811875 M 32.114341,32.062105 38.052236,38 m 1.414214,0 -6.063915,-6.063915 M 34.690729,31.810065 40.880664,38 m 1.414213,0 -6.320065,-6.320065 M 37.258503,31.549413 43.70909,38 m 1.414214,0 -6.58111,-6.58111 M 39.825748,31.28823 46.537518,38 m 1.414213,0 -6.842823,-6.842823 M 42.392068,31.026123 49.365945,38 m 1.414213,0 -7.104931,-7.104931 M 44.958387,30.764015 52.194372,38 m 1.414214,0 -7.367039,-7.367039 M 47.524706,30.501907 55.022799,38 m 1.414214,0 -7.631808,-7.631808 M 50.097185,30.245958 57.851227,38 m 1.414213,0 -7.879195,-7.879195 M 52.675305,29.995652 60.679653,38 m 1.414214,0 -8.125435,-8.125435 M 55.265866,29.757786 63.50808,38 M 64.922294,38 56.5633,29.641006 M 57.860734,29.524226 66.336508,38 m 1.414213,0 -8.58114,-8.58114 M 60.478862,29.313928 69.164934,38 m 1.414214,0 -8.791004,-8.791004 m 1.314612,-0.0996 L 71.993362,38 m 1.414213,0 -8.984397,-8.984397 M 65.750099,28.92831 74.821789,38 m 1.27821,-0.136004 -9.020824,-9.020824 m 1.339002,-0.07521 7.681822,7.681822 m 0,-1.414214 -6.339691,-6.339691 m 1.349254,-0.06496 4.990437,4.990437 m 0,-1.414214 -3.633895,-3.633895 m 1.360823,-0.05339 2.273072,2.273072 m 0,-1.414214 -0.900363,-0.900363"
           id="path1525"
           inkscape:original-d="M 1.298790,34.089336 l -1.198790,1.198790 M 0.100000,36.702340 l 2.646264,-2.646264 M 4.205882,34.010671 l -3.989329,3.989329 M 1.630767,38.000000 l 4.038386,-4.038386 M 7.141515,33.903465 l -4.096535,4.096535 M 4.459194,38.000000 l 4.161244,-4.161244 M 10.105113,33.768294 l -4.231706,4.231706 M 7.287621,38.000000 l 4.311748,-4.311748 M 13.097195,33.604640 l -4.395360,4.395360 M 10.116048,38.000000 l 4.488898,-4.488898 M 16.117523,33.412738 l -4.587262,4.587262 M 12.944475,38.000000 l 4.691430,-4.691430 M 19.162393,33.196296 l -4.803704,4.803704 M 15.772902,38.000000 l 4.920500,-4.920500 M 22.235044,32.952071 l -5.047929,5.047929 M 18.601329,38.000000 l 5.175357,-5.175357 M 25.318930,32.696613 l -5.303387,5.303387 M 21.429757,38.000000 l 5.445723,-5.445723 M 28.432029,32.411941 l -5.588059,5.588059 M 24.258184,38.000000 l 5.735927,-5.735927 M 31.555636,32.116761 l -5.883239,5.883239 M 27.086611,38.000000 l 6.036588,-6.036588 M 34.724780,31.776044 l -6.223956,6.223956 M 29.915038,38.000000 l 6.349527,-6.349527 M 37.838847,31.490405 l -6.509595,6.509595 M 32.743465,38.000000 l 6.680733,-6.680733 M 40.988171,31.169508 l -6.830492,6.830492 M 35.571892,38.000000 l 6.991361,-6.991361 M 44.138336,30.847770 l -7.152230,7.152230 M 38.400319,38.000000 l 7.313099,-7.313099 M 47.288501,30.526032 l -7.473968,7.473968 M 41.228746,38.000000 l 7.634212,-7.634212 M 50.429240,30.213720 l -7.786280,7.786280 M 44.057174,38.000000 l 7.938349,-7.938349 M 53.560065,29.911322 l -8.088678,8.088678 M 46.885601,38.000000 l 8.228560,-8.228560 M 56.668255,29.631559 l -8.368441,8.368441 M 49.714028,38.000000 l 8.504955,-8.504955 M 59.756413,29.371828 l -8.628172,8.628172 M 52.542455,38.000000 l 8.751389,-8.751389 M 62.827739,29.128929 l -8.871071,8.871071 M 55.370882,38.000000 l 8.979205,-8.979205 M 65.864087,28.921009 l -9.078991,9.078991 M 58.199309,38.000000 l 9.173029,-9.173029 M 68.871119,28.742404 l -9.257596,9.257596 M 61.027736,38.000000 l 9.333030,-9.333030 M 71.844307,28.597643 l -9.402357,9.402357 M 63.856163,38.000000 l 9.460108,-9.460108 M 74.779544,28.490833 l -9.509167,9.509167 M 66.684591,38.000000 l 9.415408,-9.415408 M 76.099999,29.998805 l -8.001195,8.001195 M 69.513018,38.000000 l 6.586981,-6.586981 M 76.099999,32.827232 l -5.172768,5.172768 M 72.341445,38.000000 l 3.758554,-3.758554 M 76.099999,35.655659 l -2.344341,2.344341 M 75.169872,38.000000 l 0.930127,-0.930127 M 0.100000,36.817316 l 1.182684,1.182684 M 2.696897,38.000000 l -2.596897,-2.596897 M 0.224430,34.113319 l 3.886681,3.886681 M 5.525324,38.000000 l -3.917561,-3.917561 M 2.988091,34.048553 l 3.951447,3.951447 M 8.353752,38.000000 l -3.994112,-3.994112 M 5.727283,33.959318 l 4.040682,4.040682 M 11.182179,38.000000 l -4.094412,-4.094412 M 8.443544,33.847152 l 4.152848,4.152848 M 14.010606,38.000000 l -4.216925,-4.216925 M 11.138416,33.713596 l 4.286404,4.286404 M 16.839033,38.000000 l -4.360108,-4.360108 M 13.813451,33.560205 l 4.439795,4.439795 M 19.667460,38.000000 l -4.522405,-4.522405 M 16.470216,33.388542 l 4.611458,4.611458 M 22.495887,38.000000 l -4.702251,-4.702251 M 19.110287,33.200186 l 4.799814,4.799814 M 25.324314,38.000000 l -4.898064,-4.898064 M 21.732166,32.993638 l 5.006362,5.006362 M 28.152741,38.000000 l -5.114333,-5.114333 M 24.344651,32.777696 l 5.222304,5.222304 M 30.981169,38.000000 l -5.333452,-5.333452 M 26.943444,32.548062 l 5.451938,5.451938 M 33.809596,38.000000 l -5.570424,-5.570424 M 29.534900,32.311090 l 5.688910,5.688910 M 36.638023,38.000000 l -5.811875,-5.811875 M 32.114341,32.062105 l 5.937895,5.937895 M 39.466450,38.000000 l -6.063915,-6.063915 M 34.690729,31.810065 l 6.189935,6.189935 M 42.294877,38.000000 l -6.320065,-6.320065 M 37.258503,31.549413 l 6.450587,6.450587 M 45.123304,38.000000 l -6.581110,-6.581110 M 39.825748,31.288230 l 6.711770,6.711770 M 47.951731,38.000000 l -6.842823,-6.842823 M 42.392068,31.026123 l 6.973877,6.973877 M 50.780158,38.000000 l -7.104931,-7.104931 M 44.958387,30.764015 l 7.235985,7.235985 M 53.608586,38.000000 l -7.367039,-7.367039 M 47.524706,30.501907 l 7.498093,7.498093 M 56.437013,38.000000 l -7.631808,-7.631808 M 50.097185,30.245958 l 7.754042,7.754042 M 59.265440,38.000000 l -7.879195,-7.879195 M 52.675305,29.995652 l 8.004348,8.004348 M 62.093867,38.000000 l -8.125435,-8.125435 M 55.265866,29.757786 l 8.242214,8.242214 M 64.922294,38.000000 l -8.358994,-8.358994 M 57.860734,29.524226 l 8.475774,8.475774 M 67.750721,38.000000 l -8.581140,-8.581140 M 60.478862,29.313928 l 8.686072,8.686072 M 70.579148,38.000000 l -8.791004,-8.791004 M 63.102756,29.109394 l 8.890606,8.890606 M 73.407575,38.000000 l -8.984397,-8.984397 M 65.750099,28.928310 l 9.071690,9.071690 M 76.099999,37.863996 l -9.020824,-9.020824 M 68.418177,28.767961 l 7.681822,7.681822 M 76.099999,35.035569 l -6.339691,-6.339691 M 71.109562,28.630919 l 4.990437,4.990437 M 76.099999,32.207142 l -3.633895,-3.633895 M 73.826927,28.519857 l 2.273072,2.273072 M 76.099999,29.378715 l -0.900363,-0.900363" />
      </g>
      <path
         style="fill:none;stroke:#000000;stroke-width:0.264583px;stroke-linecap:butt;stroke-linejoin:miter;stroke-opacity:1"
         d="M 0,38.1 H 76.199999"
         id="path857"
         inkscape:original-d="M 0,38.1 H 76.199999" />
      <path
         d="m 0,30.290271 c 4.5914053,0.0087 9.0775409,-0.521999 13.481202,-0.760057 4.393277,-0.630534 8.704468,-0.658131 12.956207,-1.02485 4.260628,-0.466333 8.461555,-0.350095 12.62556,-0.758963 4.180591,0.01333 8.323964,-0.766623 12.453169,-1.208112 4.11258,-0.335533 8.211105,-0.789062 12.31835,-1.149699 4.105543,-0.360487 8.219799,-0.898348 12.365511,-0.992302 v 3.9523 C 51.622481,28.956884 28.264578,33.514825 0,34.018304 Z"
         id="path1572"
         style="fill:#917c6f"
         inkscape:original-d="m 0,30.290271 c 4.5914053,0.0087 9.0775409,-0.521999 13.481202,-0.760057 4.393277,-0.630534 8.704468,-0.658131 12.956207,-1.02485 4.260628,-0.466333 8.461555,-0.350095 12.62556,-0.758963 4.180591,0.01333 8.323964,-0.766623 12.453169,-1.208112 4.11258,-0.335533 8.211105,-0.789062 12.31835,-1.149699 4.105543,-0.360487 8.219799,-0.898348 12.365511,-0.992302 v 3.9523 C 51.622481,28.956884 28.264578,33.514825 0,34.018304 Z" />
      <path
         style="fill:none;stroke:#000000;stroke-width:0.264583px;stroke-linecap:butt;stroke-linejoin:miter;stroke-opacity:1"
         d="m 0,34.018304 c 28.264578,-0.503479 51.622481,-5.06142 76.199999,-5.669716"
         id="path1279"
         inkscape:original-d="m 0,34.018304 c 28.264578,-0.503479 51.622481,-5.06142 76.199999,-5.669716" />
      <path
         d="m 0,30.290271 c 4.5914053,0.0087 9.0775409,-0.521999 13.481202,-0.760057 4.393277,-0.630534 8.704468,-0.658131 12.956207,-1.02485 4.260628,-0.466333 8.461555,-0.350095 12.62556,-0.758963 4.180591,0.01333 8.323964,-0.766623 12.453169,-1.208112 4.11258,-0.335533 8.211105,-0.789062 12.31835,-1.149699 4.105543,-0.360487 8.219799,-0.898348 12.365511,-0.992302 V 20.77602 C 50.991827,21.296007 26.832286,27.169951 0,26.562237 Z"
         id="path1650"
         style="fill:#ffb380"
         inkscape:original-d="m 0,30.290271 c 4.5914053,0.0087 9.0775409,-0.521999 13.481202,-0.760057 4.393277,-0.630534 8.704468,-0.658131 12.956207,-1.02485 4.260628,-0.466333 8.461555,-0.350095 12.62556,-0.758963 4.180591,0.01333 8.323964,-0.766623 12.453169,-1.208112 4.11258,-0.335533 8.211105,-0.789062 12.31835,-1.149699 4.105543,-0.360487 8.219799,-0.898348 12.365511,-0.992302 V 20.77602 C 50.991827,21.296007 26.832286,27.169951 0,26.562237 Z" />
      <path
         style="fill:none;stroke:#000000;stroke-width:0.264583px;stroke-linecap:butt;stroke-linejoin:miter;stroke-opacity:1"
         d="m 0,30.290271 c 4.5914053,0.0087 9.0775409,-0.521999 13.481202,-0.760057 4.393277,-0.630534 8.704468,-0.658131 12.956207,-1.02485 4.260628,-0.466333 8.461555,-0.350095 12.62556,-0.758963 4.180591,0.01333 8.323964,-0.766623 12.453169,-1.208112 4.11258,-0.335533 8.211105,-0.789062 12.31835,-1.149699 4.105543,-0.360487 8.219799,-0.898348 12.365511,-0.992302"
         id="path1277"
         inkscape:original-d="m 0,30.290271 c 4.5914053,0.0087 9.0775409,-0.521999 13.481202,-0.760057 4.393277,-0.630534 8.704468,-0.658131 12.956207,-1.02485 4.260628,-0.466333 8.461555,-0.350095 12.62556,-0.758963 4.180591,0.01333 8.323964,-0.766623 12.453169,-1.208112 4.11258,-0.335533 8.211105,-0.789062 12.31835,-1.149699 4.105543,-0.360487 8.219799,-0.898348 12.365511,-0.992302" />
      <path
         d="m 0,22.834204 c 2.6116141,0.116331 5.2076704,-0.08994 7.7906877,-0.113761 2.5789453,-0.269434 5.1448933,-0.169329 7.7003503,-0.300057 2.555971,-0.192533 5.101446,-0.04263 7.638935,-0.252644 2.549062,0.05392 5.090065,-0.3958 7.625551,-0.670203 2.53042,-0.208744 5.055347,-0.512791 7.577306,-0.823962 2.520944,-0.24995 5.038923,-0.739432 7.556463,-1.061642 2.510344,-0.425049 5.020251,-0.335761 7.532225,-0.626681 2.524991,0.0055 5.052069,-0.486373 7.583777,-0.76687 2.519779,-0.169103 5.044144,-0.555613 7.575602,-0.781093 2.53177,-0.225508 5.070635,-0.439522 7.619102,-0.487033 V 20.77602 C 50.991827,21.296007 26.832286,27.169951 0,26.562237 Z"
         id="path1748"
         style="fill:#ffeeaa"
         inkscape:original-d="m 0,22.834204 c 2.6116141,0.116331 5.2076704,-0.08994 7.7906877,-0.113761 2.5789453,-0.269434 5.1448933,-0.169329 7.7003503,-0.300057 2.555971,-0.192533 5.101446,-0.04263 7.638935,-0.252644 2.549062,0.05392 5.090065,-0.3958 7.625551,-0.670203 2.53042,-0.208744 5.055347,-0.512791 7.577306,-0.823962 2.520944,-0.24995 5.038923,-0.739432 7.556463,-1.061642 2.510344,-0.425049 5.020251,-0.335761 7.532225,-0.626681 2.524991,0.0055 5.052069,-0.486373 7.583777,-0.76687 2.519779,-0.169103 5.044144,-0.555613 7.575602,-0.781093 2.53177,-0.225508 5.070635,-0.439522 7.619102,-0.487033 V 20.77602 C 50.991827,21.296007 26.832286,27.169951 0,26.562237 Z" />
      <path
         style="fill:none;stroke:#000000;stroke-width:0.264583px;stroke-linecap:butt;stroke-linejoin:miter;stroke-opacity:1"
         d="m 0,26.562237 c 26.832286,0.607714 50.991827,-5.26623 76.199999,-5.786217"
         id="path1275"
         inkscape:original-d="m 0,26.562237 c 26.832286,0.607714 50.991827,-5.26623 76.199999,-5.786217" />
      <path
         d="m 0,19.106171 c 3.1749994,0.214863 6.3431422,-0.0411 9.5069998,-0.07404 3.1570092,-0.364492 6.3097512,-0.250529 9.4607812,-0.457702 3.153174,-0.290716 6.304633,-0.127724 9.456938,-0.448674 3.170912,0.03476 6.34268,-0.615637 9.517909,-1.020132 3.16473,-0.315256 6.332898,-0.752986 9.507083,-1.177975 3.170567,-0.342024 6.347138,-0.990955 9.532284,-1.376736 3.179083,-0.525122 6.366708,-0.292476 9.565432,-0.519434 3.205521,-0.227441 6.422188,-0.625464 9.652572,-0.679432 v 3.598212 c -2.548467,0.04751 -5.087332,0.261525 -7.619102,0.487033 -2.531458,0.22548 -5.055823,0.61199 -7.575602,0.781093 -2.531708,0.280497 -5.058786,0.77237 -7.583777,0.76687 -2.511974,0.29092 -5.021881,0.201632 -7.532225,0.626681 -2.51754,0.32221 -5.035519,0.811692 -7.556463,1.061642 -2.521959,0.311171 -5.046886,0.615218 -7.577306,0.823962 -2.535486,0.274403 -5.076489,0.724123 -7.625551,0.670203 -2.537489,0.210014 -5.082964,0.06011 -7.638935,0.252644 -2.555457,0.130728 -5.121405,0.03062 -7.7003503,0.300057 C 5.2076704,22.744264 2.6116141,22.950535 0,22.834204 Z"
         id="path1860"
         style="fill:#d3bc5f"
         inkscape:original-d="m 0,19.106171 c 3.1749994,0.214863 6.3431422,-0.0411 9.5069998,-0.07404 3.1570092,-0.364492 6.3097512,-0.250529 9.4607812,-0.457702 3.153174,-0.290716 6.304633,-0.127724 9.456938,-0.448674 3.170912,0.03476 6.34268,-0.615637 9.517909,-1.020132 3.16473,-0.315256 6.332898,-0.752986 9.507083,-1.177975 3.170567,-0.342024 6.347138,-0.990955 9.532284,-1.376736 3.179083,-0.525122 6.366708,-0.292476 9.565432,-0.519434 3.205521,-0.227441 6.422188,-0.625464 9.652572,-0.679432 l 0,3.598212 c -2.548467,0.04751 -5.087332,0.261525 -7.619102,0.487033 -2.531458,0.22548 -5.055823,0.61199 -7.575602,0.781093 -2.531708,0.280497 -5.058786,0.77237 -7.583777,0.76687 -2.511974,0.29092 -5.021881,0.201632 -7.532225,0.626681 -2.51754,0.32221 -5.035519,0.811692 -7.556463,1.061642 -2.521959,0.311171 -5.046886,0.615218 -7.577306,0.823962 -2.535486,0.274403 -5.076489,0.724123 -7.625551,0.670203 -2.537489,0.210014 -5.082964,0.06011 -7.638935,0.252644 -2.555457,0.130728 -5.121405,0.03062 -7.7003503,0.300057 C 5.2076704,22.744264 2.6116141,22.950535 0,22.834204 Z" />
      <path
         style="fill:none;stroke:#000000;stroke-width:0.264583px;stroke-linecap:butt;stroke-linejoin:miter;stroke-opacity:1"
         d="m 0,22.834204 c 2.6116141,0.116331 5.2076704,-0.08994 7.7906877,-0.113761 2.5789453,-0.269434 5.1448933,-0.169329 7.7003503,-0.300057 2.555971,-0.192533 5.101446,-0.04263 7.638935,-0.252644 2.549062,0.05392 5.090065,-0.3958 7.625551,-0.670203 2.53042,-0.208744 5.055347,-0.512791 7.577306,-0.823962 2.520944,-0.24995 5.038923,-0.739432 7.556463,-1.061642 2.510344,-0.425049 5.020251,-0.335761 7.532225,-0.626681 2.524991,0.0055 5.052069,-0.486373 7.583777,-0.76687 2.519779,-0.169103 5.044144,-0.555613 7.575602,-0.781093 2.53177,-0.225508 5.070635,-0.439522 7.619102,-0.487033"
         id="path1273"
         inkscape:original-d="m 0,22.834204 c 2.6116141,0.116331 5.2076704,-0.08994 7.7906877,-0.113761 2.5789453,-0.269434 5.1448933,-0.169329 7.7003503,-0.300057 2.555971,-0.192533 5.101446,-0.04263 7.638935,-0.252644 2.549062,0.05392 5.090065,-0.3958 7.625551,-0.670203 2.53042,-0.208744 5.055347,-0.512791 7.577306,-0.823962 2.520944,-0.24995 5.038923,-0.739432 7.556463,-1.061642 2.510344,-0.425049 5.020251,-0.335761 7.532225,-0.626681 2.524991,0.0055 5.052069,-0.486373 7.583777,-0.76687 2.519779,-0.169103 5.044144,-0.555613 7.575602,-0.781093 2.53177,-0.225508 5.070635,-0.439522 7.619102,-0.487033" />
      <path
         style="fill:none;stroke:#000000;stroke-width:0.264583px;stroke-linecap:butt;stroke-linejoin:miter;stroke-opacity:1"
         d="m 0,19.106171 c 3.1749994,0.214863 6.3431422,-0.0411 9.5069998,-0.07404 3.1570092,-0.364492 6.3097512,-0.250529 9.4607812,-0.457702 3.153174,-0.290716 6.304633,-0.127724 9.456938,-0.448674 3.170912,0.03476 6.34268,-0.615637 9.517909,-1.020132 3.16473,-0.315256 6.332898,-0.752986 9.507083,-1.177975 3.170567,-0.342024 6.347138,-0.990955 9.532284,-1.376736 3.179083,-0.525122 6.366708,-0.292476 9.565432,-0.519434 3.205521,-0.227441 6.422188,-0.625464 9.652572,-0.679432"
         id="path861"
         inkscape:original-d="m 0,19.106171 c 3.1749994,0.214863 6.3431422,-0.0411 9.5069998,-0.07404 3.1570092,-0.364492 6.3097512,-0.250529 9.4607812,-0.457702 3.153174,-0.290716 6.304633,-0.127724 9.456938,-0.448674 3.170912,0.03476 6.34268,-0.615637 9.517909,-1.020132 3.16473,-0.315256 6.332898,-0.752986 9.507083,-1.177975 3.170567,-0.342024 6.347138,-0.990955 9.532284,-1.376736 3.179083,-0.525122 6.366708,-0.292476 9.565432,-0.519434 3.205521,-0.227441 6.422188,-0.625464 9.652572,-0.679432" />
    </g>
    <path
       style="fill:none;stroke:#000000;stroke-width:0.264583px;stroke-linecap:butt;stroke-linejoin:miter;stroke-opacity:1"
       d="M 1.0415539,19.160683 3.240228,30.946923 5.491912,31.084221 7.8752429,19.065357"
       id="path3769" />
    <path
       style="fill:none;stroke:#000000;stroke-width:0.264583px;stroke-linecap:butt;stroke-linejoin:miter;stroke-opacity:1"
       d="m 65.198616,14.103345 1.081897,3.216772 0.284581,0.323846 1.98842,3.443437 1.641803,3.687257 0.197263,0.405759 1.441627,-0.02746 1.26314,-0.219677 2.131565,-0.50714 0.971087,0.397302"
       id="path3771" />
    <path
       sodipodi:type="star"
       style="opacity:1;fill:#0000ff;stroke:none;stroke-width:0.944882;stroke-linecap:round;stroke-linejoin:round;stroke-miterlimit:4;stroke-dasharray:none;paint-order:fill markers stroke"
       id="path4433"
       inkscape:flatsided="true"
       sodipodi:sides="3"
       sodipodi:cx="10.127335"
       sodipodi:cy="66.341385"
       sodipodi:r1="3.3056519"
       sodipodi:r2="1.652826"
       sodipodi:arg1="1.5707963"
       sodipodi:arg2="2.6179939"
       inkscape:rounded="0"
       inkscape:randomized="0"
       d="m 10.127335,69.647037 -2.862779,-4.958478 5.725557,0 z"
       transform="matrix(0.26458333,0,0,0.26458333,-0.36891998,1.7280989)"
       inkscape:transform-center-y="0.21865488" />
    <path
       sodipodi:type="star"
       style="opacity:1;fill:#0000ff;stroke:none;stroke-width:0.944882;stroke-linecap:round;stroke-linejoin:round;stroke-miterlimit:4;stroke-dasharray:none;paint-order:fill markers stroke"
       id="path4559"
       inkscape:flatsided="true"
       sodipodi:sides="3"
       sodipodi:cx="10.127335"
       sodipodi:cy="66.341385"
       sodipodi:r1="3.3056519"
       sodipodi:r2="1.652826"
       sodipodi:arg1="1.5707963"
       sodipodi:arg2="2.6179939"
       inkscape:rounded="0"
       inkscape:randomized="0"
       d="m 10.127335,69.647037 -2.862779,-4.958478 5.725557,0 z"
       transform="matrix(0.26458333,0,0,0.26458333,67.894437,-2.0334447)"
       inkscape:transform-center-y="0.21865488" />
    <text
       xml:space="preserve"
       style="font-size:3.52777px;line-height:1;font-family:'Times New Roman';-inkscape-font-specification:'Times New Roman, ';text-align:center;text-anchor:middle;stroke-width:0.264583"
       x="16.525499"
       y="16.325848"
       id="text6437"><tspan
         sodipodi:role="line"
         id="tspan6435"
         style="stroke-width:0.264583"
         x="16.525499"
         y="16.325848">Elev. 125.5 ft</tspan></text>
    <text
       xml:space="preserve"
       style="font-size:3.52777px;line-height:1;font-family:'Times New Roman';-inkscape-font-specification:'Times New Roman, ';text-align:center;text-anchor:middle;stroke-width:0.264583"
       x="14.938001"
       y="33.460613"
       id="text7413"><tspan
         sodipodi:role="line"
         id="tspan7411"
         style="stroke-width:0.264583"
         x="14.938001"
         y="33.460613">Elev. 115.5 ft</tspan></text>
    <text
       xml:space="preserve"
       style="font-size:3.52777px;line-height:1;font-family:'Times New Roman';-inkscape-font-specification:'Times New Roman, ';text-align:center;text-anchor:middle;stroke-width:0.264583"
       x="56.217743"
       y="11.582778"
       id="text7417"><tspan
         sodipodi:role="line"
         id="tspan7415"
         style="stroke-width:0.264583"
         x="56.217743"
         y="11.582778">Elev. 137.23 ft</tspan></text>
    <text
       xml:space="preserve"
       style="font-size:3.52777px;line-height:1;font-family:'Times New Roman';-inkscape-font-specification:'Times New Roman, ';text-align:center;text-anchor:middle;stroke-width:0.264583"
       x="61.509415"
       y="28.448103"
       id="text7421"><tspan
         sodipodi:role="line"
         id="tspan7419"
         style="stroke-width:0.264583"
         x="61.509415"
         y="28.448103">Elev. 128.5 ft</tspan></text>
    <text
       xml:space="preserve"
       style="font-size:3.52777px;line-height:1;font-family:'Times New Roman';-inkscape-font-specification:'Times New Roman, ';text-align:center;text-anchor:middle;stroke-width:0.264583"
       x="62.278282"
       y="36.356457"
       id="text19857"><tspan
         sodipodi:role="line"
         id="tspan19855"
         style="stroke-width:0.264583"
         x="62.278282"
         y="36.356457">Impermeable rock</tspan></text>
    <text
       xml:space="preserve"
       style="font-size:3.52777px;line-height:1;font-family:'Times New Roman';-inkscape-font-specification:'Times New Roman, ';text-align:center;text-anchor:middle;stroke-width:0.264583"
       x="36.556698"
       y="30.844521"
       id="text20505"><tspan
         sodipodi:role="line"
         id="tspan20503"
         style="stroke-width:0.264583"
         x="36.556698"
         y="30.844521">Impermeable CH</tspan></text>
    <text
       xml:space="preserve"
       style="font-size:3.52777px;line-height:1;font-family:'Times New Roman';-inkscape-font-specification:'Times New Roman, ';text-align:center;text-anchor:middle;stroke-width:0.264583"
       x="35.307842"
       y="17.87389"
       id="text25035"><tspan
         sodipodi:role="line"
         id="tspan25033"
         style="stroke-width:0.264583"
         x="35.307842"
         y="17.87389">Soil 1: SC</tspan></text>
    <text
       xml:space="preserve"
       style="font-size:3.52777px;line-height:1;font-family:'Times New Roman';-inkscape-font-specification:'Times New Roman, ';text-align:center;text-anchor:middle;stroke-width:0.264583"
       x="35.307842"
       y="22.726797"
       id="text25683"><tspan
         sodipodi:role="line"
         id="tspan25681"
         style="stroke-width:0.264583"
         x="35.307842"
         y="22.726797">Soil 2: SP</tspan></text>
    <text
       xml:space="preserve"
       style="font-size:3.52777px;line-height:1;font-family:'Times New Roman';-inkscape-font-specification:'Times New Roman, ';text-align:center;text-anchor:middle;stroke-width:0.264583"
       x="35.307842"
       y="27.21014"
       id="text27461"><tspan
         sodipodi:role="line"
         id="tspan27459"
         style="stroke-width:0.264583"
         x="35.307842"
         y="27.21014">Soil 3: SM</tspan></text>
    <path
       style="fill:none;stroke:#000000;stroke-width:0.264583px;stroke-linecap:butt;stroke-linejoin:miter;stroke-opacity:1"
       d="m 47.395201,13.72978 2.306603,15.157677"
       id="path29684" />
    <path
       style="fill:none;stroke:#000000;stroke-width:0.264583px;stroke-linecap:butt;stroke-linejoin:miter;stroke-opacity:1"
       d="m 47.175523,16.530655 1.2906,-1.372978"
       id="path29799" />
    <path
       style="fill:none;stroke:#000000;stroke-width:0.264583px;stroke-linecap:butt;stroke-linejoin:miter;stroke-opacity:1"
       d="m 47.597389,20.023326 1.2906,-1.372978"
       id="path29881" />
    <path
       style="fill:none;stroke:#000000;stroke-width:0.264583px;stroke-linecap:butt;stroke-linejoin:miter;stroke-opacity:1"
       d="m 48.147584,23.601045 1.2906,-1.372978"
       id="path29883" />
    <path
       style="fill:none;stroke:#000000;stroke-width:0.264583px;stroke-linecap:butt;stroke-linejoin:miter;stroke-opacity:1"
       d="m 48.740344,27.47667 1.2906,-1.372978"
       id="path29885" />
    <text
       xml:space="preserve"
       style="font-size:3.52777px;line-height:1;font-family:'Times New Roman';-inkscape-font-specification:'Times New Roman, ';text-align:center;text-anchor:middle;stroke-width:0.264583"
       x="51.004658"
       y="18.650347"
       id="text31917"><tspan
         sodipodi:role="line"
         id="tspan31915"
         style="stroke-width:0.264583"
         x="51.004658"
         y="18.650347">3 ft</tspan></text>
    <text
       xml:space="preserve"
       style="font-size:3.52777px;line-height:1;font-family:'Times New Roman';-inkscape-font-specification:'Times New Roman, ';text-align:center;text-anchor:middle;stroke-width:0.264583"
       x="51.791969"
       y="22.096119"
       id="text32133"><tspan
         sodipodi:role="line"
         id="tspan32131"
         style="stroke-width:0.264583"
         x="51.791969"
         y="22.096119">3 ft</tspan></text>
    <text
       xml:space="preserve"
       style="font-size:3.52777px;line-height:1;font-family:'Times New Roman';-inkscape-font-specification:'Times New Roman, ';text-align:center;text-anchor:middle;stroke-width:0.264583"
       x="52.54995"
       y="25.428137"
       id="text32137"><tspan
         sodipodi:role="line"
         id="tspan32135"
         style="stroke-width:0.264583"
         x="52.54995"
         y="25.428137">4 ft</tspan></text>
    <path
       style="fill:none;stroke:#000000;stroke-width:0.264583px;stroke-linecap:butt;stroke-linejoin:miter;stroke-opacity:1"
       d="M 8.0937052,16.585574 6.23332,20.160955"
       id="path32562"
       sodipodi:nodetypes="cc" />
    <path
       style="fill:none;stroke:#000000;stroke-width:0.264583px;stroke-linecap:butt;stroke-linejoin:miter;stroke-opacity:1"
       d="M 5.6017501,32.539577 H 4.5308273 v -1.513959"
       id="path32564" />
    <path
       style="fill:none;stroke:#000000;stroke-width:0.264583px;stroke-linecap:butt;stroke-linejoin:miter;stroke-opacity:1"
       d="m 65.57552,12.002351 2.524189,4.366046"
       id="path32566"
       sodipodi:nodetypes="cc" />
    <path
       style="fill:none;stroke:#000000;stroke-width:0.264583px;stroke-linecap:butt;stroke-linejoin:miter;stroke-opacity:1"
       d="m 70.900583,27.4321 h 1.372978 v -2.355554"
       id="path32568" />
    <path
       style="fill:#4d4d4d;stroke:#4d4d4d;stroke-width:0.26458299;stroke-linecap:butt;stroke-linejoin:miter;stroke-opacity:1;stroke-miterlimit:4;stroke-dasharray:1.05833194,0.26458299;stroke-dashoffset:0"
       d="M 6.6835773,25.074789 V 0"
       id="path32683" />
    <path
       style="fill:#4d4d4d;stroke:#4d4d4d;stroke-width:0.26458299;stroke-linecap:butt;stroke-linejoin:miter;stroke-opacity:1;stroke-miterlimit:4;stroke-dasharray:1.05833194,0.26458299;stroke-dashoffset:0"
       d="M 67.559303,19.365681 V 0"
       id="path32685" />
    <path
       style="fill:#4d4d4d;stroke:#4d4d4d;stroke-width:0.26458299;stroke-linecap:butt;stroke-linejoin:miter;stroke-opacity:1;stroke-miterlimit:4;stroke-dasharray:1.05833194,0.26458299;stroke-dashoffset:0"
       d="M 6.6835773,3.5148236 H 67.559303"
       id="path33074" />
    <text
       xml:space="preserve"
       style="font-size:3.52777px;line-height:1;font-family:'Times New Roman';-inkscape-font-specification:'Times New Roman, ';text-align:center;text-anchor:middle;stroke-width:0.264583"
       x="36.912151"
       y="6.6898236"
       id="text35324"><tspan
         sodipodi:role="line"
         id="tspan35322"
         style="stroke-width:0.264583"
         x="36.912151"
         y="6.6898236">1255.6 ft</tspan></text>
  </g>
</svg>
