<?xml version="1.0" encoding="UTF-8" standalone="no"?>
<!-- Created with Inkscape (http://www.inkscape.org/) -->

<svg
   width="4in"
   height="0.60000002in"
   viewBox="0 0 101.6 15.239999"
   version="1.1"
   id="svg1"
   inkscape:version="1.4.3 (0d15f75, 2025-12-25)"
   sodipodi:docname="EX540.svg"
   xmlns:inkscape="http://www.inkscape.org/namespaces/inkscape"
   xmlns:sodipodi="http://sodipodi.sourceforge.net/DTD/sodipodi-0.dtd"
   xmlns="http://www.w3.org/2000/svg"
   xmlns:svg="http://www.w3.org/2000/svg">
  <sodipodi:namedview
     id="namedview1"
     pagecolor="#ffffff"
     bordercolor="#111111"
     borderopacity="1"
     inkscape:showpageshadow="0"
     inkscape:pageopacity="0"
     inkscape:pagecheckerboard="1"
     inkscape:deskcolor="#d1d1d1"
     inkscape:document-units="mm"
     inkscape:zoom="4.4435746"
     inkscape:cx="295.82039"
     inkscape:cy="-37.469833"
     inkscape:window-width="2880"
     inkscape:window-height="1514"
     inkscape:window-x="-11"
     inkscape:window-y="-11"
     inkscape:window-maximized="1"
     inkscape:current-layer="layer1" />
  <defs
     id="defs1" />
  <g 
     inkscape:label="Layer 1"
     inkscape:groupmode="layer"
     id="layer1">
    <path
       style="fill:#008000;fill-opacity:0.682353;stroke:#000000;stroke-width:0.264583"
       d="M 50.8,-1.513958e-7 50.8,14.42151"
       id="path2"
       sodipodi:nodetypes="cc" />
    <g class="fragment"
       id="g264"
       style="stroke:#008000">
      <g
         id="g54"
         transform="matrix(0.03690738,0,0,0.03690738,24.723577,-9.066706)"
         style="stroke:#008000">
        <path
           fill="none"
           stroke="#000000"
           stroke-width="4"
           stroke-linecap="round"
           stroke-linejoin="round"
           d="m -649.403,272.527 0.332,2.323 -2.061,21.044 0.245,6.89 0.146,0.408 4.67,-6.51"
           id="path54"
           style="stroke:#008000" />
      </g>
      <g
         id="g55"
         transform="matrix(0.03690738,0,0,0.03690738,24.723577,-9.066706)"
         style="stroke:#008000">
        <path
           fill="none"
           stroke="#000000"
           stroke-width="4"
           stroke-linecap="round"
           stroke-linejoin="round"
           d="m -670.217,269.075 1.723,0.182 12.201,-1.401 27.199,-5.502"
           id="path55"
           style="stroke:#008000" />
      </g>
      <g
         id="g56"
         transform="matrix(0.03690738,0,0,0.03690738,24.723577,-9.066706)"
         style="stroke:#008000">
        <path
           fill="none"
           stroke="#000000"
           stroke-width="4"
           stroke-linecap="round"
           stroke-linejoin="round"
           d="m -651.486,286.212 20.598,-4.747"
           id="path56"
           style="stroke:#008000" />
      </g>
      <g
         id="g57"
         transform="matrix(0.03690738,0,0,0.03690738,24.723577,-9.066706)"
         style="stroke:#008000">
        <path
           fill="none"
           stroke="#000000"
           stroke-width="4"
           stroke-linecap="round"
           stroke-linejoin="round"
           d="m -616.42,270.928 -3.843,7.834 -2.249,6.054 -0.531,2.537 0.131,1.351 0.593,1.337 3.036,1.856"
           id="path57"
           style="stroke:#008000" />
      </g>
      <g
         id="g58"
         transform="matrix(0.03690738,0,0,0.03690738,24.723577,-9.066706)"
         style="stroke:#008000">
        <path
           fill="none"
           stroke="#000000"
           stroke-width="4"
           stroke-linecap="round"
           stroke-linejoin="round"
           d="m -597.005,275.827 -6.532,9.73 -1.58,2.982 -2.207,5.616 3.13,-4.292 6.554,-6.92 4.037,-6.545 2.627,9.169 1.026,1.778 2.468,2.614 1.893,0.942 2.968,0.663 2.414,-0.201 3.823,-1.372 2.888,-2.458 1.125,-1.604 0.535,-1.481 -0.028,-4.483 -1.975,-4.968"
           id="path58"
           style="stroke:#008000" />
      </g>
      <g
         id="g59"
         transform="matrix(0.03690738,0,0,0.03690738,24.723577,-9.066706)"
         style="stroke:#008000">
        <path
           fill="none"
           stroke="#000000"
           stroke-width="4"
           stroke-linecap="round"
           stroke-linejoin="round"
           d="m -559.309,279.964 -2.453,3.423 -2.566,5.347 -1.553,4.656 0.055,0.745 0.546,0.522 1.992,-0.052 1.641,-0.572 1.423,-0.959 1.103,-1.68 0.391,-3.24 -0.599,-1.928 -1.621,-2.96 -6.711,-8.308 -0.26,-0.831 0.707,-1.077 3.257,-0.001 5.592,1.066 8.469,2.604 6.162,2.59 2.523,1.523 1.981,2.043 1.293,2.071 0.208,1.912 -0.557,2.296 -1.718,2.259 -5.704,4.458 -8.064,4.599 -5.249,1.556 -0.602,0.107 -0.251,-0.36"
           id="path59"
           style="stroke:#008000" />
      </g>
      <g
         id="g60"
         transform="matrix(0.03690738,0,0,0.03690738,24.723577,-9.066706)"
         style="stroke:#008000">
        <path
           fill="none"
           stroke="#000000"
           stroke-width="4"
           stroke-linecap="round"
           stroke-linejoin="round"
           d="m -498.978,277.617 -0.989,3.418 1.296,-2.657 0.62,-0.626"
           id="path60"
           style="stroke:#008000" />
      </g>
      <g
         id="g61"
         transform="matrix(0.03690738,0,0,0.03690738,24.723577,-9.066706)"
         style="stroke:#008000">
        <path
           fill="none"
           stroke="#000000"
           stroke-width="4"
           stroke-linecap="round"
           stroke-linejoin="round"
           d="m -497.748,295.612 0.019,-0.076"
           id="path61"
           style="stroke:#008000" />
      </g>
    </g>
    <g class="fragment"
       id="g265">
      <g
         id="g62"
         transform="matrix(0.03690738,0,0,0.03690738,24.723577,-9.066706)">
        <path
           fill="none"
           stroke="#000000"
           stroke-width="4"
           stroke-linecap="round"
           stroke-linejoin="round"
           d="m -374.446,268.471 0.343,0.583 2.472,1.785 1.051,1.433 1.719,3.516 0.786,3.315 0.4,4.978 -0.211,3.735 -0.965,4.077 -1.685,4.566 1.12,-3.687 2.338,-5.493 1.626,-2.939 2.676,-3.481 2.36,-2.464 5.549,-4.787 11.759,-8.824 0.889,-0.448 -1.22,1.865"
           id="path62" />
      </g>
      <g
         id="g63"
         transform="matrix(0.03690738,0,0,0.03690738,24.723577,-9.066706)">
        <path
           fill="none"
           stroke="#000000"
           stroke-width="4"
           stroke-linecap="round"
           stroke-linejoin="round"
           d="m -363.391,287.401 1.64,3.693 1.269,1.983 1.522,1.594 2.984,2.046 4.652,1.668 5.495,0.757 1.452,-0.009 1.513,-0.568 0.287,-0.515 -0.246,-0.884"
           id="path63" />
      </g>
      <g
         id="g64"
         transform="matrix(0.03690738,0,0,0.03690738,24.723577,-9.066706)">
        <path
           fill="none"
           stroke="#000000"
           stroke-width="4"
           stroke-linecap="round"
           stroke-linejoin="round"
           d="m -272.108,288.89 0.776,2.948 0.731,6.666 1.194,4.442 1.386,1.839 1.425,-0.041 0.732,-0.559"
           id="path64" />
      </g>
      <g
         id="g65"
         transform="matrix(0.03690738,0,0,0.03690738,24.723577,-9.066706)">
        <path
           fill="none"
           stroke="#000000"
           stroke-width="4"
           stroke-linecap="round"
           stroke-linejoin="round"
           d="m -275.123,274.357 0.305,0.267"
           id="path65" />
      </g>
      <g
         id="g66"
         transform="matrix(0.03690738,0,0,0.03690738,24.723577,-9.066706)">
        <path
           fill="none"
           stroke="#000000"
           stroke-width="4"
           stroke-linecap="round"
           stroke-linejoin="round"
           d="m -251.104,282.132 3.864,3.49 1.905,3.128 1.105,2.796 0.602,3.581 0.31,5.149 -0.435,1.732 -0.071,-1.373 0.985,-4.139 1.011,-2.952 2.497,-5.167 1.905,-2.71 2.633,-2.785 2.72,-1.593 1.385,0.199 1.615,1.061 2.162,2.2 1.379,2.096 1.357,2.954 1.081,8.241 0.922,1.883 0.811,0.799 1.031,0.453 1.889,0.417 1.327,-0.204"
           id="path66" />
      </g>
      <g
         id="g67"
         transform="matrix(0.03690738,0,0,0.03690738,24.723577,-9.066706)">
        <path
           fill="none"
           stroke="#000000"
           stroke-width="4"
           stroke-linecap="round"
           stroke-linejoin="round"
           d="m -128.852,284.656 2.249,-6.191 -0.533,-1.137 -1.284,-0.376 -4.164,0.058 -4.215,1.53 -2.77,1.928 -2.819,3.245 -1.191,2.324 -0.697,2.499 -0.584,3.019 0.197,2.111 0.955,2.364 1.129,1.497 1.529,1.052 2.956,0.778 3.886,-0.071 2.94,-0.653 4.978,-2.355 2.945,-2.477 3.243,-3.748 4.519,-7.205 1.593,-0.503 1.058,0.387 1.151,5.745 0.247,6.086 0.422,2.791 0.308,0.946 0.738,0.621 4.594,-4.753 7.6669,-9.753 1.1492,0.986 1.9557,4.602 0.1562,4.329 0.7078,0.999 1.0674,-0.104 3.0613,-1.712 2.9921,-2.69 5.9587,-8.876 2.0527,-1.844 0.281,0.109 0.9631,10.165 1.3749,3.054 1.459,1.26 1.9583,0.582 3.9527,-1.377"
           id="path67" />
      </g>
      <g
         id="g68"
         transform="matrix(0.03690738,0,0,0.03690738,24.723577,-9.066706)">
        <path
           fill="none"
           stroke="#000000"
           stroke-width="4"
           stroke-linecap="round"
           stroke-linejoin="round"
           d="m -42.2441,251.953 -0.131,8.286 -1.3003,10.659 -3.0758,11.623 -6.9691,18.572 -1.2609,5.343 0.0376,1.431 0.4199,1.157"
           id="path68" />
      </g>
      <g
         id="g69"
         transform="matrix(0.03690738,0,0,0.03690738,24.723577,-9.066706)">
        <path
           fill="none"
           stroke="#000000"
           stroke-width="4"
           stroke-linecap="round"
           stroke-linejoin="round"
           d="m -11.0206,276.384 -0.3316,0.2 -3.1848,-0.329 -5.3702,0.857 -5.5218,2.426 -0.9425,1.142 0.8102,0.959 2.0636,1.375 8.6874,2.913 2.9141,1.922 1.8252,2.328 0.87795,2.544 0.17785,3.018 -0.69116,1.74 -1.57484,1.023 -2.3575,0.591 -2.116,-0.157 -2.5941,-0.725 -2.8562,-1.165 -3.2038,-2.111 -1.6994,-1.608 -0.7913,-1.298 0.0895,-0.574"
           id="path69" />
      </g>
    </g>
    <g class="fragment"
       id="g266"
       style="stroke:#008000"
       transform="translate(1.9367468,2.441985)">
      <g
         id="g70"
         transform="matrix(0.03690738,0,0,0.03690738,24.723577,-9.8666666)"
         style="stroke:#008000">
        <path
           fill="none"
           stroke="#000000"
           stroke-width="4"
           stroke-linecap="round"
           stroke-linejoin="round"
           d="m -650.222,378.147 0.707,2.1 0.116,2.748 -0.452,9.146 0.109,7.039 1.069,2.665 0.254,-1.643 -0.237,-1.958"
           id="path70"
           style="stroke:#008000" />
      </g>
      <g
         id="g71"
         transform="matrix(0.03690738,0,0,0.03690738,24.723577,-9.8666666)"
         style="stroke:#008000">
        <path
           fill="none"
           stroke="#000000"
           stroke-width="4"
           stroke-linecap="round"
           stroke-linejoin="round"
           d="m -668.007,361.855 -3.599,-1.384 3.601,1.446 7.774,1.918 23.326,3.928 7.86,1.713 6.443,1.959 3.148,1.561 1.247,1.114 0.8,1.723 -0.647,1.536 -2.054,1.71 -4.826,2.232 -10.871,2.824 -12.656,1.637"
           id="path71"
           style="stroke:#008000" />
      </g>
      <g
         id="g72"
         transform="matrix(0.03690738,0,0,0.03690738,24.723577,-9.8666666)"
         style="stroke:#008000">
        <path
           fill="none"
           stroke="#000000"
           stroke-width="4"
           stroke-linecap="round"
           stroke-linejoin="round"
           d="m -612.416,375.392 0.748,5.062 0.133,6.948 -0.145,9.982 -0.798,4.738 -1.397,-5.178 -0.202,-3.269 0.731,-4.657 1.329,-3.714 3.067,-5.785 4.335,-6.453 1.874,-1.786 2.508,-1.231 2.095,-0.067 0.729,2.842 -0.115,2.651 -2.302,10.942 0.23,3.252 1.359,3.72 2.52,3.045 2.564,1.305 2.241,0.726 3.021,-0.254 2.917,-1.079 1.507,-0.965"
           id="path72"
           style="stroke:#008000" />
      </g>
      <g
         id="g73"
         transform="matrix(0.03690738,0,0,0.03690738,24.723577,-9.8666666)"
         style="stroke:#008000">
        <path
           fill="none"
           stroke="#000000"
           stroke-width="4"
           stroke-linecap="round"
           stroke-linejoin="round"
           d="m -577.674,378.832 -1.627,4.668 -0.736,3.246 -0.357,5.848 0.386,2.245 0.975,1.997 0.519,0.616 1.412,0.484"
           id="path73"
           style="stroke:#008000" />
      </g>
      <g
         id="g74"
         transform="matrix(0.03690738,0,0,0.03690738,24.723577,-9.8666666)"
         style="stroke:#008000">
        <path
           fill="none"
           stroke="#000000"
           stroke-width="4"
           stroke-linecap="round"
           stroke-linejoin="round"
           d="m -565.018,380.611 -2.444,12.169 -0.389,4.287 0.451,-1.181 0.883,-6.751 1.236,-5.488 2.211,-3.782 0.563,0.994 1.765,6.435 1.191,2.336 1.332,1.678 2.01,1.67 1.84,0.971 4.434,1.386 2.973,0.15 2.959,-1.223 0.866,-1.06 0.371,-1.936 0.023,-3.365 -3.165,-10.942 0.02,-0.988 0.282,-0.106"
           id="path74"
           style="stroke:#008000" />
      </g>
      <g
         id="g75"
         transform="matrix(0.03690738,0,0,0.03690738,24.723577,-9.8666666)"
         style="stroke:#008000">
        <path
           fill="none"
           stroke="#000000"
           stroke-width="4"
           stroke-linecap="round"
           stroke-linejoin="round"
           d="m -508.086,376.529 -9.775,3.288 -5.694,2.971 -1.987,1.647 -1.272,1.771 -0.399,2.269 -0.11,3.533 0.664,3.452 0.738,1.495 1.622,2.107 3.485,2.68 4.801,1.334 4.27,0.154 4.929,-0.912 3.32,-1.866 1.92,-3.354 0.094,-3.346"
           id="path75"
           style="stroke:#008000" />
      </g>
      <g
         id="g76"
         transform="matrix(0.03690738,0,0,0.03690738,24.723577,-9.8666666)"
         style="stroke:#008000">
        <path
           fill="none"
           stroke="#000000"
           stroke-width="4"
           stroke-linecap="round"
           stroke-linejoin="round"
           d="m -494.066,380.979 0.094,5.905 0.571,6.23 1.432,5.57 0.524,0.851 0.82,0.227"
           id="path76"
           style="stroke:#008000" />
      </g>
      <g
         id="g77"
         transform="matrix(0.03690738,0,0,0.03690738,24.723577,-9.8666666)"
         style="stroke:#008000">
        <path
           fill="none"
           stroke="#000000"
           stroke-width="4"
           stroke-linecap="round"
           stroke-linejoin="round"
           d="m -466.513,375.936 -2.828,7.18 -1.079,5.635 0.799,6.829 1.417,2.939 -1.269,-4.86 -1.514,-3.708 -1.338,-4.536 -0.478,-4.519 0.963,-7.77 1.417,-2.855 1.849,-2.262 1.362,-0.568 1.204,0.02 3.012,0.906 5.564,3.672 3.067,3.252 2.285,3.501 0.77,2.174 0.132,2.466 -0.539,1.553 -2.078,1.777 -2.976,1.306 -4.961,1.039 -2.649,0.1 -3.161,-0.509 -1.044,-0.624 -0.439,-0.638 1.375,-1.255"
           id="path77"
           style="stroke:#008000" />
      </g>
      <g
         id="g78"
         transform="matrix(0.03690738,0,0,0.03690738,24.723577,-9.8666666)"
         style="stroke:#008000">
        <path
           fill="none"
           stroke="#000000"
           stroke-width="4"
           stroke-linecap="round"
           stroke-linejoin="round"
           d="m -438.709,375.847 -5.848,3.567 -6.654,5.367 -0.959,1.185 -0.89,2.181 -0.176,1.636 0.604,1.071 1.707,1.358 5.115,2.096 5.632,0.341 2.804,-0.335 4.224,-1.016 4.244,-2.224 0.755,-1.132"
           id="path78"
           style="stroke:#008000" />
      </g>
      <g
         id="g79"
         transform="matrix(0.03690738,0,0,0.03690738,24.723577,-9.8666666)"
         style="stroke:#008000">
        <path
           fill="none"
           stroke="#000000"
           stroke-width="4"
           stroke-linecap="round"
           stroke-linejoin="round"
           d="m -417.925,380.429 0.772,5.134 -0.155,9.861"
           id="path79"
           style="stroke:#008000" />
      </g>
      <g
         id="g80"
         transform="matrix(0.03690738,0,0,0.03690738,24.723577,-9.8666666)"
         style="stroke:#008000">
        <path
           fill="none"
           stroke="#000000"
           stroke-width="4"
           stroke-linecap="round"
           stroke-linejoin="round"
           d="m -420.21,380.488 10.293,-3.17 12.449,-1.895"
           id="path80"
           style="stroke:#008000" />
      </g>
      <g
         id="g81"
         transform="matrix(0.03690738,0,0,0.03690738,24.723577,-9.8666666)"
         style="stroke:#008000">
        <path
           fill="none"
           stroke="#000000"
           stroke-width="4"
           stroke-linecap="round"
           stroke-linejoin="round"
           d="m -415.104,385.174 8.734,-1.083 3.597,0.04 -3.032,1.943 -8.452,3.725 -3.382,2.143 -0.917,1.257 -0.058,0.695 2.119,1.556 3.027,0.576 6.344,-0.259 7.907,-1.497 2.85,-0.902 0.591,-0.517"
           id="path81"
           style="stroke:#008000" />
      </g>
      <g
         id="g82"
         transform="matrix(0.03690738,0,0,0.03690738,24.723577,-9.8666666)"
         style="stroke:#008000">
        <path
           fill="none"
           stroke="#000000"
           stroke-width="4"
           stroke-linecap="round"
           stroke-linejoin="round"
           d="m -361.08,373.329 -4.058,-0.251 -6.073,1.023 -7.408,2.667 -2.052,1.621 -0.67,2.658 1.087,2.102 1.829,1.662 6.236,3.615 6.263,4.565 2.735,2.939 1.478,2.856 0.037,0.782 -0.526,0.613 -1.923,0.546 -6.332,-0.688 -6.007,-1.412"
           id="path82"
           style="stroke:#008000" />
      </g>
      <g
         id="g83"
         transform="matrix(0.03690738,0,0,0.03690738,24.723577,-9.8666666)"
         style="stroke:#008000">
        <path
           fill="none"
           stroke="#000000"
           stroke-width="4"
           stroke-linecap="round"
           stroke-linejoin="round"
           d="m -318.007,379.709 0.824,0.405 5.85,-0.897 -1.359,1.543"
           id="path83"
           style="stroke:#008000" />
      </g>
      <g
         id="g84"
         transform="matrix(0.03690738,0,0,0.03690738,24.723577,-9.8666666)"
         style="stroke:#008000">
        <path
           fill="none"
           stroke="#000000"
           stroke-width="4"
           stroke-linecap="round"
           stroke-linejoin="round"
           d="m -316.119,398.734 3.648,-0.138 3.304,1.008 0.642,1.808 -0.4,0.822 -1.057,1.036 -2.148,0.195 -1.201,-0.55 -1.357,-1.466 -0.31,-0.903 0.139,-1.58"
           id="path84"
           style="stroke:#008000" />
      </g>
    </g>
    <g class="fragment"
       id="g267"
       transform="translate(1.9367468,2.441985)">
      <g
         id="g85"
         transform="matrix(0.03690738,0,0,0.03690738,24.723577,-14.034883)">
        <path
           fill="none"
           stroke="#000000"
           stroke-width="4"
           stroke-linecap="round"
           stroke-linejoin="round"
           d="m -193.921,474.964 1.259,-4.656 0.635,0.814 1.083,5.96 0.378,6.493 -0.578,5.721 -0.756,3.75 -3.086,9.064 -0.014,0.735 0.336,0.393 1.095,-4.96 0.908,-2.305 4.286,-6.089 5.37,-6.298 6.858,-7.047 6.672,-5.477 3.151,-1.679 -2.001,1.61"
           id="path85" />
      </g>
      <g
         id="g86"
         transform="matrix(0.03690738,0,0,0.03690738,24.723577,-14.034883)">
        <path
           fill="none"
           stroke="#000000"
           stroke-width="4"
           stroke-linecap="round"
           stroke-linejoin="round"
           d="m -185.966,484.942 3.229,8.895 1.941,3.062 1.819,1.726 1.934,1.059 3.113,0.7 2.338,-0.303 2.22,-0.918"
           id="path86" />
      </g>
      <g
         id="g87"
         transform="matrix(0.03690738,0,0,0.03690738,24.723577,-14.034883)">
        <path
           fill="none"
           stroke="#000000"
           stroke-width="4"
           stroke-linecap="round"
           stroke-linejoin="round"
           d="m -127.451,490.443 0.088,0.189 18.918,-3.29 0.914,-0.005 -1.113,0.839"
           id="path87" />
      </g>
      <g
         id="g88"
         transform="matrix(0.03690738,0,0,0.03690738,24.723577,-14.034883)">
        <path
           fill="none"
           stroke="#000000"
           stroke-width="4"
           stroke-linecap="round"
           stroke-linejoin="round"
           d="m -127.449,498.756 3.254,1.111 4.552,0.319 22.6437,-0.658"
           id="path88" />
      </g>
      <g
         id="g89"
         transform="matrix(0.03690738,0,0,0.03690738,24.723577,-14.034883)">
        <path
           fill="none"
           stroke="#000000"
           stroke-width="4"
           stroke-linecap="round"
           stroke-linejoin="round"
           d="m -29.0031,484.641 1.8744,-4.905 0.3144,-2.058 -3.5456,2.35 -3.9961,4.268 -2.612,3.444 -3.4195,5.493 -2.2429,6.579 0.44,1.148 1.7065,0.948 4.0139,-0.426 7.4113,-3.03 3.9352,-2.735 4.6381,-5.191 2.3346,-3.522 1.3829,-4.843 0.2077,-4.235 -0.2351,-0.902 -0.9809,0.392 -1.4328,1.429 -1.6263,2.669 -1.2318,2.961 -1.1949,4.762 -0.4913,3.407 0.0742,1.922 0.6898,2.548 1.2493,2.276 1.7232,1.844 3.6573,2.119 3.6408,0.68 1.7377,-0.107 2.37034,-0.481 2.86505,-1.334"
           id="path89" />
      </g>
      <g
         id="g90"
         transform="matrix(0.03690738,0,0,0.03690738,24.723577,-14.034883)">
        <path
           fill="none"
           stroke="#000000"
           stroke-width="4"
           stroke-linecap="round"
           stroke-linejoin="round"
           d="m -55.059,519.824 20.4015,0.005 12.1535,-0.549 13.8862,-1.655 3.91223,-0.753 1.67139,-0.649 -3.87915,1.442 -0.63806,0.534"
           id="path90" />
      </g>
      <g
         id="g91"
         transform="matrix(0.03690738,0,0,0.03690738,24.723577,-14.034883)">
        <path
           fill="none"
           stroke="#000000"
           stroke-width="4"
           stroke-linecap="round"
           stroke-linejoin="round"
           d="m -32.5513,542.901 1.0918,-4.405 2.0051,-5.426 -5.6198,9.601 -6.5857,9.408 -2.6686,5.739 -0.8793,1.227 0.0841,0.354 3.9633,-8.656 10.379,-17.447 1.5682,-3.448 3.1087,5.772 1.9527,9.274 1.0317,3.463 2.0861,5.255 1.2966,2.089 0.054,-0.821"
           id="path91" />
      </g>
      <g
         id="g92"
         transform="matrix(0.03690738,0,0,0.03690738,24.723577,-14.034883)">
        <path
           fill="none"
           stroke="#000000"
           stroke-width="4"
           stroke-linecap="round"
           stroke-linejoin="round"
           d="m -42.3806,551.962 6.4651,0.365 4.8864,-0.326 9.4415,-1.158 2.8056,-0.647 0.6721,-0.425"
           id="path92" />
      </g>
      <g
         id="g93"
         transform="matrix(0.03690738,0,0,0.03690738,24.723577,-14.034883)">
        <path
           fill="none"
           stroke="#000000"
           stroke-width="4"
           stroke-linecap="round"
           stroke-linejoin="round"
           d="m 93.5418,475.182 0.1587,0.214 1.9126,-4.687 0.1652,1.938 -0.6487,4.255 -2.1448,9.259 -3.0843,9.05 -4.9375,10.229 -0.2275,0.809 0.3186,0.374 4.1135,-4.257 2.683,-4.635 0.5057,-1.488 5.6751,3.225 1.7221,0.614 4.4015,0.733 3.868,-0.106 4.746,-0.974 3.641,-1.42 0.931,-1.189 0.826,-2.333 0.317,-0.213"
           id="path93" />
      </g>
      <g
         id="g94"
         transform="matrix(0.03690738,0,0,0.03690738,24.723577,-14.034883)">
        <path
           fill="none"
           stroke="#000000"
           stroke-width="4"
           stroke-linecap="round"
           stroke-linejoin="round"
           d="m 62.0508,518.68 20.2789,0.365 30.1583,-0.305 12.22,0.812 10.133,0.105 3.451,-0.321 3.042,-0.678 2.259,-0.937 0.748,-0.686 -0.322,-0.117"
           id="path94" />
      </g>
      <g
         id="g95"
         transform="matrix(0.03690738,0,0,0.03690738,24.723577,-14.034883)">
        <path
           fill="none"
           stroke="#000000"
           stroke-width="4"
           stroke-linecap="round"
           stroke-linejoin="round"
           d="m 97.8049,537.974 0.3543,-1.819 -0.9685,1.275 -5.1209,11.223 -6.4012,11.764 0.3292,-0.035 2.4982,-4.529 7.9115,-20.695 2.2107,-4.873 1.0687,-1.384 1.1551,0.86 0.55,1.06 1.593,5.173 0.103,8.611 1.78,7.741 1.172,3.497 0.728,1.151 -0.047,0.912 0.535,-3.409"
           id="path95" />
      </g>
      <g
         id="g96"
         transform="matrix(0.03690738,0,0,0.03690738,24.723577,-14.034883)">
        <path
           fill="none"
           stroke="#000000"
           stroke-width="4"
           stroke-linecap="round"
           stroke-linejoin="round"
           d="m 82.3163,560.835 2.8077,1.179 4.6846,0.33 13.8414,-1.521"
           id="path96" />
      </g>
      <g
         id="g97"
         transform="matrix(0.03690738,0,0,0.03690738,24.723577,-14.034883)">
        <path
           fill="none"
           stroke="#000000"
           stroke-width="4"
           stroke-linecap="round"
           stroke-linejoin="round"
           d="m 126.556,531.255 3.495,-3.727 -3.444,7.552 -3.225,9.833 -0.638,4.43 0.842,5.689 1.683,3.437 1.616,1.182 2.28,0.803 3.027,-0.237 2.298,-1.391 1.386,-1.355"
           id="path97" />
      </g>
      <g
         id="g98"
         transform="matrix(0.03690738,0,0,0.03690738,24.723577,-14.034883)">
        <path
           fill="none"
           stroke="#000000"
           stroke-width="4"
           stroke-linecap="round"
           stroke-linejoin="round"
           d="m 119.867,545.14 11.32,-1.347 4.006,-0.115 3.26,0.315 1.893,-0.445"
           id="path98" />
      </g>
      <g
         id="g99"
         transform="matrix(0.03690738,0,0,0.03690738,24.723577,-14.034883)">
        <path
           fill="none"
           stroke="#000000"
           stroke-width="4"
           stroke-linecap="round"
           stroke-linejoin="round"
           d="m 180.087,505.067 6.868,-7.992 3.705,-4.839 3.239,-5.301 2.726,-5.884 1.561,-6.341 0.342,-6.315 -0.549,-8.257 -0.917,-2.295 -0.876,-0.774 -1.569,2.431 -1.818,4.441 -5.76,18.431 -1.218,5.389 -1.278,8.725 0.556,5.036 1.176,2.146 1.389,1.508 2.175,1.491 2.948,0.945 1.27,-0.124 2.265,-0.977"
           id="path99" />
      </g>
      <g
         id="g100"
         transform="matrix(0.03690738,0,0,0.03690738,24.723577,-14.034883)">
        <path
           fill="none"
           stroke="#000000"
           stroke-width="4"
           stroke-linecap="round"
           stroke-linejoin="round"
           d="m 207.195,487.837 1.484,5.359 0.136,5.016 -0.655,3.73 -1.421,3.903 -1.678,2.979 4.687,-10.578 3.919,-6.659 2.271,-2.561 3.709,-3.204 1.421,-0.745 1.239,-0.212 1.68,0.086 0.877,0.405 1.227,2.084 0.361,5.475 -0.31,8.003 0.929,3.455 1.267,2.238 2.053,1.279 1.602,0.518"
           id="path100" />
      </g>
      <g
         id="g101"
         transform="matrix(0.03690738,0,0,0.03690738,24.723577,-14.034883)">
        <path
           fill="none"
           stroke="#000000"
           stroke-width="4"
           stroke-linecap="round"
           stroke-linejoin="round"
           d="m 262.047,440.741 -3.029,5.265 -4.296,9.107 -3.763,9.829 -1.662,6.078 -0.776,4.149 -0.933,8.41 0.045,4.163 0.373,6.375 2.403,20.983 1.263,15.116 1.514,11.924 1.168,5.514 3.34,11.679 1.793,4.04 2.127,3.724 1.011,2.931 4.241,-4.047"
           id="path101" />
      </g>
      <g
         id="g102"
         transform="matrix(0.03690738,0,0,0.03690738,24.723577,-14.034883)">
        <path
           fill="none"
           stroke="#000000"
           stroke-width="4"
           stroke-linecap="round"
           stroke-linejoin="round"
           d="M 266,516 H 482"
           id="path102" />
      </g>
      <g
         id="g103"
         transform="matrix(0.03690738,0,0,0.03690738,24.723577,-14.034883)">
        <path
           fill="none"
           stroke="#000000"
           stroke-width="4"
           stroke-linecap="round"
           stroke-linejoin="round"
           d="m 356.729,467.284 -0.202,-3.64 -0.679,8.412 -2.988,19.476 0.008,2.132 0.45,2.133 0.99,-3.418 0.891,-9.876 3.251,2.108 1.998,0.835 2.49,0.729 2.281,-0.107 1.675,-0.396 4.258,-1.994 2.402,-1.845 2.388,-2.52 2.358,-3.571 2.627,-6.449 0.823,-3.207 0.883,-8.748 -1.679,3.859 -1.148,3.756 -4.761,20.684 0.074,2.425 0.976,2.305 1.16,1.169 1.148,0.381 0.565,-0.174"
           id="path103" />
      </g>
      <g
         id="g104"
         transform="matrix(0.03690738,0,0,0.03690738,24.723577,-14.034883)">
        <path
           fill="none"
           stroke="#000000"
           stroke-width="4"
           stroke-linecap="round"
           stroke-linejoin="round"
           d="m 395.281,490.442 3.937,-13.726 -2.265,12.544 -0.192,4.235 0.15,1.629 0.827,2.568 1.075,1.318 0.946,0.424"
           id="path104" />
      </g>
      <g
         id="g105"
         transform="matrix(0.03690738,0,0,0.03690738,24.723577,-14.034883)">
        <path
           fill="none"
           stroke="#000000"
           stroke-width="4"
           stroke-linecap="round"
           stroke-linejoin="round"
           d="m 298.883,528.544 -1.654,9.446 -1.068,11.032 0.039,5.351 0.675,8.812 -0.184,2.452"
           id="path105" />
      </g>
      <g
         id="g106"
         transform="matrix(0.03690738,0,0,0.03690738,24.723577,-14.034883)">
        <path
           fill="none"
           stroke="#000000"
           stroke-width="4"
           stroke-linecap="round"
           stroke-linejoin="round"
           d="m 292.687,551.854 2.031,0.724 1.788,0.145 8.458,-0.199 7.395,-1.428 3.067,-1.05 1.209,-0.73 0.545,-0.77 0.768,-3.749 0.24,-11.802 1.523,-10.504 -1.242,5.451 -1.485,9.516 -0.544,5.542 0.004,8.647 0.39,6.664 1.158,4.951 1.143,2.148 2.242,0.792"
           id="path106" />
      </g>
      <g
         id="g107"
         transform="matrix(0.03690738,0,0,0.03690738,24.723577,-14.034883)">
        <path
           fill="none"
           stroke="#000000"
           stroke-width="4"
           stroke-linecap="round"
           stroke-linejoin="round"
           d="m 333.296,561.841 1.488,-7.494 1.119,-2.552 -2.011,8.684 -0.196,3.059 0.403,2.583 1.471,1.208 0.701,0.221"
           id="path107" />
      </g>
      <g
         id="g108"
         transform="matrix(0.03690738,0,0,0.03690738,24.723577,-14.034883)">
        <path
           fill="none"
           stroke="#000000"
           stroke-width="4"
           stroke-linecap="round"
           stroke-linejoin="round"
           d="m 361.298,553.863 2.445,0.565 7.487,0.117 16.541,-0.153 1.462,-0.145 0.536,-0.538"
           id="path108" />
      </g>
      <g
         id="g109"
         transform="matrix(0.03690738,0,0,0.03690738,24.723577,-14.034883)">
        <path
           fill="none"
           stroke="#000000"
           stroke-width="4"
           stroke-linecap="round"
           stroke-linejoin="round"
           d="m 416.374,530.952 -3.289,12.087 -2.583,6.414 -5.317,10.767 -0.7,1.709 0.145,0.913 1.488,-1.064 2.634,-3.039 3.167,-5.626 2.81,-7.349 2.677,-9.899 2.464,12.296 1.523,4.132 1.383,2.487 2.812,3.762 6.442,7.156 0.527,1.075 -3.514,-1.153 -7.922,-1.623 -3.961,-0.104 -6.971,0.526 -1.464,-0.292 3.582,-0.476"
           id="path109" />
      </g>
      <g
         id="g110"
         transform="matrix(0.03690738,0,0,0.03690738,24.723577,-14.034883)">
        <path
           fill="none"
           stroke="#000000"
           stroke-width="4"
           stroke-linecap="round"
           stroke-linejoin="round"
           d="m 448.216,529.687 -1.321,2.623 -1.52,4.991 -1.424,8.956 0.353,9.162 0.914,3.716 1.691,4.226 0.176,1.062 -0.416,0.498 -0.387,-9.746"
           id="path110" />
      </g>
      <g
         id="g111"
         transform="matrix(0.03690738,0,0,0.03690738,24.723577,-14.034883)">
        <path
           fill="none"
           stroke="#000000"
           stroke-width="4"
           stroke-linecap="round"
           stroke-linejoin="round"
           d="m 441.858,547.945 5.062,3.859 5.849,2.7 2.917,0.357 3.825,-1.006 1.502,-1.242 0.335,-0.757 0.533,-2.35 -0.007,-5.622 0.468,-3.441 1.126,-4.513 0.747,-1.682 -2.544,6.449 -1.309,4.934 -0.629,5.279 0.237,5.013 0.864,2.708 1.7,2.068 4.943,3.392 1.329,0.596 2.123,0.155"
           id="path111" />
      </g>
      <g
         id="g112"
         transform="matrix(0.03690738,0,0,0.03690738,24.723577,-14.034883)">
        <path
           fill="none"
           stroke="#000000"
           stroke-width="4"
           stroke-linecap="round"
           stroke-linejoin="round"
           d="m 490.191,455.573 0.135,-8.431 2.934,3.753 2.904,4.564 1.649,3.976 1.214,4.207 1.383,8.809 2.633,23.394 1.697,28.589 -0.211,17.286 -0.729,6.125 -1.119,5.422 -1.498,4.756 -2.003,4.719 -5.207,6.987 -3.157,5.283 0.06,0.366 0.398,-0.271 4.392,-4.223"
           id="path112" />
      </g>
    </g>
    <!-- STUDENT_HIDDEN
<g class="Animate"
       id="g268"
       style="stroke:#ff0000"
       transform="translate(1.9367468,2.441985)">
      <g
         id="g113"
         transform="matrix(0.03690738,0,0,0.03690738,24.723577,-14.034883)"
         style="stroke:#ff0000">
        <path
           fill="none"
           stroke="#000000"
           stroke-width="4"
           stroke-linecap="round"
           stroke-linejoin="round"
           d="m 290.493,580.12 0.583,0.604 7.442,-3.264 5.445,-1.076 18.852,-1.803 7.37,-0.036 8.486,1.088 26.091,6.127 5.535,1.57 2.409,1.066 1.376,1.092 0.386,0.828 0.357,2.922 -0.233,-1.947 1.023,-2.479 1.621,-1.427 3.106,-1.461 5.518,-1.148 12.181,-0.81 4.087,0.066 5.252,0.664 20.821,4.418 17.995,2.59 3.633,0.254 1.788,-0.478 1.738,-1.222 1.61,-1.871 2.41,-3.658 2.27,-4.445 1.035,-3.121 -0.108,-0.701 -1.63,0.066"
           id="path113"
           style="stroke:#ff0000" />
      </g>
      <g
         id="g114"
         transform="matrix(0.03690738,0,0,0.03690738,24.723577,-14.034883)"
         style="stroke:#ff0000">
        <path
           fill="none"
           stroke="#000000"
           stroke-width="4"
           stroke-linecap="round"
           stroke-linejoin="round"
           d="m 363.27,618.059 -2.564,4.599 -0.861,2.231 -3.155,11.138 -0.255,3.74 0.379,2.283 1.521,4.983 -0.303,1.523 1.154,-3.313 0.034,-2.028"
           id="path114"
           style="stroke:#ff0000" />
      </g>
      <g
         id="g115"
         transform="matrix(0.03690738,0,0,0.03690738,24.723577,-14.034883)"
         style="stroke:#ff0000">
        <path
           fill="none"
           stroke="#000000"
           stroke-width="4"
           stroke-linecap="round"
           stroke-linejoin="round"
           d="m 353.663,635.347 1.364,0.553 1.62,0.128 5.92,-0.14 6.887,-1.629 2.099,-0.704 1.909,-1.087 1.055,-0.924 2.239,-2.922 1.423,-2.492 1.29,-5.914 -0.135,-2.626 -3.3,9.133 -1.419,9.781 0.61,6.254 0.801,1.05 1.462,-1.107"
           id="path115"
           style="stroke:#ff0000" />
      </g>
      <g
         id="g116"
         transform="matrix(0.03690738,0,0,0.03690738,24.723577,-14.034883)"
         style="stroke:#ff0000">
        <path
           fill="none"
           stroke="#000000"
           stroke-width="4"
           stroke-linecap="round"
           stroke-linejoin="round"
           d="m 393.112,638.289 3.328,-1.432 3.387,-0.863 5.075,-1.048 2.553,0.148 0.805,0.569 0.21,0.537 0.045,1.047 -0.641,1.104 -2.744,2.177 -3.366,1.92 -3.511,2.54 -1.272,1.53 -0.227,0.923 0.545,0.677 1.212,0.632 2.807,0.578 8.684,-0.42 1.41,-0.314 1.93,0.133"
           id="path116"
           style="stroke:#ff0000" />
      </g>
    </g>
-->
    <g class="fragment"
       id="g269">
      <g
         id="g186"
         transform="matrix(0.03554244,0,0,0.03554244,74.316805,-31.711978)">
        <path
           fill="none"
           stroke="#000000"
           stroke-width="4"
           stroke-linecap="round"
           stroke-linejoin="round"
           d="m -619.63,1054.43 0.287,-5.57 1.294,9.13 -0.382,6.08 -1.207,9.64 0.045,3.7 0.528,0.24 1.782,-1.11 2.875,-2.49 5.042,-6.42 4.515,-6.49 9.39,-16.46 0.077,4.59"
           id="path186" />
      </g>
      <g
         id="g187"
         transform="matrix(0.03554244,0,0,0.03554244,74.316805,-31.711978)">
        <path
           fill="none"
           stroke="#000000"
           stroke-width="4"
           stroke-linecap="round"
           stroke-linejoin="round"
           d="m -610.774,1064.87 2.733,4.3 4.09,8.8 1.268,2.02 1.445,1.5 2.281,1.28 3.151,0.74 2.979,-0.04 5.038,-0.92"
           id="path187" />
      </g>
      <g
         id="g188"
         transform="matrix(0.03554244,0,0,0.03554244,74.316805,-31.711978)">
        <path
           fill="none"
           stroke="#000000"
           stroke-width="4"
           stroke-linecap="round"
           stroke-linejoin="round"
           d="m -568.342,1065.58 3.539,1.21 9.767,1.9 6.323,-0.46 3.525,-1.05"
           id="path188" />
      </g>
      <g
         id="g189"
         transform="matrix(0.03554244,0,0,0.03554244,74.316805,-31.711978)">
        <path
           fill="none"
           stroke="#000000"
           stroke-width="4"
           stroke-linecap="round"
           stroke-linejoin="round"
           d="m -569.372,1082.28 6.281,0.31 15.175,-0.01 6.239,0.38 1.161,-0.15 -0.742,-0.28 -4.144,0.62"
           id="path189" />
      </g>
    </g>
    <!-- STUDENT_HIDDEN
<g class="Animate"
       id="g270"
       style="stroke:#0000ff">
      <g
         id="g190"
         transform="matrix(0.03554244,0,0,0.03554244,74.316805,-31.711978)"
         style="stroke:#0000ff">
        <path
           fill="none"
           stroke="#000000"
           stroke-width="4"
           stroke-linecap="round"
           stroke-linejoin="round"
           d="m -475.242,1060.76 -3.401,3.34 -1.358,1.85 -1.732,3.29 -1.771,5.48 -0.259,1.92 0.223,2.61 0.828,2.06 1.876,2.06 2.575,1.15 4.235,0.53 4.777,-0.98 2.562,-1.13 2.834,-2.19 1.608,-1.96 1.865,-3.34 1.296,-4.14 0.534,-5.83 -0.426,-3.8 -1.658,-5 -0.894,-1.37 -1.058,-0.84 -1.136,-0.37 -2.756,0.23 -3.472,1.5 -2.571,1.85 -1.934,1.84 -1.076,1.84 -0.206,1.31"
           id="path190"
           style="stroke:#0000ff" />
      </g>
      <g
         id="g191"
         transform="matrix(0.03554244,0,0,0.03554244,74.316805,-31.711978)"
         style="stroke:#0000ff">
        <path
           fill="none"
           stroke="#000000"
           stroke-width="4"
           stroke-linecap="round"
           stroke-linejoin="round"
           d="m -443.251,1080.14 h -0.005"
           id="path191"
           style="stroke:#0000ff" />
      </g>
      <g
         id="g192"
         transform="matrix(0.03554244,0,0,0.03554244,74.316805,-31.711978)"
         style="stroke:#0000ff">
        <path
           fill="none"
           stroke="#000000"
           stroke-width="4"
           stroke-linecap="round"
           stroke-linejoin="round"
           d="m -403.183,1049.82 -2.53,1.43 -4.575,3.93 -5.915,6.77 -2.634,4.93 -1.003,5.64 0.031,1.72 0.872,3.03 1.343,2.23 1.992,1.93 3.097,1.09 2.414,0.02 2.161,-0.61 1.733,-1.54 0.207,-3.15 -0.928,-2.14 -1.563,-2.35 -1.927,-2.02 -1.067,-0.67 -2.065,-0.35 1.472,1.19"
           id="path192"
           style="stroke:#0000ff" />
      </g>
      <g
         id="g193"
         transform="matrix(0.03554244,0,0,0.03554244,74.316805,-31.711978)"
         style="stroke:#0000ff">
        <path
           fill="none"
           stroke="#000000"
           stroke-width="4"
           stroke-linecap="round"
           stroke-linejoin="round"
           d="m -392.889,1054.97 4.383,-2.29 4.395,-1.53 1.141,-0.22 1.138,0.85 -0.085,3.23 -0.883,2.63 -2.265,3.87 -4.05,4.75 2.547,0.04 2.867,0.67 2.617,1.7 1.686,2.16 0.483,3.94 -0.918,1.76 -2.642,1.94 -2.897,1.02 -4.808,1.14 -3.861,0.3 -3.961,-0.53 -1.313,-0.67 -0.438,-0.67 2.058,-0.75 1.257,0.01"
           id="path193"
           style="stroke:#0000ff" />
      </g>
      <g
         id="g194"
         transform="matrix(0.03554244,0,0,0.03554244,74.316805,-31.711978)"
         style="stroke:#0000ff">
        <path
           fill="none"
           stroke="#000000"
           stroke-width="4"
           stroke-linecap="round"
           stroke-linejoin="round"
           d="m -352.651,1055.88 1.384,-4.68 0.64,3.66 0.851,9.11 -0.17,18.1 0.322,1.7 0.564,0.54 -0.349,-5.27"
           id="path194"
           style="stroke:#0000ff" />
      </g>
      <g
         id="g195"
         transform="matrix(0.03554244,0,0,0.03554244,74.316805,-31.711978)"
         style="stroke:#0000ff">
        <path
           fill="none"
           stroke="#000000"
           stroke-width="4"
           stroke-linecap="round"
           stroke-linejoin="round"
           d="m -351.224,1053.77 -6.062,3.96 -6.148,4.9 -2.595,3.41 -0.784,3.73 0.478,0.63 1.744,0.85 2.53,0.17 16.879,-3.95"
           id="path195"
           style="stroke:#0000ff" />
      </g>
      <g
         id="g196"
         transform="matrix(0.03554244,0,0,0.03554244,74.316805,-31.711978)"
         style="stroke:#0000ff">
        <path
           fill="none"
           stroke="#000000"
           stroke-width="4"
           stroke-linecap="round"
           stroke-linejoin="round"
           d="m -299.248,1081.57 5.274,4.96 3.479,4.56 3.844,7.1 1.755,4.33"
           id="path196"
           style="stroke:#0000ff" />
      </g>
      <g
         id="g197"
         transform="matrix(0.03554244,0,0,0.03554244,74.316805,-31.711978)"
         style="stroke:#0000ff">
        <path
           fill="none"
           stroke="#000000"
           stroke-width="4"
           stroke-linecap="round"
           stroke-linejoin="round"
           d="m -282.805,1080.35 -4.681,7.41 -5.646,7.2 -4.588,4.96 -4.988,4.48 -0.762,0.81 0.215,0.09"
           id="path197"
           style="stroke:#0000ff" />
      </g>
      <g
         id="g198"
         transform="matrix(0.03554244,0,0,0.03554244,74.316805,-31.711978)"
         style="stroke:#0000ff">
        <path
           fill="none"
           stroke="#000000"
           stroke-width="4"
           stroke-linecap="round"
           stroke-linejoin="round"
           d="M -254,1096 H -90"
           id="path198"
           style="stroke:#0000ff" />
      </g>
      <g
         id="g199"
         transform="matrix(0.03554244,0,0,0.03554244,74.316805,-31.711978)"
         style="stroke:#0000ff">
        <path
           fill="none"
           stroke="#000000"
           stroke-width="4"
           stroke-linecap="round"
           stroke-linejoin="round"
           d="m -221.813,1144.61 -0.325,0.17 0.253,-0.63 3.955,-6.5 6.529,-12.52 2.359,-6.84 1.197,-7.89 -0.062,2.04 -3.483,13.9 -3.547,16.05 0.107,0.76 0.514,-0.05 4.698,-4.96"
           id="path199"
           style="stroke:#0000ff" />
      </g>
      <g
         id="g200"
         transform="matrix(0.03554244,0,0,0.03554244,74.316805,-31.711978)"
         style="stroke:#0000ff">
        <path
           fill="none"
           stroke="#000000"
           stroke-width="4"
           stroke-linecap="round"
           stroke-linejoin="round"
           d="m -191.66,1138.33 4.212,-6.43 1.852,-3.59 2.38,-7.62 1.48,-7.97 0.875,-1.61 0.17,1.93 -0.349,3.03 -4.711,22.27 -0.901,5.97 0.181,1.32 0.313,0.14 3.307,-3.88"
           id="path200"
           style="stroke:#0000ff" />
      </g>
      <g
         id="g201"
         transform="matrix(0.03554244,0,0,0.03554244,74.316805,-31.711978)"
         style="stroke:#0000ff">
        <path
           fill="none"
           stroke="#000000"
           stroke-width="4"
           stroke-linecap="round"
           stroke-linejoin="round"
           d="m -155.317,1122.62 1.536,-4.97 -0.012,-2.78 -0.14,-0.45 -1.756,-0.24 -0.99,0.2 -2.148,1.21 -1.738,1.43 -1.89,2.29 -2.292,3.75 -1.388,4.36 -1.024,6.26 0.343,3.32 0.972,2.27 0.977,0.89 1.672,0.48 1.816,-0.17 2.131,-0.74 4.419,-2.4 2.943,-2.02 1.689,-1.61 2.273,-2.77 1.113,-1.99 1.035,-2.79 0.155,-1.94 -0.157,-3.3 -0.666,-1.8 -1.106,-1.21 -1.636,-0.34 -3.386,0.84 -2.682,1.61 -2.922,2.64 -0.773,1.52"
           id="path201"
           style="stroke:#0000ff" />
      </g>
      <g
         id="g202"
         transform="matrix(0.03554244,0,0,0.03554244,74.316805,-31.711978)"
         style="stroke:#0000ff">
        <path
           fill="none"
           stroke="#000000"
           stroke-width="4"
           stroke-linecap="round"
           stroke-linejoin="round"
           d="m -57.2382,1080.31 0.3231,0.73 3.9002,3.84 1.711,2.45 2.9146,5.6 2.8582,7.39 0.8794,1.28 1.3063,-3.97"
           id="path202"
           style="stroke:#0000ff" />
      </g>
      <g
         id="g203"
         transform="matrix(0.03554244,0,0,0.03554244,74.316805,-31.711978)"
         style="stroke:#0000ff">
        <path
           fill="none"
           stroke="#000000"
           stroke-width="4"
           stroke-linecap="round"
           stroke-linejoin="round"
           d="m -41.7172,1079.58 -17.8758,22.56 -1.1796,1.66 -0.7406,2.14"
           id="path203"
           style="stroke:#0000ff" />
      </g>
      <g
         id="g204"
         transform="matrix(0.03554244,0,0,0.03554244,74.316805,-31.711978)"
         style="stroke:#0000ff">
        <path
           fill="none"
           stroke="#000000"
           stroke-width="4"
           stroke-linecap="round"
           stroke-linejoin="round"
           d="m 3.19403,1092.63 1.422,-0.29 1.45404,-1.14 4.31593,-4.69 6.8456,-8.9 3.276,-5.5 2.1832,-5.86 2.4628,-11.1 0.7561,-5.48 0.4734,-10.24 -3.2727,8.7 -3.0897,11.88 -1.5852,8.26 -1.7821,14.01 0.5024,4.94 1.9194,3.99 1.3374,0.56 0.6743,-0.13 2.3895,-1.48"
           id="path204"
           style="stroke:#0000ff" />
      </g>
      <g
         id="g205"
         transform="matrix(0.03554244,0,0,0.03554244,74.316805,-31.711978)"
         style="stroke:#0000ff">
        <path
           fill="none"
           stroke="#000000"
           stroke-width="4"
           stroke-linecap="round"
           stroke-linejoin="round"
           d="m 32.4169,1070.58 2.1176,4.38 1.264,6.15 -0.0039,3.59 -1.4282,5.67 1.8527,-8.14 2.7534,-6.28 2.2348,-3.06 1.5637,-1.35 1.0218,-0.32 0.9552,-0.01 0.7847,0.51 1.0182,1.14 0.8487,1.88 1.4833,7.01 -0.0677,4.98 -0.4371,3.02 0.9202,-0.41"
           id="path205"
           style="stroke:#0000ff" />
      </g>
      <g
         id="g206"
         transform="matrix(0.03554244,0,0,0.03554244,74.316805,-31.711978)"
         style="stroke:#0000ff">
        <path
           fill="none"
           stroke="#000000"
           stroke-width="4"
           stroke-linecap="round"
           stroke-linejoin="round"
           d="m 89.0208,1043.48 2.6642,-4.55 -1.3252,1.32 -2.5356,3.34 -1.709,3.18 -2.1068,5.4 -2.1772,7.43 -5.8458,25.05 -1.6507,11.09 -0.3672,5.41 0.1755,5.31 0.7817,5.12 1.531,6.13 1.5277,4.38 2.6668,6.24 4.0119,6.74 2.4963,3.05 -0.1405,-0.5 0.6169,-0.89"
           id="path206"
           style="stroke:#0000ff" />
      </g>
      <g
         id="g207"
         transform="matrix(0.03554244,0,0,0.03554244,74.316805,-31.711978)"
         style="stroke:#0000ff">
        <path
           fill="none"
           stroke="#000000"
           stroke-width="4"
           stroke-linecap="round"
           stroke-linejoin="round"
           d="m 129.356,1078.4 1.429,-4.63 2.425,-5.2 3.753,-9.55 3.008,-8.62 1.394,-5.18 -0.705,4.14 -5.671,22.51 -0.344,2.29 0.187,0.5 0.441,0.01"
           id="path207"
           style="stroke:#0000ff" />
      </g>
      <g
         id="g208"
         transform="matrix(0.03554244,0,0,0.03554244,74.316805,-31.711978)"
         style="stroke:#0000ff">
        <path
           fill="none"
           stroke="#000000"
           stroke-width="4"
           stroke-linecap="round"
           stroke-linejoin="round"
           d="m 159.169,1047.94 4.122,-1.68 6.304,-1.53 1.423,0.57 0.966,1.61 0.313,6.01 -0.363,3.41 -1.764,8.5 -3.299,10.42 0.369,0.75"
           id="path208"
           style="stroke:#0000ff" />
      </g>
      <g
         id="g209"
         transform="matrix(0.03554244,0,0,0.03554244,74.316805,-31.711978)"
         style="stroke:#0000ff">
        <path
           fill="none"
           stroke="#000000"
           stroke-width="4"
           stroke-linecap="round"
           stroke-linejoin="round"
           d="m 162.423,1065.6 1.825,0.22 3.724,-0.51 5.767,-1.2 2.653,-0.93"
           id="path209"
           style="stroke:#0000ff" />
      </g>
      <g
         id="g210"
         transform="matrix(0.03554244,0,0,0.03554244,74.316805,-31.711978)"
         style="stroke:#0000ff">
        <path
           fill="none"
           stroke="#000000"
           stroke-width="4"
           stroke-linecap="round"
           stroke-linejoin="round"
           d="m 184.884,1068.03 3.626,-6.24 1.249,-3.08 4.018,-15.36 0.149,2.46 -1.109,8.11 -1.787,8.24 -1.186,7.55 0.157,2.28 0.505,0.52"
           id="path210"
           style="stroke:#0000ff" />
      </g>
      <g
         id="g211"
         transform="matrix(0.03554244,0,0,0.03554244,74.316805,-31.711978)"
         style="stroke:#0000ff">
        <path
           fill="none"
           stroke="#000000"
           stroke-width="4"
           stroke-linecap="round"
           stroke-linejoin="round"
           d="m 207.559,1077.14 5.152,-2.81 0.34,0.9 -0.341,1.23 -1.723,0.67 -0.911,-0.1 -0.963,-0.57 -0.412,-1.24 1.1,-1.56"
           id="path211"
           style="stroke:#0000ff" />
      </g>
      <g
         id="g212"
         transform="matrix(0.03554244,0,0,0.03554244,74.316805,-31.711978)"
         style="stroke:#0000ff">
        <path
           fill="none"
           stroke="#000000"
           stroke-width="4"
           stroke-linecap="round"
           stroke-linejoin="round"
           d="m 241.796,1042.62 0.781,8.18 0.043,27.87"
           id="path212"
           style="stroke:#0000ff" />
      </g>
      <g
         id="g213"
         transform="matrix(0.03554244,0,0,0.03554244,74.316805,-31.711978)"
         style="stroke:#0000ff">
        <path
           fill="none"
           stroke="#000000"
           stroke-width="4"
           stroke-linecap="round"
           stroke-linejoin="round"
           d="m 241.912,1047.02 -8.466,11.65 -5.383,6.38 0.903,0.84 1.835,0.14 16.016,-2.2 2.635,-0.02 1.37,0.42"
           id="path213"
           style="stroke:#0000ff" />
      </g>
      <g
         id="g214"
         transform="matrix(0.03554244,0,0,0.03554244,74.316805,-31.711978)"
         style="stroke:#0000ff">
        <path
           fill="none"
           stroke="#000000"
           stroke-width="4"
           stroke-linecap="round"
           stroke-linejoin="round"
           d="M 110,1094 H 264"
           id="path214"
           style="stroke:#0000ff" />
      </g>
      <g
         id="g215"
         transform="matrix(0.03554244,0,0,0.03554244,74.316805,-31.711978)"
         style="stroke:#0000ff">
        <path
           fill="none"
           stroke="#000000"
           stroke-width="4"
           stroke-linecap="round"
           stroke-linejoin="round"
           d="m 139.068,1106.92 0.73,-0.06 2.093,-2.18 3.62,-2.96 3.357,-1.27 3.521,-0.36 1.24,0.3 2.224,1.3 1.509,1.54 0.998,2.12 0.26,1.74 0.054,3 -0.399,2.21 -5.729,17.2 -1.896,4.2 0.08,0.65 0.421,0.42 0.505,-0.27 0.978,-1.86 1.066,-3.24"
           id="path215"
           style="stroke:#0000ff" />
      </g>
      <g
         id="g216"
         transform="matrix(0.03554244,0,0,0.03554244,74.316805,-31.711978)"
         style="stroke:#0000ff">
        <path
           fill="none"
           stroke="#000000"
           stroke-width="4"
           stroke-linecap="round"
           stroke-linejoin="round"
           d="m 138.872,1119.22 3.982,-0.32 18.729,-2.95"
           id="path216"
           style="stroke:#0000ff" />
      </g>
      <g
         id="g217"
         transform="matrix(0.03554244,0,0,0.03554244,74.316805,-31.711978)"
         style="stroke:#0000ff">
        <path
           fill="none"
           stroke="#000000"
           stroke-width="4"
           stroke-linecap="round"
           stroke-linejoin="round"
           d="m 184.64,1104.9 -1.873,-3.66 -1.576,-1.04 -1.372,-0.11 -1.799,1 -3.193,3.13 -2.479,4.69 0.34,1.8 2.008,1.58 1.135,0.34 2.839,-0.3 1.779,-0.74 1.763,-1.24 1.766,-5.31 0.708,3.35 0.231,5.34 -1.102,8.47 -1.311,5.84 -0.502,1.13 -1.515,1.92 -1.904,0.98 -0.972,0.03 -2.869,-1.34 -2.368,-2.31 -0.128,-0.52"
           id="path217"
           style="stroke:#0000ff" />
      </g>
      <g
         id="g218"
         transform="matrix(0.03554244,0,0,0.03554244,74.316805,-31.711978)"
         style="stroke:#0000ff">
        <path
           fill="none"
           stroke="#000000"
           stroke-width="4"
           stroke-linecap="round"
           stroke-linejoin="round"
           d="m 196.652,1123.57 4.703,3.61 1.099,1.88 -0.025,1.06 -1.648,0.01 -2.022,-1.11 -0.707,-1.47"
           id="path218"
           style="stroke:#0000ff" />
      </g>
      <g
         id="g219"
         transform="matrix(0.03554244,0,0,0.03554244,74.316805,-31.711978)"
         style="stroke:#0000ff">
        <path
           fill="none"
           stroke="#000000"
           stroke-width="4"
           stroke-linecap="round"
           stroke-linejoin="round"
           d="m 219.382,1105.33 3.01,-0.55 4.253,-0.2 2.196,0.6 1.264,0.76 0.489,0.9 0.24,2.34 -0.824,1.81 -1.839,1.57 -5.208,2.65 4.654,-1.83 1.773,-0.08 2.078,0.65 1.744,1.41 1.369,1.62 0.589,1.43 0.323,3.25 -0.801,2.96 -1.053,1.66 -2.015,1.81 -1.922,1.07 -5.371,1.49 -2.002,0.22 -1.94,-0.33 -1.468,-1.74"
           id="path219"
           style="stroke:#0000ff" />
      </g>
      <g
         id="g220"
         transform="matrix(0.03554244,0,0,0.03554244,74.316805,-31.711978)"
         style="stroke:#0000ff">
        <path
           fill="none"
           stroke="#000000"
           stroke-width="4"
           stroke-linecap="round"
           stroke-linejoin="round"
           d="m 280.711,1033.52 4.244,10.96 2.516,10.73 1.016,7.24 0.347,4.95 0.339,16.66 -0.898,9.62 -2.196,11.68 -2.302,6.55 -1.823,4 -7.474,14.29 -1.112,3.06 1.378,-2.06"
           id="path220"
           style="stroke:#0000ff" />
      </g>
      <g
         id="g221"
         transform="matrix(0.03554244,0,0,0.03554244,74.316805,-31.711978)"
         style="stroke:#0000ff">
        <path
           fill="none"
           stroke="#000000"
           stroke-width="4"
           stroke-linecap="round"
           stroke-linejoin="round"
           d="m 318.684,1078.72 -0.645,-0.92 3.163,-0.43 32.424,-2.29 -1.704,0.43 -4.265,2"
           id="path221"
           style="stroke:#0000ff" />
      </g>
      <g
         id="g222"
         transform="matrix(0.03554244,0,0,0.03554244,74.316805,-31.711978)"
         style="stroke:#0000ff">
        <path
           fill="none"
           stroke="#000000"
           stroke-width="4"
           stroke-linecap="round"
           stroke-linejoin="round"
           d="m 324.211,1087.35 6.185,-0.05 13.983,-0.96 10.324,0.26"
           id="path222"
           style="stroke:#0000ff" />
      </g>
      <g
         id="g223"
         transform="matrix(0.03554244,0,0,0.03554244,74.316805,-31.711978)"
         style="stroke:#0000ff">
        <path
           fill="none"
           stroke="#000000"
           stroke-width="4"
           stroke-linecap="round"
           stroke-linejoin="round"
           d="m 523.212,1058.19 4.769,1.85 2.796,1.49 3.761,3.66 5.133,7.26 3.975,4.43 1.957,1.54 -0.964,-3.14"
           id="path223"
           style="stroke:#0000ff" />
      </g>
      <g
         id="g224"
         transform="matrix(0.03554244,0,0,0.03554244,74.316805,-31.711978)"
         style="stroke:#0000ff">
        <path
           fill="none"
           stroke="#000000"
           stroke-width="4"
           stroke-linecap="round"
           stroke-linejoin="round"
           d="m 542.226,1056.15 -13.423,22.44 -1.2,3.03 0.035,0.67 1.102,0.49 2.494,-0.77"
           id="path224"
           style="stroke:#0000ff" />
      </g>
      <g
         id="g225"
         transform="matrix(0.03554244,0,0,0.03554244,74.316805,-31.711978)"
         style="stroke:#0000ff">
        <path
           fill="none"
           stroke="#000000"
           stroke-width="4"
           stroke-linecap="round"
           stroke-linejoin="round"
           d="m 560.112,1057.18 -3.135,18.7 0.392,5.04 0.601,1.01 0.324,-0.21"
           id="path225"
           style="stroke:#0000ff" />
      </g>
      <g
         id="g226"
         transform="matrix(0.03554244,0,0,0.03554244,74.316805,-31.711978)"
         style="stroke:#0000ff">
        <path
           fill="none"
           stroke="#000000"
           stroke-width="4"
           stroke-linecap="round"
           stroke-linejoin="round"
           d="m 572.743,1059.3 -2.552,4.66 -2.749,8.1 0.127,4.38 1.43,3.15 1.363,1.31 1.681,1.05 4.989,1.14 1.776,0.09 2.717,-0.15 3.822,-1.01 1.747,-1.07 1.911,-1.98 1.335,-3.9 0.207,-6.29 -0.943,-4.23 -1.912,-3.2 -1.518,-0.92 -2.635,-0.83 -4.661,0.07 -4.819,1.22 -3.596,1.79"
           id="path226"
           style="stroke:#0000ff" />
      </g>
      <g
         id="g227"
         transform="matrix(0.03554244,0,0,0.03554244,74.316805,-31.711978)"
         style="stroke:#0000ff">
        <path
           fill="none"
           stroke="#000000"
           stroke-width="4"
           stroke-linecap="round"
           stroke-linejoin="round"
           d="m 594.181,1048.05 10.774,0.04 0.572,-0.85"
           id="path227"
           style="stroke:#0000ff" />
      </g>
      <g
         id="g228"
         transform="matrix(0.03554244,0,0,0.03554244,74.316805,-31.711978)"
         style="stroke:#0000ff">
        <path
           fill="none"
           stroke="#000000"
           stroke-width="4"
           stroke-linecap="round"
           stroke-linejoin="round"
           d="m 620.979,1035.17 3.589,-1.52 5.564,-1.45 2.384,-0.02 2.242,0.97 0.951,0.97 0.153,0.61 0.043,1.74 -0.574,1.33 -2.97,3.84 -4.876,4.2 -2.084,2.55 0.439,0.65 2.188,0.33 8.596,-1.22"
           id="path228"
           style="stroke:#0000ff" />
      </g>
      <g
         id="g229"
         transform="matrix(0.03554244,0,0,0.03554244,74.316805,-31.711978)"
         style="stroke:#0000ff">
        <path
           fill="none"
           stroke="#000000"
           stroke-width="4"
           stroke-linecap="round"
           stroke-linejoin="round"
           d="m 663.286,1058.8 -0.433,0.13 -3.133,-1.53 -3.604,-0.91 -3.06,0.85 -3.111,2.24 -1.472,1.67 -2.293,3.63 -1.595,4.27 -0.614,2.99 0.058,1.72 0.342,1.41 1.459,1.95 2.819,1.36 2.224,0.37 2.603,-0.32 3.609,-1.28 3.885,-2.44 3.301,-3.19 2.807,-4.42 0.477,-1.34 -0.536,10.54 0.192,2.45 7.715,-12.57 1.404,-1.8 1.042,-0.77 0.454,0.18 0.255,0.71 1.087,4.39 0.114,6.33 0.36,0.47 2.716,-0.45 1.809,-0.89 4.018,-3.55 4.359,-4.98 1.026,-0.28 0.415,3.43 -1.213,5.17 -0.313,3.08 0.257,2.15 0.281,0.38 0.367,-0.16"
           id="path229"
           style="stroke:#0000ff" />
      </g>
      <g
         id="g230"
         transform="matrix(0.03554244,0,0,0.03554244,74.316805,-31.711978)"
         style="stroke:#0000ff">
        <path
           fill="none"
           stroke="#000000"
           stroke-width="4"
           stroke-linecap="round"
           stroke-linejoin="round"
           d="m 716.443,1051.5 1.776,-4.33 0.202,0.57 -0.316,2.18 -3.476,10.52 -2.297,8.34 -2.255,6.08 -3.854,8.23 -6.774,12.12 -2.24,4.68 -0.839,3.33 0.076,1.08 0.52,0.12 1.512,-1.43"
           id="path230"
           style="stroke:#0000ff" />
      </g>
      <g
         id="g231"
         transform="matrix(0.03554244,0,0,0.03554244,74.316805,-31.711978)"
         style="stroke:#0000ff">
        <path
           fill="none"
           stroke="#000000"
           stroke-width="4"
           stroke-linecap="round"
           stroke-linejoin="round"
           d="m 747.944,1062.59 -2.554,-0.06 -4.575,0.53 -8.212,2.15 -5.199,2.67 -1.871,1.61 -0.548,1.4 0.727,1.46 1.715,1.25 9.796,3.9 4.454,2.36 3.889,3.48 0.623,1.81 -0.677,0.94 -1.611,0.88 -3.565,0.78 -8.58,0.05 -9.281,-1.44 -2.543,-0.84 -0.477,-0.36 0.027,-0.37"
           id="path231"
           style="stroke:#0000ff" />
      </g>
      <g
         id="g232"
         transform="matrix(0.03554244,0,0,0.03554244,74.316805,-31.711978)"
         style="stroke:#0000ff">
        <path
           fill="none"
           stroke="#000000"
           stroke-width="4"
           stroke-linecap="round"
           stroke-linejoin="round"
           d="m -215.337,1079.44 h -0.481 l 3.312,-6.41 2.401,-6.26 1.353,-5.22 1.367,-10.94 1.259,-2.28 -0.91,5.59 -2.476,10.96 -4.35,14.81 -1.75,4.03 0.264,0.1 1.572,-1.78"
           id="path232"
           style="stroke:#0000ff" />
      </g>
      <g
         id="g233"
         transform="matrix(0.03554244,0,0,0.03554244,74.316805,-31.711978)"
         style="stroke:#0000ff">
        <path
           fill="none"
           stroke="#000000"
           stroke-width="4"
           stroke-linecap="round"
           stroke-linejoin="round"
           d="m -193.93,1047.75 1.513,-1.53 4.71,-3.27 3.942,-1.94 4.388,-0.46 1.599,1.26 0.961,1.64 0.292,3.1 -0.767,3.82 -1.949,6.49 -8.1,22.47 0.307,0.56 1.091,-2.43"
           id="path233"
           style="stroke:#0000ff" />
      </g>
      <g
         id="g234"
         transform="matrix(0.03554244,0,0,0.03554244,74.316805,-31.711978)"
         style="stroke:#0000ff">
        <path
           fill="none"
           stroke="#000000"
           stroke-width="4"
           stroke-linecap="round"
           stroke-linejoin="round"
           d="m -194.655,1066.72 3.252,0.05 6.239,-0.7 9.515,-1.78 1.108,-0.65 -0.16,-0.31 -0.562,0.13"
           id="path234"
           style="stroke:#0000ff" />
      </g>
      <g
         id="g235"
         transform="matrix(0.03554244,0,0,0.03554244,74.316805,-31.711978)"
         style="stroke:#0000ff">
        <path
           fill="none"
           stroke="#000000"
           stroke-width="4"
           stroke-linecap="round"
           stroke-linejoin="round"
           d="m -167.374,1076.2 0.19,0.29 3.317,0.95 0.24,0.37 -0.485,1.47 -0.665,0.48 -1.513,0.07 -0.499,-0.4 0.274,-0.4"
           id="path235"
           style="stroke:#0000ff" />
      </g>
      <g
         id="g236"
         transform="matrix(0.03554244,0,0,0.03554244,74.316805,-31.711978)"
         style="stroke:#0000ff">
        <path
           fill="none"
           stroke="#000000"
           stroke-width="4"
           stroke-linecap="round"
           stroke-linejoin="round"
           d="m -132.912,1044.34 -0.322,0.6 -2.698,2.13 -2.21,2.66 -2.87,4.27 -1.261,2.49 -1.016,2.56 -1.146,4.83 -0.595,4.17 0.253,2.43 1.063,2.53 1.633,1.61 1.551,0.64 3.269,0.61 4.019,-0.32 2.994,-0.81 3.748,-2.29 1.092,-1.67 0.196,-2.6 -0.85,-1.68 -1.599,-1.53 -2.205,-0.74 -2.817,-0.07 -2.642,0.69 -3.641,1.68 -1.666,1.98"
           id="path236"
           style="stroke:#0000ff" />
      </g>
      <g
         id="g237"
         transform="matrix(0.03554244,0,0,0.03554244,74.316805,-31.711978)"
         style="stroke:#0000ff">
        <path
           fill="none"
           stroke="#000000"
           stroke-width="4"
           stroke-linecap="round"
           stroke-linejoin="round"
           d="m -115.625,1046.61 9.458,-2.32 2.131,0.1 0.793,0.46 -0.099,1.37 -0.815,2.57 -6.98,13.44 -3.454,5.67 -1.186,2.53 0.034,0.83 4.583,1.67 11.036,-0.05 0.8685,0.07 -0.1843,0.24"
           id="path237"
           style="stroke:#0000ff" />
      </g>
      <g
         id="g238"
         transform="matrix(0.03554244,0,0,0.03554244,74.316805,-31.711978)"
         style="stroke:#0000ff">
        <path
           fill="none"
           stroke="#000000"
           stroke-width="4"
           stroke-linecap="round"
           stroke-linejoin="round"
           d="m 391.877,1046 0.925,-0.89 8.738,-1.65 10.649,0.52 2.457,1.06 0.544,2.61 -0.859,3.06 -3.291,6.8 -3.126,8.05 -3.091,9.79 -0.035,1.5 0.72,2.51 1.394,-3.81"
           id="path238"
           style="stroke:#0000ff" />
      </g>
      <g
         id="g239"
         transform="matrix(0.03554244,0,0,0.03554244,74.316805,-31.711978)"
         style="stroke:#0000ff">
        <path
           fill="none"
           stroke="#000000"
           stroke-width="4"
           stroke-linecap="round"
           stroke-linejoin="round"
           d="m 392.147,1068.42 4.6,1.63 7.033,0.66 9.777,-0.27 5.457,-0.54 4.664,-0.96"
           id="path239"
           style="stroke:#0000ff" />
      </g>
      <g
         id="g240"
         transform="matrix(0.03554244,0,0,0.03554244,74.316805,-31.711978)"
         style="stroke:#0000ff">
        <path
           fill="none"
           stroke="#000000"
           stroke-width="4"
           stroke-linecap="round"
           stroke-linejoin="round"
           d="m 429.665,1084.19 2.877,-0.54 2.706,-1.03 -0.199,0.88 -1.042,0.67 -1.631,0.68 -0.501,-0.34 0.392,-1.23 1.58,-1.33"
           id="path240"
           style="stroke:#0000ff" />
      </g>
      <g
         id="g241"
         transform="matrix(0.03554244,0,0,0.03554244,74.316805,-31.711978)"
         style="stroke:#0000ff">
        <path
           fill="none"
           stroke="#000000"
           stroke-width="4"
           stroke-linecap="round"
           stroke-linejoin="round"
           d="m 461.405,1048.65 -2.475,3.95 -0.584,2.1 0.122,2.43 1.251,2 2.299,1.06 5.054,1.09 3.218,-0.27 1.668,-0.79 2.503,-2.81 0.669,-3.05 -0.017,-5.11 -0.827,-2.45 -1.032,-1.25 -1.423,-0.49 -2.988,-0.03 -3.33,0.68 -1.56,0.52 -2.51,1.47 -1.826,2.1"
           id="path241"
           style="stroke:#0000ff" />
      </g>
      <g
         id="g242"
         transform="matrix(0.03554244,0,0,0.03554244,74.316805,-31.711978)"
         style="stroke:#0000ff">
        <path
           fill="none"
           stroke="#000000"
           stroke-width="4"
           stroke-linecap="round"
           stroke-linejoin="round"
           d="m 466.469,1062.25 -3.489,3.18 -1.833,2.12 -2.889,4.75 -0.195,0.81 0.359,1.53 0.764,1.06 1.719,1.4 1.874,1.03 4.107,1.54 2.394,0.33 2.475,-0.23 3.768,-1.14 3,-1.78 1.817,-1.85 1.013,-2.2 0.16,-4.02 -0.758,-1.78 -1.398,-1.13 -3.253,-0.37 -4.204,0.3 -5.554,1.6 -1.671,1.39"
           id="path242"
           style="stroke:#0000ff" />
      </g>
      <g
         id="g243"
         transform="matrix(0.03554244,0,0,0.03554244,74.316805,-31.711978)"
         style="stroke:#0000ff">
        <path
           fill="none"
           stroke="#000000"
           stroke-width="4"
           stroke-linecap="round"
           stroke-linejoin="round"
           d="m 491.662,1048.35 8.989,-1.93 1.522,0.27 1.152,1.01 0.329,2.87 -1.18,2.48 -1.663,1.9 -4.512,3.43 2.853,0.48 2.505,0.89 1.617,1.01 1.516,1.67 0.73,1.19 0.369,1.39 0.602,4.82 -0.083,1.69 -0.677,1.56 -1.066,1.32 -1.542,1.02 -1.991,0.75 -9.874,2.13 -3.305,-0.08 -1.428,-0.38"
           id="path243"
           style="stroke:#0000ff" />
      </g>
    </g>
-->
  </g>
</svg>
