<?xml version="1.0" encoding="UTF-8" standalone="no"?>
<!-- Created with Inkscape (http://www.inkscape.org/) -->

<svg
   width="2in"
   height="0.64999998in"
   viewBox="0 0 50.800001 16.509999"
   version="1.1"
   id="svg1"
   xml:space="preserve"
   inkscape:version="1.4.3 (0d15f75, 2025-12-25)"
   sodipodi:docname="21_strip.svg"
   xmlns:inkscape="http://www.inkscape.org/namespaces/inkscape"
   xmlns:sodipodi="http://sodipodi.sourceforge.net/DTD/sodipodi-0.dtd"
   xmlns="http://www.w3.org/2000/svg"
   xmlns:svg="http://www.w3.org/2000/svg"
   xmlns:ns1="http://www.iki.fi/pav/software/textext/"><sodipodi:namedview
     id="namedview1"
     pagecolor="#ffffff"
     bordercolor="#111111"
     borderopacity="1"
     inkscape:showpageshadow="0"
     inkscape:pageopacity="0"
     inkscape:pagecheckerboard="1"
     inkscape:deskcolor="#d1d1d1"
     inkscape:document-units="mm"
     inkscape:zoom="6.3950309"
     inkscape:cx="136.43406"
     inkscape:cy="25.410354"
     inkscape:window-width="2880"
     inkscape:window-height="1514"
     inkscape:window-x="2870"
     inkscape:window-y="6"
     inkscape:window-maximized="1"
     inkscape:current-layer="layer1" /><defs
     id="defs1"><marker
       style="overflow:visible"
       id="marker13"
       refX="0"
       refY="0"
       orient="auto"
       inkscape:stockid="Stop"
       markerWidth="1"
       markerHeight="1"
       viewBox="0 0 1 1"
       inkscape:isstock="true"
       inkscape:collect="always"
       preserveAspectRatio="xMidYMid"><path
         style="fill:none;stroke:context-stroke;stroke-width:1"
         d="M 0,4 V -4"
         id="path13" /></marker><marker
       style="overflow:visible"
       id="Stop"
       refX="0"
       refY="0"
       orient="auto"
       inkscape:stockid="Stop"
       markerWidth="1"
       markerHeight="1"
       viewBox="0 0 1 1"
       inkscape:isstock="true"
       inkscape:collect="always"
       preserveAspectRatio="xMidYMid"><path
         style="fill:none;stroke:context-stroke;stroke-width:1"
         d="M 0,4 V -4"
         id="path23" /></marker><marker
       style="overflow:visible"
       id="ArrowWide"
       refX="0"
       refY="0"
       orient="auto-start-reverse"
       inkscape:stockid="Wide arrow"
       markerWidth="1"
       markerHeight="1"
       viewBox="0 0 1 1"
       inkscape:isstock="true"
       inkscape:collect="always"
       preserveAspectRatio="xMidYMid"><path
         style="fill:none;stroke:context-stroke;stroke-width:1;stroke-linecap:butt"
         d="M 3,-3 0,0 3,3"
         transform="rotate(180,0.125,0)"
         sodipodi:nodetypes="ccc"
         id="path5" /></marker><inkscape:path-effect
       effect="fill_between_many"
       method="originald"
       linkedpaths="#path1,0,1|#path2,0,1|"
       id="path-effect2" /></defs><g
     inkscape:label="Layer 1"
     inkscape:groupmode="layer"
     id="layer1"><path
       inkscape:original-d="M 0,0"
       inkscape:path-effect="#path-effect2"
       d="M 9.4951652,5.3681817 H 40.986702 V 15.490522 H 9.4951652 Z"
       id="path3"
       style="fill:#deaa87" /><path
       style="fill:#536c53;stroke:#000000;stroke-width:0.264999;stroke-linecap:square;stroke-miterlimit:4.1"
       d="M 9.4951652,5.3681817 H 40.986702"
       id="path1" /><path
       style="fill:#536c53;stroke:#ff0000;stroke-width:0.264999;stroke-linecap:square;stroke-miterlimit:4.1;stroke-dasharray:0.79499701,0.79499701;stroke-dashoffset:0"
       d="M 9.4951652,15.490522 H 40.986702"
       id="path2" /><path
       style="fill:#deaa87;stroke:#ff0000;stroke-width:0.264999;stroke-linecap:square;stroke-miterlimit:4.1;stroke-dasharray:none;stroke-dashoffset:0;marker-end:url(#ArrowWide)"
       d="M 18.514538,2.937502 V 5.0889122"
       id="path4" /><path
       style="fill:#deaa87;stroke:#ff0000;stroke-width:0.264999;stroke-linecap:square;stroke-miterlimit:4.1;stroke-dasharray:none;stroke-dashoffset:0;marker-end:url(#ArrowWide)"
       d="M 20.595613,2.937502 V 5.0889122"
       id="path7" /><path
       style="fill:#deaa87;stroke:#ff0000;stroke-width:0.264999;stroke-linecap:square;stroke-miterlimit:4.1;stroke-dasharray:none;stroke-dashoffset:0;marker-end:url(#ArrowWide)"
       d="M 22.676689,2.937502 V 5.0889122"
       id="path8" /><path
       style="fill:#deaa87;stroke:#ff0000;stroke-width:0.264999;stroke-linecap:square;stroke-miterlimit:4.1;stroke-dasharray:none;stroke-dashoffset:0;marker-end:url(#ArrowWide)"
       d="M 28.919915,2.937502 V 5.0889122"
       id="path9" /><path
       style="fill:#deaa87;stroke:#ff0000;stroke-width:0.264999;stroke-linecap:square;stroke-miterlimit:4.1;stroke-dasharray:none;stroke-dashoffset:0;marker-end:url(#ArrowWide)"
       d="M 26.83884,2.937502 V 5.0889122"
       id="path10" /><path
       style="fill:#deaa87;stroke:#ff0000;stroke-width:0.264999;stroke-linecap:square;stroke-miterlimit:4.1;stroke-dasharray:none;stroke-dashoffset:0;marker-end:url(#ArrowWide)"
       d="M 24.757764,2.937502 V 5.0889122"
       id="path6" /><path
       style="fill:#deaa87;stroke:#ff0000;stroke-width:0.264999;stroke-linecap:square;stroke-miterlimit:4.1;stroke-dasharray:none;stroke-dashoffset:0"
       d="M 18.514538,2.937502 H 28.919916"
       id="path11" /><path
       style="fill:#deaa87;stroke:#000000;stroke-width:0.264999;stroke-linecap:square;stroke-miterlimit:4.1;stroke-dasharray:none;stroke-dashoffset:0;marker-start:url(#marker13);marker-end:url(#Stop)"
       d="M 18.514538,2.1380746 H 28.919916"
       id="path12" /><text
       xml:space="preserve"
       style="font-style:normal;font-variant:normal;font-weight:normal;font-stretch:normal;font-size:2.28642px;line-height:0.9;font-family:Arial;-inkscape-font-specification:Arial;font-variant-ligatures:none;letter-spacing:-0.0128611px;writing-mode:lr-tb;direction:ltr;fill:#000000;stroke:none;stroke-width:0.214689;stroke-linecap:square;stroke-miterlimit:4.1;stroke-dasharray:none;stroke-dashoffset:0"
       x="23.063465"
       y="1.7814115"
       id="text13"><tspan
         sodipodi:role="line"
         id="tspan13"
         style="font-style:normal;font-variant:normal;font-weight:normal;font-stretch:normal;font-size:2.28642px;font-family:Arial;-inkscape-font-specification:Arial;fill:#000000;stroke:none;stroke-width:0.21469"
         x="23.063465"
         y="1.7814115">B</tspan></text><g
       id="g481"
       transform="matrix(0.2456073,0,0,0.2456073,32.000099,3.2048908)"
       ns1:version="1.13.0"
       ns1:texconverter="pdflatex"
       ns1:pdfconverter="inkscape"
       ns1:text="$q$"
       ns1:preamble="C:\Users\zamcr\AppData\Roaming\inkscape\extensions\textext\default_packages.tex"
       ns1:scale="2.4788544920601625"
       ns1:alignment="middle center"
       ns1:inkscapeversion="1.4.3"
       ns1:jacobian_sqrt="0.874485"
       style="fill:#ff0000"><defs
   id="defs4509">
    <g
   id="g9853">
      <g
   id="g6532">
        <path
   d="m 4.5,-4.296875 c 0,-0.046875 -0.03125,-0.09375 -0.09375,-0.09375 -0.109375,0 -0.515625,0.390625 -0.671875,0.6875 C 3.515625,-4.25 3.125,-4.40625 2.796875,-4.40625 c -1.171875,0 -2.390625,1.46875 -2.390625,2.921875 0,0.96875 0.578125,1.59375 1.3125,1.59375 0.421875,0 0.8125,-0.234375 1.171875,-0.59375 -0.09375,0.34375 -0.421875,1.6875 -0.453125,1.78125 -0.078125,0.28125 -0.15625,0.3125 -0.71875,0.328125 -0.125,0 -0.21875,0 -0.21875,0.203125 0,0 0,0.109375 0.125,0.109375 0.3125,0 0.671875,-0.03125 1,-0.03125 0.328125,0 0.6875,0.03125 1.03125,0.03125 0.046875,0 0.171875,0 0.171875,-0.203125 C 3.828125,1.625 3.734375,1.625 3.5625,1.625 3.09375,1.625 3.09375,1.5625 3.09375,1.46875 3.09375,1.390625 3.109375,1.328125 3.125,1.25 Z m -2.75,4.1875 c -0.609375,0 -0.640625,-0.765625 -0.640625,-0.9375 0,-0.484375 0.28125,-1.5625 0.453125,-1.984375 0.3125,-0.734375 0.828125,-1.15625 1.234375,-1.15625 0.65625,0 0.796875,0.8125 0.796875,0.875 0,0.0625 -0.546875,2.25 -0.578125,2.28125 C 2.859375,-0.75 2.296875,-0.109375 1.75,-0.109375 Z m 0,0"
   id="path6146" />
      </g>
    </g>
  </defs>
  <g
   fill="#000000"
   fill-opacity="1"
   id="g9674"
   transform="translate(-149.118,-130.359)"
   style="fill:#ff0000">
    <g
   transform="translate(148.712,134.765)"
   id="g6280"
   style="fill:#ff0000"><path
   d="m 4.5,-4.296875 c 0,-0.046875 -0.03125,-0.09375 -0.09375,-0.09375 -0.109375,0 -0.515625,0.390625 -0.671875,0.6875 C 3.515625,-4.25 3.125,-4.40625 2.796875,-4.40625 c -1.171875,0 -2.390625,1.46875 -2.390625,2.921875 0,0.96875 0.578125,1.59375 1.3125,1.59375 0.421875,0 0.8125,-0.234375 1.171875,-0.59375 -0.09375,0.34375 -0.421875,1.6875 -0.453125,1.78125 -0.078125,0.28125 -0.15625,0.3125 -0.71875,0.328125 -0.125,0 -0.21875,0 -0.21875,0.203125 0,0 0,0.109375 0.125,0.109375 0.3125,0 0.671875,-0.03125 1,-0.03125 0.328125,0 0.6875,0.03125 1.03125,0.03125 0.046875,0 0.171875,0 0.171875,-0.203125 C 3.828125,1.625 3.734375,1.625 3.5625,1.625 3.09375,1.625 3.09375,1.5625 3.09375,1.46875 3.09375,1.390625 3.109375,1.328125 3.125,1.25 Z m -2.75,4.1875 c -0.609375,0 -0.640625,-0.765625 -0.640625,-0.9375 0,-0.484375 0.28125,-1.5625 0.453125,-1.984375 0.3125,-0.734375 0.828125,-1.15625 1.234375,-1.15625 0.65625,0 0.796875,0.8125 0.796875,0.875 0,0.0625 -0.546875,2.25 -0.578125,2.28125 C 2.859375,-0.75 2.296875,-0.109375 1.75,-0.109375 Z m 0,0"
   id="path517"
   style="fill:#ff0000" />
      </g></g>
</g><text
       xml:space="preserve"
       style="font-style:normal;font-variant:normal;font-weight:normal;font-stretch:normal;font-size:2.28642px;line-height:0.9;font-family:Arial;-inkscape-font-specification:Arial;font-variant-ligatures:none;letter-spacing:-0.0128611px;writing-mode:lr-tb;direction:ltr;fill:#ff0000;stroke:none;stroke-width:0.214689;stroke-linecap:square;stroke-miterlimit:4.1;stroke-dasharray:none;stroke-dashoffset:0"
       x="33.112667"
       y="5.0141239"
       id="text14"><tspan
         sodipodi:role="line"
         id="tspan14"
         style="font-style:normal;font-variant:normal;font-weight:normal;font-stretch:normal;font-size:2.28642px;font-family:Arial;-inkscape-font-specification:Arial;fill:#ff0000;stroke:none;stroke-width:0.21469"
         x="33.112667"
         y="5.0141239">applied</tspan></text><path
       style="fill:#000000;stroke:#000000;stroke-width:0.264999;stroke-linecap:square;stroke-miterlimit:4.1;stroke-dasharray:none;stroke-dashoffset:0;marker-end:url(#Stop);marker-start:url(#Stop)"
       d="M 31.040295,2.9271587 V 5.2544051"
       id="path14" /><path
       style="fill:#ff0000;stroke:#808080;stroke-width:0.264999;stroke-linecap:square;stroke-miterlimit:4.1;stroke-dasharray:0.79499701,0.79499701;stroke-dashoffset:0"
       d="M 18.514538,5.3425444 13.318484,15.490522"
       id="path29" /><path
       style="fill:#ff0000;stroke:#808080;stroke-width:0.264999;stroke-linecap:square;stroke-miterlimit:4.1;stroke-dasharray:0.794997, 0.794997;stroke-dashoffset:0"
       d="M 29.098241,5.3425444 34.294295,15.490522"
       id="path30" /><path
       style="fill:none;stroke:#000000;stroke-width:0.264999;stroke-linecap:square;stroke-miterlimit:4.1;stroke-dasharray:none;stroke-dashoffset:0"
       d="M 17.118018,8.5279255 V 10.535572 H 16.06117"
       id="path31" /><path
       style="fill:none;stroke:#000000;stroke-width:0.264999;stroke-linecap:square;stroke-miterlimit:4.1;stroke-dasharray:none;stroke-dashoffset:0"
       d="m 30.50692,8.5279255 v 2.0076465 h 1.056848"
       id="path32" /><text
       xml:space="preserve"
       style="font-style:normal;font-variant:normal;font-weight:normal;font-stretch:normal;font-size:1.24098px;line-height:0.9;font-family:Arial;-inkscape-font-specification:Arial;font-variant-ligatures:none;letter-spacing:-0.00698047px;writing-mode:lr-tb;direction:ltr;fill:#000000;stroke:none;stroke-width:0.116524;stroke-linecap:square;stroke-miterlimit:4.1;stroke-dasharray:none;stroke-dashoffset:0"
       x="17.516418"
       y="9.9338427"
       id="text32"><tspan
         sodipodi:role="line"
         id="tspan32"
         style="fill:#000000;stroke:none;stroke-width:0.116525"
         x="17.516418"
         y="9.9338427">2</tspan></text><text
       xml:space="preserve"
       style="font-style:normal;font-variant:normal;font-weight:normal;font-stretch:normal;font-size:1.24098px;line-height:0.9;font-family:Arial;-inkscape-font-specification:Arial;font-variant-ligatures:none;letter-spacing:-0.00698047px;writing-mode:lr-tb;direction:ltr;fill:#000000;stroke:none;stroke-width:0.116524;stroke-linecap:square;stroke-miterlimit:4.1;stroke-dasharray:none;stroke-dashoffset:0"
       x="16.156046"
       y="11.915891"
       id="text33"><tspan
         sodipodi:role="line"
         id="tspan33"
         style="fill:#000000;stroke:none;stroke-width:0.116525"
         x="16.156046"
         y="11.915891">1</tspan></text><text
       xml:space="preserve"
       style="font-style:normal;font-variant:normal;font-weight:normal;font-stretch:normal;font-size:1.24098px;line-height:0.9;font-family:Arial;-inkscape-font-specification:Arial;font-variant-ligatures:none;letter-spacing:-0.00698047px;writing-mode:lr-tb;direction:ltr;fill:#000000;stroke:none;stroke-width:0.116524;stroke-linecap:square;stroke-miterlimit:4.1;stroke-dasharray:none;stroke-dashoffset:0"
       x="29.295214"
       y="9.9338427"
       id="text34"><tspan
         sodipodi:role="line"
         id="tspan34"
         style="fill:#000000;stroke:none;stroke-width:0.116525"
         x="29.295214"
         y="9.9338427">2</tspan></text><text
       xml:space="preserve"
       style="font-style:normal;font-variant:normal;font-weight:normal;font-stretch:normal;font-size:1.24098px;line-height:0.9;font-family:Arial;-inkscape-font-specification:Arial;font-variant-ligatures:none;letter-spacing:-0.00698047px;writing-mode:lr-tb;direction:ltr;fill:#000000;stroke:none;stroke-width:0.116524;stroke-linecap:square;stroke-miterlimit:4.1;stroke-dasharray:none;stroke-dashoffset:0"
       x="30.736612"
       y="11.915891"
       id="text35"><tspan
         sodipodi:role="line"
         id="tspan35"
         style="fill:#000000;stroke:none;stroke-width:0.116525"
         x="30.736612"
         y="11.915891">1</tspan></text><path
       style="fill:#000000;stroke:#000000;stroke-width:0.264999;stroke-linecap:square;stroke-miterlimit:4.1;stroke-dasharray:none;stroke-dashoffset:0;marker-start:url(#marker13);marker-end:url(#Stop)"
       d="M 7.7376313,5.3681817 V 15.490522"
       id="path35" /><g
       id="g6339"
       transform="matrix(0.24568842,0,0,0.24568842,6.223322,9.8746949)"
       ns1:version="1.13.0"
       ns1:texconverter="pdflatex"
       ns1:pdfconverter="inkscape"
       ns1:text="$z$"
       ns1:preamble="C:\Users\zamcr\AppData\Roaming\inkscape\extensions\textext\default_packages.tex"
       ns1:scale="1.0"
       ns1:alignment="middle center"
       ns1:inkscapeversion="1.4.3"
       ns1:jacobian_sqrt="0.352778"><defs
   id="defs6700">
    <g
   id="g6087">
      <g
   id="g3111">
        <path
   d="m 1.328125,-0.828125 c 0.53125,-0.578125 0.828125,-0.828125 1.1875,-1.140625 0,0 0.609375,-0.53125 0.96875,-0.890625 C 4.4375,-3.78125 4.65625,-4.265625 4.65625,-4.3125 c 0,-0.09375 -0.09375,-0.09375 -0.109375,-0.09375 -0.078125,0 -0.09375,0.015625 -0.15625,0.109375 -0.296875,0.484375 -0.5,0.640625 -0.734375,0.640625 -0.25,0 -0.359375,-0.15625 -0.515625,-0.328125 -0.1875,-0.21875 -0.359375,-0.421875 -0.6875,-0.421875 -0.75,0 -1.203125,0.921875 -1.203125,1.140625 0,0.046875 0.03125,0.109375 0.109375,0.109375 0.09375,0 0.109375,-0.046875 0.140625,-0.109375 0.1875,-0.46875 0.765625,-0.46875 0.84375,-0.46875 0.203125,0 0.390625,0.0625 0.625,0.140625 0.40625,0.15625 0.515625,0.15625 0.765625,0.15625 -0.359375,0.421875 -1.1875,1.140625 -1.375,1.296875 l -0.90625,0.84375 C 0.78125,-0.625 0.421875,-0.0625 0.421875,0.015625 c 0,0.09375 0.109375,0.09375 0.125,0.09375 0.078125,0 0.09375,-0.015625 0.15625,-0.125 0.234375,-0.359375 0.53125,-0.625 0.859375,-0.625 0.21875,0 0.328125,0.09375 0.578125,0.375 0.15625,0.21875 0.34375,0.375 0.625,0.375 1,0 1.578125,-1.265625 1.578125,-1.53125 0,-0.046875 -0.046875,-0.109375 -0.125,-0.109375 -0.09375,0 -0.109375,0.0625 -0.140625,0.140625 C 3.84375,-0.75 3.203125,-0.5625 2.875,-0.5625 c -0.1875,0 -0.375,-0.0625 -0.578125,-0.125 -0.34375,-0.125 -0.5,-0.171875 -0.703125,-0.171875 -0.015625,0 -0.171875,0 -0.265625,0.03125 z m 0,0"
   id="path4063" />
      </g>
    </g>
  </defs>
  <g
   fill="#000000"
   fill-opacity="1"
   id="g390"
   transform="translate(-149.134,-130.359)">
    <g
   transform="translate(148.712,134.765)"
   id="g3061"><path
   d="m 1.328125,-0.828125 c 0.53125,-0.578125 0.828125,-0.828125 1.1875,-1.140625 0,0 0.609375,-0.53125 0.96875,-0.890625 C 4.4375,-3.78125 4.65625,-4.265625 4.65625,-4.3125 c 0,-0.09375 -0.09375,-0.09375 -0.109375,-0.09375 -0.078125,0 -0.09375,0.015625 -0.15625,0.109375 -0.296875,0.484375 -0.5,0.640625 -0.734375,0.640625 -0.25,0 -0.359375,-0.15625 -0.515625,-0.328125 -0.1875,-0.21875 -0.359375,-0.421875 -0.6875,-0.421875 -0.75,0 -1.203125,0.921875 -1.203125,1.140625 0,0.046875 0.03125,0.109375 0.109375,0.109375 0.09375,0 0.109375,-0.046875 0.140625,-0.109375 0.1875,-0.46875 0.765625,-0.46875 0.84375,-0.46875 0.203125,0 0.390625,0.0625 0.625,0.140625 0.40625,0.15625 0.515625,0.15625 0.765625,0.15625 -0.359375,0.421875 -1.1875,1.140625 -1.375,1.296875 l -0.90625,0.84375 C 0.78125,-0.625 0.421875,-0.0625 0.421875,0.015625 c 0,0.09375 0.109375,0.09375 0.125,0.09375 0.078125,0 0.09375,-0.015625 0.15625,-0.125 0.234375,-0.359375 0.53125,-0.625 0.859375,-0.625 0.21875,0 0.328125,0.09375 0.578125,0.375 0.15625,0.21875 0.34375,0.375 0.625,0.375 1,0 1.578125,-1.265625 1.578125,-1.53125 0,-0.046875 -0.046875,-0.109375 -0.125,-0.109375 -0.09375,0 -0.109375,0.0625 -0.140625,0.140625 C 3.84375,-0.75 3.203125,-0.5625 2.875,-0.5625 c -0.1875,0 -0.375,-0.0625 -0.578125,-0.125 -0.34375,-0.125 -0.5,-0.171875 -0.703125,-0.171875 -0.015625,0 -0.171875,0 -0.265625,0.03125 z m 0,0"
   id="path5969" />
      </g></g>
</g><path
       style="fill:#000000;stroke:#008000;stroke-width:0.264999;stroke-linecap:square;stroke-miterlimit:4.1;stroke-dasharray:none;stroke-dashoffset:0"
       d="M 13.218759,13.167043 H 34.288097"
       id="path36" /><path
       style="fill:#000000;stroke:#008000;stroke-width:0.264999;stroke-linecap:square;stroke-miterlimit:4.1;stroke-dasharray:none;stroke-dashoffset:0;marker-end:url(#ArrowWide)"
       d="m 13.218759,13.167043 v 2.323479"
       id="path37" /><path
       style="fill:#000000;stroke:#008000;stroke-width:0.264999;stroke-linecap:square;stroke-miterlimit:4.1;stroke-dasharray:none;stroke-dashoffset:0;marker-end:url(#ArrowWide)"
       d="m 18.519218,13.167043 v 2.323479"
       id="path39" /><path
       style="fill:#000000;stroke:#008000;stroke-width:0.264999;stroke-linecap:square;stroke-miterlimit:4.1;stroke-dasharray:none;stroke-dashoffset:0;marker-end:url(#ArrowWide)"
       d="m 23.819678,13.167043 v 2.323479"
       id="path40" /><path
       style="fill:#000000;stroke:#008000;stroke-width:0.264999;stroke-linecap:square;stroke-miterlimit:4.1;stroke-dasharray:none;stroke-dashoffset:0;marker-end:url(#ArrowWide)"
       d="m 29.120137,13.167043 v 2.323479"
       id="path41" /><path
       style="fill:#000000;stroke:#008000;stroke-width:0.264999;stroke-linecap:square;stroke-miterlimit:4.1;stroke-dasharray:none;stroke-dashoffset:0;marker-end:url(#ArrowWide)"
       d="m 34.420597,13.167043 v 2.323479"
       id="path38" /><text
       xml:space="preserve"
       style="font-style:normal;font-variant:normal;font-weight:normal;font-stretch:normal;font-size:2.82223px;line-height:0.9;font-family:Arial;-inkscape-font-specification:Arial;font-variant-ligatures:none;letter-spacing:-0.015875px;writing-mode:lr-tb;direction:ltr;white-space:pre;inline-size:23.1419;display:inline;fill:#000000;stroke:none;stroke-width:0.264999;stroke-linecap:square;stroke-miterlimit:4.1;stroke-dasharray:none;stroke-dashoffset:0"
       x="39.676964"
       y="11.469913"
       id="text41"
       transform="matrix(0.73865943,0,0,0.73865943,8.9202568,2.3473857)"><tspan
         x="39.676964"
         y="11.469913"
         id="tspan2"><tspan
           style="stroke-width:0.265"
           id="tspan1">Approximate </tspan></tspan><tspan
         x="39.676964"
         y="14.00992"
         id="tspan4"><tspan
           style="stroke-width:0.265"
           id="tspan3">distribution</tspan></tspan></text><path
       style="fill:#000000;stroke:#000000;stroke-width:0.165;stroke-linecap:square;stroke-miterlimit:4.1;stroke-dasharray:none;stroke-dashoffset:0;marker-end:url(#ArrowWide)"
       d="m 38.163563,11.431516 -3.532579,1.868026"
       id="path42" /></g></svg>
