<?xml version="1.0" encoding="UTF-8" standalone="no"?>
<!-- Created with Inkscape (http://www.inkscape.org/) -->

<svg
   width="171.33755mm"
   height="77.466446mm"
   viewBox="0 0 171.33755 77.466446"
   version="1.1"
   id="svg9703"
   inkscape:version="1.1.1 (3bf5ae0d25, 2021-09-20)"
   sodipodi:docname="flow_tube.svg"
   xmlns:inkscape="http://www.inkscape.org/namespaces/inkscape"
   xmlns:sodipodi="http://sodipodi.sourceforge.net/DTD/sodipodi-0.dtd"
   xmlns="http://www.w3.org/2000/svg"
   xmlns:svg="http://www.w3.org/2000/svg">
  <sodipodi:namedview
     id="namedview9705"
     pagecolor="#505050"
     bordercolor="#ffffff"
     borderopacity="1"
     inkscape:pageshadow="0"
     inkscape:pageopacity="0"
     inkscape:pagecheckerboard="1"
     inkscape:document-units="mm"
     showgrid="false"
     inkscape:zoom="0.81134749"
     inkscape:cx="366.67396"
     inkscape:cy="96.136366"
     inkscape:window-width="1920"
     inkscape:window-height="1011"
     inkscape:window-x="-9"
     inkscape:window-y="-9"
     inkscape:window-maximized="1"
     inkscape:current-layer="layer1" />
  <defs
     id="defs9700">
    <clipPath
       id="clip0">
      <rect
         x="293"
         y="578"
         width="685"
         height="300"
         id="rect9771" />
    </clipPath>
  </defs>
  <g
     inkscape:label="Layer 1"
     inkscape:groupmode="layer"
     id="layer1"
     transform="translate(-18.557933,-129.59752)">
    <path
       d="m 37.447683,182.35559 18.098294,-42.01081 17.345289,8.26267 12.09384,6.23676 15.300854,4.13015 18.1954,3.9415 17.24977,1.65735 23.86515,0.48524 15.38499,-1.34223 -5.25277,23.58575 -14.14674,2.22118 -9.99808,2.06137 -11.99911,2.03782 -12.14888,1.1557 -13.12121,0.77629 -17.186543,-0.712 -13.807017,-2.19339 -15.045795,-3.07261 -12.105746,-3.93515 z"
       fill="#fd8c00"
       fill-rule="evenodd"
       fill-opacity="0.321569"
       id="path9776"
       style="stroke-width:0.264583;fill:#ddaa32;fill-opacity:1" />
    <path
       d="m 32.58279,179.5301 4.851664,1.68169 4.519348,1.54755 4.237038,1.4359 3.981979,1.28693 3.752585,1.20015 3.579812,1.08426 3.403336,0.98293 3.274219,0.90408 3.174206,0.81121 3.113881,0.73078 6.161617,1.27794 6.265597,1.04087 3.243792,0.44794 3.3782,0.41116 1.621896,0.11668 1.763448,0.081 1.870339,0.0442 1.9685,0.0193 4.227773,-0.0722 4.56698,-0.18362 4.86886,-0.30612 5.13847,-0.41672 5.32527,-0.51382 5.48772,-0.61039 5.61579,-0.69506 5.69621,-0.77814 11.43,-1.73329 5.6552,-0.95223 5.54064,-0.99722 5.26892,-1.03161 0.23283,1.1901 -5.28691,1.03505 -5.55413,0.99933 -5.67478,0.95567 -11.44773,1.73567 -5.71129,0.78026 -5.63087,0.69664 -5.50518,0.61225 -5.34379,0.51567 -5.16044,0.41804 -4.89611,0.30771 -4.59502,0.18442 -4.260319,0.0722 -1.985169,-0.0196 -1.897327,-0.0452 -1.795198,-0.0828 -1.681162,-0.12223 -3.397515,-0.41381 -3.276864,-0.4527 -6.312959,-1.04987 -6.192572,-1.28482 -3.1369,-0.7366 -3.196696,-0.81703 -3.287713,-0.90805 -3.418681,-0.98743 -3.597539,-1.08981 -3.75629,-1.20121 -3.998383,-1.29223 -4.240477,-1.43721 -4.523581,-1.54888 -4.851665,-1.68195 z m 131.89744,4.56089 6.54843,1.75366 -5.33214,4.18624 z"
       fill="#00b050"
       id="path9778"
       style="stroke-width:0.264583" />
    <path
       d="m 49.972,136.2821 2.156354,1.25889 2.036763,1.21259 1.940983,1.12686 1.839383,1.09775 3.433763,2.00793 3.150393,1.81266 2.921,1.65867 2.743994,1.49516 2.628106,1.37742 2.597679,1.2655 2.584715,1.17052 2.66065,1.1086 2.782623,1.05119 2.965714,1.03796 3.22289,1.01839 3.533246,1.05462 3.904191,1.07104 4.327523,1.1422 4.57121,1.08533 4.57173,0.90857 4.59105,0.77074 4.61725,0.62124 9.2792,0.86042 9.32339,0.41963 9.36783,0.0722 9.40171,-0.18282 9.43901,-0.37889 3.99309,-0.19526 0.059,1.21126 -4.00341,0.19579 -9.46414,0.37942 -9.43478,0.18309 -9.41282,-0.0736 -9.38106,-0.42359 -9.32868,-0.86599 -4.65641,-0.62706 -4.62676,-0.77708 -4.61513,-0.9181 -4.60084,-1.09273 -4.338902,-1.14538 -3.930121,-1.07845 -3.552031,-1.06018 -3.257815,-1.03029 -2.99376,-1.04801 -2.820459,-1.06627 -2.694516,-1.12342 -2.615671,-1.18507 -2.629165,-1.28164 -2.645568,-1.38642 -2.762515,-1.50574 -2.926821,-1.66185 -3.157802,-1.8169 -3.443287,-2.01348 -1.826948,-1.09034 -1.95236,-1.13348 -2.027767,-1.20756 -2.15609,-1.25888 z m 119.86128,24.55625 6.20421,2.73209 -5.90815,3.32422 z"
       fill="#00b050"
       id="path9780"
       style="stroke-width:0.264583" />
    <path
       d="m 82.892252,203.41669 c 3.074458,-14.99368 3.041914,-17.22755 5.285845,-26.99809 2.244196,-9.77027 6.165321,-21.93528 8.179329,-31.62432"
       stroke="#cc0000"
       stroke-width="1.32292"
       stroke-linejoin="round"
       stroke-miterlimit="10"
       stroke-dasharray="15, 5"
       fill="none"
       fill-rule="evenodd"
       id="path9782" />
    <path
       d="m 128.62945,203.44367 c -1.35996,-8.81062 -1.84785,-16.1372 -1.95342,-25.13356 -0.10557,-8.99636 0.76835,-15.9086 1.32027,-28.84461"
       stroke="#cc0000"
       stroke-width="1.32292"
       stroke-linejoin="round"
       stroke-miterlimit="10"
       stroke-dasharray="15, 5"
       fill="none"
       fill-rule="evenodd"
       id="path9784" />
    <path
       d="m 33.376011,191.50461 c 4.218252,-8.63361 7.60042,-17.5334 11.907572,-27.8122 4.307152,-10.2788 9.7155,-22.74941 13.934811,-33.86005"
       stroke="#cc0000"
       stroke-width="1.32292"
       stroke-linejoin="round"
       stroke-miterlimit="10"
       stroke-dasharray="15, 5"
       fill="none"
       fill-rule="evenodd"
       id="path9786" />
    <path
       d="m 158.95414,200.12791 c -2.10185,-8.4283 -3.23956,-15.37758 -4.16745,-23.86541 -0.9279,-8.48784 -0.73396,-14.92118 -1.39991,-27.06106"
       stroke="#cc0000"
       stroke-width="1.32292"
       stroke-linejoin="round"
       stroke-miterlimit="10"
       stroke-dasharray="15, 5"
       fill="none"
       fill-rule="evenodd"
       id="path9788" />
    <text
       fill="#c00000"
       font-family="'Cambria Math', 'Cambria Math_MSFontService', sans-serif"
       font-weight="400"
       font-size="7.9375px"
       id="text9810"
       x="36.38353"
       y="196.21605"
       style="stroke-width:0.264583">ℎ<tspan
   font-size="5.82083px"
   x="40.793259"
   y="197.80354"
   id="tspan9790"
   style="stroke-width:0.0700043">0</tspan><tspan
   font-size="7.9375px"
   x="86.435814"
   y="205.47647"
   id="tspan9792"
   style="stroke-width:0.0700043">ℎ</tspan><tspan
   font-size="5.82083px"
   x="90.66227"
   y="207.06396"
   id="tspan9794"
   style="stroke-width:0.0700043">1</tspan><tspan
   font-size="7.9375px"
   x="130.99191"
   y="202.56606"
   id="tspan9796"
   style="stroke-width:0.0700043">ℎ</tspan><tspan
   font-size="5.82083px"
   x="135.40146"
   y="204.15355"
   id="tspan9798"
   style="stroke-width:0.0700043">2</tspan><tspan
   font-size="7.9375px"
   x="160.39241"
   y="199.12646"
   id="tspan9800"
   style="stroke-width:0.0700043">ℎ</tspan><tspan
   font-size="5.82083px"
   x="164.80222"
   y="200.71397"
   id="tspan9802"
   style="stroke-width:0.0700043">3</tspan><tspan
   fill="#0000ff"
   font-size="12.4354px"
   x="66.280388"
   y="162.08479"
   id="tspan9804"
   style="stroke-width:0.0700043">1</tspan><tspan
   fill="#0000ff"
   font-size="12.4354px"
   x="102.79421"
   y="173.1973"
   id="tspan9806"
   style="stroke-width:0.0700043">2</tspan><tspan
   fill="#0000ff"
   font-size="12.4354px"
   x="136.01794"
   y="176.90147"
   id="tspan9808"
   style="stroke-width:0.0700043">3</tspan></text>
    <path
       d="m 48.359365,164.94521 1.253331,-0.80407 1.414727,-0.66834 1.543844,-0.51911 1.629304,-0.35798 1.735931,-0.20452 1.788583,-0.0598 1.860286,0.0913 1.898385,0.22675 1.93966,0.36195 1.939925,0.51171 1.961886,0.63764 1.948127,0.78052 1.920875,0.898 1.870604,1.0414 1.8415,1.15755 1.762125,1.28614 2.228056,1.90156 1.942836,2.03861 1.794668,2.41036 -0.531019,0.39449 -1.74281,-2.3487 -1.893358,-1.99179 -2.188634,-1.87034 -1.724024,-1.26047 -1.811338,-1.13956 -1.829065,-1.01997 -1.886479,-0.88344 -1.906852,-0.76518 -1.926166,-0.62733 -1.8923,-0.50112 -1.896798,-0.35507 -1.852613,-0.22304 -1.805781,-0.0907 -1.73355,0.0556 -1.671373,0.19367 -1.560512,0.33893 -1.472407,0.49081 -1.339056,0.62627 -1.253331,0.80406 z m 34.909389,9.86182 0.24712,2.94772 -2.506397,-1.57083 z"
       fill="#0000ff"
       id="path9812"
       style="stroke-width:0.264583" />
    <path
       d="m 92.297131,178.71386 1.30122,-0.83026 1.420813,-0.72443 1.511829,-0.5842 1.564481,-0.44873 1.620309,-0.31539 1.641737,-0.20478 1.70154,-0.0564 1.70259,0.0661 1.69307,0.18441 1.70021,0.30612 1.67402,0.43762 1.64465,0.56859 1.60047,0.67893 1.52664,0.80062 1.46421,0.92446 1.38694,1.04537 0.72893,0.69823 -0.45879,0.47652 -0.6686,-0.64691 -1.3417,-1.01415 -1.4187,-0.89773 -1.4777,-0.77761 -1.55813,-0.66252 -1.59596,-0.55377 -1.62375,-0.42651 -1.65471,-0.29977 -1.64703,-0.18097 -1.65523,-0.0659 -1.64148,0.0516 -1.597286,0.19764 -1.564216,0.30189 -1.508655,0.43021 -1.449916,0.55669 -1.364721,0.69241 -1.301221,0.83026 z m 26.285559,1.5412 0.91837,2.81199 -2.80062,-0.9525 z"
       fill="#0000ff"
       id="path9814"
       style="stroke-width:0.264583" />
    <path
       d="m 129.83039,182.69081 0.80751,-0.85275 0.91546,-0.77761 c 0.0127,-0.0109 0.0262,-0.0206 0.0402,-0.0294 l 1.9931,-1.22687 c 0.018,-0.0111 0.037,-0.0206 0.0569,-0.0281 l 2.23758,-0.84216 c 0.018,-0.007 0.0365,-0.0119 0.0556,-0.0153 l 2.41432,-0.45376 c 0.0172,-0.003 0.0349,-0.005 0.0524,-0.006 l 2.50666,-0.0648 1.31445,0.13309 1.27794,0.2323 1.27476,0.3347 1.25492,0.43391 1.21973,0.54796 1.17978,0.6604 1.09484,0.74744 1.20042,1.06919 -0.4408,0.49318 -1.13321,-1.01627 -1.04484,-0.71675 -1.12765,-0.63421 -1.16496,-0.52599 -1.2065,-0.41936 -1.22502,-0.32359 -1.2274,-0.22516 -1.22926,-0.12965 -2.50666,0.0648 0.0524,-0.006 -2.41433,0.45376 0.0556,-0.0156 -2.23785,0.84217 0.0569,-0.028 -1.99285,1.22714 0.0402,-0.0291 -0.86254,0.7276 -0.80751,0.85275 z m 21.34844,-1.11257 0.82391,2.8411 -2.76701,-1.04537 z"
       fill="#0000ff"
       id="path9816"
       style="stroke-width:0.264583" />
    <path
       d="m 36.362363,159.60248 0.906727,-1.76953 -10.345738,-5.30146 1.813454,-3.5388 10.345738,5.30172 0.906727,-1.76953 1.725083,5.35225 z"
       fill="#00b0f0"
       fill-rule="evenodd"
       id="path9818"
       style="stroke-width:0.264583" />
    <text
       font-family="'Cambria Math', 'Cambria Math_MSFontService', sans-serif"
       font-weight="400"
       font-size="12.4354px"
       id="text9820"
       x="17.920376"
       y="151.76605"
       style="stroke-width:0.264583;fill:#ffffff">𝑞</text>
    <path
       d="m 175.69036,179.34966 -0.12859,-1.98385 -11.60066,0.753 -0.2577,-3.96795 11.60065,-0.75327 -0.12885,-1.98385 4.22566,3.71026 z"
       fill="#00b0f0"
       fill-rule="evenodd"
       id="path9822"
       style="stroke-width:0.264583" />
    <text
       font-family="'Cambria Math', 'Cambria Math_MSFontService', sans-serif"
       font-weight="400"
       font-size="12.4354px"
       id="text9824"
       x="183.75671"
       y="177.16605"
       style="stroke-width:0.264583;fill:#ffffff">𝑞</text>
  </g>
</svg>
