<?xml version="1.0" encoding="UTF-8" standalone="no"?>
<!-- Created with Inkscape (http://www.inkscape.org/) -->

<svg
   width="199.39311mm"
   height="142.77158mm"
   viewBox="0 0 199.39311 142.77158"
   version="1.1"
   id="svg12890"
   inkscape:version="1.1.1 (3bf5ae0d25, 2021-09-20)"
   sodipodi:docname="flow_tube_2.svg"
   xmlns:inkscape="http://www.inkscape.org/namespaces/inkscape"
   xmlns:sodipodi="http://sodipodi.sourceforge.net/DTD/sodipodi-0.dtd"
   xmlns="http://www.w3.org/2000/svg"
   xmlns:svg="http://www.w3.org/2000/svg">
  <sodipodi:namedview
     id="namedview12892"
     pagecolor="#505050"
     bordercolor="#ffffff"
     borderopacity="1"
     inkscape:pageshadow="0"
     inkscape:pageopacity="0"
     inkscape:pagecheckerboard="1"
     inkscape:document-units="mm"
     showgrid="false"
     inkscape:zoom="0.81134749"
     inkscape:cx="648.92047"
     inkscape:cy="300.73427"
     inkscape:window-width="1920"
     inkscape:window-height="1011"
     inkscape:window-x="-9"
     inkscape:window-y="-9"
     inkscape:window-maximized="1"
     inkscape:current-layer="layer1" />
  <defs
     id="defs12887">
    <clipPath
       id="clip0">
      <rect
         x="54"
         y="317"
         width="788"
         height="564"
         id="rect12958" />
    </clipPath>
  </defs>
  <g
     inkscape:label="Layer 1"
     inkscape:groupmode="layer"
     id="layer1"
     transform="translate(117.2214,-63.278808)">
    <path
       d="m -58.751735,64.914197 6.183313,9.900179 7.478977,13.336323 9.202208,13.852261 7.2644,11.5062 9.785879,11.9634 13.6024935,12.56638 13.4852831,10.96989 19.9792164,13.06195 13.757275,7.01728 -16.956617,17.21485 -13.173074,-5.61525 -9.5705086,-3.55203 -11.2548457,-4.63233 -10.9143267,-5.45994 -11.537421,-6.29735 -14.195954,-9.71364 -10.544969,-9.17893 -11.129168,-10.58095 -8.179329,-9.7536 -9.045575,-9.52976 -16.631712,-22.135837 z"
       fill="#fd8c00"
       fill-rule="evenodd"
       fill-opacity="0.321569"
       id="path12975"
       style="stroke-width:0.264583;fill:#fd8c00;fill-opacity:1" />
    <text
       fill="#00b050"
       font-family="Calibri, Calibri_MSFontService, sans-serif"
       font-weight="700"
       font-size="8.73125px"
       id="text12965"
       x="-101.79336"
       y="170.63614"
       style="stroke-width:0.264583">Flow line<tspan
   fill="#cc0000"
   font-size="8.73125px"
   x="-101.79336"
   y="182.01323"
   id="tspan12963"
   style="stroke-width:0.0700043">Equipotencial line</tspan></text>
    <path
       d="m -116.18987,167.25159 h 5.81541 v 1.21285 h -5.81541 z m 5.20907,-2.42517 6.06324,3.03159 -6.06324,3.0316 z"
       fill="#00b050"
       id="path12967"
       style="stroke-width:0.264583" />
    <path
       d="m -115.39612,179.2351 h 10.67991"
       stroke="#cc0000"
       stroke-width="1.32292"
       stroke-linejoin="round"
       stroke-miterlimit="10"
       stroke-dasharray="15, 5"
       fill="none"
       fill-rule="evenodd"
       id="path12969" />
    <rect
       x="-117.11591"
       y="187.56947"
       width="12.435416"
       height="7.6729164"
       fill="#fd8c00"
       fill-opacity="0.321569"
       id="rect12971"
       style="stroke-width:0.264583;fill:#fd8c00;fill-opacity:1" />
    <text
       fill="#fd8c00"
       font-family="Calibri, Calibri_MSFontService, sans-serif"
       font-weight="700"
       font-size="8.73125px"
       id="text12973"
       x="-101.3687"
       y="193.65489"
       style="stroke-width:0.264583">Flow tube</text>
    <path
       d="m -58.606743,63.278808 5.262033,9.417843 5.331354,9.320742 5.447242,9.187127 5.634037,8.95959 5.878777,8.65954 3.034771,4.18677 3.140869,4.09284 3.227652,3.9833 3.329517,3.87006 3.429529,3.74095 3.558116,3.58933 3.6771794,3.46128 3.7914791,3.31391 3.89440205,3.1877 3.99838325,3.07684 4.1015708,2.96518 4.1767124,2.87602 8.605573,5.46021 8.856133,5.18186 9.050073,4.96253 9.173633,4.83552 4.380177,2.25214 -0.554567,1.07844 -4.391024,-2.25769 -9.191361,-4.84505 -9.079441,-4.97919 -8.893175,-5.20462 -8.643673,-5.48534 -4.1997312,-2.89216 -4.1304104,-2.98689 -4.02695826,-3.09959 -3.92429994,-3.2131 -3.824552,-3.3438 -3.7073412,-3.49039 -3.590661,-3.62373 -3.454929,-3.76952 -3.352535,-3.89731 -3.247496,-4.0087 -3.160713,-4.1193 -3.056202,-4.2172 -5.90206,-8.69526 -5.650442,-8.986574 -5.457031,-9.203796 -5.337439,-9.331325 -5.262034,-9.417844 z m 111.549126,108.147112 4.005791,5.46894 -6.778625,-0.0765 z"
       fill="#00b050"
       id="path12977"
       style="stroke-width:0.264583" />
    <path
       d="m -57.143862,153.93723 c 10.554758,-11.08419 11.711252,-12.99581 18.793354,-20.09087 7.081838,-7.09533 16.855281,-15.33181 23.698994,-22.48033"
       stroke="#cc0000"
       stroke-width="1.32292"
       stroke-linejoin="round"
       stroke-miterlimit="10"
       stroke-dasharray="15, 5"
       fill="none"
       fill-rule="evenodd"
       id="path12979" />
    <path
       d="m -18.375525,178.20455 c 3.517371,-8.19177 6.987117,-14.66321 11.6665376,-22.34751 4.6791561,-7.68455 9.084204,-13.08232 16.4094581,-23.75879"
       stroke="#cc0000"
       stroke-width="1.32292"
       stroke-linejoin="round"
       stroke-miterlimit="10"
       stroke-dasharray="15, 5"
       fill="none"
       fill-rule="evenodd"
       id="path12981" />
    <path
       d="m -92.816838,117.58877 c 8.153399,-5.08476 15.739004,-10.83839 24.839876,-17.27121 9.100609,-6.432811 20.296981,-14.140388 29.764567,-21.324884"
       stroke="#cc0000"
       stroke-width="1.32292"
       stroke-linejoin="round"
       stroke-miterlimit="10"
       stroke-dasharray="15, 5"
       fill="none"
       fill-rule="evenodd"
       id="path12983" />
    <path
       d="m 9.0958978,191.46758 c 2.6852562,-8.26109 5.4043792,-14.75661 9.1167482,-22.44566 3.712368,-7.68906 7.287154,-13.04158 13.157464,-23.68868"
       stroke="#cc0000"
       stroke-width="1.32292"
       stroke-linejoin="round"
       stroke-miterlimit="10"
       stroke-dasharray="15, 5"
       fill="none"
       fill-rule="evenodd"
       id="path12985" />
    <text
       fill="#c00000"
       font-family="'Cambria Math', 'Cambria Math_MSFontService', sans-serif"
       font-weight="400"
       font-size="7.9375px"
       id="text13001"
       x="-91.658226"
       y="124.86322"
       style="stroke-width:0.264583">â„<tspan
   font-size="5.82083px"
   x="-87.431511"
   y="126.45072"
   id="tspan12987"
   style="stroke-width:0.0700043">1</tspan><tspan
   font-size="7.9375px"
   x="-54.156982"
   y="159.25905"
   id="tspan12989"
   style="stroke-width:0.0700043">â„</tspan><tspan
   font-size="5.82083px"
   x="-49.747169"
   y="160.84656"
   id="tspan12991"
   style="stroke-width:0.0700043">2</tspan><tspan
   font-size="7.9375px"
   x="-14.842011"
   y="180.42572"
   id="tspan12993"
   style="stroke-width:0.0700043">â„</tspan><tspan
   font-size="5.82083px"
   x="-10.432203"
   y="182.01321"
   id="tspan12995"
   style="stroke-width:0.0700043">3</tspan><tspan
   font-size="7.9375px"
   x="11.929852"
   y="192.86113"
   id="tspan12997"
   style="stroke-width:0.0700043">â„</tspan><tspan
   font-size="5.82083px"
   x="16.339661"
   y="194.71323"
   id="tspan12999"
   style="stroke-width:0.0700043">4</tspan></text>
    <path
       d="m -62.509612,102.42576 22.517894,27.30527 -0.510117,0.42095 -22.518158,-27.30553 z m -0.995098,1.39224 -1.785143,-4.243651 3.826404,2.560371 z m 23.997973,24.94148 1.785144,4.24391 -3.826404,-2.56037 z"
       fill="#f5f5f5"
       id="path13003"
       style="stroke-width:0.264583" />
    <path
       d="m -33.998641,134.87929 24.3191765,18.32531 -0.3981975,0.5281 -24.318913,-18.3253 z m -0.642938,1.58591 -2.725737,-3.71025 4.318,1.59729 z m 25.2068541,15.68159 2.7257375,3.71025 -4.3179996,-1.59729 z"
       fill="#f5f5f5"
       id="path13005"
       style="stroke-width:0.264583" />
    <path
       d="m -2.5285708,157.86153 15.9022518,8.66695 -0.316442,0.58076 -15.9025161,-8.66695 z m -0.4042834,1.6629 -3.2387645,-3.27183 4.5050604,0.94879 z m 16.3941122,5.92191 3.239029,3.27184 -4.50506,-0.9488 z"
       fill="#f5f5f5"
       id="path13007"
       style="stroke-width:0.264583" />
    <path
       d="m -63.641941,128.5622 26.004817,-21.68191 -0.423561,-0.50805 -26.00484,21.68192 z m -0.720252,-1.55248 -2.539767,3.83997 4.234099,-1.80782 z m 27.021913,-19.08505 2.539792,-3.83997 -4.234277,1.80787 z"
       fill="#f5f5f5"
       id="path13009"
       style="stroke-width:0.264583" />
    <path
       d="m -28.817175,156.52588 14.95913,-20.42146 -0.533595,-0.39087 -14.959161,20.42145 z m -1.073449,-1.33294 -1.538649,4.33917 3.673097,-2.77564 z m 16.572433,-18.14644 1.538626,-4.33916 -3.67307,2.77564 z"
       fill="#f5f5f5"
       id="path13011"
       style="stroke-width:0.264583" />
    <path
       d="M 0.92877591,173.8762 10.497488,155.54454 9.9111141,155.23847 0.34238408,173.57012 Z m -1.26191087,-1.15611 -0.86775674,4.52137 3.2132828,-3.29705 z m 11.50615696,-16.32552 0.867734,-4.52136 -3.2132805,3.29706 z"
       fill="#f5f5f5"
       id="path13013"
       style="stroke-width:0.264583" />
    <text
       font-family="'Cambria Math', 'Cambria Math_MSFontService', sans-serif"
       font-weight="400"
       font-size="7.9375px"
       id="text13093"
       x="-63.453117"
       y="115.07364"
       style="stroke-width:0.264583;fill:#ffffff">ğ‘™<tspan
   font-size="5.82083px"
   x="-61.155647"
   y="116.66114"
   id="tspan13015"
   style="stroke-width:0.0700043;fill:#ffffff">1</tspan><tspan
   font-size="7.9375px"
   x="-42.642075"
   y="117.71947"
   id="tspan13017"
   style="stroke-width:0.0700043;fill:#ffffff">ğ‘™</tspan><tspan
   font-size="5.82083px"
   x="-40.344593"
   y="119.30698"
   id="tspan13019"
   style="stroke-width:0.0700043;fill:#ffffff">1</tspan><tspan
   font-size="7.9375px"
   x="-32.772297"
   y="146.02989"
   id="tspan13021"
   style="stroke-width:0.0700043;fill:#ffffff">ğ‘™</tspan><tspan
   font-size="5.82083px"
   x="-30.291828"
   y="147.61739"
   id="tspan13023"
   style="stroke-width:0.0700043;fill:#ffffff">2</tspan><tspan
   font-size="7.9375px"
   x="-16.615782"
   y="145.7653"
   id="tspan13025"
   style="stroke-width:0.0700043;fill:#ffffff">ğ‘™</tspan><tspan
   font-size="5.82083px"
   x="-14.135314"
   y="147.35281"
   id="tspan13027"
   style="stroke-width:0.0700043;fill:#ffffff">2</tspan><tspan
   font-size="7.9375px"
   x="-4.6444445"
   y="166.13823"
   id="tspan13029"
   style="stroke-width:0.0700043;fill:#ffffff">ğ‘™</tspan><tspan
   font-size="5.82083px"
   x="-2.163976"
   y="167.72572"
   id="tspan13031"
   style="stroke-width:0.0700043;fill:#ffffff">3</tspan><tspan
   font-size="7.9375px"
   x="11.196954"
   y="164.02156"
   id="tspan13033"
   style="stroke-width:0.0700043;fill:#ffffff">ğ‘™</tspan><tspan
   font-size="5.82083px"
   x="13.677423"
   y="165.60905"
   id="tspan13035"
   style="stroke-width:0.0700043;fill:#ffffff">3</tspan><tspan
   font-size="8.73125px"
   x="-20.232899"
   y="95.229889"
   id="tspan13037"
   style="stroke-width:0.0700043;fill:#ffffff">â„</tspan><tspan
   font-size="6.35px"
   x="-15.532313"
   y="97.08197"
   id="tspan13039"
   style="stroke-width:0.0700043;fill:#ffffff">1</tspan><tspan
   font-size="8.73125px"
   x="-9.4577446"
   y="95.229889"
   id="tspan13041"
   style="stroke-width:0.0700043;fill:#ffffff">âˆ’</tspan><tspan
   font-size="8.73125px"
   x="-0.88312703"
   y="95.229889"
   id="tspan13043"
   style="stroke-width:0.0700043;fill:#ffffff">â„</tspan><tspan
   font-size="6.35px"
   x="4.0227752"
   y="97.08197"
   id="tspan13045"
   style="stroke-width:0.0700043;fill:#ffffff">2</tspan><tspan
   font-size="8.73125px"
   x="10.586558"
   y="95.229889"
   id="tspan13047"
   style="stroke-width:0.0700043;fill:#ffffff">=</tspan><tspan
   font-size="8.73125px"
   x="19.650652"
   y="95.229889"
   id="tspan13049"
   style="stroke-width:0.0700043;fill:#ffffff">âˆ†</tspan><tspan
   font-size="8.73125px"
   x="24.887291"
   y="95.229889"
   id="tspan13051"
   style="stroke-width:0.0700043;fill:#ffffff">â„</tspan><tspan
   font-size="6.35px"
   x="29.793194"
   y="97.08197"
   id="tspan13053"
   style="stroke-width:0.0700043;fill:#ffffff">ğ‘‘ğ‘Ÿğ‘œ</tspan><tspan
   font-size="6.35px"
   x="41.148048"
   y="97.08197"
   id="tspan13055"
   style="stroke-width:0.0700043;fill:#ffffff">ğ‘</tspan><tspan
   font-size="8.73125px"
   x="-2.0623751"
   y="119.30698"
   id="tspan13057"
   style="stroke-width:0.0700043;fill:#ffffff">â„</tspan><tspan
   font-size="6.35px"
   x="2.8435309"
   y="121.15906"
   id="tspan13059"
   style="stroke-width:0.0700043;fill:#ffffff">2</tspan><tspan
   font-size="8.73125px"
   x="8.9178371"
   y="119.30698"
   id="tspan13061"
   style="stroke-width:0.0700043;fill:#ffffff">âˆ’</tspan><tspan
   font-size="8.73125px"
   x="17.492718"
   y="119.30698"
   id="tspan13063"
   style="stroke-width:0.0700043;fill:#ffffff">â„</tspan><tspan
   font-size="6.35px"
   x="22.398354"
   y="121.15906"
   id="tspan13065"
   style="stroke-width:0.0700043;fill:#ffffff">3</tspan><tspan
   font-size="8.73125px"
   x="28.497004"
   y="119.30698"
   id="tspan13067"
   style="stroke-width:0.0700043;fill:#ffffff">=</tspan><tspan
   font-size="8.73125px"
   x="37.561356"
   y="119.30698"
   id="tspan13069"
   style="stroke-width:0.0700043;fill:#ffffff">âˆ†</tspan><tspan
   font-size="8.73125px"
   x="42.797729"
   y="119.30698"
   id="tspan13071"
   style="stroke-width:0.0700043;fill:#ffffff">â„</tspan><tspan
   font-size="6.35px"
   x="47.703632"
   y="121.15906"
   id="tspan13073"
   style="stroke-width:0.0700043;fill:#ffffff">ğ‘‘ğ‘Ÿğ‘œğ‘</tspan><tspan
   font-size="8.73125px"
   x="17.54299"
   y="135.71114"
   id="tspan13075"
   style="stroke-width:0.0700043;fill:#ffffff">â„</tspan><tspan
   font-size="6.35px"
   x="22.448624"
   y="137.56322"
   id="tspan13077"
   style="stroke-width:0.0700043;fill:#ffffff">3</tspan><tspan
   font-size="8.73125px"
   x="28.523197"
   y="135.71114"
   id="tspan13079"
   style="stroke-width:0.0700043;fill:#ffffff">âˆ’</tspan><tspan
   font-size="8.73125px"
   x="37.097813"
   y="135.71114"
   id="tspan13081"
   style="stroke-width:0.0700043;fill:#ffffff">â„</tspan><tspan
   font-size="6.35px"
   x="42.003712"
   y="137.56322"
   id="tspan13083"
   style="stroke-width:0.0700043;fill:#ffffff">4</tspan><tspan
   font-size="8.73125px"
   x="48.567501"
   y="135.71114"
   id="tspan13085"
   style="stroke-width:0.0700043;fill:#ffffff">=</tspan><tspan
   font-size="8.73125px"
   x="57.631596"
   y="135.71114"
   id="tspan13087"
   style="stroke-width:0.0700043;fill:#ffffff">âˆ†</tspan><tspan
   font-size="8.73125px"
   x="62.868225"
   y="135.71114"
   id="tspan13089"
   style="stroke-width:0.0700043;fill:#ffffff">â„</tspan><tspan
   font-size="6.35px"
   x="67.774124"
   y="137.56322"
   id="tspan13091"
   style="stroke-width:0.0700043;fill:#ffffff">ğ‘‘ğ‘Ÿğ‘œğ‘</tspan></text>
    <path
       d="m -40.452093,84.288841 1.455737,-0.06271 1.515269,0.137584 1.517121,0.327289 1.522941,0.492125 1.487223,0.668338 1.482461,0.814652 1.439333,0.976312 1.40626,1.100138 1.333765,1.241425 1.29249,1.348317 1.212056,1.475845 1.125802,1.598084 1.0414,1.654968 0.93001,1.763184 0.826559,1.853406 0.701675,1.903152 0.777345,2.9083 0.41963,2.88634 0.01905,3.17024 -0.661459,0.003 -0.01217,-3.07896 -0.404018,-2.8104 -0.75909,-2.85036 -0.685006,-1.862671 -0.807773,-1.814248 -0.90461,-1.719262 -1.022615,-1.626659 -1.096169,-1.558925 -1.178189,-1.437745 -1.266032,-1.322123 -1.290372,-1.204648 -1.370278,-1.073679 -1.386681,-0.944034 -1.435364,-0.791104 -1.419225,-0.642144 -1.459442,-0.474927 -1.437746,-0.315118 -1.425839,-0.135467 -1.455473,0.06297 z m 22.539854,25.970709 -1.614488,2.47861 -1.014148,-2.77892 z"
       fill="#0000ff"
       id="path13095"
       style="stroke-width:0.264583" />
    <path
       d="m -14.718189,115.81791 1.536964,0.14129 1.566598,0.29819 1.55284,0.46487 1.5115642,0.60404 1.4737291,0.74375 1.4226646,0.84428 1.3792729,0.99827 1.304925,1.09564 1.2247562,1.18322 1.15596456,1.28376 1.05489374,1.3716 0.9511771,1.45732 0.8485187,1.51686 0.7159625,1.56845 0.59055,1.62798 0.4556125,1.67587 0.1479021,0.99854 -0.6545792,0.0952 -0.1317625,-0.92075 -0.4389437,-1.62375 -0.5707063,-1.57877 -0.6913562,-1.52003 -0.82523543,-1.47849 -0.92180832,-1.41552 -1.02182085,-1.33218 -1.12395,-1.25068 -1.1908895,-1.15226 -1.2676188,-1.06654 -1.3287374,-0.9652 -1.3832417,-0.82259 -1.4213416,-0.71993 -1.4557377,-0.58473 -1.486694,-0.44847 -1.502833,-0.28919 -1.537229,-0.14128 z m 19.8273452,17.32571 -0.9972146,2.78501 -1.6295687,-2.46883 z"
       fill="#0000ff"
       id="path13097"
       style="stroke-width:0.264583" />
    <path
       d="m 8.2172165,138.19584 1.1464396,-0.25479 1.1937999,-0.13229 c 0.0164,-0.002 0.03307,-0.002 0.04974,-0.002 l 2.338387,0.0982 c 0.02117,7.9e-4 0.04207,0.004 0.06271,0.009 l 2.325953,0.55403 c 0.01852,0.005 0.03678,0.0106 0.0545,0.0183 l 2.254779,0.97499 c 0.0164,0.007 0.03201,0.0151 0.04683,0.0246 l 2.113756,1.34884 1.014942,0.84561 0.929481,0.90779 0.869156,0.9906 0.79719,1.06177 0.704321,1.13665 0.608277,1.20756 0.489214,1.23216 0.396611,1.5576 -0.641086,0.16219 -0.370681,-1.47637 -0.465137,-1.17872 -0.579702,-1.15649 -0.670984,-1.08797 -0.765704,-1.02262 -0.834231,-0.95355 -0.891117,-0.87339 -0.946414,-0.79508 -2.113757,-1.34884 0.04657,0.0246 -2.254779,-0.97472 0.0545,0.018 -2.325687,-0.55404 0.06271,0.009 -2.338387,-0.0982 0.04974,-0.002 -1.1218332,0.12038 -1.1464395,0.25506 z m 18.3163105,11.02307 -0.906727,2.8157 -1.708415,-2.41485 z"
       fill="#0000ff"
       id="path13099"
       style="stroke-width:0.264583" />
    <path
       d="m -80.578272,82.847126 1.643327,-1.119187 -6.543939,-9.608344 3.286389,-2.238375 6.54394,9.608344 1.643327,-1.119188 -1.048015,5.524765 z"
       fill="#00b0f0"
       fill-rule="evenodd"
       id="path13101"
       style="stroke-width:0.264583" />
    <text
       font-family="'Cambria Math', 'Cambria Math_MSFontService', sans-serif"
       font-weight="400"
       font-size="12.4354px"
       id="text13105"
       x="-116.23299"
       y="76.444473"
       style="stroke-width:0.264583;fill:#ffffff">ğ‘<tspan
   font-size="8.99583px"
   x="-109.80361"
   y="79.090309"
   id="tspan13103"
   style="stroke-width:0.0700043;fill:#ffffff">ğ‘¡ğ‘¢ğ‘ğ‘’</tspan></text>
    <path
       d="m 50.61696,189.34562 0.858308,-1.79335 -10.486231,-5.01808 1.716352,-3.58669 10.486231,5.01782 0.858044,-1.79335 1.870604,5.30331 z"
       fill="#00b0f0"
       fill-rule="evenodd"
       id="path13107"
       style="stroke-width:0.264583" />
    <text
       font-family="'Cambria Math', 'Cambria Math_MSFontService', sans-serif"
       font-weight="400"
       font-size="12.4354px"
       id="text13111"
       x="58.137211"
       y="192.33197"
       style="stroke-width:0.264583;fill:#ffffff">ğ‘<tspan
   font-size="8.99583px"
   x="64.566589"
   y="194.9778"
   id="tspan13109"
   style="stroke-width:0.0700043;fill:#ffffff">ğ‘¡ğ‘¢ğ‘ğ‘’</tspan></text>
    <path
       d="m -117.2214,205.36429 0.54206,-1.39383 c 0.006,-0.0151 0.0129,-0.0299 0.021,-0.0439 l 0.69202,-1.21258 c 0.009,-0.0159 0.0194,-0.0312 0.031,-0.0452 l 0.84198,-1.03161 c 0.0132,-0.0164 0.028,-0.0312 0.044,-0.0447 l 0.94682,-0.79216 c 0.0156,-0.013 0.0323,-0.0246 0.05,-0.0347 l 1.02235,-0.57521 c 0.022,-0.0122 0.0453,-0.022 0.0696,-0.0291 l 1.07212,-0.31274 c 0.0277,-0.008 0.0564,-0.0124 0.0852,-0.0132 l 1.0831,-0.0241 c 0.0287,-7.9e-4 0.0574,0.002 0.0853,0.009 l 1.07786,0.26115 c 0.0237,0.006 0.0468,0.0143 0.0687,0.0251 l 0.67601,0.33417 c 0.0186,0.009 0.0362,0.0201 0.0527,0.0325 l 0.60193,0.45482 c 0.0135,0.0101 0.0259,0.0212 0.0376,0.0331 l 0.54742,0.56197 0.50853,0.68422 c 0.009,0.0124 0.0177,0.0257 0.0251,0.0394 l 0.39556,0.73448 c 0.0116,0.0214 0.0206,0.0439 0.0272,0.0672 l 0.14816,0.52625 -0.63658,0.17939 -0.14817,-0.52626 0.027,0.0672 -0.39555,-0.73449 0.0251,0.0394 -0.45032,-0.61542 -0.5474,-0.56198 0.0376,0.0333 -0.60193,-0.45482 0.0527,0.0325 -0.67601,-0.33443 0.0687,0.0251 -1.07783,-0.26141 0.0853,0.009 -1.08307,0.0243 0.0852,-0.0132 -1.07209,0.31274 0.0696,-0.0294 -1.02235,0.5752 0.0501,-0.0344 -0.94678,0.79216 0.044,-0.0447 -0.84199,1.03187 0.031,-0.0452 -0.69202,1.21258 0.021,-0.0439 -0.54205,1.39356 z m 11.60825,-2.45375 -0.62891,2.89058 -1.93516,-2.23732 z"
       fill="#0000ff"
       id="path13113"
       style="stroke-width:0.264583" />
    <text
       fill="#0000ff"
       font-family="Calibri, Calibri_MSFontService, sans-serif"
       font-weight="700"
       font-size="8.73125px"
       id="text13115"
       x="-101.3687"
       y="204.50281"
       style="stroke-width:0.264583">Total head drop</text>
    <path
       d="m -50.705491,146.29209 13.17281,-13.42575 13.612019,-12.76562 10.977298,11.22495 13.83162229,12.10522 -8.12323739,12.54548 -7.9036329,13.86602 -18.003044,-10.34441 z"
       stroke="#f5f5f5"
       stroke-width="1.98438"
       stroke-linejoin="round"
       stroke-miterlimit="10"
       fill="none"
       fill-rule="evenodd"
       id="path13117" />
    <path
       style="fill:none;stroke:#00b050;stroke-width:1.565;stroke-linecap:butt;stroke-linejoin:miter;stroke-opacity:1;stroke-miterlimit:4;stroke-dasharray:none"
       d="m -101.14619,89.853293 34.244229,40.996397 21.286523,20.18268 14.195954,9.71364 16.280871,9.09638 40.169305,16.46052 17.538666,7.74344"
       id="path13569" />
  </g>
</svg>
