<?xml version="1.0" encoding="UTF-8" standalone="no"?>
<!-- Created with Inkscape (http://www.inkscape.org/) -->

<svg
   width="208.1566mm"
   height="49.011993mm"
   viewBox="0 0 208.1566 49.011993"
   version="1.1"
   id="svg5"
   inkscape:version="1.1.1 (3bf5ae0d25, 2021-09-20)"
   sodipodi:docname="example_foundation.svg"
   xmlns:inkscape="http://www.inkscape.org/namespaces/inkscape"
   xmlns:sodipodi="http://sodipodi.sourceforge.net/DTD/sodipodi-0.dtd"
   xmlns="http://www.w3.org/2000/svg"
   xmlns:svg="http://www.w3.org/2000/svg">
  <sodipodi:namedview
     id="namedview7"
     pagecolor="#505050"
     bordercolor="#ffffff"
     borderopacity="1"
     inkscape:pageshadow="0"
     inkscape:pageopacity="0"
     inkscape:pagecheckerboard="1"
     inkscape:document-units="mm"
     showgrid="false"
     inkscape:zoom="0.57370932"
     inkscape:cx="349.48012"
     inkscape:cy="35.732381"
     inkscape:window-width="1536"
     inkscape:window-height="807"
     inkscape:window-x="-8"
     inkscape:window-y="-8"
     inkscape:window-maximized="1"
     inkscape:current-layer="layer1" />
  <defs
     id="defs2">
    <clipPath
       id="clip0">
      <rect
         x="104"
         y="473"
         width="814"
         height="214"
         id="rect831" />
    </clipPath>
  </defs>
  <g
     inkscape:label="Layer 1"
     inkscape:groupmode="layer"
     id="layer1"
     transform="translate(-3.8378467,-72.803009)">
    <path
       d="M 7.9400046,93.229669 H 91.949445"
       stroke="#f5f5f5"
       stroke-width="0.61736"
       stroke-linejoin="round"
       stroke-miterlimit="10"
       fill="none"
       fill-rule="evenodd"
       id="path836" />
    <rect
       x="15.877504"
       y="88.202583"
       width="12.170834"
       height="5.0270834"
       fill="#f5f5f5"
       id="rect838"
       style="stroke-width:0.264583" />
    <path
       d="m 81.90692,93.494252 -2.000224,3.228049"
       stroke="#f5f5f5"
       stroke-width="0.61736"
       stroke-linejoin="round"
       stroke-miterlimit="10"
       fill="none"
       fill-rule="evenodd"
       id="path840" />
    <path
       d="M 84.552754,93.494252 82.55253,96.722301"
       stroke="#f5f5f5"
       stroke-width="0.61736"
       stroke-linejoin="round"
       stroke-miterlimit="10"
       fill="none"
       fill-rule="evenodd"
       id="path842" />
    <path
       d="m 87.198587,93.494252 -2.000224,3.228049"
       stroke="#f5f5f5"
       stroke-width="0.61736"
       stroke-linejoin="round"
       stroke-miterlimit="10"
       fill="none"
       fill-rule="evenodd"
       id="path844" />
    <text
       font-family="'Cambria Math', 'Cambria Math_MSFontService', sans-serif"
       font-weight="400"
       font-size="6.35px"
       id="text848"
       x="3.791338"
       y="101.16717"
       style="stroke-width:0.264583;fill:#ffffff">𝛾<tspan
   font-size="4.7625px"
   x="7.1568379"
   y="102.49009"
   id="tspan846"
   style="stroke-width:0.0700043;fill:#ffffff">𝑇</tspan></text>
    <rect
       x="19.581671"
       y="80.79425"
       width="4.7624998"
       height="11.90625"
       fill="#f5f5f5"
       id="rect850"
       style="stroke-width:0.264583" />
    <path
       d="m 21.213269,73.253625 -1.8e-5,4.97417 h 1.763887 l 1.9e-5,-4.974164 z m -0.881959,4.092208 1.763875,3.527795 1.763902,-3.527769 z"
       fill="#c00000"
       id="path852"
       style="stroke-width:0.264583" />
    <text
       fill="#c00000"
       font-family="'Cambria Math', 'Cambria Math_MSFontService', sans-serif"
       font-weight="400"
       font-size="6.35px"
       id="text854"
       x="25.142155"
       y="78.677589"
       style="stroke-width:0.264583">𝑭</text>
    <path
       d="M 52.915466,93.408792 C 52.709091,101.80905 44.369954,108.47972 34.289329,108.30774 24.586794,108.14238 16.735284,101.67993 16.416461,93.597175"
       stroke="#f5f5f5"
       stroke-width="0.61736"
       stroke-linejoin="round"
       stroke-miterlimit="10"
       stroke-dasharray="7, 2.33333"
       fill="none"
       fill-rule="evenodd"
       id="path856" />
    <path
       d="M 25.137921,118.37329 56.049985,99.31522"
       stroke="#00b050"
       stroke-width="0.61736"
       stroke-linejoin="round"
       stroke-miterlimit="10"
       stroke-dasharray="7, 2.33333"
       fill="none"
       fill-rule="evenodd"
       id="path858" />
    <path
       d="m 43.923337,105.79738 c 0,-0.36539 0.296069,-0.66146 0.661459,-0.66146 0.365389,0 0.661458,0.29607 0.661458,0.66146 0,0.36539 -0.296069,0.66146 -0.661458,0.66146 -0.36539,0 -0.661459,-0.29607 -0.661459,-0.66146 z"
       stroke="#fd8c00"
       stroke-width="0.529167"
       stroke-linejoin="round"
       stroke-miterlimit="10"
       fill="#fd8c00"
       fill-rule="evenodd"
       id="path860" />
    <path
       d="m 34.042738,113.21894 0.09657,0.15478 c 0.01773,0.0283 0.03281,0.0582 0.04471,0.0894 l 0.425979,1.10014 c 0.01058,0.0275 0.01905,0.0558 0.02487,0.0847 l 0.2413,1.17475 c 0.0066,0.0312 0.01005,0.063 0.01085,0.0947 l 0.02725,1.22766 c 5.29e-4,0.0288 -0.0013,0.058 -0.0053,0.0865 l -0.179916,1.25783 -0.34925,-0.0497 0.179916,-1.2581 c 0.0013,-0.01 0.0019,-0.0191 0.0019,-0.0288 l -0.02725,-1.2274 c -2.64e-4,-0.0106 -0.0013,-0.0212 -0.0037,-0.0318 l -0.2413,-1.17475 c -0.0019,-0.01 -0.0048,-0.0191 -0.0082,-0.0283 l -0.425979,-1.10014 c -0.004,-0.0103 -0.009,-0.0204 -0.01508,-0.0296 l -0.09657,-0.15504 z m -0.598488,0.37386 0.08784,0.14049 0.414602,1.07103 0.235214,1.14486 0.02646,1.19697 -0.1778,1.24354 -0.348986,-0.05 0.173567,-1.21471 -0.02513,-1.13612 -0.22278,-1.08479 -0.392112,-1.01203 -0.07012,-0.11245 z"
       fill="#00b050"
       id="path862"
       style="stroke-width:0.264583" />
    <path
       d="m 25.137921,117.83592 15.875,-3e-5"
       stroke="#fafafa"
       stroke-width="0.529167"
       stroke-linejoin="round"
       stroke-miterlimit="10"
       fill="none"
       fill-rule="evenodd"
       id="path864" />
    <text
       fill="#00b050"
       font-family="'Cambria Math', 'Cambria Math_MSFontService', sans-serif"
       font-weight="400"
       font-size="4.23333px"
       id="text866"
       x="36.230576"
       y="115.98384"
       style="stroke-width:0.264583">𝛽</text>
    <path
       d="M 119.27773,93.099494 136.3288,82.642367 146.78593,99.693175 129.73486,110.15057 Z"
       stroke="#f5f5f5"
       stroke-width="0.61736"
       stroke-linejoin="round"
       stroke-miterlimit="10"
       fill="none"
       fill-rule="evenodd"
       id="path868" />
    <path
       d="m 141.86547,90.668238 11.73295,-7.195608 0.27675,0.451114 -11.73294,7.195608 z m 2.59424,0.436033 -2.90354,0.06403 1.37346,-2.558785 c 0.0691,-0.128587 0.22939,-0.177006 0.35824,-0.10795 0.12885,0.06906 0.17701,0.229394 0.10795,0.358246 l -1.15887,2.159264 -0.23892,-0.389731 2.44977,-0.05398 c 0.14632,-0.0032 0.26723,0.112448 0.27041,0.258498 0.003,0.146315 -0.11245,0.267229 -0.2585,0.270404 z"
       fill="#212223"
       id="path870"
       style="stroke-width:0.264583;fill:#ffffff" />
    <path
       d="m 124.19818,102.12443 -11.73294,7.19561 -0.27676,-0.45111 11.73295,-7.19561 z m -2.59424,-0.43603 2.90354,-0.064 -1.37345,2.55878 c -0.0691,0.12859 -0.22939,0.17701 -0.35825,0.10795 -0.12885,-0.0691 -0.177,-0.22939 -0.10795,-0.35824 l 1.15888,-2.15927 0.23892,0.38974 -2.44978,0.054 c -0.14631,0.003 -0.26723,-0.11245 -0.2704,-0.2585 -0.003,-0.14605 0.11244,-0.26723 0.25849,-0.2704 z"
       fill="#212223"
       id="path872"
       style="stroke-width:0.264583;fill:#ffffff" />
    <path
       d="m 138.59522,105.33092 7.19561,11.73294 -0.45111,0.27676 -7.19561,-11.73295 z m -0.43603,2.59424 -0.064,-2.90354 2.55878,1.37345 c 0.12886,0.0691 0.17728,0.22939 0.10795,0.35825 -0.0691,0.12885 -0.22939,0.177 -0.35824,0.10795 l -2.159,-1.15888 0.38973,-0.23892 0.054,2.44978 c 0.003,0.14631 -0.11271,0.26723 -0.25876,0.2704 -0.14605,0.003 -0.26696,-0.11244 -0.2704,-0.25849 z"
       fill="#0000ff"
       id="path874"
       style="stroke-width:0.264583" />
    <path
       d="m 127.34355,87.538217 -7.19561,-11.732948 0.45112,-0.276489 7.19561,11.732948 z m 0.43603,-2.593975 0.064,2.903273 -2.55878,-1.373187 c -0.12885,-0.06932 -0.17701,-0.229659 -0.10795,-0.358246 0.0691,-0.128852 0.22939,-0.177271 0.35824,-0.108215 l 2.159,1.158875 -0.38946,0.238919 -0.0542,-2.449777 c -0.003,-0.14605 0.11271,-0.267229 0.25876,-0.270404 0.14605,-0.0032 0.26723,0.112712 0.2704,0.258762 z"
       fill="#0000ff"
       id="path876"
       style="stroke-width:0.264583" />
    <path
       d="m 119.68281,99.238621 5.03766,8.214259 -0.45111,0.27675 -5.03767,-8.214519 z m -0.43604,2.593979 -0.064,-2.903277 2.55879,1.373187 c 0.12859,0.0691 0.177,0.22966 0.10795,0.35825 -0.0691,0.12885 -0.22966,0.17727 -0.35825,0.10821 l -2.15926,-1.158874 0.38973,-0.239183 0.054,2.450037 c 0.003,0.14605 -0.11244,0.26697 -0.25876,0.27041 -0.14605,0.003 -0.26696,-0.11271 -0.27014,-0.25876 z"
       fill="#212223"
       id="path878"
       style="stroke-width:0.264583;fill:#ffffff" />
    <path
       d="m 147.2463,93.297932 -5.03793,-8.214254 0.45112,-0.276755 5.03793,8.214519 z m 0.43604,-2.593975 0.064,2.903273 -2.55879,-1.373188 c -0.12885,-0.06906 -0.17701,-0.229658 -0.10795,-0.358246 0.0691,-0.128852 0.22939,-0.177271 0.35825,-0.10795 l 2.159,1.158875 -0.38947,0.238919 -0.0542,-2.450042 c -0.003,-0.14605 0.11271,-0.266964 0.25876,-0.270139 0.14605,-0.0034 0.26723,0.112448 0.27041,0.258498 z"
       fill="#212223"
       id="path880"
       style="stroke-width:0.264583;fill:#ffffff" />
    <path
       d="m 121.39307,87.419419 8.21426,-5.037931 0.27675,0.451115 -8.21452,5.037931 z m 2.59398,0.436034 -2.90328,0.06403 1.37319,-2.558786 c 0.0691,-0.128852 0.22966,-0.177271 0.35825,-0.10795 0.12885,0.06906 0.17727,0.229394 0.10795,0.358246 l -1.15861,2.159 -0.23919,-0.389731 2.45005,-0.05398 c 0.14605,-0.0032 0.26696,0.112712 0.2704,0.258762 0.003,0.14605 -0.11271,0.26723 -0.25876,0.270405 z"
       fill="#ff0000"
       id="path882"
       style="stroke-width:0.264583" />
    <path
       d="m 144.52903,105.62116 -8.21452,5.03794 -0.27649,-0.45112 8.21426,-5.03793 z m -2.59424,-0.43603 2.90354,-0.064 -1.37345,2.55879 c -0.0691,0.12885 -0.2294,0.17727 -0.35825,0.10795 -0.12885,-0.0691 -0.177,-0.2294 -0.10795,-0.35825 l 1.15888,-2.159 0.23892,0.38973 -2.44978,0.054 c -0.14632,0.003 -0.26723,-0.11271 -0.27041,-0.25876 -0.003,-0.14605 0.11245,-0.26723 0.2585,-0.27041 z"
       fill="#ff0000"
       id="path884"
       style="stroke-width:0.264583" />
    <text
       fill="#bfbfbf"
       font-family="'Cambria Math', 'Cambria Math_MSFontService', sans-serif"
       font-weight="400"
       font-size="6.35px"
       id="text912"
       x="150.55067"
       y="91.112999"
       style="stroke-width:0.264583">𝜎<tspan
   font-size="4.7625px"
   x="153.82092"
   y="92.435921"
   id="tspan886"
   style="stroke-width:0.0700043">𝛼</tspan><tspan
   fill="#00b050"
   font-size="6.35px"
   x="122.21275"
   y="75.767166"
   id="tspan888"
   style="stroke-width:0.0700043">𝜎</tspan><tspan
   fill="#00b050"
   font-size="4.7625px"
   x="125.16719"
   y="77.090088"
   id="tspan890"
   style="stroke-width:0.0700043">𝛽</tspan><tspan
   fill="#00b050"
   font-family="Calibri, Calibri_MSFontService, sans-serif"
   font-size="6.35px"
   x="128.34219"
   y="77.090088"
   id="tspan892"
   style="stroke-width:0.0700043" /><tspan
   font-size="6.35px"
   x="105.08125"
   y="104.07758"
   id="tspan894"
   style="stroke-width:0.0700043">𝜎</tspan><tspan
   font-size="4.7625px"
   x="108.35149"
   y="105.40051"
   id="tspan896"
   style="stroke-width:0.0700043">𝛼</tspan><tspan
   fill="#00b050"
   font-size="6.35px"
   x="114.30382"
   y="87.144249"
   id="tspan898"
   style="stroke-width:0.0700043">𝜏</tspan><tspan
   fill="#00b050"
   font-size="4.7625px"
   x="116.89832"
   y="88.467171"
   id="tspan900"
   style="stroke-width:0.0700043">𝛽</tspan><tspan
   fill="#00b050"
   font-family="Calibri, Calibri_MSFontService, sans-serif"
   font-size="6.35px"
   x="120.07333"
   y="88.467171"
   id="tspan902"
   style="stroke-width:0.0700043" /><tspan
   font-size="6.35px"
   x="136.48161"
   y="81.323418"
   id="tspan904"
   style="stroke-width:0.0700043">𝜏</tspan><tspan
   font-size="4.7625px"
   x="139.39204"
   y="82.646332"
   id="tspan906"
   style="stroke-width:0.0700043">𝛼</tspan><tspan
   font-size="6.35px"
   x="118.39931"
   y="111.22134"
   id="tspan908"
   style="stroke-width:0.0700043">𝜏</tspan><tspan
   font-size="4.7625px"
   x="121.30972"
   y="112.27967"
   id="tspan910"
   style="stroke-width:0.0700043">𝛼</tspan></text>
    <path
       d="M 119.32959,93.281263 136.40609,83.17545"
       stroke="#00b050"
       stroke-width="1.5875"
       stroke-linejoin="round"
       stroke-miterlimit="10"
       fill="none"
       fill-rule="evenodd"
       id="path914" />
    <path
       d="M 130.1775,109.68543 147.254,99.579617"
       stroke="#00b050"
       stroke-width="1.5875"
       stroke-linejoin="round"
       stroke-miterlimit="10"
       fill="none"
       fill-rule="evenodd"
       id="path916" />
    <path
       d="m 128.599,88.54575 0.0894,0.139965 c 0.0193,0.03043 0.0354,0.06271 0.0481,0.09631 l 0.39635,1.041136 c 0.0109,0.0291 0.0193,0.059 0.0251,0.08969 l 0.21167,1.115748 c 0.006,0.03281 0.009,0.06641 0.009,0.09975 l -0.003,1.1684 c 0,0.03016 -0.003,0.06033 -0.008,0.08996 l -0.20955,1.199091 -0.34767,-0.06085 0.20982,-1.198827 c 0.002,-0.01005 0.002,-0.02011 0.002,-0.03016 l 0.003,-1.1684 c 0,-0.01111 -10e-4,-0.02223 -0.003,-0.03334 l -0.21167,-1.115748 c -0.002,-0.01032 -0.005,-0.02011 -0.008,-0.0299 l -0.39608,-1.041135 c -0.004,-0.01111 -0.01,-0.02196 -0.0161,-0.03202 l -0.0892,-0.140229 z m -0.59505,0.379148 0.0796,0.124884 0.38418,1.00965 0.20558,1.083998 -0.003,1.13665 -0.2069,1.18401 -0.34767,-0.06059 0.20188,-1.154377 0.003,-1.072885 -0.19368,-1.020498 -0.36036,-0.946944 -0.0601,-0.09446 z"
       fill="#00b050"
       id="path918"
       style="stroke-width:0.264583" />
    <path
       d="m 119.85875,92.965086 15.61042,-2.8e-5"
       stroke="#fafafa"
       stroke-width="0.529167"
       stroke-linejoin="round"
       stroke-miterlimit="10"
       fill="none"
       fill-rule="evenodd"
       id="path920" />
    <text
       fill="#00b050"
       font-family="'Cambria Math', 'Cambria Math_MSFontService', sans-serif"
       font-weight="400"
       font-size="4.23333px"
       id="text944"
       x="130.78947"
       y="91.377586"
       style="stroke-width:0.264583;stroke:#ffffff">𝛽<tspan
   font-size="6.35px"
   x="145.95862"
   y="116.24842"
   id="tspan922"
   style="stroke-width:0.0700043;stroke:#ffffff">𝜎</tspan><tspan
   font-size="4.7625px"
   x="148.91312"
   y="117.30676"
   id="tspan924"
   style="stroke-width:0.0700043;stroke:#ffffff">𝛽</tspan><tspan
   font-family="Calibri, Calibri_MSFontService, sans-serif"
   font-size="6.35px"
   x="152.08812"
   y="117.30676"
   id="tspan926"
   style="stroke-width:0.0700043;stroke:#ffffff" /><tspan
   font-size="6.35px"
   x="146.1324"
   y="107.25259"
   id="tspan928"
   style="stroke-width:0.0700043;stroke:#ffffff">𝜏</tspan><tspan
   font-size="4.7625px"
   x="148.7271"
   y="108.5755"
   id="tspan930"
   style="stroke-width:0.0700043;stroke:#ffffff">𝛽</tspan><tspan
   font-family="Calibri, Calibri_MSFontService, sans-serif"
   font-size="6.35px"
   x="151.9021"
   y="108.5755"
   id="tspan932"
   style="stroke-width:0.0700043;stroke:#ffffff" /><tspan
   fill="#bfbfbf"
   font-size="6.35px"
   x="181.47386"
   y="120.48175"
   id="tspan934"
   style="stroke-width:0.0700043;stroke:#ffffff">𝛼</tspan><tspan
   fill="#000000"
   font-size="6.35px"
   x="187.22246"
   y="120.48175"
   id="tspan936"
   style="stroke-width:0.0700043;stroke:#ffffff">=</tspan><tspan
   font-size="6.35px"
   x="193.74867"
   y="120.48175"
   id="tspan938"
   style="stroke-width:0.0700043;stroke:#ffffff">𝛽</tspan><tspan
   fill="#000000"
   font-size="6.35px"
   x="199.18851"
   y="120.48175"
   id="tspan940"
   style="stroke-width:0.0700043;stroke:#ffffff">+</tspan><tspan
   fill="#000000"
   font-size="6.35px"
   x="205.36229"
   y="120.48175"
   id="tspan942"
   style="stroke-width:0.0700043;stroke:#ffffff">90</tspan></text>
    <path
       d="m 45.728854,107.58675 3.448579,6.35265 -0.465137,0.25241 -3.448579,-6.35264 z m -0.572294,2.56752 0.08917,-2.90274 2.482585,1.50653 c 0.125148,0.0757 0.164836,0.23839 0.08917,0.36328 -0.07594,0.12488 -0.238654,0.16483 -0.363538,0.0889 l -2.09497,-1.27106 0.401637,-0.21802 -0.07514,2.44925 c -0.0045,0.14605 -0.126735,0.26088 -0.272785,0.25638 -0.14605,-0.004 -0.260615,-0.12647 -0.256117,-0.27252 z"
       fill="#0000ff"
       id="path946"
       style="stroke-width:0.264583" />
    <path
       d="m 50.351125,104.7864 -8.214254,5.03794 -0.276754,-0.45112 8.214254,-5.03793 z m -2.593975,-0.43603 2.903273,-0.064 -1.373452,2.55879 c -0.06906,0.12885 -0.229394,0.17727 -0.358246,0.10795 -0.128588,-0.0691 -0.177006,-0.2294 -0.10795,-0.35825 l 1.158875,-2.159 0.238919,0.38973 -2.449777,0.054 c -0.14605,0.003 -0.26723,-0.11271 -0.270405,-0.25876 -0.0032,-0.14605 0.112713,-0.26697 0.258763,-0.27041 z"
       fill="#ff0000"
       id="path948"
       style="stroke-width:0.264583" />
    <text
       fill="#00b050"
       font-family="'Cambria Math', 'Cambria Math_MSFontService', sans-serif"
       font-weight="400"
       font-size="6.35px"
       id="text960"
       x="50.259579"
       y="115.19009"
       style="stroke-width:0.264583">𝜎<tspan
   font-size="4.7625px"
   x="53.2141"
   y="116.51301"
   id="tspan950"
   style="stroke-width:0.0700043">𝛽</tspan><tspan
   font-family="Calibri, Calibri_MSFontService, sans-serif"
   font-size="6.35px"
   x="56.389103"
   y="116.51301"
   id="tspan952"
   style="stroke-width:0.0700043" /><tspan
   font-size="6.35px"
   x="51.759712"
   y="106.98801"
   id="tspan954"
   style="stroke-width:0.0700043">𝜏</tspan><tspan
   font-size="4.7625px"
   x="54.354404"
   y="108.31092"
   id="tspan956"
   style="stroke-width:0.0700043">𝛽</tspan><tspan
   font-family="Calibri, Calibri_MSFontService, sans-serif"
   font-size="6.35px"
   x="57.529404"
   y="108.31092"
   id="tspan958"
   style="stroke-width:0.0700043" /></text>
  </g>
</svg>
