<?xml version="1.0" encoding="UTF-8" standalone="no"?>
<!-- Created with Inkscape (http://www.inkscape.org/) -->

<svg
   width="2in"
   height="2in"
   viewBox="0 0 50.8 50.799999"
   version="1.1"
   id="svg1"
   inkscape:version="1.4 (86a8ad7, 2024-10-11)"
   sodipodi:docname="Qr.svg"
   xml:space="preserve"
   xmlns:inkscape="http://www.inkscape.org/namespaces/inkscape"
   xmlns:sodipodi="http://sodipodi.sourceforge.net/DTD/sodipodi-0.dtd"
   xmlns="http://www.w3.org/2000/svg"
   xmlns:svg="http://www.w3.org/2000/svg"><sodipodi:namedview
     id="namedview1"
     pagecolor="#ffffff"
     bordercolor="#111111"
     borderopacity="1"
     inkscape:showpageshadow="0"
     inkscape:pageopacity="0"
     inkscape:pagecheckerboard="1"
     inkscape:deskcolor="#d1d1d1"
     inkscape:document-units="mm"
     inkscape:zoom="0.76435185"
     inkscape:cx="336.23259"
     inkscape:cy="209.32768"
     inkscape:window-width="1920"
     inkscape:window-height="1009"
     inkscape:window-x="-8"
     inkscape:window-y="-3"
     inkscape:window-maximized="1"
     inkscape:current-layer="svg1" /><defs
     id="defs1"><clipPath
       clipPathUnits="userSpaceOnUse"
       id="clipPath15"><rect
         style="fill:#ff0000;stroke:#000080;stroke-width:0.165;stroke-linecap:round;stroke-miterlimit:4.1;stroke-dasharray:none;paint-order:fill markers stroke"
         id="rect16"
         width="62.999992"
         height="45.69231"
         x="165.80769"
         y="70.961533"
         rx="0"
         ry="0" /></clipPath><clipPath
       clipPathUnits="userSpaceOnUse"
       id="clipPath39"><rect
         style="fill:#008080;stroke:#000080;stroke-width:0.165;stroke-linecap:round;stroke-miterlimit:4.1;stroke-dasharray:none;paint-order:fill markers stroke"
         id="rect40"
         width="446.53848"
         height="76.153847"
         x="-335.07693"
         y="-213.92307" /></clipPath><clipPath
       clipPathUnits="userSpaceOnUse"
       id="clipPath1"><rect
         style="fill:#0000ff;stroke:#0000ff;stroke-width:0.165;stroke-linecap:round;stroke-miterlimit:4.1;paint-order:markers stroke fill"
         id="rect2"
         width="127.27922"
         height="93.501274"
         x="-214.41653"
         y="-105.49489"
         rx="0.077514648"
         ry="0.077514648" /></clipPath><clipPath
       clipPathUnits="userSpaceOnUse"
       id="clipPath3"><rect
         style="fill:#0000ff;stroke:#0000ff;stroke-width:0.165;stroke-linecap:round;stroke-miterlimit:4.1;paint-order:markers stroke fill"
         id="rect4"
         width="458.30768"
         height="333.69229"
         x="109.38462"
         y="-506.76923"
         rx="0.077514648"
         ry="0.077514648" /></clipPath><clipPath
       clipPathUnits="userSpaceOnUse"
       id="clipPath5"><rect
         style="fill:#0000ff;stroke:#0000ff;stroke-width:0.165;stroke-linecap:round;stroke-miterlimit:4.1;paint-order:markers stroke fill"
         id="rect6"
         width="445.47726"
         height="81.262886"
         x="-300.57477"
         y="-191.8979"
         rx="0.077514648"
         ry="0.077514648" /></clipPath></defs><g
     inkscape:label="Layer 1"
     inkscape:groupmode="layer"
     id="layer1"><text
       xml:space="preserve"
       style="font-size:2.46944px;line-height:0.95;font-family:Arial;-inkscape-font-specification:Arial;font-variant-ligatures:none;text-align:center;text-anchor:middle;stroke-width:0.264583"
       x="57.028843"
       y="5.1854877"
       id="text16"><tspan
         sodipodi:role="line"
         id="tspan16"
         style="font-size:2.46944px;stroke-width:0.264583"
         x="57.028843"
         y="5.1854877" /></text><text
       xml:space="preserve"
       style="font-size:2.46944px;line-height:0.95;font-family:Arial;-inkscape-font-specification:Arial;font-variant-ligatures:none;text-align:center;text-anchor:middle;stroke-width:0.264583"
       x="63.39484"
       y="2.6536589"
       id="text17"><tspan
         sodipodi:role="line"
         id="tspan17"
         style="font-size:2.46944px;stroke-width:0.264583"
         x="63.39484"
         y="2.6536589" /></text><text
       xml:space="preserve"
       style="font-size:3.175px;line-height:0.95;font-family:Arial;-inkscape-font-specification:Arial;font-variant-ligatures:none;text-align:center;text-anchor:middle;stroke-width:0.264583"
       x="77.133293"
       y="5.1854877"
       id="text18"><tspan
         sodipodi:role="line"
         id="tspan18"
         style="stroke-width:0.264583"
         x="77.133293"
         y="5.1854877" /></text></g><g
     inkscape:label="QR Code: https://www.youtube.com/watch?v=SW-NoiM726U"
     transform="scale(0.34324324)"
     id="g14"
     style="stroke-width:0.770832"><rect
       x="0"
       y="0"
       width="148"
       height="148"
       style="fill:#ffffff;stroke:none;stroke-width:0.770832"
       id="rect13" /><g
       style="fill:#000000;stroke:none;stroke-width:0.770832"
       id="g13"><path
         d="m 16,16 h 4 v 4 h -4 z m 4,0 h 4 v 4 h -4 z m 4,0 h 4 v 4 h -4 z m 4,0 h 4 v 4 h -4 z m 4,0 h 4 v 4 h -4 z m 4,0 h 4 v 4 h -4 z m 4,0 h 4 v 4 h -4 z m 8,0 h 4 v 4 h -4 z m 4,0 h 4 v 4 h -4 z m 16,0 h 4 v 4 h -4 z m 12,0 h 4 v 4 h -4 z m 4,0 h 4 v 4 h -4 z m 4,0 h 4 v 4 h -4 z m 4,0 h 4 v 4 h -4 z m 4,0 h 4 v 4 h -4 z m 8,0 h 4 v 4 h -4 z m 4,0 h 4 v 4 h -4 z m 4,0 h 4 v 4 h -4 z m 4,0 h 4 v 4 h -4 z m 4,0 h 4 v 4 h -4 z m 4,0 h 4 v 4 h -4 z m 4,0 h 4 v 4 h -4 z M 16,20 h 4 v 4 h -4 z m 24,0 h 4 v 4 h -4 z m 28,0 h 4 v 4 h -4 z m 16,0 h 4 v 4 h -4 z m 4,0 h 4 v 4 h -4 z m 16,0 h 4 v 4 h -4 z m 24,0 h 4 v 4 h -4 z M 16,24 h 4 v 4 h -4 z m 8,0 h 4 v 4 h -4 z m 4,0 h 4 v 4 h -4 z m 4,0 h 4 v 4 h -4 z m 8,0 h 4 v 4 h -4 z m 8,0 h 4 v 4 h -4 z m 12,0 h 4 v 4 h -4 z m 4,0 h 4 v 4 h -4 z m 4,0 h 4 v 4 h -4 z m 4,0 h 4 v 4 h -4 z m 4,0 h 4 v 4 h -4 z m 12,0 h 4 v 4 h -4 z m 8,0 h 4 v 4 h -4 z m 8,0 h 4 v 4 h -4 z m 8,0 h 4 v 4 h -4 z m 4,0 h 4 v 4 h -4 z m 4,0 h 4 v 4 h -4 z m 8,0 h 4 v 4 h -4 z M 16,28 h 4 v 4 h -4 z m 8,0 h 4 v 4 h -4 z m 4,0 h 4 v 4 h -4 z m 4,0 h 4 v 4 h -4 z m 8,0 h 4 v 4 h -4 z m 8,0 h 4 v 4 h -4 z m 4,0 h 4 v 4 h -4 z m 8,0 h 4 v 4 h -4 z m 8,0 h 4 v 4 h -4 z m 4,0 h 4 v 4 h -4 z m 12,0 h 4 v 4 h -4 z m 4,0 h 4 v 4 h -4 z m 4,0 h 4 v 4 h -4 z m 12,0 h 4 v 4 h -4 z m 8,0 h 4 v 4 h -4 z m 4,0 h 4 v 4 h -4 z m 4,0 h 4 v 4 h -4 z m 8,0 h 4 v 4 h -4 z M 16,32 h 4 v 4 h -4 z m 8,0 h 4 v 4 h -4 z m 4,0 h 4 v 4 h -4 z m 4,0 h 4 v 4 h -4 z m 8,0 h 4 v 4 h -4 z m 8,0 h 4 v 4 h -4 z m 4,0 h 4 v 4 h -4 z m 4,0 h 4 v 4 h -4 z m 4,0 h 4 v 4 h -4 z m 8,0 h 4 v 4 h -4 z m 4,0 h 4 v 4 h -4 z m 8,0 h 4 v 4 h -4 z m 12,0 h 4 v 4 h -4 z m 12,0 h 4 v 4 h -4 z m 8,0 h 4 v 4 h -4 z m 4,0 h 4 v 4 h -4 z m 4,0 h 4 v 4 h -4 z m 8,0 h 4 v 4 h -4 z M 16,36 h 4 v 4 h -4 z m 24,0 h 4 v 4 h -4 z m 12,0 h 4 v 4 h -4 z m 12,0 h 4 v 4 h -4 z m 4,0 h 4 v 4 h -4 z m 16,0 h 4 v 4 h -4 z m 4,0 h 4 v 4 h -4 z m 4,0 h 4 v 4 h -4 z m 4,0 h 4 v 4 h -4 z m 8,0 h 4 v 4 h -4 z m 24,0 h 4 v 4 h -4 z M 16,40 h 4 v 4 h -4 z m 4,0 h 4 v 4 h -4 z m 4,0 h 4 v 4 h -4 z m 4,0 h 4 v 4 h -4 z m 4,0 h 4 v 4 h -4 z m 4,0 h 4 v 4 h -4 z m 4,0 h 4 v 4 h -4 z m 8,0 h 4 v 4 h -4 z m 8,0 h 4 v 4 h -4 z m 8,0 h 4 v 4 h -4 z m 8,0 h 4 v 4 h -4 z m 8,0 h 4 v 4 h -4 z m 8,0 h 4 v 4 h -4 z m 8,0 h 4 v 4 h -4 z m 8,0 h 4 v 4 h -4 z m 4,0 h 4 v 4 h -4 z m 4,0 h 4 v 4 h -4 z m 4,0 h 4 v 4 h -4 z m 4,0 h 4 v 4 h -4 z m 4,0 h 4 v 4 h -4 z m 4,0 h 4 v 4 h -4 z m -76,4 h 4 v 4 h -4 z m 8,0 h 4 v 4 h -4 z m 20,0 h 4 v 4 h -4 z m 4,0 h 4 v 4 h -4 z m 4,0 h 4 v 4 h -4 z m 4,0 h 4 v 4 h -4 z m 4,0 h 4 v 4 h -4 z m -80,4 h 4 v 4 h -4 z m 4,0 h 4 v 4 h -4 z m 4,0 h 4 v 4 h -4 z m 4,0 h 4 v 4 h -4 z m 12,0 h 4 v 4 h -4 z m 8,0 h 4 v 4 h -4 z m 20,0 h 4 v 4 h -4 z m 4,0 h 4 v 4 h -4 z m 4,0 h 4 v 4 h -4 z m 4,0 h 4 v 4 h -4 z m 4,0 h 4 v 4 h -4 z m 4,0 h 4 v 4 h -4 z m 4,0 h 4 v 4 h -4 z m 8,0 h 4 v 4 h -4 z m 12,0 h 4 v 4 h -4 z m 4,0 h 4 v 4 h -4 z m 4,0 h 4 v 4 h -4 z m 8,0 h 4 v 4 h -4 z M 20,52 h 4 v 4 h -4 z m 12,0 h 4 v 4 h -4 z m 20,0 h 4 v 4 h -4 z m 16,0 h 4 v 4 h -4 z m 24,0 h 4 v 4 h -4 z m 4,0 h 4 v 4 h -4 z m 8,0 h 4 v 4 h -4 z m 4,0 h 4 v 4 h -4 z m 4,0 h 4 v 4 h -4 z m 16,0 h 4 v 4 h -4 z M 16,56 h 4 v 4 h -4 z m 12,0 h 4 v 4 h -4 z m 12,0 h 4 v 4 h -4 z m 40,0 h 4 v 4 h -4 z m 8,0 h 4 v 4 h -4 z m 8,0 h 4 v 4 h -4 z m 8,0 h 4 v 4 h -4 z m 4,0 h 4 v 4 h -4 z m 4,0 h 4 v 4 h -4 z m 8,0 h 4 v 4 h -4 z m 4,0 h 4 v 4 h -4 z M 24,60 h 4 v 4 h -4 z m 20,0 h 4 v 4 h -4 z m 16,0 h 4 v 4 h -4 z m 4,0 h 4 v 4 h -4 z m 4,0 h 4 v 4 h -4 z m 4,0 h 4 v 4 h -4 z m 4,0 h 4 v 4 h -4 z m 12,0 h 4 v 4 h -4 z m 8,0 h 4 v 4 h -4 z m 4,0 h 4 v 4 h -4 z m 4,0 h 4 v 4 h -4 z m 4,0 h 4 v 4 h -4 z m 4,0 h 4 v 4 h -4 z m 16,0 h 4 v 4 h -4 z M 28,64 h 4 v 4 h -4 z m 8,0 h 4 v 4 h -4 z m 4,0 h 4 v 4 h -4 z m 8,0 h 4 v 4 h -4 z m 4,0 h 4 v 4 h -4 z m 8,0 h 4 v 4 h -4 z m 8,0 h 4 v 4 h -4 z m 8,0 h 4 v 4 h -4 z m 4,0 h 4 v 4 h -4 z m 4,0 h 4 v 4 h -4 z m 8,0 h 4 v 4 h -4 z m 24,0 h 4 v 4 h -4 z m 4,0 h 4 v 4 h -4 z M 16,68 h 4 v 4 h -4 z m 4,0 h 4 v 4 h -4 z m 8,0 h 4 v 4 h -4 z m 4,0 h 4 v 4 h -4 z m 12,0 h 4 v 4 h -4 z m 8,0 h 4 v 4 h -4 z m 4,0 h 4 v 4 h -4 z m 4,0 h 4 v 4 h -4 z m 20,0 h 4 v 4 h -4 z m 4,0 h 4 v 4 h -4 z m 8,0 h 4 v 4 h -4 z m 4,0 h 4 v 4 h -4 z m 8,0 h 4 v 4 h -4 z m 4,0 h 4 v 4 h -4 z m 12,0 h 4 v 4 h -4 z m 4,0 h 4 v 4 h -4 z m 4,0 h 4 v 4 h -4 z M 24,72 h 4 v 4 h -4 z m 4,0 h 4 v 4 h -4 z m 4,0 h 4 v 4 h -4 z m 4,0 h 4 v 4 h -4 z m 4,0 h 4 v 4 h -4 z m 4,0 h 4 v 4 h -4 z m 8,0 h 4 v 4 h -4 z m 12,0 h 4 v 4 h -4 z m 8,0 h 4 v 4 h -4 z m 20,0 h 4 v 4 h -4 z m 4,0 h 4 v 4 h -4 z m 4,0 h 4 v 4 h -4 z m 8,0 h 4 v 4 h -4 z m 4,0 h 4 v 4 h -4 z m 8,0 h 4 v 4 h -4 z m 4,0 h 4 v 4 h -4 z m 4,0 h 4 v 4 h -4 z M 16,76 h 4 v 4 h -4 z m 4,0 h 4 v 4 h -4 z m 16,0 h 4 v 4 h -4 z m 12,0 h 4 v 4 h -4 z m 4,0 h 4 v 4 h -4 z m 4,0 h 4 v 4 h -4 z m 8,0 h 4 v 4 h -4 z m 8,0 h 4 v 4 h -4 z m 24,0 h 4 v 4 h -4 z m 8,0 h 4 v 4 h -4 z m 4,0 h 4 v 4 h -4 z m 4,0 h 4 v 4 h -4 z m 12,0 h 4 v 4 h -4 z M 20,80 h 4 v 4 h -4 z m 4,0 h 4 v 4 h -4 z m 16,0 h 4 v 4 h -4 z m 8,0 h 4 v 4 h -4 z m 12,0 h 4 v 4 h -4 z m 8,0 h 4 v 4 h -4 z m 4,0 h 4 v 4 h -4 z m 8,0 h 4 v 4 h -4 z m 8,0 h 4 v 4 h -4 z m 8,0 h 4 v 4 h -4 z m 4,0 h 4 v 4 h -4 z m 12,0 h 4 v 4 h -4 z m 4,0 h 4 v 4 h -4 z m 8,0 h 4 v 4 h -4 z M 20,84 h 4 v 4 h -4 z m 4,0 h 4 v 4 h -4 z m 4,0 h 4 v 4 h -4 z m 4,0 h 4 v 4 h -4 z m 16,0 h 4 v 4 h -4 z m 4,0 h 4 v 4 h -4 z m 4,0 h 4 v 4 h -4 z m 8,0 h 4 v 4 h -4 z m 4,0 h 4 v 4 h -4 z m 4,0 h 4 v 4 h -4 z m 16,0 h 4 v 4 h -4 z m 8,0 h 4 v 4 h -4 z m 4,0 h 4 v 4 h -4 z m 8,0 h 4 v 4 h -4 z m 8,0 h 4 v 4 h -4 z m 4,0 h 4 v 4 h -4 z m 4,0 h 4 v 4 h -4 z M 16,88 h 4 v 4 h -4 z m 8,0 h 4 v 4 h -4 z m 8,0 h 4 v 4 h -4 z m 8,0 h 4 v 4 h -4 z m 12,0 h 4 v 4 h -4 z m 8,0 h 4 v 4 h -4 z m 4,0 h 4 v 4 h -4 z m 4,0 h 4 v 4 h -4 z m 8,0 h 4 v 4 h -4 z m 4,0 h 4 v 4 h -4 z m 28,0 h 4 v 4 h -4 z m 12,0 h 4 v 4 h -4 z m -96,4 h 4 v 4 h -4 z m 4,0 h 4 v 4 h -4 z m 16,0 h 4 v 4 h -4 z m 4,0 h 4 v 4 h -4 z m 16,0 h 4 v 4 h -4 z m 8,0 h 4 v 4 h -4 z m 8,0 h 4 v 4 h -4 z m 4,0 h 4 v 4 h -4 z m 8,0 h 4 v 4 h -4 z m 4,0 h 4 v 4 h -4 z m 4,0 h 4 v 4 h -4 z m 20,0 h 4 v 4 h -4 z M 20,96 h 4 v 4 h -4 z m 12,0 h 4 v 4 h -4 z m 4,0 h 4 v 4 h -4 z m 4,0 h 4 v 4 h -4 z m 8,0 h 4 v 4 h -4 z m 4,0 h 4 v 4 h -4 z m 8,0 h 4 v 4 h -4 z m 4,0 h 4 v 4 h -4 z m 12,0 h 4 v 4 h -4 z m 8,0 h 4 v 4 h -4 z m 4,0 h 4 v 4 h -4 z m 4,0 h 4 v 4 h -4 z m 4,0 h 4 v 4 h -4 z m 4,0 h 4 v 4 h -4 z m 4,0 h 4 v 4 h -4 z m 4,0 h 4 v 4 h -4 z m 4,0 h 4 v 4 h -4 z m 4,0 h 4 v 4 h -4 z m 4,0 h 4 v 4 h -4 z m -72,4 h 4 v 4 h -4 z m 8,0 h 4 v 4 h -4 z m 8,0 h 4 v 4 h -4 z m 8,0 h 4 v 4 h -4 z m 16,0 h 4 v 4 h -4 z m 8,0 h 4 v 4 h -4 z m 16,0 h 4 v 4 h -4 z m 4,0 h 4 v 4 h -4 z m 4,0 h 4 v 4 h -4 z m 4,0 h 4 v 4 h -4 z m 4,0 h 4 v 4 h -4 z m -112,4 h 4 v 4 h -4 z m 4,0 h 4 v 4 h -4 z m 4,0 h 4 v 4 h -4 z m 4,0 h 4 v 4 h -4 z m 4,0 h 4 v 4 h -4 z m 4,0 h 4 v 4 h -4 z m 4,0 h 4 v 4 h -4 z m 12,0 h 4 v 4 h -4 z m 8,0 h 4 v 4 h -4 z m 4,0 h 4 v 4 h -4 z m 4,0 h 4 v 4 h -4 z m 24,0 h 4 v 4 h -4 z m 4,0 h 4 v 4 h -4 z m 8,0 h 4 v 4 h -4 z m 8,0 h 4 v 4 h -4 z m 4,0 h 4 v 4 h -4 z m 8,0 h 4 v 4 h -4 z m -108,4 h 4 v 4 h -4 z m 24,0 h 4 v 4 h -4 z m 12,0 h 4 v 4 h -4 z m 4,0 h 4 v 4 h -4 z m 12,0 h 4 v 4 h -4 z m 8,0 h 4 v 4 h -4 z m 12,0 h 4 v 4 h -4 z m 8,0 h 4 v 4 h -4 z m 16,0 h 4 v 4 h -4 z m 4,0 h 4 v 4 h -4 z m 8,0 h 4 v 4 h -4 z m -108,4 h 4 v 4 h -4 z m 8,0 h 4 v 4 h -4 z m 4,0 h 4 v 4 h -4 z m 4,0 h 4 v 4 h -4 z m 8,0 h 4 v 4 h -4 z m 12,0 h 4 v 4 h -4 z m 12,0 h 4 v 4 h -4 z m 8,0 h 4 v 4 h -4 z m 4,0 h 4 v 4 h -4 z m 4,0 h 4 v 4 h -4 z m 4,0 h 4 v 4 h -4 z m 12,0 h 4 v 4 h -4 z m 4,0 h 4 v 4 h -4 z m 4,0 h 4 v 4 h -4 z m 4,0 h 4 v 4 h -4 z m 4,0 h 4 v 4 h -4 z m 8,0 h 4 v 4 h -4 z m 4,0 h 4 v 4 h -4 z m 4,0 h 4 v 4 h -4 z m -112,4 h 4 v 4 h -4 z m 8,0 h 4 v 4 h -4 z m 4,0 h 4 v 4 h -4 z m 4,0 h 4 v 4 h -4 z m 8,0 h 4 v 4 h -4 z m 8,0 h 4 v 4 h -4 z m 4,0 h 4 v 4 h -4 z m 8,0 h 4 v 4 h -4 z m 4,0 h 4 v 4 h -4 z m 12,0 h 4 v 4 h -4 z m 4,0 h 4 v 4 h -4 z m 12,0 h 4 v 4 h -4 z m 4,0 h 4 v 4 h -4 z m 4,0 h 4 v 4 h -4 z m 12,0 h 4 v 4 h -4 z m 4,0 h 4 v 4 h -4 z m 12,0 h 4 v 4 h -4 z m -112,4 h 4 v 4 h -4 z m 8,0 h 4 v 4 h -4 z m 4,0 h 4 v 4 h -4 z m 4,0 h 4 v 4 h -4 z m 8,0 h 4 v 4 h -4 z m 8,0 h 4 v 4 h -4 z m 4,0 h 4 v 4 h -4 z m 8,0 h 4 v 4 h -4 z m 8,0 h 4 v 4 h -4 z m 4,0 h 4 v 4 h -4 z m 28,0 h 4 v 4 h -4 z m 8,0 h 4 v 4 h -4 z m 12,0 h 4 v 4 h -4 z m 8,0 h 4 v 4 h -4 z m -112,4 h 4 v 4 h -4 z m 24,0 h 4 v 4 h -4 z m 8,0 h 4 v 4 h -4 z m 4,0 h 4 v 4 h -4 z m 4,0 h 4 v 4 h -4 z m 4,0 h 4 v 4 h -4 z m 12,0 h 4 v 4 h -4 z m 8,0 h 4 v 4 h -4 z m 8,0 h 4 v 4 h -4 z m 4,0 h 4 v 4 h -4 z m 4,0 h 4 v 4 h -4 z m 12,0 h 4 v 4 h -4 z m 8,0 h 4 v 4 h -4 z m 8,0 h 4 v 4 h -4 z m -108,4 h 4 v 4 h -4 z m 4,0 h 4 v 4 h -4 z m 4,0 h 4 v 4 h -4 z m 4,0 h 4 v 4 h -4 z m 4,0 h 4 v 4 h -4 z m 4,0 h 4 v 4 h -4 z m 4,0 h 4 v 4 h -4 z m 8,0 h 4 v 4 h -4 z m 4,0 h 4 v 4 h -4 z m 20,0 h 4 v 4 h -4 z m 4,0 h 4 v 4 h -4 z m 4,0 h 4 v 4 h -4 z m 12,0 h 4 v 4 h -4 z m 4,0 h 4 v 4 h -4 z m 20,0 h 4 v 4 h -4 z m 8,0 h 4 v 4 h -4 z"
         id="path13"
         style="stroke-width:0.770832" /></g></g></svg>
