<?xml version="1.0" encoding="UTF-8" standalone="no"?>
<!-- Created with Inkscape (http://www.inkscape.org/) -->

<svg
   width="2in"
   height="2in"
   viewBox="0 0 50.8 50.799999"
   version="1.1"
   id="svg1"
   inkscape:version="1.4.2 (f4327f4, 2025-05-13)"
   sodipodi:docname="smectites.svg"
   xml:space="preserve"
   xmlns:inkscape="http://www.inkscape.org/namespaces/inkscape"
   xmlns:sodipodi="http://sodipodi.sourceforge.net/DTD/sodipodi-0.dtd"
   xmlns:xlink="http://www.w3.org/1999/xlink"
   xmlns="http://www.w3.org/2000/svg"
   xmlns:svg="http://www.w3.org/2000/svg"><sodipodi:namedview
     id="namedview1"
     pagecolor="#ffffff"
     bordercolor="#111111"
     borderopacity="1"
     inkscape:showpageshadow="0"
     inkscape:pageopacity="0"
     inkscape:pagecheckerboard="1"
     inkscape:deskcolor="#d1d1d1"
     inkscape:document-units="mm"
     inkscape:zoom="3.0574074"
     inkscape:cx="33.361599"
     inkscape:cy="95.015143"
     inkscape:window-width="1920"
     inkscape:window-height="1009"
     inkscape:window-x="-8"
     inkscape:window-y="-3"
     inkscape:window-maximized="1"
     inkscape:current-layer="layer1" /><defs
     id="defs1"><pattern
       inkscape:collect="always"
       xlink:href="#shading27"
       preserveAspectRatio="xMidYMid"
       id="pattern20"
       patternTransform="matrix(0,-0.2,0.2,0,205.95316,1751.3205)"
       x="-65"
       y="0" /><clipPath
       clipPathUnits="userSpaceOnUse"
       id="clipPath19"><path
         id="path19"
         style="stroke-width:0.1;stroke-linecap:square;paint-order:markers fill stroke;stop-color:#000000"
         d="m -880.82767,-187.29769 h 1640.84 v 73.28155 h -1640.84 z" /></clipPath><pattern
       patternUnits="userSpaceOnUse"
       width="565.45114"
       height="25.387499"
       patternTransform="translate(205.95316,1751.3205)"
       preserveAspectRatio="xMidYMid"
       id="shading27"
       style="fill:#008080"
       inkscape:label="Circle halftones shading"
       inkscape:collect="always"
       inkscape:isstock="true"><path
         id="use31"
         style="stroke-width:0.487199;stroke-linecap:square;paint-order:markers fill stroke;stop-color:#000000"
         d="m 760.01231,-187.29796 c 0,0.51981 -0.42139,0.9412 -0.9412,0.9412 -0.51981,0 -0.9412,-0.42139 -0.9412,-0.9412 0,-0.51981 0.42139,-0.9412 0.9412,-0.9412 0.51981,0 0.9412,0.42139 0.9412,0.9412 z m -38.03378,0 c 0,0.89093 -0.72224,1.61318 -1.61318,1.61318 -0.89093,0 -1.61318,-0.72225 -1.61318,-1.61318 0,-0.89093 0.72225,-1.61318 1.61318,-1.61318 0.89094,0 1.61318,0.72225 1.61318,1.61318 z m -38.03377,0 c 0,1.26206 -1.02311,2.28516 -2.28516,2.28516 -1.26206,0 -2.28516,-1.0231 -2.28516,-2.28516 0,-1.26206 1.0231,-2.28516 2.28516,-2.28516 1.26205,0 2.28516,1.0231 2.28516,2.28516 z m -38.03378,0 c 0,1.63318 -1.32396,2.95714 -2.95714,2.95714 -1.63319,0 -2.95714,-1.32396 -2.95714,-2.95714 0,-1.63318 1.32396,-2.95714 2.95714,-2.95714 1.63318,0 2.95714,1.32396 2.95714,2.95714 z m -38.03378,0 c 0,2.00431 -1.62481,3.62912 -3.62912,3.62912 -2.00431,0 -3.62912,-1.62481 -3.62912,-3.62912 0,-2.00431 1.62481,-3.62912 3.62912,-3.62912 2.00431,0 3.62912,1.62481 3.62912,3.62912 z m -38.03378,0 c 0,2.37543 -1.92566,4.3011 -4.3011,4.3011 -2.37543,0 -4.3011,-1.92567 -4.3011,-4.3011 0,-2.37543 1.92567,-4.3011 4.3011,-4.3011 2.37544,0 4.3011,1.92567 4.3011,4.3011 z m -38.03377,0 c 0,2.74656 -2.22653,4.97308 -4.97308,4.97308 -2.74656,0 -4.97308,-2.22652 -4.97308,-4.97308 0,-2.74655 2.22652,-4.97308 4.97308,-4.97308 2.74655,0 4.97308,2.22653 4.97308,4.97308 z m -38.03378,0 c 0,3.11768 -2.52738,5.64506 -5.64506,5.64506 -3.11768,0 -5.64506,-2.52738 -5.64506,-5.64506 0,-3.11768 2.52738,-5.64506 5.64506,-5.64506 3.11768,0 5.64506,2.52738 5.64506,5.64506 z m -38.03378,0 c 0,3.48881 -2.82823,6.31704 -6.31704,6.31704 -3.4888,0 -6.31704,-2.82823 -6.31704,-6.31704 0,-3.4888 2.82824,-6.31704 6.31704,-6.31704 3.48881,0 6.31704,2.82824 6.31704,6.31704 z m -38.03378,0 c 0,3.85993 -3.12908,6.98902 -6.98902,6.98902 -3.85993,0 -6.98902,-3.12909 -6.98902,-6.98902 0,-3.85993 3.1291,-6.98902 6.98902,-6.98902 3.85993,0 6.98902,3.12909 6.98902,6.98902 z m -38.03377,0 c 0,4.23106 -3.42995,7.661 -7.661,7.661 -4.23106,0 -7.661,-3.42994 -7.661,-7.661 0,-4.23105 3.42994,-7.661 7.661,-7.661 4.23105,0 7.661,3.42995 7.661,7.661 z m -38.03378,0 c 0,4.60218 -3.7308,8.33298 -8.33298,8.33298 -4.60218,0 -8.33298,-3.7308 -8.33298,-8.33298 0,-4.60218 3.7308,-8.33298 8.33298,-8.33298 4.60218,0 8.33298,3.7308 8.33298,8.33298 z m -38.03378,0 c 0,4.97331 -4.03165,9.00496 -9.00496,9.00496 -4.9733,0 -9.00496,-4.03165 -9.00496,-9.00496 0,-4.9733 4.03166,-9.00496 9.00496,-9.00496 4.9733,0 9.00496,4.03166 9.00496,9.00496 z m -38.03377,0 c 0,5.34443 -4.33252,9.67694 -9.67694,9.67694 -5.34443,0 -9.67694,-4.33251 -9.67694,-9.67694 0,-5.34442 4.33251,-9.67694 9.67694,-9.67694 5.34442,0 9.67694,4.33252 9.67694,9.67694 z m -38.03378,0 c 0,5.71555 -4.63337,10.34893 -10.34892,10.34893 -5.71555,0 -10.34892,-4.63338 -10.34892,-10.34893 0,-5.71555 4.63337,-10.34892 10.34892,-10.34892 5.71555,0 10.34892,4.63337 10.34892,10.34892 z m -38.03378,0 c 0,6.08668 -4.93422,11.02091 -11.0209,11.02091 -6.08668,0 -11.0209,-4.93423 -11.0209,-11.02091 0,-6.08667 4.93423,-11.0209 11.0209,-11.0209 6.08667,0 11.0209,4.93423 11.0209,11.0209 z m -38.03378,0 c 0,6.4578 -5.23507,11.69289 -11.69288,11.69289 -6.4578,0 -11.69288,-5.23509 -11.69288,-11.69289 0,-6.4578 5.23509,-11.69288 11.69288,-11.69288 6.4578,0 11.69288,5.23508 11.69288,11.69288 z m -38.03377,0 c 0,6.82893 -5.53594,12.36487 -12.36486,12.36487 -6.82893,0 -12.364863,-5.53594 -12.364863,-12.36487 0,-6.82892 5.535937,-12.36486 12.364863,-12.36486 6.82892,0 12.36486,5.53594 12.36486,12.36486 z m -38.033781,0 c 0,7.20005 -5.836789,13.03685 -13.036839,13.03685 -7.200051,0 -13.036841,-5.8368 -13.03684,-13.03685 -1e-6,-7.20004 5.836793,-13.03684 13.03684,-13.03684 7.200046,0 13.036839,5.8368 13.036839,13.03684 z m -38.033777,0 c 0,7.57118 -6.137644,13.70883 -13.70882,13.70883 -7.571175,0 -13.7088198,-6.13765 -13.7088197,-13.70883 -10e-8,-7.57117 6.1376487,-13.70882 13.7088197,-13.70882 7.571171,0 13.70882,6.13765 13.70882,13.70882 z m -38.033777,0 c 0,7.9423 -6.4385,14.38081 -14.3808,14.38081 -7.9423,0 -14.3808,-6.43851 -14.3808,-14.38081 0,-7.94229 6.438505,-14.3808 14.3808,-14.3808 7.942295,0 14.3808,6.43851 14.3808,14.3808 z m -38.033777,0 c 0,8.31343 -6.739356,15.05279 -15.05278,15.05279 -8.313425,0 -15.05278,-6.73936 -15.05278,-15.05279 0,-8.31342 6.73936,-15.05278 15.05278,-15.05278 8.313419,0 15.05278,6.73936 15.05278,15.05278 z m -38.033778,0 c 0,8.68455 -7.040211,15.72477 -15.72476,15.72477 -8.68455,0 -15.72476,-7.04022 -15.72476,-15.72477 0,-8.68454 7.04022,-15.72476 15.72476,-15.72476 8.684544,0 15.72476,7.04022 15.72476,15.72476 z m -38.03378,0 c 0,9.05568 -7.34106,16.39675 -16.39674,16.39675 -9.05567,0 -16.39674,-7.34107 -16.39674,-16.39675 0,-9.05566 7.34108,-16.39674 16.39674,-16.39674 9.05567,0 16.39674,7.34108 16.39674,16.39674 z m -38.03377,0 c 0,9.4268 -7.64193,17.06873 -17.06872,17.06873 -9.4268,0 -17.06872,-7.64193 -17.06872,-17.06873 0,-9.42679 7.64192,-17.06872 17.06872,-17.06872 9.42679,0 17.06872,7.64193 17.06872,17.06872 z m -38.03378,0 c 0,9.79793 -7.94278,17.74071 -17.7407,17.74071 -9.79792,0 -17.7407,-7.94278 -17.7407,-17.74071 0,-9.79791 7.94278,-17.7407 17.7407,-17.7407 9.79791,0 17.7407,7.94279 17.7407,17.7407 z m -38.03378,0 c 0,10.16905 -8.24363,18.41269 -18.41268,18.41269 -10.16905,0 -18.41268,-8.24364 -18.41268,-18.41269 0,-10.16904 8.24364,-18.41268 18.41268,-18.41268 10.16904,0 18.41268,8.24364 18.41268,18.41268 z m -38.03378,0 c 0,10.54017 -8.54448,19.08467 -19.08466,19.08467 -10.54017,0 -19.08466,-8.5445 -19.08466,-19.08467 0,-10.54016 8.5445,-19.08466 19.08466,-19.08466 10.54017,0 19.08466,8.5445 19.08466,19.08466 z m -38.03377,0 c 0,10.9113 -8.84535,19.75665 -19.75664,19.75665 -10.9113,0 -19.75664,-8.84535 -19.75664,-19.75665 0,-10.91129 8.84535,-19.75664 19.75664,-19.75664 10.91129,0 19.75664,8.84535 19.75664,19.75664 z m -38.03378,0 c 0,11.28242 -9.1462,20.42863 -20.42862,20.42863 -11.28242,0 -20.42862,-9.14621 -20.42862,-20.42863 0,-11.28241 9.14621,-20.42862 20.42862,-20.42862 11.28241,0 20.42862,9.14621 20.42862,20.42862 z m -38.03378,0 c 0,11.65355 -9.44705,21.10061 -21.1006,21.10061 -11.65354,0 -21.1006,-9.44706 -21.1006,-21.10061 0,-11.65353 9.44706,-21.1006 21.1006,-21.1006 11.65354,0 21.1006,9.44707 21.1006,21.1006 z m -38.03377,0 c 0,12.02467 -9.74792,21.77259 -21.77258,21.77259 -12.02467,0 -21.77258,-9.74792 -21.77258,-21.77259 0,-12.02466 9.74791,-21.77258 21.77258,-21.77258 12.02466,0 21.77258,9.74792 21.77258,21.77258 z m -38.03378,0 c 0,12.3958 -10.04877,22.44457 -22.44456,22.44457 -12.3958,0 -22.44456,-10.04877 -22.44456,-22.44457 0,-12.39578 10.04877,-22.44456 22.44456,-22.44456 12.39578,0 22.44456,10.04878 22.44456,22.44456 z m -38.03378,0 c 0,12.76692 -10.34962,23.11655 -23.11654,23.11655 -12.76692,0 -23.11654,-10.34963 -23.11654,-23.11655 0,-12.76691 10.34963,-23.11654 23.11654,-23.11654 12.76691,0 23.11654,10.34963 23.11654,23.11654 z m -38.03378,0 c 0,13.13805 -10.65047,23.78853 -23.78852,23.78853 -13.13804,0 -23.78852,-10.65048 -23.78852,-23.78853 0,-13.13803 10.65049,-23.78852 23.78852,-23.78852 13.13804,0 23.78852,10.65049 23.78852,23.78852 z m -38.03377,0 c 0,13.50917 -10.95134,24.46051 -24.4605,24.46051 -13.50917,0 -24.4605,-10.95134 -24.4605,-24.46051 0,-13.50915 10.95134,-24.4605 24.4605,-24.4605 13.50915,0 24.4605,10.95135 24.4605,24.4605 z m -38.03378,0 c 0,13.8803 -11.25219,25.13249 -25.13248,25.13249 -13.88029,0 -25.13248,-11.25219 -25.13248,-25.13249 0,-13.88028 11.2522,-25.13248 25.13248,-25.13248 13.88028,0 25.13248,11.2522 25.13248,25.13248 z m -38.03378,0 c 0,14.25142 -11.55304,25.80447 -25.80446,25.80447 -14.25141,0 -25.80446,-11.55305 -25.80446,-25.80447 0,-14.2514 11.55305,-25.80446 25.80446,-25.80446 14.25141,0 25.80446,11.55306 25.80446,25.80446 z m -38.03378,0 c 0,14.62255 -11.85389,26.47645 -26.47644,26.47645 -14.62254,0 -26.47644,-11.8539 -26.47644,-26.47645 0,-14.62253 11.85391,-26.47644 26.47644,-26.47644 14.62254,0 26.47644,11.85391 26.47644,26.47644 z m -38.03377,0 c 0,14.99367 -12.15476,27.14843 -27.14842,27.14843 -14.99367,0 -27.14842,-12.15476 -27.14842,-27.14843 0,-14.99365 12.15476,-27.14842 27.14842,-27.14842 14.99365,0 27.14842,12.15477 27.14842,27.14842 z m -38.03378,1e-5 c 0,15.36479 -12.45561,27.82041 -27.8204,27.82041 -15.36479,0 -27.8204,-12.45562 -27.8204,-27.82041 0,-15.36478 12.45562,-27.8204 27.8204,-27.8204 15.36478,0 27.8204,12.45562 27.8204,27.8204 z m 1466.15637,36.6408 c 0,0.51981 -0.42139,0.9412 -0.9412,0.9412 -0.51981,0 -0.9412,-0.42139 -0.9412,-0.9412 0,-0.51981 0.42139,-0.9412 0.9412,-0.9412 0.51981,0 0.9412,0.42139 0.9412,0.9412 z m -38.03377,0 c 0,0.89093 -0.72225,1.61318 -1.61318,1.61318 -0.89094,0 -1.61318,-0.72225 -1.61318,-1.61318 0,-0.89093 0.72224,-1.61318 1.61318,-1.61318 0.89093,0 1.61318,0.72225 1.61318,1.61318 z m -38.03378,0 c 0,1.26206 -1.0231,2.28516 -2.28516,2.28516 -1.26206,0 -2.28516,-1.0231 -2.28516,-2.28516 0,-1.26206 1.0231,-2.28516 2.28516,-2.28516 1.26206,0 2.28516,1.0231 2.28516,2.28516 z m -38.03378,0 c 0,1.63318 -1.32395,2.95714 -2.95714,2.95714 -1.63318,0 -2.95714,-1.32396 -2.95714,-2.95714 0,-1.63318 1.32396,-2.95714 2.95714,-2.95714 1.63318,0 2.95714,1.32396 2.95714,2.95714 z m -38.03378,0 c 0,2.00431 -1.62481,3.62912 -3.62912,3.62912 -2.0043,0 -3.62912,-1.62481 -3.62912,-3.62912 0,-2.00431 1.62482,-3.62912 3.62912,-3.62912 2.00431,0 3.62912,1.62481 3.62912,3.62912 z m -38.03377,0 c 0,2.37543 -1.92567,4.3011 -4.3011,4.3011 -2.37543,0 -4.3011,-1.92567 -4.3011,-4.3011 0,-2.37543 1.92567,-4.3011 4.3011,-4.3011 2.37543,0 4.3011,1.92567 4.3011,4.3011 z m -38.03378,0 c 0,2.74656 -2.22652,4.97308 -4.97308,4.97308 -2.74656,0 -4.97308,-2.22652 -4.97308,-4.97308 0,-2.74655 2.22652,-4.97308 4.97308,-4.97308 2.74656,0 4.97308,2.22653 4.97308,4.97308 z m -38.03378,0 c 0,3.11768 -2.52738,5.64506 -5.64506,5.64506 -3.11768,0 -5.64506,-2.52738 -5.64506,-5.64506 0,-3.11768 2.52738,-5.64506 5.64506,-5.64506 3.11768,0 5.64506,2.52738 5.64506,5.64506 z m -38.03377,0 c 0,3.48881 -2.82824,6.31704 -6.31704,6.31704 -3.48881,0 -6.31704,-2.82823 -6.31704,-6.31704 0,-3.4888 2.82823,-6.31704 6.31704,-6.31704 3.4888,0 6.31704,2.82824 6.31704,6.31704 z m -38.03378,0 c 0,3.85993 -3.12909,6.98902 -6.98902,6.98902 -3.85993,0 -6.98902,-3.12909 -6.98902,-6.98902 0,-3.85993 3.12909,-6.98902 6.98902,-6.98902 3.85993,0 6.98902,3.12909 6.98902,6.98902 z m -38.03378,0 c 0,4.23106 -3.42994,7.661 -7.661,7.661 -4.23105,0 -7.661,-3.42994 -7.661,-7.661 0,-4.23105 3.42995,-7.661 7.661,-7.661 4.23105,0 7.661,3.42995 7.661,7.661 z m -38.03378,0 c 0,4.60218 -3.7308,8.33298 -8.33298,8.33298 -4.60218,0 -8.33298,-3.7308 -8.33298,-8.33298 0,-4.60218 3.73081,-8.33298 8.33298,-8.33298 4.60218,0 8.33298,3.7308 8.33298,8.33298 z m -38.03377,0 c 0,4.97331 -4.03166,9.00496 -9.00496,9.00496 -4.97331,0 -9.00496,-4.03165 -9.00496,-9.00496 0,-4.9733 4.03166,-9.00496 9.00496,-9.00496 4.9733,0 9.00496,4.03166 9.00496,9.00496 z m -38.03378,0 c 0,5.34443 -4.33251,9.67694 -9.67694,9.67694 -5.34443,0 -9.67694,-4.33251 -9.67694,-9.67694 0,-5.34442 4.33251,-9.67694 9.67694,-9.67694 5.34442,0 9.67694,4.33252 9.67694,9.67694 z m -38.03378,0 c 0,5.71555 -4.63336,10.34893 -10.34892,10.34893 -5.71555,0 -10.34892,-4.63338 -10.34892,-10.34893 0,-5.71555 4.63337,-10.34892 10.34892,-10.34892 5.71555,0 10.34892,4.63337 10.34892,10.34892 z m -38.03377,0 c 0,6.08668 -4.93423,11.02091 -11.0209,11.02091 -6.08668,0 -11.0209,-4.93423 -11.0209,-11.02091 0,-6.08667 4.93422,-11.0209 11.0209,-11.0209 6.08667,0 11.0209,4.93423 11.0209,11.0209 z m -38.033782,0 c 0,6.4578 -5.235078,11.69289 -11.69288,11.69289 -6.457802,0 -11.69288,-5.23509 -11.69288,-11.69289 0,-6.4578 5.235082,-11.69288 11.69288,-11.69288 6.457798,0 11.69288,5.23508 11.69288,11.69288 z m -38.033777,0 c 0,6.82893 -5.535934,12.36487 -12.36486,12.36487 -6.828927,0 -12.36486,-5.53594 -12.36486,-12.36487 0,-6.82892 5.535937,-12.36486 12.36486,-12.36486 6.828922,0 12.36486,5.53594 12.36486,12.36486 z m -38.033778,0 c 0,7.20005 -5.836789,13.03685 -13.0368396,13.03685 -7.20005105,0 -13.0368401,-5.8368 -13.03684,-13.03685 -1e-7,-7.20004 5.83679345,-13.03684 13.03684,-13.03684 7.2000466,0 13.0368396,5.8368 13.0368396,13.03684 z m -38.033777,0 c 0,7.57118 -6.137644,13.70883 -13.70882,13.70883 -7.571175,0 -13.70882,-6.13765 -13.70882,-13.70883 0,-7.57117 6.137649,-13.70882 13.70882,-13.70882 7.571171,0 13.70882,6.13765 13.70882,13.70882 z m -38.033777,0 c 0,7.9423 -6.4385,14.38081 -14.3808,14.38081 -7.9423,0 -14.3808,-6.43851 -14.3808,-14.38081 0,-7.94229 6.438505,-14.3808 14.3808,-14.3808 7.942295,0 14.3808,6.43851 14.3808,14.3808 z m -38.033777,0 c 0,8.31343 -6.739352,15.05279 -15.052782,15.05279 -8.31342,0 -15.05278,-6.73936 -15.05278,-15.05279 0,-8.31342 6.73936,-15.05278 15.05278,-15.05278 8.31342,0 15.052782,6.73936 15.052782,15.05278 z m -38.033782,0 c 0,8.68455 -7.04021,15.72477 -15.72476,15.72477 -8.68454,0 -15.72476,-7.04022 -15.72476,-15.72477 0,-8.68454 7.04022,-15.72476 15.72476,-15.72476 8.68455,0 15.72476,7.04022 15.72476,15.72476 z m -38.03377,0 c 0,9.05568 -7.34107,16.39675 -16.39674,16.39675 -9.05568,0 -16.39674,-7.34107 -16.39674,-16.39675 0,-9.05566 7.34107,-16.39674 16.39674,-16.39674 9.05566,0 16.39674,7.34108 16.39674,16.39674 z m -38.03378,0 c 0,9.4268 -7.64192,17.06873 -17.06872,17.06873 -9.4268,0 -17.06872,-7.64193 -17.06872,-17.06873 0,-9.42679 7.64193,-17.06872 17.06872,-17.06872 9.42679,0 17.06872,7.64193 17.06872,17.06872 z m -38.03378,0 c 0,9.79793 -7.94277,17.74071 -17.7407,17.74071 -9.79792,0 -17.7407,-7.94278 -17.7407,-17.74071 0,-9.79791 7.94279,-17.7407 17.7407,-17.7407 9.79792,0 17.7407,7.94279 17.7407,17.7407 z m -38.03377,0 c 0,10.16905 -8.24364,18.41269 -18.41268,18.41269 -10.16905,0 -18.41268,-8.24364 -18.41268,-18.41269 0,-10.16904 8.24363,-18.41268 18.41268,-18.41268 10.16904,0 18.41268,8.24364 18.41268,18.41268 z m -38.03378,0 c 0,10.54017 -8.54449,19.08467 -19.08466,19.08467 -10.54017,0 -19.08466,-8.5445 -19.08466,-19.08467 0,-10.54016 8.54449,-19.08466 19.08466,-19.08466 10.54016,0 19.08466,8.5445 19.08466,19.08466 z m -38.03378,0 c 0,10.9113 -8.84534,19.75665 -19.75664,19.75665 -10.9113,0 -19.75664,-8.84535 -19.75664,-19.75665 0,-10.91129 8.84535,-19.75664 19.75664,-19.75664 10.91129,0 19.75664,8.84535 19.75664,19.75664 z m -38.03378,0 c 0,11.28242 -9.1462,20.42863 -20.42862,20.42863 -11.28242,0 -20.42862,-9.14621 -20.42862,-20.42863 0,-11.28241 9.14621,-20.42862 20.42862,-20.42862 11.28242,0 20.42862,9.14621 20.42862,20.42862 z m -38.03377,0 c 0,11.65355 -9.44706,21.10061 -21.1006,21.10061 -11.65355,0 -21.1006,-9.44706 -21.1006,-21.10061 0,-11.65353 9.44706,-21.1006 21.1006,-21.1006 11.65353,0 21.1006,9.44707 21.1006,21.1006 z m -38.03378,0 c 0,12.02467 -9.74791,21.77259 -21.77258,21.77259 -12.02467,0 -21.77258,-9.74792 -21.77258,-21.77259 0,-12.02466 9.74792,-21.77258 21.77258,-21.77258 12.02466,0 21.77258,9.74792 21.77258,21.77258 z m -38.03378,0 c 0,12.3958 -10.04876,22.44457 -22.44456,22.44457 -12.39579,0 -22.44456,-10.04877 -22.44456,-22.44457 0,-12.39578 10.04878,-22.44456 22.44456,-22.44456 12.39579,0 22.44456,10.04878 22.44456,22.44456 z m -38.03378,0 c 0,12.76692 -10.34962,23.11655 -23.11654,23.11655 -12.76691,0 -23.11654,-10.34963 -23.11654,-23.11655 0,-12.76691 10.34963,-23.11654 23.11654,-23.11654 12.76691,0 23.11654,10.34963 23.11654,23.11654 z m -38.03377,0 c 0,13.13805 -10.65048,23.78853 -23.78852,23.78853 -13.13805,0 -23.78852,-10.65048 -23.78852,-23.78853 0,-13.13803 10.65048,-23.78852 23.78852,-23.78852 13.13803,0 23.78852,10.65049 23.78852,23.78852 z m -38.03378,0 c 0,13.50917 -10.95133,24.46051 -24.4605,24.46051 -13.50917,0 -24.4605,-10.95134 -24.4605,-24.46051 0,-13.50915 10.95134,-24.4605 24.4605,-24.4605 13.50916,0 24.4605,10.95135 24.4605,24.4605 z m -38.03378,0 c 0,13.8803 -11.25219,25.13249 -25.13248,25.13249 -13.88029,0 -25.13248,-11.25219 -25.13248,-25.13249 0,-13.88028 11.2522,-25.13248 25.13248,-25.13248 13.88029,0 25.13248,11.2522 25.13248,25.13248 z m -38.03377,0 c 0,14.25142 -11.55305,25.80447 -25.80446,25.80447 -14.25142,0 -25.80446,-11.55305 -25.80446,-25.80447 0,-14.2514 11.55305,-25.80446 25.80446,-25.80446 14.2514,0 25.80446,11.55306 25.80446,25.80446 z m -38.03378,0 c 0,14.62255 -11.8539,26.47645 -26.47644,26.47645 -14.62254,0 -26.47644,-11.8539 -26.47644,-26.47645 0,-14.62253 11.85391,-26.47644 26.47644,-26.47644 14.62253,0 26.47644,11.85391 26.47644,26.47644 z m -38.03378,0 c 0,14.99367 -12.15475,27.14843 -27.14842,27.14843 -14.99366,0 -27.14842,-12.15476 -27.14842,-27.14843 0,-14.99365 12.15477,-27.14842 27.14842,-27.14842 14.99366,0 27.14842,12.15477 27.14842,27.14842 z m -38.03378,1e-5 c 0,15.36479 -12.45561,27.82041 -27.8204,27.82041 -15.36479,0 -27.8204,-12.45562 -27.8204,-27.82041 0,-15.36478 12.45562,-27.8204 27.8204,-27.8204 15.36478,0 27.8204,12.45562 27.8204,27.8204 z m 1576.54581,36.6408 c 0,0.51981 -0.42139,0.9412 -0.9412,0.9412 -0.51981,0 -0.9412,-0.42139 -0.9412,-0.9412 0,-0.51981 0.42139,-0.9412 0.9412,-0.9412 0.51981,0 0.9412,0.42139 0.9412,0.9412 z m -38.03378,0 c 0,0.89093 -0.72224,1.61318 -1.61318,1.61318 -0.89093,0 -1.61318,-0.72225 -1.61318,-1.61318 0,-0.89093 0.72225,-1.61318 1.61318,-1.61318 0.89094,0 1.61318,0.72225 1.61318,1.61318 z m -38.03377,0 c 0,1.26206 -1.02311,2.28516 -2.28516,2.28516 -1.26206,0 -2.28516,-1.0231 -2.28516,-2.28516 0,-1.26206 1.0231,-2.28516 2.28516,-2.28516 1.26205,0 2.28516,1.0231 2.28516,2.28516 z m -38.03378,0 c 0,1.63318 -1.32396,2.95714 -2.95714,2.95714 -1.63319,0 -2.95714,-1.32396 -2.95714,-2.95714 0,-1.63318 1.32396,-2.95714 2.95714,-2.95714 1.63318,0 2.95714,1.32396 2.95714,2.95714 z m -38.03378,0 c 0,2.00431 -1.62481,3.62912 -3.62912,3.62912 -2.00431,0 -3.62912,-1.62481 -3.62912,-3.62912 0,-2.00431 1.62481,-3.62912 3.62912,-3.62912 2.00431,0 3.62912,1.62481 3.62912,3.62912 z m -38.03378,0 c 0,2.37543 -1.92566,4.3011 -4.3011,4.3011 -2.37543,0 -4.3011,-1.92567 -4.3011,-4.3011 0,-2.37543 1.92567,-4.3011 4.3011,-4.3011 2.37544,0 4.3011,1.92567 4.3011,4.3011 z m -38.03377,0 c 0,2.74656 -2.22653,4.97308 -4.97308,4.97308 -2.74656,0 -4.97308,-2.22652 -4.97308,-4.97308 0,-2.74655 2.22652,-4.97308 4.97308,-4.97308 2.74655,0 4.97308,2.22653 4.97308,4.97308 z m -38.03378,0 c 0,3.11768 -2.52738,5.64506 -5.64506,5.64506 -3.11768,0 -5.64506,-2.52738 -5.64506,-5.64506 0,-3.11768 2.52738,-5.64506 5.64506,-5.64506 3.11768,0 5.64506,2.52738 5.64506,5.64506 z m -38.03378,0 c 0,3.48881 -2.82823,6.31704 -6.31704,6.31704 -3.4888,0 -6.31704,-2.82823 -6.31704,-6.31704 0,-3.4888 2.82824,-6.31704 6.31704,-6.31704 3.48881,0 6.31704,2.82824 6.31704,6.31704 z m -38.03378,0 c 0,3.85993 -3.12908,6.98902 -6.98902,6.98902 -3.85993,0 -6.98902,-3.12909 -6.98902,-6.98902 0,-3.85993 3.1291,-6.98902 6.98902,-6.98902 3.85993,0 6.98902,3.12909 6.98902,6.98902 z m -38.03377,0 c 0,4.23106 -3.42995,7.661 -7.661,7.661 -4.23106,0 -7.661,-3.42994 -7.661,-7.661 0,-4.23105 3.42994,-7.661 7.661,-7.661 4.23105,0 7.661,3.42995 7.661,7.661 z m -38.03378,0 c 0,4.60218 -3.7308,8.33298 -8.33298,8.33298 -4.60218,0 -8.33298,-3.7308 -8.33298,-8.33298 0,-4.60218 3.7308,-8.33298 8.33298,-8.33298 4.60218,0 8.33298,3.7308 8.33298,8.33298 z m -38.03378,0 c 0,4.97331 -4.03165,9.00496 -9.00496,9.00496 -4.9733,0 -9.00496,-4.03165 -9.00496,-9.00496 0,-4.9733 4.03166,-9.00496 9.00496,-9.00496 4.9733,0 9.00496,4.03166 9.00496,9.00496 z m -38.03377,0 c 0,5.34443 -4.33252,9.67694 -9.67694,9.67694 -5.34443,0 -9.67694,-4.33251 -9.67694,-9.67694 0,-5.34442 4.33251,-9.67694 9.67694,-9.67694 5.34442,0 9.67694,4.33252 9.67694,9.67694 z m -38.03378,0 c 0,5.71555 -4.63337,10.34893 -10.34892,10.34893 -5.71555,0 -10.34892,-4.63338 -10.34892,-10.34893 0,-5.71555 4.63337,-10.34892 10.34892,-10.34892 5.71555,0 10.34892,4.63337 10.34892,10.34892 z m -38.03378,0 c 0,6.08668 -4.93422,11.02091 -11.0209,11.02091 -6.08668,0 -11.0209,-4.93423 -11.0209,-11.02091 0,-6.08667 4.93423,-11.0209 11.0209,-11.0209 6.08667,0 11.0209,4.93423 11.0209,11.0209 z m -38.03378,0 c 0,6.4578 -5.23507,11.69289 -11.69288,11.69289 -6.4578,0 -11.69288,-5.23509 -11.69288,-11.69289 0,-6.4578 5.23509,-11.69288 11.69288,-11.69288 6.4578,0 11.69288,5.23508 11.69288,11.69288 z m -38.03377,0 c 0,6.82893 -5.53594,12.36487 -12.36486,12.36487 -6.82893,0 -12.364863,-5.53594 -12.364863,-12.36487 0,-6.82892 5.535937,-12.36486 12.364863,-12.36486 6.82892,0 12.36486,5.53594 12.36486,12.36486 z m -38.033781,0 c 0,7.20005 -5.836789,13.03685 -13.036839,13.03685 -7.200051,0 -13.036841,-5.8368 -13.03684,-13.03685 -1e-6,-7.20004 5.836793,-13.03684 13.03684,-13.03684 7.200046,0 13.036839,5.8368 13.036839,13.03684 z m -38.033777,0 c 0,7.57118 -6.137644,13.70883 -13.70882,13.70883 -7.571175,0 -13.7088198,-6.13765 -13.7088197,-13.70883 -10e-8,-7.57117 6.1376487,-13.70882 13.7088197,-13.70882 7.571171,0 13.70882,6.13765 13.70882,13.70882 z m -38.033777,0 c 0,7.9423 -6.4385,14.380808 -14.3808,14.380808 -7.9423,0 -14.3808,-6.438508 -14.3808,-14.380808 0,-7.94229 6.438505,-14.3808 14.3808,-14.3808 7.942295,0 14.3808,6.43851 14.3808,14.3808 z m -38.033777,0 c 0,8.31343 -6.739356,15.052788 -15.05278,15.052788 -8.313425,0 -15.05278,-6.739358 -15.05278,-15.052788 0,-8.31342 6.73936,-15.05278 15.05278,-15.05278 8.313419,0 15.05278,6.73936 15.05278,15.05278 z m -38.033778,0 c 0,8.68455 -7.040211,15.724768 -15.72476,15.724768 -8.68455,0 -15.72476,-7.040218 -15.72476,-15.724768 0,-8.68454 7.04022,-15.72476 15.72476,-15.72476 8.684544,0 15.72476,7.04022 15.72476,15.72476 z m -38.03378,0 c 0,9.05568 -7.34106,16.396749 -16.39674,16.396749 -9.05567,0 -16.39674,-7.341069 -16.39674,-16.396749 0,-9.05566 7.34108,-16.39674 16.39674,-16.39674 9.05567,0 16.39674,7.34108 16.39674,16.39674 z m -38.03377,0 c 0,9.4268 -7.64193,17.068729 -17.06872,17.068729 -9.4268,0 -17.06872,-7.641929 -17.06872,-17.068729 0,-9.42679 7.64192,-17.06872 17.06872,-17.06872 9.42679,0 17.06872,7.64193 17.06872,17.06872 z m -38.03378,0 c 0,9.79793 -7.94278,17.740709 -17.7407,17.740709 -9.79792,0 -17.7407,-7.942779 -17.7407,-17.740709 0,-9.79791 7.94278,-17.7407 17.7407,-17.7407 9.79791,0 17.7407,7.94279 17.7407,17.7407 z m -38.03378,0 c 0,10.16905 -8.24363,18.41269 -18.41268,18.41269 -10.16905,0 -18.41268,-8.24364 -18.41268,-18.41269 0,-10.16904 8.24364,-18.41268 18.41268,-18.41268 10.16904,0 18.41268,8.24364 18.41268,18.41268 z m -38.03378,0 c 0,10.54017 -8.54448,19.08467 -19.08466,19.08467 -10.54017,0 -19.08466,-8.5445 -19.08466,-19.08467 0,-10.54016 8.5445,-19.08466 19.08466,-19.08466 10.54017,0 19.08466,8.5445 19.08466,19.08466 z m -38.03377,0 c 0,10.9113 -8.84535,19.756651 -19.75664,19.756651 -10.9113,0 -19.75664,-8.845351 -19.75664,-19.756651 0,-10.91129 8.84535,-19.75664 19.75664,-19.75664 10.91129,0 19.75664,8.84535 19.75664,19.75664 z m -38.03378,0 c 0,11.28242 -9.1462,20.428631 -20.42862,20.428631 -11.28242,0 -20.42862,-9.146211 -20.42862,-20.428631 0,-11.28241 9.14621,-20.42862 20.42862,-20.42862 11.28241,0 20.42862,9.14621 20.42862,20.42862 z m -38.03378,0 c 0,11.65355 -9.44705,21.100611 -21.1006,21.100611 -11.65354,0 -21.1006,-9.447061 -21.1006,-21.100611 0,-11.65353 9.44706,-21.1006 21.1006,-21.1006 11.65354,0 21.1006,9.44707 21.1006,21.1006 z m -38.03377,0 c 0,12.02467 -9.74792,21.772592 -21.77258,21.772592 -12.02467,0 -21.77258,-9.747922 -21.77258,-21.772592 0,-12.02466 9.74791,-21.77258 21.77258,-21.77258 12.02466,0 21.77258,9.74792 21.77258,21.77258 z m -38.03378,0 c 0,12.3958 -10.04877,22.444572 -22.44456,22.444572 -12.3958,0 -22.44456,-10.048772 -22.44456,-22.444572 0,-12.39578 10.04877,-22.44456 22.44456,-22.44456 12.39578,0 22.44456,10.04878 22.44456,22.44456 z m -38.03378,0 c 0,12.76692 -10.34962,23.116552 -23.11654,23.116552 -12.76692,0 -23.11654,-10.349632 -23.11654,-23.116552 0,-12.76691 10.34963,-23.11654 23.11654,-23.11654 12.76691,0 23.11654,10.34963 23.11654,23.11654 z m -38.03378,0 c 0,13.13805 -10.65047,23.788533 -23.78852,23.788533 -13.13804,0 -23.78852,-10.650483 -23.78852,-23.788533 0,-13.13803 10.65049,-23.78852 23.78852,-23.78852 13.13804,0 23.78852,10.65049 23.78852,23.78852 z m -38.03377,0 c 0,13.50917 -10.95134,24.460513 -24.4605,24.460513 -13.50917,0 -24.4605,-10.951343 -24.4605,-24.460513 0,-13.50915 10.95134,-24.4605 24.4605,-24.4605 13.50915,0 24.4605,10.95135 24.4605,24.4605 z m -38.03378,0 c 0,13.8803 -11.25219,25.132494 -25.13248,25.132494 -13.88029,0 -25.13248,-11.252194 -25.13248,-25.132494 0,-13.88028 11.2522,-25.13248 25.13248,-25.13248 13.88028,0 25.13248,11.2522 25.13248,25.13248 z m -38.03378,0 c 0,14.251421 -11.55304,25.804474 -25.80446,25.804474 -14.25141,0 -25.80446,-11.553053 -25.80446,-25.804474 0,-14.2514 11.55305,-25.80446 25.80446,-25.80446 14.25141,0 25.80446,11.55306 25.80446,25.80446 z m -38.03378,0 c 0,14.622546 -11.85389,26.476454 -26.47644,26.476454 -14.62254,0 -26.47644,-11.853908 -26.47644,-26.476454 0,-14.62253 11.85391,-26.47644 26.47644,-26.47644 14.62254,0 26.47644,11.85391 26.47644,26.47644 z m -38.03377,0 c 0,14.99367 -12.15476,27.148435 -27.14842,27.148435 -14.99367,0 -27.14842,-12.154765 -27.14842,-27.148435 0,-14.99365 12.15476,-27.14842 27.14842,-27.14842 14.99365,0 27.14842,12.15477 27.14842,27.14842 z m -38.03378,1e-5 c 0,15.364785 -12.45561,27.820405 -27.8204,27.820405 -15.36479,0 -27.8204,-12.45562 -27.8204,-27.820405 0,-15.36478 12.45562,-27.8204 27.8204,-27.8204 15.36478,0 27.8204,12.45562 27.8204,27.8204 z"
         sodipodi:nodetypes="ssssssssss"
         transform="matrix(0.3464378,0,0,0.3464378,302.15415,64.887)"
         clip-path="url(#clipPath52)" /></pattern><clipPath
       clipPathUnits="userSpaceOnUse"
       id="clipPath52"><path
         id="path52"
         style="stroke-width:0.1;stroke-linecap:square;paint-order:markers fill stroke;stop-color:#000000"
         d="m -880.82767,-187.29769 h 1640.84 v 73.28155 h -1640.84 z" /></clipPath><marker
       style="overflow:visible"
       id="ArrowWide"
       refX="0"
       refY="0"
       orient="auto-start-reverse"
       inkscape:stockid="Wide arrow"
       markerWidth="1"
       markerHeight="1"
       viewBox="0 0 1 1"
       inkscape:isstock="true"
       inkscape:collect="always"
       preserveAspectRatio="xMidYMid"><path
         style="fill:none;stroke:context-stroke;stroke-width:1;stroke-linecap:butt"
         d="M 3,-3 0,0 3,3"
         transform="rotate(180,0.125,0)"
         sodipodi:nodetypes="ccc"
         id="path1" /></marker><clipPath
       clipPathUnits="userSpaceOnUse"
       id="clipPath15"><rect
         style="fill:#ff0000;stroke:#000080;stroke-width:0.165;stroke-linecap:round;stroke-miterlimit:4.1;stroke-dasharray:none;paint-order:fill markers stroke"
         id="rect16"
         width="62.999992"
         height="45.69231"
         x="165.80769"
         y="70.961533"
         rx="0"
         ry="0" /></clipPath><clipPath
       clipPathUnits="userSpaceOnUse"
       id="clipPath39"><rect
         style="fill:#008080;stroke:#000080;stroke-width:0.165;stroke-linecap:round;stroke-miterlimit:4.1;stroke-dasharray:none;paint-order:fill markers stroke"
         id="rect40"
         width="446.53848"
         height="76.153847"
         x="-335.07693"
         y="-213.92307" /></clipPath><clipPath
       clipPathUnits="userSpaceOnUse"
       id="clipPath2"><rect
         style="fill:#ffffff;fill-rule:evenodd;stroke-width:0.290999"
         id="rect2"
         width="84.115379"
         height="59.192307"
         x="152.65384"
         y="-47.07692" /></clipPath><clipPath
       clipPathUnits="userSpaceOnUse"
       id="clipPath3"><rect
         style="fill:#ffffff;fill-opacity:1;fill-rule:evenodd;stroke:#0000ff;stroke-width:0.290999"
         id="rect4"
         width="414.69229"
         height="81.692299"
         x="-111.46153"
         y="-213.23074" /></clipPath></defs><g
     inkscape:label="Layer 1"
     inkscape:groupmode="layer"
     id="layer1"><text
       xml:space="preserve"
       style="font-size:2.46944px;line-height:0.95;font-family:Arial;-inkscape-font-specification:Arial;font-variant-ligatures:none;text-align:center;text-anchor:middle;stroke-width:0.264583"
       x="57.028843"
       y="5.1854877"
       id="text16"><tspan
         sodipodi:role="line"
         id="tspan16"
         style="font-size:2.46944px;stroke-width:0.264583"
         x="57.028843"
         y="5.1854877" /></text><text
       xml:space="preserve"
       style="font-size:2.46944px;line-height:0.95;font-family:Arial;-inkscape-font-specification:Arial;font-variant-ligatures:none;text-align:center;text-anchor:middle;stroke-width:0.264583"
       x="63.39484"
       y="2.6536589"
       id="text17"><tspan
         sodipodi:role="line"
         id="tspan17"
         style="font-size:2.46944px;stroke-width:0.264583"
         x="63.39484"
         y="2.6536589" /></text><text
       xml:space="preserve"
       style="font-size:3.175px;line-height:0.95;font-family:Arial;-inkscape-font-specification:Arial;font-variant-ligatures:none;text-align:center;text-anchor:middle;stroke-width:0.264583"
       x="77.133293"
       y="5.1854877"
       id="text18"><tspan
         sodipodi:role="line"
         id="tspan18"
         style="stroke-width:0.264583"
         x="77.133293"
         y="5.1854877" /></text><path
       id="rect6"
       style="fill:#c8beb7;fill-rule:evenodd;stroke:#008000;stroke-width:0.290999"
       d="M 8.5405323,15.509266 H 25.867594 l 6.037774,6.814083 H 2.5027573 Z"
       sodipodi:nodetypes="ccccc" /><rect
       style="fill:#cccccc;fill-opacity:1;fill-rule:evenodd;stroke:#008080;stroke-width:0.290999;stroke-dasharray:none;stroke-dashoffset:0"
       id="rect7"
       width="17.337696"
       height="6.8636866"
       x="8.5298996"
       y="8.6455803" /><text
       xml:space="preserve"
       style="font-weight:bold;font-stretch:condensed;font-size:5.64444px;line-height:1;font-family:Arial;-inkscape-font-specification:'Arial, Bold Condensed';text-align:start;writing-mode:lr-tb;direction:ltr;text-anchor:start;fill:#cccccc;fill-opacity:1;fill-rule:evenodd;stroke:#008080;stroke-width:0.290999;stroke-dasharray:none;stroke-dashoffset:0"
       x="2.7692306"
       y="6.4038458"
       id="text7"><tspan
         sodipodi:role="line"
         id="tspan7"
         style="stroke-width:0.291"
         x="2.7692306"
         y="6.4038458" /></text><path
       style="fill:#ff0000;fill-opacity:1;fill-rule:evenodd;stroke:#000000;stroke-width:0.290999;stroke-dasharray:none;stroke-dashoffset:0;marker-end:url(#ArrowWide)"
       d="M 36.840724,30.679886 32.470529,25.963539"
       id="path10" /><path
       id="path12"
       style="fill:#c8beb7;fill-rule:evenodd;stroke:#008000;stroke-width:0.290999"
       d="M 8.5405323,9.5589258 H 25.867594 L 31.905368,2.7448426 H 2.5027573 Z"
       sodipodi:nodetypes="ccccc" /><path
       id="path13"
       style="fill:#c8beb7;fill-rule:evenodd;stroke:#008000;stroke-width:0.290999"
       d="M 8.5405323,41.147973 H 25.867594 l 6.037774,6.814083 H 2.5027573 Z"
       sodipodi:nodetypes="ccccc" /><rect
       style="fill:#cccccc;fill-opacity:1;fill-rule:evenodd;stroke:#008080;stroke-width:0.290999;stroke-dasharray:none;stroke-dashoffset:0"
       id="rect13"
       width="17.337696"
       height="6.8636866"
       x="8.5298996"
       y="34.28429" /><path
       id="path14"
       style="fill:#c8beb7;fill-rule:evenodd;stroke:#008000;stroke-width:0.290999"
       d="M 8.5405323,35.197633 H 25.867594 L 31.905368,28.38355 H 2.5027573 Z"
       sodipodi:nodetypes="ccccc" /><text
       class="Animate"
       xml:space="preserve"
       style="font-style:normal;font-variant:normal;font-weight:normal;font-stretch:normal;font-size:3.175px;line-height:1;font-family:Arial;-inkscape-font-specification:Arial;text-align:start;writing-mode:lr-tb;direction:ltr;text-anchor:start;white-space:pre;inline-size:21.1669;display:inline;fill:#008080;fill-opacity:1;fill-rule:evenodd;stroke:none;stroke-width:0.290999;stroke-dasharray:none;stroke-dashoffset:0"
       x="40.141911"
       y="21.967903"
       id="text10"
       transform="translate(-9.5180904,12.15139)"><tspan
         x="40.141911"
         y="21.967903"
         id="tspan11"><tspan
           style="stroke-width:0.291"
           id="tspan10">Layers held </tspan></tspan><tspan
         x="40.141911"
         y="25.142902"
         id="tspan13"><tspan
           style="stroke-width:0.291"
           id="tspan12">togheter by </tspan></tspan><tspan
         x="40.141911"
         y="28.317902"
         id="tspan15"><tspan
           style="stroke-width:0.291"
           id="tspan14">van der Waals </tspan></tspan><tspan
         x="40.141911"
         y="31.492901"
         id="tspan20"><tspan
           style="stroke-width:0.291"
           id="tspan19">forces</tspan></tspan></text><path
       style="fill:url(#pattern20);fill-opacity:1;fill-rule:evenodd;stroke:#000000;stroke-width:0.290999;stroke-dasharray:none;stroke-dashoffset:0"
       d="M 2.5027573,22.323349 V 28.38355 H 31.905368 v -6.060201 z"
       id="path15" /></g></svg>
