<?xml version="1.0" encoding="UTF-8" standalone="no"?>
<!-- Created with Inkscape (http://www.inkscape.org/) -->

<svg
   width="2in"
   height="0.75735295in"
   viewBox="0 0 50.800001 19.236765"
   version="1.1"
   id="svg1"
   xml:space="preserve"
   inkscape:version="1.4 (86a8ad7, 2024-10-11)"
   sodipodi:docname="cross_load.svg"
   xmlns:inkscape="http://www.inkscape.org/namespaces/inkscape"
   xmlns:sodipodi="http://sodipodi.sourceforge.net/DTD/sodipodi-0.dtd"
   xmlns="http://www.w3.org/2000/svg"
   xmlns:svg="http://www.w3.org/2000/svg"><sodipodi:namedview
     id="namedview1"
     pagecolor="#ffffff"
     bordercolor="#111111"
     borderopacity="1"
     inkscape:showpageshadow="0"
     inkscape:pageopacity="0"
     inkscape:pagecheckerboard="1"
     inkscape:deskcolor="#d1d1d1"
     inkscape:document-units="mm"
     inkscape:zoom="3.011083"
     inkscape:cx="125.70228"
     inkscape:cy="38.358291"
     inkscape:window-width="1920"
     inkscape:window-height="1012"
     inkscape:window-x="1912"
     inkscape:window-y="-8"
     inkscape:window-maximized="1"
     inkscape:current-layer="layer1" /><defs
     id="defs1" /><g
     inkscape:label="Layer 1"
     inkscape:groupmode="layer"
     id="layer1"><path
       style="fill:#000000"
       d="m 19.143382,17.952758 c 0,-0.192602 -0.0172,-0.350184 -0.03822,-0.350184 -0.107779,0 -0.569003,0.161676 -0.735329,0.25776 l -0.189906,0.109706 0.01981,-0.134988 0.01981,-0.134988 -0.366348,-0.01373 c -0.305292,-0.01144 -0.368948,-0.02734 -0.381951,-0.09544 -0.01383,-0.07243 0.02778,-0.08171 0.366459,-0.08171 h 0.382061 l -0.01838,-0.157413 -0.01838,-0.157413 0.172156,0.113928 c 0.177107,0.117204 0.548208,0.24759 0.704683,0.24759 0.07729,0 0.08663,-0.03075 0.07429,-0.24463 L 19.120036,17.066624 11.135845,12.105498 3.1516544,7.1443714 2.1828125,7.1440607 C 1.5816322,7.143868 1.2139706,7.1263909 1.2139706,7.0980062 c 0,-0.027989 0.3760379,-0.050642 0.9688419,-0.058364 l 0.9688419,-0.01262 0.012411,-1.2956801 0.012411,-1.2956802 5.6715007,0 5.6715002,0 0.01241,1.2956802 0.01241,1.2956801 2.696416,0.012052 2.696415,0.012052 V 6.9340191 c 0,-0.072968 0.0264,-0.1171073 0.07004,-0.1171073 0.04358,0 0.07004,0.044097 0.07004,0.116728 v 0.1167279 h 1.120588 c 0.715931,0 1.120588,0.016861 1.120588,0.046691 0,0.026417 -0.133979,0.046691 -0.308554,0.046691 l -0.308555,0 0.03158,0.1284007 c 0.01737,0.07062 0.06167,0.1894092 0.09844,0.263975 0.08258,0.16742 0.08257,0.1679184 -0.0032,0.1679184 -0.06113,0 -0.07004,0.2461195 -0.07004,1.9349283 0,1.2395865 -0.01678,1.9452985 -0.04669,1.9637845 -0.03085,0.01906 -0.04669,-0.637627 -0.04669,-1.9349278 0,-1.9162543 -0.0022,-1.963785 -0.0911,-1.963785 -0.09018,0 -0.09019,-0.00201 -0.001,-0.1984375 0.179546,-0.3955503 0.534554,-0.3585492 -3.460427,-0.3606668 l -3.552552,-0.00188 0.09149,0.1520929 c 0.05032,0.083651 0.808572,1.476452 1.68501,3.0951132 1.408953,2.602142 1.609737,2.94914 1.733497,2.995854 0.159222,0.0601 0.239478,0.223114 0.183296,0.372305 -0.03055,0.08113 0.107511,0.370877 0.694655,1.457847 l 0.732785,1.356594 0.157855,0.0013 c 0.155348,0.0012 0.157422,-0.0014 0.130558,-0.16696 -0.01501,-0.09252 -0.09087,-0.304076 -0.16858,-0.470129 L 19.65888,15.63511 19.786333,15.65 l 0.127453,0.01489 0.01289,-0.712041 c 0.01219,-0.673428 0.01789,-0.71204 0.105056,-0.71204 0.0878,0 0.09217,0.03431 0.09217,0.724603 v 0.724603 l 0.122815,-0.03083 c 0.06755,-0.01695 0.113816,-0.0121 0.102816,0.01078 -0.200535,0.417212 -0.267687,0.584636 -0.292918,0.730303 l -0.03033,0.175092 h 0.422336 0.422337 v 0.863787 0.863786 H 20.007169 19.143382 Z M 20.777573,17.4625 v -0.747059 h -0.770404 -0.770405 v 0.747059 0.747059 h 0.770405 0.770404 z m -1.634191,-0.79375 c 0,-0.0695 0.03113,-0.09338 0.121723,-0.09338 0.09669,0 0.115305,-0.0168 0.09051,-0.08171 -0.05687,-0.148859 -1.295169,-2.415239 -1.349525,-2.469942 -0.02933,-0.02952 -0.118767,-0.06733 -0.198742,-0.08403 -0.161297,-0.03367 -0.259465,0.03005 -0.704638,0.457397 -0.214707,0.206108 -0.234115,0.239869 -0.166363,0.28941 0.0685,0.05009 0.06454,0.05979 -0.03709,0.09076 -0.06258,0.01907 -0.185827,0.08871 -0.273881,0.154737 -0.137255,0.102925 -0.154676,0.107148 -0.122098,0.0296 0.0209,-0.04975 0.06292,-0.195105 0.09339,-0.323008 0.0482,-0.202374 0.06192,-0.220878 0.105734,-0.142588 0.04782,0.08546 0.0562,0.08307 0.167182,-0.0476 0.06426,-0.07566 0.263656,-0.251781 0.443103,-0.391386 0.558806,-0.434734 0.6692,-0.117788 -1.313038,-3.769782 L 14.306092,7.1670957 8.9628699,7.1552238 3.6196481,7.143352 5.1599159,8.1005713 c 0.8471473,0.5264707 4.3242292,2.6890347 7.7268491,4.8056977 3.402619,2.116662 6.202339,3.850139 6.221599,3.85217 0.01926,0.002 0.03502,-0.03833 0.03502,-0.08969 z m -1.883756,-1.626195 c -0.09729,-0.107501 -0.09948,-0.329049 -0.0046,-0.464519 0.09431,-0.134644 0.317375,-0.139272 0.408982,-0.0085 l 0.06674,0.09529 0.02492,-0.09529 c 0.01371,-0.05241 0.05713,-0.09529 0.09649,-0.09529 0.06426,0 0.06423,0.02156 -3.03e-4,0.210947 -0.08339,0.244748 -0.05629,0.394353 0.05475,0.302197 0.05675,-0.0471 0.06948,-0.04352 0.06948,0.01955 0,0.110562 -0.142112,0.152421 -0.195229,0.05751 -0.03893,-0.06956 -0.05116,-0.07034 -0.114283,-0.0072 -0.09672,0.09672 -0.313204,0.08891 -0.406965,-0.0147 z m 0.316954,-0.06508 c 0.03998,-0.05708 0.07268,-0.150123 0.07268,-0.206775 0,-0.116244 -0.124637,-0.262675 -0.201711,-0.236984 -0.08074,0.02691 -0.130643,0.293486 -0.07992,0.426906 0.05624,0.147919 0.113885,0.152568 0.208944,0.01685 z m -3.299946,-9.1320003 0.01248,-1.1815435 -0.22259,0.014264 -0.22259,0.014264 -0.01309,0.6279752 c -0.0072,0.3453864 -0.003,0.6541482 0.0092,0.6861373 0.01601,0.041723 0.06262,0.046604 0.164909,0.017268 l 0.14259,-0.040894 -0.125292,0.2137946 c -0.06891,0.117587 -0.160576,0.3419979 -0.2037,0.4986909 L 13.740166,6.980331 13.705116,6.7752635 C 13.685839,6.6624764 13.601608,6.4388573 13.517936,6.2783321 l -0.15213,-0.2918639 0.134009,0.038433 0.134008,0.038433 V 5.3648311 4.6663277 l -0.595312,0.013068 -0.595313,0.013068 -0.01309,0.6279752 c -0.0072,0.3453864 -0.003,0.6541482 0.0092,0.6861373 0.01601,0.041723 0.06262,0.046604 0.16491,0.017268 l 0.14259,-0.040894 -0.125292,0.2137946 c -0.06891,0.117587 -0.160576,0.3419979 -0.2037,0.4986909 L 12.33943,6.980331 12.304381,6.7752635 C 12.285103,6.6624764 12.200872,6.4388573 12.117201,6.2783321 l -0.15213,-0.2918639 0.134009,0.038433 0.134008,0.038433 V 5.3648311 4.6663277 l -0.595312,0.013068 -0.595313,0.013068 -0.01309,0.6279752 c -0.0072,0.3453864 -0.003,0.6541482 0.0092,0.6861373 0.01601,0.041723 0.06262,0.046604 0.164909,0.017268 l 0.14259,-0.040894 -0.125292,0.2137946 c -0.06891,0.117587 -0.160575,0.3419979 -0.2037,0.4986909 L 10.938695,6.980331 10.903645,6.7752635 C 10.884368,6.6624764 10.800137,6.4388573 10.716466,6.2783321 l -0.15213,-0.2918639 0.134008,0.038433 0.134009,0.038433 V 5.3648311 4.6663277 l -0.595313,0.013068 -0.5953122,0.013068 -0.013093,0.6279752 c -0.0072,0.3453864 -0.00305,0.6541482 0.00923,0.6861373 0.015738,0.041011 0.062556,0.046622 0.1587741,0.019027 L 9.9330903,5.9864682 9.7809604,6.2783321 C 9.697289,6.4388573 9.6130582,6.6624764 9.5937808,6.7752635 L 9.558731,6.980331 9.4803228,6.6954347 C 9.4371983,6.5387417 9.3455332,6.3143308 9.2766227,6.1967438 l -0.125292,-0.2137946 0.1401434,0.040193 0.1401434,0.040193 V 5.3648311 4.6663277 L 8.836305,4.6793955 8.2409925,4.6924633 8.2278996,5.3204385 c -0.0072,0.3453864 -0.00305,0.6541482 0.00923,0.6861373 0.016011,0.041723 0.062621,0.046604 0.1649091,0.017268 L 8.5446249,5.9829492 8.419333,6.1967438 C 8.3504224,6.3143308 8.2587573,6.5387417 8.2156328,6.6954347 L 8.1372246,6.980331 8.1021748,6.7752635 C 8.0828974,6.6624764 7.9986666,6.4388573 7.9149952,6.2783321 L 7.7628654,5.9864682 7.8968738,6.0249013 8.0308822,6.0633344 V 5.3648311 4.6663277 l -0.5953125,0.013068 -0.5953124,0.013068 -0.013093,0.6279752 c -0.0072,0.3453864 -0.00305,0.6541482 0.00923,0.6861373 0.016011,0.041723 0.062621,0.046604 0.1649091,0.017268 L 7.1438896,5.9829492 7.0185977,6.1967438 C 6.9496871,6.3143308 6.858022,6.5387417 6.8148975,6.6954347 L 6.7364893,6.980331 6.7014395,6.7752635 C 6.6821622,6.6624764 6.5979314,6.4388573 6.5142599,6.2783321 L 6.3621301,5.9864682 6.4961385,6.0249013 6.630147,6.0633344 V 5.3648311 4.6663277 L 6.0348345,4.6793955 5.439522,4.6924633 5.4264291,5.3204385 c -0.0072,0.3453864 -0.00305,0.6541482 0.00923,0.6861373 0.016011,0.041723 0.062621,0.046604 0.164909,0.017268 L 5.7431544,5.9829492 5.6178624,6.1967438 C 5.5489518,6.3143308 5.4572867,6.5387417 5.4141622,6.6954347 L 5.335754,6.980331 5.3007043,6.7752635 C 5.2814269,6.6624764 5.1971961,6.4388573 5.1135247,6.2783321 L 4.9613948,5.9864682 5.0954032,6.0249013 5.2294117,6.0633344 V 5.3648311 4.6663277 l -0.5953125,0.013068 -0.5953125,0.013068 -0.013093,0.6279752 c -0.0072,0.3453864 -0.00305,0.6541482 0.00923,0.6861373 0.016011,0.041723 0.062621,0.046604 0.1649091,0.017268 L 4.3424191,5.9829492 4.2171271,6.1967438 C 4.1482166,6.3143308 4.0565515,6.5387417 4.013427,6.6954347 L 3.9350188,6.980331 3.899969,6.7752635 C 3.8806916,6.6624764 3.7964608,6.4388573 3.7127894,6.2783321 L 3.5606595,5.9864682 3.694668,6.0249013 3.8286764,6.0633344 V 5.366226 4.6691177 H 3.6185661 3.4084558 v 1.1594976 c 0,0.6377236 0.014095,1.1735924 0.031322,1.1908194 0.017227,0.017227 2.4597592,0.025982 5.4278492,0.019455 L 14.264154,7.0270221 Z M 46.411029,17.952758 c 0,-0.192602 -0.01914,-0.350184 -0.04253,-0.350184 -0.119671,0 -0.621797,0.187991 -0.754483,0.282471 l -0.151903,0.108165 0.02972,-0.148627 0.02973,-0.148627 h -0.367367 c -0.272092,0 -0.373882,-0.01698 -0.392491,-0.06547 -0.04053,-0.105614 0.01057,-0.121293 0.395278,-0.121293 h 0.36458 l -0.02784,-0.139173 -0.02784,-0.139174 0.274131,0.136859 c 0.150772,0.07527 0.363428,0.151091 0.472568,0.168487 l 0.198438,0.03163 -0.0017,-0.251097 -0.0017,-0.251096 -4.025418,-2.497198 C 40.168239,13.194968 36.572975,10.962547 34.392742,9.6074897 L 30.428684,7.1437501 h -0.947432 c -0.581256,0 -0.958585,-0.018046 -0.976289,-0.046691 -0.01889,-0.030561 0.309803,-0.046691 0.951455,-0.046691 h 0.980312 l 0.01463,-0.1482584 0.01463,-0.1482584 1.867647,-0.3863524 c 1.027206,-0.2124938 3.45398,-0.7130738 5.392831,-1.1124001 1.938851,-0.3993263 3.613279,-0.7470603 3.720951,-0.7727422 0.368039,-0.087784 0.3383,-0.1932728 0.352116,1.2489858 l 0.01241,1.2956801 h 2.708088 2.708088 l 0.01492,-0.1050551 c 0.0203,-0.1429306 0.101807,-0.1335852 0.101807,0.011673 v 0.1167279 h 1.120588 c 0.715932,0 1.120589,0.016861 1.120589,0.046691 0,0.026353 -0.132589,0.046691 -0.304383,0.046691 l -0.304382,0 0.02971,0.1284007 c 0.01634,0.07062 0.06856,0.1966866 0.116042,0.2801471 0.08479,0.1490237 0.08469,0.1517463 -0.0055,0.1517463 -0.08981,0 -0.09181,0.04219 -0.09181,1.9349283 0,1.2395865 -0.01678,1.9452985 -0.04669,1.9637845 -0.03084,0.01906 -0.04669,-0.637627 -0.04669,-1.9349278 0,-1.9162543 -0.0022,-1.963785 -0.0911,-1.963785 -0.09018,0 -0.09019,-0.00201 -0.001,-0.1984375 0.179931,-0.3963955 0.532272,-0.3593498 -3.433059,-0.360957 -1.938851,-7.859e-4 -3.525183,0.011584 -3.525183,0.027488 0,0.015904 0.750681,1.413257 1.66818,3.1052278 1.198108,2.209445 1.69054,3.076311 1.74753,3.076311 0.140285,0 0.274995,0.224338 0.248816,0.414363 -0.02071,0.150328 0.05678,0.315614 0.692292,1.476629 0.699553,1.278017 0.71909,1.307692 0.870657,1.32247 l 0.155046,0.01512 -0.03041,-0.201882 c -0.01672,-0.111035 -0.09301,-0.325285 -0.169523,-0.47611 l -0.139115,-0.274227 0.139658,0.02793 0.139659,0.02793 v -0.722546 c 0,-0.691419 0.004,-0.722546 0.09338,-0.722546 0.08936,0 0.09338,0.03113 0.09338,0.722546 v 0.722546 l 0.148627,-0.02972 0.148627,-0.02973 -0.09499,0.135948 c -0.09649,0.138088 -0.220083,0.451516 -0.269949,0.684569 l -0.02747,0.128401 h 0.42111 0.42111 v 0.863787 0.863786 H 47.274815 46.411029 Z M 48.04522,17.4625 v -0.747059 h -0.747059 -0.747059 v 0.747059 0.747059 h 0.747059 0.747059 z m -1.496929,-0.896062 0.131486,-0.01442 -0.66891,-1.229624 c -0.3679,-0.676294 -0.692458,-1.257999 -0.72124,-1.292679 -0.02878,-0.03468 -0.114751,-0.07676 -0.191042,-0.09352 -0.155695,-0.0342 -0.299163,0.05644 -0.730148,0.461285 -0.219047,0.205761 -0.236658,0.236208 -0.166363,0.287609 0.07208,0.05271 0.07042,0.06009 -0.01996,0.08878 -0.05422,0.01721 -0.173708,0.08227 -0.26553,0.144583 -0.09182,0.06231 -0.166949,0.105988 -0.166949,0.09706 0,-0.0089 0.03152,-0.09167 0.07004,-0.183858 0.03852,-0.09219 0.07004,-0.225326 0.07004,-0.295854 0,-0.119866 0.0051,-0.123137 0.0781,-0.05014 0.073,0.073 0.09856,0.05879 0.39173,-0.217772 0.1725,-0.162727 0.375833,-0.332609 0.451852,-0.377514 0.09432,-0.05572 0.139585,-0.120546 0.142524,-0.204117 0.0024,-0.06736 0.009,-0.154198 0.01478,-0.192978 0.0058,-0.03878 -0.754676,-1.482681 -1.689861,-3.208669 l -1.700337,-3.1381614 -5.320459,-0.00135 c -3.152143,-7.991e-4 -5.302383,0.015767 -5.276103,0.040648 0.0244,0.023098 3.500671,2.1884173 7.725055,4.8118206 6.4769,4.022248 7.68298,4.755206 7.695259,4.676555 0.0099,-0.06325 0.05689,-0.09791 0.146047,-0.107684 z m -1.974327,-1.523883 c -0.10443,-0.115393 -0.09984,-0.393323 0.0081,-0.491017 0.107747,-0.09751 0.30478,-0.09971 0.383974,-0.0043 0.05493,0.06619 0.06438,0.06619 0.101419,0 0.02246,-0.04014 0.07031,-0.07299 0.106327,-0.07299 0.05467,0 0.05303,0.03359 -0.0099,0.203382 -0.09065,0.244577 -0.05631,0.403119 0.0658,0.303807 0.06866,-0.05584 0.0743,-0.05317 0.04614,0.02191 -0.01765,0.04704 -0.03209,0.09432 -0.03209,0.105055 0,0.05292 -0.140608,0.01028 -0.176279,-0.05346 -0.03704,-0.06619 -0.04649,-0.06619 -0.101419,0 -0.08214,0.09898 -0.297454,0.09217 -0.392087,-0.0124 z m 0.316954,-0.06508 c 0.03998,-0.05708 0.07268,-0.150123 0.07268,-0.206775 0,-0.117233 -0.12487,-0.262597 -0.203158,-0.236501 -0.0896,0.02987 -0.143462,0.303072 -0.08503,0.431316 0.06518,0.143052 0.121494,0.146177 0.215504,0.01196 z m -2.168492,-3.915332 c 0,-0.02769 0.08404,-0.133561 0.186765,-0.23526 0.10272,-0.101699 0.186764,-0.213364 0.186764,-0.248144 0,-0.09724 -0.128881,-0.124441 -0.209176,-0.04415 -0.03949,0.03949 -0.09544,0.06393 -0.124332,0.0543 -0.08431,-0.0281 0.09296,-0.17676 0.210777,-0.17676 0.255962,0 0.28375,0.228235 0.05269,0.432797 -0.08988,0.07957 -0.163419,0.160557 -0.163419,0.179961 0,0.01941 0.07879,0.04352 0.175092,0.0536 0.144042,0.01507 0.131622,0.01971 -0.07004,0.02616 -0.149028,0.0048 -0.245129,-0.01189 -0.245129,-0.0425 z m -0.925377,-0.38154 c 0.107962,-0.08633 0.286504,-0.790475 0.212373,-0.8375666 -0.08698,-0.055252 0.425447,-0.045144 0.529309,0.010441 0.127967,0.068486 0.113642,0.2613419 -0.02925,0.3937689 l -0.119561,0.110805 0.09716,0.190458 0.09716,0.190458 h -0.09696 c -0.07001,0 -0.122782,-0.05838 -0.189898,-0.210111 -0.05112,-0.11556 -0.11134,-0.21011 -0.133827,-0.21011 -0.02249,0 -0.06598,0.07604 -0.09665,0.168967 -0.0454,0.137566 -0.0439,0.17648 0.0081,0.209395 0.04156,0.02633 -0.0085,0.04068 -0.143545,0.04114 -0.173626,5.98e-4 -0.195488,-0.0088 -0.134376,-0.05765 z m 0.598539,-0.50193 c 0.110383,-0.110384 0.113963,-0.140771 0.0301,-0.2554642 -0.09224,-0.1261436 -0.196327,-0.060834 -0.251884,0.1580432 -0.04395,0.173154 -0.04025,0.190803 0.03999,0.190803 0.04863,0 0.130439,-0.04202 0.1818,-0.09338 z M 41.555146,5.878871 V 4.7115774 l -0.175091,0.031594 c -0.0963,0.017377 -0.190851,0.04058 -0.210111,0.051563 -0.01926,0.010983 -0.03502,0.299464 -0.03502,0.6410693 v 0.6211006 l 0.116728,-0.022314 c 0.13679,-0.026149 0.143275,-0.00197 0.04124,0.1537658 -0.04152,0.063369 -0.122198,0.2674876 -0.179281,0.4535962 L 41.009821,6.980331 40.97778,6.7702207 C 40.960158,6.65466 40.883439,6.4367081 40.807294,6.2858831 l -0.138446,-0.2742272 0.139657,0.027931 0.139656,0.027931 V 5.455864 4.8442096 l -0.128401,0.025579 c -0.07062,0.014069 -0.322752,0.062791 -0.560294,0.1082718 l -0.431893,0.082692 v 0.4980752 0.4980751 l 0.116728,-0.022314 c 0.13679,-0.026149 0.143275,-0.00197 0.04124,0.1537658 -0.04152,0.063369 -0.122197,0.2674876 -0.179281,0.4535962 L 39.702468,6.980331 39.670428,6.7702207 C 39.652805,6.65466 39.576086,6.4367081 39.499941,6.2858831 l -0.138446,-0.2742272 0.139657,0.027931 0.139656,0.027931 V 5.601774 c 0,-0.5437053 0.05835,-0.5103493 -0.637406,-0.3643596 L 38.52022,5.3387993 v 0.3590521 c 0,0.3578118 4.03e-4,0.358975 0.116728,0.3367381 0.13679,-0.026149 0.143275,-0.00197 0.04124,0.1537658 -0.04152,0.063369 -0.122197,0.2674876 -0.17928,0.4535962 L 38.395115,6.980331 38.363075,6.7702207 C 38.345452,6.65466 38.268733,6.4367081 38.192588,6.2858831 l -0.138446,-0.2742272 0.139657,0.027931 0.139656,0.027931 V 5.7176123 c 0,-0.3388287 -0.0033,-0.3491485 -0.105055,-0.3259753 -0.300087,0.068357 -0.970965,0.2113042 -0.991693,0.2113042 -0.01311,0 -0.02384,0.1021415 -0.02384,0.2269812 0,0.2169361 0.0052,0.2259936 0.116728,0.2046671 0.13679,-0.026149 0.143275,-0.00197 0.04124,0.1537658 -0.04152,0.063369 -0.122197,0.2674876 -0.17928,0.4535962 L 37.087762,6.980331 37.055722,6.7702207 C 37.038099,6.65466 36.961381,6.4367081 36.885235,6.2858831 l -0.138446,-0.2742272 0.139657,0.027931 c 0.138437,0.027687 0.139656,0.026107 0.139656,-0.1810117 0,-0.1149186 -0.0082,-0.208943 -0.01821,-0.208943 -0.03807,0 -0.942782,0.1898819 -1.020673,0.2142187 -0.04494,0.014042 -0.08171,0.063223 -0.08171,0.1092912 0,0.064168 0.02731,0.078542 0.116728,0.061447 0.13679,-0.026149 0.143275,-0.00197 0.04124,0.1537658 -0.04152,0.063369 -0.122197,0.2674876 -0.17928,0.4535962 L 35.780409,6.980331 35.748369,6.7702207 C 35.730747,6.65466 35.654028,6.4367081 35.577882,6.2858831 l -0.138446,-0.2742272 0.139657,0.027931 c 0.108529,0.021706 0.139656,0.01128 0.139656,-0.046775 0,-0.058168 -0.03113,-0.06848 -0.140607,-0.046584 -0.07733,0.015467 -0.279774,0.053764 -0.449867,0.085105 -0.360959,0.066509 -0.424421,0.1390069 -0.559944,0.6396702 L 34.485173,6.9782125 34.447113,6.792507 C 34.42618,6.690369 34.37532,6.5177931 34.33409,6.4090051 34.27236,6.2461277 34.241656,6.2152581 34.160169,6.2341462 c -0.05443,0.012616 -0.823837,0.1710362 -1.709802,0.3520456 -1.872464,0.3825589 -1.808814,0.3669694 -1.72207,0.4217751 0.03584,0.022646 2.45683,0.0402 5.445691,0.039485 l 5.381158,-0.00129 z M 16.66875,18.121622 c 0,-0.02268 0.04202,-0.05223 0.09338,-0.06566 0.105644,-0.02763 0.132366,-0.243107 0.03502,-0.282387 -0.0321,-0.01295 -0.01334,-0.02521 0.0417,-0.02724 0.103951,-0.0038 0.156742,0.07653 0.156742,0.238584 0,0.06849 0.02113,0.08645 0.07664,0.06515 0.06408,-0.02459 0.06697,-0.01776 0.01763,0.0417 -0.07032,0.08473 -0.187651,0.09415 -0.187651,0.01508 0,-0.04358 -0.01245,-0.04358 -0.05603,0 -0.06533,0.06533 -0.177426,0.07467 -0.177426,0.01478 z m 27.267646,0 c 0,-0.02268 0.0446,-0.05291 0.0991,-0.06716 0.08034,-0.02101 0.09513,-0.05298 0.07812,-0.168865 -0.01441,-0.09819 -0.0016,-0.142949 0.04097,-0.142949 0.03407,0 0.06195,0.02521 0.06195,0.05603 0,0.04358 0.01245,0.04358 0.05603,0 0.03082,-0.03082 0.0886,-0.05556 0.128401,-0.05499 0.05143,7.38e-4 0.03986,0.02603 -0.03997,0.08741 -0.0745,0.05727 -0.102134,0.112974 -0.08204,0.165341 0.01667,0.04343 0.05146,0.06589 0.07733,0.04991 0.02586,-0.01598 0.04702,-0.0062 0.04702,0.02185 0,0.07855 -0.133586,0.111491 -0.206548,0.05094 -0.0447,-0.0371 -0.07483,-0.03875 -0.09554,-0.0052 -0.03671,0.05939 -0.164821,0.06539 -0.164821,0.0077 z m -0.550941,-0.345674 c -0.173214,-0.184378 -0.15722,-0.422948 0.03502,-0.522359 0.169483,-0.08764 0.626159,-0.09846 0.59806,-0.01416 -0.01046,0.03139 -0.06753,0.06853 -0.126816,0.08252 -0.09765,0.02305 -0.100621,0.0314 -0.03156,0.08872 0.04193,0.0348 0.07623,0.122537 0.07623,0.194977 0,0.258409 -0.362811,0.37056 -0.550941,0.170305 z m 0.393851,-0.111931 c 0.04253,-0.16945 -0.05176,-0.34159 -0.187097,-0.34159 -0.185469,0 -0.233749,0.262505 -0.07709,0.419161 0.111841,0.111841 0.224988,0.07862 0.264189,-0.07757 z m -27.709403,0.06395 c -0.09998,-0.106425 -0.134097,-0.331264 -0.06579,-0.433567 0.106751,-0.159874 0.711326,-0.235262 0.711326,-0.0887 0,0.03931 -0.04169,0.07004 -0.09502,0.07004 -0.07948,0 -0.08712,0.01478 -0.04669,0.09031 0.07997,0.149416 0.0563,0.319035 -0.05544,0.397297 -0.148604,0.104087 -0.330873,0.0897 -0.448384,-0.03538 z m 0.385415,-0.09231 c 0.08531,-0.241351 -0.129218,-0.465509 -0.290833,-0.303893 -0.08587,0.08587 -0.06675,0.260084 0.04027,0.367109 0.117671,0.117671 0.193379,0.09857 0.250562,-0.06322 z m 0.563616,0.15368 c 0.01587,-0.02568 0.06037,-0.04669 0.09889,-0.04669 0.03852,0 0.05705,0.02101 0.04118,0.04669 -0.01587,0.02568 -0.06037,0.04669 -0.09889,0.04669 -0.03852,0 -0.05705,-0.02101 -0.04118,-0.04669 z m 25.598521,-0.421074 c 0.118427,-0.257271 0.229356,-0.451623 0.246508,-0.431893 0.01715,0.01973 0.06802,0.130421 0.113031,0.245982 0.04502,0.115561 0.121408,0.309913 0.169759,0.431894 l 0.08791,0.221783 h -0.416267 -0.416267 z m 0.382252,0.316019 c -0.0016,-0.0321 -0.04933,-0.161258 -0.106118,-0.287019 l -0.103253,-0.228655 -0.123842,0.287019 -0.123843,0.287019 h 0.229961 c 0.15437,0 0.229019,-0.01919 0.227095,-0.05836 z m -27.872081,0.07004 c -8.14e-4,-0.0904 0.395362,-0.895761 0.42523,-0.864423 0.02925,0.03069 0.368835,0.845666 0.368835,0.885169 0,0.0079 -0.178594,0.01427 -0.396875,0.01427 -0.218281,0 -0.397017,-0.01576 -0.39719,-0.03502 z m 0.503485,-0.303493 c -0.05425,-0.13482 -0.111392,-0.26036 -0.126977,-0.278977 -0.01559,-0.01862 -0.08382,0.09169 -0.151638,0.245129 l -0.1233,0.278977 h 0.250277 0.250278 z m 5.648392,-0.02306 c 0.438484,-0.01791 0.448615,-0.03111 0.290795,-0.378909 -0.112577,-0.248096 -0.112634,-0.23659 0.001,-0.206868 0.09236,0.02415 0.09338,0.0014 0.09338,-2.082128 0,-1.373239 0.01625,-2.106549 0.04669,-2.106549 0.03044,0 0.04669,0.73331 0.04669,2.106549 0,2.056172 0.0021,2.105986 0.08988,2.083045 0.08829,-0.02309 0.08833,-0.0205 0.0027,0.146301 -0.04794,0.09339 -0.100951,0.226701 -0.117792,0.296242 l -0.03062,0.126439 0.389772,0.0158 c 0.214374,0.0087 0.03258,0.0158 -0.403979,0.0158 -0.436562,0 -0.620409,-0.0071 -0.408548,-0.01573 z m 27.290993,3.1e-5 c 0.41483,-0.01824 0.436082,-0.04963 0.268474,-0.39654 -0.05136,-0.106303 -0.09338,-0.197871 -0.09338,-0.203483 0,-0.0056 0.04202,7.84e-4 0.09338,0.01422 0.09236,0.02415 0.09338,0.0014 0.09338,-2.082128 0,-1.373239 0.01625,-2.106549 0.04669,-2.106549 0.03044,0 0.04669,0.73331 0.04669,2.106549 0,2.072266 0.0015,2.106157 0.0919,2.082515 0.09038,-0.02364 0.09049,-0.02121 0.0066,0.1463 -0.0469,0.09368 -0.09895,0.227262 -0.115664,0.29684 l -0.03039,0.126506 0.385617,0.01574 c 0.212089,0.0087 0.03893,0.01579 -0.384789,0.01584 -0.423722,5.9e-5 -0.607569,-0.0071 -0.408547,-0.01581 z M 20.802517,14.336777 c -0.01675,-0.0271 -0.07536,-0.04928 -0.130241,-0.04928 -0.09072,0 -0.08517,-0.01543 0.06112,-0.169903 0.141595,-0.149515 0.148298,-0.166849 0.05585,-0.144445 -0.07121,0.01726 -0.105055,0.0043 -0.105055,-0.04021 0,-0.0441 0.05445,-0.06567 0.165795,-0.06567 h 0.165795 l -0.123106,0.161401 c -0.135155,0.177197 -0.122989,0.264349 0.03127,0.22401 0.07172,-0.01876 0.09349,-0.0077 0.07779,0.0394 -0.02714,0.08151 -0.158283,0.110923 -0.199221,0.04468 z m 27.219357,-0.01639 c -0.05136,-0.03093 -0.102356,-0.06171 -0.113324,-0.06839 -0.01097,-0.0067 0.04156,-0.07797 0.116728,-0.158407 0.127625,-0.136568 0.129717,-0.14455 0.03162,-0.120612 -0.0713,0.0174 -0.105055,0.0045 -0.105055,-0.04003 0,-0.04433 0.0549,-0.06567 0.16896,-0.06567 h 0.168961 l -0.124855,0.163693 c -0.13505,0.17706 -0.121918,0.278348 0.02984,0.230181 0.06775,-0.0215 0.08894,-0.01201 0.07391,0.03312 -0.02805,0.08423 -0.13201,0.09523 -0.246784,0.02612 z m -8.346047,-0.110503 c 0.03746,-0.01512 0.05836,-0.122489 0.05836,-0.299806 0,-0.231701 -0.01318,-0.276372 -0.08171,-0.276971 -0.06983,-6.11e-4 -0.07153,-0.0073 -0.01167,-0.04598 0.03852,-0.02489 0.106806,-0.04558 0.151747,-0.04598 0.07001,-6.12e-4 0.08171,0.04552 0.08171,0.322233 0,0.21467 0.01957,0.330843 0.05836,0.346497 0.0321,0.01295 -0.02568,0.02355 -0.128401,0.02355 -0.10272,0 -0.160501,-0.0106 -0.1284,-0.02355 z m 7.583782,-0.310597 c -0.09998,-0.106426 -0.134098,-0.331264 -0.06579,-0.433567 0.10675,-0.159874 0.711325,-0.235262 0.711325,-0.0887 0,0.03931 -0.04169,0.07004 -0.09502,0.07004 -0.07948,0 -0.08712,0.01477 -0.04669,0.09031 0.07997,0.149416 0.0563,0.319035 -0.05544,0.397297 -0.148605,0.104086 -0.330873,0.0897 -0.448384,-0.03538 z m 0.385415,-0.09231 c 0.08531,-0.241351 -0.129218,-0.465508 -0.290834,-0.303893 -0.08587,0.08587 -0.06675,0.260084 0.04027,0.36711 0.11767,0.11767 0.193378,0.09857 0.250562,-0.06322 z m -27.686669,0.03908 c -0.06303,-0.06303 -0.114605,-0.169043 -0.114605,-0.235578 0,-0.06654 0.05157,-0.172545 0.114605,-0.235578 0.09675,-0.09675 0.159197,-0.114606 0.400766,-0.114606 0.204733,0 0.280747,0.01624 0.267135,0.05708 -0.01046,0.03139 -0.06753,0.06853 -0.126816,0.08252 -0.09765,0.02305 -0.100621,0.0314 -0.03156,0.08872 0.103982,0.0863 0.09586,0.265666 -0.01715,0.378673 -0.129794,0.129793 -0.350893,0.120263 -0.49238,-0.02122 z m 0.378316,-0.04633 c 0.102865,-0.156992 0.0058,-0.376017 -0.166712,-0.376017 -0.09754,0 -0.11849,0.02496 -0.131056,0.156114 -0.0095,0.09958 0.01422,0.188349 0.0656,0.245129 0.105281,0.116335 0.142029,0.112342 0.232167,-0.02523 z m 25.980975,0.140881 c 0,-0.05004 0.423496,-0.925984 0.439605,-0.909264 0.02844,0.02952 0.354145,0.849608 0.354145,0.891697 0,0.02069 -0.178593,0.03762 -0.396875,0.03762 -0.218281,0 -0.396875,-0.009 -0.396875,-0.02005 z m 0.512922,-0.308516 c -0.05099,-0.129351 -0.0927,-0.244912 -0.0927,-0.256801 0,-0.01189 -0.01873,-0.02162 -0.04162,-0.02162 -0.03553,0 -0.07973,0.08932 -0.225298,0.455239 -0.01674,0.04209 0.04308,0.05836 0.214552,0.05836 h 0.23777 z m -27.78358,0.176821 c 0.08956,-0.227431 0.375295,-0.828769 0.393808,-0.828769 0.02495,0 0.356263,0.825296 0.356263,0.887455 0,0.02705 -0.164868,0.04637 -0.39572,0.04637 -0.391505,0 -0.395279,-0.0011 -0.354351,-0.105055 z m 0.563306,-0.0037 c 0,-0.0085 -0.04965,-0.137458 -0.11034,-0.286623 l -0.11034,-0.27121 -0.123116,0.26892 c -0.06771,0.147907 -0.123116,0.276887 -0.123116,0.286624 0,0.0097 0.105055,0.0177 0.233456,0.0177 0.128401,0 0.233456,-0.0069 0.233456,-0.01541 z m 19.011755,0.0037 c 0.107962,-0.08633 0.286504,-0.790475 0.212373,-0.837567 -0.08698,-0.05525 0.425447,-0.04514 0.529309,0.01044 0.127967,0.06849 0.113642,0.261342 -0.02925,0.393769 l -0.119561,0.110805 0.09716,0.190458 0.09716,0.190458 h -0.09696 c -0.07001,0 -0.122782,-0.05838 -0.189898,-0.210111 -0.05112,-0.11556 -0.11134,-0.21011 -0.133827,-0.21011 -0.02249,0 -0.06598,0.07604 -0.09665,0.168967 -0.0454,0.137566 -0.0439,0.17648 0.0081,0.209395 0.04156,0.02633 -0.0085,0.04068 -0.143545,0.04114 -0.173626,5.98e-4 -0.195488,-0.0088 -0.134376,-0.05765 z m 0.598539,-0.501931 c 0.110383,-0.110383 0.113963,-0.14077 0.0301,-0.255463 -0.09224,-0.126144 -0.196327,-0.06083 -0.251884,0.158043 -0.04395,0.173154 -0.04025,0.190803 0.03999,0.190803 0.04863,0 0.130439,-0.04202 0.1818,-0.09338 z M 21.664706,12.419853 c -0.03852,-0.02489 -0.121434,-0.04558 -0.184252,-0.04598 l -0.114214,-7.15e-4 0.139005,-0.151746 c 0.07645,-0.08346 0.180376,-0.201878 0.230942,-0.26315 l 0.09194,-0.111402 -0.151747,0.02161 c -0.105811,0.01507 -0.151746,0.0029 -0.151746,-0.04034 0,-0.0423 0.06666,-0.06195 0.21011,-0.06195 0.115561,0 0.210111,0.01321 0.210111,0.02936 0,0.01615 -0.07354,0.110758 -0.16342,0.210245 -0.190209,0.210538 -0.194462,0.231432 -0.07004,0.344035 0.05296,0.04792 0.09338,0.06116 0.09338,0.03058 0,-0.02966 0.03086,-0.05393 0.06857,-0.05393 0.04177,0 0.05807,0.02737 0.0417,0.07004 -0.03053,0.07955 -0.146618,0.09038 -0.25034,0.02335 z m 27.197609,-0.01391 c -0.07704,-0.02881 -0.148398,-0.05805 -0.158573,-0.06497 -0.01017,-0.0069 0.06862,-0.107101 0.175092,-0.222613 0.106476,-0.115512 0.193592,-0.223382 0.193592,-0.239711 0,-0.01633 -0.06303,-0.02044 -0.140074,-0.0091 -0.09559,0.01403 -0.140073,8.82e-4 -0.140073,-0.04139 0,-0.04335 0.07128,-0.06195 0.237424,-0.06195 h 0.237424 l -0.190733,0.216684 c -0.104903,0.119176 -0.190733,0.23148 -0.190733,0.249564 0,0.01809 0.04202,0.07091 0.09338,0.117391 0.05296,0.04792 0.09338,0.06116 0.09338,0.03058 0,-0.02966 0.03327,-0.05393 0.07393,-0.05393 0.104641,0 0.0544,0.115134 -0.05424,0.12429 -0.04935,0.0042 -0.152758,-0.01601 -0.229799,-0.04482 z M 17.452421,11.782233 c 0.123732,-0.127091 0.226802,-0.200599 0.235285,-0.167803 0.0204,0.07888 0.02623,0.07793 0.495816,-0.0808 0.226435,-0.07654 0.662252,-0.174617 0.968481,-0.21795 0.44682,-0.06323 0.566057,-0.09612 0.603756,-0.166564 0.06834,-0.127686 0.251472,-0.185296 0.389344,-0.122477 0.218244,0.09944 0.237525,0.439292 0.03119,0.549721 -0.140502,0.07519 -0.218495,0.0611 -0.370717,-0.06698 -0.09597,-0.08075 -0.194211,-0.116539 -0.318748,-0.116114 -0.235197,8.01e-4 -0.983165,0.155966 -1.382724,0.286844 -0.262107,0.08586 -0.311012,0.117721 -0.288674,0.188101 0.02352,0.07412 -0.0023,0.08473 -0.20589,0.08473 -0.128031,0 -0.265301,0.01248 -0.305044,0.02773 -0.03974,0.01525 0.02682,-0.07405 0.147927,-0.198438 z m 27.277725,0.0035 c 0.163139,-0.178554 0.220833,-0.216308 0.258073,-0.168878 0.0387,0.04929 0.131472,0.03311 0.480582,-0.08386 0.237941,-0.07972 0.682458,-0.179468 0.987815,-0.221668 0.456159,-0.06304 0.559106,-0.09169 0.577124,-0.160584 0.05197,-0.19874 0.434881,-0.196551 0.541729,0.0031 0.07627,0.142517 0.05987,0.232667 -0.06508,0.35761 -0.146011,0.146011 -0.279118,0.145348 -0.426588,-0.0021 -0.146628,-0.146628 -0.328263,-0.150643 -0.963024,-0.02129 -0.400749,0.08167 -0.999294,0.255005 -1.058778,0.306621 -0.01008,0.0087 0.0083,0.04793 0.04073,0.08707 0.05159,0.06216 0.02928,0.07116 -0.176292,0.07116 -0.129445,0 -0.273842,0.01413 -0.320883,0.0314 -0.04822,0.0177 0.0061,-0.06891 0.124582,-0.198565 z M 18.022794,10.746207 c 0,-0.476496 0.01182,-0.563755 0.08539,-0.630331 0.195917,-0.1773019 0.542826,-0.0067 0.440963,0.21689 -0.03646,0.08002 -0.03244,0.129342 0.01594,0.195499 0.166852,0.228183 0.02134,0.51236 -0.246355,0.481108 -0.148867,-0.01738 -0.155859,-0.01129 -0.155859,0.135848 0,0.1058 -0.02193,0.154044 -0.07004,0.154044 -0.05831,0 -0.07004,-0.09258 -0.07004,-0.553058 z m 0.446647,0.06715 c 0.03668,-0.14614 -0.05164,-0.307841 -0.168143,-0.307841 -0.05046,0 -0.09174,-0.02101 -0.09174,-0.04669 0,-0.02568 0.03977,-0.04669 0.08839,-0.04669 0.04861,0 0.101065,-0.03304 0.116561,-0.07342 0.04006,-0.104383 -0.05654,-0.261843 -0.149734,-0.244068 -0.06362,0.01214 -0.0812,0.08065 -0.09243,0.360304 -0.01676,0.41739 4.33e-4,0.470786 0.151585,0.470786 0.08497,0 0.125077,-0.03097 0.145509,-0.112379 z m 26.792658,0.412053 c 0.01559,-0.04062 0.02834,-0.303709 0.02834,-0.58464 0,-0.501688 0.0021,-0.511748 0.11861,-0.564828 0.164346,-0.07488 0.366775,4.29e-4 0.387274,0.144079 0.0086,0.06023 -0.0062,0.131294 -0.0328,0.15793 -0.03345,0.03345 -0.02022,0.08429 0.04274,0.164331 0.111182,0.141344 0.114857,0.235472 0.01478,0.378361 -0.06411,0.09153 -0.105396,0.105176 -0.256802,0.08487 -0.178831,-0.02399 -0.180408,-0.02281 -0.180408,0.134779 0,0.114888 -0.02081,0.158976 -0.07503,0.158976 -0.04924,0 -0.06529,-0.02539 -0.04669,-0.07386 z m 0.440625,-0.408422 c 0.02992,-0.157655 -0.03578,-0.311472 -0.133026,-0.311472 -0.120241,0 -0.119613,-0.0754 8.9e-4,-0.106911 0.112896,-0.02952 0.123308,-0.183657 0.01829,-0.270812 -0.0638,-0.05295 -0.08486,-0.04896 -0.140074,0.02655 -0.06801,0.093 -0.09312,0.680997 -0.03171,0.742407 0.06411,0.06411 0.269195,0.0068 0.28563,-0.07977 z m -25.765592,-0.07802 c 0,-0.134886 0.01946,-0.186765 0.07004,-0.186765 0.05058,0 0.07004,0.05188 0.07004,0.186765 0,0.134885 -0.01946,0.186764 -0.07004,0.186764 -0.05058,0 -0.07004,-0.05188 -0.07004,-0.186764 z m 27.314338,0 c 0,-0.102721 0.02101,-0.186765 0.04669,-0.186765 0.02568,0 0.04669,0.08404 0.04669,0.186765 0,0.10272 -0.02101,0.186764 -0.04669,0.186764 -0.02568,0 -0.04669,-0.08404 -0.04669,-0.186764 z M 19.937132,9.9919119 c 0,-0.1348857 0.01946,-0.1867647 0.07004,-0.1867647 0.05058,0 0.07004,0.051879 0.07004,0.1867647 0,0.1348851 -0.01946,0.1867651 -0.07004,0.1867651 -0.05058,0 -0.07004,-0.05188 -0.07004,-0.1867651 z m 27.314338,0 c 0,-0.1027206 0.02101,-0.1867647 0.04669,-0.1867647 0.02568,0 0.04669,0.084044 0.04669,0.1867647 0,0.1027201 -0.02101,0.1867651 -0.04669,0.1867651 -0.02568,0 -0.04669,-0.08404 -0.04669,-0.1867651 z M 19.937132,9.244853 c 0,-0.1348856 0.01946,-0.1867647 0.07004,-0.1867647 0.05058,0 0.07004,0.051879 0.07004,0.1867647 0,0.1348857 -0.01946,0.1867647 -0.07004,0.1867647 -0.05058,0 -0.07004,-0.051879 -0.07004,-0.1867647 z m 27.314338,0 c 0,-0.1027206 0.02101,-0.1867647 0.04669,-0.1867647 0.02568,0 0.04669,0.084044 0.04669,0.1867647 0,0.1027206 -0.02101,0.1867647 -0.04669,0.1867647 -0.02568,0 -0.04669,-0.084044 -0.04669,-0.1867647 z M 19.937132,8.4977942 c 0,-0.1348856 0.01946,-0.1867647 0.07004,-0.1867647 0.05058,0 0.07004,0.051879 0.07004,0.1867647 0,0.1348856 -0.01946,0.1867647 -0.07004,0.1867647 -0.05058,0 -0.07004,-0.051879 -0.07004,-0.1867647 z m 27.314338,0 c 0,-0.1027206 0.02101,-0.1867647 0.04669,-0.1867647 0.02568,0 0.04669,0.084044 0.04669,0.1867647 0,0.1027206 -0.02101,0.1867647 -0.04669,0.1867647 -0.02568,0 -0.04669,-0.084044 -0.04669,-0.1867647 z M 19.937132,7.7507354 c 0,-0.1348856 0.01946,-0.1867647 0.07004,-0.1867647 0.05058,0 0.07004,0.051879 0.07004,0.1867647 0,0.1348856 -0.01946,0.1867647 -0.07004,0.1867647 -0.05058,0 -0.07004,-0.051879 -0.07004,-0.1867647 z m 27.314338,0 c 0,-0.1027206 0.02101,-0.1867647 0.04669,-0.1867647 0.02568,0 0.04669,0.084044 0.04669,0.1867647 0,0.1027206 -0.02101,0.1867647 -0.04669,0.1867647 -0.02568,0 -0.04669,-0.084044 -0.04669,-0.1867647 z M 19.937132,6.2566177 c 0,-0.1348856 0.01946,-0.1867647 0.07004,-0.1867647 0.05058,0 0.07004,0.051879 0.07004,0.1867647 0,0.1348856 -0.01946,0.1867647 -0.07004,0.1867647 -0.05058,0 -0.07004,-0.051879 -0.07004,-0.1867647 z m 27.314338,0 c 0,-0.1027206 0.02101,-0.1867647 0.04669,-0.1867647 0.02568,0 0.04669,0.084044 0.04669,0.1867647 0,0.1027206 -0.02101,0.1867647 -0.04669,0.1867647 -0.02568,0 -0.04669,-0.084044 -0.04669,-0.1867647 z M 15.594853,5.7663604 c 0,-0.08474 0.07732,-0.093219 0.106444,-0.011673 0.01146,0.0321 0.03776,0.042574 0.05843,0.023275 0.02067,-0.019299 0.01057,-0.085581 -0.02246,-0.1472942 -0.07411,-0.1384785 -0.0326,-0.2144921 0.117139,-0.2144921 0.07614,0 0.113972,0.026348 0.113972,0.079375 0,0.061736 -0.01245,0.066924 -0.05603,0.023346 -0.101398,-0.1013973 -0.143055,-0.05844 -0.06252,0.064471 0.04343,0.066275 0.06751,0.1503192 0.05353,0.1867648 -0.03517,0.091641 -0.308506,0.088299 -0.308506,-0.00377 z m 27.267646,0 c 0,-0.08474 0.07732,-0.093219 0.106445,-0.011673 0.01146,0.0321 0.03776,0.042574 0.05843,0.023275 0.02068,-0.019299 0.01057,-0.085581 -0.02246,-0.1472942 -0.07411,-0.1384785 -0.0326,-0.2144921 0.117138,-0.2144921 0.07614,0 0.113973,0.026348 0.113973,0.079375 0,0.061736 -0.01245,0.066924 -0.05603,0.023346 -0.09883,-0.098829 -0.135403,-0.059868 -0.05664,0.060338 0.04194,0.064002 0.06409,0.1480462 0.04923,0.1867647 -0.03655,0.095248 -0.310092,0.095566 -0.310092,3.605e-4 z M 15.155311,5.7072814 c 0.05232,-0.035389 0.171375,-0.337796 0.132987,-0.337796 -0.01185,0 -0.06336,0.02611 -0.114461,0.058023 -0.133979,0.083671 -0.258927,-0.00838 -0.24612,-0.1813224 0.01402,-0.1893385 0.249721,-0.3903039 0.457762,-0.3903039 0.08948,0 0.162683,0.020777 0.162683,0.04617 0,0.025394 -0.04329,0.2039488 -0.09619,0.3967893 -0.05291,0.1928404 -0.08318,0.3716686 -0.06728,0.3973959 0.01711,0.027687 -0.03414,0.046485 -0.125592,0.046062 -0.08498,-3.932e-4 -0.131679,-0.016151 -0.103786,-0.035018 z m 0.188178,-0.5537199 c 0.07233,-0.1731062 0.05459,-0.2509879 -0.05717,-0.2509879 -0.08036,0 -0.254888,0.3577482 -0.219508,0.4499479 0.03873,0.1009245 0.19976,-0.014875 0.276675,-0.19896 z m 27.08797,0.5504371 c 0.03257,-0.020672 0.07801,-0.1031079 0.100976,-0.18319 0.04036,-0.1407422 0.0381,-0.1439353 -0.06791,-0.095634 -0.161262,0.073476 -0.255699,0.017634 -0.255699,-0.1511975 0,-0.2175607 0.219477,-0.4180944 0.457589,-0.4180944 h 0.184626 l -0.113795,0.4040629 c -0.09147,0.3247953 -0.101797,0.4116722 -0.05263,0.4428512 0.03835,0.024319 -0.0085,0.038788 -0.125602,0.038788 -0.112262,0 -0.163143,-0.014994 -0.127548,-0.037586 z m 0.177318,-0.5272314 c 0.08535,-0.1650425 0.08545,-0.2741936 2.56e-4,-0.2741936 -0.150916,0 -0.304124,0.2849352 -0.241274,0.4487203 0.02401,0.062572 0.04128,0.065155 0.101497,0.015178 0.03991,-0.033122 0.102694,-0.1184891 0.139521,-0.1897046 z M 19.937132,5.5795956 c 0,-0.081277 -0.02552,-0.1167279 -0.08404,-0.1167279 -0.04622,0 -0.109257,-0.025213 -0.140074,-0.056029 -0.133736,-0.1337366 -0.014,-0.320993 0.247464,-0.3870224 0.09105,-0.022993 0.115561,-0.04398 0.07004,-0.059963 -0.03852,-0.013524 -0.08419,-0.046352 -0.101496,-0.07295 -0.02086,-0.032062 -0.05664,-0.027461 -0.106184,0.013655 -0.0411,0.034108 -0.08771,0.049023 -0.103594,0.033144 -0.04076,-0.04076 0.07625,-0.171201 0.153572,-0.171201 0.03538,0 0.06432,-0.042022 0.06432,-0.093382 0,-0.051879 0.03113,-0.093382 0.07004,-0.093382 0.03971,0 0.07004,0.041874 0.07004,0.096718 0,0.053195 0.03152,0.128234 0.07004,0.1667542 0.0465,0.046504 0.07004,0.1630485 0.07004,0.3468487 0,0.2149277 -0.01566,0.276812 -0.07004,0.276812 -0.04358,0 -0.07004,0.044097 -0.07004,0.1167279 0,0.072631 -0.02646,0.116728 -0.07004,0.116728 -0.04358,0 -0.07004,-0.044097 -0.07004,-0.116728 z m 0.04976,-0.2584442 c 0.07581,-0.040572 0.133564,-0.2318131 0.07001,-0.2318131 -0.109401,0 -0.259841,0.1074623 -0.259841,0.1856091 0,0.1051598 0.05477,0.1184897 0.189834,0.046204 z M 47.25147,5.5795956 c 0,-0.090676 -0.02397,-0.1167279 -0.10739,-0.1167279 -0.329032,0 -0.268518,-0.3571514 0.07433,-0.4386753 0.12101,-0.028774 0.124846,-0.036507 0.0535,-0.1078493 -0.06363,-0.06363 -0.09286,-0.066852 -0.169921,-0.01873 -0.05119,0.031967 -0.104522,0.046669 -0.118521,0.03267 -0.04413,-0.04413 0.08877,-0.1677826 0.180337,-0.1677826 0.05654,0 0.08766,-0.033157 0.08766,-0.093382 0,-0.05136 0.02101,-0.093382 0.04669,-0.093382 0.02568,0 0.04669,0.043523 0.04669,0.096718 0,0.053195 0.03152,0.128234 0.07004,0.1667542 0.0465,0.046504 0.07004,0.1630485 0.07004,0.3468487 0,0.2149277 -0.01566,0.276812 -0.07004,0.276812 -0.04358,0 -0.07004,0.044097 -0.07004,0.1167279 0,0.0642 -0.02101,0.116728 -0.04669,0.116728 -0.02568,0 -0.04669,-0.052528 -0.04669,-0.116728 z m 0.0031,-0.2584442 c 0.07581,-0.040572 0.133564,-0.2318131 0.07001,-0.2318131 -0.1094,0 -0.259841,0.1074623 -0.259841,0.1856091 0,0.1051598 0.05477,0.1184897 0.189834,0.046204 z M 16.173757,5.4388485 C 16.055821,5.2588549 16.036651,4.9351121 16.129529,4.6919153 16.173547,4.576656 16.23934,4.482353 16.275736,4.482353 c 0.08217,0 0.08205,0.00557 -0.0036,0.1697548 -0.08786,0.1684729 -0.08802,0.5639001 -2.87e-4,0.7173776 0.0796,0.1392544 0.08582,0.1867647 0.02442,0.1867647 -0.02509,0 -0.08023,-0.052831 -0.12254,-0.1174016 z m 5.911169,0.073466 c 0,-0.024165 0.01843,-0.055324 0.04095,-0.069243 0.02252,-0.013919 0.06482,-0.1201286 0.09401,-0.2360211 0.0448,-0.1779118 0.03955,-0.2507193 -0.0337,-0.4677054 -0.09989,-0.2958733 -0.02429,-0.3675648 0.103536,-0.098189 0.140541,0.2961674 0.0458,0.9150944 -0.140073,0.9150944 -0.03559,0 -0.06472,-0.019771 -0.06472,-0.043936 z M 43.441404,5.4388485 C 43.323468,5.2588549 43.304298,4.9351121 43.397176,4.6919153 43.441193,4.576656 43.506987,4.482353 43.543383,4.482353 c 0.08217,0 0.08205,0.00557 -0.0036,0.1697548 -0.08787,0.1684729 -0.08802,0.5639001 -2.88e-4,0.7173776 0.07961,0.1392544 0.08582,0.1867647 0.02442,0.1867647 -0.02509,0 -0.08023,-0.052831 -0.122539,-0.1174016 z m 5.98879,-0.034345 c 0.04466,-0.084697 0.08002,-0.2548983 0.08002,-0.3852022 0,-0.1303038 -0.03536,-0.3005047 -0.08002,-0.3852022 -0.07143,-0.1354602 -0.07212,-0.1517463 -0.0064,-0.1517463 0.100604,0 0.208927,0.278392 0.208927,0.5369485 0,0.2585565 -0.108323,0.5369486 -0.208927,0.5369486 -0.06572,0 -0.06503,-0.016286 0.0064,-0.1517464 z M 16.528676,5.163266 c 0,-0.1959236 -0.0202,-0.3077969 -0.05836,-0.3232836 -0.03859,-0.015658 -0.04222,-0.036752 -0.01072,-0.062255 0.0262,-0.021215 0.07303,-0.096353 0.104054,-0.1669738 0.05416,-0.1232754 0.245179,-0.1869351 0.245179,-0.081709 0,0.02568 -0.03152,0.046691 -0.07004,0.046691 -0.03891,0 -0.07004,0.041503 -0.07004,0.093382 0,0.051879 0.03113,0.093382 0.07004,0.093382 0.03852,0 0.07004,0.021011 0.07004,0.046691 0,0.02568 -0.03152,0.046691 -0.07004,0.046691 -0.05507,0 -0.07004,0.064849 -0.07004,0.3034927 0,0.2386437 -0.01497,0.3034926 -0.07004,0.3034926 -0.05498,0 -0.07004,-0.064417 -0.07004,-0.2996017 z m 0.450803,0.2142157 c -0.106651,-0.1178483 -0.101818,-0.4382228 0.0081,-0.5377083 0.112767,-0.1020527 0.301419,-0.098204 0.397634,0.00811 0.106652,0.1178483 0.101818,0.4382228 -0.0081,0.5377083 -0.112767,0.1020527 -0.30142,0.098204 -0.397635,-0.00811 z m 0.345636,-0.131797 c 0.06866,-0.1806022 -0.0051,-0.3664567 -0.145529,-0.3664567 -0.07939,0 -0.124586,0.036605 -0.156207,0.1265195 -0.09899,0.2814896 0.196578,0.5165253 0.301736,0.2399372 z m 0.277458,-0.1330008 c 0,-0.2023285 0.01971,-0.3501839 0.04669,-0.3501839 0.02568,0 0.04669,0.021189 0.04669,0.047087 0,0.028276 0.03646,0.024319 0.09126,-0.00991 0.142668,-0.089098 0.160686,-0.013225 0.0283,0.1191631 -0.09321,0.093213 -0.119557,0.1663243 -0.119557,0.3317904 0,0.1167279 -0.02101,0.2122326 -0.04669,0.2122326 -0.02698,0 -0.04669,-0.1478554 -0.04669,-0.3501838 z m 0.446214,0.2464124 C 17.886101,5.1268294 18.009992,4.7625 18.251661,4.7625 c 0.151175,0 0.324667,0.156575 0.234938,0.2120303 -0.03199,0.019772 -0.0742,0.00179 -0.09874,-0.042056 -0.05463,-0.097612 -0.206276,-0.099318 -0.243338,-0.00274 -0.07342,0.1913393 -0.01276,0.4397475 0.10739,0.4397475 0.04348,0 0.102423,-0.023375 0.130993,-0.051944 0.02857,-0.028569 0.07761,-0.043389 0.108973,-0.032934 0.0405,0.013499 0.03395,0.042095 -0.02259,0.098635 -0.114392,0.1143923 -0.332216,0.1018839 -0.420491,-0.024146 z m 0.674374,0.010389 c -0.11272,-0.1127209 -0.122787,-0.3574609 -0.0207,-0.5032139 0.141632,-0.2022067 0.48761,-0.082735 0.48761,0.1683793 0,0.089266 -0.02551,0.1013787 -0.213534,0.1013787 -0.173057,0 -0.210672,0.01454 -0.198437,0.076705 0.02547,0.1294068 0.163645,0.1885002 0.276283,0.1181567 0.118369,-0.073922 0.171779,-0.037807 0.08993,0.060811 -0.0833,0.1003732 -0.310555,0.088385 -0.421158,-0.022217 z m 0.31795,-0.4085478 c -0.0099,-0.051545 -0.05836,-0.08171 -0.131185,-0.08171 -0.07283,0 -0.121258,0.030164 -0.131185,0.08171 -0.01229,0.063841 0.01639,0.081709 0.131185,0.081709 0.114792,0 0.14348,-0.017868 0.131185,-0.081709 z m 0.195653,0.4650554 c 0,-0.1094986 0.290368,-0.94364 0.328484,-0.94364 0.06478,0 0.06006,0.025731 -0.09667,0.527132 -0.07794,0.2493605 -0.161989,0.4533827 -0.186764,0.4533827 -0.02478,0 -0.04505,-0.016594 -0.04505,-0.036875 z M 20.357353,5.1219375 V 4.7810073 l 0.163419,-0.00463 c 0.1901,-0.00539 0.199315,0.012126 0.06402,0.1216823 -0.07046,0.057057 -0.106174,0.1509879 -0.122668,0.3226497 -0.03454,0.3594256 -0.10477,0.2932143 -0.10477,-0.09877 z M 20.851015,5.389566 C 20.635944,5.1744949 20.756415,4.7625 21.034375,4.7625 c 0.142035,0 0.256801,0.1162562 0.256801,0.2601366 0,0.1035334 -0.01857,0.1133929 -0.213534,0.1133929 -0.173057,0 -0.210672,0.01454 -0.198437,0.076705 0.02493,0.1266811 0.163372,0.1886706 0.271103,0.1213919 0.144406,-0.090183 0.212575,-0.069673 0.117523,0.035359 -0.101052,0.1116602 -0.314932,0.1219641 -0.416816,0.020081 z m 0.300088,-0.4403012 c -0.05658,-0.1057261 -0.141579,-0.1198921 -0.224118,-0.037353 -0.09413,0.094128 -0.0636,0.1307353 0.109032,0.1307353 0.150594,0 0.160682,-0.00819 0.115086,-0.093382 z m 0.281219,0.4448577 c -0.09476,-0.114176 -0.0326,-0.2309462 0.17402,-0.3269214 0.10914,-0.050696 0.198437,-0.1091355 0.198437,-0.1298661 0,-0.071651 -0.152772,-0.095985 -0.244187,-0.038895 -0.11308,0.070619 -0.163517,0.031534 -0.08359,-0.064775 0.07032,-0.084732 0.332584,-0.094371 0.411819,-0.015136 0.03147,0.031469 0.05603,0.1822964 0.05603,0.3440837 v 0.2880543 l -0.228529,0.00515 c -0.146674,0.0033 -0.248398,-0.018793 -0.284002,-0.061694 z m 0.316428,-0.080667 c 0.0532,-0.053198 0.0798,-0.2241176 0.03488,-0.2241176 -0.07236,0 -0.258998,0.1175546 -0.258998,0.1631319 0,0.1207988 0.129159,0.1559448 0.224118,0.060986 z M 43.843014,5.1593751 c 0,-0.2386438 -0.01496,-0.3034927 -0.07004,-0.3034927 -0.03852,0 -0.07004,-0.021011 -0.07004,-0.046691 0,-0.02568 0.03012,-0.046691 0.06693,-0.046691 0.03831,0 0.07325,-0.054909 0.08171,-0.1284007 0.0116,-0.1008515 0.04232,-0.1315706 0.143174,-0.1431749 0.147328,-0.016952 0.175318,0.06165 0.03502,0.09834 -0.05136,0.013431 -0.09338,0.057904 -0.09338,0.098828 0,0.04328 0.03907,0.074408 0.09338,0.074408 0.05136,0 0.09338,0.021011 0.09338,0.046691 0,0.02568 -0.04202,0.046691 -0.09338,0.046691 -0.0838,0 -0.09338,0.031128 -0.09338,0.3034927 0,0.1712009 -0.02035,0.3034926 -0.04669,0.3034926 -0.02634,0 -0.04669,-0.1322917 -0.04669,-0.3034926 z m 0.404112,0.2181066 c -0.106652,-0.1178483 -0.101818,-0.4382228 0.0081,-0.5377083 0.112767,-0.1020527 0.30142,-0.098204 0.397635,0.00811 0.106651,0.1178483 0.101818,0.4382228 -0.0081,0.5377083 -0.112767,0.1020527 -0.301419,0.098204 -0.397634,-0.00811 z m 0.3523,-0.1266055 c 0.07826,-0.1717633 -6.18e-4,-0.3716482 -0.14666,-0.3716482 -0.140387,0 -0.214194,0.1858545 -0.145529,0.3664567 0.06153,0.1618389 0.219536,0.1646463 0.292189,0.00519 z M 44.87022,5.1219375 V 4.7810073 l 0.163419,-0.00463 c 0.1901,-0.00539 0.199315,0.012126 0.06402,0.1216823 -0.07046,0.057057 -0.106174,0.1509879 -0.122668,0.3226497 -0.03454,0.3594256 -0.10477,0.2932143 -0.10477,-0.09877 z M 45.363882,5.389566 C 45.148811,5.1744949 45.269282,4.7625 45.547242,4.7625 c 0.124918,0 0.272084,0.1242624 0.22925,0.1935706 -0.01675,0.027095 -0.06597,0.011978 -0.119891,-0.03682 -0.134529,-0.1217477 -0.249433,-0.032641 -0.249433,0.1934331 0,0.2183851 0.111604,0.3116237 0.261187,0.2182073 0.118369,-0.073922 0.17178,-0.037807 0.08993,0.060811 -0.07681,0.092546 -0.300938,0.091332 -0.394407,-0.00214 z m 0.653677,0 C 45.802488,5.1744949 45.922959,4.7625 46.200918,4.7625 c 0.142036,0 0.256802,0.1162562 0.256802,0.2601366 0,0.1035334 -0.01857,0.1133929 -0.213534,0.1133929 -0.173057,0 -0.210672,0.01454 -0.198437,0.076705 0.02493,0.1266811 0.163372,0.1886706 0.271102,0.1213919 0.144407,-0.090183 0.212576,-0.069673 0.117523,0.035359 -0.101051,0.1116602 -0.314932,0.1219641 -0.416815,0.020081 z m 0.300087,-0.4403012 c -0.05658,-0.1057261 -0.141578,-0.1198921 -0.224117,-0.037353 -0.09413,0.094128 -0.0636,0.1307353 0.109032,0.1307353 0.150594,0 0.160681,-0.00819 0.115085,-0.093382 z m 0.19547,0.4616099 c 0.01297,-0.035604 0.08267,-0.259087 0.154873,-0.4966283 0.07385,-0.2429271 0.156702,-0.4318934 0.189374,-0.4318934 0.07888,0 -0.214852,0.9422631 -0.302873,0.9716037 -0.04039,0.013463 -0.05604,-0.00283 -0.04137,-0.043082 z M 47.624999,5.1219375 V 4.7810073 l 0.163419,-0.00463 c 0.1901,-0.00539 0.199315,0.012126 0.06402,0.1216823 -0.07046,0.057057 -0.106174,0.1509879 -0.122669,0.3226497 -0.03454,0.3594256 -0.10477,0.2932143 -0.10477,-0.09877 z m 0.503017,0.2592206 C 48.01853,5.2564755 47.990875,5.1155476 48.046952,4.9680549 48.107879,4.807805 48.168464,4.7641641 48.331323,4.763215 c 0.140838,-8.208e-4 0.206539,0.062931 0.252153,0.2446749 0.03193,0.1271997 0.03041,0.1281396 -0.206356,0.1281396 -0.256078,0 -0.263715,0.00575 -0.190184,0.143143 0.05343,0.099831 0.184628,0.1188212 0.265081,0.038369 0.02857,-0.028569 0.07761,-0.043389 0.108974,-0.032934 0.09897,0.032991 -0.08986,0.1782602 -0.231723,0.1782602 -0.07123,0 -0.161789,-0.036769 -0.201252,-0.08171 z M 48.46544,5.0052942 c 0,-0.05757 -0.105182,-0.1494118 -0.171114,-0.1494118 -0.03248,0 -0.08154,0.042022 -0.109033,0.093382 -0.0456,0.085197 -0.03551,0.093382 0.115086,0.093382 0.09078,0 0.165061,-0.016809 0.165061,-0.037353 z m 0.233421,0.3641252 c -0.07116,-0.1329686 0.01112,-0.2610877 0.209787,-0.326654 0.09008,-0.029728 0.163778,-0.083939 0.163778,-0.1204672 0,-0.078816 -0.146092,-0.088412 -0.22005,-0.014455 -0.02858,0.028579 -0.07798,0.035877 -0.109793,0.016218 -0.08231,-0.050871 0.07941,-0.161562 0.236046,-0.161562 0.1845,0 0.23387,0.083608 0.23387,0.3960595 v 0.2840006 l -0.231848,0.010088 c -0.190143,0.00827 -0.240832,-0.0067 -0.28179,-0.083229 z m 0.299709,-0.028275 c 0.04062,-0.015587 0.07386,-0.076654 0.07386,-0.1357023 0,-0.083778 -0.02018,-0.102085 -0.09185,-0.083341 -0.117342,0.030685 -0.205156,0.1356364 -0.166213,0.1986481 0.03445,0.055737 0.0792,0.060692 0.18421,0.020395 z M 3.2777786,3.1866728 C 3.2718381,2.5003513 3.2512103,2.101103 3.2216911,2.101103 c -0.094288,0 -0.2334559,-0.1905207 -0.2334559,-0.3196017 0,-0.1677952 0.1296679,-0.2873836 0.3116054,-0.2873836 0.1391035,0 0.2953799,0.1192837 0.2953799,0.2254595 0,0.041574 1.8989109,0.054687 7.9192165,0.054687 l 7.919216,0 -0.02922,-0.1163992 -0.02921,-0.1163991 0.175899,0.088745 c 0.302177,0.1524564 0.386009,0.1641441 0.386009,0.053817 0,-0.054676 0.03037,-0.096529 0.07004,-0.096529 0.05058,0 0.07004,0.051879 0.07004,0.1867647 0,0.1348856 -0.01946,0.1867647 -0.07004,0.1867647 -0.03852,0 -0.07004,-0.033794 -0.07004,-0.075098 0,-0.084839 -0.152211,-0.063534 -0.392376,0.054921 -0.169677,0.083689 -0.163873,0.084831 -0.134756,-0.026514 0.02435,-0.093111 0.0014,-0.093382 -7.892033,-0.093382 l -7.9164536,0 -0.030542,0.096229 C 3.5541736,1.9701102 3.4897247,2.0365158 3.4277517,2.0647526 3.3159566,2.1156898 3.3150735,2.1215625 3.3150735,2.814027 v 0.6979347 l 0.1284007,-0.03088 C 3.5140946,3.4640977 3.650368,3.412076 3.7463039,3.365478 l 0.1744289,-0.084724 -0.027628,0.1100772 -0.027628,0.1100771 2.1877574,0.012611 2.1877575,0.012611 -2.1882581,0.0112 C 3.8901863,3.5483979 3.8647632,3.5496266 3.8888963,3.6419118 3.9180945,3.753566 3.9242405,3.7525179 3.7500043,3.6655975 3.6731636,3.6272643 3.5447971,3.5828014 3.4647454,3.566791 L 3.3191968,3.5376813 3.3031859,3.904962 C 3.2943799,4.1069664 3.2829466,3.7837363 3.2777786,3.1866728 Z M 14.427573,3.8928769 V 3.5368567 l -0.14761,0.029522 c -0.08119,0.016237 -0.21048,0.060886 -0.287321,0.099219 -0.178427,0.089011 -0.184191,0.088112 -0.148856,-0.023222 0.02912,-0.09174 0.0018,-0.093079 -2.15632,-0.1055281 l -2.1858117,-0.012609 2.1878737,-0.0112 2.187875,-0.0112 -0.02774,-0.1105421 -0.02774,-0.110542 0.174429,0.084724 c 0.09594,0.046598 0.231326,0.098398 0.300867,0.1151112 l 0.126439,0.030388 0.0158,-0.3897714 c 0.0087,-0.2149221 0.02007,-0.049409 0.02531,0.3689602 0.0052,0.4173024 -0.001,0.7587316 -0.01384,0.7587316 -0.01284,0 -0.02335,-0.1602091 -0.02335,-0.3560202 z M 30.536029,3.1824947 V 2.1160922 l -0.11544,-0.052598 c -0.147978,-0.067423 -0.200608,-0.2675385 -0.112056,-0.4260677 0.04954,-0.088693 0.111399,-0.1236889 0.237301,-0.1342559 0.144035,-0.012089 0.186556,0.00771 0.275788,0.1284008 l 0.105498,0.1426932 7.887471,0 h 7.887471 l -0.02181,-0.1141193 -0.02182,-0.1141193 0.168119,0.084148 c 0.09247,0.046282 0.225899,0.098035 0.296519,0.1150088 0.107867,0.025925 0.128401,0.015785 0.128401,-0.063411 0,-0.051849 0.02101,-0.094272 0.04669,-0.094272 0.02568,0 0.04669,0.084044 0.04669,0.1867647 0,0.1027206 -0.02101,0.1867647 -0.04669,0.1867647 -0.02568,0 -0.04669,-0.031516 -0.04669,-0.070037 0,-0.094132 -0.12226,-0.086669 -0.361857,0.022088 -0.196429,0.089163 -0.198437,0.089152 -0.198437,-0.00103 0,-0.08998 -0.09723,-0.0911 -7.914155,-0.0911 -6.948774,0 -7.914154,0.00841 -7.914154,0.06896 0,0.037928 -0.05253,0.1033778 -0.116728,0.1454435 -0.115867,0.075919 -0.116728,0.081614 -0.116728,0.7723703 v 0.6958873 l 0.128401,-0.029706 c 0.07062,-0.016339 0.198021,-0.069345 0.283112,-0.1177919 l 0.15471,-0.088086 -0.01464,0.1052295 -0.01464,0.1052296 2.171139,0.024046 2.17114,0.024047 -2.178441,0.010972 c -2.152787,0.010843 -2.178154,0.012072 -2.154021,0.1043543 0.01343,0.05136 0.01591,0.093382 0.0055,0.093382 -0.01041,0 -0.101343,-0.042022 -0.202083,-0.093382 -0.322006,-0.1641679 -0.350184,-0.1435039 -0.350184,0.2568015 0,0.2023284 -0.01971,0.3501838 -0.04669,0.3501838 -0.02976,0 -0.04669,-0.3865949 -0.04669,-1.0664024 z M 41.69522,3.8987133 c 0,-0.4010608 -0.01844,-0.4139169 -0.366956,-0.2557761 -0.248026,0.1125448 -0.236574,0.1125758 -0.206989,-5.603e-4 0.02397,-0.091655 -0.0054,-0.093088 -2.163838,-0.1055281 l -2.188136,-0.012611 2.187874,-0.0112 2.187874,-0.0112 -0.02921,-0.1163992 -0.02921,-0.1163992 0.175899,0.090349 c 0.09674,0.049692 0.233679,0.1043497 0.304299,0.1214609 l 0.128401,0.031111 V 3.130615 c 0,-0.2423415 0.01702,-0.3708281 0.04669,-0.35249 0.02787,0.017222 0.04669,0.3195413 0.04669,0.7498144 0,0.449511 -0.01758,0.7209577 -0.04669,0.7209577 -0.02698,0 -0.04669,-0.1478554 -0.04669,-0.3501838 z M 19.937132,4.0154412 c 0,-0.1348856 0.01946,-0.1867647 0.07004,-0.1867647 0.05058,0 0.07004,0.051879 0.07004,0.1867647 0,0.1348856 -0.01946,0.1867647 -0.07004,0.1867647 -0.05058,0 -0.07004,-0.051879 -0.07004,-0.1867647 z m 27.314338,0 c 0,-0.1027206 0.02101,-0.1867647 0.04669,-0.1867647 0.02568,0 0.04669,0.084044 0.04669,0.1867647 0,0.1027206 -0.02101,0.1867647 -0.04669,0.1867647 -0.02568,0 -0.04669,-0.084044 -0.04669,-0.1867647 z M 8.3909956,3.8846473 c 0.031141,-0.01979 0.1032539,-0.2102151 0.16025,-0.4231673 0.088494,-0.3306358 0.093863,-0.3933658 0.036762,-0.4295002 -0.044298,-0.028032 0.028477,-0.042556 0.215614,-0.043029 0.1584026,-4.009e-4 0.3070923,0.023896 0.338511,0.055314 0.086679,0.086679 0.066304,0.2583169 -0.039457,0.3323951 -0.080389,0.056307 -0.08408,0.071258 -0.023346,0.094565 C 9.1812397,3.510331 9.1689076,3.717857 9.0580881,3.8286765 8.982969,3.9037956 8.9030673,3.921919 8.6495403,3.9213439 8.4761993,3.9209507 8.3598542,3.9044372 8.3909956,3.8846473 Z M 8.8743929,3.8270337 C 9.0025886,3.7584255 8.9972623,3.5184641 8.8666233,3.4770009 8.7401607,3.4368633 8.6877397,3.4927485 8.6534087,3.7043055 c -0.022824,0.1406452 -0.013674,0.1710622 0.051456,0.1710622 0.043569,0 0.1198563,-0.02175 0.1695283,-0.048334 z M 8.987201,3.3325993 C 9.091082,3.2287184 9.0601676,3.0618941 8.9336977,3.0438774 8.8341051,3.0296896 8.8279959,3.0389829 8.7477442,3.3267464 8.7179022,3.433753 8.8820354,3.4377649 8.987201,3.3325993 Z m 26.695567,0.5253885 c 0.03524,-0.035239 0.104285,-0.2255623 0.153436,-0.4229406 0.07773,-0.3121267 0.08046,-0.3645037 0.02097,-0.4021258 -0.04631,-0.029294 0.02473,-0.043487 0.220094,-0.043971 0.200763,-4.976e-4 0.310795,0.021596 0.361857,0.072657 0.09912,0.099124 0.09278,0.1449188 -0.03821,0.2759127 -0.08528,0.08528 -0.09629,0.1174542 -0.04669,0.1364858 0.105366,0.040433 0.07924,0.2926325 -0.03888,0.3753688 -0.140139,0.098157 -0.730155,0.1061907 -0.632578,0.00861 z m 0.430335,-0.011459 c 0.194583,-0.074669 0.178632,-0.3913818 -0.01971,-0.3913818 -0.108253,0 -0.123749,0.022987 -0.16549,0.2454843 -0.03426,0.1826428 0.0063,0.2145646 0.185201,0.1458975 z m 0.141745,-0.5139296 c 0.103117,-0.1031175 0.07301,-0.2706933 -0.05182,-0.2885018 -0.07261,-0.010358 -0.10713,0.016761 -0.128202,0.1007175 -0.01586,0.063191 -0.04168,0.1483606 -0.05738,0.1892665 -0.03879,0.1010737 0.135937,0.099983 0.237402,-0.00148 z M 19.937132,3.2683824 c 0,-0.1348856 0.01946,-0.1867647 0.07004,-0.1867647 0.05058,0 0.07004,0.051879 0.07004,0.1867647 0,0.1348856 -0.01946,0.1867647 -0.07004,0.1867647 -0.05058,0 -0.07004,-0.051879 -0.07004,-0.1867647 z m 27.314338,0 c 0,-0.1027206 0.02101,-0.1867647 0.04669,-0.1867647 0.02568,0 0.04669,0.084044 0.04669,0.1867647 0,0.1027206 -0.02101,0.1867647 -0.04669,0.1867647 -0.02568,0 -0.04669,-0.084044 -0.04669,-0.1867647 z M 19.937132,2.5213236 c 0,-0.1348857 0.01946,-0.1867648 0.07004,-0.1867648 0.05058,0 0.07004,0.051879 0.07004,0.1867648 0,0.1348856 -0.01946,0.1867647 -0.07004,0.1867647 -0.05058,0 -0.07004,-0.051879 -0.07004,-0.1867647 z m 27.314338,0 c 0,-0.1027206 0.02101,-0.1867648 0.04669,-0.1867648 0.02568,0 0.04669,0.084044 0.04669,0.1867648 0,0.1027205 -0.02101,0.1867647 -0.04669,0.1867647 -0.02568,0 -0.04669,-0.084044 -0.04669,-0.1867647 z M 11.205882,1.4941177 c 0,-0.02568 0.03103,-0.046691 0.06896,-0.046691 0.03793,0 0.102879,-0.051767 0.144336,-0.1150381 0.06791,-0.1036404 0.06837,-0.1290838 0.0047,-0.2568015 -0.06616,-0.13261282 -0.06507,-0.14176336 0.01676,-0.14176336 0.04812,0 0.105864,0.0328442 0.128329,0.0729871 0.03704,0.066189 0.04649,0.066189 0.101419,0 0.06252,-0.0753313 0.189214,-0.10035207 0.189214,-0.0373677 0,0.0195906 -0.04728,0.05636 -0.105056,0.0817096 -0.106958,0.046925 -0.158033,0.2050149 -0.108195,0.3348914 0.02228,0.058047 0.04098,0.060789 0.09708,0.014233 0.03901,-0.032372 0.06948,-0.037186 0.06948,-0.010976 0,0.077481 -0.134098,0.1637915 -0.209515,0.1348512 -0.03885,-0.014907 -0.07063,-0.05928 -0.07063,-0.098606 0,-0.099395 -0.05983,-0.089266 -0.129237,0.02188 -0.06031,0.096573 -0.197601,0.1290133 -0.197601,0.046691 z m 27.267647,0 c 0,-0.02568 0.02826,-0.046691 0.0628,-0.046691 0.0917,0 0.217347,-0.155399 0.217347,-0.2688157 0,-0.053924 -0.03302,-0.1310609 -0.07337,-0.1714154 -0.0667,-0.0667017 -0.06246,-0.0733719 0.04669,-0.0733719 0.08059,0 0.120063,0.0254035 0.120063,0.0772734 0,0.071904 0.0059,0.071904 0.08539,0 0.08897,-0.080518 0.194761,-0.10314345 0.194761,-0.041654 0,0.0195906 -0.04727,0.0565241 -0.105055,0.0820743 -0.08115,0.035883 -0.103405,0.081669 -0.09781,0.2011954 0.0086,0.1844511 0.0516,0.2410659 0.111302,0.1466705 0.02389,-0.037777 0.04376,-0.044994 0.04415,-0.016038 0.0011,0.082106 -0.130492,0.1708568 -0.208801,0.1408069 -0.03885,-0.014907 -0.07063,-0.062942 -0.07063,-0.1067449 0,-0.068758 -0.01477,-0.065768 -0.108064,0.02188 -0.113929,0.1070299 -0.218774,0.1333068 -0.218774,0.05483 z"
       id="path1" /></g></svg>
