<?xml version="1.0" encoding="UTF-8" standalone="no"?>
<!-- Created with Inkscape (http://www.inkscape.org/) -->

<svg
   width="230.2126mm"
   height="84.96109mm"
   viewBox="0 0 230.2126 84.96109"
   version="1.1"
   id="svg5"
   inkscape:version="1.1.1 (3bf5ae0d25, 2021-09-20)"
   sodipodi:docname="secondary_consol.svg"
   xmlns:inkscape="http://www.inkscape.org/namespaces/inkscape"
   xmlns:sodipodi="http://sodipodi.sourceforge.net/DTD/sodipodi-0.dtd"
   xmlns="http://www.w3.org/2000/svg"
   xmlns:svg="http://www.w3.org/2000/svg">
  <sodipodi:namedview
     id="namedview7"
     pagecolor="#505050"
     bordercolor="#ffffff"
     borderopacity="1"
     inkscape:pageshadow="0"
     inkscape:pageopacity="0"
     inkscape:pagecheckerboard="1"
     inkscape:document-units="mm"
     showgrid="false"
     inkscape:zoom="0.81134749"
     inkscape:cx="498.55334"
     inkscape:cy="122.63549"
     inkscape:window-width="1536"
     inkscape:window-height="807"
     inkscape:window-x="-8"
     inkscape:window-y="-8"
     inkscape:window-maximized="1"
     inkscape:current-layer="layer1" />
  <defs
     id="defs2">
    <clipPath
       id="clip0">
      <rect
         x="-11"
         y="343"
         width="904"
         height="343"
         id="rect831" />
    </clipPath>
  </defs>
  <g
     inkscape:label="Layer 1"
     inkscape:groupmode="layer"
     id="layer1"
     transform="translate(97.120274,-70.508584)">
    <path
       d="m 17.55079,114.28634 -5.784316,6.78161 0.201295,0.17171 5.784325,-6.78162 z m -6.259958,5.91227 -0.568378,2.29721 2.178818,-0.92363 z"
       fill="#161618"
       id="path836"
       style="stroke-width:0.264583;fill:#ffffff" />
    <path
       d="m 55.869634,128.08277 -3.094252,7.99395 0.24675,0.0955 3.094246,-7.99397 z m -3.830508,7.33067 0.222911,2.35598 1.751036,-1.59189 z"
       fill="#f5f5f5"
       id="path838"
       style="stroke-width:0.264583" />
    <text
       fill="#7f7f7f"
       font-family="Calibri, Calibri_MSFontService, sans-serif"
       font-weight="400"
       font-size="5.55625px"
       id="text842"
       x="11.69964"
       y="111.06489"
       style="stroke-width:0.264583;fill:#ffffff">Primary consolidation<tspan
   fill="#000000"
   font-weight="700"
   font-size="7.14375px"
   x="30.519268"
   y="125.88155"
   id="tspan840"
   style="stroke-width:0.0700043;fill:#ffffff">Secondary compression</tspan></text>
    <path
       d="M -37.696216,97.131936 -23.527593,96.90963"
       stroke="#f5f5f5"
       stroke-linejoin="round"
       stroke-miterlimit="10"
       stroke-dasharray="1.05833, 0.79375"
       fill="none"
       fill-rule="evenodd"
       id="path844"
       style="stroke-width:0.264583" />
    <path
       d="m -39.636405,98.100311 v 33.796019 h -0.617538 V 98.100311 Z m -1.367102,0 c 0,-0.584465 0.473868,-1.058334 1.058333,-1.058334 0.584464,0 1.058333,0.473869 1.058333,1.058334 0,0.584464 -0.473869,1.058333 -1.058333,1.058333 -0.584465,0 -1.058333,-0.473869 -1.058333,-1.058333 z m 2.116666,33.443329 -1.058333,2.11667 -1.058333,-2.11667 z"
       fill="#1d1d1f"
       id="path846"
       style="stroke-width:0.264583;fill:#ffffff" />
    <text
       fill="#7f7f7f"
       font-family="Calibri, Calibri_MSFontService, sans-serif"
       font-style="italic"
       font-weight="400"
       font-size="3.96875px"
       id="text850"
       x="-71.501762"
       y="109.47739"
       style="stroke-width:0.264583">Final settlement in <tspan
   font-size="3.96875px"
   x="-77.058014"
   y="113.9753"
   id="tspan848"
   style="stroke-width:0.0700043">Primary Consolidation</tspan></text>
    <path
       d="m -30.287883,97.174269 c 5.884334,0.77814 11.768402,1.556544 16.288544,3.305701 4.519877,1.74943 7.5239561,4.18756 10.8312477,7.19032 3.30729167,3.00276 9.012502,10.82649 9.012502,10.82649 2.9350229,3.5261 5.8015183,7.75467 8.5989583,10.33065 2.797175,2.57572 6.159764,4.06321 8.185414,5.12392"
       stroke="#1d1d1f"
       stroke-width="1.41111"
       stroke-linejoin="round"
       stroke-miterlimit="10"
       fill="none"
       fill-rule="evenodd"
       id="path852"
       style="stroke:#0000ff" />
    <text
       font-family="Calibri, Calibri_MSFontService, sans-serif"
       font-style="italic"
       font-weight="400"
       font-size="5.55625px"
       id="text872"
       x="-29.482225"
       y="74.287811"
       style="stroke-width:0.264583;fill:#ffffff">Consolidation curve <tspan
   font-style="normal"
   font-size="5.55625px"
   x="-21.07906"
   y="81.166977"
   id="tspan854"
   style="stroke-width:0.0700043;fill:#ffffff">(</tspan><tspan
   font-family="'Cambria Math', 'Cambria Math_MSFontService', sans-serif"
   font-style="normal"
   font-size="5.55625px"
   x="-19.359268"
   y="81.166977"
   id="tspan856"
   style="stroke-width:0.0700043;fill:#ffffff">ğ‘†</tspan><tspan
   font-size="5.55625px"
   x="-14.970704"
   y="81.166977"
   id="tspan858"
   style="stroke-width:0.0700043;fill:#ffffff">vs</tspan><tspan
   font-family="'Cambria Math', 'Cambria Math_MSFontService', sans-serif"
   font-style="normal"
   font-size="5.55625px"
   x="-8.9981852"
   y="81.166977"
   id="tspan860"
   style="stroke-width:0.0700043;fill:#ffffff">log</tspan><tspan
   font-family="'Cambria Math', 'Cambria Math_MSFontService', sans-serif"
   font-style="normal"
   font-size="5.55625px"
   x="-1.6779581"
   y="81.166977"
   id="tspan862"
   style="stroke-width:0.0700043;fill:#ffffff">â¡</tspan><tspan
   font-family="'Cambria Math', 'Cambria Math_MSFontService', sans-serif"
   font-style="normal"
   font-size="5.55625px"
   x="-1.6779581"
   y="81.166977"
   id="tspan864"
   style="stroke-width:0.0700043;fill:#ffffff">(</tspan><tspan
   font-family="'Cambria Math', 'Cambria Math_MSFontService', sans-serif"
   font-style="normal"
   font-size="5.55625px"
   x="0.65910649"
   y="81.166977"
   id="tspan866"
   style="stroke-width:0.0700043;fill:#ffffff">ğ‘¡</tspan><tspan
   font-family="'Cambria Math', 'Cambria Math_MSFontService', sans-serif"
   font-style="normal"
   font-size="5.55625px"
   x="3.0456493"
   y="81.166977"
   id="tspan868"
   style="stroke-width:0.0700043;fill:#ffffff">)</tspan><tspan
   font-style="normal"
   font-size="5.55625px"
   x="5.3827119"
   y="81.166977"
   id="tspan870"
   style="stroke-width:0.0700043;fill:#ffffff">)</tspan></text>
    <path
       d="m 101.1841,150.35102 c -0.0704,0.0524 -0.12303,0.10795 -0.15822,0.16642 -0.0352,0.0585 -0.0526,0.12515 -0.0526,0.1995 0,0.12409 0.0492,0.21537 0.14764,0.27384 0.0987,0.0585 0.24924,0.0878 0.45164,0.0878 0.12409,0 0.23072,-0.0167 0.31935,-0.0497 0.0889,-0.0331 0.1569,-0.0804 0.20373,-0.14261 0.0468,-0.0619 0.0704,-0.13414 0.0704,-0.21696 0,-0.0386 -0.005,-0.0762 -0.0145,-0.11271 -0.01,-0.0365 -0.0281,-0.0691 -0.0548,-0.0982 -0.027,-0.0288 -0.0651,-0.0519 -0.11483,-0.0691 -0.0495,-0.0175 -0.1143,-0.0259 -0.1942,-0.0259 h -0.30798 c -0.11165,0 -0.21008,-0.004 -0.29554,-0.0124 z m -1.928545,-1.88092 c -0.166952,0 -0.294745,0.0722 -0.383645,0.21696 -0.0889,0.14472 -0.13335,0.35057 -0.13335,0.61806 0,0.2839 0.04524,0.50192 0.135466,0.65432 0.09022,0.15213 0.219604,0.22833 0.387615,0.22833 0.09234,0 0.170921,-0.0225 0.235744,-0.0672 0.06456,-0.0447 0.117475,-0.10504 0.157956,-0.18098 0.04075,-0.0757 0.07011,-0.16351 0.08784,-0.26352 0.01799,-0.0998 0.02699,-0.20426 0.02699,-0.313 0,-0.20267 -0.02249,-0.37068 -0.0672,-0.50456 -0.04471,-0.13362 -0.105834,-0.23178 -0.182827,-0.29449 -0.07726,-0.0627 -0.165365,-0.0939 -0.264584,-0.0939 z m 2.279915,-0.006 c -0.13097,0 -0.23098,0.0434 -0.29977,0.13017 -0.0688,0.0868 -0.10346,0.2122 -0.10346,0.37624 0,0.17224 0.0352,0.30533 0.10557,0.39899 0.0701,0.0937 0.17145,0.1405 0.30375,0.1405 0.0704,0 0.13017,-0.0132 0.17991,-0.0402 0.0495,-0.027 0.09,-0.0638 0.12092,-0.1106 0.031,-0.0468 0.0537,-0.10107 0.0683,-0.16219 0.0143,-0.0614 0.0217,-0.12594 0.0217,-0.19341 0,-0.12118 -0.0172,-0.22251 -0.0519,-0.30374 -0.0344,-0.0815 -0.0812,-0.14102 -0.1405,-0.17886 -0.0593,-0.0378 -0.12753,-0.0569 -0.20452,-0.0569 z m 0.004,-0.15716 c 0.0992,0 0.19791,0.0119 0.2958,0.0352 h 0.73158 v 0.20876 l -0.38233,-0.0143 -0.0185,0.0228 c 0.0426,0.0426 0.0765,0.1008 0.10107,0.17462 0.0249,0.0736 0.0373,0.1532 0.0373,0.23866 0,0.22463 -0.0693,0.39793 -0.2077,0.5199 -0.13864,0.12198 -0.33523,0.18283 -0.59028,0.18283 -0.1143,0 -0.21273,-0.0143 -0.29554,-0.0434 -0.10478,0.0799 -0.15717,0.15848 -0.15717,0.23574 0,0.0511 0.0101,0.0894 0.0302,0.11563 0.0198,0.0262 0.0529,0.045 0.0992,0.0558 0.046,0.0111 0.11616,0.0167 0.20982,0.0167 h 0.49609 c 0.14605,0 0.26512,0.0228 0.35746,0.0683 0.0923,0.0453 0.15822,0.10637 0.19737,0.18283 0.0394,0.0765 0.059,0.16563 0.059,0.26776 0,0.12938 -0.0373,0.245 -0.11166,0.34607 -0.0744,0.10134 -0.18177,0.18019 -0.32252,0.23681 -0.1405,0.0564 -0.30454,0.0847 -0.49187,0.0847 -0.13917,0 -0.26617,-0.008 -0.38126,-0.0249 -0.11509,-0.0164 -0.21378,-0.0445 -0.2958,-0.0836 -0.0818,-0.0391 -0.14526,-0.091 -0.18997,-0.15504 -0.045,-0.064 -0.0672,-0.14446 -0.0672,-0.24077 0,-0.0868 0.0288,-0.16563 0.0868,-0.23681 0.0579,-0.0709 0.13997,-0.13335 0.24607,-0.18706 -0.0648,-0.0262 -0.11589,-0.0645 -0.1532,-0.11562 -0.037,-0.0511 -0.0556,-0.11086 -0.0556,-0.17992 0,-0.0786 0.022,-0.15054 0.0662,-0.2159 0.0439,-0.0656 0.1217,-0.14022 0.23336,-0.22436 -0.0992,-0.058 -0.17463,-0.13653 -0.22622,-0.23575 -0.0516,-0.0992 -0.0775,-0.21219 -0.0775,-0.33893 0,-0.11853 0.0196,-0.22145 0.059,-0.30903 0.0392,-0.0873 0.0937,-0.15981 0.16325,-0.21696 0.0696,-0.0572 0.15187,-0.10001 0.24685,-0.12806 0.0953,-0.0283 0.19791,-0.0426 0.30798,-0.0426 z m -2.275683,0 c 0.294746,0 0.518055,0.086 0.669661,0.25743 0.151602,0.17172 0.227272,0.41778 0.227272,0.73899 0,0.22886 -0.0378,0.42174 -0.1135,0.5789 -0.07594,0.1569 -0.183358,0.27438 -0.322528,0.35243 -0.139171,0.0778 -0.303742,0.11668 -0.493977,0.11668 -0.286544,0 -0.505355,-0.0844 -0.656432,-0.25321 -0.150812,-0.1688 -0.226218,-0.41857 -0.226218,-0.7493 0,-0.22727 0.03969,-0.41962 0.118797,-0.57679 0.07937,-0.15716 0.187855,-0.27384 0.325703,-0.35031 0.137583,-0.0765 0.294745,-0.11482 0.471222,-0.11482 z m -1.562629,-0.94668 h 0.123825 v 2.44131 c 0,0.11853 0.0056,0.20082 0.01667,0.24685 0.01111,0.0463 0.03202,0.0815 0.06297,0.10557 0.03096,0.0241 0.08176,0.045 0.151871,0.063 v 0.10134 h -0.820473 v -0.10134 c 0.06879,-0.018 0.116681,-0.0365 0.143669,-0.0558 0.02672,-0.0193 0.04604,-0.0423 0.05794,-0.0691 0.01164,-0.027 0.01984,-0.0635 0.02461,-0.1098 0.005,-0.046 0.0074,-0.10637 0.0074,-0.18071 v -1.73011 c 0,-0.1323 -0.0011,-0.22464 -0.0032,-0.27702 -0.0021,-0.0524 -0.0077,-0.0968 -0.01667,-0.13335 -0.0087,-0.0365 -0.02117,-0.0651 -0.03704,-0.0857 -0.01588,-0.0206 -0.03731,-0.0373 -0.06403,-0.0497 -0.02699,-0.0124 -0.07567,-0.0246 -0.145785,-0.037 v -0.10769 z"
       fill-rule="evenodd"
       id="path874"
       style="stroke-width:0.264583;fill:#ffffff" />
    <text
       fill="#000000"
       fill-opacity="0"
       font-family="Arial, Arial_MSFontService, sans-serif"
       font-size="3.88194px"
       x="97.202911"
       y="150.75662"
       id="text876"
       style="stroke-width:0.264583;fill:#ffffff">log</text>
    <path
       d="m 104.16331,147.33107 0.0558,0.15901 c -0.32253,0.10636 -0.56118,0.31327 -0.71623,0.62124 -0.15504,0.30798 -0.23257,0.6948 -0.23257,1.16073 0,0.48234 0.0775,0.87974 0.23257,1.19274 0.15505,0.31274 0.39158,0.52229 0.71014,0.62839 l -0.0497,0.15901 c -0.40375,-0.1061 -0.71305,-0.33443 -0.92816,-0.68527 -0.21484,-0.35057 -0.32226,-0.77549 -0.32226,-1.27423 0,-0.49742 0.10769,-0.92234 0.32332,-1.27424 0.21564,-0.35216 0.52467,-0.58129 0.9271,-0.68738 z"
       fill-rule="evenodd"
       id="path878"
       style="stroke-width:0.264583;fill:#ffffff" />
    <text
       fill="#000000"
       fill-opacity="0"
       font-family="Arial, Arial_MSFontService, sans-serif"
       font-size="3.9212px"
       x="102.91289"
       y="150.76218"
       id="text880"
       style="stroke-width:0.264583;fill:#ffffff">(</text>
    <path
       d="m 105.1129,147.83139 h 0.28522 l -0.11377,0.51038 h 0.62839 l -0.0455,0.20876 h -0.62839 l -0.18388,0.80222 c -0.036,0.15557 -0.0585,0.26749 -0.0683,0.33575 -0.01,0.0683 -0.0145,0.12304 -0.0145,0.16431 0,0.17092 0.0712,0.25638 0.21299,0.25638 0.0606,0 0.12515,-0.023 0.19341,-0.0693 0.068,-0.046 0.14896,-0.12488 0.24289,-0.23654 l 0.11986,0.12383 c -0.11986,0.14473 -0.23548,0.25162 -0.34634,0.32041 -0.11086,0.0691 -0.22702,0.10345 -0.34819,0.10345 -0.28814,0 -0.43207,-0.14552 -0.43207,-0.43603 0,-0.0923 0.0116,-0.18971 0.0352,-0.29157 l 0.24395,-1.07289 h -0.3474 l 0.031,-0.14261 c 0.0815,-0.001 0.14314,-0.007 0.18495,-0.0185 0.0421,-0.0111 0.0773,-0.0262 0.10557,-0.0455 0.0283,-0.0193 0.054,-0.0468 0.0775,-0.0825 0.0233,-0.036 0.046,-0.0817 0.0683,-0.13758 0.022,-0.0558 0.055,-0.1532 0.0992,-0.29237 z"
       fill-rule="evenodd"
       id="path882"
       style="stroke-width:0.264583;fill:#ffffff" />
    <text
       fill="#000000"
       fill-opacity="0"
       font-family="Arial, Arial_MSFontService, sans-serif"
       font-size="2.51974px"
       x="104.54642"
       y="150.03618"
       id="text884"
       style="stroke-width:0.264583;fill:#ffffff">ğ‘¡</text>
    <path
       d="m 106.21859,147.33107 c 0.40244,0.10609 0.71147,0.33522 0.9271,0.68738 0.21564,0.3519 0.32359,0.77682 0.32359,1.27424 0,0.49874 -0.10742,0.92366 -0.32253,1.27423 -0.21484,0.35084 -0.5244,0.57917 -0.92816,0.68527 l -0.0495,-0.15901 c 0.31829,-0.1061 0.55509,-0.31565 0.71014,-0.62839 0.15478,-0.313 0.2323,-0.7104 0.2323,-1.19274 0,-0.46593 -0.077,-0.85275 -0.23151,-1.16073 -0.15425,-0.30797 -0.39343,-0.51488 -0.71728,-0.62124 z"
       fill-rule="evenodd"
       id="path886"
       style="stroke-width:0.264583;fill:#ffffff" />
    <text
       fill="#000000"
       fill-opacity="0"
       font-family="Arial, Arial_MSFontService, sans-serif"
       font-size="3.9212px"
       x="106.16277"
       y="150.76218"
       id="text888"
       style="stroke-width:0.264583;fill:#ffffff">)</text>
    <text
       font-family="Calibri, Calibri_MSFontService, sans-serif"
       font-weight="400"
       font-size="4.23333px"
       id="text890"
       x="108.81839"
       y="150.22324"
       style="stroke-width:0.264583;fill:#ffffff">[s]</text>
    <path
       d="M -37.960799,138.97844 H 73.799199"
       stroke="#f5f5f5"
       stroke-linejoin="round"
       stroke-miterlimit="10"
       stroke-dasharray="1.05833, 0.79375"
       fill="none"
       fill-rule="evenodd"
       id="path892"
       style="stroke-width:0.264583" />
    <path
       d="m -39.63667,135.13483 0.07197,3.0734 -0.617273,0.0146 -0.0717,-3.07367 z m -1.366573,0.0318 c -0.01349,-0.5842 0.448998,-1.06891 1.033463,-1.08267 0.5842,-0.0135 1.068916,0.449 1.082675,1.03346 0.01349,0.5842 -0.448998,1.06892 -1.033463,1.08268 -0.5842,0.0135 -1.068917,-0.449 -1.082675,-1.03347 z m 2.179638,2.6715 -1.008592,2.14074 -1.107546,-2.09126 z"
       fill="#c00000"
       id="path894"
       style="stroke-width:0.264583" />
    <path
       d="m -14.902097,82.365011 -0.08282,1.471877 -0.216165,1.434306 -0.350043,1.336675 -0.467784,1.205177 -0.535781,1.006475 c -0.0032,0.0064 -0.0071,0.01244 -0.01164,0.01826 l -0.595312,0.777081 c -0.0069,0.0093 -0.01508,0.01746 -0.02434,0.02434 l -0.644789,0.496094 c -0.01376,0.01058 -0.0291,0.01826 -0.04577,0.02275 l -0.661458,0.182034 -0.661459,0.181768 0.0471,-0.02381 -0.628385,0.496094 0.02302,-0.02328 -0.595312,0.777346 0.01164,-0.01826 -0.529167,0.992187 -0.456406,1.176338 -0.342636,1.308365 -0.212196,1.408377 -0.08149,1.459441 -0.264054,-0.01482 0.08387,-1.484048 0.218017,-1.435894 0.351896,-1.337469 0.469635,-1.204912 0.529167,-0.992188 c 0.0032,-0.0063 0.0071,-0.01243 0.01164,-0.01826 l 0.595312,-0.777081 c 0.0066,-0.0087 0.01429,-0.01667 0.02302,-0.02328 l 0.628385,-0.496093 c 0.01376,-0.01111 0.0299,-0.01905 0.04683,-0.02381 l 0.661458,-0.182033 0.661458,-0.181769 -0.04551,0.02275 0.64479,-0.496094 -0.02434,0.02434 0.595312,-0.777346 -0.01164,0.01826 0.522552,-0.9779 0.458523,-1.176073 0.344223,-1.309159 0.213783,-1.409964 0.08281,-1.471613 z m -6.488642,15.741914 c -0.02196,0.388938 -0.355071,0.686594 -0.744008,0.664634 -0.389202,-0.0217 -0.686859,-0.354807 -0.664898,-0.744009 0.0217,-0.388937 0.354806,-0.686593 0.744008,-0.664633 0.388938,0.0217 0.686594,0.354806 0.664898,0.744008 z"
       fill="#f5f5f5"
       id="path896"
       style="stroke-width:0.264583" />
    <path
       d="m -35.976424,145.33002 2.7e-5,-62.53136 h -0.264584 l -2.7e-5,62.53136 z m 0.926068,-62.17867 -1.058332,-2.116667 -1.058335,2.116667 z"
       fill="#c3c3c3"
       id="path898"
       style="stroke-width:0.264583" />
    <path
       d="M -36.108716,145.19614 H 105.71933 v 0.26459 H -36.108716 Z m 141.474826,-0.92604 2.11666,1.05834 -2.11666,1.05833 z"
       fill="#c3c3c3"
       id="path900"
       style="stroke-width:0.264583" />
    <text
       font-family="Calibri, Calibri_MSFontService, sans-serif"
       font-weight="400"
       font-size="4.23333px"
       id="text902"
       x="-54.969803"
       y="78.256561"
       style="stroke-width:0.264583;fill:#ffffff">Settlement</text>
    <path
       d="m -50.341182,80.326396 c 0.126735,0 0.24421,0.0087 0.352425,0.02593 0.10795,0.0172 0.227541,0.04657 0.35851,0.08784 l -0.115623,0.531284 h -0.198437 c -0.0056,-0.117211 -0.02355,-0.209286 -0.05398,-0.275961 -0.03016,-0.06694 -0.07355,-0.114829 -0.130175,-0.143669 -0.05636,-0.0291 -0.131498,-0.04339 -0.225161,-0.04339 -0.114564,0 -0.215106,0.02328 -0.301889,0.07011 -0.08678,0.04683 -0.152929,0.110596 -0.198438,0.191294 -0.04551,0.0807 -0.06826,0.170392 -0.06826,0.269611 0,0.103452 0.02725,0.193939 0.08176,0.271991 0.0545,0.07779 0.15875,0.169863 0.313002,0.275961 0.135202,0.09366 0.238125,0.17727 0.309033,0.251089 0.07117,0.07382 0.123296,0.151871 0.157163,0.234686 0.03387,0.08255 0.0508,0.178329 0.0508,0.287337 0,0.16801 -0.04048,0.317235 -0.121179,0.44741 -0.08043,0.130175 -0.194204,0.230717 -0.341048,0.30189 -0.146579,0.07091 -0.313796,0.106363 -0.501121,0.106363 -0.126735,0 -0.263525,-0.01032 -0.410369,-0.03096 -0.146844,-0.02064 -0.278077,-0.04683 -0.3937,-0.07858 l 0.12409,-0.56859 h 0.198437 c 0,0.168275 0.03889,0.293423 0.116682,0.37518 0.07779,0.08202 0.198172,0.123031 0.360627,0.123031 0.187589,0 0.334962,-0.0508 0.442383,-0.152929 0.107421,-0.101865 0.161396,-0.243946 0.161396,-0.425715 0,-0.08414 -0.01482,-0.158221 -0.04445,-0.22225 -0.02963,-0.06403 -0.07461,-0.125412 -0.134409,-0.183885 -0.06006,-0.05874 -0.146579,-0.125942 -0.259556,-0.201613 -0.101864,-0.06879 -0.186531,-0.136789 -0.254264,-0.203729 -0.06747,-0.06667 -0.12118,-0.141552 -0.161132,-0.224102 -0.03995,-0.08282 -0.06006,-0.175154 -0.06006,-0.277019 0,-0.162718 0.03942,-0.305858 0.118004,-0.429948 0.07858,-0.124089 0.189442,-0.219868 0.332846,-0.287337 0.14314,-0.06747 0.308504,-0.101336 0.496094,-0.101336 z"
       fill-rule="evenodd"
       id="path904"
       style="stroke-width:0.264583;fill:#ffffff" />
    <text
       fill="#000000"
       fill-opacity="0"
       font-family="Arial, Arial_MSFontService, sans-serif"
       font-size="2.88975px"
       x="-51.77787"
       y="82.855019"
       id="text906"
       style="stroke-width:0.264583;fill:#ffffff">ğ‘†</text>
    <text
       font-family="Calibri, Calibri_MSFontService, sans-serif"
       font-weight="400"
       font-size="4.23333px"
       id="text908"
       x="-48.506824"
       y="83.283646"
       style="stroke-width:0.264583;fill:#ffffff">[mm]</text>
    <path
       d="m 19.453783,132.89302 c 3.622675,1.71212 7.865269,2.42332 11.8364,3.09774 3.970867,0.67442 7.796742,0.635 11.989329,0.9488 l 13.16699,0.93398 c 4.319323,0.20743 8.534135,0.25929 12.748947,0.31115"
       stroke="#c00000"
       stroke-width="1.41111"
       stroke-linejoin="round"
       stroke-miterlimit="10"
       fill="none"
       fill-rule="evenodd"
       id="path910" />
    <path
       d="M -16.264966,91.353436 22.177669,138.92684"
       stroke="#f5f5f5"
       stroke-width="0.352777"
       stroke-linejoin="round"
       stroke-miterlimit="10"
       fill="none"
       fill-rule="evenodd"
       id="path912" />
    <path
       d="m -4.6232996,133.68677 96.3628366,6.4135"
       stroke="#ff0000"
       stroke-width="0.352777"
       stroke-linejoin="round"
       stroke-miterlimit="10"
       fill="none"
       fill-rule="evenodd"
       id="path914" />
    <path
       d="m 82.027741,138.87075 8.129323,-0.28919 0.07276,1.32292 z"
       stroke="#7030a0"
       stroke-width="0.529167"
       stroke-linejoin="round"
       stroke-miterlimit="10"
       fill="none"
       fill-rule="evenodd"
       id="path916" />
    <text
       fill="#7030a0"
       font-family="'Cambria Math', 'Cambria Math_MSFontService', sans-serif"
       font-weight="400"
       font-size="8.46667px"
       id="text926"
       x="92.524025"
       y="139.37531"
       style="stroke-width:0.264583">ğ¶<tspan
   font-size="6.08542px"
   x="97.099548"
   y="141.22739"
   id="tspan918"
   style="stroke-width:0.0700043">ğ›¼</tspan><tspan
   fill="#ff0000"
   font-size="12.7px"
   x="-48.262356"
   y="139.90448"
   id="tspan920"
   style="stroke-width:0.0700043">?</tspan><tspan
   fill="#ff0000"
   font-family="Calibri, Calibri_MSFontService, sans-serif"
   font-style="italic"
   font-size="5.02708px"
   x="-76.215576"
   y="132.49614"
   id="tspan922"
   style="stroke-width:0.0700043">Settlement in</tspan><tspan
   fill="#ff0000"
   font-family="Calibri, Calibri_MSFontService, sans-serif"
   font-style="italic"
   font-size="5.02708px"
   x="-97.130096"
   y="138.58156"
   id="tspan924"
   style="stroke-width:0.0700043">Secondary Compression</tspan></text>
    <path
       d="m 19.453783,148.06185 2.8e-5,-15.16872"
       stroke="#f5f5f5"
       stroke-linejoin="round"
       stroke-miterlimit="10"
       stroke-dasharray="1.05833, 0.79375"
       fill="none"
       fill-rule="evenodd"
       id="path928"
       style="stroke-width:0.264583" />
    <text
       fill="#7030a0"
       font-family="'Cambria Math', 'Cambria Math_MSFontService', sans-serif"
       font-weight="400"
       font-size="8.46667px"
       id="text932"
       x="15.062494"
       y="152.60448"
       style="stroke-width:0.264583">ğ‘¡<tspan
   font-size="6.08542px"
   x="18.290411"
   y="154.19199"
   id="tspan930"
   style="stroke-width:0.0700043">ğ‘</tspan></text>
    <rect
       x="29.50795"
       y="80.505516"
       width="103.45208"
       height="16.668749"
       stroke="#f5f5f5"
       stroke-linejoin="round"
       stroke-miterlimit="10"
       fill="none"
       id="rect934"
       style="stroke-width:0.264583" />
    <text
       fill="#7030a0"
       font-family="'Cambria Math', 'Cambria Math_MSFontService', sans-serif"
       font-weight="400"
       font-size="5.55625px"
       id="text948"
       x="32.047951"
       y="86.723228"
       style="stroke-width:0.264583;fill:#ffffff">ğ¶<tspan
   font-size="3.96875px"
   x="35.069492"
   y="88.046143"
   id="tspan936"
   style="stroke-width:0.0700043;fill:#ffffff">ğ›¼</tspan><tspan
   fill="#000000"
   font-family="Calibri, Calibri_MSFontService, sans-serif"
   font-size="5.55625px"
   x="38.163345"
   y="86.723228"
   id="tspan938"
   style="stroke-width:0.0700043;fill:#ffffff">= Coefficient of Secondary Compression</tspan><tspan
   font-size="5.55625px"
   x="32.047951"
   y="93.602394"
   id="tspan940"
   style="stroke-width:0.0700043;fill:#ffffff">ğ‘¡</tspan><tspan
   font-size="3.96875px"
   x="34.214001"
   y="94.925308"
   id="tspan942"
   style="stroke-width:0.0700043;fill:#ffffff">ğ‘</tspan><tspan
   fill="#000000"
   font-family="Calibri, Calibri_MSFontService, sans-serif"
   font-size="5.55625px"
   x="38.378529"
   y="93.602394"
   id="tspan944"
   style="stroke-width:0.0700043;fill:#ffffff">= I</tspan><tspan
   fill="#000000"
   font-family="Calibri, Calibri_MSFontService, sans-serif"
   font-size="5.55625px"
   x="43.890701"
   y="93.602394"
   id="tspan946"
   style="stroke-width:0.0700043;fill:#ffffff">nitiation of Secondary Compression</tspan></text>
    <path
       d="m 18.792325,135.27427 c 0,-0.36539 0.296069,-0.66146 0.661458,-0.66146 0.36539,0 0.661459,0.29607 0.661459,0.66146 0,0.36539 -0.296069,0.66146 -0.661459,0.66146 -0.365389,0 -0.661458,-0.29607 -0.661458,-0.66146 z"
       stroke="#f5f5f5"
       stroke-width="0.529167"
       stroke-linejoin="round"
       stroke-miterlimit="10"
       fill="#f5f5f5"
       fill-rule="evenodd"
       id="path950" />
    <path
       d="M -37.696216,132.62844 H 19.453783"
       stroke="#f5f5f5"
       stroke-linejoin="round"
       stroke-miterlimit="10"
       stroke-dasharray="1.05833, 0.79375"
       fill="none"
       fill-rule="evenodd"
       id="path952"
       style="stroke-width:0.264583" />
    <path
       d="m 18.527742,132.36385 c 0,-0.36539 0.296069,-0.66146 0.661458,-0.66146 0.36539,0 0.661458,0.29607 0.661458,0.66146 0,0.36539 -0.296068,0.66146 -0.661458,0.66146 -0.365389,0 -0.661458,-0.29607 -0.661458,-0.66146 z"
       stroke="#f5f5f5"
       stroke-width="0.529167"
       stroke-linejoin="round"
       stroke-miterlimit="10"
       fill="#f5f5f5"
       fill-rule="evenodd"
       id="path954" />
    <text
       font-family="Calibri, Calibri_MSFontService, sans-serif"
       font-weight="700"
       font-size="5.55625px"
       id="text966"
       x="46.40583"
       y="77.991982"
       style="stroke-width:0.264583;fill:#ffffff">Parameters to characterize SC<tspan
   fill="#7f7f7f"
   font-family="'Cambria Math', 'Cambria Math_MSFontService', sans-serif"
   font-weight="400"
   font-size="6.35px"
   x="-61.72356"
   y="120.85448"
   id="tspan956"
   style="stroke-width:0.0700043;fill:#ffffff">ğ‘†</tspan><tspan
   fill="#7f7f7f"
   font-family="'Cambria Math', 'Cambria Math_MSFontService', sans-serif"
   font-weight="400"
   font-size="4.7625px"
   x="-58.650951"
   y="121.91281"
   id="tspan958"
   style="stroke-width:0.0700043;fill:#ffffff">ğ‘ƒ</tspan><tspan
   fill="#7f7f7f"
   font-family="'Cambria Math', 'Cambria Math_MSFontService', sans-serif"
   font-weight="400"
   font-size="4.7625px"
   x="-55.652428"
   y="121.91281"
   id="tspan960"
   style="stroke-width:0.0700043;fill:#ffffff">ğ¶</tspan><tspan
   fill="#ff0000"
   font-family="'Cambria Math', 'Cambria Math_MSFontService', sans-serif"
   font-weight="400"
   font-size="6.35px"
   x="-62.524189"
   y="144.66698"
   id="tspan962"
   style="stroke-width:0.0700043;fill:#ffffff">ğ‘†</tspan><tspan
   fill="#ff0000"
   font-family="'Cambria Math', 'Cambria Math_MSFontService', sans-serif"
   font-weight="400"
   font-size="4.7625px"
   x="-59.631496"
   y="145.9899"
   id="tspan964"
   style="stroke-width:0.0700043;fill:#ffffff">ğ‘†ğ¶</tspan></text>
  </g>
</svg>
