<?xml version="1.0" encoding="UTF-8" standalone="no"?>
<!-- Created with Inkscape (http://www.inkscape.org/) -->

<svg
   width="1625.9772"
   height="527.56525"
   viewBox="0 0 1625.9772 527.56525"
   version="1.1"
   id="svg5"
   inkscape:version="1.1.1 (3bf5ae0d25, 2021-09-20)"
   sodipodi:docname="phase-diagram_animated.svg"
   xmlns:inkscape="http://www.inkscape.org/namespaces/inkscape"
   xmlns:sodipodi="http://sodipodi.sourceforge.net/DTD/sodipodi-0.dtd"
   xmlns="http://www.w3.org/2000/svg"
   xmlns:svg="http://www.w3.org/2000/svg"
   xmlns:ns4="http://www.iki.fi/pav/software/textext/">
  <sodipodi:namedview
     id="namedview7"
     pagecolor="#505050"
     bordercolor="#ffffff"
     borderopacity="1"
     inkscape:pageshadow="0"
     inkscape:pageopacity="0"
     inkscape:pagecheckerboard="1"
     inkscape:document-units="px"
     showgrid="false"
     inkscape:zoom="0.29646925"
     inkscape:cx="1401.4944"
     inkscape:cy="290.08067"
     inkscape:window-width="1920"
     inkscape:window-height="1015"
     inkscape:window-x="-9"
     inkscape:window-y="-9"
     inkscape:window-maximized="1"
     inkscape:current-layer="layer3"
     inkscape:snap-page="true"
     inkscape:snap-intersection-paths="true"
     inkscape:snap-midpoints="true" />
  <defs
     id="defs2">
    <symbol
       id="arrow-right">
      <title
         id="arrow-right-title">arrow-right</title>
      <path
         d="m 190.5,66.9 22.2,-22.2 c 9.4,-9.4 24.6,-9.4 33.9,0 L 441,239 c 9.4,9.4 9.4,24.6 0,33.9 L 246.6,467.3 c -9.4,9.4 -24.6,9.4 -33.9,0 l -22.2,-22.2 c -9.5,-9.5 -9.3,-25 0.4,-34.3 L 311.4,296 H 24 C 10.7,296 0,285.3 0,272 V 240 C 0,226.7 10.7,216 24,216 H 311.4 L 190.9,101.2 c -9.8,-9.3 -10,-24.8 -0.4,-34.3 z"
         id="path77198" />
    </symbol>
  </defs>
  <g
     inkscape:label="Phase diagram"
     inkscape:groupmode="layer"
     id="layer1"
     sodipodi:insensitive="true"
     transform="translate(-102.7118,-122.60249)"
     style="display:inline">
    <rect
       style="fill:#d6d2c4;stroke:none;stroke-width:7.98905;stroke-linecap:round;stroke-linejoin:bevel;paint-order:stroke fill markers"
       id="rect7218"
       width="398.31055"
       height="330.33542"
       x="840.7453"
       y="314.83231" />
    <rect
       style="fill:#7abbe6;stroke:none;stroke-width:3.46144;stroke-linecap:round;stroke-linejoin:bevel;paint-order:stroke fill markers"
       id="rect7256"
       width="398.31055"
       height="62.012436"
       x="840.7453"
       y="252.81987" />
    <rect
       style="fill:none;stroke:#001d51;stroke-width:10;stroke-linecap:round;stroke-linejoin:bevel;paint-order:stroke fill markers"
       id="rect7216"
       width="398.31055"
       height="517.56525"
       x="840.7453"
       y="127.60249" />
    <text
       xml:space="preserve"
       style="font-size:48px;line-height:1;font-family:Arial;-inkscape-font-specification:Arial;text-align:center;text-anchor:middle;fill:#4d4d4d"
       x="1039.6077"
       y="201.54037"
       id="text107042"><tspan
         sodipodi:role="line"
         id="tspan107040"
         x="1039.6077"
         y="201.54037">Air</tspan></text>
    <text
       xml:space="preserve"
       style="font-size:48px;line-height:1;font-family:Arial;-inkscape-font-specification:Arial;text-align:center;text-anchor:middle;fill:#000080"
       x="1039.2795"
       y="300.72452"
       id="text109061"><tspan
         sodipodi:role="line"
         id="tspan109059"
         x="1039.2795"
         y="300.72452">Water</tspan></text>
    <text
       xml:space="preserve"
       style="font-size:48px;line-height:1;font-family:Arial;-inkscape-font-specification:Arial;text-align:center;text-anchor:middle;fill:#ff0000"
       x="1039.7483"
       y="497.17969"
       id="text109275"><tspan
         sodipodi:role="line"
         id="tspan109273"
         x="1039.7483"
         y="497.17969">Solids</tspan></text>
  </g>
  <g
     inkscape:groupmode="layer"
     id="layer2"
     inkscape:label="Wighs"
     style="display:inline"
     sodipodi:insensitive="true"
     transform="translate(-102.7118,-122.60249)">
    <path
       style="fill:none;stroke:#000000;stroke-width:7.55906;stroke-linecap:round;stroke-linejoin:miter;stroke-miterlimit:4;stroke-dasharray:none;stroke-opacity:1"
       d="m 1263.441,127.60249 h 205.118"
       id="path1508" />
    <path
       style="fill:none;stroke:#000000;stroke-width:7.55906;stroke-linecap:round;stroke-linejoin:miter;stroke-miterlimit:4;stroke-dasharray:none;stroke-opacity:1"
       d="m 1263.441,252.81987 h 205.118"
       id="path1608" />
    <path
       style="fill:none;stroke:#000000;stroke-width:7.55906;stroke-linecap:round;stroke-linejoin:miter;stroke-miterlimit:4;stroke-dasharray:none;stroke-opacity:1"
       d="m 1263.441,314.83231 h 205.118"
       id="path1610" />
    <path
       style="fill:none;stroke:#000000;stroke-width:7.55906;stroke-linecap:round;stroke-linejoin:miter;stroke-miterlimit:4;stroke-dasharray:none;stroke-opacity:1"
       d="m 1263.441,645.16772 h 205.118"
       id="path1612" />
    <path
       style="fill:none;stroke:#000000;stroke-width:7.55906;stroke-linecap:round;stroke-linejoin:miter;stroke-miterlimit:4;stroke-dasharray:none;stroke-opacity:1"
       d="M 1366,127.60249 V 645.16772"
       id="path1647" />
    <g
       transform="matrix(6.0198737,0,0,6.0198737,1407.4079,166.45598)"
       ns4:version="1.1.0"
       ns4:texconverter="pdflatex"
       ns4:pdfconverter="inkscape"
       ns4:text="$W_a=0$"
       ns4:preamble="C:\\Users\\zamcr\\AppData\\Roaming\\inkscape\\extensions\\textext\\default_packages.tex"
       ns4:scale="1.0"
       ns4:alignment="middle center"
       ns4:inkscapeversion="1.1.1"
       ns4:jacobian_sqrt="1.33333"
       id="g1822"
       style="fill:#4d4d4d;stroke-width:0.221488">
      <defs
         id="id-82721f4c-2b91-4287-be07-cc80bd83dc8b">
        <g
           id="id-e2c50b19-82b6-4f5f-a690-454b780c9ded">
          <symbol
             overflow="visible"
             id="id-5bde22d2-9fe9-46ee-8855-f8779a0972f3">
            <path
               style="stroke:none"
               d=""
               id="id-f79ac3d7-731c-4505-98fc-a5ec3928fb3d" />
          </symbol>
          <symbol
             overflow="visible"
             id="id-f0968d37-f3f6-4e87-9315-8393c05ef628">
            <path
               style="stroke:none"
               d="m 9.140625,-5.65625 c 0.25,-0.4375 0.484375,-0.796875 1.125,-0.84375 0.07813,-0.015625 0.1875,-0.015625 0.1875,-0.203125 0,-0.03125 -0.04687,-0.109375 -0.125,-0.109375 -0.234375,0 -0.515625,0.03125 -0.765625,0.03125 -0.34375,0 -0.703125,-0.03125 -1.046875,-0.03125 -0.046875,0 -0.1875,0 -0.1875,0.1875 0,0.109375 0.09375,0.125 0.15625,0.125 0.234375,0.015625 0.59375,0.09375 0.59375,0.390625 0,0.109375 -0.0625,0.1875 -0.140625,0.328125 L 6.25,-1.09375 5.875,-6.03125 c 0,-0.203125 -0.015625,-0.453125 0.703125,-0.46875 0.171875,0 0.265625,0 0.265625,-0.203125 0,-0.09375 -0.109375,-0.109375 -0.140625,-0.109375 -0.40625,0 -0.828125,0.03125 -1.21875,0.03125 -0.234375,0 -0.8125,-0.03125 -1.046875,-0.03125 -0.0625,0 -0.1875,0 -0.1875,0.203125 C 4.25,-6.5 4.34375,-6.5 4.484375,-6.5 4.921875,-6.5 5,-6.4375 5.015625,-6.25 l 0.0625,0.765625 -2.53125,4.390625 -0.375,-5.046875 c 0,-0.125 0,-0.34375 0.765625,-0.359375 0.09375,0 0.203125,0 0.203125,-0.203125 C 3.140625,-6.8125 3.015625,-6.8125 3,-6.8125 c -0.390625,0 -0.8125,0.03125 -1.21875,0.03125 -0.359375,0 -0.71875,-0.03125 -1.046875,-0.03125 -0.0625,0 -0.1875,0 -0.1875,0.1875 0,0.125 0.09375,0.125 0.25,0.125 0.5,0 0.515625,0.09375 0.53125,0.375 l 0.453125,6.078125 c 0,0.1875 0.015625,0.265625 0.15625,0.265625 0.109375,0 0.140625,-0.0625 0.234375,-0.203125 l 2.9375,-5.09375 0.359375,5.03125 C 5.5,0.171875 5.515625,0.21875 5.625,0.21875 c 0.140625,0 0.203125,-0.09375 0.25,-0.1875 z m 0,0"
               id="id-d8a58575-fc08-4ead-b87e-c9d396eef999" />
          </symbol>
          <symbol
             overflow="visible"
             id="id-a3a8e107-45d0-4b04-923f-c7ed547357c5">
            <path
               style="stroke:none"
               d=""
               id="id-4298166f-5627-4f79-a236-e0cc372a4b72" />
          </symbol>
          <symbol
             overflow="visible"
             id="id-8caf3f2e-759f-4f14-9f80-4c830a644efc">
            <path
               style="stroke:none"
               d="m 2.9375,-2.65625 c -0.140625,-0.234375 -0.375,-0.421875 -0.71875,-0.421875 -0.890625,0 -1.796875,0.984375 -1.796875,1.984375 0,0.6875 0.453125,1.15625 1.0625,1.15625 0.375,0 0.703125,-0.203125 0.984375,-0.484375 C 2.59375,0 3,0.0625 3.1875,0.0625 c 0.25,0 0.421875,-0.140625 0.546875,-0.359375 0.15625,-0.28125 0.25,-0.671875 0.25,-0.703125 0,-0.09375 -0.09375,-0.09375 -0.109375,-0.09375 -0.109375,0 -0.109375,0.03125 -0.15625,0.21875 C 3.625,-0.53125 3.5,-0.125 3.203125,-0.125 3.03125,-0.125 2.96875,-0.28125 2.96875,-0.46875 c 0,-0.109375 0.0625,-0.375 0.109375,-0.546875 0.046875,-0.1875 0.125,-0.46875 0.15625,-0.625 L 3.375,-2.171875 C 3.421875,-2.359375 3.5,-2.6875 3.5,-2.71875 3.5,-2.875 3.375,-2.9375 3.265625,-2.9375 c -0.125,0 -0.28125,0.078125 -0.328125,0.28125 z M 2.5,-0.875 C 2.453125,-0.671875 2.296875,-0.53125 2.140625,-0.40625 2.078125,-0.34375 1.796875,-0.125 1.5,-0.125 c -0.265625,0 -0.515625,-0.1875 -0.515625,-0.671875 0,-0.375 0.203125,-1.140625 0.375,-1.421875 0.3125,-0.5625 0.671875,-0.65625 0.859375,-0.65625 0.484375,0 0.625,0.53125 0.625,0.609375 0,0.015625 -0.015625,0.078125 -0.015625,0.09375 z m 0,0"
               id="id-3409891f-8431-435b-a880-29d8db47f8c6" />
          </symbol>
          <symbol
             overflow="visible"
             id="id-f42498bb-17c3-4f35-9c37-24650f478ad7">
            <path
               style="stroke:none"
               d=""
               id="id-244dbe3a-b3a2-4571-9308-0e5440036959" />
          </symbol>
          <symbol
             overflow="visible"
             id="id-f5db6ef9-df11-4fec-8259-4ccb958e2c08">
            <path
               style="stroke:none"
               d="m 6.84375,-3.265625 c 0.15625,0 0.34375,0 0.34375,-0.1875 C 7.1875,-3.65625 7,-3.65625 6.859375,-3.65625 h -5.96875 c -0.140625,0 -0.328125,0 -0.328125,0.203125 0,0.1875 0.1875,0.1875 0.328125,0.1875 z m 0.015625,1.9375 c 0.140625,0 0.328125,0 0.328125,-0.203125 0,-0.1875 -0.1875,-0.1875 -0.34375,-0.1875 H 0.890625 c -0.140625,0 -0.328125,0 -0.328125,0.1875 0,0.203125 0.1875,0.203125 0.328125,0.203125 z m 0,0"
               id="id-ea4bfcb6-e1da-409b-a399-ebe97f1f0ded" />
          </symbol>
          <symbol
             overflow="visible"
             id="id-7e009596-1963-40a9-92a2-07ca936b83a6">
            <path
               style="stroke:none"
               d="m 4.578125,-3.1875 c 0,-0.796875 -0.046875,-1.59375 -0.390625,-2.328125 -0.453125,-0.96875 -1.28125,-1.125 -1.6875,-1.125 -0.609375,0 -1.328125,0.265625 -1.75,1.1875 -0.3125,0.6875 -0.359375,1.46875 -0.359375,2.265625 0,0.75 0.03125,1.640625 0.453125,2.40625 0.421875,0.796875 1.15625,1 1.640625,1 0.53125,0 1.296875,-0.203125 1.734375,-1.15625 0.3125,-0.6875 0.359375,-1.46875 0.359375,-2.25 z M 2.484375,0 C 2.09375,0 1.5,-0.25 1.328125,-1.203125 1.21875,-1.796875 1.21875,-2.71875 1.21875,-3.3125 c 0,-0.640625 0,-1.296875 0.078125,-1.828125 0.1875,-1.1875 0.9375,-1.28125 1.1875,-1.28125 0.328125,0 0.984375,0.1875 1.171875,1.171875 0.109375,0.5625 0.109375,1.3125 0.109375,1.9375 0,0.75 0,1.421875 -0.109375,2.0625 C 3.5,-0.296875 2.9375,0 2.484375,0 Z m 0,0"
               id="id-920d4c1a-0e1b-4d89-addd-7e8d307c02bf" />
          </symbol>
        </g>
      </defs>
      <g
         id="id-619df9e4-5089-475f-9d9d-af54c9865a4e"
         transform="translate(-149.259,-127.953)"
         style="fill:#4d4d4d;stroke-width:0.221488">
        <g
           style="fill:#4d4d4d;fill-opacity:1;stroke-width:0.221488"
           id="id-65b25e6a-3245-4e57-b475-187f9252905b">
          <g
             transform="translate(148.712,134.765)"
             id="g1806"
             style="fill:#4d4d4d;stroke-width:0.221488">
            <path
               style="fill:#4d4d4d;stroke:none;stroke-width:0.221488"
               d="m 9.140625,-5.65625 c 0.25,-0.4375 0.484375,-0.796875 1.125,-0.84375 0.07813,-0.015625 0.1875,-0.015625 0.1875,-0.203125 0,-0.03125 -0.04687,-0.109375 -0.125,-0.109375 -0.234375,0 -0.515625,0.03125 -0.765625,0.03125 -0.34375,0 -0.703125,-0.03125 -1.046875,-0.03125 -0.046875,0 -0.1875,0 -0.1875,0.1875 0,0.109375 0.09375,0.125 0.15625,0.125 0.234375,0.015625 0.59375,0.09375 0.59375,0.390625 0,0.109375 -0.0625,0.1875 -0.140625,0.328125 L 6.25,-1.09375 5.875,-6.03125 c 0,-0.203125 -0.015625,-0.453125 0.703125,-0.46875 0.171875,0 0.265625,0 0.265625,-0.203125 0,-0.09375 -0.109375,-0.109375 -0.140625,-0.109375 -0.40625,0 -0.828125,0.03125 -1.21875,0.03125 -0.234375,0 -0.8125,-0.03125 -1.046875,-0.03125 -0.0625,0 -0.1875,0 -0.1875,0.203125 C 4.25,-6.5 4.34375,-6.5 4.484375,-6.5 4.921875,-6.5 5,-6.4375 5.015625,-6.25 l 0.0625,0.765625 -2.53125,4.390625 -0.375,-5.046875 c 0,-0.125 0,-0.34375 0.765625,-0.359375 0.09375,0 0.203125,0 0.203125,-0.203125 C 3.140625,-6.8125 3.015625,-6.8125 3,-6.8125 c -0.390625,0 -0.8125,0.03125 -1.21875,0.03125 -0.359375,0 -0.71875,-0.03125 -1.046875,-0.03125 -0.0625,0 -0.1875,0 -0.1875,0.1875 0,0.125 0.09375,0.125 0.25,0.125 0.5,0 0.515625,0.09375 0.53125,0.375 l 0.453125,6.078125 c 0,0.1875 0.015625,0.265625 0.15625,0.265625 0.109375,0 0.140625,-0.0625 0.234375,-0.203125 l 2.9375,-5.09375 0.359375,5.03125 C 5.5,0.171875 5.515625,0.21875 5.625,0.21875 c 0.140625,0 0.203125,-0.09375 0.25,-0.1875 z m 0,0"
               id="id-83b31ce0-c348-43dc-a17c-d2955c80e411" />
          </g>
        </g>
        <g
           style="fill:#4d4d4d;fill-opacity:1;stroke-width:0.221488"
           id="id-5b8c3f39-2989-49f6-824d-3f541b304eed">
          <g
             transform="translate(158.121,136.259)"
             id="g1810"
             style="fill:#4d4d4d;stroke-width:0.221488">
            <path
               style="fill:#4d4d4d;stroke:none;stroke-width:0.221488"
               d="m 2.9375,-2.65625 c -0.140625,-0.234375 -0.375,-0.421875 -0.71875,-0.421875 -0.890625,0 -1.796875,0.984375 -1.796875,1.984375 0,0.6875 0.453125,1.15625 1.0625,1.15625 0.375,0 0.703125,-0.203125 0.984375,-0.484375 C 2.59375,0 3,0.0625 3.1875,0.0625 c 0.25,0 0.421875,-0.140625 0.546875,-0.359375 0.15625,-0.28125 0.25,-0.671875 0.25,-0.703125 0,-0.09375 -0.09375,-0.09375 -0.109375,-0.09375 -0.109375,0 -0.109375,0.03125 -0.15625,0.21875 C 3.625,-0.53125 3.5,-0.125 3.203125,-0.125 3.03125,-0.125 2.96875,-0.28125 2.96875,-0.46875 c 0,-0.109375 0.0625,-0.375 0.109375,-0.546875 0.046875,-0.1875 0.125,-0.46875 0.15625,-0.625 L 3.375,-2.171875 C 3.421875,-2.359375 3.5,-2.6875 3.5,-2.71875 3.5,-2.875 3.375,-2.9375 3.265625,-2.9375 c -0.125,0 -0.28125,0.078125 -0.328125,0.28125 z M 2.5,-0.875 C 2.453125,-0.671875 2.296875,-0.53125 2.140625,-0.40625 2.078125,-0.34375 1.796875,-0.125 1.5,-0.125 c -0.265625,0 -0.515625,-0.1875 -0.515625,-0.671875 0,-0.375 0.203125,-1.140625 0.375,-1.421875 0.3125,-0.5625 0.671875,-0.65625 0.859375,-0.65625 0.484375,0 0.625,0.53125 0.625,0.609375 0,0.015625 -0.015625,0.078125 -0.015625,0.09375 z m 0,0"
               id="id-87d4b733-b8a5-40c6-8ce0-5b13d145b0a4" />
          </g>
        </g>
        <g
           style="fill:#4d4d4d;fill-opacity:1;stroke-width:0.221488"
           id="id-81f89cee-7650-4c7d-a297-9364fbc6f805">
          <g
             transform="translate(165.708,134.765)"
             id="g1814"
             style="fill:#4d4d4d;stroke-width:0.221488">
            <path
               style="fill:#4d4d4d;stroke:none;stroke-width:0.221488"
               d="m 6.84375,-3.265625 c 0.15625,0 0.34375,0 0.34375,-0.1875 C 7.1875,-3.65625 7,-3.65625 6.859375,-3.65625 h -5.96875 c -0.140625,0 -0.328125,0 -0.328125,0.203125 0,0.1875 0.1875,0.1875 0.328125,0.1875 z m 0.015625,1.9375 c 0.140625,0 0.328125,0 0.328125,-0.203125 0,-0.1875 -0.1875,-0.1875 -0.34375,-0.1875 H 0.890625 c -0.140625,0 -0.328125,0 -0.328125,0.1875 0,0.203125 0.1875,0.203125 0.328125,0.203125 z m 0,0"
               id="id-f7513a43-395d-42eb-a0e4-1f2926c3fd68" />
          </g>
        </g>
        <g
           style="fill:#4d4d4d;fill-opacity:1;stroke-width:0.221488"
           id="id-55225899-74a0-4436-a4fe-1f0334d5ce02">
          <g
             transform="translate(176.227,134.765)"
             id="g1818"
             style="fill:#4d4d4d;stroke-width:0.221488">
            <path
               style="fill:#4d4d4d;stroke:none;stroke-width:0.221488"
               d="m 4.578125,-3.1875 c 0,-0.796875 -0.046875,-1.59375 -0.390625,-2.328125 -0.453125,-0.96875 -1.28125,-1.125 -1.6875,-1.125 -0.609375,0 -1.328125,0.265625 -1.75,1.1875 -0.3125,0.6875 -0.359375,1.46875 -0.359375,2.265625 0,0.75 0.03125,1.640625 0.453125,2.40625 0.421875,0.796875 1.15625,1 1.640625,1 0.53125,0 1.296875,-0.203125 1.734375,-1.15625 0.3125,-0.6875 0.359375,-1.46875 0.359375,-2.25 z M 2.484375,0 C 2.09375,0 1.5,-0.25 1.328125,-1.203125 1.21875,-1.796875 1.21875,-2.71875 1.21875,-3.3125 c 0,-0.640625 0,-1.296875 0.078125,-1.828125 0.1875,-1.1875 0.9375,-1.28125 1.1875,-1.28125 0.328125,0 0.984375,0.1875 1.171875,1.171875 0.109375,0.5625 0.109375,1.3125 0.109375,1.9375 0,0.75 0,1.421875 -0.109375,2.0625 C 3.5,-0.296875 2.9375,0 2.484375,0 Z m 0,0"
               id="id-48b897fc-4d47-4578-bb2c-7369be43cc52" />
          </g>
        </g>
      </g>
    </g>
    <g
       transform="matrix(6.01987,0,0,6.01987,1459.32,258.939)"
       ns4:version="1.1.0"
       ns4:texconverter="pdflatex"
       ns4:pdfconverter="inkscape"
       ns4:text="$W_w$"
       ns4:preamble="C:\\Users\\zamcr\\AppData\\Roaming\\inkscape\\extensions\\textext\\default_packages.tex"
       ns4:scale="4.514916562291406"
       ns4:alignment="middle center"
       ns4:inkscapeversion="1.1.1"
       ns4:jacobian_sqrt="6.01987"
       style="fill:#000080;stroke-width:0"
       id="g2259">
      <defs
         id="id-4d3f90ff-e574-4257-9eca-48367c14246c"
         style="fill:#008080;stroke-width:0">
        <g
           id="id-3f740711-ddfa-4ac9-af53-0c6a42378311"
           style="fill:#008080;stroke-width:0">
          <symbol
             overflow="visible"
             id="id-4251e772-3caf-42ee-8dc7-f2fc9bc445a9"
             style="fill:#008080;stroke-width:0">
            <path
               style="fill:#008080;stroke:none;stroke-width:0"
               d=""
               id="id-8c855af3-abe2-40ee-9005-ad49732a547c" />
          </symbol>
          <symbol
             overflow="visible"
             id="id-e2e06c68-824a-4e1e-b9cc-8d737a10b30d"
             style="fill:#008080;stroke-width:0">
            <path
               style="fill:#008080;stroke:none;stroke-width:0"
               d="m 9.140625,-5.65625 c 0.25,-0.4375 0.484375,-0.796875 1.125,-0.84375 0.07813,-0.015625 0.1875,-0.015625 0.1875,-0.203125 0,-0.03125 -0.04687,-0.109375 -0.125,-0.109375 -0.234375,0 -0.515625,0.03125 -0.765625,0.03125 -0.34375,0 -0.703125,-0.03125 -1.046875,-0.03125 -0.046875,0 -0.1875,0 -0.1875,0.1875 0,0.109375 0.09375,0.125 0.15625,0.125 0.234375,0.015625 0.59375,0.09375 0.59375,0.390625 0,0.109375 -0.0625,0.1875 -0.140625,0.328125 L 6.25,-1.09375 5.875,-6.03125 c 0,-0.203125 -0.015625,-0.453125 0.703125,-0.46875 0.171875,0 0.265625,0 0.265625,-0.203125 0,-0.09375 -0.109375,-0.109375 -0.140625,-0.109375 -0.40625,0 -0.828125,0.03125 -1.21875,0.03125 -0.234375,0 -0.8125,-0.03125 -1.046875,-0.03125 -0.0625,0 -0.1875,0 -0.1875,0.203125 C 4.25,-6.5 4.34375,-6.5 4.484375,-6.5 4.921875,-6.5 5,-6.4375 5.015625,-6.25 l 0.0625,0.765625 -2.53125,4.390625 -0.375,-5.046875 c 0,-0.125 0,-0.34375 0.765625,-0.359375 0.09375,0 0.203125,0 0.203125,-0.203125 C 3.140625,-6.8125 3.015625,-6.8125 3,-6.8125 c -0.390625,0 -0.8125,0.03125 -1.21875,0.03125 -0.359375,0 -0.71875,-0.03125 -1.046875,-0.03125 -0.0625,0 -0.1875,0 -0.1875,0.1875 0,0.125 0.09375,0.125 0.25,0.125 0.5,0 0.515625,0.09375 0.53125,0.375 l 0.453125,6.078125 c 0,0.1875 0.015625,0.265625 0.15625,0.265625 0.109375,0 0.140625,-0.0625 0.234375,-0.203125 l 2.9375,-5.09375 0.359375,5.03125 C 5.5,0.171875 5.515625,0.21875 5.625,0.21875 c 0.140625,0 0.203125,-0.09375 0.25,-0.1875 z m 0,0"
               id="id-d17a7707-cc11-4613-9d47-03b1bde53786" />
          </symbol>
          <symbol
             overflow="visible"
             id="id-27de6679-3b03-4ff0-b504-04d76ad662f7"
             style="fill:#008080;stroke-width:0">
            <path
               style="fill:#008080;stroke:none;stroke-width:0"
               d=""
               id="id-faa10277-a31e-4562-9fbb-eb35c9decf8f" />
          </symbol>
          <symbol
             overflow="visible"
             id="id-c404bea9-ccd2-4aa3-9a78-976132bd46e3"
             style="fill:#008080;stroke-width:0">
            <path
               style="fill:#008080;stroke:none;stroke-width:0"
               d="m 3.671875,-2.21875 c 0.046875,-0.1875 0.125,-0.53125 0.125,-0.5625 C 3.796875,-2.921875 3.6875,-3 3.5625,-3 3.4375,-3 3.3125,-2.921875 3.265625,-2.796875 3.25,-2.75 3.171875,-2.453125 3.125,-2.28125 3.03125,-1.875 3.03125,-1.875 2.921875,-1.484375 2.84375,-1.09375 2.828125,-1.03125 2.8125,-0.84375 2.84375,-0.703125 2.78125,-0.5625 2.625,-0.359375 2.53125,-0.25 2.390625,-0.125 2.15625,-0.125 1.875,-0.125 1.53125,-0.21875 1.53125,-0.765625 1.53125,-1.125 1.71875,-1.640625 1.859375,-2 1.984375,-2.296875 2,-2.359375 2,-2.484375 2,-2.8125 1.71875,-3.078125 1.34375,-3.078125 0.640625,-3.078125 0.328125,-2.125 0.328125,-2 c 0,0.078125 0.09375,0.078125 0.125,0.078125 0.09375,0 0.09375,-0.03125 0.125,-0.109375 C 0.75,-2.609375 1.046875,-2.875 1.328125,-2.875 1.4375,-2.875 1.5,-2.796875 1.5,-2.640625 c 0,0.171875 -0.0625,0.3125 -0.09375,0.40625 C 1,-1.21875 1,-1.078125 1,-0.859375 1,-0.03125 1.75,0.0625 2.125,0.0625 c 0.140625,0 0.46875,0 0.78125,-0.453125 C 3.078125,-0.078125 3.453125,0.0625 3.875,0.0625 4.5,0.0625 4.8125,-0.46875 4.953125,-0.75 5.25,-1.34375 5.4375,-2.203125 5.4375,-2.53125 c 0,-0.515625 -0.296875,-0.546875 -0.34375,-0.546875 -0.1875,0 -0.390625,0.1875 -0.390625,0.375 0,0.109375 0.078125,0.171875 0.125,0.203125 C 5,-2.359375 5.09375,-2.15625 5.09375,-1.9375 c 0,0.09375 -0.296875,1.8125 -1.1875,1.8125 -0.5625,0 -0.5625,-0.5 -0.5625,-0.625 0,-0.1875 0.03125,-0.296875 0.125,-0.6875 z m 0,0"
               id="id-d574c120-b0e0-4269-8595-19a40fd906eb" />
          </symbol>
        </g>
      </defs>
      <g
         id="id-ed6a53d5-7901-420b-93c8-834567a8919b"
         transform="translate(-149.259,-127.953)"
         style="fill:#000080;stroke-width:0">
        <g
           style="fill:#000080;fill-opacity:1;stroke-width:0"
           id="id-ed94b584-88b5-40d9-90b1-98e18a9b6580">
          <g
             transform="translate(148.712,134.765)"
             style="fill:#000080;stroke-width:0"
             id="g2251">
            <path
               style="fill:#000080;stroke:none;stroke-width:0"
               d="m 9.140625,-5.65625 c 0.25,-0.4375 0.484375,-0.796875 1.125,-0.84375 0.07813,-0.015625 0.1875,-0.015625 0.1875,-0.203125 0,-0.03125 -0.04687,-0.109375 -0.125,-0.109375 -0.234375,0 -0.515625,0.03125 -0.765625,0.03125 -0.34375,0 -0.703125,-0.03125 -1.046875,-0.03125 -0.046875,0 -0.1875,0 -0.1875,0.1875 0,0.109375 0.09375,0.125 0.15625,0.125 0.234375,0.015625 0.59375,0.09375 0.59375,0.390625 0,0.109375 -0.0625,0.1875 -0.140625,0.328125 L 6.25,-1.09375 5.875,-6.03125 c 0,-0.203125 -0.015625,-0.453125 0.703125,-0.46875 0.171875,0 0.265625,0 0.265625,-0.203125 0,-0.09375 -0.109375,-0.109375 -0.140625,-0.109375 -0.40625,0 -0.828125,0.03125 -1.21875,0.03125 -0.234375,0 -0.8125,-0.03125 -1.046875,-0.03125 -0.0625,0 -0.1875,0 -0.1875,0.203125 C 4.25,-6.5 4.34375,-6.5 4.484375,-6.5 4.921875,-6.5 5,-6.4375 5.015625,-6.25 l 0.0625,0.765625 -2.53125,4.390625 -0.375,-5.046875 c 0,-0.125 0,-0.34375 0.765625,-0.359375 0.09375,0 0.203125,0 0.203125,-0.203125 C 3.140625,-6.8125 3.015625,-6.8125 3,-6.8125 c -0.390625,0 -0.8125,0.03125 -1.21875,0.03125 -0.359375,0 -0.71875,-0.03125 -1.046875,-0.03125 -0.0625,0 -0.1875,0 -0.1875,0.1875 0,0.125 0.09375,0.125 0.25,0.125 0.5,0 0.515625,0.09375 0.53125,0.375 l 0.453125,6.078125 c 0,0.1875 0.015625,0.265625 0.15625,0.265625 0.109375,0 0.140625,-0.0625 0.234375,-0.203125 l 2.9375,-5.09375 0.359375,5.03125 C 5.5,0.171875 5.515625,0.21875 5.625,0.21875 c 0.140625,0 0.203125,-0.09375 0.25,-0.1875 z m 0,0"
               id="id-1569bd32-fa5d-4bf7-88c5-167fcf36d12d" />
          </g>
        </g>
        <g
           style="fill:#000080;fill-opacity:1;stroke-width:0"
           id="id-2d6364e9-c67b-403b-ba2d-0f8122fcd6fd">
          <g
             transform="translate(158.121,136.259)"
             style="fill:#000080;stroke-width:0"
             id="g2255">
            <path
               style="fill:#000080;stroke:none;stroke-width:0"
               d="m 3.671875,-2.21875 c 0.046875,-0.1875 0.125,-0.53125 0.125,-0.5625 C 3.796875,-2.921875 3.6875,-3 3.5625,-3 3.4375,-3 3.3125,-2.921875 3.265625,-2.796875 3.25,-2.75 3.171875,-2.453125 3.125,-2.28125 3.03125,-1.875 3.03125,-1.875 2.921875,-1.484375 2.84375,-1.09375 2.828125,-1.03125 2.8125,-0.84375 2.84375,-0.703125 2.78125,-0.5625 2.625,-0.359375 2.53125,-0.25 2.390625,-0.125 2.15625,-0.125 1.875,-0.125 1.53125,-0.21875 1.53125,-0.765625 1.53125,-1.125 1.71875,-1.640625 1.859375,-2 1.984375,-2.296875 2,-2.359375 2,-2.484375 2,-2.8125 1.71875,-3.078125 1.34375,-3.078125 0.640625,-3.078125 0.328125,-2.125 0.328125,-2 c 0,0.078125 0.09375,0.078125 0.125,0.078125 0.09375,0 0.09375,-0.03125 0.125,-0.109375 C 0.75,-2.609375 1.046875,-2.875 1.328125,-2.875 1.4375,-2.875 1.5,-2.796875 1.5,-2.640625 c 0,0.171875 -0.0625,0.3125 -0.09375,0.40625 C 1,-1.21875 1,-1.078125 1,-0.859375 1,-0.03125 1.75,0.0625 2.125,0.0625 c 0.140625,0 0.46875,0 0.78125,-0.453125 C 3.078125,-0.078125 3.453125,0.0625 3.875,0.0625 4.5,0.0625 4.8125,-0.46875 4.953125,-0.75 5.25,-1.34375 5.4375,-2.203125 5.4375,-2.53125 c 0,-0.515625 -0.296875,-0.546875 -0.34375,-0.546875 -0.1875,0 -0.390625,0.1875 -0.390625,0.375 0,0.109375 0.078125,0.171875 0.125,0.203125 C 5,-2.359375 5.09375,-2.15625 5.09375,-1.9375 c 0,0.09375 -0.296875,1.8125 -1.1875,1.8125 -0.5625,0 -0.5625,-0.5 -0.5625,-0.625 0,-0.1875 0.03125,-0.296875 0.125,-0.6875 z m 0,0"
               id="id-7dfc2dc6-a1aa-4f68-8f03-b3de742d3f26" />
          </g>
        </g>
      </g>
    </g>
    <g
       transform="matrix(6.01987,0,0,6.01987,1465.81,444.316)"
       ns4:version="1.1.0"
       ns4:texconverter="pdflatex"
       ns4:pdfconverter="inkscape"
       ns4:text="$W_s$"
       ns4:preamble="C:\\Users\\zamcr\\AppData\\Roaming\\inkscape\\extensions\\textext\\default_packages.tex"
       ns4:scale="4.514916562291406"
       ns4:alignment="middle center"
       ns4:inkscapeversion="1.1.1"
       ns4:jacobian_sqrt="6.01987"
       style="fill:#ff0000;stroke-width:0"
       id="g2604">
      <defs
         id="id-764a5e09-f4b0-4d34-85a2-e2187c671d35"
         style="fill:#008080;stroke-width:0">
        <g
           id="id-2de457f3-2bc8-47d0-91f5-8e554286ed6c"
           style="fill:#008080;stroke-width:0">
          <symbol
             overflow="visible"
             id="id-279bb99a-600f-412b-8dbb-300259eca17d"
             style="fill:#008080;stroke-width:0">
            <path
               style="fill:#008080;stroke:none;stroke-width:0"
               d=""
               id="id-d8dc7bb7-f533-4e81-bb1f-1f4893e2b3f7" />
          </symbol>
          <symbol
             overflow="visible"
             id="id-0fee5d30-eda6-46ca-915f-5f198d4354b2"
             style="fill:#008080;stroke-width:0">
            <path
               style="fill:#008080;stroke:none;stroke-width:0"
               d="m 9.140625,-5.65625 c 0.25,-0.4375 0.484375,-0.796875 1.125,-0.84375 0.07813,-0.015625 0.1875,-0.015625 0.1875,-0.203125 0,-0.03125 -0.04687,-0.109375 -0.125,-0.109375 -0.234375,0 -0.515625,0.03125 -0.765625,0.03125 -0.34375,0 -0.703125,-0.03125 -1.046875,-0.03125 -0.046875,0 -0.1875,0 -0.1875,0.1875 0,0.109375 0.09375,0.125 0.15625,0.125 0.234375,0.015625 0.59375,0.09375 0.59375,0.390625 0,0.109375 -0.0625,0.1875 -0.140625,0.328125 L 6.25,-1.09375 5.875,-6.03125 c 0,-0.203125 -0.015625,-0.453125 0.703125,-0.46875 0.171875,0 0.265625,0 0.265625,-0.203125 0,-0.09375 -0.109375,-0.109375 -0.140625,-0.109375 -0.40625,0 -0.828125,0.03125 -1.21875,0.03125 -0.234375,0 -0.8125,-0.03125 -1.046875,-0.03125 -0.0625,0 -0.1875,0 -0.1875,0.203125 C 4.25,-6.5 4.34375,-6.5 4.484375,-6.5 4.921875,-6.5 5,-6.4375 5.015625,-6.25 l 0.0625,0.765625 -2.53125,4.390625 -0.375,-5.046875 c 0,-0.125 0,-0.34375 0.765625,-0.359375 0.09375,0 0.203125,0 0.203125,-0.203125 C 3.140625,-6.8125 3.015625,-6.8125 3,-6.8125 c -0.390625,0 -0.8125,0.03125 -1.21875,0.03125 -0.359375,0 -0.71875,-0.03125 -1.046875,-0.03125 -0.0625,0 -0.1875,0 -0.1875,0.1875 0,0.125 0.09375,0.125 0.25,0.125 0.5,0 0.515625,0.09375 0.53125,0.375 l 0.453125,6.078125 c 0,0.1875 0.015625,0.265625 0.15625,0.265625 0.109375,0 0.140625,-0.0625 0.234375,-0.203125 l 2.9375,-5.09375 0.359375,5.03125 C 5.5,0.171875 5.515625,0.21875 5.625,0.21875 c 0.140625,0 0.203125,-0.09375 0.25,-0.1875 z m 0,0"
               id="id-695e0146-07f6-4290-bb16-e2e695e3fe24" />
          </symbol>
          <symbol
             overflow="visible"
             id="id-bae2cb37-ee8a-41eb-9802-8543cda57f5d"
             style="fill:#008080;stroke-width:0">
            <path
               style="fill:#008080;stroke:none;stroke-width:0"
               d=""
               id="id-b4478482-fa63-4da7-ba3f-8dd2e25412d1" />
          </symbol>
          <symbol
             overflow="visible"
             id="id-e63aaf16-2463-466b-8555-395e71bf634a"
             style="fill:#008080;stroke-width:0">
            <path
               style="fill:#008080;stroke:none;stroke-width:0"
               d="m 3,-2.625 c -0.171875,0.046875 -0.296875,0.1875 -0.296875,0.328125 0,0.171875 0.140625,0.234375 0.234375,0.234375 0.078125,0 0.34375,-0.046875 0.34375,-0.40625 0,-0.453125 -0.5,-0.609375 -0.9375,-0.609375 -1.078125,0 -1.28125,0.8125 -1.28125,1.015625 0,0.265625 0.15625,0.4375 0.25,0.515625 0.171875,0.140625 0.296875,0.171875 0.78125,0.25 0.15625,0.03125 0.59375,0.109375 0.59375,0.453125 0,0.125 -0.078125,0.390625 -0.359375,0.5625 C 2.046875,-0.125 1.703125,-0.125 1.625,-0.125 1.34375,-0.125 0.953125,-0.1875 0.78125,-0.421875 1.015625,-0.453125 1.171875,-0.625 1.171875,-0.8125 c 0,-0.171875 -0.125,-0.265625 -0.265625,-0.265625 -0.203125,0 -0.40625,0.171875 -0.40625,0.46875 0,0.421875 0.4375,0.671875 1.109375,0.671875 1.296875,0 1.53125,-0.875 1.53125,-1.140625 0,-0.640625 -0.703125,-0.765625 -0.96875,-0.8125 -0.0625,-0.015625 -0.234375,-0.046875 -0.28125,-0.0625 -0.25,-0.046875 -0.375,-0.1875 -0.375,-0.34375 0,-0.15625 0.125,-0.34375 0.28125,-0.453125 0.1875,-0.109375 0.421875,-0.125 0.546875,-0.125 0.140625,0 0.5,0.015625 0.65625,0.25 z m 0,0"
               id="id-d99ecaa4-58a9-4195-8ca9-12d257e7f4b5" />
          </symbol>
        </g>
      </defs>
      <g
         id="id-5b711950-ceba-493a-8dca-2d9ab959aacb"
         transform="translate(-149.259,-127.953)"
         style="fill:#ff0000;stroke-width:0">
        <g
           style="fill:#ff0000;fill-opacity:1;stroke-width:0"
           id="id-5a97bb67-131a-40e5-8c2b-10777ccab011">
          <g
             transform="translate(148.712,134.765)"
             style="fill:#ff0000;stroke-width:0"
             id="g2596">
            <path
               style="fill:#ff0000;stroke:none;stroke-width:0"
               d="m 9.140625,-5.65625 c 0.25,-0.4375 0.484375,-0.796875 1.125,-0.84375 0.07813,-0.015625 0.1875,-0.015625 0.1875,-0.203125 0,-0.03125 -0.04687,-0.109375 -0.125,-0.109375 -0.234375,0 -0.515625,0.03125 -0.765625,0.03125 -0.34375,0 -0.703125,-0.03125 -1.046875,-0.03125 -0.046875,0 -0.1875,0 -0.1875,0.1875 0,0.109375 0.09375,0.125 0.15625,0.125 0.234375,0.015625 0.59375,0.09375 0.59375,0.390625 0,0.109375 -0.0625,0.1875 -0.140625,0.328125 L 6.25,-1.09375 5.875,-6.03125 c 0,-0.203125 -0.015625,-0.453125 0.703125,-0.46875 0.171875,0 0.265625,0 0.265625,-0.203125 0,-0.09375 -0.109375,-0.109375 -0.140625,-0.109375 -0.40625,0 -0.828125,0.03125 -1.21875,0.03125 -0.234375,0 -0.8125,-0.03125 -1.046875,-0.03125 -0.0625,0 -0.1875,0 -0.1875,0.203125 C 4.25,-6.5 4.34375,-6.5 4.484375,-6.5 4.921875,-6.5 5,-6.4375 5.015625,-6.25 l 0.0625,0.765625 -2.53125,4.390625 -0.375,-5.046875 c 0,-0.125 0,-0.34375 0.765625,-0.359375 0.09375,0 0.203125,0 0.203125,-0.203125 C 3.140625,-6.8125 3.015625,-6.8125 3,-6.8125 c -0.390625,0 -0.8125,0.03125 -1.21875,0.03125 -0.359375,0 -0.71875,-0.03125 -1.046875,-0.03125 -0.0625,0 -0.1875,0 -0.1875,0.1875 0,0.125 0.09375,0.125 0.25,0.125 0.5,0 0.515625,0.09375 0.53125,0.375 l 0.453125,6.078125 c 0,0.1875 0.015625,0.265625 0.15625,0.265625 0.109375,0 0.140625,-0.0625 0.234375,-0.203125 l 2.9375,-5.09375 0.359375,5.03125 C 5.5,0.171875 5.515625,0.21875 5.625,0.21875 c 0.140625,0 0.203125,-0.09375 0.25,-0.1875 z m 0,0"
               id="id-04916113-246f-4052-98e4-1b745eb7007d" />
          </g>
        </g>
        <g
           style="fill:#ff0000;fill-opacity:1;stroke-width:0"
           id="id-bcdfb5dd-0b75-4b9c-8121-840b0f9e339c">
          <g
             transform="translate(158.121,136.259)"
             style="fill:#ff0000;stroke-width:0"
             id="g2600">
            <path
               style="fill:#ff0000;stroke:none;stroke-width:0"
               d="m 3,-2.625 c -0.171875,0.046875 -0.296875,0.1875 -0.296875,0.328125 0,0.171875 0.140625,0.234375 0.234375,0.234375 0.078125,0 0.34375,-0.046875 0.34375,-0.40625 0,-0.453125 -0.5,-0.609375 -0.9375,-0.609375 -1.078125,0 -1.28125,0.8125 -1.28125,1.015625 0,0.265625 0.15625,0.4375 0.25,0.515625 0.171875,0.140625 0.296875,0.171875 0.78125,0.25 0.15625,0.03125 0.59375,0.109375 0.59375,0.453125 0,0.125 -0.078125,0.390625 -0.359375,0.5625 C 2.046875,-0.125 1.703125,-0.125 1.625,-0.125 1.34375,-0.125 0.953125,-0.1875 0.78125,-0.421875 1.015625,-0.453125 1.171875,-0.625 1.171875,-0.8125 c 0,-0.171875 -0.125,-0.265625 -0.265625,-0.265625 -0.203125,0 -0.40625,0.171875 -0.40625,0.46875 0,0.421875 0.4375,0.671875 1.109375,0.671875 1.296875,0 1.53125,-0.875 1.53125,-1.140625 0,-0.640625 -0.703125,-0.765625 -0.96875,-0.8125 -0.0625,-0.015625 -0.234375,-0.046875 -0.28125,-0.0625 -0.25,-0.046875 -0.375,-0.1875 -0.375,-0.34375 0,-0.15625 0.125,-0.34375 0.28125,-0.453125 0.1875,-0.109375 0.421875,-0.125 0.546875,-0.125 0.140625,0 0.5,0.015625 0.65625,0.25 z m 0,0"
               id="id-35da4c7a-edb7-43fc-9d43-c6ac01b0fae1" />
          </g>
        </g>
      </g>
    </g>
    <path
       style="fill:none;stroke:#000000;stroke-width:7.55906;stroke-linecap:round;stroke-linejoin:miter;stroke-miterlimit:4;stroke-dasharray:none;stroke-opacity:1"
       d="m 1519.7914,127.60249 h 205.118"
       id="path2814" />
    <path
       style="fill:none;stroke:#000000;stroke-width:7.55906;stroke-linecap:round;stroke-linejoin:miter;stroke-miterlimit:4;stroke-dasharray:none;stroke-opacity:1"
       d="m 1519.7914,645.16772 h 205.118"
       id="path2816" />
    <path
       style="fill:none;stroke:#000000;stroke-width:7.55906;stroke-linecap:round;stroke-linejoin:miter;stroke-miterlimit:4;stroke-dasharray:none;stroke-opacity:1"
       d="M 1622.3504,127.60249 V 645.16772"
       id="path2818" />
    <g
       transform="matrix(6.01987,0,0,6.01987,1646.51,356.257)"
       ns4:version="1.1.0"
       ns4:texconverter="pdflatex"
       ns4:pdfconverter="inkscape"
       ns4:text="$W_t$"
       ns4:preamble="C:\\Users\\zamcr\\AppData\\Roaming\\inkscape\\extensions\\textext\\default_packages.tex"
       ns4:scale="4.514916562291406"
       ns4:alignment="middle center"
       ns4:inkscapeversion="1.1.1"
       ns4:jacobian_sqrt="6.01987"
       style="fill:#000000;stroke-width:0"
       id="g3101">
      <defs
         id="id-9fb7e243-3f42-42a9-888c-b02732c2df2b"
         style="fill:#000000;stroke-width:0">
        <g
           id="id-0270741c-5086-4a19-93bd-366bae994767"
           style="fill:#000000;stroke-width:0">
          <symbol
             overflow="visible"
             id="id-89bd743c-bcbc-4c1b-8124-fd857469ea7e"
             style="fill:#000000;stroke-width:0">
            <path
               style="fill:#000000;stroke:none;stroke-width:0"
               d=""
               id="id-c48f6eea-b705-4297-956b-2b8ba7ba8ee9" />
          </symbol>
          <symbol
             overflow="visible"
             id="id-cba6f74f-2599-48c8-810b-807bfd43354d"
             style="fill:#000000;stroke-width:0">
            <path
               style="fill:#000000;stroke:none;stroke-width:0"
               d="m 9.140625,-5.65625 c 0.25,-0.4375 0.484375,-0.796875 1.125,-0.84375 0.07813,-0.015625 0.1875,-0.015625 0.1875,-0.203125 0,-0.03125 -0.04687,-0.109375 -0.125,-0.109375 -0.234375,0 -0.515625,0.03125 -0.765625,0.03125 -0.34375,0 -0.703125,-0.03125 -1.046875,-0.03125 -0.046875,0 -0.1875,0 -0.1875,0.1875 0,0.109375 0.09375,0.125 0.15625,0.125 0.234375,0.015625 0.59375,0.09375 0.59375,0.390625 0,0.109375 -0.0625,0.1875 -0.140625,0.328125 L 6.25,-1.09375 5.875,-6.03125 c 0,-0.203125 -0.015625,-0.453125 0.703125,-0.46875 0.171875,0 0.265625,0 0.265625,-0.203125 0,-0.09375 -0.109375,-0.109375 -0.140625,-0.109375 -0.40625,0 -0.828125,0.03125 -1.21875,0.03125 -0.234375,0 -0.8125,-0.03125 -1.046875,-0.03125 -0.0625,0 -0.1875,0 -0.1875,0.203125 C 4.25,-6.5 4.34375,-6.5 4.484375,-6.5 4.921875,-6.5 5,-6.4375 5.015625,-6.25 l 0.0625,0.765625 -2.53125,4.390625 -0.375,-5.046875 c 0,-0.125 0,-0.34375 0.765625,-0.359375 0.09375,0 0.203125,0 0.203125,-0.203125 C 3.140625,-6.8125 3.015625,-6.8125 3,-6.8125 c -0.390625,0 -0.8125,0.03125 -1.21875,0.03125 -0.359375,0 -0.71875,-0.03125 -1.046875,-0.03125 -0.0625,0 -0.1875,0 -0.1875,0.1875 0,0.125 0.09375,0.125 0.25,0.125 0.5,0 0.515625,0.09375 0.53125,0.375 l 0.453125,6.078125 c 0,0.1875 0.015625,0.265625 0.15625,0.265625 0.109375,0 0.140625,-0.0625 0.234375,-0.203125 l 2.9375,-5.09375 0.359375,5.03125 C 5.5,0.171875 5.515625,0.21875 5.625,0.21875 c 0.140625,0 0.203125,-0.09375 0.25,-0.1875 z m 0,0"
               id="id-77fb1457-a6c8-4dd0-9608-b11cd13b334e" />
          </symbol>
          <symbol
             overflow="visible"
             id="id-802732b0-d6bc-42cc-8f20-dfa94518201c"
             style="fill:#000000;stroke-width:0">
            <path
               style="fill:#000000;stroke:none;stroke-width:0"
               d=""
               id="id-d555ff59-4356-4791-b3af-7391384ae6ab" />
          </symbol>
          <symbol
             overflow="visible"
             id="id-3cdc619a-d9df-4956-afc4-bb6eed4bc1c9"
             style="fill:#000000;stroke-width:0">
            <path
               style="fill:#000000;stroke:none;stroke-width:0"
               d="m 1.71875,-2.75 h 0.703125 c 0.140625,0 0.21875,0 0.21875,-0.15625 C 2.640625,-3 2.5625,-3 2.4375,-3 H 1.78125 l 0.25,-1.03125 C 2.046875,-4.0625 2.0625,-4.109375 2.0625,-4.125 c 0,-0.140625 -0.109375,-0.234375 -0.25,-0.234375 -0.171875,0 -0.265625,0.125 -0.328125,0.296875 C 1.4375,-3.875 1.53125,-4.21875 1.21875,-3 H 0.515625 c -0.125,0 -0.21875,0 -0.21875,0.15625 C 0.296875,-2.75 0.375,-2.75 0.5,-2.75 H 1.15625 L 0.75,-1.109375 C 0.703125,-0.9375 0.640625,-0.6875 0.640625,-0.59375 c 0,0.40625 0.359375,0.65625 0.75,0.65625 0.78125,0 1.21875,-0.96875 1.21875,-1.0625 0,-0.09375 -0.09375,-0.09375 -0.109375,-0.09375 -0.09375,0 -0.09375,0.015625 -0.15625,0.140625 -0.1875,0.4375 -0.546875,0.828125 -0.921875,0.828125 -0.15625,0 -0.25,-0.09375 -0.25,-0.34375 0,-0.0625 0.03125,-0.21875 0.046875,-0.28125 z m 0,0"
               id="id-7282bfd3-9d01-4d79-b929-5e133d4821f0" />
          </symbol>
        </g>
      </defs>
      <g
         id="id-a61f6ee9-425c-4463-a8d0-395f1301bfe0"
         transform="translate(-149.259,-127.953)"
         style="fill:#000000;stroke-width:0">
        <g
           style="fill:#000000;fill-opacity:1;stroke-width:0"
           id="id-514bc8cf-80eb-4945-af03-e0d469cc297b">
          <g
             transform="translate(148.712,134.765)"
             style="fill:#000000;stroke-width:0"
             id="g3093">
            <path
               style="fill:#000000;stroke:none;stroke-width:0"
               d="m 9.140625,-5.65625 c 0.25,-0.4375 0.484375,-0.796875 1.125,-0.84375 0.07813,-0.015625 0.1875,-0.015625 0.1875,-0.203125 0,-0.03125 -0.04687,-0.109375 -0.125,-0.109375 -0.234375,0 -0.515625,0.03125 -0.765625,0.03125 -0.34375,0 -0.703125,-0.03125 -1.046875,-0.03125 -0.046875,0 -0.1875,0 -0.1875,0.1875 0,0.109375 0.09375,0.125 0.15625,0.125 0.234375,0.015625 0.59375,0.09375 0.59375,0.390625 0,0.109375 -0.0625,0.1875 -0.140625,0.328125 L 6.25,-1.09375 5.875,-6.03125 c 0,-0.203125 -0.015625,-0.453125 0.703125,-0.46875 0.171875,0 0.265625,0 0.265625,-0.203125 0,-0.09375 -0.109375,-0.109375 -0.140625,-0.109375 -0.40625,0 -0.828125,0.03125 -1.21875,0.03125 -0.234375,0 -0.8125,-0.03125 -1.046875,-0.03125 -0.0625,0 -0.1875,0 -0.1875,0.203125 C 4.25,-6.5 4.34375,-6.5 4.484375,-6.5 4.921875,-6.5 5,-6.4375 5.015625,-6.25 l 0.0625,0.765625 -2.53125,4.390625 -0.375,-5.046875 c 0,-0.125 0,-0.34375 0.765625,-0.359375 0.09375,0 0.203125,0 0.203125,-0.203125 C 3.140625,-6.8125 3.015625,-6.8125 3,-6.8125 c -0.390625,0 -0.8125,0.03125 -1.21875,0.03125 -0.359375,0 -0.71875,-0.03125 -1.046875,-0.03125 -0.0625,0 -0.1875,0 -0.1875,0.1875 0,0.125 0.09375,0.125 0.25,0.125 0.5,0 0.515625,0.09375 0.53125,0.375 l 0.453125,6.078125 c 0,0.1875 0.015625,0.265625 0.15625,0.265625 0.109375,0 0.140625,-0.0625 0.234375,-0.203125 l 2.9375,-5.09375 0.359375,5.03125 C 5.5,0.171875 5.515625,0.21875 5.625,0.21875 c 0.140625,0 0.203125,-0.09375 0.25,-0.1875 z m 0,0"
               id="id-8bdf223a-a4bf-42c5-a884-c5d486e19ad7" />
          </g>
        </g>
        <g
           style="fill:#000000;fill-opacity:1;stroke-width:0"
           id="id-c399d2f2-1be4-4dfd-b381-68ef0f8ee568">
          <g
             transform="translate(158.121,136.259)"
             style="fill:#000000;stroke-width:0"
             id="g3097">
            <path
               style="fill:#000000;stroke:none;stroke-width:0"
               d="m 1.71875,-2.75 h 0.703125 c 0.140625,0 0.21875,0 0.21875,-0.15625 C 2.640625,-3 2.5625,-3 2.4375,-3 H 1.78125 l 0.25,-1.03125 C 2.046875,-4.0625 2.0625,-4.109375 2.0625,-4.125 c 0,-0.140625 -0.109375,-0.234375 -0.25,-0.234375 -0.171875,0 -0.265625,0.125 -0.328125,0.296875 C 1.4375,-3.875 1.53125,-4.21875 1.21875,-3 H 0.515625 c -0.125,0 -0.21875,0 -0.21875,0.15625 C 0.296875,-2.75 0.375,-2.75 0.5,-2.75 H 1.15625 L 0.75,-1.109375 C 0.703125,-0.9375 0.640625,-0.6875 0.640625,-0.59375 c 0,0.40625 0.359375,0.65625 0.75,0.65625 0.78125,0 1.21875,-0.96875 1.21875,-1.0625 0,-0.09375 -0.09375,-0.09375 -0.109375,-0.09375 -0.09375,0 -0.09375,0.015625 -0.15625,0.140625 -0.1875,0.4375 -0.546875,0.828125 -0.921875,0.828125 -0.15625,0 -0.25,-0.09375 -0.25,-0.34375 0,-0.0625 0.03125,-0.21875 0.046875,-0.28125 z m 0,0"
               id="id-c089ef34-3d15-4931-aede-9ea1ead9394b" />
          </g>
        </g>
      </g>
    </g>
  </g>
  <g
     inkscape:groupmode="layer"
     id="layer3"
     inkscape:label="Volumes"
     transform="translate(-102.7118,-122.60249)"
     style="display:inline">
    <g
       transform="matrix(6.01987,0,0,6.01987,607.18035,165.38582)"
       ns4:version="1.1.0"
       ns4:texconverter="pdflatex"
       ns4:pdfconverter="inkscape"
       ns4:text="$V_a$"
       ns4:preamble="C:\\Users\\zamcr\\AppData\\Roaming\\inkscape\\extensions\\textext\\default_packages.tex"
       ns4:scale="4.514916562291406"
       ns4:alignment="middle center"
       ns4:inkscapeversion="1.1.1"
       ns4:jacobian_sqrt="6.01987"
       id="g3389"
       style="fill:#4d4d4d">
      <defs
         id="id-e31769ef-f71e-4a20-9b03-83708e8d4d50">
        <g
           id="id-7040f866-147d-4a83-b00c-6f385bb6b72b">
          <symbol
             overflow="visible"
             id="id-835d3439-53a1-4645-9945-5d586bc52b17">
            <path
               style="stroke:none"
               d=""
               id="id-30c9dc5d-1de9-4967-9171-fafbb15756d4" />
          </symbol>
          <symbol
             overflow="visible"
             id="id-cc9e2d9b-d958-40ae-a5c6-b9351aef853a">
            <path
               style="stroke:none"
               d="M 6.265625,-5.671875 C 6.75,-6.453125 7.171875,-6.484375 7.53125,-6.5 c 0.125,-0.015625 0.140625,-0.171875 0.140625,-0.1875 0,-0.078125 -0.0625,-0.125 -0.140625,-0.125 -0.25,0 -0.546875,0.03125 -0.8125,0.03125 -0.328125,0 -0.671875,-0.03125 -0.984375,-0.03125 -0.0625,0 -0.1875,0 -0.1875,0.1875 0,0.109375 0.078125,0.125 0.15625,0.125 0.265625,0.015625 0.453125,0.125 0.453125,0.328125 0,0.15625 -0.140625,0.375 -0.140625,0.375 l -3.0625,4.875 -0.6875,-5.28125 C 2.265625,-6.375 2.5,-6.5 2.953125,-6.5 c 0.140625,0 0.25,0 0.25,-0.203125 0,-0.078125 -0.078125,-0.109375 -0.125,-0.109375 -0.40625,0 -0.828125,0.03125 -1.25,0.03125 -0.171875,0 -0.359375,0 -0.546875,0 -0.171875,0 -0.359375,-0.03125 -0.53125,-0.03125 -0.078125,0 -0.1875,0 -0.1875,0.1875 0,0.125 0.078125,0.125 0.25,0.125 0.546875,0 0.5625,0.09375 0.59375,0.34375 L 2.1875,-0.015625 C 2.21875,0.1875 2.265625,0.21875 2.390625,0.21875 c 0.15625,0 0.203125,-0.046875 0.28125,-0.171875 z m 0,0"
               id="id-d74dd0bc-0d16-4d20-850c-0dbd222f0574" />
          </symbol>
          <symbol
             overflow="visible"
             id="id-c45594d1-5aad-45e7-935e-1748a51419a5">
            <path
               style="stroke:none"
               d=""
               id="id-2b294871-d2ff-467e-b6bf-df415b5e37fb" />
          </symbol>
          <symbol
             overflow="visible"
             id="id-87667518-1998-4928-846d-928191b6aee5">
            <path
               style="stroke:none"
               d="m 2.9375,-2.65625 c -0.140625,-0.234375 -0.375,-0.421875 -0.71875,-0.421875 -0.890625,0 -1.796875,0.984375 -1.796875,1.984375 0,0.6875 0.453125,1.15625 1.0625,1.15625 0.375,0 0.703125,-0.203125 0.984375,-0.484375 C 2.59375,0 3,0.0625 3.1875,0.0625 c 0.25,0 0.421875,-0.140625 0.546875,-0.359375 0.15625,-0.28125 0.25,-0.671875 0.25,-0.703125 0,-0.09375 -0.09375,-0.09375 -0.109375,-0.09375 -0.109375,0 -0.109375,0.03125 -0.15625,0.21875 C 3.625,-0.53125 3.5,-0.125 3.203125,-0.125 3.03125,-0.125 2.96875,-0.28125 2.96875,-0.46875 c 0,-0.109375 0.0625,-0.375 0.109375,-0.546875 0.046875,-0.1875 0.125,-0.46875 0.15625,-0.625 L 3.375,-2.171875 C 3.421875,-2.359375 3.5,-2.6875 3.5,-2.71875 3.5,-2.875 3.375,-2.9375 3.265625,-2.9375 c -0.125,0 -0.28125,0.078125 -0.328125,0.28125 z M 2.5,-0.875 C 2.453125,-0.671875 2.296875,-0.53125 2.140625,-0.40625 2.078125,-0.34375 1.796875,-0.125 1.5,-0.125 c -0.265625,0 -0.515625,-0.1875 -0.515625,-0.671875 0,-0.375 0.203125,-1.140625 0.375,-1.421875 0.3125,-0.5625 0.671875,-0.65625 0.859375,-0.65625 0.484375,0 0.625,0.53125 0.625,0.609375 0,0.015625 -0.015625,0.078125 -0.015625,0.09375 z m 0,0"
               id="id-89572b57-7cd1-4ae4-991e-a20b2b628ebe" />
          </symbol>
        </g>
      </defs>
      <g
         id="id-b19d1e5f-604d-4ecb-924a-db211cdfa324"
         transform="translate(-149.275,-127.953)"
         style="fill:#4d4d4d">
        <g
           style="fill:#4d4d4d;fill-opacity:1"
           id="id-a8d8f5c1-f305-4d3e-8105-f8a0e8276063">
          <g
             transform="translate(148.712,134.765)"
             id="g3381"
             style="fill:#4d4d4d">
            <path
               style="fill:#4d4d4d;stroke:none"
               d="M 6.265625,-5.671875 C 6.75,-6.453125 7.171875,-6.484375 7.53125,-6.5 c 0.125,-0.015625 0.140625,-0.171875 0.140625,-0.1875 0,-0.078125 -0.0625,-0.125 -0.140625,-0.125 -0.25,0 -0.546875,0.03125 -0.8125,0.03125 -0.328125,0 -0.671875,-0.03125 -0.984375,-0.03125 -0.0625,0 -0.1875,0 -0.1875,0.1875 0,0.109375 0.078125,0.125 0.15625,0.125 0.265625,0.015625 0.453125,0.125 0.453125,0.328125 0,0.15625 -0.140625,0.375 -0.140625,0.375 l -3.0625,4.875 -0.6875,-5.28125 C 2.265625,-6.375 2.5,-6.5 2.953125,-6.5 c 0.140625,0 0.25,0 0.25,-0.203125 0,-0.078125 -0.078125,-0.109375 -0.125,-0.109375 -0.40625,0 -0.828125,0.03125 -1.25,0.03125 -0.171875,0 -0.359375,0 -0.546875,0 -0.171875,0 -0.359375,-0.03125 -0.53125,-0.03125 -0.078125,0 -0.1875,0 -0.1875,0.1875 0,0.125 0.078125,0.125 0.25,0.125 0.546875,0 0.5625,0.09375 0.59375,0.34375 L 2.1875,-0.015625 C 2.21875,0.1875 2.265625,0.21875 2.390625,0.21875 c 0.15625,0 0.203125,-0.046875 0.28125,-0.171875 z m 0,0"
               id="id-523bdc8d-be6f-453b-96df-9479811ee784" />
          </g>
        </g>
        <g
           style="fill:#4d4d4d;fill-opacity:1"
           id="id-9e410290-abb0-4248-9b7a-351d525128be">
          <g
             transform="translate(154.524,136.259)"
             id="g3385"
             style="fill:#4d4d4d">
            <path
               style="fill:#4d4d4d;stroke:none"
               d="m 2.9375,-2.65625 c -0.140625,-0.234375 -0.375,-0.421875 -0.71875,-0.421875 -0.890625,0 -1.796875,0.984375 -1.796875,1.984375 0,0.6875 0.453125,1.15625 1.0625,1.15625 0.375,0 0.703125,-0.203125 0.984375,-0.484375 C 2.59375,0 3,0.0625 3.1875,0.0625 c 0.25,0 0.421875,-0.140625 0.546875,-0.359375 0.15625,-0.28125 0.25,-0.671875 0.25,-0.703125 0,-0.09375 -0.09375,-0.09375 -0.109375,-0.09375 -0.109375,0 -0.109375,0.03125 -0.15625,0.21875 C 3.625,-0.53125 3.5,-0.125 3.203125,-0.125 3.03125,-0.125 2.96875,-0.28125 2.96875,-0.46875 c 0,-0.109375 0.0625,-0.375 0.109375,-0.546875 0.046875,-0.1875 0.125,-0.46875 0.15625,-0.625 L 3.375,-2.171875 C 3.421875,-2.359375 3.5,-2.6875 3.5,-2.71875 3.5,-2.875 3.375,-2.9375 3.265625,-2.9375 c -0.125,0 -0.28125,0.078125 -0.328125,0.28125 z M 2.5,-0.875 C 2.453125,-0.671875 2.296875,-0.53125 2.140625,-0.40625 2.078125,-0.34375 1.796875,-0.125 1.5,-0.125 c -0.265625,0 -0.515625,-0.1875 -0.515625,-0.671875 0,-0.375 0.203125,-1.140625 0.375,-1.421875 0.3125,-0.5625 0.671875,-0.65625 0.859375,-0.65625 0.484375,0 0.625,0.53125 0.625,0.609375 0,0.015625 -0.015625,0.078125 -0.015625,0.09375 z m 0,0"
               id="id-6eec1f06-23d2-4398-970a-e93f0a40de6b" />
          </g>
        </g>
      </g>
    </g>
    <g
       transform="matrix(6.01987,0,0,6.01987,602.803,259.152)"
       ns4:version="1.1.0"
       ns4:texconverter="pdflatex"
       ns4:pdfconverter="inkscape"
       ns4:text="$V_w$"
       ns4:preamble="C:\\Users\\zamcr\\AppData\\Roaming\\inkscape\\extensions\\textext\\default_packages.tex"
       ns4:scale="4.514916562291406"
       ns4:alignment="middle center"
       ns4:inkscapeversion="1.1.1"
       ns4:jacobian_sqrt="6.01987"
       style="fill:#000080;stroke-width:0"
       id="g3820">
      <defs
         id="id-e38775ea-b7ad-4931-bfc7-962fe483456a"
         style="fill:#000080;stroke-width:0">
        <g
           id="id-d26fa4df-c01d-4e6e-a0de-915daa1ce93e"
           style="fill:#000080;stroke-width:0">
          <symbol
             overflow="visible"
             id="id-b10378ce-b542-4ebd-a074-7f4273b118c6"
             style="fill:#000080;stroke-width:0">
            <path
               style="fill:#000080;stroke:none;stroke-width:0"
               d=""
               id="id-73f4626d-0d33-44d6-bffe-e661322564ba" />
          </symbol>
          <symbol
             overflow="visible"
             id="id-5ee67986-56df-4d44-9edf-db8eeea5567b"
             style="fill:#000080;stroke-width:0">
            <path
               style="fill:#000080;stroke:none;stroke-width:0"
               d="M 6.265625,-5.671875 C 6.75,-6.453125 7.171875,-6.484375 7.53125,-6.5 c 0.125,-0.015625 0.140625,-0.171875 0.140625,-0.1875 0,-0.078125 -0.0625,-0.125 -0.140625,-0.125 -0.25,0 -0.546875,0.03125 -0.8125,0.03125 -0.328125,0 -0.671875,-0.03125 -0.984375,-0.03125 -0.0625,0 -0.1875,0 -0.1875,0.1875 0,0.109375 0.078125,0.125 0.15625,0.125 0.265625,0.015625 0.453125,0.125 0.453125,0.328125 0,0.15625 -0.140625,0.375 -0.140625,0.375 l -3.0625,4.875 -0.6875,-5.28125 C 2.265625,-6.375 2.5,-6.5 2.953125,-6.5 c 0.140625,0 0.25,0 0.25,-0.203125 0,-0.078125 -0.078125,-0.109375 -0.125,-0.109375 -0.40625,0 -0.828125,0.03125 -1.25,0.03125 -0.171875,0 -0.359375,0 -0.546875,0 -0.171875,0 -0.359375,-0.03125 -0.53125,-0.03125 -0.078125,0 -0.1875,0 -0.1875,0.1875 0,0.125 0.078125,0.125 0.25,0.125 0.546875,0 0.5625,0.09375 0.59375,0.34375 L 2.1875,-0.015625 C 2.21875,0.1875 2.265625,0.21875 2.390625,0.21875 c 0.15625,0 0.203125,-0.046875 0.28125,-0.171875 z m 0,0"
               id="id-badd24fe-96b7-4da1-94a7-239aec2241b2" />
          </symbol>
          <symbol
             overflow="visible"
             id="id-1f64a519-9323-4bbb-8215-942dcdddac6c"
             style="fill:#000080;stroke-width:0">
            <path
               style="fill:#000080;stroke:none;stroke-width:0"
               d=""
               id="id-32d8eb21-036b-42f7-9560-69dd81ae9e3f" />
          </symbol>
          <symbol
             overflow="visible"
             id="id-e3c99987-cc5d-425a-994d-f1b61de0fe20"
             style="fill:#000080;stroke-width:0">
            <path
               style="fill:#000080;stroke:none;stroke-width:0"
               d="m 3.671875,-2.21875 c 0.046875,-0.1875 0.125,-0.53125 0.125,-0.5625 C 3.796875,-2.921875 3.6875,-3 3.5625,-3 3.4375,-3 3.3125,-2.921875 3.265625,-2.796875 3.25,-2.75 3.171875,-2.453125 3.125,-2.28125 3.03125,-1.875 3.03125,-1.875 2.921875,-1.484375 2.84375,-1.09375 2.828125,-1.03125 2.8125,-0.84375 2.84375,-0.703125 2.78125,-0.5625 2.625,-0.359375 2.53125,-0.25 2.390625,-0.125 2.15625,-0.125 1.875,-0.125 1.53125,-0.21875 1.53125,-0.765625 1.53125,-1.125 1.71875,-1.640625 1.859375,-2 1.984375,-2.296875 2,-2.359375 2,-2.484375 2,-2.8125 1.71875,-3.078125 1.34375,-3.078125 0.640625,-3.078125 0.328125,-2.125 0.328125,-2 c 0,0.078125 0.09375,0.078125 0.125,0.078125 0.09375,0 0.09375,-0.03125 0.125,-0.109375 C 0.75,-2.609375 1.046875,-2.875 1.328125,-2.875 1.4375,-2.875 1.5,-2.796875 1.5,-2.640625 c 0,0.171875 -0.0625,0.3125 -0.09375,0.40625 C 1,-1.21875 1,-1.078125 1,-0.859375 1,-0.03125 1.75,0.0625 2.125,0.0625 c 0.140625,0 0.46875,0 0.78125,-0.453125 C 3.078125,-0.078125 3.453125,0.0625 3.875,0.0625 4.5,0.0625 4.8125,-0.46875 4.953125,-0.75 5.25,-1.34375 5.4375,-2.203125 5.4375,-2.53125 c 0,-0.515625 -0.296875,-0.546875 -0.34375,-0.546875 -0.1875,0 -0.390625,0.1875 -0.390625,0.375 0,0.109375 0.078125,0.171875 0.125,0.203125 C 5,-2.359375 5.09375,-2.15625 5.09375,-1.9375 c 0,0.09375 -0.296875,1.8125 -1.1875,1.8125 -0.5625,0 -0.5625,-0.5 -0.5625,-0.625 0,-0.1875 0.03125,-0.296875 0.125,-0.6875 z m 0,0"
               id="id-527bac7e-9abf-41ae-abc6-eb9730340487" />
          </symbol>
        </g>
      </defs>
      <g
         id="id-77210764-84ff-4884-8cf1-2bd18c956064"
         transform="translate(-149.275,-127.953)"
         style="fill:#000080;stroke-width:0">
        <g
           style="fill:#000080;fill-opacity:1;stroke-width:0"
           id="id-d5349b9a-9eec-447e-ad07-0e3e7287937e">
          <g
             transform="translate(148.712,134.765)"
             style="fill:#000080;stroke-width:0"
             id="g3812">
            <path
               style="fill:#000080;stroke:none;stroke-width:0"
               d="M 6.265625,-5.671875 C 6.75,-6.453125 7.171875,-6.484375 7.53125,-6.5 c 0.125,-0.015625 0.140625,-0.171875 0.140625,-0.1875 0,-0.078125 -0.0625,-0.125 -0.140625,-0.125 -0.25,0 -0.546875,0.03125 -0.8125,0.03125 -0.328125,0 -0.671875,-0.03125 -0.984375,-0.03125 -0.0625,0 -0.1875,0 -0.1875,0.1875 0,0.109375 0.078125,0.125 0.15625,0.125 0.265625,0.015625 0.453125,0.125 0.453125,0.328125 0,0.15625 -0.140625,0.375 -0.140625,0.375 l -3.0625,4.875 -0.6875,-5.28125 C 2.265625,-6.375 2.5,-6.5 2.953125,-6.5 c 0.140625,0 0.25,0 0.25,-0.203125 0,-0.078125 -0.078125,-0.109375 -0.125,-0.109375 -0.40625,0 -0.828125,0.03125 -1.25,0.03125 -0.171875,0 -0.359375,0 -0.546875,0 -0.171875,0 -0.359375,-0.03125 -0.53125,-0.03125 -0.078125,0 -0.1875,0 -0.1875,0.1875 0,0.125 0.078125,0.125 0.25,0.125 0.546875,0 0.5625,0.09375 0.59375,0.34375 L 2.1875,-0.015625 C 2.21875,0.1875 2.265625,0.21875 2.390625,0.21875 c 0.15625,0 0.203125,-0.046875 0.28125,-0.171875 z m 0,0"
               id="id-22919ca9-6f24-406c-aec2-c80679c188a4" />
          </g>
        </g>
        <g
           style="fill:#000080;fill-opacity:1;stroke-width:0"
           id="id-8a8af36c-da6d-47b0-b17c-df2aee034793">
          <g
             transform="translate(154.524,136.259)"
             style="fill:#000080;stroke-width:0"
             id="g3816">
            <path
               style="fill:#000080;stroke:none;stroke-width:0"
               d="m 3.671875,-2.21875 c 0.046875,-0.1875 0.125,-0.53125 0.125,-0.5625 C 3.796875,-2.921875 3.6875,-3 3.5625,-3 3.4375,-3 3.3125,-2.921875 3.265625,-2.796875 3.25,-2.75 3.171875,-2.453125 3.125,-2.28125 3.03125,-1.875 3.03125,-1.875 2.921875,-1.484375 2.84375,-1.09375 2.828125,-1.03125 2.8125,-0.84375 2.84375,-0.703125 2.78125,-0.5625 2.625,-0.359375 2.53125,-0.25 2.390625,-0.125 2.15625,-0.125 1.875,-0.125 1.53125,-0.21875 1.53125,-0.765625 1.53125,-1.125 1.71875,-1.640625 1.859375,-2 1.984375,-2.296875 2,-2.359375 2,-2.484375 2,-2.8125 1.71875,-3.078125 1.34375,-3.078125 0.640625,-3.078125 0.328125,-2.125 0.328125,-2 c 0,0.078125 0.09375,0.078125 0.125,0.078125 0.09375,0 0.09375,-0.03125 0.125,-0.109375 C 0.75,-2.609375 1.046875,-2.875 1.328125,-2.875 1.4375,-2.875 1.5,-2.796875 1.5,-2.640625 c 0,0.171875 -0.0625,0.3125 -0.09375,0.40625 C 1,-1.21875 1,-1.078125 1,-0.859375 1,-0.03125 1.75,0.0625 2.125,0.0625 c 0.140625,0 0.46875,0 0.78125,-0.453125 C 3.078125,-0.078125 3.453125,0.0625 3.875,0.0625 4.5,0.0625 4.8125,-0.46875 4.953125,-0.75 5.25,-1.34375 5.4375,-2.203125 5.4375,-2.53125 c 0,-0.515625 -0.296875,-0.546875 -0.34375,-0.546875 -0.1875,0 -0.390625,0.1875 -0.390625,0.375 0,0.109375 0.078125,0.171875 0.125,0.203125 C 5,-2.359375 5.09375,-2.15625 5.09375,-1.9375 c 0,0.09375 -0.296875,1.8125 -1.1875,1.8125 -0.5625,0 -0.5625,-0.5 -0.5625,-0.625 0,-0.1875 0.03125,-0.296875 0.125,-0.6875 z m 0,0"
               id="id-8b12debc-bcd1-484c-b044-da2b2a5026eb" />
          </g>
        </g>
      </g>
    </g>
    <g
       transform="matrix(6.01987,0,0,6.01987,611.29,451.124)"
       ns4:version="1.1.0"
       ns4:texconverter="pdflatex"
       ns4:pdfconverter="inkscape"
       ns4:text="$V_s$"
       ns4:preamble="C:\\Users\\zamcr\\AppData\\Roaming\\inkscape\\extensions\\textext\\default_packages.tex"
       ns4:scale="4.514916562291406"
       ns4:alignment="middle center"
       ns4:inkscapeversion="1.1.1"
       ns4:jacobian_sqrt="6.01987"
       style="fill:#ff0000;stroke-width:0"
       id="g4402">
      <defs
         id="id-9e99758a-f3ed-47df-8029-34b227433978"
         style="fill:#ff0000;stroke-width:0">
        <g
           id="id-4083d011-4675-424b-a5f9-68520bff308d"
           style="fill:#ff0000;stroke-width:0">
          <symbol
             overflow="visible"
             id="id-2f206753-3ffe-418b-8a24-07d7d1e1eaa9"
             style="fill:#ff0000;stroke-width:0">
            <path
               style="fill:#ff0000;stroke:none;stroke-width:0"
               d=""
               id="id-3f2cfb3d-b678-4306-b15a-027b2fb9c015" />
          </symbol>
          <symbol
             overflow="visible"
             id="id-99118bdb-eaba-4db4-9054-bfd05709efaf"
             style="fill:#ff0000;stroke-width:0">
            <path
               style="fill:#ff0000;stroke:none;stroke-width:0"
               d="M 6.265625,-5.671875 C 6.75,-6.453125 7.171875,-6.484375 7.53125,-6.5 c 0.125,-0.015625 0.140625,-0.171875 0.140625,-0.1875 0,-0.078125 -0.0625,-0.125 -0.140625,-0.125 -0.25,0 -0.546875,0.03125 -0.8125,0.03125 -0.328125,0 -0.671875,-0.03125 -0.984375,-0.03125 -0.0625,0 -0.1875,0 -0.1875,0.1875 0,0.109375 0.078125,0.125 0.15625,0.125 0.265625,0.015625 0.453125,0.125 0.453125,0.328125 0,0.15625 -0.140625,0.375 -0.140625,0.375 l -3.0625,4.875 -0.6875,-5.28125 C 2.265625,-6.375 2.5,-6.5 2.953125,-6.5 c 0.140625,0 0.25,0 0.25,-0.203125 0,-0.078125 -0.078125,-0.109375 -0.125,-0.109375 -0.40625,0 -0.828125,0.03125 -1.25,0.03125 -0.171875,0 -0.359375,0 -0.546875,0 -0.171875,0 -0.359375,-0.03125 -0.53125,-0.03125 -0.078125,0 -0.1875,0 -0.1875,0.1875 0,0.125 0.078125,0.125 0.25,0.125 0.546875,0 0.5625,0.09375 0.59375,0.34375 L 2.1875,-0.015625 C 2.21875,0.1875 2.265625,0.21875 2.390625,0.21875 c 0.15625,0 0.203125,-0.046875 0.28125,-0.171875 z m 0,0"
               id="id-9cb3bce5-7a63-4d33-a937-cee70222930b" />
          </symbol>
          <symbol
             overflow="visible"
             id="id-4e275a83-d182-4a84-8c4e-1d5fb50e9025"
             style="fill:#ff0000;stroke-width:0">
            <path
               style="fill:#ff0000;stroke:none;stroke-width:0"
               d=""
               id="id-d3001ebb-4d89-44a6-b26c-0fb4892db1bc" />
          </symbol>
          <symbol
             overflow="visible"
             id="id-3630d0c0-978f-4892-8f5c-23903ed39b99"
             style="fill:#ff0000;stroke-width:0">
            <path
               style="fill:#ff0000;stroke:none;stroke-width:0"
               d="m 3,-2.625 c -0.171875,0.046875 -0.296875,0.1875 -0.296875,0.328125 0,0.171875 0.140625,0.234375 0.234375,0.234375 0.078125,0 0.34375,-0.046875 0.34375,-0.40625 0,-0.453125 -0.5,-0.609375 -0.9375,-0.609375 -1.078125,0 -1.28125,0.8125 -1.28125,1.015625 0,0.265625 0.15625,0.4375 0.25,0.515625 0.171875,0.140625 0.296875,0.171875 0.78125,0.25 0.15625,0.03125 0.59375,0.109375 0.59375,0.453125 0,0.125 -0.078125,0.390625 -0.359375,0.5625 C 2.046875,-0.125 1.703125,-0.125 1.625,-0.125 1.34375,-0.125 0.953125,-0.1875 0.78125,-0.421875 1.015625,-0.453125 1.171875,-0.625 1.171875,-0.8125 c 0,-0.171875 -0.125,-0.265625 -0.265625,-0.265625 -0.203125,0 -0.40625,0.171875 -0.40625,0.46875 0,0.421875 0.4375,0.671875 1.109375,0.671875 1.296875,0 1.53125,-0.875 1.53125,-1.140625 0,-0.640625 -0.703125,-0.765625 -0.96875,-0.8125 -0.0625,-0.015625 -0.234375,-0.046875 -0.28125,-0.0625 -0.25,-0.046875 -0.375,-0.1875 -0.375,-0.34375 0,-0.15625 0.125,-0.34375 0.28125,-0.453125 0.1875,-0.109375 0.421875,-0.125 0.546875,-0.125 0.140625,0 0.5,0.015625 0.65625,0.25 z m 0,0"
               id="id-eea052ce-15d3-4aa9-a235-d3d60d458bf2" />
          </symbol>
        </g>
      </defs>
      <g
         id="id-85ce2f17-4d13-4aca-af86-15660421ea0c"
         transform="translate(-149.275,-127.953)"
         style="fill:#ff0000;stroke-width:0">
        <g
           style="fill:#ff0000;fill-opacity:1;stroke-width:0"
           id="id-eef38160-ef2d-41d0-854e-5cb0d3f7a36c">
          <g
             transform="translate(148.712,134.765)"
             style="fill:#ff0000;stroke-width:0"
             id="g4394">
            <path
               style="fill:#ff0000;stroke:none;stroke-width:0"
               d="M 6.265625,-5.671875 C 6.75,-6.453125 7.171875,-6.484375 7.53125,-6.5 c 0.125,-0.015625 0.140625,-0.171875 0.140625,-0.1875 0,-0.078125 -0.0625,-0.125 -0.140625,-0.125 -0.25,0 -0.546875,0.03125 -0.8125,0.03125 -0.328125,0 -0.671875,-0.03125 -0.984375,-0.03125 -0.0625,0 -0.1875,0 -0.1875,0.1875 0,0.109375 0.078125,0.125 0.15625,0.125 0.265625,0.015625 0.453125,0.125 0.453125,0.328125 0,0.15625 -0.140625,0.375 -0.140625,0.375 l -3.0625,4.875 -0.6875,-5.28125 C 2.265625,-6.375 2.5,-6.5 2.953125,-6.5 c 0.140625,0 0.25,0 0.25,-0.203125 0,-0.078125 -0.078125,-0.109375 -0.125,-0.109375 -0.40625,0 -0.828125,0.03125 -1.25,0.03125 -0.171875,0 -0.359375,0 -0.546875,0 -0.171875,0 -0.359375,-0.03125 -0.53125,-0.03125 -0.078125,0 -0.1875,0 -0.1875,0.1875 0,0.125 0.078125,0.125 0.25,0.125 0.546875,0 0.5625,0.09375 0.59375,0.34375 L 2.1875,-0.015625 C 2.21875,0.1875 2.265625,0.21875 2.390625,0.21875 c 0.15625,0 0.203125,-0.046875 0.28125,-0.171875 z m 0,0"
               id="id-cae8ff1a-fa94-4764-8806-4a5d9318fdf1" />
          </g>
        </g>
        <g
           style="fill:#ff0000;fill-opacity:1;stroke-width:0"
           id="id-b6e07b23-3a04-4e3b-a01b-4d41a477c134">
          <g
             transform="translate(154.524,136.259)"
             style="fill:#ff0000;stroke-width:0"
             id="g4398">
            <path
               style="fill:#ff0000;stroke:none;stroke-width:0"
               d="m 3,-2.625 c -0.171875,0.046875 -0.296875,0.1875 -0.296875,0.328125 0,0.171875 0.140625,0.234375 0.234375,0.234375 0.078125,0 0.34375,-0.046875 0.34375,-0.40625 0,-0.453125 -0.5,-0.609375 -0.9375,-0.609375 -1.078125,0 -1.28125,0.8125 -1.28125,1.015625 0,0.265625 0.15625,0.4375 0.25,0.515625 0.171875,0.140625 0.296875,0.171875 0.78125,0.25 0.15625,0.03125 0.59375,0.109375 0.59375,0.453125 0,0.125 -0.078125,0.390625 -0.359375,0.5625 C 2.046875,-0.125 1.703125,-0.125 1.625,-0.125 1.34375,-0.125 0.953125,-0.1875 0.78125,-0.421875 1.015625,-0.453125 1.171875,-0.625 1.171875,-0.8125 c 0,-0.171875 -0.125,-0.265625 -0.265625,-0.265625 -0.203125,0 -0.40625,0.171875 -0.40625,0.46875 0,0.421875 0.4375,0.671875 1.109375,0.671875 1.296875,0 1.53125,-0.875 1.53125,-1.140625 0,-0.640625 -0.703125,-0.765625 -0.96875,-0.8125 -0.0625,-0.015625 -0.234375,-0.046875 -0.28125,-0.0625 -0.25,-0.046875 -0.375,-0.1875 -0.375,-0.34375 0,-0.15625 0.125,-0.34375 0.28125,-0.453125 0.1875,-0.109375 0.421875,-0.125 0.546875,-0.125 0.140625,0 0.5,0.015625 0.65625,0.25 z m 0,0"
               id="id-6d01023b-b6af-4818-abe6-8a10f000e9fc" />
          </g>
        </g>
      </g>
    </g>
    <path
       style="display:inline;fill:none;stroke:#000000;stroke-width:7.55906;stroke-linecap:round;stroke-linejoin:miter;stroke-miterlimit:4;stroke-dasharray:none;stroke-opacity:1"
       d="m 588.83478,127.60249 h 205.118"
       id="path2804" />
    <path
       style="display:inline;fill:none;stroke:#000000;stroke-width:7.55906;stroke-linecap:round;stroke-linejoin:miter;stroke-miterlimit:4;stroke-dasharray:none;stroke-opacity:1"
       d="m 588.83478,252.81987 h 205.118"
       id="path2806" />
    <path
       style="display:inline;fill:none;stroke:#000000;stroke-width:7.55906;stroke-linecap:round;stroke-linejoin:miter;stroke-miterlimit:4;stroke-dasharray:none;stroke-opacity:1"
       d="m 588.83478,314.83231 h 205.118"
       id="path2808" />
    <path
       style="display:inline;fill:none;stroke:#000000;stroke-width:7.55906;stroke-linecap:round;stroke-linejoin:miter;stroke-miterlimit:4;stroke-dasharray:none;stroke-opacity:1"
       d="m 588.83478,645.16772 h 205.118"
       id="path2810" />
    <path
       style="display:inline;fill:none;stroke:#000000;stroke-width:7.55906;stroke-linecap:round;stroke-linejoin:miter;stroke-miterlimit:4;stroke-dasharray:none;stroke-opacity:1"
       d="M 691.39378,127.60249 V 645.16772"
       id="path2812" />
    <path
       style="display:inline;fill:none;stroke:#000000;stroke-width:7.55906;stroke-linecap:round;stroke-linejoin:miter;stroke-miterlimit:4;stroke-dasharray:none;stroke-opacity:1"
       d="m 347.66306,127.60249 h 205.118"
       id="path4447" />
    <path
       style="display:inline;fill:none;stroke:#000000;stroke-width:7.55906;stroke-linecap:round;stroke-linejoin:miter;stroke-miterlimit:4;stroke-dasharray:none;stroke-opacity:1"
       d="m 347.66306,314.83231 h 205.118"
       id="path4449" />
    <path
       style="fill:none;stroke:#000000;stroke-width:7.55906;stroke-linecap:butt;stroke-linejoin:miter;stroke-miterlimit:4;stroke-dasharray:none;stroke-opacity:1"
       d="M 450.22206,127.60249 V 314.83231"
       id="path4520" />
    <g
       transform="matrix(6.01987,0,0,6.01987,375.544,191.398)"
       ns4:version="1.1.0"
       ns4:texconverter="pdflatex"
       ns4:pdfconverter="inkscape"
       ns4:text="$V_v$"
       ns4:preamble="C:\\Users\\zamcr\\AppData\\Roaming\\inkscape\\extensions\\textext\\default_packages.tex"
       ns4:scale="4.514916562291406"
       ns4:alignment="middle center"
       ns4:inkscapeversion="1.1.1"
       ns4:jacobian_sqrt="6.01987"
       style="fill:#008000;stroke-width:0"
       id="g5014">
      <defs
         id="id-604c8573-15cd-452b-af96-cefb0e0f80b2"
         style="fill:#ff0000;stroke-width:0">
        <g
           id="id-10119f65-9bd2-42bb-b9dc-bbcfa98fd670"
           style="fill:#ff0000;stroke-width:0">
          <symbol
             overflow="visible"
             id="id-86e67591-2f19-43ce-a84d-90d5587c716d"
             style="fill:#ff0000;stroke-width:0">
            <path
               style="fill:#ff0000;stroke:none;stroke-width:0"
               d=""
               id="id-4524c08a-c1a6-4ea5-ae76-a3d8d4c82b5b" />
          </symbol>
          <symbol
             overflow="visible"
             id="id-302ce2a6-2686-46d2-8951-064dd34d09eb"
             style="fill:#ff0000;stroke-width:0">
            <path
               style="fill:#ff0000;stroke:none;stroke-width:0"
               d="M 6.265625,-5.671875 C 6.75,-6.453125 7.171875,-6.484375 7.53125,-6.5 c 0.125,-0.015625 0.140625,-0.171875 0.140625,-0.1875 0,-0.078125 -0.0625,-0.125 -0.140625,-0.125 -0.25,0 -0.546875,0.03125 -0.8125,0.03125 -0.328125,0 -0.671875,-0.03125 -0.984375,-0.03125 -0.0625,0 -0.1875,0 -0.1875,0.1875 0,0.109375 0.078125,0.125 0.15625,0.125 0.265625,0.015625 0.453125,0.125 0.453125,0.328125 0,0.15625 -0.140625,0.375 -0.140625,0.375 l -3.0625,4.875 -0.6875,-5.28125 C 2.265625,-6.375 2.5,-6.5 2.953125,-6.5 c 0.140625,0 0.25,0 0.25,-0.203125 0,-0.078125 -0.078125,-0.109375 -0.125,-0.109375 -0.40625,0 -0.828125,0.03125 -1.25,0.03125 -0.171875,0 -0.359375,0 -0.546875,0 -0.171875,0 -0.359375,-0.03125 -0.53125,-0.03125 -0.078125,0 -0.1875,0 -0.1875,0.1875 0,0.125 0.078125,0.125 0.25,0.125 0.546875,0 0.5625,0.09375 0.59375,0.34375 L 2.1875,-0.015625 C 2.21875,0.1875 2.265625,0.21875 2.390625,0.21875 c 0.15625,0 0.203125,-0.046875 0.28125,-0.171875 z m 0,0"
               id="id-a409c857-5232-4c01-89ec-3f710e85b5eb" />
          </symbol>
          <symbol
             overflow="visible"
             id="id-c7066bcb-b177-4da0-ad0e-9ae047f33aaa"
             style="fill:#ff0000;stroke-width:0">
            <path
               style="fill:#ff0000;stroke:none;stroke-width:0"
               d=""
               id="id-e90f8df0-5659-4e72-9d3e-850184427cff" />
          </symbol>
          <symbol
             overflow="visible"
             id="id-e10e4c94-70aa-4e22-9e6c-dbfa911b9929"
             style="fill:#ff0000;stroke-width:0">
            <path
               style="fill:#ff0000;stroke:none;stroke-width:0"
               d="m 3.71875,-2.53125 c 0,-0.546875 -0.328125,-0.546875 -0.34375,-0.546875 -0.1875,0 -0.375,0.1875 -0.375,0.375 0,0.109375 0.0625,0.171875 0.109375,0.203125 0.125,0.109375 0.265625,0.28125 0.265625,0.5625 0,0.3125 -0.46875,1.8125 -1.296875,1.8125 -0.5625,0 -0.5625,-0.5 -0.5625,-0.625 0,-0.3125 0.125,-0.703125 0.390625,-1.359375 C 1.953125,-2.25 2,-2.359375 2,-2.46875 2,-2.84375 1.6875,-3.078125 1.34375,-3.078125 0.640625,-3.078125 0.328125,-2.125 0.328125,-2 c 0,0.078125 0.09375,0.078125 0.125,0.078125 0.09375,0 0.09375,-0.03125 0.125,-0.109375 C 0.734375,-2.59375 1.03125,-2.875 1.3125,-2.875 c 0.125,0 0.171875,0.078125 0.171875,0.234375 0,0.171875 -0.046875,0.3125 -0.125,0.46875 -0.296875,0.78125 -0.375,1.078125 -0.375,1.328125 0,0.6875 0.546875,0.90625 1.078125,0.90625 1.171875,0 1.65625,-2.015625 1.65625,-2.59375 z m 0,0"
               id="id-ede40d4b-b9b8-48b5-8b06-608a8d7cbf6e" />
          </symbol>
        </g>
      </defs>
      <g
         id="id-fd1bf9f7-db40-4b58-9da7-c5129dbd45a4"
         transform="translate(-149.275,-127.953)"
         style="fill:#008000;stroke-width:0">
        <g
           style="fill:#008000;fill-opacity:1;stroke-width:0"
           id="id-65615505-cb5e-4b6a-9177-56e63fb793f8">
          <g
             transform="translate(148.712,134.765)"
             style="fill:#008000;stroke-width:0"
             id="g5006">
            <path
               style="fill:#008000;stroke:none;stroke-width:0"
               d="M 6.265625,-5.671875 C 6.75,-6.453125 7.171875,-6.484375 7.53125,-6.5 c 0.125,-0.015625 0.140625,-0.171875 0.140625,-0.1875 0,-0.078125 -0.0625,-0.125 -0.140625,-0.125 -0.25,0 -0.546875,0.03125 -0.8125,0.03125 -0.328125,0 -0.671875,-0.03125 -0.984375,-0.03125 -0.0625,0 -0.1875,0 -0.1875,0.1875 0,0.109375 0.078125,0.125 0.15625,0.125 0.265625,0.015625 0.453125,0.125 0.453125,0.328125 0,0.15625 -0.140625,0.375 -0.140625,0.375 l -3.0625,4.875 -0.6875,-5.28125 C 2.265625,-6.375 2.5,-6.5 2.953125,-6.5 c 0.140625,0 0.25,0 0.25,-0.203125 0,-0.078125 -0.078125,-0.109375 -0.125,-0.109375 -0.40625,0 -0.828125,0.03125 -1.25,0.03125 -0.171875,0 -0.359375,0 -0.546875,0 -0.171875,0 -0.359375,-0.03125 -0.53125,-0.03125 -0.078125,0 -0.1875,0 -0.1875,0.1875 0,0.125 0.078125,0.125 0.25,0.125 0.546875,0 0.5625,0.09375 0.59375,0.34375 L 2.1875,-0.015625 C 2.21875,0.1875 2.265625,0.21875 2.390625,0.21875 c 0.15625,0 0.203125,-0.046875 0.28125,-0.171875 z m 0,0"
               id="id-bf18499e-7b73-4355-a602-ee57e4ae9879" />
          </g>
        </g>
        <g
           style="fill:#008000;fill-opacity:1;stroke-width:0"
           id="id-972ff244-1969-4b91-9242-167685135162">
          <g
             transform="translate(154.524,136.259)"
             style="fill:#008000;stroke-width:0"
             id="g5010">
            <path
               style="fill:#008000;stroke:none;stroke-width:0"
               d="m 3.71875,-2.53125 c 0,-0.546875 -0.328125,-0.546875 -0.34375,-0.546875 -0.1875,0 -0.375,0.1875 -0.375,0.375 0,0.109375 0.0625,0.171875 0.109375,0.203125 0.125,0.109375 0.265625,0.28125 0.265625,0.5625 0,0.3125 -0.46875,1.8125 -1.296875,1.8125 -0.5625,0 -0.5625,-0.5 -0.5625,-0.625 0,-0.3125 0.125,-0.703125 0.390625,-1.359375 C 1.953125,-2.25 2,-2.359375 2,-2.46875 2,-2.84375 1.6875,-3.078125 1.34375,-3.078125 0.640625,-3.078125 0.328125,-2.125 0.328125,-2 c 0,0.078125 0.09375,0.078125 0.125,0.078125 0.09375,0 0.09375,-0.03125 0.125,-0.109375 C 0.734375,-2.59375 1.03125,-2.875 1.3125,-2.875 c 0.125,0 0.171875,0.078125 0.171875,0.234375 0,0.171875 -0.046875,0.3125 -0.125,0.46875 -0.296875,0.78125 -0.375,1.078125 -0.375,1.328125 0,0.6875 0.546875,0.90625 1.078125,0.90625 1.171875,0 1.65625,-2.015625 1.65625,-2.59375 z m 0,0"
               id="id-41f911a9-50ab-4881-9972-dcb5bde75149" />
          </g>
        </g>
      </g>
    </g>
    <path
       style="display:inline;fill:none;stroke:#000000;stroke-width:7.55906;stroke-linecap:round;stroke-linejoin:miter;stroke-miterlimit:4;stroke-dasharray:none;stroke-opacity:1"
       d="m 106.49133,127.60249 h 205.118"
       id="path5072" />
    <path
       style="display:inline;fill:none;stroke:#000000;stroke-width:7.55906;stroke-linecap:round;stroke-linejoin:miter;stroke-miterlimit:4;stroke-dasharray:none;stroke-opacity:1"
       d="m 106.49133,645.16772 h 205.118"
       id="path5074" />
    <path
       style="display:inline;fill:none;stroke:#000000;stroke-width:7.55906;stroke-linecap:round;stroke-linejoin:miter;stroke-miterlimit:4;stroke-dasharray:none;stroke-opacity:1"
       d="M 209.05033,127.60249 V 645.16772"
       id="path5076" />
    <g
       transform="matrix(6.01987,0,0,6.01987,141.62256,363.95469)"
       ns4:version="1.1.0"
       ns4:texconverter="pdflatex"
       ns4:pdfconverter="inkscape"
       ns4:text="$V_t$"
       ns4:preamble="C:\\Users\\zamcr\\AppData\\Roaming\\inkscape\\extensions\\textext\\default_packages.tex"
       ns4:scale="4.514916562291406"
       ns4:alignment="middle center"
       ns4:inkscapeversion="1.1.1"
       ns4:jacobian_sqrt="6.01987"
       id="g5481">
      <defs
         id="id-5b74ddd3-9c8f-4ff1-a8a3-b82e5673b69b">
        <g
           id="id-29e4bccf-9c5e-4f07-ae57-0d455d29b6c3">
          <symbol
             overflow="visible"
             id="id-8415ae95-26cc-4615-8f3e-d572231f1128">
            <path
               style="stroke:none"
               d=""
               id="id-0ee6a5b7-402c-4f2a-8088-aba778a0437a" />
          </symbol>
          <symbol
             overflow="visible"
             id="id-84416cdf-6995-4158-9c89-23c59837d0f8">
            <path
               style="stroke:none"
               d="M 6.265625,-5.671875 C 6.75,-6.453125 7.171875,-6.484375 7.53125,-6.5 c 0.125,-0.015625 0.140625,-0.171875 0.140625,-0.1875 0,-0.078125 -0.0625,-0.125 -0.140625,-0.125 -0.25,0 -0.546875,0.03125 -0.8125,0.03125 -0.328125,0 -0.671875,-0.03125 -0.984375,-0.03125 -0.0625,0 -0.1875,0 -0.1875,0.1875 0,0.109375 0.078125,0.125 0.15625,0.125 0.265625,0.015625 0.453125,0.125 0.453125,0.328125 0,0.15625 -0.140625,0.375 -0.140625,0.375 l -3.0625,4.875 -0.6875,-5.28125 C 2.265625,-6.375 2.5,-6.5 2.953125,-6.5 c 0.140625,0 0.25,0 0.25,-0.203125 0,-0.078125 -0.078125,-0.109375 -0.125,-0.109375 -0.40625,0 -0.828125,0.03125 -1.25,0.03125 -0.171875,0 -0.359375,0 -0.546875,0 -0.171875,0 -0.359375,-0.03125 -0.53125,-0.03125 -0.078125,0 -0.1875,0 -0.1875,0.1875 0,0.125 0.078125,0.125 0.25,0.125 0.546875,0 0.5625,0.09375 0.59375,0.34375 L 2.1875,-0.015625 C 2.21875,0.1875 2.265625,0.21875 2.390625,0.21875 c 0.15625,0 0.203125,-0.046875 0.28125,-0.171875 z m 0,0"
               id="id-05422184-d949-4563-bc53-16efb372dec5" />
          </symbol>
          <symbol
             overflow="visible"
             id="id-d0e83bcc-81ae-4912-a200-fd8160d7097d">
            <path
               style="stroke:none"
               d=""
               id="id-d9195444-6d89-4343-8b9c-26511d582002" />
          </symbol>
          <symbol
             overflow="visible"
             id="id-ca53ca94-57e2-40eb-aefe-164a46cf9f07">
            <path
               style="stroke:none"
               d="m 1.71875,-2.75 h 0.703125 c 0.140625,0 0.21875,0 0.21875,-0.15625 C 2.640625,-3 2.5625,-3 2.4375,-3 H 1.78125 l 0.25,-1.03125 C 2.046875,-4.0625 2.0625,-4.109375 2.0625,-4.125 c 0,-0.140625 -0.109375,-0.234375 -0.25,-0.234375 -0.171875,0 -0.265625,0.125 -0.328125,0.296875 C 1.4375,-3.875 1.53125,-4.21875 1.21875,-3 H 0.515625 c -0.125,0 -0.21875,0 -0.21875,0.15625 C 0.296875,-2.75 0.375,-2.75 0.5,-2.75 H 1.15625 L 0.75,-1.109375 C 0.703125,-0.9375 0.640625,-0.6875 0.640625,-0.59375 c 0,0.40625 0.359375,0.65625 0.75,0.65625 0.78125,0 1.21875,-0.96875 1.21875,-1.0625 0,-0.09375 -0.09375,-0.09375 -0.109375,-0.09375 -0.09375,0 -0.09375,0.015625 -0.15625,0.140625 -0.1875,0.4375 -0.546875,0.828125 -0.921875,0.828125 -0.15625,0 -0.25,-0.09375 -0.25,-0.34375 0,-0.0625 0.03125,-0.21875 0.046875,-0.28125 z m 0,0"
               id="id-6a3a41e9-6531-4a66-b396-576721eb80cf" />
          </symbol>
        </g>
      </defs>
      <g
         id="id-0419d414-09d7-447e-999b-322b5b2a781e"
         transform="translate(-149.275,-127.953)">
        <g
           style="fill:#000000;fill-opacity:1"
           id="id-6e1e2451-9414-4a82-bc80-3580b9523d98">
          <g
             transform="translate(148.712,134.765)"
             id="g5473">
            <path
               style="stroke:none"
               d="M 6.265625,-5.671875 C 6.75,-6.453125 7.171875,-6.484375 7.53125,-6.5 c 0.125,-0.015625 0.140625,-0.171875 0.140625,-0.1875 0,-0.078125 -0.0625,-0.125 -0.140625,-0.125 -0.25,0 -0.546875,0.03125 -0.8125,0.03125 -0.328125,0 -0.671875,-0.03125 -0.984375,-0.03125 -0.0625,0 -0.1875,0 -0.1875,0.1875 0,0.109375 0.078125,0.125 0.15625,0.125 0.265625,0.015625 0.453125,0.125 0.453125,0.328125 0,0.15625 -0.140625,0.375 -0.140625,0.375 l -3.0625,4.875 -0.6875,-5.28125 C 2.265625,-6.375 2.5,-6.5 2.953125,-6.5 c 0.140625,0 0.25,0 0.25,-0.203125 0,-0.078125 -0.078125,-0.109375 -0.125,-0.109375 -0.40625,0 -0.828125,0.03125 -1.25,0.03125 -0.171875,0 -0.359375,0 -0.546875,0 -0.171875,0 -0.359375,-0.03125 -0.53125,-0.03125 -0.078125,0 -0.1875,0 -0.1875,0.1875 0,0.125 0.078125,0.125 0.25,0.125 0.546875,0 0.5625,0.09375 0.59375,0.34375 L 2.1875,-0.015625 C 2.21875,0.1875 2.265625,0.21875 2.390625,0.21875 c 0.15625,0 0.203125,-0.046875 0.28125,-0.171875 z m 0,0"
               id="id-3c5be765-3dc5-422f-9da2-b0747e6ec143" />
          </g>
        </g>
        <g
           style="fill:#000000;fill-opacity:1"
           id="id-497c023d-df0f-4ca1-bff2-c6141bfcb222">
          <g
             transform="translate(154.524,136.259)"
             id="g5477">
            <path
               style="stroke:none"
               d="m 1.71875,-2.75 h 0.703125 c 0.140625,0 0.21875,0 0.21875,-0.15625 C 2.640625,-3 2.5625,-3 2.4375,-3 H 1.78125 l 0.25,-1.03125 C 2.046875,-4.0625 2.0625,-4.109375 2.0625,-4.125 c 0,-0.140625 -0.109375,-0.234375 -0.25,-0.234375 -0.171875,0 -0.265625,0.125 -0.328125,0.296875 C 1.4375,-3.875 1.53125,-4.21875 1.21875,-3 H 0.515625 c -0.125,0 -0.21875,0 -0.21875,0.15625 C 0.296875,-2.75 0.375,-2.75 0.5,-2.75 H 1.15625 L 0.75,-1.109375 C 0.703125,-0.9375 0.640625,-0.6875 0.640625,-0.59375 c 0,0.40625 0.359375,0.65625 0.75,0.65625 0.78125,0 1.21875,-0.96875 1.21875,-1.0625 0,-0.09375 -0.09375,-0.09375 -0.109375,-0.09375 -0.09375,0 -0.09375,0.015625 -0.15625,0.140625 -0.1875,0.4375 -0.546875,0.828125 -0.921875,0.828125 -0.15625,0 -0.25,-0.09375 -0.25,-0.34375 0,-0.0625 0.03125,-0.21875 0.046875,-0.28125 z m 0,0"
               id="id-bdeb3e6a-6b47-44b5-9928-b8a976d60237" />
          </g>
        </g>
      </g>
    </g>
    <text
       xml:space="preserve"
       style="font-size:48px;line-height:1;font-family:Arial;-inkscape-font-specification:Arial;text-align:center;text-anchor:middle;fill:#008000"
       x="-218.60825"
       y="500.82349"
       id="text8419"
       transform="rotate(-90)"><tspan
         sodipodi:role="line"
         id="tspan8417"
         x="-218.60825"
         y="500.82349">Voids</tspan></text>
  </g>
</svg>
