<?xml version="1.0" encoding="UTF-8" standalone="no"?>
<!-- Created with Inkscape (http://www.inkscape.org/) -->

<svg
   width="1366"
   height="768"
   viewBox="0 0 1366 768"
   version="1.1"
   id="svg5"
   inkscape:version="1.4 (86a8ad7, 2024-10-11)"
   sodipodi:docname="phase-diagram.svg"
   xmlns:inkscape="http://www.inkscape.org/namespaces/inkscape"
   xmlns:sodipodi="http://sodipodi.sourceforge.net/DTD/sodipodi-0.dtd"
   xmlns:xlink="http://www.w3.org/1999/xlink"
   xmlns="http://www.w3.org/2000/svg"
   xmlns:svg="http://www.w3.org/2000/svg">
  <sodipodi:namedview
     id="namedview7"
     pagecolor="#505050"
     bordercolor="#ffffff"
     borderopacity="1"
     inkscape:pageshadow="0"
     inkscape:pageopacity="0"
     inkscape:pagecheckerboard="1"
     inkscape:document-units="px"
     showgrid="false"
     inkscape:zoom="0.83854167"
     inkscape:cx="665.44099"
     inkscape:cy="268.91925"
     inkscape:window-width="1920"
     inkscape:window-height="1012"
     inkscape:window-x="-8"
     inkscape:window-y="-3"
     inkscape:window-maximized="1"
     inkscape:current-layer="layer1"
     inkscape:showpageshadow="0"
     inkscape:deskcolor="#d1d1d1" />
  <defs
     id="defs2">
    <symbol
       id="arrow-right">
      <title
         id="arrow-right-title">arrow-right</title>
      <path
         d="M190.5 66.9l22.2-22.2c9.4-9.4 24.6-9.4 33.9 0L441 239c9.4 9.4 9.4 24.6 0 33.9L246.6 467.3c-9.4 9.4-24.6 9.4-33.9 0l-22.2-22.2c-9.5-9.5-9.3-25 .4-34.3L311.4 296H24c-13.3 0-24-10.7-24-24v-32c0-13.3 10.7-24 24-24h287.4L190.9 101.2c-9.8-9.3-10-24.8-.4-34.3z"
         id="path77198" />
    </symbol>
  </defs>
  <g
     inkscape:label="Layer 1"
     inkscape:groupmode="layer"
     id="layer1">
    <path
       style="fill:#d6d2c4;stroke:#000000;stroke-width:2.13543307;stroke-linecap:butt;stroke-linejoin:miter;stroke-opacity:1;stroke-dasharray:none"
       d="m 170.53416,271.90062 c 13.57884,-0.467 23.13124,-11.21618 29.81367,-1.19254 37.75696,56.63544 -112.315644,24.76454 -29.81367,1.19254 z"
       id="path1080" />
    <rect
       style="fill:none;stroke:#001d51;stroke-width:10;stroke-linecap:round;stroke-linejoin:bevel;paint-order:stroke fill markers"
       id="rect5719"
       width="398.31055"
       height="517.56525"
       x="73.937889"
       y="127.60249" />
    <path
       style="fill:#d6d2c4;stroke:#000000;stroke-width:1.88976378;stroke-linecap:butt;stroke-linejoin:miter;stroke-dasharray:none;stroke-opacity:1"
       d="M 90.222834,179.4363 C 85.758009,162.44873 69.478226,153.47288 80.209066,142.18615 140.84033,78.414007 143.49333,276.7304 90.222834,179.4363 Z"
       id="use5987" />
    <path
       style="fill:#d6d2c4;stroke:#000000;stroke-width:1.88976378;stroke-linecap:butt;stroke-linejoin:miter;stroke-dasharray:none;stroke-opacity:1"
       d="m 136.95578,181.80794 c 11.77241,-8.74809 13.65885,-24.15647 25.74486,-19.35576 68.2882,27.12492 -84.546485,90.92101 -25.74486,19.35576 z"
       id="use5989" />
    <path
       style="fill:#d6d2c4;stroke:#000000;stroke-width:1.88976378;stroke-linecap:butt;stroke-linejoin:miter;stroke-dasharray:none;stroke-opacity:1"
       d="m 131.73152,159.17901 c 12.75146,-9.90266 14.46747,-26.90415 27.88069,-21.90326 75.7872,28.25597 -90.921296,102.03722 -27.88069,21.90326 z"
       id="use5991" />
    <path
       style="fill:#d6d2c4;stroke:#000000;stroke-width:1.88976378;stroke-linecap:butt;stroke-linejoin:miter;stroke-dasharray:none;stroke-opacity:1"
       d="m 178.18478,151.15663 c 6.19486,14.03706 21.47568,19.5334 13.77668,30.74948 -43.50082,63.3729 -73.1492,-107.323499 -13.77668,-30.74948 z"
       id="use5993" />
    <path
       style="fill:#d6d2c4;stroke:#000000;stroke-width:1.88976378;stroke-linecap:butt;stroke-linejoin:miter;stroke-dasharray:none;stroke-opacity:1"
       d="m 173.0905,173.22349 c 5.8563,-16.75354 -2.71134,-33.46985 12.65451,-36.86315 86.81993,-19.17276 -22.99115,148.46456 -12.65451,36.86315 z"
       id="use5995" />
    <path
       style="fill:#d6d2c4;stroke:#000000;stroke-width:1.88976378;stroke-linecap:butt;stroke-linejoin:miter;stroke-dasharray:none;stroke-opacity:1"
       d="m 240.80107,143.02893 c 14.43218,10.36324 32.90889,6.86429 31.82082,22.58039 -6.14781,88.79892 -136.07029,-64.07705 -31.82082,-22.58039 z"
       id="use5997" />
    <path
       style="fill:#d6d2c4;stroke:#000000;stroke-width:1.88976378;stroke-linecap:butt;stroke-linejoin:miter;stroke-dasharray:none;stroke-opacity:1"
       d="m 264.13266,212.35832 c -16.55618,-3.64893 -31.43646,6.37844 -36.40258,-7.80952 -28.05946,-80.16462 143.42785,4.91995 36.40258,7.80952 z"
       id="use5999" />
    <path
       style="fill:#d6d2c4;stroke:#000000;stroke-width:1.88976378;stroke-linecap:butt;stroke-linejoin:miter;stroke-dasharray:none;stroke-opacity:1"
       d="m 299.43981,149.51494 c 5.33233,13.98075 19.94048,20.09716 11.88184,30.63644 -45.53284,59.54893 -65.88263,-108.180959 -11.88184,-30.63644 z"
       id="use6001" />
    <path
       style="fill:#d6d2c4;stroke:#000000;stroke-width:1.88976378;stroke-linecap:butt;stroke-linejoin:miter;stroke-dasharray:none;stroke-opacity:1"
       d="m 317.27153,160.95785 c 5.63919,12.86901 19.61914,17.9388 12.54205,28.19126 -39.9869,57.92828 -66.72781,-98.454714 -12.54205,-28.19126 z"
       id="use6003" />
    <path
       style="fill:#d6d2c4;stroke:#000000;stroke-width:1.88976378;stroke-linecap:butt;stroke-linejoin:miter;stroke-dasharray:none;stroke-opacity:1"
       d="m 351.25851,168.3262 c -8.3675,11.79895 -5.43039,26.82407 -18.2301,26.01364 -72.32073,-4.57907 51.51259,-111.082188 18.2301,-26.01364 z"
       id="use6005" />
    <path
       style="fill:#d6d2c4;stroke:#000000;stroke-width:1.88976378;stroke-linecap:butt;stroke-linejoin:miter;stroke-dasharray:none;stroke-opacity:1"
       d="m 415.22191,193.0202 c 0.0979,11.31482 8.84222,19.4978 0.35405,24.84638 -47.95977,30.22041 -18.21083,-94.03695 -0.35405,-24.84638 z"
       id="use6007" />
    <path
       style="fill:#d6d2c4;stroke:#000000;stroke-width:1.88976378;stroke-linecap:butt;stroke-linejoin:miter;stroke-dasharray:none;stroke-opacity:1"
       d="m 368.76552,162.07414 c -1.16039,-10.9944 -10.43463,-18.12907 -2.68347,-24.12965 43.79554,-33.90437 26.56303,89.73599 2.68347,24.12965 z"
       id="use6009" />
    <path
       style="fill:#d6d2c4;stroke:#000000;stroke-width:1.88976378;stroke-linecap:butt;stroke-linejoin:miter;stroke-dasharray:none;stroke-opacity:1"
       d="m 420.2957,165.54042 c -10.56442,1.21141 -17.34619,10.1933 -23.18479,2.7902 -32.98919,-41.82889 86.07839,-26.32657 23.18479,-2.7902 z"
       id="use6011" />
    <path
       style="fill:#d6d2c4;stroke:#000000;stroke-width:1.88976378;stroke-linecap:butt;stroke-linejoin:miter;stroke-dasharray:none;stroke-opacity:1"
       d="m 447.76143,132.62272 c 9.32619,-0.37541 15.84505,-7.79803 20.47588,-0.9391 26.16508,38.75425 -77.05632,17.46373 -20.47588,0.9391 z"
       id="use6013" />
    <path
       style="fill:#d6d2c4;stroke:#000000;stroke-width:1.88976378;stroke-linecap:butt;stroke-linejoin:miter;stroke-dasharray:none;stroke-opacity:1"
       d="m 430.81382,163.75684 c 14.01492,1.33254 25.26496,-8.43752 30.79344,2.75393 31.23694,63.2338 -118.71244,10.45515 -30.79344,-2.75393 z"
       id="use6015" />
    <path
       style="fill:#d6d2c4;stroke:#000000;stroke-width:1.88976378;stroke-linecap:butt;stroke-linejoin:miter;stroke-dasharray:none;stroke-opacity:1"
       d="m 417.93994,225.5956 c 1.12042,-11.43907 -6.83004,-20.64657 2.31979,-25.13423 51.69825,-25.35605 8.26058,96.94435 -2.31979,25.13423 z"
       id="use6017" />
    <path
       style="fill:#d6d2c4;stroke:#000000;stroke-width:1.88976378;stroke-linecap:butt;stroke-linejoin:miter;stroke-dasharray:none;stroke-opacity:1"
       d="m 444.15362,284.69233 c -1.82818,9.64615 4.23143,18.08761 -3.8961,21.20563 -45.92203,17.61738 0.38757,-83.10773 3.8961,-21.20563 z"
       id="use6019" />
    <path
       style="fill:#d6d2c4;stroke:#000000;stroke-width:1.88976378;stroke-linecap:butt;stroke-linejoin:miter;stroke-dasharray:none;stroke-opacity:1"
       d="m 370.92716,236.36495 c 8.3825,-7.30889 8.89803,-19.06849 18.31826,-16.15357 53.2261,16.46988 -58.54081,73.72892 -18.31826,16.15357 z"
       id="use6021" />
    <path
       style="fill:#d6d2c4;stroke:#000000;stroke-width:1.88976378;stroke-linecap:butt;stroke-linejoin:miter;stroke-dasharray:none;stroke-opacity:1"
       d="m 348.62444,273.13465 c 0.38638,-15.23212 -11.00723,-26.64527 0.66116,-33.4548 65.9286,-38.4751 20.20269,127.38998 -0.66116,33.4548 z"
       id="use6023" />
    <path
       style="fill:#d6d2c4;stroke:#000000;stroke-width:1.88976378;stroke-linecap:butt;stroke-linejoin:miter;stroke-dasharray:none;stroke-opacity:1"
       d="m 359.12097,227.7375 c 2.02169,10.31927 11.40705,16.30103 4.56658,22.63648 -38.64991,35.79643 -32.69464,-82.79193 -4.56658,-22.63648 z"
       id="use6025" />
    <path
       style="fill:#d6d2c4;stroke:#000000;stroke-width:1.88976378;stroke-linecap:butt;stroke-linejoin:miter;stroke-dasharray:none;stroke-opacity:1"
       d="m 298.02053,247.58534 c -16.2504,-3.18652 -30.55307,6.94395 -35.7254,-6.79782 -29.22456,-77.64358 140.17155,1.54087 35.7254,6.79782 z"
       id="use6027" />
    <path
       style="fill:#d6d2c4;stroke:#000000;stroke-width:1.88976378;stroke-linecap:butt;stroke-linejoin:miter;stroke-dasharray:none;stroke-opacity:1"
       d="m 334.90706,245.46478 c -7.65201,-8.45406 -19.71688,-8.75881 -16.90793,-18.47119 15.87108,-54.87675 76.69508,58.60899 16.90793,18.47119 z"
       id="use6029" />
    <path
       style="fill:#d6d2c4;stroke:#000000;stroke-width:1.88976378;stroke-linecap:butt;stroke-linejoin:miter;stroke-dasharray:none;stroke-opacity:1"
       d="m 275.73646,285.22853 c -6.53511,-12.04944 -20.54073,-15.83434 -14.49943,-26.38045 34.1345,-59.58744 72.9256,90.25499 14.49943,26.38045 z"
       id="use6031" />
    <path
       style="fill:#d6d2c4;stroke:#000000;stroke-width:1.88976378;stroke-linecap:butt;stroke-linejoin:miter;stroke-dasharray:none;stroke-opacity:1"
       d="m 247.67412,273.4252 c -5.58839,-10.14444 -17.44285,-13.26469 -12.39697,-22.20868 28.51014,-50.53524 62.11594,75.85289 12.39697,22.20868 z"
       id="use6033" />
    <path
       style="fill:#d6d2c4;stroke:#000000;stroke-width:1.88976378;stroke-linecap:butt;stroke-linejoin:miter;stroke-dasharray:none;stroke-opacity:1"
       d="m 255.20924,276.75344 c -3.23824,11.43282 3.16176,22.25908 -6.97064,25.14653 -57.24995,16.31461 9.37828,-100.14834 6.97064,-25.14653 z"
       id="use6035" />
    <path
       style="fill:#d6d2c4;stroke:#000000;stroke-width:1.88976378;stroke-linecap:butt;stroke-linejoin:miter;stroke-dasharray:none;stroke-opacity:1"
       d="m 215.81555,245.22695 c 14.38097,-9.13508 17.87461,-26.82539 31.46856,-20.23768 76.80834,37.22183 -105.66582,98.15301 -31.46856,20.23768 z"
       id="use6037" />
    <path
       style="fill:#d6d2c4;stroke:#000000;stroke-width:1.88976378;stroke-linecap:butt;stroke-linejoin:miter;stroke-dasharray:none;stroke-opacity:1"
       d="m 222.37754,258.34518 c -16.51274,-6.96784 -33.90531,0.60397 -36.34801,-15.09845 -13.8017,-88.7216 148.16905,32.61415 36.34801,15.09845 z"
       id="use6039" />
    <path
       style="fill:#d6d2c4;stroke:#000000;stroke-width:1.88976378;stroke-linecap:butt;stroke-linejoin:miter;stroke-dasharray:none;stroke-opacity:1"
       d="m 196.08154,223.55681 c -2.24419,14.14434 6.95973,26.18762 -4.75432,31.08886 -66.18657,27.69292 -3.06542,-121.19135 4.75432,-31.08886 z"
       id="use6041" />
    <path
       style="fill:#d6d2c4;stroke:#000000;stroke-width:1.88976378;stroke-linecap:butt;stroke-linejoin:miter;stroke-dasharray:none;stroke-opacity:1"
       d="m 157.20038,264.82512 c -12.18596,-8.17157 -27.34335,-4.7948 -26.86112,-17.79506 2.72469,-73.45387 114.00254,49.28653 26.86112,17.79506 z"
       id="use6043" />
    <path
       style="fill:#d6d2c4;stroke:#000000;stroke-width:1.88976378;stroke-linecap:butt;stroke-linejoin:miter;stroke-dasharray:none;stroke-opacity:1"
       d="m 128.53338,262.71568 c -3.99014,-9.47231 -14.16294,-13.32707 -8.87893,-20.75231 29.85565,-41.95399 47.77838,72.7151 8.87893,20.75231 z"
       id="use6045" />
    <path
       style="fill:#d6d2c4;stroke:#000000;stroke-width:1.88976378;stroke-linecap:butt;stroke-linejoin:miter;stroke-dasharray:none;stroke-opacity:1"
       d="m 104.34933,257.19914 c -3.68162,-8.51336 -12.894196,-11.90473 -8.189612,-18.65023 26.581782,-38.11332 43.735762,65.20689 8.189612,18.65023 z"
       id="use6047" />
    <path
       style="fill:#d6d2c4;stroke:#000000;stroke-width:1.88976378;stroke-linecap:butt;stroke-linejoin:miter;stroke-dasharray:none;stroke-opacity:1"
       d="m 104.34933,257.19914 c 13.59741,4.07236 26.64284,-3.37806 29.91028,8.77575 18.46164,68.67132 -119.449392,-12.99365 -29.91028,-8.77575 z"
       id="use6049" />
    <path
       style="fill:#d6d2c4;stroke:#000000;stroke-width:1.88976378;stroke-linecap:butt;stroke-linejoin:miter;stroke-dasharray:none;stroke-opacity:1"
       d="m 198.91486,199.60402 c 6.94746,-6.86694 6.75439,-17.204 15.17231,-15.16537 47.56278,11.51863 -47.27464,67.84359 -15.17231,15.16537 z"
       id="use6051" />
    <path
       style="fill:#d6d2c4;stroke:#000000;stroke-width:1.88976378;stroke-linecap:butt;stroke-linejoin:miter;stroke-dasharray:none;stroke-opacity:1"
       d="m 101.35729,184.19981 c 0.39436,9.77587 8.1755,16.60839 0.98625,21.46315 -40.620579,27.43032 -18.312896,-80.7704 -0.98625,-21.46315 z"
       id="use6053" />
    <path
       style="fill:#d6d2c4;stroke:#000000;stroke-width:1.88976378;stroke-linecap:butt;stroke-linejoin:miter;stroke-dasharray:none;stroke-opacity:1"
       d="m 105.71786,203.11214 c 14.56636,-2.77302 23.0719,-15.96217 31.95393,-6.26875 50.18508,54.76962 -116.990569,45.4787 -31.95393,6.26875 z"
       id="use6055" />
    <path
       style="fill:#d6d2c4;stroke:#000000;stroke-width:1.88976378;stroke-linecap:butt;stroke-linejoin:miter;stroke-dasharray:none;stroke-opacity:1"
       d="m 146.72179,291.07422 c 3.43962,9.06657 12.89962,13.0472 7.66498,19.86808 -29.57673,38.53925 -42.57187,-70.1841 -7.66498,-19.86808 z"
       id="use6057" />
    <path
       style="fill:#d6d2c4;stroke:#000000;stroke-width:1.88976378;stroke-linecap:butt;stroke-linejoin:miter;stroke-dasharray:none;stroke-opacity:1"
       d="m 120.64287,300.54487 c 6.25315,10.90549 19.17613,14.07163 13.86616,23.87178 -30.0023,55.37269 -68.819662,-81.16596 -13.86616,-23.87178 z"
       id="use6059" />
    <path
       style="fill:#d6d2c4;stroke:#000000;stroke-width:1.88976378;stroke-linecap:butt;stroke-linejoin:miter;stroke-dasharray:none;stroke-opacity:1"
       d="m 87.6313,341.86112 c 9.03217,-6.53046 10.618513,-18.21992 19.75452,-14.45212 51.62011,21.28878 -65.145605,68.24797 -19.75452,14.45212 z"
       id="use6061" />
    <path
       style="fill:#d6d2c4;stroke:#000000;stroke-width:1.88976378;stroke-linecap:butt;stroke-linejoin:miter;stroke-dasharray:none;stroke-opacity:1"
       d="M 114.14059,401.22806 C 99.245419,396.5209 84.766253,404.50276 81.372594,391.07422 62.197811,315.20049 212.60085,407.35685 114.14059,401.22806 Z"
       id="use6063" />
    <path
       style="fill:#d6d2c4;stroke:#000000;stroke-width:1.88976378;stroke-linecap:butt;stroke-linejoin:miter;stroke-dasharray:none;stroke-opacity:1"
       d="m 105.78763,428.19295 c -10.87763,-2.0442 -20.383444,4.8017 -23.912639,-4.35532 -19.940593,-51.7389 93.690989,0.29233 23.912639,4.35532 z"
       id="use6065" />
    <path
       style="fill:#d6d2c4;stroke:#000000;stroke-width:1.88976378;stroke-linecap:butt;stroke-linejoin:miter;stroke-dasharray:none;stroke-opacity:1"
       d="m 77.087234,472.04641 c 4.718617,-7.76262 2.212303,-17.04496 10.266714,-17.10491 45.508922,-0.33871 -27.344117,71.87275 -10.266714,17.10491 z"
       id="use6067" />
    <path
       style="fill:#d6d2c4;stroke:#000000;stroke-width:1.88976378;stroke-linecap:butt;stroke-linejoin:miter;stroke-dasharray:none;stroke-opacity:1"
       d="m 120.03727,435.37599 c 9.31587,2.75311 18.22524,-2.37829 20.4917,5.93132 12.8059,46.95082 -81.78044,-8.59466 -20.4917,-5.93132 z"
       id="use6069" />
    <path
       style="fill:#d6d2c4;stroke:#000000;stroke-width:1.88976378;stroke-linecap:butt;stroke-linejoin:miter;stroke-dasharray:none;stroke-opacity:1"
       d="m 158.11075,418.93939 c -9.24816,7.34491 -10.36786,19.79433 -20.21881,16.24331 -55.659734,-20.06394 65.69135,-75.35965 20.21881,-16.24331 z"
       id="use6071" />
    <path
       style="fill:#d6d2c4;stroke:#000000;stroke-width:1.88976378;stroke-linecap:butt;stroke-linejoin:miter;stroke-dasharray:none;stroke-opacity:1"
       d="m 162.40048,386.46613 c 12.73316,0.89326 22.711,-8.21492 27.97327,1.80503 29.73274,56.61456 -107.367357,12.14117 -27.97327,-1.80503 z"
       id="use6073" />
    <path
       style="fill:#d6d2c4;stroke:#000000;stroke-width:1.88976378;stroke-linecap:butt;stroke-linejoin:miter;stroke-dasharray:none;stroke-opacity:1"
       d="m 177.06334,389.59688 c 11.70096,-7.13144 14.77443,-21.30516 25.60783,-15.80468 61.21073,31.0787 -86.43725,77.35376 -25.60783,15.80468 z"
       id="use6075" />
    <path
       style="fill:#d6d2c4;stroke:#000000;stroke-width:1.88976378;stroke-linecap:butt;stroke-linejoin:miter;stroke-dasharray:none;stroke-opacity:1"
       d="m 179.7411,361.90214 c 4.70079,8.28519 14.48231,10.72882 10.42494,18.13664 -22.92494,41.85551 -51.86886,-61.74062 -10.42494,-18.13664 z"
       id="use6077" />
    <path
       style="fill:#d6d2c4;stroke:#000000;stroke-width:1.88976378;stroke-linecap:butt;stroke-linejoin:miter;stroke-dasharray:none;stroke-opacity:1"
       d="m 131.42485,338.231 c 8.98153,-12.3695 6.05523,-28.28169 19.5715,-27.27414 76.36947,5.69288 -55.746696,116.77568 -19.5715,27.27414 z"
       id="use6079" />
    <path
       style="fill:#d6d2c4;stroke:#000000;stroke-width:1.88976378;stroke-linecap:butt;stroke-linejoin:miter;stroke-dasharray:none;stroke-opacity:1"
       d="m 163.09404,313.29472 c 10.39635,-5.10078 14.0742,-16.79244 22.76786,-11.32927 49.12082,30.86798 -78.69946,58.44423 -22.76786,11.32927 z"
       id="use6081" />
    <path
       style="fill:#d6d2c4;stroke:#000000;stroke-width:1.88976378;stroke-linecap:butt;stroke-linejoin:miter;stroke-dasharray:none;stroke-opacity:1"
       d="m 227.44768,305.86485 c 6.8635,12.07425 21.1278,15.62555 15.22087,26.43089 -33.37523,61.05219 -75.6973,-89.9566 -15.22087,-26.43089 z"
       id="use6083" />
    <path
       style="fill:#d6d2c4;stroke:#000000;stroke-width:1.88976378;stroke-linecap:butt;stroke-linejoin:miter;stroke-dasharray:none;stroke-opacity:1"
       d="m 219.78193,343.57067 c 12.98611,-1.53399 21.28806,-12.60758 28.49892,-3.52839 40.74266,51.29911 -105.74122,32.73517 -28.49892,3.52839 z"
       id="use6085" />
    <path
       style="fill:#d6d2c4;stroke:#000000;stroke-width:1.88976378;stroke-linecap:butt;stroke-linejoin:miter;stroke-dasharray:none;stroke-opacity:1"
       d="m 250.9024,322.53439 c 0.28225,-14.15409 -10.36104,-24.70063 0.44575,-31.08614 61.06036,-36.0793 19.41205,118.25611 -0.44575,31.08614 z"
       id="use6087" />
    <path
       style="fill:#d6d2c4;stroke:#000000;stroke-width:1.88976378;stroke-linecap:butt;stroke-linejoin:miter;stroke-dasharray:none;stroke-opacity:1"
       d="m 263.04385,373.32542 c -10.37492,12.9647 -8.00932,30.37934 -22.62408,28.59835 -82.57609,-10.06294 66.43046,-123.87259 22.62408,-28.59835 z"
       id="use6089" />
    <path
       style="fill:#d6d2c4;stroke:#000000;stroke-width:1.88976378;stroke-linecap:butt;stroke-linejoin:miter;stroke-dasharray:none;stroke-opacity:1"
       d="m 207.84919,374.63183 c 11.1553,-6.63242 14.21303,-20.02369 24.41569,-14.70213 57.64692,30.06782 -82.66226,72.3609 -24.41569,14.70213 z"
       id="use6091" />
    <path
       style="fill:#d6d2c4;stroke:#000000;stroke-width:1.88976378;stroke-linecap:butt;stroke-linejoin:miter;stroke-dasharray:none;stroke-opacity:1"
       d="m 290.23879,396.26374 c -13.00793,-8.77173 -29.22526,-5.20294 -28.67356,-19.10292 3.11719,-78.53748 121.76755,53.01869 28.67356,19.10292 z"
       id="use6093" />
    <path
       style="fill:#d6d2c4;stroke:#000000;stroke-width:1.88976378;stroke-linecap:butt;stroke-linejoin:miter;stroke-dasharray:none;stroke-opacity:1"
       d="m 304.83195,358.41849 c -9.86936,-1.79735 -18.45009,4.45585 -21.69542,-3.82565 -18.3367,-46.792 84.91836,-0.21226 21.69542,3.82565 z"
       id="use6095" />
    <path
       style="fill:#d6d2c4;stroke:#000000;stroke-width:1.88976378;stroke-linecap:butt;stroke-linejoin:miter;stroke-dasharray:none;stroke-opacity:1"
       d="m 305.58289,301.96772 c 11.18373,6.69305 24.47635,3.00542 24.64202,14.56052 0.93605,65.28847 -103.38655,-38.51986 -24.64202,-14.56052 z"
       id="use6097" />
    <path
       style="fill:#d6d2c4;stroke:#000000;stroke-width:1.88976378;stroke-linecap:butt;stroke-linejoin:miter;stroke-dasharray:none;stroke-opacity:1"
       d="m 304.07471,287.75623 c 2.82554,-10.6647 -3.2869,-20.61401 6.07378,-23.45465 52.88955,-16.0501 -7.12376,93.11978 -6.07378,23.45465 z"
       id="use6099" />
    <path
       style="fill:#d6d2c4;stroke:#000000;stroke-width:1.88976378;stroke-linecap:butt;stroke-linejoin:miter;stroke-dasharray:none;stroke-opacity:1"
       d="m 348.62444,273.13464 c -1.06779,10.51218 6.2106,19.00285 -2.21562,23.0981 -47.60969,23.13886 -7.27359,-89.1477 2.21562,-23.0981 z"
       id="use6101" />
    <path
       style="fill:#d6d2c4;stroke:#000000;stroke-width:1.88976378;stroke-linecap:butt;stroke-linejoin:miter;stroke-dasharray:none;stroke-opacity:1"
       d="m 348.42276,315.68518 c 0.9468,10.63929 9.79296,17.67851 2.21005,23.35244 -42.84486,32.05879 -24.23907,-87.10835 -2.21005,-23.35244 z"
       id="use6103" />
    <path
       style="fill:#d6d2c4;stroke:#000000;stroke-width:1.88976378;stroke-linecap:butt;stroke-linejoin:miter;stroke-dasharray:none;stroke-opacity:1"
       d="m 349.11703,371.60331 c -9.93463,-8.59442 -23.77304,-7.25194 -21.92236,-18.75134 10.45668,-64.97377 95.91209,56.26782 21.92236,18.75134 z"
       id="use6105" />
    <path
       style="fill:#d6d2c4;stroke:#000000;stroke-width:1.88976378;stroke-linecap:butt;stroke-linejoin:miter;stroke-dasharray:none;stroke-opacity:1"
       d="m 399.46732,385.38022 c -11.21248,1.54331 -18.21281,11.26418 -24.60385,3.52705 -36.11057,-43.71628 90.96264,-30.08582 24.60385,-3.52705 z"
       id="use6107" />
    <path
       style="fill:#d6d2c4;stroke:#000000;stroke-width:1.88976378;stroke-linecap:butt;stroke-linejoin:miter;stroke-dasharray:none;stroke-opacity:1"
       d="m 412.31214,435.86092 c -8.60421,-13.62409 -25.32693,-16.97225 -19.06259,-29.81297 35.39476,-72.55247 92.57031,100.18159 19.06259,29.81297 z"
       id="use6109" />
    <path
       style="fill:#d6d2c4;stroke:#000000;stroke-width:1.88976378;stroke-linecap:butt;stroke-linejoin:miter;stroke-dasharray:none;stroke-opacity:1"
       d="m 408.67931,364.50055 c 16.30899,-1.89455 26.75972,-15.7783 35.79157,-4.36104 51.03163,64.50965 -132.84726,40.84532 -35.79157,4.36104 z"
       id="use6111" />
    <path
       style="fill:#d6d2c4;stroke:#000000;stroke-width:1.88976378;stroke-linecap:butt;stroke-linejoin:miter;stroke-dasharray:none;stroke-opacity:1"
       d="m 432.29681,339.3113 c 4.97148,7.5497 14.3868,9.24907 11.01033,16.51816 -19.07771,41.07174 -52.99133,-55.20207 -11.01033,-16.51816 z"
       id="use6113" />
    <path
       style="fill:#d6d2c4;stroke:#000000;stroke-width:1.88976378;stroke-linecap:butt;stroke-linejoin:miter;stroke-dasharray:none;stroke-opacity:1"
       d="m 451.57942,349.43909 c -9.29921,1.13955 -15.21266,9.0992 -20.40725,2.61685 -29.3504,-36.62652 75.65693,-23.78322 20.40725,-2.61685 z"
       id="use6115" />
    <path
       style="fill:#d6d2c4;stroke:#000000;stroke-width:1.88976378;stroke-linecap:butt;stroke-linejoin:miter;stroke-dasharray:none;stroke-opacity:1"
       d="m 407.33702,335.25118 c 3.92699,-8.39882 0.35526,-17.5387 8.52047,-18.49229 46.13492,-5.38794 -19.77631,75.95157 -8.52047,18.49229 z"
       id="use6117" />
    <path
       style="fill:#d6d2c4;stroke:#000000;stroke-width:1.88976378;stroke-linecap:butt;stroke-linejoin:miter;stroke-dasharray:none;stroke-opacity:1"
       d="m 390.03846,324.6742 c 9.38844,-6.80902 11.02129,-18.97485 20.53347,-15.06821 53.74557,22.07331 -67.68303,71.11446 -20.53347,15.06821 z"
       id="use6119" />
    <path
       style="fill:#d6d2c4;stroke:#000000;stroke-width:1.88976378;stroke-linecap:butt;stroke-linejoin:miter;stroke-dasharray:none;stroke-opacity:1"
       d="m 432.10163,322.47162 c -0.46677,15.58004 11.13485,27.30875 -0.83343,34.21984 -67.62305,39.04894 -20.06838,-130.40983 0.83343,-34.21984 z"
       id="use6121" />
    <path
       style="fill:#d6d2c4;stroke:#000000;stroke-width:1.88976378;stroke-linecap:butt;stroke-linejoin:miter;stroke-dasharray:none;stroke-opacity:1"
       d="m 370.22055,312.98997 c -5.09132,-17.08679 -21.90439,-25.65483 -11.39078,-37.46033 59.40387,-66.70324 68.65189,134.40692 11.39078,37.46033 z"
       id="use6123" />
    <path
       style="fill:#d6d2c4;stroke:#000000;stroke-width:1.88976378;stroke-linecap:butt;stroke-linejoin:miter;stroke-dasharray:none;stroke-opacity:1"
       d="m 425.95445,272.26289 c -11.96937,2.91789 -18.46848,14.22215 -26.2491,6.55495 -43.96194,-43.32109 95.14985,-42.69185 26.2491,-6.55495 z"
       id="use6125" />
    <path
       style="fill:#d6d2c4;stroke:#000000;stroke-width:1.88976378;stroke-linecap:butt;stroke-linejoin:miter;stroke-dasharray:none;stroke-opacity:1"
       d="m 467.05957,228.89824 c -2.0983,9.22964 3.44491,17.57416 -4.49441,20.29428 -44.8586,15.36919 3.27648,-80.05591 4.49441,-20.29428 z"
       id="use6127" />
    <path
       style="fill:#d6d2c4;stroke:#000000;stroke-width:1.88976378;stroke-linecap:butt;stroke-linejoin:miter;stroke-dasharray:none;stroke-opacity:1"
       d="m 430.69352,291.55557 c 4.78258,-14.13467 -2.56131,-28.1166 10.3288,-31.09885 72.83154,-16.85025 -18.07963,125.01361 -10.3288,31.09885 z"
       id="use6129" />
    <path
       style="fill:#d6d2c4;stroke:#000000;stroke-width:1.88976378;stroke-linecap:butt;stroke-linejoin:miter;stroke-dasharray:none;stroke-opacity:1"
       d="m 435.68857,395.10254 c -16.94065,3.99204 -26.24464,19.8908 -37.15292,8.97494 -61.63378,-61.6766 134.88051,-59.27654 37.15292,-8.97494 z"
       id="use6131" />
    <path
       style="fill:#d6d2c4;stroke:#000000;stroke-width:1.88976378;stroke-linecap:butt;stroke-linejoin:miter;stroke-dasharray:none;stroke-opacity:1"
       d="m 434.05015,499.61734 c 1.7888,-13.57753 -7.313,-24.85806 3.76126,-29.83852 62.57163,-28.14051 5.98466,115.77291 -3.76126,29.83852 z"
       id="use6133" />
    <path
       style="fill:#d6d2c4;stroke:#000000;stroke-width:1.88976378;stroke-linecap:butt;stroke-linejoin:miter;stroke-dasharray:none;stroke-opacity:1"
       d="m 428.08002,423.33035 c 13.33009,-6.65308 17.95923,-21.72643 29.19132,-14.77425 63.4634,39.28115 -100.73399,75.87658 -29.19132,14.77425 z"
       id="use6135" />
    <path
       style="fill:#d6d2c4;stroke:#000000;stroke-width:1.88976378;stroke-linecap:butt;stroke-linejoin:miter;stroke-dasharray:none;stroke-opacity:1"
       d="m 448.31112,527.70324 c 10.80899,12.68964 28.42457,13.66582 23.89282,27.73379 -25.60524,79.48666 -109.48671,-89.01324 -23.89282,-27.73379 z"
       id="use6137" />
    <path
       style="fill:#d6d2c4;stroke:#000000;stroke-width:1.88976378;stroke-linecap:butt;stroke-linejoin:miter;stroke-dasharray:none;stroke-opacity:1"
       d="m 434.821,519.58919 c 2.51151,9.00309 11.24549,13.64879 5.62606,19.74009 -31.75084,34.41696 -34.74849,-71.08258 -5.62606,-19.74009 z"
       id="use6139" />
    <path
       style="fill:#d6d2c4;stroke:#000000;stroke-width:1.88976378;stroke-linecap:butt;stroke-linejoin:miter;stroke-dasharray:none;stroke-opacity:1"
       d="m 353.0762,595.09081 c 17.20243,5.16804 33.7188,-4.24599 37.84046,11.13756 23.28811,86.91997 -151.14305,-16.57176 -37.84046,-11.13756 z"
       id="use6141" />
    <path
       style="fill:#d6d2c4;stroke:#000000;stroke-width:1.88976378;stroke-linecap:butt;stroke-linejoin:miter;stroke-dasharray:none;stroke-opacity:1"
       d="m 433.16878,588.27735 c -5.74613,15.57949 2.002,31.35447 -12.427,34.28355 -81.52657,16.5498 23.87908,-138.52208 12.427,-34.28355 z"
       id="use6143" />
    <path
       style="fill:#d6d2c4;stroke:#000000;stroke-width:1.88976378;stroke-linecap:butt;stroke-linejoin:miter;stroke-dasharray:none;stroke-opacity:1"
       d="m 421.61232,618.43686 c -13.20832,1.27944 -21.86755,12.33757 -28.99,2.97213 -40.24319,-52.91649 107.9822,-30.95786 28.99,-2.97213 z"
       id="use6145" />
    <path
       style="fill:#d6d2c4;stroke:#000000;stroke-width:1.88976378;stroke-linecap:butt;stroke-linejoin:miter;stroke-dasharray:none;stroke-opacity:1"
       d="m 428.42251,616.85347 c 10.84794,3.14703 21.17743,-2.87122 23.86101,6.77753 15.16272,54.51728 -95.13946,-9.51825 -23.86101,-6.77753 z"
       id="use6147" />
    <path
       style="fill:#d6d2c4;stroke:#000000;stroke-width:1.88976378;stroke-linecap:butt;stroke-linejoin:miter;stroke-dasharray:none;stroke-opacity:1"
       d="m 372.36585,620.43664 c -6.76722,-13.91567 -22.37273,-18.88471 -15.03209,-30.47588 41.47597,-65.49225 77.727,105.43312 15.03209,30.47588 z"
       id="use6149" />
    <path
       style="fill:#d6d2c4;stroke:#000000;stroke-width:1.88976378;stroke-linecap:butt;stroke-linejoin:miter;stroke-dasharray:none;stroke-opacity:1"
       d="m 462.03049,606.18613 c -6.00979,11.35893 -1.68921,24.25569 -13.05793,25.01836 -64.23537,4.30918 32.56292,-103.79447 13.05793,-25.01836 z"
       id="use6151" />
    <path
       style="fill:#d6d2c4;stroke:#000000;stroke-width:1.88976378;stroke-linecap:butt;stroke-linejoin:miter;stroke-dasharray:none;stroke-opacity:1"
       d="m 350.35157,613.83487 c -6.94151,-9.56332 -19.3381,-11.22225 -15.36132,-20.91589 22.46957,-54.77083 72.48625,68.9351 15.36132,20.91589 z"
       id="use6153" />
    <path
       style="fill:#d6d2c4;stroke:#000000;stroke-width:1.88976378;stroke-linecap:butt;stroke-linejoin:miter;stroke-dasharray:none;stroke-opacity:1"
       d="m 330.11862,591.12158 c 9.02226,14.84536 26.98622,18.7644 19.99566,32.48976 -39.49798,77.55084 -97.92796,-109.70501 -19.99566,-32.48976 z"
       id="use6155" />
    <path
       style="fill:#d6d2c4;stroke:#000000;stroke-width:1.88976378;stroke-linecap:butt;stroke-linejoin:miter;stroke-dasharray:none;stroke-opacity:1"
       d="m 288.76904,574.30011 c 16.03198,2.08347 29.32975,-8.68465 35.23219,4.37817 33.34989,73.80735 -136.6575,7.30546 -35.23219,-4.37817 z"
       id="use6157" />
    <path
       style="fill:#d6d2c4;stroke:#000000;stroke-width:1.88976378;stroke-linecap:butt;stroke-linejoin:miter;stroke-dasharray:none;stroke-opacity:1"
       d="m 297.98423,613.61206 c -3.16649,12.23738 3.90258,23.59584 -6.80318,26.91248 -60.48954,18.73959 7.54402,-106.73538 6.80318,-26.91248 z"
       id="use6159" />
    <path
       style="fill:#d6d2c4;stroke:#000000;stroke-width:1.88976378;stroke-linecap:butt;stroke-linejoin:miter;stroke-dasharray:none;stroke-opacity:1"
       d="m 236.53646,635.24183 c -16.50583,-0.5038 -28.93859,11.78042 -36.25333,-0.90337 -41.32966,-71.66575 138.1732,-21.18349 36.25333,0.90337 z"
       id="use6161" />
    <path
       style="fill:#d6d2c4;stroke:#000000;stroke-width:1.88976378;stroke-linecap:butt;stroke-linejoin:miter;stroke-dasharray:none;stroke-opacity:1"
       d="m 168.39936,608.49156 c 3.35265,-16.93274 -7.17961,-31.86074 7.15423,-37.22587 80.98888,-30.31395 -1.8746,146.10689 -7.15423,37.22587 z"
       id="use6163" />
    <path
       style="fill:#d6d2c4;stroke:#000000;stroke-width:1.88976378;stroke-linecap:butt;stroke-linejoin:miter;stroke-dasharray:none;stroke-opacity:1"
       d="m 180.91068,616.63615 c -7.56558,9.00722 -6.18309,21.38014 -16.50339,19.87307 -58.31161,-8.51519 49.1294,-86.61016 16.50339,-19.87307 z"
       id="use6165" />
    <path
       style="fill:#d6d2c4;stroke:#000000;stroke-width:1.88976378;stroke-linecap:butt;stroke-linejoin:miter;stroke-dasharray:none;stroke-opacity:1"
       d="m 107.78482,597.19722 c 9.95895,-8.06544 11.04512,-21.58557 21.77087,-17.83436 60.60251,21.19506 -70.500387,82.45041 -21.77087,17.83436 z"
       id="use6167" />
    <path
       style="fill:#d6d2c4;stroke:#000000;stroke-width:1.88976378;stroke-linecap:butt;stroke-linejoin:miter;stroke-dasharray:none;stroke-opacity:1"
       d="m 107.78482,597.19722 c 12.7844,10.20138 29.93443,7.84734 28.20027,22.24521 -9.79834,81.35064 -122.104898,-65.26312 -28.20027,-22.24521 z"
       id="use6169" />
    <path
       style="fill:#d6d2c4;stroke:#000000;stroke-width:1.88976378;stroke-linecap:butt;stroke-linejoin:miter;stroke-dasharray:none;stroke-opacity:1"
       d="m 180.91176,343.52808 c 5.33349,-7.52895 3.45506,-17.11205 11.61987,-16.59931 46.13271,2.89706 -32.82178,70.87292 -11.61987,16.59931 z"
       id="use6171" />
    <path
       style="fill:#d6d2c4;stroke:#000000;stroke-width:1.88976378;stroke-linecap:butt;stroke-linejoin:miter;stroke-dasharray:none;stroke-opacity:1"
       d="m 144.80046,597.01657 c -7.6016,-8.70736 -19.82384,-9.2356 -16.80036,-19.02805 17.08322,-55.32915 76.66497,60.79494 16.80036,19.02805 z"
       id="use6173" />
    <path
       style="fill:#d6d2c4;stroke:#000000;stroke-width:1.88976378;stroke-linecap:butt;stroke-linejoin:miter;stroke-dasharray:none;stroke-opacity:1"
       d="m 143.07412,581.47662 c -13.1838,-4.71778 -26.42209,1.94455 -29.00993,-10.1982 -14.621773,-68.6088 116.99874,19.00219 29.00993,10.1982 z"
       id="use6175" />
    <path
       style="fill:#d6d2c4;stroke:#000000;stroke-width:1.88976378;stroke-linecap:butt;stroke-linejoin:miter;stroke-dasharray:none;stroke-opacity:1"
       d="m 143.1794,519.0877 c 10.6995,-8.59135 11.92303,-23.06295 23.39066,-18.99838 64.79424,22.9656 -75.856291,87.96676 -23.39066,18.99838 z"
       id="use6177" />
    <path
       style="fill:#d6d2c4;stroke:#000000;stroke-width:1.88976378;stroke-linecap:butt;stroke-linejoin:miter;stroke-dasharray:none;stroke-opacity:1"
       d="m 166.80045,484.37534 c -8.16316,10.88023 -5.78112,25.07821 -17.79266,23.99361 -67.867439,-6.12819 51.22411,-103.12042 17.79266,-23.99361 z"
       id="use6179" />
    <path
       style="fill:#d6d2c4;stroke:#000000;stroke-width:1.88976378;stroke-linecap:butt;stroke-linejoin:miter;stroke-dasharray:none;stroke-opacity:1"
       d="m 132.02752,460.49784 c 9.01607,-3.08197 13.23397,-12.24223 19.76156,-6.87895 36.8821,30.30353 -70.313506,39.51705 -19.76156,6.87895 z"
       id="use6181" />
    <path
       style="fill:#d6d2c4;stroke:#000000;stroke-width:1.88976378;stroke-linecap:butt;stroke-linejoin:miter;stroke-dasharray:none;stroke-opacity:1"
       d="m 122.13317,527.88754 c -16.9037,1.579 -28.030358,15.6883 -37.101464,3.6754 -51.253423,-67.87517 138.282984,-39.13298 37.101464,-3.6754 z"
       id="use6183" />
    <path
       style="fill:#d6d2c4;stroke:#000000;stroke-width:1.88976378;stroke-linecap:butt;stroke-linejoin:miter;stroke-dasharray:none;stroke-opacity:1"
       d="m 98.881551,532.63769 c 8.747229,2.98202 17.417039,-1.54645 19.245759,6.44099 10.33262,45.13051 -77.398838,-11.37439 -19.245759,-6.44099 z"
       id="use6185" />
    <path
       style="fill:#d6d2c4;stroke:#000000;stroke-width:1.88976378;stroke-linecap:butt;stroke-linejoin:miter;stroke-dasharray:none;stroke-opacity:1"
       d="m 131.73279,534.55374 c -1.18813,17.15898 11.09728,30.59297 -2.39814,37.69607 -76.251626,40.13383 -16.49117,-144.66228 2.39814,-37.69607 z"
       id="use6187" />
    <path
       style="fill:#d6d2c4;stroke:#000000;stroke-width:1.88976378;stroke-linecap:butt;stroke-linejoin:miter;stroke-dasharray:none;stroke-opacity:1"
       d="m 99.607161,551.81505 c 15.065799,-0.57677 25.619309,-12.54584 33.077719,-1.45188 42.14142,62.68292 -124.5247223,27.96446 -33.077719,1.45188 z"
       id="use6189" />
    <path
       style="fill:#d6d2c4;stroke:#000000;stroke-width:1.88976378;stroke-linecap:butt;stroke-linejoin:miter;stroke-dasharray:none;stroke-opacity:1"
       d="m 271.58133,571.41803 c -13.77694,-5.66794 -28.17643,0.75556 -30.32416,-12.27749 -12.135,-73.63918 123.39702,25.9997 30.32416,12.27749 z"
       id="use6191" />
    <path
       style="fill:#d6d2c4;stroke:#000000;stroke-width:1.88976378;stroke-linecap:butt;stroke-linejoin:miter;stroke-dasharray:none;stroke-opacity:1"
       d="m 97.763044,479.32953 c 5.903316,-11.36925 1.497115,-24.19192 12.823976,-25.0397 63.99887,-4.7901 -31.660733,103.71663 -12.823976,25.0397 z"
       id="use6193" />
    <path
       style="fill:#d6d2c4;stroke:#000000;stroke-width:1.88976378;stroke-linecap:butt;stroke-linejoin:miter;stroke-dasharray:none;stroke-opacity:1"
       d="m 172.62874,439.02425 c -4.90165,10.46404 -0.45825,21.85828 -10.63545,23.03954 -57.50302,6.67429 24.71442,-94.64149 10.63545,-23.03954 z"
       id="use6195" />
    <path
       style="fill:#d6d2c4;stroke:#000000;stroke-width:1.88976378;stroke-linecap:butt;stroke-linejoin:miter;stroke-dasharray:none;stroke-opacity:1"
       d="m 193.75317,444.17804 c -7.0313,8.57556 -5.58975,20.22391 -15.33542,18.91858 -55.06486,-7.3754 45.34563,-82.19553 15.33542,-18.91858 z"
       id="use6197" />
    <path
       style="fill:#d6d2c4;stroke:#000000;stroke-width:1.88976378;stroke-linecap:butt;stroke-linejoin:miter;stroke-dasharray:none;stroke-opacity:1"
       d="m 213.16546,434.32714 c 16.69924,-3.37729 26.29826,-18.64235 36.63035,-7.62198 58.37821,62.26715 -133.81619,53.78807 -36.63035,7.62198 z"
       id="use6199" />
    <path
       style="fill:#d6d2c4;stroke:#000000;stroke-width:1.88976378;stroke-linecap:butt;stroke-linejoin:miter;stroke-dasharray:none;stroke-opacity:1"
       d="m 188.77676,489.91856 c -7.54584,-5.36274 -17.16369,-3.49271 -16.63677,-11.6839 2.97721,-46.28174 71.05851,33.0393 16.63677,11.6839 z"
       id="use6201" />
    <path
       style="fill:#d6d2c4;stroke:#000000;stroke-width:1.88976378;stroke-linecap:butt;stroke-linejoin:miter;stroke-dasharray:none;stroke-opacity:1"
       d="m 195.19205,538.46617 c 8.3199,-4.9926 10.5652,-15.0137 18.20928,-11.06618 43.19046,22.30424 -61.58094,54.3513 -18.20928,11.06618 z"
       id="use6203" />
    <path
       style="fill:#d6d2c4;stroke:#000000;stroke-width:1.88976378;stroke-linecap:butt;stroke-linejoin:miter;stroke-dasharray:none;stroke-opacity:1"
       d="m 217.22683,532.5662 c -6.8072,-9.90153 -19.365,-11.91025 -15.07052,-21.66025 24.26461,-55.08931 71.88816,71.95694 15.07052,21.66025 z"
       id="use6205" />
    <path
       style="fill:#d6d2c4;stroke:#000000;stroke-width:1.88976378;stroke-linecap:butt;stroke-linejoin:miter;stroke-dasharray:none;stroke-opacity:1"
       d="m 244.60995,559.82596 c 6.94096,7.46524 17.72893,7.59334 15.33429,16.30847 -13.53019,49.24208 -69.25585,-51.47103 -15.33429,-16.30847 z"
       id="use6207" />
    <path
       style="fill:#d6d2c4;stroke:#000000;stroke-width:1.88976378;stroke-linecap:butt;stroke-linejoin:miter;stroke-dasharray:none;stroke-opacity:1"
       d="m 274.01445,523.33953 c -2.92692,9.05441 1.87721,17.90619 -6.31623,19.91967 -46.29446,11.37651 10.44352,-79.87124 6.31623,-19.91967 z"
       id="use6209" />
    <path
       style="fill:#d6d2c4;stroke:#000000;stroke-width:1.88976378;stroke-linecap:butt;stroke-linejoin:miter;stroke-dasharray:none;stroke-opacity:1"
       d="m 288.14991,501.26881 c -3.93615,14.10325 4.00141,27.41344 -8.47041,31.01943 -70.46811,20.37448 11.08206,-123.45064 8.47041,-31.01943 z"
       id="use6211" />
    <path
       style="fill:#d6d2c4;stroke:#000000;stroke-width:1.88976378;stroke-linecap:butt;stroke-linejoin:miter;stroke-dasharray:none;stroke-opacity:1"
       d="m 232.38461,475.82064 c 10.48573,1.99922 19.67104,-4.57911 23.05146,4.26136 19.1,49.95034 -90.35953,-0.52043 -23.05146,-4.26136 z"
       id="use6213" />
    <path
       style="fill:#d6d2c4;stroke:#000000;stroke-width:1.88976378;stroke-linecap:butt;stroke-linejoin:miter;stroke-dasharray:none;stroke-opacity:1"
       d="m 184.25495,498.32164 c 7.77924,-7.0533 8.05038,-18.16394 16.99661,-15.58486 50.54787,14.57232 -53.912,70.67376 -16.99661,15.58486 z"
       id="use6215" />
    <path
       style="fill:#d6d2c4;stroke:#000000;stroke-width:1.88976378;stroke-linecap:butt;stroke-linejoin:miter;stroke-dasharray:none;stroke-opacity:1"
       d="m 166.19933,539.84965 c 4.51603,-8.95023 0.95154,-18.94404 9.80722,-19.71042 50.03621,-4.33019 -23.83182,81.44718 -9.80722,19.71042 z"
       id="use6217" />
    <path
       style="fill:#d6d2c4;stroke:#000000;stroke-width:1.88976378;stroke-linecap:butt;stroke-linejoin:miter;stroke-dasharray:none;stroke-opacity:1"
       d="m 231.27848,564.09127 c -2.93755,9.01721 1.83031,17.84998 -6.34003,19.8381 -46.16393,11.23323 10.5892,-79.5779 6.34003,-19.8381 z"
       id="use6219" />
    <path
       style="fill:#d6d2c4;stroke:#000000;stroke-width:1.88976378;stroke-linecap:butt;stroke-linejoin:miter;stroke-dasharray:none;stroke-opacity:1"
       d="m 325.73437,548.83956 c 6.16477,9.44184 17.90134,11.60748 13.65408,20.65865 -23.9978,51.14077 -65.83365,-69.11801 -13.65408,-20.65865 z"
       id="use6221" />
    <path
       style="fill:#d6d2c4;stroke:#000000;stroke-width:1.88976378;stroke-linecap:butt;stroke-linejoin:miter;stroke-dasharray:none;stroke-opacity:1"
       d="m 327.79627,574.5347 c 7.95836,-8.72608 7.07804,-21.1949 17.36942,-19.26053 58.1482,10.92956 -52.83132,84.87385 -17.36942,19.26053 z"
       id="use6223" />
    <path
       style="fill:#d6d2c4;stroke:#000000;stroke-width:1.88976378;stroke-linecap:butt;stroke-linejoin:miter;stroke-dasharray:none;stroke-opacity:1"
       d="m 384.92103,556.44852 c -3.69466,12.98299 3.56046,25.29047 -7.95387,28.55635 -65.05812,18.45279 10.79423,-113.75407 7.95387,-28.55635 z"
       id="use6225" />
    <path
       style="fill:#d6d2c4;stroke:#000000;stroke-width:1.88976378;stroke-linecap:butt;stroke-linejoin:miter;stroke-dasharray:none;stroke-opacity:1"
       d="m 397.92637,512.25499 c 0.56901,-9.89834 -6.60291,-17.55869 1.12782,-21.74397 43.68007,-23.64758 10.48189,83.27113 -1.12782,21.74397 z"
       id="use6227" />
    <path
       style="fill:#d6d2c4;stroke:#000000;stroke-width:1.88976378;stroke-linecap:butt;stroke-linejoin:miter;stroke-dasharray:none;stroke-opacity:1"
       d="m 403.53918,456.42979 c 17.76005,-2.84646 28.54017,-18.53721 38.96642,-6.46932 58.91029,68.18589 -143.46268,51.0003 -38.96642,6.46932 z"
       id="use6229" />
    <path
       style="fill:#d6d2c4;stroke:#000000;stroke-width:1.88976378;stroke-linecap:butt;stroke-linejoin:miter;stroke-dasharray:none;stroke-opacity:1"
       d="m 417.85807,471.74953 c 2.1775,-15.02444 -7.74969,-27.65893 4.59706,-33.02075 69.76141,-30.29528 4.97363,128.41498 -4.59706,33.02075 z"
       id="use6231" />
    <path
       style="fill:#d6d2c4;stroke:#000000;stroke-width:1.88976378;stroke-linecap:butt;stroke-linejoin:miter;stroke-dasharray:none;stroke-opacity:1"
       d="m 355.60572,436.23369 c 16.5654,-2.4474 26.7795,-16.93118 36.34786,-5.57827 54.06296,64.14611 -134.1317,45.84163 -36.34786,5.57827 z"
       id="use6233" />
    <path
       style="fill:#d6d2c4;stroke:#000000;stroke-width:1.88976378;stroke-linecap:butt;stroke-linejoin:miter;stroke-dasharray:none;stroke-opacity:1"
       d="m 301.14532,517.55364 c -4.2235,-12.67549 -17.02189,-18.68918 -9.43078,-27.78368 42.89116,-51.38564 54.64569,99.02036 9.43078,27.78368 z"
       id="use6235" />
    <path
       style="fill:#d6d2c4;stroke:#000000;stroke-width:1.88976378;stroke-linecap:butt;stroke-linejoin:miter;stroke-dasharray:none;stroke-opacity:1"
       d="m 311.70393,495.18029 c -6.0666,7.97364 -4.38235,18.44322 -13.22431,17.58488 -49.95876,-4.84982 38.24061,-75.70178 13.22431,-17.58488 z"
       id="use6237" />
    <path
       style="fill:#d6d2c4;stroke:#000000;stroke-width:1.88976378;stroke-linecap:butt;stroke-linejoin:miter;stroke-dasharray:none;stroke-opacity:1"
       d="m 290.18281,458.71933 c -4.43671,-11.68664 -16.63275,-16.81522 -9.88683,-25.60955 38.11568,-49.68959 54.90017,90.46122 9.88683,25.60955 z"
       id="use6239" />
    <path
       style="fill:#d6d2c4;stroke:#000000;stroke-width:1.88976378;stroke-linecap:butt;stroke-linejoin:miter;stroke-dasharray:none;stroke-opacity:1"
       d="m 287.22975,431.6036 c 15.47231,-4.0803 23.63699,-18.91797 33.92732,-9.15071 58.14226,55.18686 -122.52196,57.75369 -33.92732,9.15071 z"
       id="use6241" />
    <path
       style="fill:#d6d2c4;stroke:#000000;stroke-width:1.88976378;stroke-linecap:butt;stroke-linejoin:miter;stroke-dasharray:none;stroke-opacity:1"
       d="m 306.60845,445.31464 c -12.41397,-5.12869 -25.40536,0.64365 -27.32441,-11.11003 -10.84294,-66.41053 111.22219,23.60631 27.32441,11.11003 z"
       id="use6243" />
    <path
       style="fill:#d6d2c4;stroke:#000000;stroke-width:1.88976378;stroke-linecap:butt;stroke-linejoin:miter;stroke-dasharray:none;stroke-opacity:1"
       d="m 334.00403,433.04836 c -14.48451,-1.88138 -26.49796,7.84806 -31.83141,-3.95342 -30.13497,-66.68056 123.46519,-6.60843 31.83141,3.95342 z"
       id="use6245" />
    <path
       style="fill:#d6d2c4;stroke:#000000;stroke-width:1.88976378;stroke-linecap:butt;stroke-linejoin:miter;stroke-dasharray:none;stroke-opacity:1"
       d="m 356.37319,433.87184 c -14.50643,4.73513 -21.46425,19.31037 -31.79819,10.57686 -58.38869,-49.34598 113.47499,-61.71972 31.79819,-10.57686 z"
       id="use6247" />
    <path
       style="fill:#d6d2c4;stroke:#000000;stroke-width:1.88976378;stroke-linecap:butt;stroke-linejoin:miter;stroke-dasharray:none;stroke-opacity:1"
       d="m 338.93307,420.71459 c -2.18723,-10.08108 -11.51083,-15.7621 -4.92719,-22.11137 37.1988,-35.8745 33.70649,80.55462 4.92719,22.11137 z"
       id="use6249" />
    <path
       style="fill:#d6d2c4;stroke:#000000;stroke-width:1.88976378;stroke-linecap:butt;stroke-linejoin:miter;stroke-dasharray:none;stroke-opacity:1"
       d="m 320.48505,369.6163 c 12.03503,-0.0156 20.80669,-9.25199 26.42897,-0.18229 31.76693,51.24552 -100.15853,18.63345 -26.42897,0.18229 z"
       id="use6251" />
    <path
       style="fill:#d6d2c4;stroke:#000000;stroke-width:1.88976378;stroke-linecap:butt;stroke-linejoin:miter;stroke-dasharray:none;stroke-opacity:1"
       d="m 225.02064,428.44927 c -10.85904,0.097 -18.70999,8.49147 -23.84548,0.34668 -29.01646,-46.01959 90.24413,-17.50339 23.84548,-0.34668 z"
       id="use6253" />
    <path
       style="fill:#d6d2c4;stroke:#000000;stroke-width:1.88976378;stroke-linecap:butt;stroke-linejoin:miter;stroke-dasharray:none;stroke-opacity:1"
       d="m 212.32101,402.3726 c -8.79871,-4.86399 -18.94865,-1.6696 -19.38196,-10.57321 -2.44829,-50.30705 80.72087,26.96126 19.38196,10.57321 z"
       id="use6255" />
    <path
       style="fill:#d6d2c4;stroke:#000000;stroke-width:1.88976378;stroke-linecap:butt;stroke-linejoin:miter;stroke-dasharray:none;stroke-opacity:1"
       d="m 258.67946,401.27983 c 11.77558,3.68527 23.19465,-2.6512 25.90474,7.9481 15.31247,59.88807 -103.68886,-12.57242 -25.90474,-7.9481 z"
       id="use6257" />
    <path
       style="fill:#d6d2c4;stroke:#000000;stroke-width:1.88976378;stroke-linecap:butt;stroke-linejoin:miter;stroke-dasharray:none;stroke-opacity:1"
       d="m 370.69054,472.74569 c 8.56677,5.6733 19.16778,3.24736 18.88258,12.35332 -1.61146,51.45041 -80.0345,-34.05474 -18.88258,-12.35332 z"
       id="use6259" />
    <path
       style="fill:#d6d2c4;stroke:#000000;stroke-width:1.88976378;stroke-linecap:butt;stroke-linejoin:miter;stroke-dasharray:none;stroke-opacity:1"
       d="m 367.02539,472.61785 c 11.39958,2.46732 21.61067,-4.46986 25.06407,5.27808 19.51233,55.07771 -98.68644,-3.012 -25.06407,-5.27808 z"
       id="use6261" />
    <path
       style="fill:#d6d2c4;stroke:#000000;stroke-width:1.88976378;stroke-linecap:butt;stroke-linejoin:miter;stroke-dasharray:none;stroke-opacity:1"
       d="m 379.31047,537.10463 c -17.86464,2.67289 -28.85414,18.31713 -39.19824,6.08943 -58.44611,-69.08881 144.60021,-49.71623 39.19824,-6.08943 z"
       id="use6263" />
    <path
       style="fill:#d6d2c4;stroke:#000000;stroke-width:1.88976378;stroke-linecap:butt;stroke-linejoin:miter;stroke-dasharray:none;stroke-opacity:1"
       d="m 343.84685,534.21558 c -8.92145,-1.16795 -16.32792,4.81803 -19.60605,-2.45513 -18.52206,-41.0947 76.06006,-3.99418 19.60605,2.45513 z"
       id="use6265" />
    <path
       style="fill:#d6d2c4;stroke:#000000;stroke-width:1.88976378;stroke-linecap:butt;stroke-linejoin:miter;stroke-dasharray:none;stroke-opacity:1"
       d="m 391.1831,531.73624 c 13.09102,-0.94532 21.92075,-11.66966 28.73651,-2.23693 38.51033,53.2967 -107.51945,27.99612 -28.73651,2.23693 z"
       id="use6267" />
    <path
       style="fill:#d6d2c4;stroke:#000000;stroke-width:1.88976378;stroke-linecap:butt;stroke-linejoin:miter;stroke-dasharray:none;stroke-opacity:1"
       d="m 399.87889,445.4719 c -5.08447,10.58275 -0.68351,22.20375 -11.03545,23.30247 -58.4904,6.20792 26.05367,-95.91068 11.03545,-23.30247 z"
       id="use6269" />
    <path
       style="fill:#d6d2c4;stroke:#000000;stroke-width:1.88976378;stroke-linecap:butt;stroke-linejoin:miter;stroke-dasharray:none;stroke-opacity:1"
       d="m 379.45879,219.79493 c -8.17669,13.9868 -3.42331,30.46244 -17.78417,30.81587 -81.14157,1.99688 46.56049,-129.00109 17.78417,-30.81587 z"
       id="use6271" />
    <path
       style="fill:#d6d2c4;stroke:#000000;stroke-width:1.88976378;stroke-linecap:butt;stroke-linejoin:miter;stroke-dasharray:none;stroke-opacity:1"
       d="M 358.46601,212.19842 C 347.62218,200.7064 330.89916,200.631 334.5114,187.09506 c 20.40987,-76.48058 107.93544,78.99037 23.95461,25.10336 z"
       id="use6273" />
    <path
       style="fill:#7abbe6;stroke:none;stroke-width:11.9255;stroke-linecap:round;stroke-linejoin:bevel;paint-order:stroke fill markers"
       d="m 374.87366,358.7307 c -2.46133,-5.15383 -9.15444,-13.10149 -15.56764,-18.48563 -2.81583,-2.364 -5.00179,-4.707 -4.85769,-5.20667 0.42499,-1.47373 -7.63983,-25.53131 -10.32004,-30.78496 -2.91073,-5.70549 -2.96692,-6.11679 -0.8357,-6.11679 3.16846,0 7.91172,-4.86162 7.93816,-8.13625 0.0216,-2.67972 0.56254,-2.13867 3.36511,3.36606 2.22009,4.36062 4.57975,7.15856 7.04019,8.34783 2.63862,1.27538 4.6436,3.81996 6.9854,8.86535 1.80649,3.8921 5.79128,10.38841 8.85507,14.43624 l 5.57054,7.35971 -2.15677,4.04823 c -2.65538,4.9841 -2.86318,11.00445 -0.44898,13.00806 1.23159,1.02212 4.26095,1.3034 9.50451,0.8825 7.09072,-0.56918 7.7573,-0.41759 8.46594,1.9252 0.42306,1.39867 1.8045,3.67612 3.06987,5.06101 l 2.30066,2.51798 -11.08369,0.68406 c -6.09603,0.37624 -12.17624,1.01979 -13.51157,1.43011 -1.91744,0.5892 -2.82427,-0.084 -4.31337,-3.20204 z"
       id="path6466" />
    <path
       style="fill:#7abbe6;stroke:none;stroke-width:11.9255;stroke-linecap:round;stroke-linejoin:bevel;paint-order:stroke fill markers"
       d="m 328.76108,504.77188 c -1.65033,-8.69979 -5.15141,-16.75771 -9.16063,-21.08374 -3.14277,-3.3911 -3.83787,-8.11233 -2.47436,-16.80615 0.80006,-5.10119 1.49231,-6.24618 4.79102,-7.92443 l 3.85583,-1.9617 1.43393,3.96546 c 1.07859,2.98278 2.95789,4.72488 7.5837,7.03002 3.38238,1.68551 7.13455,3.06456 8.33815,3.06456 3.38748,0 3.91447,3.37257 1.01008,6.46415 -4.65133,4.95112 -1.06288,10.95292 10.64381,17.80212 4.18157,2.4465 4.77954,3.14223 2.70827,3.15102 -6.02726,0.0256 -18.75033,5.32042 -23.00274,9.57283 l -4.29181,4.29181 z"
       id="path6505" />
    <path
       style="fill:#7abbe6;stroke:none;stroke-width:11.9255;stroke-linecap:round;stroke-linejoin:bevel;paint-order:stroke fill markers"
       d="m 171.72671,501.87419 c -3.93541,-1.86025 -7.82609,-3.38395 -8.64596,-3.386 -2.26489,-0.006 -1.85062,-1.81334 2.5502,-11.12795 2.22248,-4.70403 4.6382,-10.16272 5.36825,-12.13043 l 1.32738,-3.57764 -0.62182,4.31061 c -0.77979,5.40562 1.59209,8.32425 8.96605,11.03288 8.78532,3.22705 9.28117,3.76586 6.39942,6.95395 -1.3652,1.51032 -3.76604,4.67223 -5.33521,7.02645 l -2.85303,4.28042 z"
       id="path6544" />
    <path
       style="fill:#7abbe6;stroke:none;stroke-width:11.9255;stroke-linecap:round;stroke-linejoin:bevel;paint-order:stroke fill markers"
       d="m 328.35038,550.84385 c -13.85492,-13.66745 -22.71187,-17.37301 -26.75946,-11.1956 -1.51513,2.31238 -1.78234,4.43618 -1.16281,9.24223 0.75293,5.84095 0.68679,6.07522 -1.03444,3.66361 -2.31434,-3.2426 -11.92075,-10.33027 -19.95982,-14.72646 l -6.15302,-3.3648 4.78511,-1.2885 c 7.23803,-1.949 9.19113,-4.85312 9.73482,-14.47498 0.42542,-7.52888 0.65053,-8.1318 2.63886,-7.06768 1.19557,0.63985 3.41742,1.16336 4.93744,1.16336 2.04083,0 3.4772,1.34499 5.49168,5.14232 3.84772,7.25303 12.58943,16.90451 16.94521,18.70873 2.81926,1.16777 4.38571,1.20696 6.66857,0.16682 5.33046,-2.42872 9.312,-1.69899 11.56804,2.12018 1.13052,1.91381 3.77108,4.92324 5.86792,6.68761 3.27,2.75153 4.54218,3.10793 8.94142,2.50494 l 5.12899,-0.703 -1.79569,4.29768 c -0.98763,2.36372 -1.79568,4.48718 -1.79568,4.71879 0,0.23162 -1.37656,-0.10225 -3.05901,-0.74191 -4.48701,-1.70596 -8.98981,-1.42106 -11.35385,0.71837 -1.92595,1.74296 -2.6349,1.33295 -9.63428,-5.57171 z"
       id="path6583" />
    <path
       style="fill:#7abbe6;stroke:none;stroke-width:11.9255;stroke-linecap:round;stroke-linejoin:bevel;paint-order:stroke fill markers"
       d="m 147.2795,387.19647 c 0,-1.02953 -2.70612,-4.53563 -6.0136,-7.79135 l -6.0136,-5.91949 4.21471,-1.39098 c 2.31808,-0.76504 7.37295,-3.71595 11.23302,-6.55758 l 7.01833,-5.16659 2.0043,7.40447 c 1.10236,4.07246 3.29742,9.68106 4.8779,12.46355 3.13364,5.51687 3.10612,5.55444 -4.79932,6.55238 -2.6236,0.33119 -6.51428,0.9791 -8.64596,1.4398 -3.08229,0.66615 -3.87578,0.45442 -3.87578,-1.03421 z"
       id="path6622" />
    <path
       style="fill:#7abbe6;stroke:none;stroke-width:11.9255;stroke-linecap:round;stroke-linejoin:bevel;paint-order:stroke fill markers"
       d="m 461.12468,410.74032 c -6.10494,-4.82849 -11.41117,-5.33311 -16.22903,-1.54338 -3.50462,2.75673 -3.61076,2.7015 -8.24575,-4.29019 l -3.13764,-4.73301 6.90155,-3.13286 c 3.80654,-1.72792 8.21379,-4.8359 9.82772,-6.93047 1.60939,-2.08869 4.93424,-5.88153 7.38854,-8.42855 5.80199,-6.02116 7.40787,-10.19225 5.60228,-14.55133 -1.49135,-3.60043 -8.39513,-7.50478 -15.5451,-8.79134 -3.74259,-0.67344 -4.21804,-1.1371 -3.73848,-3.64576 0.41943,-2.19408 1.71627,-3.18077 5.48046,-4.16977 2.71206,-0.71256 7.74841,-2.86778 11.19189,-4.78937 l 6.26087,-3.49381 v 36.38287 c 0,20.01057 -0.13416,36.34147 -0.29814,36.29088 -0.16397,-0.0506 -2.6206,-1.92885 -5.45917,-4.17391 z"
       id="path6661" />
    <path
       style="fill:#7abbe6;stroke:none;stroke-width:11.9255;stroke-linecap:round;stroke-linejoin:bevel;paint-order:stroke fill markers"
       d="m 79.518276,441.24224 c -0.04462,-15.69049 0.277968,-21.20817 1.116997,-19.10527 2.766061,6.9327 3.748883,7.26283 19.435927,6.52849 7.9273,-0.37109 16.27377,-1.17021 18.54772,-1.77582 3.58519,-0.95482 4.53575,-0.71833 7.15528,1.78015 1.66146,1.58468 4.63077,3.71684 6.59847,4.73813 3.41293,1.7714 2.88021,1.85723 -11.57122,1.86424 -15.78324,0.008 -20.65575,1.10905 -21.873,4.94426 -0.915684,2.88506 2.26916,8.11837 6.9746,11.4606 2.54491,1.80763 3.12417,2.68323 1.77511,2.68323 -1.1014,0 -2.82241,1.17052 -3.82447,2.60116 -1.74044,2.48482 -1.92464,2.50821 -4.118474,0.52281 -1.290318,-1.16772 -5.093674,-2.36555 -8.680481,-2.73383 -6.816724,-0.69992 -9.603835,0.87851 -10.892661,6.16886 -0.319579,1.31181 -0.609288,-7.54285 -0.643798,-19.67701 z"
       id="path6700" />
    <path
       style="fill:#7abbe6;stroke:none;stroke-width:11.9255;stroke-linecap:round;stroke-linejoin:bevel;paint-order:stroke fill markers"
       d="m 257.14599,483.57771 c -2.36552,-8.56722 -3.39422,-8.99592 -19.69865,-8.20925 -16.80042,0.81061 -22.56129,2.01878 -25.99399,5.45148 -2.33702,2.33702 -2.55245,2.35877 -3.66539,0.37004 -0.65035,-1.1621 -3.0536,-4.18405 -5.34056,-6.71544 l -4.15811,-4.60253 5.79946,0.65021 c 3.1897,0.35762 7.24114,0.87208 9.0032,1.14326 5.22835,0.80462 23.32157,-1.67329 30.41022,-4.16475 8.21306,-2.88666 14.43831,-7.5513 16.54862,-12.40006 1.33237,-3.0613 1.62811,-3.26292 1.66651,-1.13609 0.13752,7.61809 6.74472,11.21651 22.08757,12.02936 9.98977,0.52924 11.0274,0.82863 14.59877,4.21215 l 3.84463,3.64241 -6.80908,6.18795 -6.80909,6.18794 -1.54639,-6.04253 c -1.96016,-7.65932 -4.3604,-10.31851 -9.31369,-10.31851 -4.77318,0 -9.9046,4.08002 -15.40639,12.24971 l -3.98726,5.92074 z"
       id="path6739" />
    <path
       style="fill:#7abbe6;stroke:none;stroke-width:11.9255;stroke-linecap:round;stroke-linejoin:bevel;paint-order:stroke fill markers"
       d="m 261.48735,607.58406 c -10.1413,-7.09272 -31.63427,-12.24673 -44.44387,-10.65762 l -5.96273,0.73972 v -6.36103 -6.36103 h 7.55878 c 6.37987,0 7.89464,-0.41478 9.71225,-2.65942 1.97482,-2.43881 2.2876,-2.49651 3.77041,-0.69558 6.29472,7.64516 16.84683,10.95724 21.49819,6.74781 2.06006,-1.86433 2.18086,-1.80057 2.18086,1.15105 0,3.75003 5.40863,10.2393 11.07961,13.29332 3.80954,2.05158 3.99579,2.42407 2.79834,5.59649 -0.70556,1.86925 -1.56767,3.34336 -1.9158,3.27582 -0.34812,-0.0675 -3.17234,-1.89883 -6.27604,-4.06953 z"
       id="path6778" />
    <path
       style="fill:#7abbe6;stroke:none;stroke-width:11.9255;stroke-linecap:round;stroke-linejoin:bevel;paint-order:stroke fill markers"
       d="m 300.74515,265.59088 c -1.84482,-4.26035 -5.17273,-9.87061 -7.39535,-12.46725 l -4.04114,-4.72115 12.18731,-0.69016 c 7.62235,-0.43165 15.16559,-1.66787 20.13861,-3.30039 l 7.9513,-2.61023 5.58766,4.57866 5.58765,4.57867 -3.66631,0.95003 c -2.50053,0.64796 -4.59449,2.50652 -6.58536,5.84508 l -2.91905,4.89503 -8.93915,0.15552 c -9.88109,0.17191 -13.51886,2.10867 -14.18656,7.55298 -0.29493,2.40488 -1.01209,1.48582 -3.71961,-4.76679 z"
       id="path6817" />
    <path
       style="fill:#7abbe6;stroke:none;stroke-width:11.9255;stroke-linecap:round;stroke-linejoin:bevel;paint-order:stroke fill markers"
       d="m 156.2236,224.75196 c -1.9677,-0.90099 -4.92312,-1.66238 -6.5676,-1.69196 -2.80273,-0.0504 -2.9634,-0.38772 -2.56582,-5.38658 0.41235,-5.18466 0.60663,-5.41633 6.99457,-8.34083 3.61374,-1.65442 9.14752,-4.8998 12.29729,-7.21194 6.86524,-5.03955 8.20893,-3.55145 3.49911,3.87516 -1.77399,2.7973 -4.22435,8.57395 -5.44523,12.83702 -1.22089,4.26306 -2.76315,7.70744 -3.42724,7.65416 -0.66409,-0.0533 -2.81738,-0.83403 -4.78508,-1.73503 z"
       id="path6856" />
    <path
       style="fill:#7abbe6;stroke:none;stroke-width:11.9255;stroke-linecap:round;stroke-linejoin:bevel;paint-order:stroke fill markers"
       d="m 445.02891,219.82598 c 0.89511,-10.67693 -0.11418,-16.07474 -3.6728,-19.64263 l -2.80957,-2.81689 7.57776,-0.18513 c 9.61223,-0.23484 15.87952,-3.17529 18.66888,-8.75897 2.08483,-4.17338 2.08509,-4.17185 1.99281,11.92547 -0.0508,8.85465 -0.38828,15.29441 -0.75004,14.31056 -3.70408,-10.07383 -12.27288,-6.81882 -18.70726,7.10629 l -3.00809,6.51001 z"
       id="path6895" />
    <path
       style="fill:#7abbe6;stroke:none;stroke-width:11.9255;stroke-linecap:round;stroke-linejoin:bevel;paint-order:stroke fill markers"
       d="m 79.346606,315.17776 -0.04226,-37.21976 7.695458,4.90607 c 6.467311,4.1231 7.514088,5.24498 6.559007,7.02956 -2.777195,5.18924 0.193469,21.42169 5.840082,31.91167 2.140417,3.97635 2.136877,4.00395 -0.923263,7.2048 -6.433692,6.72953 -16.248983,18.29869 -17.638343,20.7901 -1.161407,2.08264 -1.456798,-4.77808 -1.490683,-34.62244 z"
       id="path6934" />
    <rect
       style="fill:#d6d2c4;stroke:none;stroke-width:7.98905;stroke-linecap:round;stroke-linejoin:bevel;paint-order:stroke fill markers"
       id="rect7218"
       width="398.31055"
       height="330.33542"
       x="840.7453"
       y="314.83231" />
    <rect
       style="fill:#7abbe6;stroke:none;stroke-width:3.46144;stroke-linecap:round;stroke-linejoin:bevel;paint-order:stroke fill markers"
       id="rect7256"
       width="398.31055"
       height="62.012436"
       x="840.7453"
       y="252.81987" />
    <rect
       style="fill:none;stroke:#001d51;stroke-width:10;stroke-linecap:round;stroke-linejoin:bevel;paint-order:stroke fill markers"
       id="rect7216"
       width="398.31055"
       height="517.56525"
       x="840.7453"
       y="127.60249" />
    <use
       xlink:href="#arrow-right"
       style="fill:#008000;stroke:#008000"
       id="use104705"
       x="0"
       y="0"
       width="100%"
       height="100%"
       transform="matrix(0.48668314,0,0,0.3752024,552.32282,277.68952)" />
    <text
       xml:space="preserve"
       style="font-size:48px;line-height:1;font-family:'Times New Roman';-inkscape-font-specification:'Times New Roman, Normal';text-align:center;text-anchor:middle;font-weight:normal;font-style:normal;font-stretch:normal;font-variant:normal;font-variant-ligatures:normal;font-variant-caps:normal;font-variant-numeric:normal;font-variant-east-asian:normal"
       x="1039.6077"
       y="201.54037"
       id="text107042"><tspan
         sodipodi:role="line"
         id="tspan107040"
         x="1039.6077"
         y="201.54037">Air</tspan></text>
    <text
       xml:space="preserve"
       style="font-size:48px;line-height:1;font-family:'Times New Roman';-inkscape-font-specification:'Times New Roman, Normal';text-align:center;text-anchor:middle;font-weight:normal;font-style:normal;font-stretch:normal;font-variant:normal;font-variant-ligatures:normal;font-variant-caps:normal;font-variant-numeric:normal;font-variant-east-asian:normal"
       x="1039.2795"
       y="300.72452"
       id="text109061"><tspan
         sodipodi:role="line"
         id="tspan109059"
         x="1039.2795"
         y="300.72452">Water</tspan></text>
    <text
       xml:space="preserve"
       style="font-size:48px;line-height:1;font-family:'Times New Roman';-inkscape-font-specification:'Times New Roman, Normal';text-align:center;text-anchor:middle;font-weight:normal;font-style:normal;font-stretch:normal;font-variant:normal;font-variant-ligatures:normal;font-variant-caps:normal;font-variant-numeric:normal;font-variant-east-asian:normal"
       x="1039.7483"
       y="497.17969"
       id="text109275"><tspan
         sodipodi:role="line"
         id="tspan109273"
         x="1039.7483"
         y="497.17969">Solids</tspan></text>
  </g>
</svg>
