<?xml version="1.0" encoding="UTF-8" standalone="no"?>
<!-- Created with Inkscape (http://www.inkscape.org/) -->

<svg
   width="2in"
   height="1.2in"
   viewBox="0 0 50.800001 30.480001"
   version="1.1"
   id="svg1"
   inkscape:version="1.4.3 (0d15f75, 2025-12-25)"
   sodipodi:docname="EX5110.svg"
   xmlns:inkscape="http://www.inkscape.org/namespaces/inkscape"
   xmlns:sodipodi="http://sodipodi.sourceforge.net/DTD/sodipodi-0.dtd"
   xmlns="http://www.w3.org/2000/svg"
   xmlns:svg="http://www.w3.org/2000/svg">
  <sodipodi:namedview
     id="namedview1"
     pagecolor="#ffffff"
     bordercolor="#111111"
     borderopacity="1"
     inkscape:showpageshadow="0"
     inkscape:pageopacity="0"
     inkscape:pagecheckerboard="1"
     inkscape:deskcolor="#d1d1d1"
     inkscape:document-units="mm"
     inkscape:zoom="4.5219697"
     inkscape:cx="98.07673"
     inkscape:cy="83.702463"
     inkscape:window-width="2880"
     inkscape:window-height="1514"
     inkscape:window-x="2870"
     inkscape:window-y="6"
     inkscape:window-maximized="1"
     inkscape:current-layer="layer1" />
  <defs
     id="defs1" />
  <g 
     inkscape:label="Layer 1"
     inkscape:groupmode="layer"
     id="layer1">
    <g class="fragment"
       id="g1"
       style="stroke:#008000"
       transform="translate(4.7393617)">
      <g
         id="g17"
         transform="matrix(0.03807675,0,0,0.03807675,24.966495,-5.7925464)"
         style="stroke:#008000">
        <path
           fill="none"
           stroke="#000000"
           stroke-width="4"
           stroke-linecap="round"
           stroke-linejoin="round"
           d="m -634.724,168.358 -0.967,11.001 -0.061,18.333 -0.388,1.302 -0.002,-1.079 -1.153,-3.793 -1.552,-3.194 -3.698,-5.298 -4.257,-7.683 -4.819,-7.814 -2.068,-2.312 3.877,-0.078 7.906,1.254 9.031,2.431 3.079,1.233 2.941,1.875 2.378,2.381 1.605,2.632 0.871,2.827 0.044,4.093 -0.485,2.078 -1.617,3.07 -3.243,3.9 -7.297,5.611 -7.112,4.148 -5.199,2.031 -0.529,-0.499 0.248,-0.665"
           id="path17"
           style="stroke:#008000" />
      </g>
      <g 
         id="g18"
         transform="matrix(0.03807675,0,0,0.03807675,24.966495,-5.7925464)"
         style="stroke:#008000">
        <path
           fill="none"
           stroke="#000000"
           stroke-width="4"
           stroke-linecap="round"
           stroke-linejoin="round"
           d="m -602.674,182.353 -0.88,6.942 -1.681,4.931 -3.206,6.009 -2.815,2.526 3.094,-4.552 8.077,-15.21 2.233,-2.283 2.085,-1.542 2.793,-1.501 1.137,-0.107 1.289,0.594 1.006,2.25 0.403,5.81 -0.612,12.93 0.504,1.452 0.672,0.721 -0.235,-0.594 -2.565,-1.693 -5.874,-2.43 -3.932,-1.019 -5.395,-0.794 3.468,1.834 4.094,0.622 4.969,0.269 7.544,-0.526"
           id="path18"
           style="stroke:#008000" />
      </g>
      <g
         id="g19"
         transform="matrix(0.03807675,0,0,0.03807675,24.966495,-5.7925464)"
         style="stroke:#008000">
        <path
           fill="none"
           stroke="#000000"
           stroke-width="4"
           stroke-linecap="round"
           stroke-linejoin="round"
           d="m -554.518,176.403 -7.021,16.497 -2.831,4.47 -0.03,0.47 0.499,0.511 1.01,0.237 0.812,-0.806 0.823,-1.882 0.201,-1.46 -0.247,-0.977 -7.088,-10.819 -3.425,-4.595 1.115,0.022 4.63,-1.192 5.985,-1.01 4.052,-0.287 10.279,-1.484 7.346,-1.877"
           id="path19"
           style="stroke:#008000" />
      </g>
      <g
         id="g20"
         transform="matrix(0.03807675,0,0,0.03807675,24.966495,-5.7925464)"
         style="stroke:#008000">
        <path
           fill="none"
           stroke="#000000"
           stroke-width="4"
           stroke-linecap="round"
           stroke-linejoin="round"
           d="m -527.135,176.705 -6.185,11.881 -4.413,5.465 -3.252,2.823 7.087,-7.322 5.593,-8.12 3.915,-4.765 3.666,-3.519 1.838,-0.913 0.945,0.042 1.358,1.407 0.667,2.389 0.314,3.083 -0.317,3.834 -2.932,10.252 -0.144,2.917 0.15,0.789 0.361,0.128 -0.25,-1.058 -0.84,-1.12 -1.602,-1.213 -1.637,-0.716 -6.913,-1.912 -5.32,-0.762 -0.695,0.143 2.024,1.16 4.122,0.142 12.766,-0.701 4.926,-1.162"
           id="path20"
           style="stroke:#008000" />
      </g>
      <g
         id="g21"
         transform="matrix(0.03807675,0,0,0.03807675,24.966495,-5.7925464)"
         style="stroke:#008000">
        <path
           fill="none"
           stroke="#000000"
           stroke-width="4"
           stroke-linecap="round"
           stroke-linejoin="round"
           d="m -485.675,179.798 -0.039,0.015"
           id="path21"
           style="stroke:#008000" />
      </g>
      <g
         id="g22"
         transform="matrix(0.03807675,0,0,0.03807675,24.966495,-5.7925464)"
         style="stroke:#008000">
        <path
           fill="none"
           stroke="#000000"
           stroke-width="4"
           stroke-linecap="round"
           stroke-linejoin="round"
           d="m -489.345,181.15 2.799,-0.833 2.481,0.065 0.634,0.87 0.155,1.856 -1.49,0.81 -1.055,0.017 -0.325,-0.29"
           id="path22"
           style="stroke:#008000" />
      </g>
      <g
         id="g23"
         transform="matrix(0.03807675,0,0,0.03807675,24.966495,-5.7925464)"
         style="stroke:#008000">
        <path
           fill="none"
           stroke="#000000"
           stroke-width="4"
           stroke-linecap="round"
           stroke-linejoin="round"
           d="m -490.964,198.434 5.233,-0.249 1.032,0.277 0.169,1.683 -2.434,1.202 -1.416,0.254 -1.105,-0.199 1.249,-1.699"
           id="path23"
           style="stroke:#008000" />
      </g>
    </g>
    <g class="fragment"
       id="g2"
       transform="translate(4.7393617)">
      <g
         id="g24"
         transform="matrix(0.03807675,0,0,0.03807675,24.966495,-5.7925464)">
        <path
           fill="none"
           stroke="#000000"
           stroke-width="4"
           stroke-linecap="round"
           stroke-linejoin="round"
           d="m -378.815,161.497 -0.518,6.243 -3.419,14.082 -1.302,7.475 0.108,1.646 0.496,1.545 1.398,-4.605 0.142,-2.631 -1.002,-4.186"
           id="path24" />
      </g>
      <g
         id="g25"
         transform="matrix(0.03807675,0,0,0.03807675,24.966495,-5.7925464)">
        <path
           fill="none"
           stroke="#000000"
           stroke-width="4"
           stroke-linecap="round"
           stroke-linejoin="round"
           d="m -398.137,156.707 2.469,1.013 2.116,0.465 5.146,0.467 5.97,0.089 8.35,-0.82 16.05,-2.221 5.124,-0.825 2.462,-0.748 -8.384,3.44"
           id="path25" />
      </g>
      <g
         id="g26"
         transform="matrix(0.03807675,0,0,0.03807675,24.966495,-5.7925464)">
        <path
           fill="none"
           stroke="#000000"
           stroke-width="4"
           stroke-linecap="round"
           stroke-linejoin="round"
           d="m -388.844,177.149 10.928,-2.152 13.578,-1.212 10.224,-1.792 1.938,0.028"
           id="path26" />
      </g>
      <g
         id="g27"
         transform="matrix(0.03807675,0,0,0.03807675,24.966495,-5.7925464)">
        <path
           fill="none"
           stroke="#000000"
           stroke-width="4"
           stroke-linecap="round"
           stroke-linejoin="round"
           d="m -348.136,180.53 -2.388,6.555 -1.508,5.93 0.037,1.257 0.34,0.574 0.266,0.169 0.793,-0.757"
           id="path27" />
      </g>
      <g
         id="g28"
         transform="matrix(0.03807675,0,0,0.03807675,24.966495,-5.7925464)">
        <path
           fill="none"
           stroke="#000000"
           stroke-width="4"
           stroke-linecap="round"
           stroke-linejoin="round"
           d="m -340.326,167.004 1.226,3.009 0.046,1.944 -0.652,1.933 -1.765,1.415 -2.059,0.742 -1.089,0.075 -1.562,-0.352 -1.457,-1.067 -0.972,-1.27 0.041,-1.069 0.511,-1.025 1.215,-0.907"
           id="path28" />
      </g>
      <g
         id="g29"
         transform="matrix(0.03807675,0,0,0.03807675,24.966495,-5.7925464)">
        <path
           fill="none"
           stroke="#000000"
           stroke-width="4"
           stroke-linecap="round"
           stroke-linejoin="round"
           d="m -317.664,178.367 0.235,-0.298 -2.019,0.326 -2.263,0.861 -2.219,1.421 -2.125,1.906 -3.508,4.118 -1.465,4.86 0.598,1.493 1.252,0.865 1.097,0.309 1.995,-0.316 3.45,-1.465 3.004,-1.751 1.394,-1.375 3.315,-4.54 0.482,-0.375 0.516,0.342 0.916,2.891 0.949,6.319 -0.609,6.018 -1.59,8.458 -2.514,7.685 -1.403,3.191 -1.84,3.013 -3.8,4.024 -2.618,2.065 -3.409,1.235 -1.955,-0.197 -1.057,-0.804 -0.79,-1.323 -0.303,-1.423 0.238,-2.32 2.068,-6.301 2.857,-4.413 1.802,-2.082 12.358,-10.146 11.152,-10.831 -4.192,8.167 -0.855,3.127 0.32,1.43 1.799,0.865 1.646,-0.083 5.136,-1.868 3.197,-1.805 3.374,-2.397 1.474,-1.667 1.253,-2.566 0.337,-3.875 0.532,-1.253"
           id="path29" />
      </g>
      <g
         id="g30"
         transform="matrix(0.03807675,0,0,0.03807675,24.966495,-5.7925464)">
        <path
           fill="none"
           stroke="#000000"
           stroke-width="4"
           stroke-linecap="round"
           stroke-linejoin="round"
           d="m -275.993,184.398 -0.121,2.332 -2.249,10.396 -0.813,2.729 -0.949,0.979 0.051,-1.356 0.613,-1.817 1.656,-3.357 4.531,-7.306 5.14,-6.761 1.099,-0.987 1.153,-0.467 2.688,0.083 1.128,0.789"
           id="path30" />
      </g>
      <g
         id="g31"
         transform="matrix(0.03807675,0,0,0.03807675,24.966495,-5.7925464)">
        <path
           fill="none"
           stroke="#000000"
           stroke-width="4"
           stroke-linecap="round"
           stroke-linejoin="round"
           d="m -261.992,194.82 8.421,-3.492 2.799,-1.726 2.785,-2.228 1.079,-1.296 1.023,-2.062 0.349,-3.851 -1.818,0.361 -2.121,0.936 -2.199,1.606 -2.093,2.129 -3.463,5.353 -1.282,4.838 0.282,1.965 0.823,1.524 0.637,0.748 1.733,0.755 2.184,0.484 2.56,0.009 4.373,-0.62 1.368,-0.825"
           id="path31" />
      </g>
      <g
         id="g32"
         transform="matrix(0.03807675,0,0,0.03807675,24.966495,-5.7925464)">
        <path
           fill="none"
           stroke="#000000"
           stroke-width="4"
           stroke-linecap="round"
           stroke-linejoin="round"
           d="m -147.194,201.566 0.099,3.698 -0.321,2.68 -0.306,1.737 -1.17,2.483 -2.025,3.006 -2.632,2.647 -2.443,1.48 -0.706,-0.022 -0.155,-0.591"
           id="path32" />
      </g>
    </g>
    <g class="fragment"
       id="g3"
       style="stroke:#008000"
       transform="translate(4.7393617)">
      <g
         id="g33"
         transform="matrix(0.03807675,0,0,0.03807675,1.9133035,-1.6382911)"
         style="stroke:#008000">
        <path
           fill="none"
           stroke="#000000"
           stroke-width="4"
           stroke-linecap="round"
           stroke-linejoin="round"
           d="m -19.3685,166.163 -3.6747,11.867 -1.7478,7.969 -0.5401,4.483 0.2781,3.37 0.2385,1.111 1.4306,-1.185"
           id="path33"
           style="stroke:#008000" />
      </g>
      <g
         id="g34"
         transform="matrix(0.03807675,0,0,0.03807675,1.9133035,-1.6382911)"
         style="stroke:#008000">
        <path
           fill="none"
           stroke="#000000"
           stroke-width="4"
           stroke-linecap="round"
           stroke-linejoin="round"
           d="m -33.1218,165.69 2.368,0.948 3.1026,0.459 4.7783,-0.023 21.86313,-3.346 2.7212,-0.643 0.85351,-0.617 -3.528014,0.9 -5.392456,1.964"
           id="path34"
           style="stroke:#008000" />
      </g>
      <g
         id="g35"
         transform="matrix(0.03807675,0,0,0.03807675,1.9133035,-1.6382911)"
         style="stroke:#008000">
        <path
           fill="none"
           stroke="#000000"
           stroke-width="4"
           stroke-linecap="round"
           stroke-linejoin="round"
           d="m -29.3339,180.318 5.8266,-0.509 13.1013,-1.906 3.38104,-0.049"
           id="path35"
           style="stroke:#008000" />
      </g>
      <g
         id="g36"
         transform="matrix(0.03807675,0,0,0.03807675,1.9133035,-1.6382911)"
         style="stroke:#008000">
        <path
           fill="none"
           stroke="#000000"
           stroke-width="4"
           stroke-linecap="round"
           stroke-linejoin="round"
           d="m 22.8478,168.565 -6.5776,9.213 -2.9691,5.232 -2.6798,6.346 -1.23379,1.882"
           id="path36"
           style="stroke:#008000" />
      </g>
      <g
         id="g37"
         transform="matrix(0.03807675,0,0,0.03807675,1.9133035,-1.6382911)"
         style="stroke:#008000">
        <path
           fill="none"
           stroke="#000000"
           stroke-width="4"
           stroke-linecap="round"
           stroke-linejoin="round"
           d="m 31.3665,170.029 -2.8619,6.037 -4.7368,11.454 -1.1304,1.729 -1.2064,0.85 1.2191,-2.5 7.3204,-9.772 1.7429,-1.727 0.6015,-0.042 1.5387,6.312 1.4828,3.492 1.1629,1.163 2.9972,0.209 3.71,-0.544 3.115,-1.269 1.7365,-1.145 1.6617,-2.287 1.1973,-4.154 0.2081,-3.442 -0.3085,-5.061 1.386,5.179"
           id="path37"
           style="stroke:#008000" />
      </g>
      <g
         id="g38"
         transform="matrix(0.03807675,0,0,0.03807675,1.9133035,-1.6382911)"
         style="stroke:#008000">
        <path
           fill="none"
           stroke="#000000"
           stroke-width="4"
           stroke-linecap="round"
           stroke-linejoin="round"
           d="m 64.6499,176.901 -1.8878,2.367 -4.4102,9.242 -0.3354,1.325 0.7825,1.372 1.5679,-3.785 1.2299,-6.947 1.006,-2.297 1.0257,-1.681 1.8844,-2.144 2.971,-2.019 3.7792,-0.349 1.706,0.581 2.9898,1.793 1.3846,1.449 2.1247,3.273 0.6858,1.775 0.4333,3.119 -0.4923,1.149 -1.8924,0.966 -7.0514,1.619 -8.1262,1.202 -1.05,0.251 -0.5808,0.532"
           id="path38"
           style="stroke:#008000" />
      </g>
      <g
         id="g39"
         transform="matrix(0.03807675,0,0,0.03807675,1.9133035,-1.6382911)"
         style="stroke:#008000">
        <path
           fill="none"
           stroke="#000000"
           stroke-width="4"
           stroke-linecap="round"
           stroke-linejoin="round"
           d="m 110.769,178.303 5.737,-1.966 1.026,-0.149 0.808,0.365 0.589,2.717 -1.076,2.304 -4.463,3.64 0.994,-3.293"
           id="path39"
           style="stroke:#008000" />
      </g>
      <g
         id="g40"
         transform="matrix(0.03807675,0,0,0.03807675,1.9133035,-1.6382911)"
         style="stroke:#008000">
        <path
           fill="none"
           stroke="#000000"
           stroke-width="4"
           stroke-linecap="round"
           stroke-linejoin="round"
           d="m 114.761,195.858 0.004,0.009"
           id="path40"
           style="stroke:#008000" />
      </g>
    </g>
    <g class="fragment"
       id="g4"
       transform="translate(4.7393617)">
      <g
         id="g41"
         transform="matrix(0.03807675,0,0,0.03807675,1.9133035,-1.6382911)">
        <path
           fill="none"
           stroke="#000000"
           stroke-width="4"
           stroke-linecap="round"
           stroke-linejoin="round"
           d="m 161.937,163.57 -0.624,7.145 -3.017,18.617 0.381,4.825 -0.098,-1.603 -0.925,-3.009 -0.423,-3.726 0.026,-6.247 1.524,2.285 1.479,1.241 1.08,0.656 2.634,0.656 2.832,-0.107 1.373,-0.381 7.709,-3.218 2.34,-2.46 1.163,-2.095 3.376,-12.353 0.911,-2.289 -3.458,19.969 0.47,7.047 0.693,2.428 0.687,0.897"
           id="path41" />
      </g>
      <g
         id="g42"
         transform="matrix(0.03807675,0,0,0.03807675,1.9133035,-1.6382911)">
        <path
           fill="none"
           stroke="#000000"
           stroke-width="4"
           stroke-linecap="round"
           stroke-linejoin="round"
           d="m 198.15,180.824 0.827,1.78 1.057,4.324 0.39,4.291 -0.476,2.572 -0.636,1.545 -1.156,1.492 3.044,-8.117 1.913,-3.456 1.416,-1.477 0.977,-0.255 1.077,1.012 2.002,5.566 0.036,2.602 -1.637,2.436 -0.138,0.838 12.086,-13.928 1.83,-1.326 0.468,0.651 0.42,3.333 0.591,1.734 3.938,7.279 2.143,-0.224 1.859,-0.907"
           id="path42" />
      </g>
      <g
         id="g43"
         transform="matrix(0.03807675,0,0,0.03807675,1.9133035,-1.6382911)">
        <path
           fill="none"
           stroke="#000000"
           stroke-width="4"
           stroke-linecap="round"
           stroke-linejoin="round"
           d="m 246.743,185.243 -6.583,3.175 -5.387,3.559 -2.218,2.624 0.287,1.46 1.702,0.402 3.476,-0.265 5.134,-1.196 5.53,-1.804 1.316,-0.797 0.959,-1.413 -0.156,-2.202 -1.004,-0.681 -2.854,-0.634 4.791,-0.153 1.399,0.885 2.487,4.428 1.879,1.841 3.697,2.033 3.288,0.687 2.488,-0.668 0.236,-2.192 2.965,-5.25 5.36,-2.358 0.582,-0.476 1.189,-2.623 -0.601,-0.116 -1.504,0.432 -4.359,1.934 -6.457,3.984 -5.387,3.907 -6.189,4.768 -4.533,4.296 -0.762,1.884 0.701,0.56 0.627,-0.021"
           id="path43" />
      </g>
    </g>
    <g class="fragment"
       id="g5"
       style="stroke:#008000"
       transform="translate(4.7393617)">
      <g
         id="g44"
         transform="matrix(0.03807675,0,0,0.03807675,24.907984,1.3457515)"
         style="stroke:#008000">
        <path
           fill="none"
           stroke="#000000"
           stroke-width="4"
           stroke-linecap="round"
           stroke-linejoin="round"
           d="m -633.912,224.847 0.82,5.734 -0.107,6.431 -1.382,9.294 -1.931,9.155 -0.058,2.694 0.435,1.821 0.096,-7.645 -0.694,-8.372 -0.129,-5.642 0.8,-17.795 v 0.404 l 1.007,0.472 4.866,1.169 4.479,1.805 1.82,1.251 1.336,1.719 0.711,1.869 0.043,2.494 -0.913,1.782 -2.111,1.727 -4.347,2.209 -7.918,3.125 -7.327,1.857 -2.352,0.268 -0.174,-0.427 0.758,-0.316"
           id="path44"
           style="stroke:#008000" />
      </g>
      <g
         id="g45"
         transform="matrix(0.03807675,0,0,0.03807675,24.907984,1.3457515)"
         style="stroke:#008000">
        <path
           fill="none"
           stroke="#000000"
           stroke-width="4"
           stroke-linecap="round"
           stroke-linejoin="round"
           d="m -615.694,232.793 -1.703,7.268 -0.07,10.049 -1.303,1.785 -1.224,-0.413 -1.734,-2.054 -0.9,-2.737 0.152,-3.852 1.177,-4.576 1.508,-3.79 1.36,-2.1 2.938,-3.23 2.28,-1.502 0.856,-0.173 2.884,0.445 1.417,1.004 0.883,1.632 0.627,4.429 0.01,2.382 -1.53,7.386 -0.028,3.309 0.483,0.888 0.87,0.615 1.197,-0.063 5.087,-2.488 1.064,-0.87 0.521,-1.469 0.961,-0.666"
           id="path45"
           style="stroke:#008000" />
      </g>
      <g
         id="g46"
         transform="matrix(0.03807675,0,0,0.03807675,24.907984,1.3457515)"
         style="stroke:#008000">
        <path
           fill="none"
           stroke="#000000"
           stroke-width="4"
           stroke-linecap="round"
           stroke-linejoin="round"
           d="m -591.327,228.569 -2.627,13.858 0.1,4.771"
           id="path46"
           style="stroke:#008000" />
      </g>
      <g
         id="g47"
         transform="matrix(0.03807675,0,0,0.03807675,24.907984,1.3457515)"
         style="stroke:#008000">
        <path
           fill="none"
           stroke="#000000"
           stroke-width="4"
           stroke-linecap="round"
           stroke-linejoin="round"
           d="m -575.869,236.173 -3.774,6.973 -1.748,4.286 0.071,0.418 2.028,-8.543 4.506,-9.891 1.131,1.637 2.191,7.621 1.404,2.649 1.502,1.576 2.418,1.392 1.853,0.36 1.807,-0.354 1.241,-0.828 0.435,-0.709 1.21,-6.015 -0.03,-8.179"
           id="path47"
           style="stroke:#008000" />
      </g>
      <g
         id="g48"
         transform="matrix(0.03807675,0,0,0.03807675,24.907984,1.3457515)"
         style="stroke:#008000">
        <path
           fill="none"
           stroke="#000000"
           stroke-width="4"
           stroke-linecap="round"
           stroke-linejoin="round"
           d="m -532.067,231.332 -0.787,-2.563 -0.886,-0.761 -0.867,-0.279 -2.345,0.509 -5.364,2.586 -3.505,2.77 -3.668,3.689 -1.95,3.08 -0.85,3.601 0.348,1.719 0.545,1.019 2.031,2.245 2.15,1.075 4.6,1.128 4.474,-0.498 2.804,-0.831 1.692,-0.911 2.053,-2.245 0.4,-2.643"
           id="path48"
           style="stroke:#008000" />
      </g>
      <g
         id="g49"
         transform="matrix(0.03807675,0,0,0.03807675,24.907984,1.3457515)"
         style="stroke:#008000">
        <path
           fill="none"
           stroke="#000000"
           stroke-width="4"
           stroke-linecap="round"
           stroke-linejoin="round"
           d="m -519.425,227.855 -6.226,16.564 -0.294,1.736 0.987,1.778"
           id="path49"
           style="stroke:#008000" />
      </g>
      <g
         id="g50"
         transform="matrix(0.03807675,0,0,0.03807675,24.907984,1.3457515)"
         style="stroke:#008000">
        <path
           fill="none"
           stroke="#000000"
           stroke-width="4"
           stroke-linecap="round"
           stroke-linejoin="round"
           d="m -504.25,232.148 -6.541,12.351 -0.624,2.219 0.5,1.716 0.994,-2.064 0.573,-3.541 1.03,-3.698 1.385,-3.22 1.633,-2.636 2.46,-2.77 2.831,-1.586 3.991,-0.288 2.887,1.848 1.574,4.053 -0.721,1.055 -1.646,1.069 -5.846,2.171 -2.129,0.492 -2.955,0.152 -1.592,-0.46 -0.047,-0.236 1.027,-0.373"
           id="path50"
           style="stroke:#008000" />
      </g>
      <g
         id="g51"
         transform="matrix(0.03807675,0,0,0.03807675,24.907984,1.3457515)"
         style="stroke:#008000">
        <path
           fill="none"
           stroke="#000000"
           stroke-width="4"
           stroke-linecap="round"
           stroke-linejoin="round"
           d="m -482.38,231.644 -4.34,8.238 -3.579,4.628 1.878,1.267 2.562,0.205 9.445,-1.361 3.766,-1.259"
           id="path51"
           style="stroke:#008000" />
      </g>
      <g
         id="g52"
         transform="matrix(0.03807675,0,0,0.03807675,24.907984,1.3457515)"
         style="stroke:#008000">
        <path
           fill="none"
           stroke="#000000"
           stroke-width="4"
           stroke-linecap="round"
           stroke-linejoin="round"
           d="m -457.265,232.085 -5.334,10.812 -0.75,2.962 0.942,2.64 0.945,-0.495 1.766,-2.332 1.114,-4.137"
           id="path52"
           style="stroke:#008000" />
      </g>
      <g
         id="g53"
         transform="matrix(0.03807675,0,0,0.03807675,24.907984,1.3457515)"
         style="stroke:#008000">
        <path
           fill="none"
           stroke="#000000"
           stroke-width="4"
           stroke-linecap="round"
           stroke-linejoin="round"
           d="m -460.352,229.466 13.114,-3.02 4.929,-1.866 -2.097,0.65"
           id="path53"
           style="stroke:#008000" />
      </g>
      <g
         id="g54"
         transform="matrix(0.03807675,0,0,0.03807675,24.907984,1.3457515)"
         style="stroke:#008000">
        <path
           fill="none"
           stroke="#000000"
           stroke-width="4"
           stroke-linecap="round"
           stroke-linejoin="round"
           d="m -463.198,234.483 6.503,2.076 4.589,0.061 5.059,-0.581 1.587,0.172 -3.218,0.692"
           id="path54"
           style="stroke:#008000" />
      </g>
      <g
         id="g55"
         transform="matrix(0.03807675,0,0,0.03807675,24.907984,1.3457515)"
         style="stroke:#008000">
        <path
           fill="none"
           stroke="#000000"
           stroke-width="4"
           stroke-linecap="round"
           stroke-linejoin="round"
           d="m -462.298,244.622 2.849,-0.529 9.779,-0.319 6.906,-1.675 3.575,-1.715"
           id="path55"
           style="stroke:#008000" />
      </g>
      <g
         id="g56"
         transform="matrix(0.03807675,0,0,0.03807675,24.907984,1.3457515)"
         style="stroke:#008000">
        <path
           fill="none"
           stroke="#000000"
           stroke-width="4"
           stroke-linecap="round"
           stroke-linejoin="round"
           d="m -418.633,225.03 -1.597,-0.431 -2.502,-0.107 -3.421,0.438 -2.179,0.822 -2.493,1.75 -1.183,2.695 -0.104,0.909 0.48,1.334 2.185,2.623 5.971,3.589 4.128,2.904 1.319,1.972 0.357,1.42 -0.287,0.809 -2.126,0.894 -4.049,0.475 -10.78,-0.411 -1.518,-0.406 -0.222,-0.387"
           id="path56"
           style="stroke:#008000" />
      </g>
      <g
         id="g57"
         transform="matrix(0.03807675,0,0,0.03807675,24.907984,1.3457515)"
         style="stroke:#008000">
        <path
           fill="none"
           stroke="#000000"
           stroke-width="4"
           stroke-linecap="round"
           stroke-linejoin="round"
           d="m -397.527,229.345 1.494,3.668 0.125,1.254 0.364,-0.595"
           id="path57"
           style="stroke:#008000" />
      </g>
      <g
         id="g58"
         transform="matrix(0.03807675,0,0,0.03807675,24.907984,1.3457515)"
         style="stroke:#008000">
        <path
           fill="none"
           stroke="#000000"
           stroke-width="4"
           stroke-linecap="round"
           stroke-linejoin="round"
           d="m -398.094,243.777 1.711,2.392 1.606,3.525 -0.674,1.034 -2.449,0.596 -2.12,-0.425 0.235,-0.707"
           id="path58"
           style="stroke:#008000" />
      </g>
    </g>
    <g class="fragment"
       id="g6"
       transform="translate(4.7393617)">
      <g
         id="g59"
         transform="matrix(0.03807675,0,0,0.03807675,24.907984,1.3457515)">
        <path
           fill="none"
           stroke="#000000"
           stroke-width="4"
           stroke-linecap="round"
           stroke-linejoin="round"
           d="m -342.647,269.426 0.05,1.383 -3.869,19.918 0.137,5.143 1.141,-3.488"
           id="path59" />
      </g>
      <g
         id="g60"
         transform="matrix(0.03807675,0,0,0.03807675,24.907984,1.3457515)">
        <path
           fill="none"
           stroke="#000000"
           stroke-width="4"
           stroke-linecap="round"
           stroke-linejoin="round"
           d="m -347.957,268.682 8.676,-1.519 16.236,-4.026 4.389,-1.627 1.614,-0.958 0.74,-0.918 -5.842,2.375 -6.332,3.042"
           id="path60" />
      </g>
      <g
         id="g61"
         transform="matrix(0.03807675,0,0,0.03807675,24.907984,1.3457515)">
        <path
           fill="none"
           stroke="#000000"
           stroke-width="4"
           stroke-linecap="round"
           stroke-linejoin="round"
           d="m -349.029,280.564 16.811,-2.233 3.914,-0.837 1.172,-0.796"
           id="path61" />
      </g>
      <g
         id="g62"
         transform="matrix(0.03807675,0,0,0.03807675,24.907984,1.3457515)">
        <path
           fill="none"
           stroke="#000000"
           stroke-width="4"
           stroke-linecap="round"
           stroke-linejoin="round"
           d="m -297.519,269.021 -2.624,-0.764 -3.6,-0.242 -4.383,0.808 -2.095,1.013 -2.047,1.501 -0.935,1.083 -1.037,2.157 0.099,1.603 1.447,1.802 5.422,3.968 1.882,2.15 1.146,3.665 -0.738,1.212 -2.053,1.309 -2.458,0.64 -3.521,-0.004 -2.881,-0.506 -2.732,-0.991 -1.423,-1.412 0.206,-1.374 1.646,-1.223"
           id="path62" />
      </g>
      <g
         id="g63"
         transform="matrix(0.03807675,0,0,0.03807675,24.907984,1.3457515)">
        <path
           fill="none"
           stroke="#000000"
           stroke-width="4"
           stroke-linecap="round"
           stroke-linejoin="round"
           d="m -284.864,288.886 -4.785,9.027 -0.543,4.111 0.859,3.815 -0.61,1.431 -0.446,-0.693 -0.128,-1.832 1.374,-4.74 4.074,-7.246 2.304,-3.164 2.044,-2.06 1.256,-0.965 1.758,-0.778 3.049,0.226 3.242,2.552 0.81,2.4 -0.515,2.424 -1.821,1.971 -1.993,1.29 -4.383,1.708 -1.934,0.177 -1.587,-0.317"
           id="path63" />
      </g>
      <g
         id="g64"
         transform="matrix(0.03807675,0,0,0.03807675,24.907984,1.3457515)">
        <path
           fill="none"
           stroke="#000000"
           stroke-width="4"
           stroke-linecap="round"
           stroke-linejoin="round"
           d="m -242.32,286.825 0.249,-0.557 7.522,-0.986 4.294,-0.463 8.269,-0.229 0.383,-0.19 -0.268,-0.074"
           id="path64" />
      </g>
      <g
         id="g65"
         transform="matrix(0.03807675,0,0,0.03807675,24.907984,1.3457515)">
        <path
           fill="none"
           stroke="#000000"
           stroke-width="4"
           stroke-linecap="round"
           stroke-linejoin="round"
           d="m -244.684,294.888 8.55,-0.196 15.311,-2.221 0.752,-0.035 -0.684,0.244"
           id="path65" />
      </g>
      <g
         id="g66"
         transform="matrix(0.03807675,0,0,0.03807675,24.907984,1.3457515)">
        <path
           fill="none"
           stroke="#000000"
           stroke-width="4"
           stroke-linecap="round"
           stroke-linejoin="round"
           d="m -153.845,273.07 -3.339,5.464 -3.177,6.273 -0.513,1.892 0.112,1.197 0.458,1.084 1.546,1.534 0.996,0.479 0.834,-0.04 1.17,-0.174 2.032,-1.119 3.095,-2.843"
           id="path66" />
      </g>
      <g
         id="g67"
         transform="matrix(0.03807675,0,0,0.03807675,24.907984,1.3457515)">
        <path
           fill="none"
           stroke="#000000"
           stroke-width="4"
           stroke-linecap="round"
           stroke-linejoin="round"
           d="m -146.466,259.268 4.92,-0.981 1.537,0.048 1.452,0.545 0.2,0.724 -0.609,1.054 -2.843,1.835 -1.196,0.351 -1.971,-0.003 -1.331,-0.431 -0.335,-0.813 0.316,-1.076 1.097,-1.389 1.466,-0.908 1.611,-0.393"
           id="path67" />
      </g>
      <g
         id="g68"
         transform="matrix(0.03807675,0,0,0.03807675,24.907984,1.3457515)">
        <path
           fill="none"
           stroke="#000000"
           stroke-width="4"
           stroke-linecap="round"
           stroke-linejoin="round"
           d="m -119.564,281.082 -2.416,-0.514 -2.524,0.411 -1.592,0.82 -1.384,1.378 -1.265,2.583 0.081,1.695 1.22,1.771 1.772,1.257 1.961,0.532 2.974,-0.374 7.496,-2.693 2.823,-1.965"
           id="path68" />
      </g>
      <g
         id="g69"
         transform="matrix(0.03807675,0,0,0.03807675,24.907984,1.3457515)">
        <path
           fill="none"
           stroke="#000000"
           stroke-width="4"
           stroke-linecap="round"
           stroke-linejoin="round"
           d="m -103.555,277.9 -0.656,3.274 -0.382,6.289 0.236,5.15 -1.39,-2.18 -0.273,-1.645 0.614,-3.357 1.325,-2.558 1.79,-1.912 2.7853,-1.669 3.8701,-0.478"
           id="path69" />
      </g>
      <g
         id="g70"
         transform="matrix(0.03807675,0,0,0.03807675,24.907984,1.3457515)">
        <path
           fill="none"
           stroke="#000000"
           stroke-width="4"
           stroke-linecap="round"
           stroke-linejoin="round"
           d="m -83.698,282.212 0.3947,-0.182 -0.9263,4.44 0.0011,4.353 0.3921,0.511 1.2546,-0.839"
           id="path70" />
      </g>
      <g
         id="g71"
         transform="matrix(0.03807675,0,0,0.03807675,24.907984,1.3457515)">
        <path
           fill="none"
           stroke="#000000"
           stroke-width="4"
           stroke-linecap="round"
           stroke-linejoin="round"
           d="m -77.0295,270.366 -1.0464,3.049 -0.5778,0.829 -1.7948,2.034 -0.0534,-1.555"
           id="path71" />
      </g>
      <g
         id="g72"
         transform="matrix(0.03807675,0,0,0.03807675,24.907984,1.3457515)">
        <path
           fill="none"
           stroke="#000000"
           stroke-width="4"
           stroke-linecap="round"
           stroke-linejoin="round"
           d="m -55.572,255.626 -2.9853,10.472 -5.1704,13.375 -0.5415,2.4 0.1395,2.609 0.7642,1.726 1.6743,1.663 1.1658,0.287 1.9067,-0.161 3.7244,-1.54 4.5568,-2.769 1.1766,-1.098 0.586,-1.363"
           id="path72" />
      </g>
      <g
         id="g73"
         transform="matrix(0.03807675,0,0,0.03807675,24.907984,1.3457515)">
        <path
           fill="none"
           stroke="#000000"
           stroke-width="4"
           stroke-linecap="round"
           stroke-linejoin="round"
           d="m -66.1721,273.369 11.5514,0.448"
           id="path73" />
      </g>
      <g
         id="g74"
         transform="matrix(0.03807675,0,0,0.03807675,24.907984,1.3457515)">
        <path
           fill="none"
           stroke="#000000"
           stroke-width="4"
           stroke-linecap="round"
           stroke-linejoin="round"
           d="M -181,310 H -40"
           id="path74" />
      </g>
      <g
         id="g75"
         transform="matrix(0.03807675,0,0,0.03807675,24.907984,1.3457515)">
        <path
           fill="none"
           stroke="#000000"
           stroke-width="4"
           stroke-linecap="round"
           stroke-linejoin="round"
           d="m -146.163,325.467 -5.488,5.209 -2.629,4.211 -1.409,3.879 -1.206,6.361 0.57,2.238 1.996,1.521 1.24,0.503 1.777,0.016 3.695,-0.97 2.607,-1.05 0.868,-0.717"
           id="path75" />
      </g>
      <g
         id="g76"
         transform="matrix(0.03807675,0,0,0.03807675,24.907984,1.3457515)">
        <path
           fill="none"
           stroke="#000000"
           stroke-width="4"
           stroke-linecap="round"
           stroke-linejoin="round"
           d="m -144.883,314.838 4.234,1.658 1.13,0.985 0.186,0.88 -0.554,0.917 -2.543,1.02 -1.73,0.168 -2.027,-0.421 -0.614,-0.66 0.046,-1.487 0.91,-1.711 1.626,-1.389 3.799,-1.061"
           id="path76" />
      </g>
      <g
         id="g77"
         transform="matrix(0.03807675,0,0,0.03807675,24.907984,1.3457515)">
        <path
           fill="none"
           stroke="#000000"
           stroke-width="4"
           stroke-linecap="round"
           stroke-linejoin="round"
           d="m -130.583,334.782 0.974,6.613 -0.687,3.655 -1.556,2.525 0.825,-2.226 2.075,-3.067 2.609,-2.867 2.125,-1.809 1.848,-0.472 0.299,0.332 0.533,4.431 -0.594,2.428 -1.577,3.039 1.258,-2.547 2.545,-3.59 1.842,-1.898 4.584,-3.741 2.822,-0.55 1.239,0.587 0.421,2.919 -0.114,2.197 -1.438,4.01 -0.155,2.158 0.611,0.909 1.711,0.102"
           id="path77" />
      </g>
      <g
         id="g78"
         transform="matrix(0.03807675,0,0,0.03807675,24.907984,1.3457515)">
        <path
           fill="none"
           stroke="#000000"
           stroke-width="4"
           stroke-linecap="round"
           stroke-linejoin="round"
           d="m -92.806,339.965 -3.4036,-0.843 -1.6854,-0.111 -4.478,0.587 -2.68,1.075 -1.77,1.437 -1.262,2.992 0.308,1.126 1.568,1.469 1.806,0.406 2.845,-0.246 5.512,-1.433 2.7188,-1.469 2.0091,-1.777 0.8517,-1.082 0.2666,-1.493 -0.042,0.796 0.5275,1.189 1.9053,2.744 3.3398,2.809 2.1645,1.201 5.39,1.24 4.2305,-0.268 0.8077,-0.299"
           id="path78" />
      </g>
      <g
         id="g79"
         transform="matrix(0.03807675,0,0,0.03807675,24.907984,1.3457515)">
        <path
           fill="none"
           stroke="#000000"
           stroke-width="4"
           stroke-linecap="round"
           stroke-linejoin="round"
           d="m -72.1462,335.272 -2.4355,4.361 -2.1152,2.852 -2.0454,2.018 -6.3084,4.867 -7.8077,4.864"
           id="path79" />
      </g>
      <g
         id="g80"
         transform="matrix(0.03807675,0,0,0.03807675,24.907984,1.3457515)">
        <path
           fill="none"
           stroke="#000000"
           stroke-width="4"
           stroke-linecap="round"
           stroke-linejoin="round"
           d="m 20.1559,294.596 -0.7818,1.137 -4.4357,-0.08 -1.5965,0.375 1.5642,0.538 23.6479,0.168"
           id="path80" />
      </g>
      <g
         id="g81"
         transform="matrix(0.03807675,0,0,0.03807675,24.907984,1.3457515)">
        <path
           fill="none"
           stroke="#000000"
           stroke-width="4"
           stroke-linecap="round"
           stroke-linejoin="round"
           d="m 12.6604,309.663 5.6661,-0.395 19.2118,-0.037 2.3579,-0.599 1.3804,-1.081 -2.9511,1.092"
           id="path81" />
      </g>
      <g
         id="g82"
         transform="matrix(0.03807675,0,0,0.03807675,24.907984,1.3457515)">
        <path
           fill="none"
           stroke="#000000"
           stroke-width="4"
           stroke-linecap="round"
           stroke-linejoin="round"
           d="m 76.5374,301.72 4.9805,-10.4 4.8249,-12.035 -0.2967,2.829 -2.6801,10.579 -1.3738,7.851 0.1621,2.896 0.3648,2.334 0.217,-0.137"
           id="path82" />
      </g>
      <g
         id="g83"
         transform="matrix(0.03807675,0,0,0.03807675,24.907984,1.3457515)">
        <path
           fill="none"
           stroke="#000000"
           stroke-width="4"
           stroke-linecap="round"
           stroke-linejoin="round"
           d="m 72.2833,307.374 5.085,0.384 12.9847,-0.064 2.7536,-0.296 -1.1577,0.347"
           id="path83" />
      </g>
      <g
         id="g84"
         transform="matrix(0.03807675,0,0,0.03807675,24.907984,1.3457515)">
        <path
           fill="none"
           stroke="#000000"
           stroke-width="4"
           stroke-linecap="round"
           stroke-linejoin="round"
           d="m 170.462,306.87 1.859,4.141 0.387,2.548 -0.458,3.382 -1.863,4.25 -2.036,2.862 -2.961,2.861 -2.026,1.003"
           id="path84" />
      </g>
    </g>
    <g class="fragment"
       id="g7"
       transform="translate(4.7393617)">
      <g
         id="g85"
         transform="matrix(0.03807675,0,0,0.03807675,3.7856436,7.9574536)">
        <path
           fill="none"
           stroke="#000000"
           stroke-width="4"
           stroke-linecap="round"
           stroke-linejoin="round"
           d="m 226.583,286.223 -5.767,12.419 -2.342,5.83 -0.196,0.949 0.226,1.281 0.659,0.795 1.581,0.872 3.001,-0.003 3.595,-0.947 2.788,-1.141 1.594,-0.967 1.198,-1.537"
           id="path85" />
      </g>
      <g
         id="g86"
         transform="matrix(0.03807675,0,0,0.03807675,3.7856436,7.9574536)">
        <path
           fill="none"
           stroke="#000000"
           stroke-width="4"
           stroke-linecap="round"
           stroke-linejoin="round"
           d="m 228.422,265.947 3.444,0.48 3.573,0.938 1.356,1.094 0.202,1.298 -1.917,1.911 -5.001,2.135 -7.266,1.972 -0.425,-0.137 0.197,-0.209 3.039,-2.056"
           id="path86" />
      </g>
      <g
         id="g87"
         transform="matrix(0.03807675,0,0,0.03807675,3.7856436,7.9574536)">
        <path
           fill="none"
           stroke="#000000"
           stroke-width="4"
           stroke-linecap="round"
           stroke-linejoin="round"
           d="m 247.884,289.785 -4.55,2.915 -2.776,2.531 -2.128,3.735 0.044,1.988 1.149,1.324 1.32,0.643 2.673,0.966 2.609,0.426 3.163,-0.133 2.777,-0.627 2.535,-1.317 0.873,-0.9"
           id="path87" />
      </g>
      <g
         id="g88"
         transform="matrix(0.03807675,0,0,0.03807675,3.7856436,7.9574536)">
        <path
           fill="none"
           stroke="#000000"
           stroke-width="4"
           stroke-linecap="round"
           stroke-linejoin="round"
           d="m 260.847,289.735 -0.805,6.494 0.333,8.304 1.607,-5.258 1.996,-4.195 2.14,-2.61 2.031,-1.108"
           id="path88" />
      </g>
      <g
         id="g89"
         transform="matrix(0.03807675,0,0,0.03807675,3.7856436,7.9574536)">
        <path
           fill="none"
           stroke="#000000"
           stroke-width="4"
           stroke-linecap="round"
           stroke-linejoin="round"
           d="m 278.631,291.687 -1.878,4.435 -0.628,2.08 -0.152,2.067 0.298,1.316 0.855,0.81 2.153,-1.152"
           id="path89" />
      </g>
      <g
         id="g90"
         transform="matrix(0.03807675,0,0,0.03807675,3.7856436,7.9574536)">
        <path
           fill="none"
           stroke="#000000"
           stroke-width="4"
           stroke-linecap="round"
           stroke-linejoin="round"
           d="m 281.293,280.203 -1.613,4.702 1.392,-0.95"
           id="path90" />
      </g>
      <g
         id="g91"
         transform="matrix(0.03807675,0,0,0.03807675,3.7856436,7.9574536)">
        <path
           fill="none"
           stroke="#000000"
           stroke-width="4"
           stroke-linecap="round"
           stroke-linejoin="round"
           d="m 304.508,266.616 -3.068,6.476 -3.123,7.735 -2.672,8.502 -0.442,2.213 0.081,2.409 0.794,1.613 1.354,1.463 5.256,2.845 3.419,0.061 3.268,-2.081"
           id="path91" />
      </g>
      <g
         id="g92"
         transform="matrix(0.03807675,0,0,0.03807675,3.7856436,7.9574536)">
        <path
           fill="none"
           stroke="#000000"
           stroke-width="4"
           stroke-linecap="round"
           stroke-linejoin="round"
           d="m 290.631,281.655 4.41,0.143 17.854,-1.384"
           id="path92" />
      </g>
      <g
         id="g93"
         transform="matrix(0.03807675,0,0,0.03807675,3.7856436,7.9574536)">
        <path
           fill="none"
           stroke="#000000"
           stroke-width="4"
           stroke-linecap="round"
           stroke-linejoin="round"
           d="m 334.727,290.465 4.879,-0.82 18.64,-1.81 3.087,-0.184 -4.919,1.108"
           id="path93" />
      </g>
      <g
         id="g94"
         transform="matrix(0.03807675,0,0,0.03807675,3.7856436,7.9574536)">
        <path
           fill="none"
           stroke="#000000"
           stroke-width="4"
           stroke-linecap="round"
           stroke-linejoin="round"
           d="m 334.461,300.454 2.972,0.915 5.042,0.249 20.05,-2.589 2.451,0.185 -3.878,1.396"
           id="path94" />
      </g>
      <g
         id="g95"
         transform="matrix(0.03807675,0,0,0.03807675,3.7856436,7.9574536)">
        <path
           fill="none"
           stroke="#000000"
           stroke-width="4"
           stroke-linecap="round"
           stroke-linejoin="round"
           d="m 413.791,263.884 -0.108,0.434 2.338,2.988 1.208,2.905 1.054,5.67 0.072,3.71 -1.504,7.588 -3.255,9.905 -2.213,5.268 -0.773,1.047 -0.991,0.466 -1.008,-0.371 -0.588,-1.219 0.034,-1.988 0.736,-3.26 1.719,-3.839 3.192,-5.253 4.055,-5.809 5.531,-6.769 6.728,-7.059 5.247,-4.847 0.489,-0.818 -0.208,0.288 0.488,0.044"
           id="path95" />
      </g>
      <g
         id="g96"
         transform="matrix(0.03807675,0,0,0.03807675,3.7856436,7.9574536)">
        <path
           fill="none"
           stroke="#000000"
           stroke-width="4"
           stroke-linecap="round"
           stroke-linejoin="round"
           d="m 451.607,240.301 1.626,-5.75 0.778,-1.56 -1.722,9.179 -0.187,12.238"
           id="path96" />
      </g>
      <g
         id="g97"
         transform="matrix(0.03807675,0,0,0.03807675,3.7856436,7.9574536)">
        <path
           fill="none"
           stroke="#000000"
           stroke-width="4"
           stroke-linecap="round"
           stroke-linejoin="round"
           d="m 389.948,316.494 24.507,-2.042 32.309,-2.061 5.416,0.019 2.075,0.218 -1.593,0.034"
           id="path97" />
      </g>
      <g
         id="g98"
         transform="matrix(0.03807675,0,0,0.03807675,3.7856436,7.9574536)">
        <path
           fill="none"
           stroke="#000000"
           stroke-width="4"
           stroke-linecap="round"
           stroke-linejoin="round"
           d="m 409.449,330.854 1.403,8.525 0.129,3.094 -0.395,3.583 -0.77,2.957 -1.544,3.181 -2.448,3.762 -1.908,1.385 -0.153,-1.262 1.247,-2.89 4.786,-6.585 16.79,-17.782 8.984,-11.037 -0.282,0.661 0.252,1.707"
           id="path98" />
      </g>
      <g
         id="g99"
         transform="matrix(0.03807675,0,0,0.03807675,3.7856436,7.9574536)">
        <path
           fill="none"
           stroke="#000000"
           stroke-width="4"
           stroke-linecap="round"
           stroke-linejoin="round"
           d="m 429.31,344.265 -1.26,4.081 -0.139,3.822 0.873,1.192 1.741,1.143 2.918,0.136 3.983,-1.634 2.722,-1.451 1.804,-1.479 0.841,-0.941 0.063,-0.792 -0.271,0.183 0.219,1.285 1.439,3.093 1.36,0.913 1.47,-0.131 4.352,-1.8 2.686,-1.99 1.19,-1.464 1.048,-5.632 -0.054,-2.79 -0.301,-0.756"
           id="path99" />
      </g>
      <g
         id="g100"
         transform="matrix(0.03807675,0,0,0.03807675,3.7856436,7.9574536)">
        <path
           fill="none"
           stroke="#000000"
           stroke-width="4"
           stroke-linecap="round"
           stroke-linejoin="round"
           d="m 502.586,313.59 0.059,0.031"
           id="path100" />
      </g>
      <g
         id="g101"
         transform="matrix(0.03807675,0,0,0.03807675,3.7856436,7.9574536)">
        <path
           fill="none"
           stroke="#000000"
           stroke-width="4"
           stroke-linecap="round"
           stroke-linejoin="round"
           d="m 505.25,311.913 0.318,2.292 -0.282,3.144 -0.472,3.542 -1.208,4.728 -2.785,7.378 -1.239,1.99 -1.405,0.694"
           id="path101" />
      </g>
    </g>
    <g class="fragment"
       id="g8"
       transform="translate(4.7393617)">
      <g
         id="g102"
         transform="matrix(0.03807675,0,0,0.03807675,-8.1505267,14.92022)">
        <path
           fill="none"
           stroke="#000000"
           stroke-width="4"
           stroke-linecap="round"
           stroke-linejoin="round"
           d="m 544.843,284.918 -3.292,9.641 -1.677,6.614 0.417,1.794 1.667,0.742 0.904,0.023"
           id="path102" />
      </g>
      <g
         id="g103"
         transform="matrix(0.03807675,0,0,0.03807675,-8.1505267,14.92022)">
        <path
           fill="none"
           stroke="#000000"
           stroke-width="4"
           stroke-linecap="round"
           stroke-linejoin="round"
           d="m 550.169,263.781 0.693,4.322 -0.608,1.384 -0.809,0.793 -0.843,0.25 -1.173,-0.509 -0.404,-1.531 1.336,-3.318 1.071,-1.119 1.517,-0.805 2.916,-0.37 0.972,0.248 1.07,1.043"
           id="path103" />
      </g>
      <g
         id="g104"
         transform="matrix(0.03807675,0,0,0.03807675,-8.1505267,14.92022)">
        <path
           fill="none"
           stroke="#000000"
           stroke-width="4"
           stroke-linecap="round"
           stroke-linejoin="round"
           d="m 569.517,292.025 9.388,-1.328 11,-0.585"
           id="path104" />
      </g>
      <g
         id="g105"
         transform="matrix(0.03807675,0,0,0.03807675,-8.1505267,14.92022)">
        <path
           fill="none"
           stroke="#000000"
           stroke-width="4"
           stroke-linecap="round"
           stroke-linejoin="round"
           d="m 568.68,300.814 13.987,-0.785 8.054,0.125 0.36,0.027 0.004,0.357"
           id="path105" />
      </g>
      <g
         id="g106"
         transform="matrix(0.03807675,0,0,0.03807675,-8.1505267,14.92022)">
        <path
           fill="none"
           stroke="#000000"
           stroke-width="4"
           stroke-linecap="round"
           stroke-linejoin="round"
           d="m 640.373,270.215 -11.389,26.692 5.785,-10.436 3.75,-7.656 2.621,-4.273 1.737,-2.167 0.541,0.347 1.591,0.114 1.231,0.805 1.786,3.393 3.367,9.999 2.395,8.928 0.079,1.263 -0.617,0.846 -2.65,1.737 -4.77,1.005 -3.233,-0.052 -3.335,-0.55 -4.731,-1.971"
           id="path106" />
      </g>
      <g
         id="g107"
         transform="matrix(0.03807675,0,0,0.03807675,-8.1505267,14.92022)">
        <path
           fill="none"
           stroke="#000000"
           stroke-width="4"
           stroke-linecap="round"
           stroke-linejoin="round"
           d="m 666.425,256.74 0.872,8.699 -0.601,6.323 -2.008,7.299 -3.712,9.946 -0.102,1.369 0.353,0.488 0.852,-0.614 4.844,-5.244 3.228,-2.864 2.348,-0.47 0.634,5.684 -0.969,5.705 -0.052,3.494 0.504,1.004 1.489,1.416 1.244,0.551 2.246,0.374"
           id="path107" />
      </g>
      <g
         id="g108"
         transform="matrix(0.03807675,0,0,0.03807675,-8.1505267,14.92022)">
        <path
           fill="none"
           stroke="#000000"
           stroke-width="4"
           stroke-linecap="round"
           stroke-linejoin="round"
           d="m 607.47,313.005 2.335,0.478 3.99,0.114 13.419,-1.414 18.155,-0.83 19.98,0.29 12.759,0.769 8.331,0.056"
           id="path108" />
      </g>
      <g
         id="g109"
         transform="matrix(0.03807675,0,0,0.03807675,-8.1505267,14.92022)">
        <path
           fill="none"
           stroke="#000000"
           stroke-width="4"
           stroke-linecap="round"
           stroke-linejoin="round"
           d="m 639.315,331.484 0.554,3.228 0.079,2.804 -0.21,1.954 -1.147,3.732 -1.476,3.101 -2.146,3.086 -1.34,1.32 -2.176,1.269 1.53,-2.61 2.543,-0.942 1.828,-0.258 4.561,1.2 2.99,0.111 3.728,-0.515 4.794,-2.248"
           id="path109" />
      </g>
    </g>
  </g>
</svg>
