<?xml version="1.0" encoding="UTF-8" standalone="no"?>
<!-- Created with Inkscape (http://www.inkscape.org/) -->

<svg
   width="1in"
   height="1.3in"
   viewBox="0 0 25.4 33.019999"
   version="1.1"
   id="svg1"
   inkscape:version="1.4 (86a8ad7, 2024-10-11)"
   sodipodi:docname="EX4160.svg"
   xmlns:inkscape="http://www.inkscape.org/namespaces/inkscape"
   xmlns:sodipodi="http://sodipodi.sourceforge.net/DTD/sodipodi-0.dtd"
   xmlns="http://www.w3.org/2000/svg"
   xmlns:svg="http://www.w3.org/2000/svg">
  <sodipodi:namedview
     id="namedview1"
     pagecolor="#ffffff"
     bordercolor="#111111"
     borderopacity="1"
     inkscape:showpageshadow="0"
     inkscape:pageopacity="0"
     inkscape:pagecheckerboard="1"
     inkscape:deskcolor="#d1d1d1"
     inkscape:document-units="mm"
     inkscape:zoom="5.865376"
     inkscape:cx="54.557457"
     inkscape:cy="55.836148"
     inkscape:window-width="1920"
     inkscape:window-height="1012"
     inkscape:window-x="1912"
     inkscape:window-y="-8"
     inkscape:window-maximized="1"
     inkscape:current-layer="layer1" />
  <defs
     id="defs1">
    <inkscape:path-effect
       effect="ruler"
       id="path-effect157"
       is_visible="true"
       lpeversion="1"
       unit="px"
       mark_distance="7.5"
       mark_length="14"
       minor_mark_length="7"
       major_mark_steps="5"
       shift="0"
       offset="0"
       mark_dir="right"
       border_marks="both"
       mark_angle="0"
       minor_mark_gap="0"
       major_mark_gap="0" />
    <clipPath
       id="p690a3871cc">
      <rect
         height="167.39999"
         width="334.79999"
         x="54"
         y="59.580002"
         id="rect3981" />
    </clipPath>
    <clipPath
       id="clipPath1">
      <rect
         height="167.39999"
         width="334.79999"
         x="54"
         y="59.580002"
         id="rect1" />
    </clipPath>
    <clipPath
       id="clipPath2">
      <rect
         height="167.39999"
         width="334.79999"
         x="54"
         y="59.580002"
         id="rect2" />
    </clipPath>
    <clipPath
       id="clipPath3">
      <rect
         height="167.39999"
         width="334.79999"
         x="54"
         y="59.580002"
         id="rect3" />
    </clipPath>
    <clipPath
       id="clipPath4">
      <rect
         height="167.39999"
         width="334.79999"
         x="54"
         y="59.580002"
         id="rect4" />
    </clipPath>
    <clipPath
       id="clipPath5">
      <rect
         height="167.39999"
         width="334.79999"
         x="54"
         y="59.580002"
         id="rect5" />
    </clipPath>
    <clipPath
       id="clipPath6">
      <rect
         height="167.39999"
         width="334.79999"
         x="54"
         y="59.580002"
         id="rect6" />
    </clipPath>
    <clipPath
       id="clipPath7">
      <rect
         height="167.39999"
         width="334.79999"
         x="54"
         y="59.580002"
         id="rect7" />
    </clipPath>
    <clipPath
       id="clipPath8">
      <rect
         height="167.39999"
         width="334.79999"
         x="54"
         y="59.580002"
         id="rect8" />
    </clipPath>
    <clipPath
       id="clipPath9">
      <rect
         height="167.39999"
         width="334.79999"
         x="54"
         y="59.580002"
         id="rect9" />
    </clipPath>
    <clipPath
       id="clipPath10">
      <rect
         height="167.39999"
         width="334.79999"
         x="54"
         y="59.580002"
         id="rect10" />
    </clipPath>
    <clipPath
       id="clipPath11">
      <rect
         height="167.39999"
         width="334.79999"
         x="54"
         y="59.580002"
         id="rect11" />
    </clipPath>
    <clipPath
       id="clipPath12">
      <rect
         height="167.39999"
         width="334.79999"
         x="54"
         y="59.580002"
         id="rect12" />
    </clipPath>
    <clipPath
       id="clipPath13">
      <rect
         height="167.39999"
         width="334.79999"
         x="54"
         y="59.580002"
         id="rect13" />
    </clipPath>
    <clipPath
       id="clipPath14">
      <rect
         height="167.39999"
         width="334.79999"
         x="54"
         y="59.580002"
         id="rect14" />
    </clipPath>
    <clipPath
       id="clipPath15">
      <rect
         height="167.39999"
         width="334.79999"
         x="54"
         y="59.580002"
         id="rect15" />
    </clipPath>
    <clipPath
       id="clipPath16">
      <rect
         height="167.39999"
         width="334.79999"
         x="54"
         y="59.580002"
         id="rect16" />
    </clipPath>
    <clipPath
       id="clipPath17">
      <rect
         height="167.39999"
         width="334.79999"
         x="54"
         y="59.580002"
         id="rect17" />
    </clipPath>
    <clipPath
       id="clipPath18">
      <rect
         height="167.39999"
         width="334.79999"
         x="54"
         y="59.580002"
         id="rect18" />
    </clipPath>
    <inkscape:path-effect
       effect="ruler"
       id="path-effect2247"
       is_visible="true"
       lpeversion="1"
       unit="px"
       mark_distance="7.5"
       mark_length="14"
       minor_mark_length="7"
       major_mark_steps="5"
       shift="0"
       offset="0"
       mark_dir="right"
       border_marks="both"
       mark_angle="0"
       minor_mark_gap="0"
       major_mark_gap="0" />
    <path
       d="M 0,0 V 3.5"
       id="m0d4359b071"
       style="stroke:#000000;stroke-width:0.8" />
    <path
       d="m 2034,4250 q -487,0 -733,-480 -245,-479 -245,-1442 0,-959 245,-1439 246,-480 733,-480 491,0 736,480 246,480 246,1439 0,963 -246,1442 -245,480 -736,480 z m 0,500 q 785,0 1199,-621 414,-620 414,-1801 0,-1178 -414,-1799 -414,-620 -1199,-620 -784,0 -1198,620 -414,621 -414,1799 0,1181 414,1801 414,621 1198,621 z"
       id="DejaVuSans-30"
       transform="scale(0.015625)" />
    <path
       d="M 794,531 H 1825 V 4091 L 703,3866 v 575 l 1116,225 h 631 V 531 H 3481 V 0 H 794 Z"
       id="DejaVuSans-31"
       transform="scale(0.015625)" />
    <path
       d="M 1228,531 H 3431 V 0 H 469 v 531 q 359,372 979,998 621,627 780,809 303,340 423,576 121,236 121,464 0,372 -261,606 -261,235 -680,235 -297,0 -627,-103 -329,-103 -704,-313 v 638 q 381,153 712,231 332,78 607,78 725,0 1156,-363 431,-362 431,-968 0,-288 -108,-546 -107,-257 -392,-607 -78,-91 -497,-524 Q 1991,1309 1228,531 Z"
       id="DejaVuSans-32"
       transform="scale(0.015625)" />
    <path
       d="m 2597,2516 q 453,-97 707,-404 255,-306 255,-756 0,-690 -475,-1069 -475,-378 -1350,-378 -293,0 -604,58 -311,58 -642,174 v 609 q 262,-153 574,-231 313,-78 654,-78 593,0 904,234 311,234 311,681 0,413 -289,645 -289,233 -804,233 h -544 v 519 h 569 q 465,0 712,186 247,186 247,536 0,359 -255,551 -254,193 -729,193 -260,0 -557,-57 -297,-56 -653,-174 v 562 q 360,100 674,150 314,50 592,50 719,0 1137,-327 419,-326 419,-882 0,-388 -222,-655 -222,-267 -631,-370 z"
       id="DejaVuSans-33"
       transform="scale(0.015625)" />
    <path
       d="M 2419,4116 825,1625 h 1594 z m -166,550 h 794 V 1625 h 666 V 1100 H 3047 V 0 H 2419 V 1100 H 313 v 609 z"
       id="DejaVuSans-34"
       transform="scale(0.015625)" />
    <path
       d="M 691,4666 H 3169 V 4134 H 1269 V 2991 q 137,47 274,70 138,23 276,23 781,0 1237,-428 457,-428 457,-1159 Q 3513,744 3044,326 2575,-91 1722,-91 1428,-91 1123,-41 819,9 494,109 v 635 q 281,-153 581,-228 300,-75 634,-75 541,0 856,284 316,284 316,772 0,487 -316,771 -315,285 -856,285 -253,0 -505,-56 -251,-56 -513,-175 z"
       id="DejaVuSans-35"
       transform="scale(0.015625)" />
    <path
       d="m 2113,2584 q -425,0 -674,-291 -248,-290 -248,-796 0,-503 248,-796 249,-292 674,-292 425,0 673,292 248,293 248,796 0,506 -248,796 -248,291 -673,291 z m 1253,1979 v -575 q -238,112 -480,171 -242,60 -480,60 -625,0 -955,-422 -329,-422 -376,-1275 184,272 462,417 279,145 613,145 703,0 1111,-427 408,-426 408,-1160 0,-719 -425,-1154 -425,-434 -1131,-434 -810,0 -1238,620 -428,621 -428,1799 0,1106 525,1764 525,658 1409,658 238,0 480,-47 242,-47 505,-140 z"
       id="DejaVuSans-36"
       transform="scale(0.015625)" />
    <path
       d="m 403,4666 h 678 L 2241,2931 3406,4666 h 678 L 2584,2425 4184,0 H 3506 L 2194,1984 872,0 H 191 l 1665,2491 z"
       id="DejaVuSans-58"
       transform="scale(0.015625)" />
    <path
       d="M 313,2009 H 1997 V 1497 H 313 Z"
       id="DejaVuSans-2d"
       transform="scale(0.015625)" />
    <path
       d="m 3122,3366 v -538 q -244,135 -489,202 -245,67 -495,67 -560,0 -870,-355 -309,-354 -309,-995 0,-641 309,-996 310,-354 870,-354 250,0 495,67 245,67 489,202 V 134 Q 2881,22 2623,-34 2366,-91 2075,-91 1284,-91 818,406 353,903 353,1747 q 0,856 470,1346 471,491 1290,491 265,0 518,-55 253,-54 491,-163 z"
       id="DejaVuSans-63"
       transform="scale(0.015625)" />
    <path
       d="m 1959,3097 q -462,0 -731,-361 -269,-361 -269,-989 0,-628 267,-989 268,-361 733,-361 460,0 728,362 269,363 269,988 0,622 -269,986 -268,364 -728,364 z m 0,487 q 750,0 1178,-488 429,-487 429,-1349 Q 3566,888 3137,398 2709,-91 1959,-91 1206,-91 779,398 353,888 353,1747 q 0,862 426,1349 427,488 1180,488 z"
       id="DejaVuSans-6f"
       transform="scale(0.015625)" />
    <path
       d="m 2631,2963 q -97,56 -211,82 -114,27 -251,27 -488,0 -749,-317 -261,-317 -261,-911 V 0 H 581 v 3500 h 578 v -544 q 182,319 472,473 291,155 707,155 59,0 131,-8 72,-7 159,-23 z"
       id="DejaVuSans-72"
       transform="scale(0.015625)" />
    <path
       d="m 2906,2969 v 1894 h 575 V 0 H 2906 V 525 Q 2725,213 2448,61 2172,-91 1784,-91 1150,-91 751,415 353,922 353,1747 q 0,825 398,1331 399,506 1033,506 388,0 664,-152 277,-151 458,-463 z M 947,1747 q 0,-634 261,-995 261,-361 717,-361 456,0 718,361 263,361 263,995 0,634 -263,995 -262,361 -718,361 -456,0 -717,-361 -261,-361 -261,-995 z"
       id="DejaVuSans-64"
       transform="scale(0.015625)" />
    <path
       d="m 603,3500 h 575 V 0 H 603 Z m 0,1363 h 575 V 4134 H 603 Z"
       id="DejaVuSans-69"
       transform="scale(0.015625)" />
    <path
       d="M 3513,2113 V 0 h -575 v 2094 q 0,497 -194,743 -194,247 -581,247 -466,0 -735,-297 -269,-296 -269,-809 V 0 H 581 v 3500 h 578 v -544 q 207,316 486,472 280,156 646,156 603,0 912,-373 310,-373 310,-1098 z"
       id="DejaVuSans-6e"
       transform="scale(0.015625)" />
    <path
       d="m 2194,1759 q -697,0 -966,-159 -269,-159 -269,-544 0,-306 202,-486 202,-179 548,-179 479,0 768,339 289,339 289,901 v 128 z m 1147,238 V 0 H 2766 V 531 Q 2569,213 2275,61 1981,-91 1556,-91 q -537,0 -855,302 -317,302 -317,808 0,590 395,890 396,300 1180,300 h 807 v 57 q 0,397 -261,614 -261,217 -733,217 -300,0 -585,-72 -284,-72 -546,-216 v 532 q 315,122 612,182 297,61 578,61 760,0 1135,-394 375,-393 375,-1193 z"
       id="DejaVuSans-61"
       transform="scale(0.015625)" />
    <path
       d="M 1172,4494 V 3500 H 2356 V 3053 H 1172 V 1153 q 0,-428 117,-550 117,-122 477,-122 h 590 V 0 H 1766 Q 1100,0 847,248 594,497 594,1153 V 3053 H 172 v 447 h 422 v 994 z"
       id="DejaVuSans-74"
       transform="scale(0.015625)" />
    <path
       d="M 3597,1894 V 1613 H 953 q 38,-594 358,-905 320,-311 892,-311 331,0 642,81 311,81 618,244 V 178 Q 3153,47 2828,-22 2503,-91 2169,-91 1331,-91 842,396 353,884 353,1716 q 0,859 464,1363 464,505 1252,505 706,0 1117,-455 411,-454 411,-1235 z m -575,169 q -6,471 -264,752 -258,282 -683,282 -481,0 -770,-272 -289,-272 -333,-766 z"
       id="DejaVuSans-65"
       transform="scale(0.015625)" />
    <path
       id="DejaVuSans-20"
       transform="scale(0.015625)"
       d="" />
    <path
       d="m 1984,4856 q -418,-718 -622,-1422 -203,-703 -203,-1425 0,-721 205,-1429 205,-708 620,-1424 h -500 q -468,735 -701,1444 -233,709 -233,1409 0,697 231,1403 232,707 703,1444 z"
       id="DejaVuSans-28"
       transform="scale(0.015625)" />
    <path
       d="m 3328,2828 q 216,388 516,572 300,184 706,184 547,0 844,-383 297,-382 297,-1088 V 0 h -578 v 2094 q 0,503 -179,746 -178,244 -543,244 -447,0 -707,-297 -259,-296 -259,-809 V 0 h -578 v 2094 q 0,506 -178,748 -178,242 -550,242 -441,0 -701,-298 -259,-298 -259,-808 V 0 H 581 v 3500 h 578 v -544 q 197,322 472,475 275,153 653,153 382,0 649,-194 267,-193 395,-562 z"
       id="DejaVuSans-6d"
       transform="scale(0.015625)" />
    <path
       d="m 513,4856 h 500 q 468,-737 701,-1444 233,-706 233,-1403 0,-700 -233,-1409 -233,-709 -701,-1444 H 513 q 415,716 620,1424 205,708 205,1429 0,722 -205,1425 -205,704 -620,1422 z"
       id="DejaVuSans-29"
       transform="scale(0.015625)" />
    <path
       d="M 0,0 H -3.5"
       id="me0602ec55f"
       style="stroke:#000000;stroke-width:0.8" />
    <path
       d="M 359,4666 H 4025 V 4184 L 1075,531 H 4097 V 0 H 288 V 481 L 3238,4134 H 359 Z"
       id="DejaVuSans-5a"
       transform="scale(0.015625)" />
    <path
       d="M 525,4666 H 3525 V 4397 L 1831,0 H 1172 L 2766,4134 H 525 Z"
       id="DejaVuSans-37"
       transform="scale(0.015625)" />
    <path
       d="m 2034,2216 q -450,0 -708,-241 -257,-241 -257,-662 0,-422 257,-663 258,-241 708,-241 450,0 709,242 260,243 260,662 0,421 -258,662 -257,241 -711,241 z m -631,268 q -406,100 -633,378 -226,279 -226,679 0,559 398,884 399,325 1092,325 697,0 1094,-325 397,-325 397,-884 0,-400 -227,-679 -226,-278 -629,-378 456,-106 710,-416 255,-309 255,-755 Q 3634,634 3220,271 2806,-91 2034,-91 1263,-91 848,271 434,634 434,1313 q 0,446 256,755 257,310 713,416 z m -231,997 q 0,-362 226,-565 227,-203 636,-203 407,0 636,203 230,203 230,565 0,363 -230,566 -229,203 -636,203 -409,0 -636,-203 -226,-203 -226,-566 z"
       id="DejaVuSans-38"
       transform="scale(0.015625)" />
    <path
       d="m 703,97 v 575 q 238,-113 481,-172 244,-59 479,-59 625,0 954,420 330,420 377,1277 -181,-269 -460,-413 -278,-144 -615,-144 -700,0 -1108,423 -408,424 -408,1159 0,718 425,1152 425,435 1131,435 810,0 1236,-621 427,-620 427,-1801 Q 3622,1225 3098,567 2575,-91 1691,-91 1453,-91 1209,-44 966,3 703,97 Z m 1256,1978 q 425,0 673,290 249,291 249,798 0,503 -249,795 -248,292 -673,292 -425,0 -673,-292 -248,-292 -248,-795 0,-507 248,-798 248,-290 673,-290 z"
       id="DejaVuSans-39"
       transform="scale(0.015625)" />
  </defs>
  <g
     inkscape:label="Layer 1"
     inkscape:groupmode="layer"
     id="layer1">
    <text class="fragment"
       xml:space="preserve"
       style="font-size:2.11667px;line-height:0.95;font-family:'Times New Roman';-inkscape-font-specification:'Times New Roman, ';font-variant-ligatures:none;text-align:center;text-anchor:middle;stroke-width:0.264583"
       x="16.149149"
       y="6.134872"
       id="text157"><tspan
         sodipodi:role="line"
         id="tspan157"
         style="stroke-width:0.264583"
         x="16.149149"
         y="6.134872" /></text>
    <text class="fragment"
       xml:space="preserve"
       style="font-size:2.11667px;line-height:0.95;font-family:'Coming Soon';-inkscape-font-specification:'Coming Soon, Normal';font-variant-ligatures:none;text-align:center;text-anchor:middle;stroke-width:0.264583;font-weight:normal;font-style:normal;font-stretch:normal;font-variant:normal;font-variant-caps:normal;font-variant-numeric:normal;font-variant-east-asian:normal;fill:#008000"
       x="2.9026389"
       y="1.9306337"
       id="text1"><tspan
         sodipodi:role="line"
         id="tspan1"
         style="stroke-width:0.264583;-inkscape-font-specification:'Coming Soon, Normal';font-family:'Coming Soon';font-weight:normal;font-style:normal;font-stretch:normal;font-variant:normal;font-size:2.11666667px;font-variant-ligatures:none;font-variant-caps:normal;font-variant-numeric:normal;font-variant-east-asian:normal;fill:#008000"
         x="3.1672227"
         y="1.9306337">Data: </tspan></text>
    <text class="fragment"
       xml:space="preserve"
       style="font-size:2.11667px;line-height:0.95;font-family:'Coming Soon';-inkscape-font-specification:'Coming Soon, Normal';font-variant-ligatures:none;text-align:center;text-anchor:middle;stroke-width:0.264583;font-weight:normal;font-style:normal;font-stretch:normal;font-variant:normal;font-variant-caps:normal;font-variant-numeric:normal;font-variant-east-asian:normal"
       x="13.109721"
       y="1.9988467"
       id="text2"><tspan
         sodipodi:role="line"
         id="tspan2"
         style="stroke-width:0.264583;-inkscape-font-specification:'Coming Soon, Normal';font-family:'Coming Soon';font-weight:normal;font-style:normal;font-stretch:normal;font-variant:normal;font-size:2.11666667px;font-variant-ligatures:none;font-variant-caps:normal;font-variant-numeric:normal;font-variant-east-asian:normal"
         x="13.109721"
         y="1.9988467">Given in figure</tspan></text>
    <text class="fragment"
       xml:space="preserve"
       style="font-size:2.11667px;line-height:0.95;font-family:'Coming Soon';-inkscape-font-specification:'Coming Soon, Normal';font-variant-ligatures:none;text-align:center;text-anchor:middle;stroke-width:0.264583;font-weight:normal;font-style:normal;font-stretch:normal;font-variant:normal;font-variant-caps:normal;font-variant-numeric:normal;font-variant-east-asian:normal;fill:#008000"
       x="5.2642555"
       y="4.1466269"
       id="text3"><tspan
         sodipodi:role="line"
         id="tspan3"
         style="stroke-width:0.264583;-inkscape-font-specification:'Coming Soon, Normal';font-family:'Coming Soon';font-weight:normal;font-style:normal;font-stretch:normal;font-variant:normal;font-size:2.11666667px;font-variant-ligatures:none;font-variant-caps:normal;font-variant-numeric:normal;font-variant-east-asian:normal;fill:#008000"
         x="5.2642555"
         y="4.1466269">Principles:</tspan></text>
    <g class="fragment"
       id="g35">
      <text
         xml:space="preserve"
         style="font-style:normal;font-variant:normal;font-weight:normal;font-stretch:normal;font-size:2.74084px;line-height:0.95;font-family:'Gunny Rewritten';-inkscape-font-specification:'Gunny Rewritten, Normal';font-variant-ligatures:none;font-variant-caps:normal;font-variant-numeric:normal;font-variant-east-asian:normal;text-align:center;text-anchor:middle;stroke-width:0.342605"
         x="3.2666113"
         y="8.0565653"
         id="text4"><tspan
           sodipodi:role="line"
           id="tspan4"
           style="font-style:normal;font-variant:normal;font-weight:normal;font-stretch:normal;font-size:2.74084px;font-family:'Gunny Rewritten';-inkscape-font-specification:'Gunny Rewritten, Normal';font-variant-ligatures:none;font-variant-caps:normal;font-variant-numeric:normal;font-variant-east-asian:normal;stroke-width:0.342605"
           x="3.2666113"
           y="8.0565653">d h</tspan></text>
      <text
         xml:space="preserve"
         style="font-style:normal;font-variant:normal;font-weight:normal;font-stretch:normal;font-size:2.74084px;line-height:0.95;font-family:'Gunny Rewritten';-inkscape-font-specification:'Gunny Rewritten, Normal';font-variant-ligatures:none;font-variant-caps:normal;font-variant-numeric:normal;font-variant-east-asian:normal;text-align:center;text-anchor:middle;stroke-width:0.342605"
         x="3.1836367"
         y="10.892502"
         id="text6"><tspan
           sodipodi:role="line"
           id="tspan6"
           style="font-style:normal;font-variant:normal;font-weight:normal;font-stretch:normal;font-size:2.74084px;font-family:'Gunny Rewritten';-inkscape-font-specification:'Gunny Rewritten, Normal';font-variant-ligatures:none;font-variant-caps:normal;font-variant-numeric:normal;font-variant-east-asian:normal;stroke-width:0.342605"
           x="3.1836367"
           y="10.892502">dx<tspan
   style="font-style:normal;font-variant:normal;font-weight:normal;font-stretch:normal;font-size:2.74084px;font-family:'Gunny Rewritten';-inkscape-font-specification:'Gunny Rewritten, Normal';font-variant-ligatures:none;font-variant-caps:normal;font-variant-numeric:normal;font-variant-east-asian:normal;baseline-shift:super;stroke-width:0.342605"
   id="tspan7" /></tspan></text>
      <path
         style="fill:none;stroke:#000000;stroke-width:0.213656;stroke-linecap:butt;stroke-linejoin:miter;stroke-dasharray:none;stroke-opacity:1"
         d="M 1.7477741,8.4526532 H 4.7921402"
         id="path7"
         sodipodi:nodetypes="cc" />
      <text
         xml:space="preserve"
         style="font-style:normal;font-variant:normal;font-weight:normal;font-stretch:normal;font-size:1.23369px;line-height:0.95;font-family:'Gunny Rewritten';-inkscape-font-specification:'Gunny Rewritten, Normal';font-variant-ligatures:none;font-variant-caps:normal;font-variant-numeric:normal;font-variant-east-asian:normal;text-align:center;text-anchor:middle;stroke-width:0.15421"
         x="3.2371271"
         y="6.5722609"
         id="text8"><tspan
           sodipodi:role="line"
           id="tspan8"
           style="font-style:normal;font-variant:normal;font-weight:normal;font-stretch:normal;font-size:1.23369px;font-family:'Gunny Rewritten';-inkscape-font-specification:'Gunny Rewritten, Normal';font-variant-ligatures:none;font-variant-caps:normal;font-variant-numeric:normal;font-variant-east-asian:normal;stroke-width:0.15421"
           x="3.2371271"
           y="6.5722609">2</tspan></text>
      <text
         xml:space="preserve"
         style="font-style:normal;font-variant:normal;font-weight:normal;font-stretch:normal;font-size:1.23369px;line-height:0.95;font-family:'Gunny Rewritten';-inkscape-font-specification:'Gunny Rewritten, Normal';font-variant-ligatures:none;font-variant-caps:normal;font-variant-numeric:normal;font-variant-east-asian:normal;text-align:center;text-anchor:middle;stroke-width:0.15421"
         x="4.3002734"
         y="9.9694424"
         id="text9"><tspan
           sodipodi:role="line"
           id="tspan9"
           style="font-style:normal;font-variant:normal;font-weight:normal;font-stretch:normal;font-size:1.23369px;font-family:'Gunny Rewritten';-inkscape-font-specification:'Gunny Rewritten, Normal';font-variant-ligatures:none;font-variant-caps:normal;font-variant-numeric:normal;font-variant-east-asian:normal;stroke-width:0.15421"
           x="4.3002734"
           y="9.9694424">2</tspan></text>
      <text
         xml:space="preserve"
         style="font-style:normal;font-variant:normal;font-weight:normal;font-stretch:normal;font-size:3.30645px;line-height:0.95;font-family:'Gunny Rewritten';-inkscape-font-specification:'Gunny Rewritten, Normal';font-variant-ligatures:none;font-variant-caps:normal;font-variant-numeric:normal;font-variant-east-asian:normal;text-align:center;text-anchor:middle;stroke-width:0.413305"
         x="6.0579062"
         y="9.4458294"
         id="text10"><tspan
           sodipodi:role="line"
           id="tspan10"
           style="font-style:normal;font-variant:normal;font-weight:normal;font-stretch:normal;font-size:3.30645px;font-family:'Gunny Rewritten';-inkscape-font-specification:'Gunny Rewritten, Normal';font-variant-ligatures:none;font-variant-caps:normal;font-variant-numeric:normal;font-variant-east-asian:normal;stroke-width:0.413305"
           x="6.0579062"
           y="9.4458294">+</tspan></text>
      <text
         xml:space="preserve"
         style="font-style:normal;font-variant:normal;font-weight:normal;font-stretch:normal;font-size:2.74084px;line-height:0.95;font-family:'Gunny Rewritten';-inkscape-font-specification:'Gunny Rewritten, Normal';font-variant-ligatures:none;font-variant-caps:normal;font-variant-numeric:normal;font-variant-east-asian:normal;text-align:center;text-anchor:middle;stroke-width:0.342605"
         x="8.8465748"
         y="8.0565653"
         id="text11"><tspan
           sodipodi:role="line"
           id="tspan11"
           style="font-style:normal;font-variant:normal;font-weight:normal;font-stretch:normal;font-size:2.74084px;font-family:'Gunny Rewritten';-inkscape-font-specification:'Gunny Rewritten, Normal';font-variant-ligatures:none;font-variant-caps:normal;font-variant-numeric:normal;font-variant-east-asian:normal;stroke-width:0.342605"
           x="8.8465748"
           y="8.0565653">d h</tspan></text>
      <text
         xml:space="preserve"
         style="font-style:normal;font-variant:normal;font-weight:normal;font-stretch:normal;font-size:2.74084px;line-height:0.95;font-family:'Gunny Rewritten';-inkscape-font-specification:'Gunny Rewritten, Normal';font-variant-ligatures:none;font-variant-caps:normal;font-variant-numeric:normal;font-variant-east-asian:normal;text-align:center;text-anchor:middle;stroke-width:0.342605"
         x="8.7636003"
         y="10.892502"
         id="text13"><tspan
           sodipodi:role="line"
           id="tspan13"
           style="font-style:normal;font-variant:normal;font-weight:normal;font-stretch:normal;font-size:2.74084px;font-family:'Gunny Rewritten';-inkscape-font-specification:'Gunny Rewritten, Normal';font-variant-ligatures:none;font-variant-caps:normal;font-variant-numeric:normal;font-variant-east-asian:normal;stroke-width:0.342605"
           x="8.7636003"
           y="10.892502">dy</tspan></text>
      <path
         style="fill:none;stroke:#000000;stroke-width:0.213656;stroke-linecap:butt;stroke-linejoin:miter;stroke-dasharray:none;stroke-opacity:1"
         d="m 7.327738,8.4526532 h 3.044366"
         id="path13"
         sodipodi:nodetypes="cc" />
      <text
         xml:space="preserve"
         style="font-style:normal;font-variant:normal;font-weight:normal;font-stretch:normal;font-size:1.23369px;line-height:0.95;font-family:'Gunny Rewritten';-inkscape-font-specification:'Gunny Rewritten, Normal';font-variant-ligatures:none;font-variant-caps:normal;font-variant-numeric:normal;font-variant-east-asian:normal;text-align:center;text-anchor:middle;stroke-width:0.15421"
         x="8.817091"
         y="6.5722609"
         id="text14"><tspan
           sodipodi:role="line"
           id="tspan14"
           style="font-style:normal;font-variant:normal;font-weight:normal;font-stretch:normal;font-size:1.23369px;font-family:'Gunny Rewritten';-inkscape-font-specification:'Gunny Rewritten, Normal';font-variant-ligatures:none;font-variant-caps:normal;font-variant-numeric:normal;font-variant-east-asian:normal;stroke-width:0.15421"
           x="8.817091"
           y="6.5722609">2</tspan></text>
      <text
         xml:space="preserve"
         style="font-style:normal;font-variant:normal;font-weight:normal;font-stretch:normal;font-size:1.23369px;line-height:0.95;font-family:'Gunny Rewritten';-inkscape-font-specification:'Gunny Rewritten, Normal';font-variant-ligatures:none;font-variant-caps:normal;font-variant-numeric:normal;font-variant-east-asian:normal;text-align:center;text-anchor:middle;stroke-width:0.15421"
         x="9.8802376"
         y="9.9694424"
         id="text15"><tspan
           sodipodi:role="line"
           id="tspan15"
           style="font-style:normal;font-variant:normal;font-weight:normal;font-stretch:normal;font-size:1.23369px;font-family:'Gunny Rewritten';-inkscape-font-specification:'Gunny Rewritten, Normal';font-variant-ligatures:none;font-variant-caps:normal;font-variant-numeric:normal;font-variant-east-asian:normal;stroke-width:0.15421"
           x="9.8802376"
           y="9.9694424">2</tspan></text>
      <text
         xml:space="preserve"
         style="font-style:normal;font-variant:normal;font-weight:normal;font-stretch:normal;font-size:2.63176px;line-height:0.95;font-family:'Gunny Rewritten';-inkscape-font-specification:'Gunny Rewritten, Normal';font-variant-ligatures:none;font-variant-caps:normal;font-variant-numeric:normal;font-variant-east-asian:normal;text-align:center;text-anchor:middle;stroke-width:0.328969"
         x="12.418324"
         y="8.9872484"
         id="text16"><tspan
           sodipodi:role="line"
           id="tspan16"
           style="font-style:normal;font-variant:normal;font-weight:normal;font-stretch:normal;font-size:2.63176px;font-family:'Gunny Rewritten';-inkscape-font-specification:'Gunny Rewritten, Normal';font-variant-ligatures:none;font-variant-caps:normal;font-variant-numeric:normal;font-variant-east-asian:normal;stroke-width:0.328969"
           x="12.418324"
           y="8.9872484">=0</tspan></text>
    </g>
    <text class="fragment"
       xml:space="preserve"
       style="font-style:normal;font-variant:normal;font-weight:normal;font-stretch:normal;font-size:2.11667px;line-height:0.95;font-family:'Coming Soon';-inkscape-font-specification:'Coming Soon, Normal';font-variant-ligatures:none;font-variant-caps:normal;font-variant-numeric:normal;font-variant-east-asian:normal;text-align:center;text-anchor:middle;white-space:pre;inline-size:30.4847;display:inline;stroke-width:0.264583"
       x="11.406203"
       y="14.268592"
       id="text17"
       transform="translate(-1.201006,0.4059842)"><tspan
         x="11.406203"
         y="14.268592"
         id="tspan5">Upstream boundary:</tspan></text>
    <g class="Animate"
       id="g31"
       style="fill:#008000">
      <text
         xml:space="preserve"
         style="font-style:normal;font-variant:normal;font-weight:normal;font-stretch:normal;font-size:2.74084px;line-height:0.95;font-family:'Gunny Rewritten';-inkscape-font-specification:'Gunny Rewritten, Normal';font-variant-ligatures:none;font-variant-caps:normal;font-variant-numeric:normal;font-variant-east-asian:normal;text-align:center;text-anchor:middle;stroke-width:0.342605;fill:#008000"
         x="4.0903354"
         y="17.930832"
         id="text18"><tspan
           sodipodi:role="line"
           id="tspan18"
           style="font-style:normal;font-variant:normal;font-weight:normal;font-stretch:normal;font-size:2.74084px;font-family:'Gunny Rewritten';-inkscape-font-specification:'Gunny Rewritten, Normal';font-variant-ligatures:none;font-variant-caps:normal;font-variant-numeric:normal;font-variant-east-asian:normal;stroke-width:0.342605;fill:#008000"
           x="4.0903354"
           y="17.930832">h=10 m</tspan></text>
    </g>
    <text class="fragment"
       xml:space="preserve"
       style="font-style:normal;font-variant:normal;font-weight:normal;font-stretch:normal;font-size:2.11667px;line-height:0.95;font-family:'Coming Soon';-inkscape-font-specification:'Coming Soon, Normal';font-variant-ligatures:none;font-variant-caps:normal;font-variant-numeric:normal;font-variant-east-asian:normal;text-align:center;text-anchor:middle;white-space:pre;inline-size:30.4847;display:inline;stroke-width:0.264583"
       x="11.406203"
       y="14.268592"
       id="text19"
       transform="translate(0.33051839,6.4506379)"><tspan
         x="11.406203"
         y="14.268592"
         id="tspan12">Downstream boundary:</tspan></text>
    <g class="Animate"
       id="g32"
       style="fill:#008000">
      <text
         xml:space="preserve"
         style="font-style:normal;font-variant:normal;font-weight:normal;font-stretch:normal;font-size:2.74084px;line-height:0.95;font-family:'Gunny Rewritten';-inkscape-font-specification:'Gunny Rewritten, Normal';font-variant-ligatures:none;font-variant-caps:normal;font-variant-numeric:normal;font-variant-east-asian:normal;text-align:center;text-anchor:middle;stroke-width:0.342605;fill:#008000"
         x="4.0903354"
         y="24.11199"
         id="text20"><tspan
           sodipodi:role="line"
           id="tspan20"
           style="font-style:normal;font-variant:normal;font-weight:normal;font-stretch:normal;font-size:2.74084px;font-family:'Gunny Rewritten';-inkscape-font-specification:'Gunny Rewritten, Normal';font-variant-ligatures:none;font-variant-caps:normal;font-variant-numeric:normal;font-variant-east-asian:normal;stroke-width:0.342605;fill:#008000"
           x="4.0903354"
           y="24.11199">h=3 m</tspan></text>
    </g>
    <text class="fragment"
       xml:space="preserve"
       style="font-style:normal;font-variant:normal;font-weight:normal;font-stretch:normal;font-size:2.11667px;line-height:0.95;font-family:'Coming Soon';-inkscape-font-specification:'Coming Soon, Normal';font-variant-ligatures:none;font-variant-caps:normal;font-variant-numeric:normal;font-variant-east-asian:normal;text-align:center;text-anchor:middle;white-space:pre;inline-size:30.4847;display:inline;stroke-width:0.264583"
       x="11.406203"
       y="14.268592"
       id="text21"
       transform="translate(0.33051839,12.495292)"><tspan
         x="11.406203"
         y="14.268592"
         id="tspan17">Impermeable boundary:</tspan></text>
    <g class="Animate"
       id="g33"
       style="fill:#008000">
      <text
         xml:space="preserve"
         style="font-style:normal;font-variant:normal;font-weight:normal;font-stretch:normal;font-size:2.74084px;line-height:0.95;font-family:'Gunny Rewritten';-inkscape-font-specification:'Gunny Rewritten, Normal';font-variant-ligatures:none;font-variant-caps:normal;font-variant-numeric:normal;font-variant-east-asian:normal;text-align:center;text-anchor:middle;stroke-width:0.342605;fill:#008000"
         x="3.2666113"
         y="29.704374"
         id="text22"><tspan
           sodipodi:role="line"
           id="tspan22"
           style="font-style:normal;font-variant:normal;font-weight:normal;font-stretch:normal;font-size:2.74084px;font-family:'Gunny Rewritten';-inkscape-font-specification:'Gunny Rewritten, Normal';font-variant-ligatures:none;font-variant-caps:normal;font-variant-numeric:normal;font-variant-east-asian:normal;stroke-width:0.342605;fill:#008000"
           x="3.2666113"
           y="29.704374">dh</tspan></text>
      <text
         xml:space="preserve"
         style="font-style:normal;font-variant:normal;font-weight:normal;font-stretch:normal;font-size:2.74084px;line-height:0.95;font-family:'Gunny Rewritten';-inkscape-font-specification:'Gunny Rewritten, Normal';font-variant-ligatures:none;font-variant-caps:normal;font-variant-numeric:normal;font-variant-east-asian:normal;text-align:center;text-anchor:middle;stroke-width:0.342605;fill:#008000"
         x="3.1836367"
         y="32.54031"
         id="text24"><tspan
           sodipodi:role="line"
           id="tspan24"
           style="font-style:normal;font-variant:normal;font-weight:normal;font-stretch:normal;font-size:2.74084px;font-family:'Gunny Rewritten';-inkscape-font-specification:'Gunny Rewritten, Normal';font-variant-ligatures:none;font-variant-caps:normal;font-variant-numeric:normal;font-variant-east-asian:normal;stroke-width:0.342605;fill:#008000"
           x="3.1836367"
           y="32.54031">dx<tspan
   style="font-style:normal;font-variant:normal;font-weight:normal;font-stretch:normal;font-size:2.74084px;font-family:'Gunny Rewritten';-inkscape-font-specification:'Gunny Rewritten, Normal';font-variant-ligatures:none;font-variant-caps:normal;font-variant-numeric:normal;font-variant-east-asian:normal;baseline-shift:super;stroke-width:0.342605;fill:#008000"
   id="tspan23" /></tspan></text>
      <path
         style="fill:#008000;stroke:#000000;stroke-width:0.213656;stroke-linecap:butt;stroke-linejoin:miter;stroke-dasharray:none;stroke-opacity:1"
         d="M 1.7477741,30.100461 H 4.7921402"
         id="path24"
         sodipodi:nodetypes="cc" />
      <text
         xml:space="preserve"
         style="font-style:normal;font-variant:normal;font-weight:normal;font-stretch:normal;font-size:2.63176px;line-height:0.95;font-family:'Gunny Rewritten';-inkscape-font-specification:'Gunny Rewritten, Normal';font-variant-ligatures:none;font-variant-caps:normal;font-variant-numeric:normal;font-variant-east-asian:normal;text-align:center;text-anchor:middle;stroke-width:0.328969;fill:#008000"
         x="6.153038"
         y="30.668354"
         id="text25"><tspan
           sodipodi:role="line"
           id="tspan25"
           style="font-style:normal;font-variant:normal;font-weight:normal;font-stretch:normal;font-size:2.63176px;font-family:'Gunny Rewritten';-inkscape-font-specification:'Gunny Rewritten, Normal';font-variant-ligatures:none;font-variant-caps:normal;font-variant-numeric:normal;font-variant-east-asian:normal;stroke-width:0.328969;fill:#008000"
           x="6.153038"
           y="30.668354">=0</tspan></text>
    </g>
    <text class="fragment"
       xml:space="preserve"
       style="font-style:normal;font-variant:normal;font-weight:normal;font-stretch:normal;font-size:2.11667px;line-height:0.95;font-family:'Coming Soon';-inkscape-font-specification:'Coming Soon, Normal';font-variant-ligatures:none;font-variant-caps:normal;font-variant-numeric:normal;font-variant-east-asian:normal;text-align:center;text-anchor:middle;white-space:pre;inline-size:30.4847;display:inline;stroke-width:0.264583"
       x="11.406203"
       y="14.268592"
       id="text26"
       transform="translate(-1.8060291,16.164227)"><tspan
         x="11.406203"
         y="14.268592"
         id="tspan19">or</tspan></text>
    <g class="Animate"
       id="g34"
       style="fill:#008000">
      <text
         xml:space="preserve"
         style="font-style:normal;font-variant:normal;font-weight:normal;font-stretch:normal;font-size:2.74084px;line-height:0.95;font-family:'Gunny Rewritten';-inkscape-font-specification:'Gunny Rewritten, Normal';font-variant-ligatures:none;font-variant-caps:normal;font-variant-numeric:normal;font-variant-east-asian:normal;text-align:center;text-anchor:middle;stroke-width:0.342605;fill:#008000"
         x="12.686109"
         y="29.182438"
         id="text27"><tspan
           sodipodi:role="line"
           id="tspan27"
           style="font-style:normal;font-variant:normal;font-weight:normal;font-stretch:normal;font-size:2.74084px;font-family:'Gunny Rewritten';-inkscape-font-specification:'Gunny Rewritten, Normal';font-variant-ligatures:none;font-variant-caps:normal;font-variant-numeric:normal;font-variant-east-asian:normal;stroke-width:0.342605;fill:#008000"
           x="12.686109"
           y="29.182438">dh</tspan></text>
      <text
         xml:space="preserve"
         style="font-style:normal;font-variant:normal;font-weight:normal;font-stretch:normal;font-size:2.74084px;line-height:0.95;font-family:'Gunny Rewritten';-inkscape-font-specification:'Gunny Rewritten, Normal';font-variant-ligatures:none;font-variant-caps:normal;font-variant-numeric:normal;font-variant-east-asian:normal;text-align:center;text-anchor:middle;stroke-width:0.342605;fill:#008000"
         x="12.603133"
         y="32.018372"
         id="text29"><tspan
           sodipodi:role="line"
           id="tspan29"
           style="font-style:normal;font-variant:normal;font-weight:normal;font-stretch:normal;font-size:2.74084px;font-family:'Gunny Rewritten';-inkscape-font-specification:'Gunny Rewritten, Normal';font-variant-ligatures:none;font-variant-caps:normal;font-variant-numeric:normal;font-variant-east-asian:normal;stroke-width:0.342605;fill:#008000"
           x="12.603133"
           y="32.018372">dy</tspan></text>
      <path
         style="fill:#008000;stroke:#000000;stroke-width:0.213656;stroke-linecap:butt;stroke-linejoin:miter;stroke-dasharray:none;stroke-opacity:1"
         d="m 11.167271,29.868587 h 3.044366"
         id="path29"
         sodipodi:nodetypes="cc" />
      <text
         xml:space="preserve"
         style="font-style:normal;font-variant:normal;font-weight:normal;font-stretch:normal;font-size:2.63176px;line-height:0.95;font-family:'Gunny Rewritten';-inkscape-font-specification:'Gunny Rewritten, Normal';font-variant-ligatures:none;font-variant-caps:normal;font-variant-numeric:normal;font-variant-east-asian:normal;text-align:center;text-anchor:middle;stroke-width:0.328969;fill:#008000"
         x="15.572535"
         y="30.397697"
         id="text30"><tspan
           sodipodi:role="line"
           id="tspan30"
           style="font-style:normal;font-variant:normal;font-weight:normal;font-stretch:normal;font-size:2.63176px;font-family:'Gunny Rewritten';-inkscape-font-specification:'Gunny Rewritten, Normal';font-variant-ligatures:none;font-variant-caps:normal;font-variant-numeric:normal;font-variant-east-asian:normal;stroke-width:0.328969;fill:#008000"
           x="15.572535"
           y="30.397697">=0</tspan></text>
    </g>
  </g>
</svg>
