<?xml version="1.0" encoding="UTF-8" standalone="no"?>
<svg
   height="206.83313pt"
   version="1.1"
   viewBox="0 0 384.86746 206.83313"
   width="384.86746pt"
   id="svg3986"
   sodipodi:docname="seepage _flownet.svg"
   inkscape:version="1.1.1 (3bf5ae0d25, 2021-09-20)"
   xmlns:inkscape="http://www.inkscape.org/namespaces/inkscape"
   xmlns:sodipodi="http://sodipodi.sourceforge.net/DTD/sodipodi-0.dtd"
   xmlns:xlink="http://www.w3.org/1999/xlink"
   xmlns="http://www.w3.org/2000/svg"
   xmlns:svg="http://www.w3.org/2000/svg"
   xmlns:rdf="http://www.w3.org/1999/02/22-rdf-syntax-ns#"
   xmlns:cc="http://creativecommons.org/ns#"
   xmlns:dc="http://purl.org/dc/elements/1.1/">
  <sodipodi:namedview
     id="namedview3988"
     pagecolor="#505050"
     bordercolor="#ffffff"
     borderopacity="1"
     inkscape:pageshadow="0"
     inkscape:pageopacity="0"
     inkscape:pagecheckerboard="1"
     inkscape:document-units="pt"
     showgrid="false"
     inkscape:snap-global="true"
     inkscape:zoom="2.59375"
     inkscape:cx="262.93976"
     inkscape:cy="153.44578"
     inkscape:window-width="2400"
     inkscape:window-height="1280"
     inkscape:window-x="2391"
     inkscape:window-y="-9"
     inkscape:window-maximized="1"
     inkscape:current-layer="path17591" />
  <metadata
     id="metadata2">
    <rdf:RDF>
      <cc:Work>
        <dc:type
           rdf:resource="http://purl.org/dc/dcmitype/StillImage" />
        <dc:date>2023-03-07T22:33:23.146990</dc:date>
        <dc:format>image/svg+xml</dc:format>
        <dc:creator>
          <cc:Agent>
            <dc:title>Matplotlib v3.4.3, https://matplotlib.org/</dc:title>
          </cc:Agent>
        </dc:creator>
      </cc:Work>
    </rdf:RDF>
  </metadata>
  <defs
     id="defs6">
    <inkscape:path-effect
       effect="bspline"
       id="path-effect24361"
       is_visible="true"
       lpeversion="1"
       weight="33.333333"
       steps="4"
       helper_size="0"
       apply_no_weight="true"
       apply_with_weight="true"
       only_selected="false" />
    <inkscape:path-effect
       effect="spiro"
       id="path-effect24359"
       is_visible="true"
       lpeversion="1" />
    <marker
       style="overflow:visible"
       id="Arrow1Send"
       refX="0"
       refY="0"
       orient="auto"
       inkscape:stockid="Arrow1Send"
       inkscape:isstock="true">
      <path
         transform="matrix(-0.2,0,0,-0.2,-1.2,0)"
         style="fill:context-stroke;fill-rule:evenodd;stroke:context-stroke;stroke-width:1pt"
         d="M 0,0 5,-5 -12.5,0 5,5 Z"
         id="path14743" />
    </marker>
    <style
       type="text/css"
       id="style4">*{stroke-linecap:butt;stroke-linejoin:round;}</style>
  </defs>
  <path
     d="M 0,206.83313 H 384.86747 V 0 H 0 Z"
     style="fill:#ffffff;stroke-width:0.999995"
     id="path8" />
  <g
     id="patch_2"
     transform="translate(-12.144578,-52.337349)">
    <path
       d="M 54,226.98 H 388.8 V 59.58 H 54 Z"
       style="fill:#ffffff"
       id="path11" />
  </g>
  <path
     clip-path="url(#p690a3871cc)"
     d="m 225.08117,59.58 v -1.881085 l -0.80352,0.40176 1.20528,-4.0176 1.20528,4.0176 -0.80352,-0.40176 V 59.58 h -0.80352"
     style="fill:#ffffff;stroke-width:1.05415"
     id="path77"
     transform="matrix(1,0,0,0.8998975,-12.144578,-52.337349)" />
  <path
     clip-path="url(#p690a3871cc)"
     d="m 233.24702,59.58 v -1.881085 l -0.80352,0.40176 1.20528,-4.0176 1.20528,4.0176 -0.80352,-0.40176 V 59.58 h -0.80352"
     style="fill:#ffffff;stroke-width:1.05415"
     id="path79"
     transform="matrix(1,0,0,0.8998975,-12.144578,-52.337349)" />
  <path
     clip-path="url(#p690a3871cc)"
     d="m 241.41287,59.58 v -1.790151 l -0.80352,0.40176 1.20528,-4.0176 1.20528,4.0176 -0.80352,-0.40176 V 59.58 h -0.80352"
     style="fill:#ffffff;stroke-width:1.05415"
     id="path81"
     transform="matrix(1,0,0,0.8998975,-12.144578,-52.337349)" />
  <path
     clip-path="url(#p690a3871cc)"
     d="m 249.57873,59.58 v -1.61718 l -0.80352,0.40176 1.20528,-4.0176 1.20528,4.0176 -0.80352,-0.40176 V 59.58 h -0.80352"
     style="fill:#ffffff;stroke-width:1.05415"
     id="path83"
     transform="matrix(1,0,0,0.8998975,-12.144578,-52.337349)" />
  <path
     clip-path="url(#p690a3871cc)"
     d="m 257.74458,59.58 v -1.377255 l -0.80352,0.40176 1.20528,-4.0176 1.20528,4.0176 -0.80352,-0.40176 V 59.58 h -0.80352"
     style="fill:#ffffff;stroke-width:1.05415"
     id="path85"
     transform="matrix(1,0,0,0.8998975,-12.144578,-52.337349)" />
  <path
     clip-path="url(#p690a3871cc)"
     d="m 265.91043,59.58 v -1.08787 l -0.80351,0.40176 1.20527,-4.0176 1.20528,4.0176 -0.80352,-0.40176 V 59.58 h -0.80352"
     style="fill:#ffffff;stroke-width:1.05415"
     id="path87"
     transform="matrix(1,0,0,0.8998975,-12.144578,-52.337349)" />
  <path
     clip-path="url(#p690a3871cc)"
     d="m 274.07629,59.58 v -0.765755 l -0.80352,0.40176 1.20528,-4.0176 1.20528,4.0176 -0.80352,-0.40176 V 59.58 h -0.80352"
     style="fill:#ffffff;stroke-width:1.05415"
     id="path89"
     transform="matrix(1,0,0,0.8998975,-12.144578,-52.337349)" />
  <path
     clip-path="url(#p690a3871cc)"
     d="m 282.24214,59.58 v -0.425014 l -0.80352,0.40176 1.20528,-4.0176 1.20528,4.0176 -0.80352,-0.40176 V 59.58 h -0.80352"
     style="fill:#ffffff;stroke-width:1.05415"
     id="path91"
     transform="matrix(1,0,0,0.8998975,-12.144578,-52.337349)" />
  <path
     clip-path="url(#p690a3871cc)"
     d="m 290.44052,59.58 v -0.369231 l -0.73846,0.369231 1.1077,-3.692307 1.10769,3.692307 -0.73846,-0.369231 V 59.58 h -0.73847"
     style="fill:#ffffff;stroke-width:1.05415"
     id="path93"
     transform="matrix(1,0,0,0.8998975,-12.144578,-52.337349)" />
  <path
     clip-path="url(#p690a3871cc)"
     d="M 298.64125,59.58 V 59.245638 L 297.97252,59.58 298.97561,56.236382 299.9787,59.58 299.30997,59.245638 V 59.58 h -0.66872"
     style="fill:#ffffff;stroke-width:1.05415"
     id="path95"
     transform="matrix(1,0,0,0.8998975,-12.144578,-52.337349)" />
  <path
     clip-path="url(#p690a3871cc)"
     d="M 306.84148,59.58 V 59.28002 L 306.24152,59.58 307.14146,56.580202 308.0414,59.58 307.44144,59.28002 V 59.58 h -0.59996"
     style="fill:#ffffff;stroke-width:1.05415"
     id="path97"
     transform="matrix(1,0,0,0.8998975,-12.144578,-52.337349)" />
  <path
     clip-path="url(#p690a3871cc)"
     d="M 315.04094,59.58 V 59.31362 L 314.50818,59.58 315.30732,56.916195 316.10646,59.58 315.5737,59.31362 V 59.58 h -0.53276"
     style="fill:#ffffff;stroke-width:1.05415"
     id="path99"
     transform="matrix(1,0,0,0.8998975,-12.144578,-52.337349)" />
  <path
     clip-path="url(#p690a3871cc)"
     d="M 323.23946,59.58 V 59.346291 L 322.77204,59.58 323.47317,57.242914 324.1743,59.58 323.70688,59.346291 V 59.58 h -0.46742"
     style="fill:#ffffff;stroke-width:1.05415"
     id="path101"
     transform="matrix(1,0,0,0.8998975,-12.144578,-52.337349)" />
  <path
     clip-path="url(#p690a3871cc)"
     d="m 331.43702,59.58 v -0.202003 l -0.40401,0.202003 0.60601,-2.020031 0.60601,2.020031 -0.404,-0.202003 V 59.58 h -0.40401"
     style="fill:#ffffff;stroke-width:1.05415"
     id="path103"
     transform="matrix(1,0,0,0.8998975,-12.144578,-52.337349)" />
  <path
     clip-path="url(#p690a3871cc)"
     d="M 339.63365,59.58 V 59.408769 L 339.29119,59.58 339.80488,57.867695 340.31857,59.58 339.97611,59.408769 V 59.58 h -0.34246"
     style="fill:#ffffff;stroke-width:1.05415"
     id="path105"
     transform="matrix(1,0,0,0.8998975,-12.144578,-52.337349)" />
  <path
     clip-path="url(#p690a3871cc)"
     d="M 347.82942,59.58 V 59.43869 L 347.5468,59.58 347.97073,58.166904 348.39466,59.58 348.11204,59.43869 V 59.58 h -0.28262"
     style="fill:#ffffff;stroke-width:1.05415"
     id="path107"
     transform="matrix(1,0,0,0.8998975,-12.144578,-52.337349)" />
  <path
     clip-path="url(#p690a3871cc)"
     d="M 356.02446,59.58 V 59.467872 L 355.8002,59.58 l 0.33639,-1.12128 0.33638,1.12128 -0.22426,-0.112128 V 59.58 h -0.22425"
     style="fill:#ffffff;stroke-width:1.05415"
     id="path109"
     transform="matrix(1,0,0,0.8998975,-12.144578,-52.337349)" />
  <path
     clip-path="url(#p690a3871cc)"
     d="M 364.21889,59.58 V 59.49645 L 364.05178,59.58 364.30244,58.744465 364.5531,59.58 364.38599,59.49645 V 59.58 h -0.1671"
     style="fill:#ffffff;stroke-width:1.05415"
     id="path111"
     transform="matrix(1,0,0,0.8998975,-12.144578,-52.337349)" />
  <g
     id="matplotlib.axis_1"
     transform="translate(-12.144578,-52.337349)">
    <g
       id="xtick_1">
      <g
         id="line2d_1">
        <defs
           id="defs3565">
          <path
             d="M 0,0 V 3.5"
             id="m0d4359b071"
             style="stroke:#000000;stroke-width:0.8" />
        </defs>
        <g
           id="g3569">
          <use
             style="stroke:#000000;stroke-width:0.8"
             x="54"
             xlink:href="#m0d4359b071"
             y="226.98"
             id="use3567"
             width="100%"
             height="100%" />
        </g>
      </g>
      <g
         id="text_1">
        <!-- 0 -->
        <g
           transform="matrix(0.1,0,0,-0.1,50.81875,241.57844)"
           id="g3577">
          <defs
             id="defs3573">
            <path
               d="m 2034,4250 q -487,0 -733,-480 -245,-479 -245,-1442 0,-959 245,-1439 246,-480 733,-480 491,0 736,480 246,480 246,1439 0,963 -246,1442 -245,480 -736,480 z m 0,500 q 785,0 1199,-621 414,-620 414,-1801 0,-1178 -414,-1799 -414,-620 -1199,-620 -784,0 -1198,620 -414,621 -414,1799 0,1181 414,1801 414,621 1198,621 z"
               id="DejaVuSans-30"
               transform="scale(0.015625)" />
          </defs>
          <use
             xlink:href="#DejaVuSans-30"
             id="use3575"
             x="0"
             y="0"
             width="100%"
             height="100%" />
        </g>
      </g>
    </g>
    <g
       id="xtick_2">
      <g
         id="line2d_2">
        <g
           id="g3583">
          <use
             style="stroke:#000000;stroke-width:0.8"
             x="109.8"
             xlink:href="#m0d4359b071"
             y="226.98"
             id="use3581"
             width="100%"
             height="100%" />
        </g>
      </g>
      <g
         id="text_2">
        <!-- 10 -->
        <g
           transform="matrix(0.1,0,0,-0.1,103.4375,241.57844)"
           id="g3593">
          <defs
             id="defs3587">
            <path
               d="M 794,531 H 1825 V 4091 L 703,3866 v 575 l 1116,225 h 631 V 531 H 3481 V 0 H 794 Z"
               id="DejaVuSans-31"
               transform="scale(0.015625)" />
          </defs>
          <use
             xlink:href="#DejaVuSans-31"
             id="use3589"
             x="0"
             y="0"
             width="100%"
             height="100%" />
          <use
             x="63.623047"
             xlink:href="#DejaVuSans-30"
             id="use3591"
             y="0"
             width="100%"
             height="100%" />
        </g>
      </g>
    </g>
    <g
       id="xtick_3">
      <g
         id="line2d_3">
        <g
           id="g3599">
          <use
             style="stroke:#000000;stroke-width:0.8"
             x="165.60001"
             xlink:href="#m0d4359b071"
             y="226.98"
             id="use3597"
             width="100%"
             height="100%" />
        </g>
      </g>
      <g
         id="text_3">
        <!-- 20 -->
        <g
           transform="matrix(0.1,0,0,-0.1,159.2375,241.57844)"
           id="g3609">
          <defs
             id="defs3603">
            <path
               d="M 1228,531 H 3431 V 0 H 469 v 531 q 359,372 979,998 621,627 780,809 303,340 423,576 121,236 121,464 0,372 -261,606 -261,235 -680,235 -297,0 -627,-103 -329,-103 -704,-313 v 638 q 381,153 712,231 332,78 607,78 725,0 1156,-363 431,-362 431,-968 0,-288 -108,-546 -107,-257 -392,-607 -78,-91 -497,-524 Q 1991,1309 1228,531 Z"
               id="DejaVuSans-32"
               transform="scale(0.015625)" />
          </defs>
          <use
             xlink:href="#DejaVuSans-32"
             id="use3605"
             x="0"
             y="0"
             width="100%"
             height="100%" />
          <use
             x="63.623047"
             xlink:href="#DejaVuSans-30"
             id="use3607"
             y="0"
             width="100%"
             height="100%" />
        </g>
      </g>
    </g>
    <g
       id="xtick_4">
      <g
         id="line2d_4">
        <g
           id="g3615">
          <use
             style="stroke:#000000;stroke-width:0.8"
             x="221.39999"
             xlink:href="#m0d4359b071"
             y="226.98"
             id="use3613"
             width="100%"
             height="100%" />
        </g>
      </g>
      <g
         id="text_4">
        <!-- 30 -->
        <g
           transform="matrix(0.1,0,0,-0.1,215.0375,241.57844)"
           id="g3625">
          <defs
             id="defs3619">
            <path
               d="m 2597,2516 q 453,-97 707,-404 255,-306 255,-756 0,-690 -475,-1069 -475,-378 -1350,-378 -293,0 -604,58 -311,58 -642,174 v 609 q 262,-153 574,-231 313,-78 654,-78 593,0 904,234 311,234 311,681 0,413 -289,645 -289,233 -804,233 h -544 v 519 h 569 q 465,0 712,186 247,186 247,536 0,359 -255,551 -254,193 -729,193 -260,0 -557,-57 -297,-56 -653,-174 v 562 q 360,100 674,150 314,50 592,50 719,0 1137,-327 419,-326 419,-882 0,-388 -222,-655 -222,-267 -631,-370 z"
               id="DejaVuSans-33"
               transform="scale(0.015625)" />
          </defs>
          <use
             xlink:href="#DejaVuSans-33"
             id="use3621"
             x="0"
             y="0"
             width="100%"
             height="100%" />
          <use
             x="63.623047"
             xlink:href="#DejaVuSans-30"
             id="use3623"
             y="0"
             width="100%"
             height="100%" />
        </g>
      </g>
    </g>
    <g
       id="xtick_5">
      <g
         id="line2d_5">
        <g
           id="g3631">
          <use
             style="stroke:#000000;stroke-width:0.8"
             x="277.20001"
             xlink:href="#m0d4359b071"
             y="226.98"
             id="use3629"
             width="100%"
             height="100%" />
        </g>
      </g>
      <g
         id="text_5">
        <!-- 40 -->
        <g
           transform="matrix(0.1,0,0,-0.1,270.8375,241.57844)"
           id="g3641">
          <defs
             id="defs3635">
            <path
               d="M 2419,4116 825,1625 h 1594 z m -166,550 h 794 V 1625 h 666 V 1100 H 3047 V 0 H 2419 V 1100 H 313 v 609 z"
               id="DejaVuSans-34"
               transform="scale(0.015625)" />
          </defs>
          <use
             xlink:href="#DejaVuSans-34"
             id="use3637"
             x="0"
             y="0"
             width="100%"
             height="100%" />
          <use
             x="63.623047"
             xlink:href="#DejaVuSans-30"
             id="use3639"
             y="0"
             width="100%"
             height="100%" />
        </g>
      </g>
    </g>
    <g
       id="xtick_6">
      <g
         id="line2d_6">
        <g
           id="g3647">
          <use
             style="stroke:#000000;stroke-width:0.8"
             x="333"
             xlink:href="#m0d4359b071"
             y="226.98"
             id="use3645"
             width="100%"
             height="100%" />
        </g>
      </g>
      <g
         id="text_6">
        <!-- 50 -->
        <g
           transform="matrix(0.1,0,0,-0.1,326.6375,241.57844)"
           id="g3657">
          <defs
             id="defs3651">
            <path
               d="M 691,4666 H 3169 V 4134 H 1269 V 2991 q 137,47 274,70 138,23 276,23 781,0 1237,-428 457,-428 457,-1159 Q 3513,744 3044,326 2575,-91 1722,-91 1428,-91 1123,-41 819,9 494,109 v 635 q 281,-153 581,-228 300,-75 634,-75 541,0 856,284 316,284 316,772 0,487 -316,771 -315,285 -856,285 -253,0 -505,-56 -251,-56 -513,-175 z"
               id="DejaVuSans-35"
               transform="scale(0.015625)" />
          </defs>
          <use
             xlink:href="#DejaVuSans-35"
             id="use3653"
             x="0"
             y="0"
             width="100%"
             height="100%" />
          <use
             x="63.623047"
             xlink:href="#DejaVuSans-30"
             id="use3655"
             y="0"
             width="100%"
             height="100%" />
        </g>
      </g>
    </g>
    <g
       id="xtick_7">
      <g
         id="line2d_7">
        <g
           id="g3663">
          <use
             style="stroke:#000000;stroke-width:0.8"
             x="388.79999"
             xlink:href="#m0d4359b071"
             y="226.98"
             id="use3661"
             width="100%"
             height="100%" />
        </g>
      </g>
      <g
         id="text_7">
        <!-- 60 -->
        <g
           transform="matrix(0.1,0,0,-0.1,382.4375,241.57844)"
           id="g3673">
          <defs
             id="defs3667">
            <path
               d="m 2113,2584 q -425,0 -674,-291 -248,-290 -248,-796 0,-503 248,-796 249,-292 674,-292 425,0 673,292 248,293 248,796 0,506 -248,796 -248,291 -673,291 z m 1253,1979 v -575 q -238,112 -480,171 -242,60 -480,60 -625,0 -955,-422 -329,-422 -376,-1275 184,272 462,417 279,145 613,145 703,0 1111,-427 408,-426 408,-1160 0,-719 -425,-1154 -425,-434 -1131,-434 -810,0 -1238,620 -428,621 -428,1799 0,1106 525,1764 525,658 1409,658 238,0 480,-47 242,-47 505,-140 z"
               id="DejaVuSans-36"
               transform="scale(0.015625)" />
          </defs>
          <use
             xlink:href="#DejaVuSans-36"
             id="use3669"
             x="0"
             y="0"
             width="100%"
             height="100%" />
          <use
             x="63.623047"
             xlink:href="#DejaVuSans-30"
             id="use3671"
             y="0"
             width="100%"
             height="100%" />
        </g>
      </g>
    </g>
    <g
       id="text_8">
      <!-- X-coordinate (m) -->
      <g
         transform="matrix(0.1,0,0,-0.1,179.39141,255.25656)"
         id="g3726">
        <defs
           id="defs3692">
          <path
             d="m 403,4666 h 678 L 2241,2931 3406,4666 h 678 L 2584,2425 4184,0 H 3506 L 2194,1984 872,0 H 191 l 1665,2491 z"
             id="DejaVuSans-58"
             transform="scale(0.015625)" />
          <path
             d="M 313,2009 H 1997 V 1497 H 313 Z"
             id="DejaVuSans-2d"
             transform="scale(0.015625)" />
          <path
             d="m 3122,3366 v -538 q -244,135 -489,202 -245,67 -495,67 -560,0 -870,-355 -309,-354 -309,-995 0,-641 309,-996 310,-354 870,-354 250,0 495,67 245,67 489,202 V 134 Q 2881,22 2623,-34 2366,-91 2075,-91 1284,-91 818,406 353,903 353,1747 q 0,856 470,1346 471,491 1290,491 265,0 518,-55 253,-54 491,-163 z"
             id="DejaVuSans-63"
             transform="scale(0.015625)" />
          <path
             d="m 1959,3097 q -462,0 -731,-361 -269,-361 -269,-989 0,-628 267,-989 268,-361 733,-361 460,0 728,362 269,363 269,988 0,622 -269,986 -268,364 -728,364 z m 0,487 q 750,0 1178,-488 429,-487 429,-1349 Q 3566,888 3137,398 2709,-91 1959,-91 1206,-91 779,398 353,888 353,1747 q 0,862 426,1349 427,488 1180,488 z"
             id="DejaVuSans-6f"
             transform="scale(0.015625)" />
          <path
             d="m 2631,2963 q -97,56 -211,82 -114,27 -251,27 -488,0 -749,-317 -261,-317 -261,-911 V 0 H 581 v 3500 h 578 v -544 q 182,319 472,473 291,155 707,155 59,0 131,-8 72,-7 159,-23 z"
             id="DejaVuSans-72"
             transform="scale(0.015625)" />
          <path
             d="m 2906,2969 v 1894 h 575 V 0 H 2906 V 525 Q 2725,213 2448,61 2172,-91 1784,-91 1150,-91 751,415 353,922 353,1747 q 0,825 398,1331 399,506 1033,506 388,0 664,-152 277,-151 458,-463 z M 947,1747 q 0,-634 261,-995 261,-361 717,-361 456,0 718,361 263,361 263,995 0,634 -263,995 -262,361 -718,361 -456,0 -717,-361 -261,-361 -261,-995 z"
             id="DejaVuSans-64"
             transform="scale(0.015625)" />
          <path
             d="m 603,3500 h 575 V 0 H 603 Z m 0,1363 h 575 V 4134 H 603 Z"
             id="DejaVuSans-69"
             transform="scale(0.015625)" />
          <path
             d="M 3513,2113 V 0 h -575 v 2094 q 0,497 -194,743 -194,247 -581,247 -466,0 -735,-297 -269,-296 -269,-809 V 0 H 581 v 3500 h 578 v -544 q 207,316 486,472 280,156 646,156 603,0 912,-373 310,-373 310,-1098 z"
             id="DejaVuSans-6e"
             transform="scale(0.015625)" />
          <path
             d="m 2194,1759 q -697,0 -966,-159 -269,-159 -269,-544 0,-306 202,-486 202,-179 548,-179 479,0 768,339 289,339 289,901 v 128 z m 1147,238 V 0 H 2766 V 531 Q 2569,213 2275,61 1981,-91 1556,-91 q -537,0 -855,302 -317,302 -317,808 0,590 395,890 396,300 1180,300 h 807 v 57 q 0,397 -261,614 -261,217 -733,217 -300,0 -585,-72 -284,-72 -546,-216 v 532 q 315,122 612,182 297,61 578,61 760,0 1135,-394 375,-393 375,-1193 z"
             id="DejaVuSans-61"
             transform="scale(0.015625)" />
          <path
             d="M 1172,4494 V 3500 H 2356 V 3053 H 1172 V 1153 q 0,-428 117,-550 117,-122 477,-122 h 590 V 0 H 1766 Q 1100,0 847,248 594,497 594,1153 V 3053 H 172 v 447 h 422 v 994 z"
             id="DejaVuSans-74"
             transform="scale(0.015625)" />
          <path
             d="M 3597,1894 V 1613 H 953 q 38,-594 358,-905 320,-311 892,-311 331,0 642,81 311,81 618,244 V 178 Q 3153,47 2828,-22 2503,-91 2169,-91 1331,-91 842,396 353,884 353,1716 q 0,859 464,1363 464,505 1252,505 706,0 1117,-455 411,-454 411,-1235 z m -575,169 q -6,471 -264,752 -258,282 -683,282 -481,0 -770,-272 -289,-272 -333,-766 z"
             id="DejaVuSans-65"
             transform="scale(0.015625)" />
          <path
             id="DejaVuSans-20"
             transform="scale(0.015625)"
             d="" />
          <path
             d="m 1984,4856 q -418,-718 -622,-1422 -203,-703 -203,-1425 0,-721 205,-1429 205,-708 620,-1424 h -500 q -468,735 -701,1444 -233,709 -233,1409 0,697 231,1403 232,707 703,1444 z"
             id="DejaVuSans-28"
             transform="scale(0.015625)" />
          <path
             d="m 3328,2828 q 216,388 516,572 300,184 706,184 547,0 844,-383 297,-382 297,-1088 V 0 h -578 v 2094 q 0,503 -179,746 -178,244 -543,244 -447,0 -707,-297 -259,-296 -259,-809 V 0 h -578 v 2094 q 0,506 -178,748 -178,242 -550,242 -441,0 -701,-298 -259,-298 -259,-808 V 0 H 581 v 3500 h 578 v -544 q 197,322 472,475 275,153 653,153 382,0 649,-194 267,-193 395,-562 z"
             id="DejaVuSans-6d"
             transform="scale(0.015625)" />
          <path
             d="m 513,4856 h 500 q 468,-737 701,-1444 233,-706 233,-1403 0,-700 -233,-1409 -233,-709 -701,-1444 H 513 q 415,716 620,1424 205,708 205,1429 0,722 -205,1425 -205,704 -620,1422 z"
             id="DejaVuSans-29"
             transform="scale(0.015625)" />
        </defs>
        <use
           xlink:href="#DejaVuSans-58"
           id="use3694"
           x="0"
           y="0"
           width="100%"
           height="100%" />
        <use
           x="63.505859"
           xlink:href="#DejaVuSans-2d"
           id="use3696"
           y="0"
           width="100%"
           height="100%" />
        <use
           x="99.589844"
           xlink:href="#DejaVuSans-63"
           id="use3698"
           y="0"
           width="100%"
           height="100%" />
        <use
           x="154.57031"
           xlink:href="#DejaVuSans-6f"
           id="use3700"
           y="0"
           width="100%"
           height="100%" />
        <use
           x="215.75195"
           xlink:href="#DejaVuSans-6f"
           id="use3702"
           y="0"
           width="100%"
           height="100%" />
        <use
           x="276.93359"
           xlink:href="#DejaVuSans-72"
           id="use3704"
           y="0"
           width="100%"
           height="100%" />
        <use
           x="316.29688"
           xlink:href="#DejaVuSans-64"
           id="use3706"
           y="0"
           width="100%"
           height="100%" />
        <use
           x="379.77344"
           xlink:href="#DejaVuSans-69"
           id="use3708"
           y="0"
           width="100%"
           height="100%" />
        <use
           x="407.55664"
           xlink:href="#DejaVuSans-6e"
           id="use3710"
           y="0"
           width="100%"
           height="100%" />
        <use
           x="470.93555"
           xlink:href="#DejaVuSans-61"
           id="use3712"
           y="0"
           width="100%"
           height="100%" />
        <use
           x="532.21484"
           xlink:href="#DejaVuSans-74"
           id="use3714"
           y="0"
           width="100%"
           height="100%" />
        <use
           x="571.42383"
           xlink:href="#DejaVuSans-65"
           id="use3716"
           y="0"
           width="100%"
           height="100%" />
        <use
           x="632.94727"
           xlink:href="#DejaVuSans-20"
           id="use3718"
           y="0"
           width="100%"
           height="100%" />
        <use
           x="664.73438"
           xlink:href="#DejaVuSans-28"
           id="use3720"
           y="0"
           width="100%"
           height="100%" />
        <use
           x="703.74805"
           xlink:href="#DejaVuSans-6d"
           id="use3722"
           y="0"
           width="100%"
           height="100%" />
        <use
           x="801.16016"
           xlink:href="#DejaVuSans-29"
           id="use3724"
           y="0"
           width="100%"
           height="100%" />
      </g>
    </g>
  </g>
  <g
     id="matplotlib.axis_2"
     transform="translate(-12.144578,-52.337349)">
    <g
       id="ytick_1">
      <g
         id="line2d_8">
        <defs
           id="defs3731">
          <path
             d="M 0,0 H -3.5"
             id="me0602ec55f"
             style="stroke:#000000;stroke-width:0.8" />
        </defs>
        <g
           id="g3735">
          <use
             style="stroke:#000000;stroke-width:0.8"
             x="54"
             xlink:href="#me0602ec55f"
             y="59.580002"
             id="use3733"
             width="100%"
             height="100%" />
        </g>
      </g>
      <g
         id="text_9">
        <!-- 0 -->
        <g
           transform="matrix(0.1,0,0,-0.1,40.6375,63.379219)"
           id="g3740">
          <use
             xlink:href="#DejaVuSans-30"
             id="use3738"
             x="0"
             y="0"
             width="100%"
             height="100%" />
        </g>
      </g>
    </g>
    <g
       id="ytick_2">
      <g
         id="line2d_9">
        <g
           id="g3746">
          <use
             style="stroke:#000000;stroke-width:0.8"
             x="54"
             xlink:href="#me0602ec55f"
             y="87.480003"
             id="use3744"
             width="100%"
             height="100%" />
        </g>
      </g>
      <g
         id="text_10">
        <!-- 5 -->
        <g
           transform="matrix(0.1,0,0,-0.1,40.6375,91.279219)"
           id="g3751">
          <use
             xlink:href="#DejaVuSans-35"
             id="use3749"
             x="0"
             y="0"
             width="100%"
             height="100%" />
        </g>
      </g>
    </g>
    <g
       id="ytick_3">
      <g
         id="line2d_10">
        <g
           id="g3757">
          <use
             style="stroke:#000000;stroke-width:0.8"
             x="54"
             xlink:href="#me0602ec55f"
             y="115.38"
             id="use3755"
             width="100%"
             height="100%" />
        </g>
      </g>
      <g
         id="text_11">
        <!-- 10 -->
        <g
           transform="matrix(0.1,0,0,-0.1,34.275,119.17922)"
           id="g3764">
          <use
             xlink:href="#DejaVuSans-31"
             id="use3760"
             x="0"
             y="0"
             width="100%"
             height="100%" />
          <use
             x="63.623047"
             xlink:href="#DejaVuSans-30"
             id="use3762"
             y="0"
             width="100%"
             height="100%" />
        </g>
      </g>
    </g>
    <g
       id="ytick_4">
      <g
         id="line2d_11">
        <g
           id="g3770">
          <use
             style="stroke:#000000;stroke-width:0.8"
             x="54"
             xlink:href="#me0602ec55f"
             y="143.28"
             id="use3768"
             width="100%"
             height="100%" />
        </g>
      </g>
      <g
         id="text_12">
        <!-- 15 -->
        <g
           transform="matrix(0.1,0,0,-0.1,34.275,147.07922)"
           id="g3777">
          <use
             xlink:href="#DejaVuSans-31"
             id="use3773"
             x="0"
             y="0"
             width="100%"
             height="100%" />
          <use
             x="63.623047"
             xlink:href="#DejaVuSans-35"
             id="use3775"
             y="0"
             width="100%"
             height="100%" />
        </g>
      </g>
    </g>
    <g
       id="ytick_5">
      <g
         id="line2d_12">
        <g
           id="g3783">
          <use
             style="stroke:#000000;stroke-width:0.8"
             x="54"
             xlink:href="#me0602ec55f"
             y="171.17999"
             id="use3781"
             width="100%"
             height="100%" />
        </g>
      </g>
      <g
         id="text_13">
        <!-- 20 -->
        <g
           transform="matrix(0.1,0,0,-0.1,34.275,174.97922)"
           id="g3790">
          <use
             xlink:href="#DejaVuSans-32"
             id="use3786"
             x="0"
             y="0"
             width="100%"
             height="100%" />
          <use
             x="63.623047"
             xlink:href="#DejaVuSans-30"
             id="use3788"
             y="0"
             width="100%"
             height="100%" />
        </g>
      </g>
    </g>
    <g
       id="ytick_6">
      <g
         id="line2d_13">
        <g
           id="g3796">
          <use
             style="stroke:#000000;stroke-width:0.8"
             x="54"
             xlink:href="#me0602ec55f"
             y="199.08"
             id="use3794"
             width="100%"
             height="100%" />
        </g>
      </g>
      <g
         id="text_14">
        <!-- 25 -->
        <g
           transform="matrix(0.1,0,0,-0.1,34.275,202.87922)"
           id="g3803">
          <use
             xlink:href="#DejaVuSans-32"
             id="use3799"
             x="0"
             y="0"
             width="100%"
             height="100%" />
          <use
             x="63.623047"
             xlink:href="#DejaVuSans-35"
             id="use3801"
             y="0"
             width="100%"
             height="100%" />
        </g>
      </g>
    </g>
    <g
       id="ytick_7">
      <g
         id="line2d_14">
        <g
           id="g3809">
          <use
             style="stroke:#000000;stroke-width:0.8"
             x="54"
             xlink:href="#me0602ec55f"
             y="226.98"
             id="use3807"
             width="100%"
             height="100%" />
        </g>
      </g>
      <g
         id="text_15">
        <!-- 30 -->
        <g
           transform="matrix(0.1,0,0,-0.1,34.275,230.77922)"
           id="g3816">
          <use
             xlink:href="#DejaVuSans-33"
             id="use3812"
             x="0"
             y="0"
             width="100%"
             height="100%" />
          <use
             x="63.623047"
             xlink:href="#DejaVuSans-30"
             id="use3814"
             y="0"
             width="100%"
             height="100%" />
        </g>
      </g>
    </g>
    <g
       id="text_16">
      <!-- Z-coordinate (m) -->
      <g
         transform="matrix(0,-0.1,-0.1,0,28.195312,185.45109)"
         id="g3855">
        <defs
           id="defs3821">
          <path
             d="M 359,4666 H 4025 V 4184 L 1075,531 H 4097 V 0 H 288 V 481 L 3238,4134 H 359 Z"
             id="DejaVuSans-5a"
             transform="scale(0.015625)" />
        </defs>
        <use
           xlink:href="#DejaVuSans-5a"
           id="use3823"
           x="0"
           y="0"
           width="100%"
           height="100%" />
        <use
           x="66.755859"
           xlink:href="#DejaVuSans-2d"
           id="use3825"
           y="0"
           width="100%"
           height="100%" />
        <use
           x="102.83984"
           xlink:href="#DejaVuSans-63"
           id="use3827"
           y="0"
           width="100%"
           height="100%" />
        <use
           x="157.82031"
           xlink:href="#DejaVuSans-6f"
           id="use3829"
           y="0"
           width="100%"
           height="100%" />
        <use
           x="219.00195"
           xlink:href="#DejaVuSans-6f"
           id="use3831"
           y="0"
           width="100%"
           height="100%" />
        <use
           x="280.18359"
           xlink:href="#DejaVuSans-72"
           id="use3833"
           y="0"
           width="100%"
           height="100%" />
        <use
           x="319.54688"
           xlink:href="#DejaVuSans-64"
           id="use3835"
           y="0"
           width="100%"
           height="100%" />
        <use
           x="383.02344"
           xlink:href="#DejaVuSans-69"
           id="use3837"
           y="0"
           width="100%"
           height="100%" />
        <use
           x="410.80664"
           xlink:href="#DejaVuSans-6e"
           id="use3839"
           y="0"
           width="100%"
           height="100%" />
        <use
           x="474.18555"
           xlink:href="#DejaVuSans-61"
           id="use3841"
           y="0"
           width="100%"
           height="100%" />
        <use
           x="535.46484"
           xlink:href="#DejaVuSans-74"
           id="use3843"
           y="0"
           width="100%"
           height="100%" />
        <use
           x="574.67383"
           xlink:href="#DejaVuSans-65"
           id="use3845"
           y="0"
           width="100%"
           height="100%" />
        <use
           x="636.19727"
           xlink:href="#DejaVuSans-20"
           id="use3847"
           y="0"
           width="100%"
           height="100%" />
        <use
           x="667.98438"
           xlink:href="#DejaVuSans-28"
           id="use3849"
           y="0"
           width="100%"
           height="100%" />
        <use
           x="706.99805"
           xlink:href="#DejaVuSans-6d"
           id="use3851"
           y="0"
           width="100%"
           height="100%" />
        <use
           x="804.41016"
           xlink:href="#DejaVuSans-29"
           id="use3853"
           y="0"
           width="100%"
           height="100%" />
      </g>
    </g>
  </g>
  <g
     id="LineCollection_2"
     transform="translate(-12.144578,-52.337349)"
     style="stroke:#ff0000">
    <path
       clip-path="url(#p690a3871cc)"
       d="m 224.31638,59.58 0.0845,4.082927 0.0899,4.082927 0.0963,4.082926 0.009,0.37258"
       style="fill:none;stroke:#ff0000;stroke-width:1.5"
       id="path3864" />
    <path
       clip-path="url(#p690a3871cc)"
       d="m 225.05144,87.787205 0.0125,0.373283 0.15264,4.082927 0.17266,4.082926 0.0937,1.979926 h 8.16585 l 8.16585,0.836935 6.32426,1.266068 1.8416,0.38494 8.16585,2.44118 3.32508,1.2568 4.84077,2.02517 4.25474,2.05776 3.91112,2.13615 3.28842,1.94678 4.87743,3.30198 1.10578,0.78095 5.16722,4.08292 1.89286,1.70808 2.60918,2.37485 3.9468,4.08293 1.60987,1.87767 1.90732,2.20525 3.15154,4.08293 2.7599,4.08293 0.34709,0.56425 2.21072,3.51867 2.28132,4.08293 2.02446,4.08293 1.64936,3.72957 0.16021,0.35335 1.6921,4.08293 1.50812,4.08293 1.34414,4.08292 1.19695,4.08293 1.06388,4.08293 0.94264,4.08292 0.25781,1.25502 0.59852,2.82791 0.7591,4.08293 0.65804,4.08292 0.56331,4.08293 0.47385,4.08293 0.3887,4.08293 0.307,4.08292 0.22799,4.08293 0.15092,4.08293 0.0752,4.08292 V 226.98"
       style="fill:none;stroke:#ff0000;stroke-width:1.5"
       id="path3866" />
  </g>
  <g
     id="LineCollection_3"
     transform="translate(-12.144578,-52.337349)"
     style="stroke:#ff0000">
    <path
       clip-path="url(#p690a3871cc)"
       d="m 223.14983,59.58 0.0507,4.082927 0.0539,4.082927 0.0578,4.082926 0.0623,4.082927 0.0677,4.082927 0.0741,4.082927 0.082,4.082927 0.0916,4.082927 0.10359,4.082926 0.11888,4.082929 0.13887,4.08292 0.16578,4.08293 0.20349,4.08293 0.25915,4.08293 0.34722,4.08292 0.45608,3.75904 h 8.16585 l 0.86087,0.32389 7.30498,3.58474 0.79055,0.49819 5.10787,4.08292 2.26744,2.44879 1.65704,1.63414 3.42936,4.08293 2.81344,4.08292 0.26601,0.44533 2.42022,3.6376 2.33556,4.08293 2.03365,4.08292 1.37642,3.12834 0.45751,0.95459 1.7367,4.08293 1.53339,4.08292 0.19565,0.58796"
       style="fill:none;stroke:#ff0000;stroke-width:1.5"
       id="path3869" />
    <path
       clip-path="url(#p690a3871cc)"
       d="m 274.5009,185.64126 0.12503,0.50947 0.87691,4.08293 0.75919,4.08292 0.64963,4.08293 0.54652,4.08293 0.44852,4.08293 0.35446,4.08292 0.26338,4.08293 0.17444,4.08293 0.0869,4.08292 V 226.98"
       style="fill:none;stroke:#ff0000;stroke-width:1.5"
       id="path3871" />
  </g>
  <g
     id="LineCollection_4"
     transform="translate(-12.144578,-52.337349)"
     style="stroke:#ff0000">
    <path
       clip-path="url(#p690a3871cc)"
       d="m 221.98327,59.58 0.0169,4.082927 0.018,4.082927 0.0192,4.082926 0.0207,4.082927 0.0225,4.082927 0.0247,4.082927 0.0273,4.082927 0.0305,4.082927 0.0345,4.082926 0.0396,4.082929 0.0463,4.08292 0.0552,4.08293 0.0678,4.08293 0.0864,4.08293 0.11569,4.08292 0.16687,4.08293 1.02562,4.08293 1.3535,4.08292 0.32831,1.13423 1.89407,2.9487 1.67457,4.08293 1.30797,4.08292 1.11603,4.08293 0.98845,4.08293 0.88867,4.08292 0.29609,1.5622 0.54959,2.52073 0.76637,4.08293 0.67696,4.08292 0.60154,4.08293 0.53559,4.08293 0.47638,4.08292 0.42216,4.08293 0.0353,0.38764"
       style="fill:none;stroke:#ff0000;stroke-width:1.5"
       id="path3874" />
    <path
       clip-path="url(#p690a3871cc)"
       d="m 238.8669,202.10217 0.022,0.38027 0.19464,4.08293 0.15432,4.08292 0.11494,4.08293 0.0762,4.08293 0.038,4.08292 V 226.98"
       style="fill:none;stroke:#ff0000;stroke-width:1.5"
       id="path3876" />
  </g>
  <g
     id="LineCollection_5"
     transform="translate(-12.144578,-52.337349)"
     style="stroke:#ff0000">
    <path
       clip-path="url(#p690a3871cc)"
       d="m 220.81672,59.58 -0.0169,4.082927 -0.018,4.082927 -0.0193,4.082926 -0.0208,4.082927 -0.0226,4.082927 -0.0247,4.082927 -0.0274,4.082927 -0.0306,4.082927 -0.0346,4.082926 -0.0397,4.082929 -0.0463,4.08292 -0.0553,4.08293 -0.0679,4.08293 -0.0865,4.08293 -0.11583,4.08292 -0.16707,4.08293 -1.02661,4.08293 -1.35489,4.08292 -0.32477,1.12184 -1.90229,2.96109 -1.67551,4.08293 -1.30916,4.08292 -1.11733,4.08293 -0.98981,4.08293 -0.89001,4.08292 -0.28174,1.48571 -0.56656,2.59722 -0.76744,4.08293 -0.67801,4.08292 -0.60255,4.08293 -0.53656,4.08293 -0.47729,4.08292 -0.423,4.08293 -0.0354,0.38771"
       style="fill:none;stroke:#ff0000;stroke-width:1.5"
       id="path3879" />
    <path
       clip-path="url(#p690a3871cc)"
       d="m 203.90772,202.10212 -0.0221,0.38032 -0.19509,4.08293 -0.15468,4.08292 -0.11521,4.08293 -0.0764,4.08293 -0.0381,4.08292 V 226.98"
       style="fill:none;stroke:#ff0000;stroke-width:1.5"
       id="path3881" />
  </g>
  <g
     id="LineCollection_6"
     transform="translate(-12.144578,-52.337349)"
     style="stroke:#ff0000">
    <path
       clip-path="url(#p690a3871cc)"
       d="m 219.65017,59.58 -0.0507,4.082927 -0.054,4.082927 -0.0578,4.082926 -0.0623,4.082927 -0.0677,4.082927 -0.0742,4.082927 -0.082,4.082927 -0.0916,4.082927 -0.10364,4.082926 -0.11895,4.082929 -0.13894,4.08292 -0.16586,4.08293 -0.20359,4.08293 -0.25926,4.08293 -0.34736,4.08292 -0.45512,3.75065 h -8.16585 l -0.88324,0.33228 -7.28261,3.57332 -0.80876,0.50961 -5.10602,4.08292 -2.25108,2.43071 -1.67562,1.65222 -3.42891,4.08293 -2.81332,4.08292 -0.248,0.41508 -2.44082,3.66785 -2.33565,4.08293 -2.03385,4.08292 -1.35554,3.08007 -0.48074,1.00286 -1.73689,4.08293 -1.53364,4.08292 -0.19572,0.58806"
       style="fill:none;stroke:#ff0000;stroke-width:1.5"
       id="path3884" />
    <path
       clip-path="url(#p690a3871cc)"
       d="m 168.27287,185.64098 -0.12514,0.50975 -0.8771,4.08293 -0.75938,4.08292 -0.6498,4.08293 -0.54668,4.08293 -0.44865,4.08293 -0.35457,4.08292 -0.26347,4.08293 -0.1745,4.08293 -0.0869,4.08292 V 226.98"
       style="fill:none;stroke:#ff0000;stroke-width:1.5"
       id="path3886" />
  </g>
  <g
     id="LineCollection_7"
     transform="translate(-12.144578,-52.337349)"
     style="stroke:#ff0000">
    <path
       clip-path="url(#p690a3871cc)"
       d="m 218.48362,59.58 -0.0845,4.082927 -0.09,4.082927 -0.0963,4.082926 -0.10388,4.082927 -0.11285,4.082927 -0.12361,4.082927 -0.13666,4.082927 -0.15269,4.082927 -0.17271,4.082926 -0.0933,1.971187 h -8.16585 l -8.16585,0.83643 -6.37134,1.275312 -1.79452,0.37504 -8.16585,2.43976 -3.35549,1.26812 -4.81037,2.01214 -4.28228,2.07079 -3.88357,2.12078 -3.31485,1.96215 -4.851,3.28358 -1.13199,0.79935 -5.16596,4.08292 -1.86791,1.68531 -2.63454,2.39762 -3.94586,4.08293 -1.58545,1.84892 -1.93242,2.234 -3.15078,4.08293 -2.75925,4.08293 -0.3234,0.52566 -2.23522,3.55726 -2.28077,4.08293 -2.02399,4.08293 -1.62588,3.67597 -0.18453,0.40695 -1.69167,4.08293 -1.50775,4.08293 -1.34382,4.08292 -1.19668,4.08293 -1.06364,4.08293 -0.94245,4.08292 -0.0945,0.45981"
       style="fill:none;stroke:#ff0000;stroke-width:1.5"
       id="path3889" />
    <path
       clip-path="url(#p690a3871cc)"
       d="m 116.78338,197.97669 -0.0583,0.42282 -0.47373,4.08293 -0.38861,4.08293 -0.30694,4.08292 -0.22793,4.08293 -0.15089,4.08293 -0.0751,4.08292 V 226.98"
       style="fill:none;stroke:#ff0000;stroke-width:1.5"
       id="path3891" />
  </g>
  <g
     id="LineCollection_8"
     style="fill:#ffffff;stroke-width:1.05415"
     transform="matrix(1,0,0,0.8998975,-12.144578,-52.337349)" />
  <g
     id="patch_3"
     transform="translate(-12.144578,-52.337349)">
    <path
       d="M 54,226.98 V 59.58"
       style="fill:none;stroke:#000000;stroke-width:0.8;stroke-linecap:square;stroke-linejoin:miter"
       id="path3895" />
  </g>
  <g
     id="patch_4"
     transform="translate(-12.144578,-52.337349)">
    <path
       d="M 388.8,226.98 V 59.58"
       style="fill:none;stroke:#000000;stroke-width:0.8;stroke-linecap:square;stroke-linejoin:miter"
       id="path3898" />
  </g>
  <g
     id="patch_5"
     transform="translate(-12.144578,-52.337349)">
    <path
       d="M 54,226.98 H 388.8"
       style="fill:none;stroke:#000000;stroke-width:0.8;stroke-linecap:square;stroke-linejoin:miter"
       id="path3901" />
  </g>
  <g
     id="patch_6"
     transform="translate(-12.144578,-52.337349)">
    <path
       d="M 54,59.58 H 388.8"
       style="fill:none;stroke:#000000;stroke-width:0.8;stroke-linecap:square;stroke-linejoin:miter"
       id="path3904" />
  </g>
  <g
     id="text_17"
     transform="translate(-12.144578,-52.337349)">
    <g
       clip-path="url(#p690a3871cc)"
       id="g3913">
      <!-- 33 -->
      <g
         transform="matrix(0.08,0,0,-0.08,261.22219,61.7875)"
         id="g3911">
        <use
           xlink:href="#DejaVuSans-33"
           id="use3907"
           x="0"
           y="0"
           width="100%"
           height="100%" />
        <use
           x="63.623047"
           xlink:href="#DejaVuSans-33"
           id="use3909"
           y="0"
           width="100%"
           height="100%" />
      </g>
    </g>
  </g>
  <g
     id="text_18"
     transform="translate(-4.9372004,-33.577721)">
    <g
       clip-path="url(#p690a3871cc)"
       id="g3922">
      <!-- 34 -->
      <g
         transform="matrix(0.00178233,-0.07998014,-0.07998014,-0.00178233,226.89731,85.132552)"
         id="g3920">
        <use
           xlink:href="#DejaVuSans-33"
           id="use3916"
           x="0"
           y="0"
           width="100%"
           height="100%" />
        <use
           x="63.623047"
           xlink:href="#DejaVuSans-34"
           id="use3918"
           y="0"
           width="100%"
           height="100%" />
      </g>
    </g>
  </g>
  <g
     id="text_19"
     transform="translate(-12.144578,-52.337349)">
    <g
       clip-path="url(#p690a3871cc)"
       id="g3931">
      <!-- 35 -->
      <g
         transform="matrix(0.01676999,-0.07822255,-0.07822255,-0.01676999,273.6954,183.42453)"
         id="g3929">
        <use
           xlink:href="#DejaVuSans-33"
           id="use3925"
           x="0"
           y="0"
           width="100%"
           height="100%" />
        <use
           x="63.623047"
           xlink:href="#DejaVuSans-35"
           id="use3927"
           y="0"
           width="100%"
           height="100%" />
      </g>
    </g>
  </g>
  <g
     id="text_20"
     transform="translate(-12.144578,-52.337349)">
    <g
       clip-path="url(#p690a3871cc)"
       id="g3940">
      <!-- 36 -->
      <g
         transform="matrix(0.00454515,-0.07987078,-0.07987078,-0.00454515,240.28817,199.52378)"
         id="g3938">
        <use
           xlink:href="#DejaVuSans-33"
           id="use3934"
           x="0"
           y="0"
           width="100%"
           height="100%" />
        <use
           x="63.623047"
           xlink:href="#DejaVuSans-36"
           id="use3936"
           y="0"
           width="100%"
           height="100%" />
      </g>
    </g>
  </g>
  <g
     id="text_21"
     transform="translate(-12.144578,-52.337349)">
    <g
       clip-path="url(#p690a3871cc)"
       id="g3952">
      <!-- 37 -->
      <g
         transform="matrix(0.00455498,0.07987022,0.07987022,-0.00455498,201.90857,189.36053)"
         id="g3950">
        <defs
           id="defs3944">
          <path
             d="M 525,4666 H 3525 V 4397 L 1831,0 H 1172 L 2766,4134 H 525 Z"
             id="DejaVuSans-37"
             transform="scale(0.015625)" />
        </defs>
        <use
           xlink:href="#DejaVuSans-33"
           id="use3946"
           x="0"
           y="0"
           width="100%"
           height="100%" />
        <use
           x="63.623047"
           xlink:href="#DejaVuSans-37"
           id="use3948"
           y="0"
           width="100%"
           height="100%" />
      </g>
    </g>
  </g>
  <g
     id="text_22"
     transform="translate(-12.144578,-52.337349)">
    <g
       clip-path="url(#p690a3871cc)"
       id="g3964">
      <!-- 38 -->
      <g
         transform="matrix(0.0167742,0.07822165,0.07822165,-0.0167742,166.94613,173.47089)"
         id="g3962">
        <defs
           id="defs3956">
          <path
             d="m 2034,2216 q -450,0 -708,-241 -257,-241 -257,-662 0,-422 257,-663 258,-241 708,-241 450,0 709,242 260,243 260,662 0,421 -258,662 -257,241 -711,241 z m -631,268 q -406,100 -633,378 -226,279 -226,679 0,559 398,884 399,325 1092,325 697,0 1094,-325 397,-325 397,-884 0,-400 -227,-679 -226,-278 -629,-378 456,-106 710,-416 255,-309 255,-755 Q 3634,634 3220,271 2806,-91 2034,-91 1263,-91 848,271 434,634 434,1313 q 0,446 256,755 257,310 713,416 z m -231,997 q 0,-362 226,-565 227,-203 636,-203 407,0 636,203 230,203 230,565 0,363 -230,566 -229,203 -636,203 -409,0 -636,-203 -226,-203 -226,-566 z"
             id="DejaVuSans-38"
             transform="scale(0.015625)" />
        </defs>
        <use
           xlink:href="#DejaVuSans-33"
           id="use3958"
           x="0"
           y="0"
           width="100%"
           height="100%" />
        <use
           x="63.623047"
           xlink:href="#DejaVuSans-38"
           id="use3960"
           y="0"
           width="100%"
           height="100%" />
      </g>
    </g>
  </g>
  <g
     id="text_23"
     transform="translate(-12.144578,-52.337349)">
    <g
       clip-path="url(#p690a3871cc)"
       id="g3976">
      <!-- 39 -->
      <g
         transform="matrix(0.0105909,0.07929586,0.07929586,-0.0105909,115.0842,185.4807)"
         id="g3974">
        <defs
           id="defs3968">
          <path
             d="m 703,97 v 575 q 238,-113 481,-172 244,-59 479,-59 625,0 954,420 330,420 377,1277 -181,-269 -460,-413 -278,-144 -615,-144 -700,0 -1108,423 -408,424 -408,1159 0,718 425,1152 425,435 1131,435 810,0 1236,-621 427,-620 427,-1801 Q 3622,1225 3098,567 2575,-91 1691,-91 1453,-91 1209,-44 966,3 703,97 Z m 1256,1978 q 425,0 673,290 249,291 249,798 0,503 -249,795 -248,292 -673,292 -425,0 -673,-292 -248,-292 -248,-795 0,-507 248,-798 248,-290 673,-290 z"
             id="DejaVuSans-39"
             transform="scale(0.015625)" />
        </defs>
        <use
           xlink:href="#DejaVuSans-33"
           id="use3970"
           x="0"
           y="0"
           width="100%"
           height="100%" />
        <use
           x="63.623047"
           xlink:href="#DejaVuSans-39"
           id="use3972"
           y="0"
           width="100%"
           height="100%" />
      </g>
    </g>
  </g>
  <defs
     id="defs3984">
    <clipPath
       id="p690a3871cc">
      <rect
         height="167.39999"
         width="334.79999"
         x="54"
         y="59.580002"
         id="rect3981" />
    </clipPath>
  </defs>
  <rect
     style="fill:#cccccc;stroke:#0000ff;stroke-width:1.75;stroke-linecap:round;stroke-linejoin:round;stroke-miterlimit:4;stroke-dasharray:none;paint-order:fill markers stroke"
     id="rect10745"
     width="6.7670302"
     height="74.143974"
     x="206.23494"
     y="7.2426567" />
  <g
     id="path13199">
    <path
       style="color:#000000;fill:#0000ff;-inkscape-stroke:none"
       d="m 164.2207,7.1191406 -1.5,0.03125 c 0.19888,9.6129484 0.15238,16.0082144 1.95117,22.2421874 0.001,0.0049 0.003,0.0088 0.004,0.01367 7.5e-4,0.0026 0.001,0.0052 0.002,0.0078 3.69617,14.317854 9.28547,24.305659 14.73047,36.41211 l 0.0137,0.03125 0.0156,0.02734 c 3.47632,6.20428 7.4763,12.790681 12.25195,19.144531 l 0.0254,0.03516 0.0312,0.03125 c 5.78782,6.082192 11.40945,9.2332 17.86524,9.339844 8.92014,0.436495 13.69125,-5.088088 17.23242,-9.38086 l 0.0117,-0.01367 0.0117,-0.01563 c 4.98339,-6.693611 8.99134,-12.465117 13,-20.048829 l 0.004,-0.0078 0.004,-0.0059 c 4.50323,-9.003087 8.83294,-20.573678 13.11133,-31.435547 l 0.0391,-0.0957 0.01,-0.103516 c 0.87908,-8.64047 1.89291,-17.030121 2.60351,-26.0410156 l -1.49414,-0.1171875 c -0.70478,8.9370581 -1.71328,17.2834981 -2.5918,25.9062501 -4.2724,10.849985 -8.58767,22.354454 -13.01953,31.214844 -3.9545,7.47864 -7.89743,13.159152 -12.85156,19.814453 -3.52846,4.277292 -7.71459,9.241887 -16.00586,8.832031 h -0.0137 -0.0117 c -5.98279,-0.09413 -11.1602,-2.944302 -16.78711,-8.847656 -4.70182,-6.260468 -8.65869,-12.765878 -12.10742,-18.919922 -5.47218,-12.161154 -10.99035,-22.030305 -14.63281,-36.152344 l -0.002,-0.0098 -0.004,-0.01172 C 164.39066,23.02694 164.42018,16.760711 164.2207,7.1191406 Z"
       id="path27366" />
    <g
       id="g27308">
      <g
         id="path27358">
        <path
           style="color:#000000;fill:#0000ff;fill-rule:evenodd;stroke-width:0.3pt;stroke-linejoin:round;-inkscape-stroke:none"
           d="m 251.86424,35.00214 1.10352,1.811698 -0.21829,-5.455717 -2.69693,4.747536 z"
           id="path27362" />
        <path
           style="color:#000000;fill:#0000ff;fill-rule:evenodd;stroke-linejoin:round;-inkscape-stroke:none"
           d="m 252.79687,31.164062 a 0.20002,0.20002 0 0 0 -0.2207,0.0957 l -2.69726,4.748046 a 0.20002,0.20002 0 0 0 0.27734,0.269532 l 1.64258,-1 0.99804,1.640625 a 0.20002,0.20002 0 0 0 0.3711,-0.111328 l -0.21875,-5.457032 a 0.20002,0.20002 0 0 0 -0.15235,-0.185547 z m -0.2207,0.904297 0.16016,3.980469 -0.70117,-1.150391 a 0.20002,0.20002 0 0 0 -0.27539,-0.06641 l -1.15235,0.703125 z"
           id="path27364" />
      </g>
      <g
         id="path27350">
        <path
           style="color:#000000;fill:#0000ff;fill-rule:evenodd;stroke-width:0.3pt;stroke-linejoin:round;-inkscape-stroke:none"
           d="m 238.38156,66.227216 0.64788,2.019964 1.06723,-5.354766 -3.73508,3.982679 z"
           id="path27354" />
        <path
           style="color:#000000;fill:#0000ff;fill-rule:evenodd;stroke-linejoin:round;-inkscape-stroke:none"
           d="m 240.10547,62.693359 a 0.20002,0.20002 0 0 0 -0.1543,0.0625 l -3.73633,3.982422 a 0.20002,0.20002 0 0 0 0.20703,0.328125 l 1.83008,-0.58789 0.58789,1.830078 a 0.20002,0.20002 0 0 0 0.38477,-0.02148 l 1.06836,-5.355468 a 0.20002,0.20002 0 0 0 -0.1875,-0.238282 z m -0.3418,0.845703 -0.7793,3.91211 -0.4121,-1.285156 a 0.20002,0.20002 0 0 0 -0.25196,-0.128907 l -1.28515,0.41211 z"
           id="path27356" />
      </g>
      <g
         id="path27342">
        <path
           style="color:#000000;fill:#0000ff;fill-rule:evenodd;stroke-width:0.3pt;stroke-linejoin:round;-inkscape-stroke:none"
           d="m 225.15455,85.994926 0.25508,2.105928 2.05848,-5.057188 -4.41949,3.206339 z"
           id="path27346" />
        <path
           style="color:#000000;fill:#0000ff;fill-rule:evenodd;stroke-linejoin:round;-inkscape-stroke:none"
           d="m 227.51367,82.849609 a 0.20002,0.20002 0 0 0 -0.16211,0.03125 l -4.41992,3.207032 a 0.20002,0.20002 0 0 0 0.14063,0.361328 l 1.90625,-0.232422 0.23242,1.908203 a 0.20002,0.20002 0 0 0 0.38476,0.05078 l 2.0586,-5.05664 a 0.20002,0.20002 0 0 0 -0.14063,-0.269532 z m -0.49414,0.765625 -1.50391,3.697266 -0.1621,-1.341797 a 0.20002,0.20002 0 0 0 -0.22266,-0.173828 l -1.33984,0.162109 z"
           id="path27348" />
      </g>
      <g
         id="path27334">
        <path
           style="color:#000000;fill:#0000ff;fill-rule:evenodd;stroke-width:0.3pt;stroke-linejoin:round;-inkscape-stroke:none"
           d="m 207.8395,93.62815 -1.54803,1.450371 5.29605,-1.328286 -5.19839,-1.670124 z"
           id="path27338" />
        <path
           style="color:#000000;fill:#0000ff;fill-rule:evenodd;stroke-linejoin:round;-inkscape-stroke:none"
           d="m 206.45117,91.890625 a 0.20002,0.20002 0 0 0 -0.20703,0.326172 l 1.3125,1.402344 -1.40234,1.3125 a 0.20002,0.20002 0 0 0 0.18554,0.341796 l 5.29688,-1.330078 a 0.20002,0.20002 0 0 0 0.0117,-0.382812 z m 0.61328,0.617187 3.79492,1.21875 -3.86914,0.970704 0.98633,-0.923829 a 0.20002,0.20002 0 0 0 0.01,-0.28125 z"
           id="path27340" />
      </g>
      <g
         id="path27326">
        <path
           style="color:#000000;fill:#0000ff;fill-rule:evenodd;stroke-width:0.3pt;stroke-linejoin:round;-inkscape-stroke:none"
           d="m 191.12603,83.204588 -2.11405,-0.175506 4.53722,3.037449 -2.24767,-4.97599 z"
           id="path27330" />
        <path
           style="color:#000000;fill:#0000ff;fill-rule:evenodd;stroke-linejoin:round;-inkscape-stroke:none"
           d="m 191.26758,80.892578 a 0.20002,0.20002 0 0 0 -0.16602,0.181641 l -0.16015,1.914062 -1.91211,-0.158203 a 0.20002,0.20002 0 0 0 -0.12891,0.365234 l 4.53711,3.03711 a 0.20002,0.20002 0 0 0 0.29492,-0.248047 l -2.24805,-4.976563 a 0.20002,0.20002 0 0 0 -0.21679,-0.115234 z m 0.16992,0.984375 1.64258,3.634766 -3.31641,-2.21875 1.3457,0.111328 a 0.20002,0.20002 0 0 0 0.2168,-0.183594 z"
           id="path27332" />
      </g>
      <g
         id="path27318">
        <path
           style="color:#000000;fill:#0000ff;fill-rule:evenodd;stroke-width:0.3pt;stroke-linejoin:round;-inkscape-stroke:none"
           d="m 179.28208,63.911268 -2.01449,-0.664696 3.70174,4.013681 -1.02255,-5.363477 z"
           id="path27322" />
        <path
           style="color:#000000;fill:#0000ff;fill-rule:evenodd;stroke-linejoin:round;-inkscape-stroke:none"
           d="m 179.95898,61.697266 a 0.20002,0.20002 0 0 0 -0.20117,0.136718 l -0.60351,1.824219 -1.82422,-0.601562 a 0.20002,0.20002 0 0 0 -0.20899,0.326171 l 3.70118,4.013672 a 0.20002,0.20002 0 0 0 0.34375,-0.173828 l -1.02344,-5.363281 a 0.20002,0.20002 0 0 0 -0.1836,-0.162109 z m -0.0644,0.996093 0.74805,3.917969 -2.70703,-2.933594 1.2832,0.423828 a 0.20002,0.20002 0 0 0 0.25391,-0.126953 z"
           id="path27324" />
      </g>
      <g
         id="path27310">
        <path
           style="color:#000000;fill:#0000ff;fill-rule:evenodd;stroke-width:0.3pt;stroke-linejoin:round;-inkscape-stroke:none"
           d="m 164.92269,27.468595 -1.8426,-1.051106 2.83197,4.668239 0.0617,-5.459733 z"
           id="path27314" />
        <path
           style="color:#000000;fill:#0000ff;fill-rule:evenodd;stroke-linejoin:round;-inkscape-stroke:none"
           d="m 165.93945,25.429687 a 0.20002,0.20002 0 0 0 -0.13867,0.09766 l -0.95312,1.667968 -1.66797,-0.951171 a 0.20002,0.20002 0 0 0 -0.27149,0.277343 l 2.83203,4.667969 a 0.20002,0.20002 0 0 0 0.3711,-0.101562 l 0.0625,-5.458985 a 0.20002,0.20002 0 0 0 -0.23438,-0.199219 z m -0.17383,0.966797 -0.0449,3.986328 -2.06836,-3.408203 1.17188,0.667969 a 0.20002,0.20002 0 0 0 0.27148,-0.07422 z"
           id="path27316" />
      </g>
    </g>
  </g>
  <g
     id="path17591">
    <path
       style="color:#000000;fill:#0000ff;-inkscape-stroke:none"
       d="m 315.2168,7.7578125 -1.5,0.023437 c 0,0 0.0967,6.206299 -0.71875,14.21875 -0.81541,8.012451 -2.56183,17.820444 -6.15235,24.892578 -7.20198,14.185553 -27.389,31.61412 -39.45898,41.048828 -11.97051,9.356952 -30.07832,17.273404 -30.0918,17.279294 0,1e-5 -0.008,0.004 -0.008,0.004 -9.17836,3.70415 -18.39673,6.57182 -27.76953,7.30078 l -0.0977,0.008 c -0.10464,-0.007 -0.28917,-0.0277 -0.5293,-0.0586 -0.48025,-0.0618 -1.18984,-0.16815 -2.07617,-0.31641 -1.77266,-0.29652 -4.25347,-0.75863 -7.07422,-1.35547 -5.6415,-1.19367 -12.65564,-2.93441 -18.11718,-4.97851 -10.96226,-4.10287 -21.3696,-10.484527 -29.59961,-18.246095 -3.81833,-3.600988 -12.58761,-10.434438 -21.32422,-18.041016 -8.71823,-7.590571 -17.37465,-15.972836 -20.83789,-22.3125 -4.06049,-11.678981 -9.08548,-27.519156 -9.947268,-39.3046871 l -1.496093,0.109375 C 99.304903,20.158734 104.38901,36.066883 108.46484,47.785156 l 0.0215,0.05859 0.0293,0.05273 c 3.68212,6.774095 12.4236,15.130953 21.19921,22.771485 8.77561,7.640531 17.60836,14.539964 21.2793,18.001953 8.39045,7.91287 18.95533,14.386138 30.10352,18.558598 5.59367,2.09356 12.6483,3.84035 18.33203,5.04296 2.84186,0.60131 5.33911,1.06454 7.13672,1.36524 0.8988,0.15035 1.621,0.2603 2.13281,0.32617 0.25591,0.0329 0.45781,0.0552 0.61719,0.0664 0.0797,0.006 0.14376,0.009 0.22851,0.006 0.0424,-0.001 0.0872,-0.002 0.17774,-0.0215 0.004,-7.8e-4 0.0119,-0.005 0.0156,-0.006 9.57032,-0.76014 18.9056,-3.67608 28.13086,-7.40039 l 0.01,-0.004 0.01,-0.004 c 0,0 18.19336,-7.91598 30.42188,-17.47461 12.13349,-9.484355 32.38744,-26.810509 39.87304,-41.554688 3.75328,-7.392731 5.48211,-17.315821 6.30664,-25.417968 0.82454,-8.102148 0.72657,-14.3945315 0.72657,-14.3945315 z"
       id="path27304" />
    <g
       id="g27246">
      <g
         id="path27296">
        <path
           style="color:#000000;fill:#0000ff;fill-rule:evenodd;stroke-width:0.3pt;stroke-linejoin:round;-inkscape-stroke:none"
           d="m 306.69992,48.836321 0.65845,2.016542 1.03916,-5.360284 -3.71416,4.002194 z"
           id="path27300" />
        <path
           style="color:#000000;fill:#0000ff;fill-rule:evenodd;stroke-linejoin:round;-inkscape-stroke:none"
           d="m 308.40625,45.292969 a 0.20002,0.20002 0 0 0 -0.15625,0.06445 l -3.71289,4.001953 a 0.20002,0.20002 0 0 0 0.20898,0.326172 l 1.82618,-0.595703 0.5957,1.824218 a 0.20002,0.20002 0 0 0 0.38672,-0.02344 l 1.03906,-5.359375 a 0.20002,0.20002 0 0 0 -0.1875,-0.238281 z m -0.33789,0.849609 -0.75977,3.914063 -0.41797,-1.283204 a 0.20002,0.20002 0 0 0 -0.25195,-0.126953 l -1.2832,0.417969 z"
           id="path27302" />
      </g>
      <g
         id="path27288">
        <path
           style="color:#000000;fill:#0000ff;fill-rule:evenodd;stroke-width:0.3pt;stroke-linejoin:round;-inkscape-stroke:none"
           d="m 266.43048,89.641707 -0.25802,2.105569 3.21252,-4.415 -5.06007,2.051406 z"
           id="path27292" />
        <path
           style="color:#000000;fill:#0000ff;fill-rule:evenodd;stroke-linejoin:round;-inkscape-stroke:none"
           d="M 269.31055,87.146484 264.25,89.199219 a 0.20002,0.20002 0 0 0 0.0508,0.382812 l 1.9082,0.234375 -0.23437,1.90625 a 0.20002,0.20002 0 0 0 0.35937,0.142578 l 3.21289,-4.416015 a 0.20002,0.20002 0 0 0 -0.23632,-0.302735 z m -0.5,0.634766 -2.34571,3.222656 0.16407,-1.33789 a 0.20002,0.20002 0 0 0 -0.17383,-0.222657 l -1.3418,-0.164062 z"
           id="path27294" />
      </g>
      <g
         id="path27280">
        <path
           style="color:#000000;fill:#0000ff;fill-rule:evenodd;stroke-width:0.3pt;stroke-linejoin:round;-inkscape-stroke:none"
           d="m 235.92821,106.60945 -0.8024,1.96371 4.26004,-3.41534 -5.42134,0.64923 z"
           id="path27284" />
        <path
           style="color:#000000;fill:#0000ff;fill-rule:evenodd;stroke-linejoin:round;-inkscape-stroke:none"
           d="m 239.36133,104.95898 -5.41992,0.6504 a 0.20002,0.20002 0 0 0 -0.0527,0.38281 l 1.77735,0.72656 -0.72461,1.7793 a 0.20002,0.20002 0 0 0 0.30859,0.23047 l 4.26172,-3.41407 a 0.20002,0.20002 0 0 0 -0.15039,-0.35547 z m -0.64453,0.48047 -3.11524,2.4961 0.51172,-1.25 a 0.20002,0.20002 0 0 0 -0.10937,-0.26172 l -1.24805,-0.50977 z"
           id="path27286" />
      </g>
      <g
         id="path27272">
        <path
           style="color:#000000;fill:#0000ff;fill-rule:evenodd;stroke-width:0.3pt;stroke-linejoin:round;-inkscape-stroke:none"
           d="m 208.15794,114.38174 -0.25829,2.10554 3.21307,-4.4146 -5.06032,2.05078 z"
           id="path27276" />
        <path
           style="color:#000000;fill:#0000ff;fill-rule:evenodd;stroke-linejoin:round;-inkscape-stroke:none"
           d="m 211.03711,111.88672 -5.06055,2.05078 a 0.20002,0.20002 0 0 0 0.0508,0.38477 l 1.90821,0.23437 -0.23438,1.90625 a 0.20002,0.20002 0 0 0 0.35938,0.14258 l 3.21484,-4.41602 a 0.20002,0.20002 0 0 0 -0.23828,-0.30273 z m -0.49805,0.63281 -2.34765,3.22656 0.16601,-1.33984 a 0.20002,0.20002 0 0 0 -0.17578,-0.22266 l -1.3418,-0.16406 z"
           id="path27278" />
      </g>
      <g
         id="path27264">
        <path
           style="color:#000000;fill:#0000ff;fill-rule:evenodd;stroke-width:0.3pt;stroke-linejoin:round;-inkscape-stroke:none"
           d="m 179.67431,105.89511 -1.93061,0.87904 5.44269,0.43544 -4.39112,-3.2451 z"
           id="path27268" />
        <path
           style="color:#000000;fill:#0000ff;fill-rule:evenodd;stroke-linejoin:round;-inkscape-stroke:none"
           d="m 178.91406,103.80273 a 0.20002,0.20002 0 0 0 -0.30078,0.24415 l 0.79492,1.75 -1.74804,0.79492 a 0.20002,0.20002 0 0 0 0.0684,0.38086 l 5.4414,0.43554 a 0.20002,0.20002 0 0 0 0.13477,-0.35937 z m 0.38281,0.78125 3.20704,2.36915 -3.97266,-0.31641 1.22656,-0.56055 a 0.20002,0.20002 0 0 0 0.0977,-0.26367 z"
           id="path27270" />
      </g>
      <g
         id="path27256">
        <path
           style="color:#000000;fill:#0000ff;fill-rule:evenodd;stroke-width:0.3pt;stroke-linejoin:round;-inkscape-stroke:none"
           d="m 150.19877,86.889272 -2.12042,0.06211 4.84857,2.510757 -2.79027,-4.693282 z"
           id="path27260" />
        <path
           style="color:#000000;fill:#0000ff;fill-rule:evenodd;stroke-linejoin:round;-inkscape-stroke:none"
           d="m 150.08008,84.576172 a 0.20002,0.20002 0 0 0 -0.14258,0.199219 l 0.0547,1.919921 -1.91992,0.05664 a 0.20002,0.20002 0 0 0 -0.0859,0.376953 l 4.84765,2.511719 a 0.20002,0.20002 0 0 0 0.26563,-0.28125 l -2.79102,-4.693359 a 0.20002,0.20002 0 0 0 -0.22851,-0.08984 z m 0.27929,0.957031 2.03907,3.429688 -3.54297,-1.833985 1.34961,-0.03906 a 0.20002,0.20002 0 0 0 0.19336,-0.207032 z"
           id="path27262" />
      </g>
      <g
         id="path27248">
        <path
           style="color:#000000;fill:#0000ff;fill-rule:evenodd;stroke-width:0.3pt;stroke-linejoin:round;-inkscape-stroke:none"
           d="m 108.44593,45.893009 -1.97846,-0.765303 3.49491,4.195009 -0.75114,-5.408168 z"
           id="path27252" />
        <path
           style="color:#000000;fill:#0000ff;fill-rule:evenodd;stroke-linejoin:round;-inkscape-stroke:none"
           d="m 109.23438,43.716797 a 0.20002,0.20002 0 0 0 -0.20899,0.125 l -0.69336,1.792969 -1.79297,-0.69336 a 0.20002,0.20002 0 0 0 -0.22461,0.314453 l 3.49414,4.195313 a 0.20002,0.20002 0 0 0 0.35157,-0.15625 l -0.75,-5.408203 a 0.20002,0.20002 0 0 0 -0.17578,-0.169922 z m -0.11524,0.990234 0.54883,3.951172 -2.55274,-3.064453 1.25782,0.486328 a 0.20002,0.20002 0 0 0 0.25976,-0.115234 z"
           id="path27254" />
      </g>
    </g>
    <text
       xml:space="preserve"
       style="font-size:9.99998px;line-height:1;font-family:'Times New Roman';-inkscape-font-specification:'Times New Roman, ';text-align:center;text-anchor:middle;stroke-width:0.75;fill:#0000ff"
       x="93.235878"
       y="66.451004"
       id="text10041"><tspan
         sodipodi:role="line"
         id="tspan10039"
         style="stroke-width:0.75;fill:#0000ff"
         x="93.235878"
         y="66.451004">Flowlines</tspan></text>
    <path
       style="fill:none;stroke:#000000;stroke-width:0.75px;stroke-linecap:butt;stroke-linejoin:miter;stroke-opacity:1"
       d="m 114.29572,64.815282 h 9.40537"
       id="path10486" />
    <path
       style="fill:none;stroke:#000000;stroke-width:0.75px;stroke-linecap:butt;stroke-linejoin:miter;stroke-opacity:1"
       d="M 94.667115,68.086715 V 123.0877"
       id="path10488" />
    <text
       xml:space="preserve"
       style="font-size:9.99998px;line-height:1;font-family:'Times New Roman';-inkscape-font-specification:'Times New Roman, ';text-align:center;text-anchor:middle;stroke-width:0.75;fill:#ff0000"
       x="333.97589"
       y="80.385551"
       id="text11712"><tspan
         sodipodi:role="line"
         id="tspan11710"
         style="stroke-width:0.75;fill:#ff0000"
         x="335.22589"
         y="80.385551">Equipotential </tspan></text>
    <path
       style="fill:none;stroke:#000000;stroke-width:0.75px;stroke-linecap:butt;stroke-linejoin:miter;stroke-opacity:1"
       d="m 306.07229,80.096385 -9.75903,9.759038"
       id="path13581" />
    <path
       style="fill:none;stroke:#000000;stroke-width:0.75px;stroke-linecap:butt;stroke-linejoin:miter;stroke-opacity:1"
       d="m 361.59036,77.349398 h 14.16868"
       id="path13583" />
  </g>
  <g
     id="path22208">
    <path
       style="color:#000000;fill:#0000ff;-inkscape-stroke:none"
       d="m 376.09766,110.07813 c -8.65484,1.36296 -17.34387,2.73323 -31.94727,6.17187 -14.6034,3.43864 -35.10732,8.94077 -52.51953,12.89258 -17.41221,3.9518 -31.74756,6.35786 -44.95899,8.13867 -13.21142,1.78081 -25.27781,2.934 -36.87304,3.07812 -11.59523,0.14413 -22.73292,-0.72097 -35.59961,-2.47656 -12.86669,-1.75558 -27.45757,-4.40259 -43.30664,-7.50976 -15.84908,-3.10718 -32.963563,-6.6754 -47.958986,-8.94532 -14.995428,-2.26991 -27.839822,-3.23528 -40.660157,-4.19921 l -0.113281,1.49609 c 12.820335,0.96394 25.616486,1.92518 40.548828,4.18555 14.932347,2.26036 32.032806,5.82394 47.894536,8.93359 15.86172,3.10965 30.47623,5.76303 43.39257,7.52539 12.91635,1.76236 24.14059,2.63348 35.82227,2.48828 11.68167,-0.1452 23.80839,-1.30434 37.05469,-3.08984 13.24629,-1.78551 27.63243,-4.20005 45.08984,-8.16211 17.45741,-3.96207 37.97054,-9.4679 52.53125,-12.89649 14.56071,-3.42858 23.18305,-4.78547 31.83789,-6.14843 z"
       id="path27242" />
    <g
       id="g27184">
      <g
         id="path27234">
        <path
           style="color:#000000;fill:#0000ff;fill-rule:evenodd;stroke-width:0.3pt;stroke-linejoin:round;-inkscape-stroke:none"
           d="m 342.57022,117.39206 -1.11627,1.80387 4.76644,-2.66337 -5.45404,-0.25677 z"
           id="path27238" />
        <path
           style="color:#000000;fill:#0000ff;fill-rule:evenodd;stroke-linejoin:round;-inkscape-stroke:none"
           d="m 340.77539,116.07617 a 0.20002,0.20002 0 0 0 -0.11523,0.36914 l 1.63476,1.01172 -1.01172,1.63281 a 0.20002,0.20002 0 0 0 0.26758,0.28125 l 4.76758,-2.66406 a 0.20002,0.20002 0 0 0 -0.0879,-0.375 z m 0.75,0.43555 3.98633,0.1875 -3.48242,1.94531 0.71093,-1.14648 a 0.20002,0.20002 0 0 0 -0.0645,-0.27539 z"
           id="path27240" />
      </g>
      <g
         id="path27226">
        <path
           style="color:#000000;fill:#0000ff;fill-rule:evenodd;stroke-width:0.3pt;stroke-linejoin:round;-inkscape-stroke:none"
           d="m 290.04172,130.27264 -1.13081,1.79479 4.7878,-2.62477 -5.45178,-0.30083 z"
           id="path27230" />
        <path
           style="color:#000000;fill:#0000ff;fill-rule:evenodd;stroke-linejoin:round;-inkscape-stroke:none"
           d="m 288.25781,128.94141 a 0.20002,0.20002 0 0 0 -0.11719,0.36914 l 1.62696,1.02539 -1.02539,1.625 a 0.20002,0.20002 0 0 0 0.26562,0.28125 l 4.78711,-2.625 a 0.20002,0.20002 0 0 0 -0.0859,-0.375 z m 0.75,0.44336 3.98242,0.21875 -3.5,1.91796 0.72071,-1.14257 a 0.20002,0.20002 0 0 0 -0.0625,-0.27539 z"
           id="path27232" />
      </g>
      <g
         id="path27218">
        <path
           style="color:#000000;fill:#0000ff;fill-rule:evenodd;stroke-width:0.3pt;stroke-linejoin:round;-inkscape-stroke:none"
           d="m 244.98807,138.26444 -1.28618,1.68693 5.00257,-2.18788 -5.40332,-0.78523 z"
           id="path27222" />
        <path
           style="color:#000000;fill:#0000ff;fill-rule:evenodd;stroke-linejoin:round;-inkscape-stroke:none"
           d="m 243.33008,136.78125 a 0.20002,0.20002 0 0 0 -0.15039,0.35547 l 1.52734,1.16406 -1.16406,1.5293 a 0.20002,0.20002 0 0 0 0.23828,0.30469 l 5.00391,-2.1875 a 0.20002,0.20002 0 0 0 -0.0527,-0.38086 z m 0.70508,0.50586 3.94921,0.57422 -3.65625,1.59765 0.81836,-1.07421 a 0.20002,0.20002 0 0 0 -0.0371,-0.2793 z"
           id="path27224" />
      </g>
      <g
         id="path27210">
        <path
           style="color:#000000;fill:#0000ff;fill-rule:evenodd;stroke-width:0.3pt;stroke-linejoin:round;-inkscape-stroke:none"
           d="m 208.00835,141.1308 -1.48124,1.51853 5.23095,-1.56514 -5.26823,-1.43463 z"
           id="path27214" />
        <path
           style="color:#000000;fill:#0000ff;fill-rule:evenodd;stroke-linejoin:round;-inkscape-stroke:none"
           d="m 206.54297,139.45703 a 0.20002,0.20002 0 0 0 -0.19336,0.33594 l 1.375,1.33984 -1.33984,1.37696 a 0.20002,0.20002 0 0 0 0.19921,0.33203 l 5.23047,-1.56641 a 0.20002,0.20002 0 0 0 -0.004,-0.38477 z m 0.63867,0.58789 3.84766,1.04883 -3.82032,1.14258 0.94336,-0.9668 a 0.20002,0.20002 0 0 0 -0.004,-0.28125 z"
           id="path27216" />
      </g>
      <g
         id="path27202">
        <path
           style="color:#000000;fill:#0000ff;fill-rule:evenodd;stroke-width:0.3pt;stroke-linejoin:round;-inkscape-stroke:none"
           d="m 172.31402,138.38331 -1.68902,1.28344 5.40459,-0.77648 -4.99901,-2.19598 z"
           id="path27206" />
        <path
           style="color:#000000;fill:#0000ff;fill-rule:evenodd;stroke-linejoin:round;-inkscape-stroke:none"
           d="m 171.11133,136.51172 a 0.20002,0.20002 0 0 0 -0.24024,0.30273 l 1.16211,1.53125 -1.52929,1.16211 a 0.20002,0.20002 0 0 0 0.15039,0.35742 l 5.40429,-0.77734 a 0.20002,0.20002 0 0 0 0.0508,-0.38086 z m 0.54492,0.67578 3.65039,1.60352 -3.94531,0.56835 1.07422,-0.8164 a 0.20002,0.20002 0 0 0 0.0371,-0.28125 z"
           id="path27208" />
      </g>
      <g
         id="path27194">
        <path
           style="color:#000000;fill:#0000ff;fill-rule:evenodd;stroke-width:0.3pt;stroke-linejoin:round;-inkscape-stroke:none"
           d="m 128.98177,130.76237 -1.76056,1.1834 5.4405,-0.46196 -4.86335,-2.482 z"
           id="path27198" />
        <path
           style="color:#000000;fill:#0000ff;fill-rule:evenodd;stroke-linejoin:round;-inkscape-stroke:none"
           d="m 127.88867,128.82422 a 0.20002,0.20002 0 0 0 -0.25586,0.28906 l 1.07227,1.59375 -1.5957,1.07227 a 0.20002,0.20002 0 0 0 0.1289,0.36523 l 5.43945,-0.46094 a 0.20002,0.20002 0 0 0 0.0742,-0.37695 z m 0.50781,0.70703 3.55079,1.8125 -3.97461,0.33789 1.12109,-0.75391 a 0.20002,0.20002 0 0 0 0.0547,-0.27734 z"
           id="path27200" />
      </g>
      <g
         id="path27186">
        <path
           style="color:#000000;fill:#0000ff;fill-rule:evenodd;stroke-width:0.3pt;stroke-linejoin:round;-inkscape-stroke:none"
           d="m 81.040668,121.89943 -1.707608,1.2586 5.415368,-0.69734 -4.966361,-2.26887 z"
           id="path27190" />
        <path
           style="color:#000000;fill:#0000ff;fill-rule:evenodd;stroke-linejoin:round;-inkscape-stroke:none"
           d="m 79.865234,120.00977 a 0.20002,0.20002 0 0 0 -0.24414,0.30078 l 1.138672,1.54687 -1.544922,1.13867 a 0.20002,0.20002 0 0 0 0.144531,0.35938 l 5.414062,-0.69727 a 0.20002,0.20002 0 0 0 0.05859,-0.3789 z m 0.535157,0.68359 3.626953,1.6582 -3.953125,0.50782 1.085937,-0.79883 a 0.20002,0.20002 0 0 0 0.04102,-0.2793 z"
           id="path27192" />
      </g>
    </g>
  </g>
  <g
     id="path24432">
    <path
       style="color:#000000;fill:#0000ff;-inkscape-stroke:none"
       d="m 41.855469,173.89258 v 1.5 l 55.058593,0.0566 67.066408,0.0703 69.92773,0.0723 58.88477,0.0605 84.0625,0.0879 0.002,-1.5 -84.06445,-0.0879 -58.88477,-0.0605 -69.92578,-0.0723 -67.066404,-0.0703 z"
       id="path27180" />
    <g
       id="g27146">
      <g
         id="path27172">
        <path
           style="color:#000000;fill:#0000ff;fill-rule:evenodd;stroke-width:0.3pt;stroke-linejoin:round;-inkscape-stroke:none"
           d="m 290.99302,174.90138 -1.50156,1.49844 5.25156,-1.49454 -5.24844,-1.50546 z"
           id="path27176" />
        <path
           style="color:#000000;fill:#0000ff;fill-rule:evenodd;stroke-linejoin:round;-inkscape-stroke:none"
           d="m 289.54883,173.20703 a 0.20002,0.20002 0 0 0 -0.19531,0.33399 l 1.35742,1.35937 -1.36133,1.35742 a 0.20002,0.20002 0 0 0 0.19726,0.33399 l 5.25,-1.49414 a 0.20002,0.20002 0 0 0 0.002,-0.38477 z m 0.63281,0.59766 3.83203,1.09961 -3.83398,1.09179 0.95508,-0.95312 a 0.20002,0.20002 0 0 0 0,-0.2832 z"
           id="path27178" />
      </g>
      <g
         id="path27164">
        <path
           style="color:#000000;fill:#0000ff;fill-rule:evenodd;stroke-width:0.3pt;stroke-linejoin:round;-inkscape-stroke:none"
           d="m 232.10813,174.84018 -1.50156,1.49844 5.25156,-1.49454 -5.24844,-1.50546 z"
           id="path27168" />
        <path
           style="color:#000000;fill:#0000ff;fill-rule:evenodd;stroke-linejoin:round;-inkscape-stroke:none"
           d="m 230.66406,173.14648 a 0.20002,0.20002 0 0 0 -0.19531,0.33399 l 1.35742,1.35937 -1.36133,1.35743 a 0.20002,0.20002 0 0 0 0.19727,0.33398 l 5.25,-1.49414 a 0.20002,0.20002 0 0 0 0.002,-0.38477 z m 0.63281,0.59766 3.83204,1.09961 -3.83399,1.0918 0.95508,-0.95313 a 0.20002,0.20002 0 0 0 0,-0.2832 z"
           id="path27170" />
      </g>
      <g
         id="path27156">
        <path
           style="color:#000000;fill:#0000ff;fill-rule:evenodd;stroke-width:0.3pt;stroke-linejoin:round;-inkscape-stroke:none"
           d="m 162.18173,174.76758 -1.50156,1.49844 5.25156,-1.49455 -5.24844,-1.50544 z"
           id="path27160" />
        <path
           style="color:#000000;fill:#0000ff;fill-rule:evenodd;stroke-linejoin:round;-inkscape-stroke:none"
           d="m 160.73828,173.07422 a 0.20002,0.20002 0 0 0 -0.19726,0.33398 l 1.35937,1.35938 -1.36133,1.35742 a 0.20002,0.20002 0 0 0 0.19531,0.33398 l 5.25196,-1.49609 a 0.20002,0.20002 0 0 0 0,-0.38281 z m 0.63086,0.59765 3.83789,1.09961 -3.83984,1.0918 0.95508,-0.95508 a 0.20002,0.20002 0 0 0 0.002,-0.28125 z"
           id="path27162" />
      </g>
      <g
         id="path27148">
        <path
           style="color:#000000;fill:#0000ff;fill-rule:evenodd;stroke-width:0.3pt;stroke-linejoin:round;-inkscape-stroke:none"
           d="m 95.115712,174.69798 -1.501557,1.49844 5.251555,-1.49455 -5.24844,-1.50545 z"
           id="path27152" />
        <path
           style="color:#000000;fill:#0000ff;fill-rule:evenodd;stroke-linejoin:round;-inkscape-stroke:none"
           d="m 93.671875,173.00391 a 0.20002,0.20002 0 0 0 -0.195313,0.33398 l 1.357422,1.35938 -1.361328,1.35742 a 0.20002,0.20002 0 0 0 0.195313,0.33398 l 5.251953,-1.49414 a 0.20002,0.20002 0 0 0 0,-0.38476 z m 0.632812,0.59765 3.832032,1.09961 -3.833985,1.0918 0.955078,-0.95313 a 0.20002,0.20002 0 0 0 0,-0.2832 z"
           id="path27154" />
      </g>
    </g>
  </g>
  <path
     style="fill:none;stroke:#ff0000;stroke-width:1.5;stroke-linecap:butt;stroke-linejoin:miter;stroke-opacity:1;stroke-miterlimit:4;stroke-dasharray:none"
     d="M 206.33904,7.242651 H 41.855422 V 174.64265"
     id="path3751" />
  <path
     style="fill:none;stroke:#ff0000;stroke-width:1.5;stroke-linecap:butt;stroke-linejoin:miter;stroke-opacity:1;stroke-miterlimit:4;stroke-dasharray:none"
     d="m 213.00196,7.2426567 163.65345,-3.9e-6 0.20206,166.9975272"
     id="path3899" />
  <text
     xml:space="preserve"
     style="font-size:9.99998px;line-height:1;font-family:'Times New Roman';-inkscape-font-specification:'Times New Roman, ';text-align:center;text-anchor:middle;stroke-width:0.75"
     x="60.930458"
     y="17.583956"
     id="text4690"><tspan
       sodipodi:role="line"
       id="tspan4688"
       style="stroke-width:0.75"
       x="60.930458"
       y="17.583956">40</tspan></text>
  <text
     xml:space="preserve"
     style="font-size:9.99998px;line-height:1;font-family:'Times New Roman';-inkscape-font-specification:'Times New Roman, ';text-align:center;text-anchor:middle;stroke-width:0.75"
     x="293.61118"
     y="12.676806"
     id="text6718"><tspan
       sodipodi:role="line"
       id="tspan6716"
       style="stroke-width:0.75"
       x="293.61118"
       y="12.676806">33</tspan></text>
</svg>
