<?xml version="1.0" encoding="UTF-8" standalone="no"?>
<!-- Created with Inkscape (http://www.inkscape.org/) -->

<svg
   width="228.75768mm"
   height="97.688126mm"
   viewBox="0 0 228.75768 97.688126"
   version="1.1"
   id="svg987"
   sodipodi:docname="consol_curves.svg"
   inkscape:version="1.1.1 (3bf5ae0d25, 2021-09-20)"
   xmlns:inkscape="http://www.inkscape.org/namespaces/inkscape"
   xmlns:sodipodi="http://sodipodi.sourceforge.net/DTD/sodipodi-0.dtd"
   xmlns="http://www.w3.org/2000/svg"
   xmlns:svg="http://www.w3.org/2000/svg"
   xmlns:ns1="http://www.iki.fi/pav/software/textext/">
  <sodipodi:namedview
     id="namedview989"
     pagecolor="#505050"
     bordercolor="#ffffff"
     borderopacity="1"
     inkscape:pageshadow="0"
     inkscape:pageopacity="0"
     inkscape:pagecheckerboard="1"
     inkscape:document-units="mm"
     showgrid="false"
     inkscape:zoom="1.0230034"
     inkscape:cx="360.70263"
     inkscape:cy="110.94783"
     inkscape:window-width="1920"
     inkscape:window-height="1015"
     inkscape:window-x="-9"
     inkscape:window-y="-9"
     inkscape:window-maximized="1"
     inkscape:current-layer="layer1" />
  <defs
     id="defs984">
    <marker
       style="overflow:visible"
       id="Arrow1Mend"
       refX="0"
       refY="0"
       orient="auto"
       inkscape:stockid="Arrow1Mend"
       inkscape:isstock="true">
      <path
         transform="matrix(-0.4,0,0,-0.4,-4,0)"
         style="fill:context-stroke;fill-rule:evenodd;stroke:context-stroke;stroke-width:1pt"
         d="m 0,0 5,-5 -17.5,5 17.5,5 z"
         id="path3179" />
    </marker>
    <marker
       style="overflow:visible"
       id="Arrow1Send"
       refX="0"
       refY="0"
       orient="auto"
       inkscape:stockid="Arrow1Send"
       inkscape:isstock="true">
      <path
         transform="matrix(-0.2,0,0,-0.2,-1.2,0)"
         style="fill:context-stroke;fill-rule:evenodd;stroke:context-stroke;stroke-width:1pt"
         d="m 0,0 5,-5 -17.5,5 17.5,5 z"
         id="path3185" />
    </marker>
  </defs>
  <g
     inkscape:label="Layer 1"
     inkscape:groupmode="layer"
     id="layer1"
     transform="translate(-16.973999,-22.609567)">
    <path
       style="fill:none;stroke:#000000;stroke-width:1;stroke-linecap:butt;stroke-linejoin:miter;stroke-miterlimit:4;stroke-dasharray:none;stroke-opacity:1"
       d="m 23.77463,109.3633 v -80.102217"
       id="path1088" />
    <path
       style="fill:none;stroke:#000000;stroke-width:1;stroke-linecap:butt;stroke-linejoin:miter;stroke-miterlimit:4;stroke-dasharray:none;stroke-opacity:1"
       d="m 23.77463,109.3633 h 88.14901"
       id="path1090" />
    <path
       sodipodi:type="star"
       style="fill:#000000;stroke:none;stroke-width:4.50924;stroke-linecap:round;stroke-linejoin:round;stroke-miterlimit:4;stroke-dasharray:none"
       id="path1212"
       inkscape:flatsided="true"
       sodipodi:sides="3"
       sodipodi:cx="22.80982"
       sodipodi:cy="55.987743"
       sodipodi:r1="11.080886"
       sodipodi:r2="5.5404434"
       sodipodi:arg1="-1.5707963"
       sodipodi:arg2="-0.52359878"
       inkscape:rounded="0"
       inkscape:randomized="0"
       d="m 22.80982,44.906857 9.596329,16.62133 -19.192658,-1e-6 z"
       transform="matrix(0.18587905,0,0,0.26458333,19.534762,15.262809)"
       inkscape:transform-center-y="-0.73295464" />
    <path
       sodipodi:type="star"
       style="fill:#000000;stroke:none;stroke-width:4.50924;stroke-linecap:round;stroke-linejoin:round;stroke-miterlimit:4;stroke-dasharray:none"
       id="path1294"
       inkscape:flatsided="true"
       sodipodi:sides="3"
       sodipodi:cx="22.80982"
       sodipodi:cy="55.987743"
       sodipodi:r1="11.080886"
       sodipodi:r2="5.5404434"
       sodipodi:arg1="-1.5707963"
       sodipodi:arg2="-0.52359878"
       inkscape:rounded="0"
       inkscape:randomized="0"
       d="m 22.80982,44.906857 9.596329,16.62133 -19.192658,-1e-6 z"
       transform="matrix(0,0.18587905,-0.26458333,0,125.39276,105.12343)"
       inkscape:transform-center-x="-0.73295513" />
    <path
       style="fill:none;stroke:#000080;stroke-width:1.5;stroke-linecap:round;stroke-linejoin:miter;stroke-miterlimit:4;stroke-dasharray:none;stroke-opacity:1;marker-mid:url(#Arrow1Send)"
       d="m 26.334975,35.661946 c 4.023398,0.18288 5.120291,5.81552 9.509851,13.53325 4.360755,7.667085 6.262794,23.624795 25.420569,30.724138 14.310595,5.303112 19.202585,11.887314 19.202585,11.887314 0,0 -14.996306,1.097293 -29.809729,-0.365763 -14.813425,-1.463053 -21.945814,-11.338668 -21.945814,-11.338668"
       id="path1404"
       sodipodi:nodetypes="csscsc" />
    <g
       transform="matrix(0.887883,0,0,0.887883,16.973977,38.145494)"
       ns1:version="1.6.0"
       ns1:texconverter="pdflatex"
       ns1:pdfconverter="inkscape"
       ns1:text="$e$"
       ns1:preamble="C:\Users\$r.984804\OneDrive - University of Maine System\UMaine_docs\Faculty_Service\Brochure4+1\preamble_triptico.tex"
       ns1:scale="2.5168309531773527"
       ns1:alignment="middle center"
       ns1:stroke-to-path="0"
       ns1:jacobian_sqrt="0.887883"
       id="g1612"
       style="fill:#ffffff">
      <defs
         id="id-c429cdad-ee69-4695-8c99-1a9f8f629c48">
        <g
           id="id-e0a4dff7-c9d5-4f4b-852d-5cbb595c037f">
          <symbol
             overflow="visible"
             id="id-607ff65f-cf1d-4df2-ac1c-ebaa44707c33">
            <path
               style="stroke:none;stroke-width:0"
               d=""
               id="id-f0368bc6-4dd0-4ff0-ac7c-5ea9ec85b66a" />
          </symbol>
          <symbol
             overflow="visible"
             id="id-07faf4d6-548c-473c-9855-dfdd3661cd7e">
            <path
               style="stroke:none;stroke-width:0"
               d="m 1.859375,-2.296875 c 0.296875,0 1.03125,-0.03125 1.53125,-0.234375 0.703125,-0.296875 0.75,-0.890625 0.75,-1.03125 0,-0.4375 -0.375,-0.84375 -1.0625,-0.84375 -1.109375,0 -2.625,0.96875 -2.625,2.71875 0,1.015625 0.59375,1.796875 1.578125,1.796875 1.421875,0 2.25,-1.0625 2.25,-1.171875 0,-0.0625 -0.046875,-0.140625 -0.109375,-0.140625 -0.0625,0 -0.078125,0.03125 -0.140625,0.109375 -0.78125,0.984375 -1.875,0.984375 -1.984375,0.984375 -0.78125,0 -0.875,-0.84375 -0.875,-1.15625 0,-0.125 0.015625,-0.421875 0.15625,-1.03125 z m -0.46875,-0.21875 c 0.390625,-1.515625 1.421875,-1.671875 1.6875,-1.671875 0.453125,0 0.734375,0.296875 0.734375,0.625 0,1.046875 -1.59375,1.046875 -2.015625,1.046875 z m 0,0"
               id="id-1414532c-19ef-4d74-8859-25ed6ad83739" />
          </symbol>
        </g>
      </defs>
      <g
         id="id-2ec5d1fa-9717-4c71-8926-1b25cb28642f"
         transform="translate(-70.6731,-102.069)"
         style="fill:#ffffff">
        <g
           style="fill:#ffffff;fill-opacity:1"
           id="id-e57f888f-9185-4188-90fd-d64211881fdd">
          <g
             transform="translate(70.22,106.475)"
             id="g1608"
             style="fill:#ffffff">
            <path
               style="fill:#000000;stroke:none;stroke-width:0"
               d="m 1.859375,-2.296875 c 0.296875,0 1.03125,-0.03125 1.53125,-0.234375 0.703125,-0.296875 0.75,-0.890625 0.75,-1.03125 0,-0.4375 -0.375,-0.84375 -1.0625,-0.84375 -1.109375,0 -2.625,0.96875 -2.625,2.71875 0,1.015625 0.59375,1.796875 1.578125,1.796875 1.421875,0 2.25,-1.0625 2.25,-1.171875 0,-0.0625 -0.046875,-0.140625 -0.109375,-0.140625 -0.0625,0 -0.078125,0.03125 -0.140625,0.109375 -0.78125,0.984375 -1.875,0.984375 -1.984375,0.984375 -0.78125,0 -0.875,-0.84375 -0.875,-1.15625 0,-0.125 0.015625,-0.421875 0.15625,-1.03125 z m -0.46875,-0.21875 c 0.390625,-1.515625 1.421875,-1.671875 1.6875,-1.671875 0.453125,0 0.734375,0.296875 0.734375,0.625 0,1.046875 -1.59375,1.046875 -2.015625,1.046875 z m 0,0"
               id="id-abcd5608-bb82-44db-8442-63e84e24c8bf" />
          </g>
        </g>
      </g>
    </g>
    <g
       transform="matrix(0.887883,0,0,0.887883,28.5662,111.413)"
       ns1:version="1.6.0"
       ns1:texconverter="pdflatex"
       ns1:pdfconverter="inkscape"
       ns1:text="$\\sigma'$ (arithmetic scale)"
       ns1:preamble="C:\Users\$r.984804\OneDrive - University of Maine System\UMaine_docs\Faculty_Service\Brochure4+1\preamble_triptico.tex"
       ns1:scale="2.5168309531773527"
       ns1:alignment="middle center"
       ns1:stroke-to-path="0"
       ns1:jacobian_sqrt="0.887883"
       style="fill:#ffffff;stroke-width:0"
       id="g1907">
      <defs
         id="id-b49f377c-f19e-40f3-8435-fbce8414c7cc"
         style="fill:#ffffff;stroke-width:0">
        <g
           id="id-84ccbb30-923b-4c03-bb4a-5892b2b9b6c3"
           style="fill:#ffffff;stroke-width:0">
          <symbol
             overflow="visible"
             id="id-fcccbd24-5605-4cd3-8653-f7214d8874cd"
             style="fill:#ffffff;stroke-width:0">
            <path
               style="fill:#ffffff;stroke:#ffffff;stroke-width:0"
               d=""
               id="id-fcc31975-b536-4981-b8af-2440205297a3" />
          </symbol>
          <symbol
             overflow="visible"
             id="id-5672b865-8172-4355-ba6a-bc1618e05a1b"
             style="fill:#ffffff;stroke-width:0">
            <path
               style="fill:#ffffff;stroke:#ffffff;stroke-width:0"
               d="m 5.15625,-3.71875 c 0.140625,0 0.5,0 0.5,-0.34375 0,-0.234375 -0.21875,-0.234375 -0.390625,-0.234375 h -2.28125 c -1.5,0 -2.609375,1.640625 -2.609375,2.828125 0,0.875 0.59375,1.578125 1.5,1.578125 1.171875,0 2.5,-1.203125 2.5,-2.734375 0,-0.171875 0,-0.65625 -0.3125,-1.09375 z m -3.265625,3.609375 c -0.5,0 -0.890625,-0.359375 -0.890625,-1.078125 0,-0.296875 0.109375,-1.109375 0.46875,-1.703125 0.421875,-0.6875 1.015625,-0.828125 1.359375,-0.828125 0.828125,0 0.90625,0.65625 0.90625,0.96875 0,0.46875 -0.203125,1.28125 -0.53125,1.796875 -0.390625,0.578125 -0.9375,0.84375 -1.3125,0.84375 z m 0,0"
               id="id-10edf0aa-00fb-48fa-aab9-3db7f7db0487" />
          </symbol>
          <symbol
             overflow="visible"
             id="id-ecb5124c-ceb6-4505-8602-582a4c8ef120"
             style="fill:#ffffff;stroke-width:0">
            <path
               style="fill:#ffffff;stroke:#ffffff;stroke-width:0"
               d=""
               id="id-2a3cdb9a-2743-465d-aec8-a0789bb8d772" />
          </symbol>
          <symbol
             overflow="visible"
             id="id-aee3522d-59ba-4ea6-8726-15b247a60019"
             style="fill:#ffffff;stroke-width:0">
            <path
               style="fill:#ffffff;stroke:#ffffff;stroke-width:0"
               d="m 2.015625,-3.296875 c 0.0625,-0.109375 0.0625,-0.171875 0.0625,-0.21875 0,-0.21875 -0.1875,-0.375 -0.40625,-0.375 -0.265625,0 -0.34375,0.21875 -0.375,0.328125 l -0.921875,3.015625 c -0.015625,0.015625 -0.046875,0.09375 -0.046875,0.109375 0,0.078125 0.21875,0.15625 0.28125,0.15625 0.046875,0 0.046875,-0.015625 0.09375,-0.125 z m 0,0"
               id="id-f0e85380-b10b-40b0-9932-d0cc4c308fdd" />
          </symbol>
          <symbol
             overflow="visible"
             id="id-c50e2f3a-7e76-4929-86c4-994f7ad0def7"
             style="fill:#ffffff;stroke-width:0">
            <path
               style="fill:#ffffff;stroke:#ffffff;stroke-width:0"
               d=""
               id="id-2d1fa18e-628d-4950-a153-c61160deb088" />
          </symbol>
          <symbol
             overflow="visible"
             id="id-bdbc4067-12b0-4c10-84ad-51158745c5e8"
             style="fill:#ffffff;stroke-width:0">
            <path
               style="fill:#ffffff;stroke:#ffffff;stroke-width:0"
               d="m 3.296875,2.390625 c 0,-0.03125 0,-0.046875 -0.171875,-0.21875 -1.234375,-1.25 -1.5625,-3.140625 -1.5625,-4.671875 0,-1.734375 0.375,-3.46875 1.609375,-4.703125 0.125,-0.125 0.125,-0.140625 0.125,-0.171875 0,-0.078125 -0.03125,-0.109375 -0.09375,-0.109375 -0.109375,0 -1,0.6875 -1.59375,1.953125 -0.5,1.09375 -0.625,2.203125 -0.625,3.03125 0,0.78125 0.109375,1.984375 0.65625,3.125 0.609375,1.21875 1.453125,1.875 1.5625,1.875 0.0625,0 0.09375,-0.03125 0.09375,-0.109375 z m 0,0"
               id="id-51143414-876d-467c-9112-4375f89a30ab" />
          </symbol>
          <symbol
             overflow="visible"
             id="id-a07a5781-6d8b-4641-a034-2a9cca45759c"
             style="fill:#ffffff;stroke-width:0">
            <path
               style="fill:#ffffff;stroke:#ffffff;stroke-width:0"
               d="m 3.3125,-0.75 c 0.046875,0.390625 0.3125,0.8125 0.78125,0.8125 0.21875,0 0.828125,-0.140625 0.828125,-0.953125 v -0.5625 h -0.25 v 0.5625 c 0,0.578125 -0.25,0.640625 -0.359375,0.640625 -0.328125,0 -0.375,-0.453125 -0.375,-0.5 v -1.984375 c 0,-0.421875 0,-0.8125 -0.359375,-1.1875 -0.390625,-0.390625 -0.890625,-0.546875 -1.359375,-0.546875 -0.828125,0 -1.515625,0.46875 -1.515625,1.125 0,0.296875 0.203125,0.46875 0.46875,0.46875 0.28125,0 0.453125,-0.203125 0.453125,-0.453125 0,-0.125 -0.046875,-0.453125 -0.515625,-0.453125 0.28125,-0.359375 0.765625,-0.46875 1.078125,-0.46875 0.5,0 1.0625,0.390625 1.0625,1.28125 v 0.359375 c -0.515625,0.03125 -1.203125,0.0625 -1.828125,0.359375 -0.75,0.34375 -1,0.859375 -1,1.296875 0,0.8125 0.96875,1.0625 1.59375,1.0625 0.65625,0 1.109375,-0.40625 1.296875,-0.859375 z m -0.0625,-1.640625 v 1 c 0,0.9375 -0.71875,1.28125 -1.171875,1.28125 -0.484375,0 -0.890625,-0.34375 -0.890625,-0.84375 0,-0.546875 0.421875,-1.375 2.0625,-1.4375 z m 0,0"
               id="id-c60c2cff-b542-40dd-b1ec-56bdd37b935d" />
          </symbol>
          <symbol
             overflow="visible"
             id="id-669a6a37-d81f-40c2-9bd2-00db017d0ee0"
             style="fill:#ffffff;stroke-width:0">
            <path
               style="fill:#ffffff;stroke:#ffffff;stroke-width:0"
               d="m 1.671875,-3.3125 v -1.09375 l -1.390625,0.109375 v 0.3125 c 0.703125,0 0.78125,0.0625 0.78125,0.5625 v 2.671875 c 0,0.4375 -0.109375,0.4375 -0.78125,0.4375 v 0.3125 c 0.390625,-0.015625 0.859375,-0.03125 1.140625,-0.03125 0.390625,0 0.859375,0 1.265625,0.03125 v -0.3125 h -0.21875 c -0.734375,0 -0.75,-0.109375 -0.75,-0.46875 v -1.53125 c 0,-0.984375 0.421875,-1.875 1.171875,-1.875 0.0625,0 0.09375,0 0.109375,0.015625 -0.03125,0 -0.234375,0.125 -0.234375,0.390625 0,0.265625 0.21875,0.421875 0.4375,0.421875 0.171875,0 0.421875,-0.125 0.421875,-0.4375 0,-0.3125 -0.3125,-0.609375 -0.734375,-0.609375 -0.734375,0 -1.09375,0.671875 -1.21875,1.09375 z m 0,0"
               id="id-cfecc519-a1d4-4c94-930f-78483e1a0774" />
          </symbol>
          <symbol
             overflow="visible"
             id="id-1f0462c0-fa22-41c9-8cb8-d1c9b4cb0ce6"
             style="fill:#ffffff;stroke-width:0">
            <path
               style="fill:#ffffff;stroke:#ffffff;stroke-width:0"
               d="m 1.765625,-4.40625 -1.390625,0.109375 v 0.3125 c 0.640625,0 0.734375,0.0625 0.734375,0.546875 v 2.6875 c 0,0.4375 -0.109375,0.4375 -0.78125,0.4375 v 0.3125 c 0.3125,-0.015625 0.859375,-0.03125 1.09375,-0.03125 0.359375,0 0.703125,0.015625 1.046875,0.03125 v -0.3125 c -0.671875,0 -0.703125,-0.046875 -0.703125,-0.4375 z m 0.03125,-1.734375 c 0,-0.3125 -0.234375,-0.53125 -0.515625,-0.53125 -0.3125,0 -0.53125,0.265625 -0.53125,0.53125 0,0.265625 0.21875,0.53125 0.53125,0.53125 0.28125,0 0.515625,-0.21875 0.515625,-0.53125 z m 0,0"
               id="id-47dbfe15-4092-4a88-bf50-84607da929a1" />
          </symbol>
          <symbol
             overflow="visible"
             id="id-41968772-436d-4741-a84f-da028d2a56af"
             style="fill:#ffffff;stroke-width:0">
            <path
               style="fill:#ffffff;stroke:#ffffff;stroke-width:0"
               d="m 1.71875,-3.984375 h 1.4375 v -0.3125 h -1.4375 v -1.828125 h -0.25 c 0,0.8125 -0.296875,1.875 -1.28125,1.921875 v 0.21875 h 0.84375 v 2.75 c 0,1.21875 0.9375,1.34375 1.296875,1.34375 0.703125,0 0.984375,-0.703125 0.984375,-1.34375 v -0.5625 h -0.25 v 0.546875 c 0,0.734375 -0.296875,1.109375 -0.671875,1.109375 -0.671875,0 -0.671875,-0.90625 -0.671875,-1.078125 z m 0,0"
               id="id-2657ba48-83b2-4f63-97ec-608944f17478" />
          </symbol>
          <symbol
             overflow="visible"
             id="id-38c043a1-e7b1-46d3-8ba7-923e639f65c9"
             style="fill:#ffffff;stroke-width:0">
            <path
               style="fill:#ffffff;stroke:#ffffff;stroke-width:0"
               d="m 1.09375,-0.75 c 0,0.4375 -0.109375,0.4375 -0.78125,0.4375 v 0.3125 c 0.359375,-0.015625 0.859375,-0.03125 1.140625,-0.03125 0.25,0 0.765625,0.015625 1.109375,0.03125 v -0.3125 c -0.671875,0 -0.78125,0 -0.78125,-0.4375 v -1.84375 c 0,-1.03125 0.71875,-1.59375 1.34375,-1.59375 0.640625,0 0.75,0.53125 0.75,1.109375 v 2.328125 c 0,0.4375 -0.109375,0.4375 -0.78125,0.4375 v 0.3125 c 0.34375,-0.015625 0.859375,-0.03125 1.125,-0.03125 0.25,0 0.78125,0.015625 1.109375,0.03125 v -0.3125 c -0.515625,0 -0.765625,0 -0.765625,-0.296875 v -1.90625 c 0,-0.859375 0,-1.15625 -0.3125,-1.515625 -0.140625,-0.171875 -0.46875,-0.375 -1.046875,-0.375 -0.84375,0 -1.28125,0.59375 -1.453125,0.984375 v -3.5 l -1.4375,0.109375 v 0.3125 c 0.703125,0 0.78125,0.0625 0.78125,0.5625 z m 0,0"
               id="id-b4b1455b-6e01-45f9-b406-e30024e75d7e" />
          </symbol>
          <symbol
             overflow="visible"
             id="id-226ec84b-7709-46f4-8857-01038bb8afde"
             style="fill:#ffffff;stroke-width:0">
            <path
               style="fill:#ffffff;stroke:#ffffff;stroke-width:0"
               d="m 1.09375,-3.421875 v 2.671875 c 0,0.4375 -0.109375,0.4375 -0.78125,0.4375 v 0.3125 c 0.359375,-0.015625 0.859375,-0.03125 1.140625,-0.03125 0.25,0 0.765625,0.015625 1.109375,0.03125 v -0.3125 c -0.671875,0 -0.78125,0 -0.78125,-0.4375 v -1.84375 c 0,-1.03125 0.71875,-1.59375 1.34375,-1.59375 0.640625,0 0.75,0.53125 0.75,1.109375 v 2.328125 c 0,0.4375 -0.109375,0.4375 -0.78125,0.4375 v 0.3125 c 0.34375,-0.015625 0.859375,-0.03125 1.125,-0.03125 0.25,0 0.78125,0.015625 1.109375,0.03125 v -0.3125 c -0.65625,0 -0.765625,0 -0.765625,-0.4375 v -1.84375 c 0,-1.03125 0.703125,-1.59375 1.34375,-1.59375 0.625,0 0.734375,0.53125 0.734375,1.109375 v 2.328125 c 0,0.4375 -0.109375,0.4375 -0.78125,0.4375 v 0.3125 c 0.34375,-0.015625 0.859375,-0.03125 1.125,-0.03125 0.265625,0 0.78125,0.015625 1.125,0.03125 v -0.3125 c -0.515625,0 -0.765625,0 -0.78125,-0.296875 v -1.90625 c 0,-0.859375 0,-1.15625 -0.3125,-1.515625 -0.140625,-0.171875 -0.46875,-0.375 -1.046875,-0.375 -0.828125,0 -1.28125,0.59375 -1.4375,0.984375 -0.140625,-0.875 -0.875,-0.984375 -1.328125,-0.984375 -0.734375,0 -1.203125,0.421875 -1.484375,1.046875 v -1.046875 l -1.40625,0.109375 v 0.3125 c 0.703125,0 0.78125,0.0625 0.78125,0.5625 z m 0,0"
               id="id-a6722025-8977-4120-a717-fa3b0bcd7430" />
          </symbol>
          <symbol
             overflow="visible"
             id="id-36a64789-c232-4768-bbba-d69ab90e8a44"
             style="fill:#ffffff;stroke-width:0">
            <path
               style="fill:#ffffff;stroke:#ffffff;stroke-width:0"
               d="m 1.109375,-2.515625 c 0.0625,-1.484375 0.90625,-1.734375 1.25,-1.734375 1.015625,0 1.125,1.34375 1.125,1.734375 z m 0,0.21875 h 2.78125 c 0.21875,0 0.25,0 0.25,-0.21875 0,-0.984375 -0.546875,-1.953125 -1.78125,-1.953125 -1.15625,0 -2.078125,1.03125 -2.078125,2.28125 0,1.328125 1.046875,2.296875 2.1875,2.296875 1.21875,0 1.671875,-1.109375 1.671875,-1.296875 0,-0.09375 -0.078125,-0.125 -0.140625,-0.125 -0.078125,0 -0.109375,0.0625 -0.125,0.140625 -0.34375,1.03125 -1.25,1.03125 -1.34375,1.03125 -0.5,0 -0.890625,-0.296875 -1.125,-0.671875 -0.296875,-0.46875 -0.296875,-1.125 -0.296875,-1.484375 z m 0,0"
               id="id-423224bd-a867-4af3-9583-751b5b637c30" />
          </symbol>
          <symbol
             overflow="visible"
             id="id-a06dbc9f-4679-4f9f-94a3-fcd737b02a99"
             style="fill:#ffffff;stroke-width:0">
            <path
               style="fill:#ffffff;stroke:#ffffff;stroke-width:0"
               d="m 1.171875,-2.171875 c 0,-1.625 0.8125,-2.046875 1.34375,-2.046875 0.09375,0 0.71875,0.015625 1.0625,0.375 -0.40625,0.03125 -0.46875,0.328125 -0.46875,0.453125 0,0.265625 0.1875,0.453125 0.453125,0.453125 0.265625,0 0.46875,-0.15625 0.46875,-0.46875 0,-0.671875 -0.765625,-1.0625 -1.53125,-1.0625 -1.25,0 -2.15625,1.078125 -2.15625,2.3125 0,1.28125 0.984375,2.265625 2.140625,2.265625 1.328125,0 1.65625,-1.203125 1.65625,-1.296875 0,-0.09375 -0.109375,-0.09375 -0.140625,-0.09375 -0.078125,0 -0.109375,0.03125 -0.125,0.09375 -0.28125,0.921875 -0.9375,1.046875 -1.296875,1.046875 -0.53125,0 -1.40625,-0.421875 -1.40625,-2.03125 z m 0,0"
               id="id-7a1ddede-85f6-4493-a25f-9030da71d66b" />
          </symbol>
          <symbol
             overflow="visible"
             id="id-94789db0-a3f3-468f-9bd7-4a04f1baee94"
             style="fill:#ffffff;stroke-width:0">
            <path
               style="fill:#ffffff;stroke:#ffffff;stroke-width:0"
               d="m 2.078125,-1.9375 c 0.21875,0.046875 1.03125,0.203125 1.03125,0.921875 0,0.5 -0.34375,0.90625 -1.125,0.90625 -0.84375,0 -1.203125,-0.5625 -1.390625,-1.421875 -0.03125,-0.125 -0.03125,-0.15625 -0.140625,-0.15625 -0.125,0 -0.125,0.0625 -0.125,0.234375 v 1.328125 c 0,0.171875 0,0.234375 0.109375,0.234375 0.046875,0 0.0625,-0.015625 0.25,-0.203125 0.015625,-0.015625 0.015625,-0.03125 0.203125,-0.21875 0.4375,0.40625 0.890625,0.421875 1.09375,0.421875 1.140625,0 1.609375,-0.671875 1.609375,-1.390625 0,-0.515625 -0.296875,-0.828125 -0.421875,-0.9375 -0.328125,-0.328125 -0.71875,-0.40625 -1.140625,-0.484375 -0.5625,-0.109375 -1.21875,-0.234375 -1.21875,-0.8125 0,-0.359375 0.25,-0.765625 1.109375,-0.765625 1.09375,0 1.15625,0.90625 1.171875,1.203125 0,0.09375 0.09375,0.09375 0.109375,0.09375 0.140625,0 0.140625,-0.046875 0.140625,-0.234375 v -1.015625 c 0,-0.15625 0,-0.234375 -0.109375,-0.234375 -0.046875,0 -0.078125,0 -0.203125,0.125 -0.03125,0.03125 -0.125,0.125 -0.171875,0.15625 -0.375,-0.28125 -0.78125,-0.28125 -0.9375,-0.28125 -1.21875,0 -1.59375,0.671875 -1.59375,1.234375 0,0.34375 0.15625,0.625 0.421875,0.84375 0.328125,0.25 0.609375,0.3125 1.328125,0.453125 z m 0,0"
               id="id-3cb2b2dd-8b22-45fb-b207-09caa016ae7e" />
          </symbol>
          <symbol
             overflow="visible"
             id="id-4aef88e4-282b-41b0-95e8-9ee97863eb48"
             style="fill:#ffffff;stroke-width:0">
            <path
               style="fill:#ffffff;stroke:#ffffff;stroke-width:0"
               d="m 1.765625,-6.921875 -1.4375,0.109375 v 0.3125 c 0.703125,0 0.78125,0.0625 0.78125,0.5625 v 5.1875 c 0,0.4375 -0.109375,0.4375 -0.78125,0.4375 v 0.3125 c 0.328125,-0.015625 0.859375,-0.03125 1.109375,-0.03125 0.25,0 0.734375,0.015625 1.109375,0.03125 v -0.3125 c -0.671875,0 -0.78125,0 -0.78125,-0.4375 z m 0,0"
               id="id-be0e8f99-47b9-4c99-a7ad-b3914c19e37a" />
          </symbol>
          <symbol
             overflow="visible"
             id="id-913187c1-1bae-495e-911f-c5419bc8bc59"
             style="fill:#ffffff;stroke-width:0">
            <path
               style="fill:#ffffff;stroke:#ffffff;stroke-width:0"
               d="m 2.875,-2.5 c 0,-0.765625 -0.109375,-1.96875 -0.65625,-3.109375 -0.59375,-1.21875 -1.453125,-1.875 -1.546875,-1.875 -0.0625,0 -0.109375,0.046875 -0.109375,0.109375 0,0.03125 0,0.046875 0.1875,0.234375 0.984375,0.984375 1.546875,2.5625 1.546875,4.640625 0,1.71875 -0.359375,3.46875 -1.59375,4.71875 -0.140625,0.125 -0.140625,0.140625 -0.140625,0.171875 0,0.0625 0.046875,0.109375 0.109375,0.109375 0.09375,0 1,-0.6875 1.578125,-1.953125 0.515625,-1.09375 0.625,-2.203125 0.625,-3.046875 z m 0,0"
               id="id-76cd5ce0-5723-497a-a42b-13d5a8eba925" />
          </symbol>
        </g>
      </defs>
      <g
         id="id-574aeda4-1744-4bff-b082-39c06f067383"
         transform="translate(-70.595,-98.9684)"
         style="fill:#ffffff;stroke-width:0">
        <g
           style="fill:#ffffff;fill-opacity:1;stroke-width:0"
           id="id-5095f1e3-9712-4c28-92f1-450eae3ab7ee">
          <g
             transform="translate(70.22,106.475)"
             style="fill:#ffffff;stroke-width:0"
             id="g2894">
            <path
               style="fill:#000000;stroke:#ffffff;stroke-width:0"
               d="m 5.15625,-3.71875 c 0.140625,0 0.5,0 0.5,-0.34375 0,-0.234375 -0.21875,-0.234375 -0.390625,-0.234375 h -2.28125 c -1.5,0 -2.609375,1.640625 -2.609375,2.828125 0,0.875 0.59375,1.578125 1.5,1.578125 1.171875,0 2.5,-1.203125 2.5,-2.734375 0,-0.171875 0,-0.65625 -0.3125,-1.09375 z m -3.265625,3.609375 c -0.5,0 -0.890625,-0.359375 -0.890625,-1.078125 0,-0.296875 0.109375,-1.109375 0.46875,-1.703125 0.421875,-0.6875 1.015625,-0.828125 1.359375,-0.828125 0.828125,0 0.90625,0.65625 0.90625,0.96875 0,0.46875 -0.203125,1.28125 -0.53125,1.796875 -0.390625,0.578125 -0.9375,0.84375 -1.3125,0.84375 z m 0,0"
               id="id-73eed451-6638-462d-a31c-0a7bb15dd923" />
          </g>
        </g>
        <g
           style="fill:#ffffff;fill-opacity:1;stroke-width:0"
           id="id-11930a94-61c8-47a4-a21d-5459fd69b461">
          <g
             transform="translate(76.27,102.859)"
             style="fill:#ffffff;stroke-width:0"
             id="g2898">
            <path
               style="fill:#000000;stroke:#ffffff;stroke-width:0"
               d="m 2.015625,-3.296875 c 0.0625,-0.109375 0.0625,-0.171875 0.0625,-0.21875 0,-0.21875 -0.1875,-0.375 -0.40625,-0.375 -0.265625,0 -0.34375,0.21875 -0.375,0.328125 l -0.921875,3.015625 c -0.015625,0.015625 -0.046875,0.09375 -0.046875,0.109375 0,0.078125 0.21875,0.15625 0.28125,0.15625 0.046875,0 0.046875,-0.015625 0.09375,-0.125 z m 0,0"
               id="id-7dbbb019-8479-4f6d-8268-1c54de13664b" />
          </g>
        </g>
        <g
           style="fill:#ffffff;fill-opacity:1;stroke-width:0"
           id="id-ea3b61e4-f54e-498a-a428-db638cb6c484">
          <g
             transform="translate(82.386,106.475)"
             style="fill:#ffffff;stroke-width:0"
             id="g2902">
            <path
               style="fill:#000000;stroke:#ffffff;stroke-width:0"
               d="m 3.296875,2.390625 c 0,-0.03125 0,-0.046875 -0.171875,-0.21875 -1.234375,-1.25 -1.5625,-3.140625 -1.5625,-4.671875 0,-1.734375 0.375,-3.46875 1.609375,-4.703125 0.125,-0.125 0.125,-0.140625 0.125,-0.171875 0,-0.078125 -0.03125,-0.109375 -0.09375,-0.109375 -0.109375,0 -1,0.6875 -1.59375,1.953125 -0.5,1.09375 -0.625,2.203125 -0.625,3.03125 0,0.78125 0.109375,1.984375 0.65625,3.125 0.609375,1.21875 1.453125,1.875 1.5625,1.875 0.0625,0 0.09375,-0.03125 0.09375,-0.109375 z m 0,0"
               id="id-74bf66a6-4677-45fe-8aea-c19291d8b253" />
          </g>
          <g
             transform="translate(86.2605,106.475)"
             style="fill:#ffffff;stroke-width:0"
             id="g2905">
            <path
               style="fill:#000000;stroke:#ffffff;stroke-width:0"
               d="m 3.3125,-0.75 c 0.046875,0.390625 0.3125,0.8125 0.78125,0.8125 0.21875,0 0.828125,-0.140625 0.828125,-0.953125 v -0.5625 h -0.25 v 0.5625 c 0,0.578125 -0.25,0.640625 -0.359375,0.640625 -0.328125,0 -0.375,-0.453125 -0.375,-0.5 v -1.984375 c 0,-0.421875 0,-0.8125 -0.359375,-1.1875 -0.390625,-0.390625 -0.890625,-0.546875 -1.359375,-0.546875 -0.828125,0 -1.515625,0.46875 -1.515625,1.125 0,0.296875 0.203125,0.46875 0.46875,0.46875 0.28125,0 0.453125,-0.203125 0.453125,-0.453125 0,-0.125 -0.046875,-0.453125 -0.515625,-0.453125 0.28125,-0.359375 0.765625,-0.46875 1.078125,-0.46875 0.5,0 1.0625,0.390625 1.0625,1.28125 v 0.359375 c -0.515625,0.03125 -1.203125,0.0625 -1.828125,0.359375 -0.75,0.34375 -1,0.859375 -1,1.296875 0,0.8125 0.96875,1.0625 1.59375,1.0625 0.65625,0 1.109375,-0.40625 1.296875,-0.859375 z m -0.0625,-1.640625 v 1 c 0,0.9375 -0.71875,1.28125 -1.171875,1.28125 -0.484375,0 -0.890625,-0.34375 -0.890625,-0.84375 0,-0.546875 0.421875,-1.375 2.0625,-1.4375 z m 0,0"
               id="id-74ec6cf3-3609-484a-96ee-bf7e8773d091" />
          </g>
          <g
             transform="translate(91.2418,106.475)"
             style="fill:#ffffff;stroke-width:0"
             id="g2908">
            <path
               style="fill:#000000;stroke:#ffffff;stroke-width:0"
               d="m 1.671875,-3.3125 v -1.09375 l -1.390625,0.109375 v 0.3125 c 0.703125,0 0.78125,0.0625 0.78125,0.5625 v 2.671875 c 0,0.4375 -0.109375,0.4375 -0.78125,0.4375 v 0.3125 c 0.390625,-0.015625 0.859375,-0.03125 1.140625,-0.03125 0.390625,0 0.859375,0 1.265625,0.03125 v -0.3125 h -0.21875 c -0.734375,0 -0.75,-0.109375 -0.75,-0.46875 v -1.53125 c 0,-0.984375 0.421875,-1.875 1.171875,-1.875 0.0625,0 0.09375,0 0.109375,0.015625 -0.03125,0 -0.234375,0.125 -0.234375,0.390625 0,0.265625 0.21875,0.421875 0.4375,0.421875 0.171875,0 0.421875,-0.125 0.421875,-0.4375 0,-0.3125 -0.3125,-0.609375 -0.734375,-0.609375 -0.734375,0 -1.09375,0.671875 -1.21875,1.09375 z m 0,0"
               id="id-ae78d0d4-0c65-4979-a768-adb14c711789" />
          </g>
          <g
             transform="translate(95.1441,106.475)"
             style="fill:#ffffff;stroke-width:0"
             id="g2911">
            <path
               style="fill:#000000;stroke:#ffffff;stroke-width:0"
               d="m 1.765625,-4.40625 -1.390625,0.109375 v 0.3125 c 0.640625,0 0.734375,0.0625 0.734375,0.546875 v 2.6875 c 0,0.4375 -0.109375,0.4375 -0.78125,0.4375 v 0.3125 c 0.3125,-0.015625 0.859375,-0.03125 1.09375,-0.03125 0.359375,0 0.703125,0.015625 1.046875,0.03125 v -0.3125 c -0.671875,0 -0.703125,-0.046875 -0.703125,-0.4375 z m 0.03125,-1.734375 c 0,-0.3125 -0.234375,-0.53125 -0.515625,-0.53125 -0.3125,0 -0.53125,0.265625 -0.53125,0.53125 0,0.265625 0.21875,0.53125 0.53125,0.53125 0.28125,0 0.515625,-0.21875 0.515625,-0.53125 z m 0,0"
               id="id-ac789196-ac38-4785-b260-1c809a022a99" />
          </g>
          <g
             transform="translate(97.9117,106.475)"
             style="fill:#ffffff;stroke-width:0"
             id="g2914">
            <path
               style="fill:#000000;stroke:#ffffff;stroke-width:0"
               d="m 1.71875,-3.984375 h 1.4375 v -0.3125 h -1.4375 v -1.828125 h -0.25 c 0,0.8125 -0.296875,1.875 -1.28125,1.921875 v 0.21875 h 0.84375 v 2.75 c 0,1.21875 0.9375,1.34375 1.296875,1.34375 0.703125,0 0.984375,-0.703125 0.984375,-1.34375 v -0.5625 h -0.25 v 0.546875 c 0,0.734375 -0.296875,1.109375 -0.671875,1.109375 -0.671875,0 -0.671875,-0.90625 -0.671875,-1.078125 z m 0,0"
               id="id-4c544700-1f41-4116-a499-af411dd5f073" />
          </g>
          <g
             transform="translate(101.786,106.475)"
             style="fill:#ffffff;stroke-width:0"
             id="g2917">
            <path
               style="fill:#000000;stroke:#ffffff;stroke-width:0"
               d="m 1.09375,-0.75 c 0,0.4375 -0.109375,0.4375 -0.78125,0.4375 v 0.3125 c 0.359375,-0.015625 0.859375,-0.03125 1.140625,-0.03125 0.25,0 0.765625,0.015625 1.109375,0.03125 v -0.3125 c -0.671875,0 -0.78125,0 -0.78125,-0.4375 v -1.84375 c 0,-1.03125 0.71875,-1.59375 1.34375,-1.59375 0.640625,0 0.75,0.53125 0.75,1.109375 v 2.328125 c 0,0.4375 -0.109375,0.4375 -0.78125,0.4375 v 0.3125 c 0.34375,-0.015625 0.859375,-0.03125 1.125,-0.03125 0.25,0 0.78125,0.015625 1.109375,0.03125 v -0.3125 c -0.515625,0 -0.765625,0 -0.765625,-0.296875 v -1.90625 c 0,-0.859375 0,-1.15625 -0.3125,-1.515625 -0.140625,-0.171875 -0.46875,-0.375 -1.046875,-0.375 -0.84375,0 -1.28125,0.59375 -1.453125,0.984375 v -3.5 l -1.4375,0.109375 v 0.3125 c 0.703125,0 0.78125,0.0625 0.78125,0.5625 z m 0,0"
               id="id-c0e26427-939c-45f4-8fbe-207de5a3b06e" />
          </g>
          <g
             transform="translate(107.321,106.475)"
             style="fill:#ffffff;stroke-width:0"
             id="g2920">
            <path
               style="fill:#000000;stroke:#ffffff;stroke-width:0"
               d="m 1.09375,-3.421875 v 2.671875 c 0,0.4375 -0.109375,0.4375 -0.78125,0.4375 v 0.3125 c 0.359375,-0.015625 0.859375,-0.03125 1.140625,-0.03125 0.25,0 0.765625,0.015625 1.109375,0.03125 v -0.3125 c -0.671875,0 -0.78125,0 -0.78125,-0.4375 v -1.84375 c 0,-1.03125 0.71875,-1.59375 1.34375,-1.59375 0.640625,0 0.75,0.53125 0.75,1.109375 v 2.328125 c 0,0.4375 -0.109375,0.4375 -0.78125,0.4375 v 0.3125 c 0.34375,-0.015625 0.859375,-0.03125 1.125,-0.03125 0.25,0 0.78125,0.015625 1.109375,0.03125 v -0.3125 c -0.65625,0 -0.765625,0 -0.765625,-0.4375 v -1.84375 c 0,-1.03125 0.703125,-1.59375 1.34375,-1.59375 0.625,0 0.734375,0.53125 0.734375,1.109375 v 2.328125 c 0,0.4375 -0.109375,0.4375 -0.78125,0.4375 v 0.3125 c 0.34375,-0.015625 0.859375,-0.03125 1.125,-0.03125 0.265625,0 0.78125,0.015625 1.125,0.03125 v -0.3125 c -0.515625,0 -0.765625,0 -0.78125,-0.296875 v -1.90625 c 0,-0.859375 0,-1.15625 -0.3125,-1.515625 -0.140625,-0.171875 -0.46875,-0.375 -1.046875,-0.375 -0.828125,0 -1.28125,0.59375 -1.4375,0.984375 -0.140625,-0.875 -0.875,-0.984375 -1.328125,-0.984375 -0.734375,0 -1.203125,0.421875 -1.484375,1.046875 v -1.046875 l -1.40625,0.109375 v 0.3125 c 0.703125,0 0.78125,0.0625 0.78125,0.5625 z m 0,0"
               id="id-07ec7315-84ae-480d-8543-e912085c8a02" />
          </g>
          <g
             transform="translate(115.623,106.475)"
             style="fill:#ffffff;stroke-width:0"
             id="g2923">
            <path
               style="fill:#000000;stroke:#ffffff;stroke-width:0"
               d="m 1.109375,-2.515625 c 0.0625,-1.484375 0.90625,-1.734375 1.25,-1.734375 1.015625,0 1.125,1.34375 1.125,1.734375 z m 0,0.21875 h 2.78125 c 0.21875,0 0.25,0 0.25,-0.21875 0,-0.984375 -0.546875,-1.953125 -1.78125,-1.953125 -1.15625,0 -2.078125,1.03125 -2.078125,2.28125 0,1.328125 1.046875,2.296875 2.1875,2.296875 1.21875,0 1.671875,-1.109375 1.671875,-1.296875 0,-0.09375 -0.078125,-0.125 -0.140625,-0.125 -0.078125,0 -0.109375,0.0625 -0.125,0.140625 -0.34375,1.03125 -1.25,1.03125 -1.34375,1.03125 -0.5,0 -0.890625,-0.296875 -1.125,-0.671875 -0.296875,-0.46875 -0.296875,-1.125 -0.296875,-1.484375 z m 0,0"
               id="id-96d14fe3-6737-4f11-8263-ab687c5a0411" />
          </g>
          <g
             transform="translate(120.051,106.475)"
             style="fill:#ffffff;stroke-width:0"
             id="g2926">
            <path
               style="fill:#000000;stroke:#ffffff;stroke-width:0"
               d="m 1.71875,-3.984375 h 1.4375 v -0.3125 h -1.4375 v -1.828125 h -0.25 c 0,0.8125 -0.296875,1.875 -1.28125,1.921875 v 0.21875 h 0.84375 v 2.75 c 0,1.21875 0.9375,1.34375 1.296875,1.34375 0.703125,0 0.984375,-0.703125 0.984375,-1.34375 v -0.5625 h -0.25 v 0.546875 c 0,0.734375 -0.296875,1.109375 -0.671875,1.109375 -0.671875,0 -0.671875,-0.90625 -0.671875,-1.078125 z m 0,0"
               id="id-502cbe63-6fdb-4a29-93bb-0d3893e8a86c" />
          </g>
          <g
             transform="translate(123.925,106.475)"
             style="fill:#ffffff;stroke-width:0"
             id="g2929">
            <path
               style="fill:#000000;stroke:#ffffff;stroke-width:0"
               d="m 1.765625,-4.40625 -1.390625,0.109375 v 0.3125 c 0.640625,0 0.734375,0.0625 0.734375,0.546875 v 2.6875 c 0,0.4375 -0.109375,0.4375 -0.78125,0.4375 v 0.3125 c 0.3125,-0.015625 0.859375,-0.03125 1.09375,-0.03125 0.359375,0 0.703125,0.015625 1.046875,0.03125 v -0.3125 c -0.671875,0 -0.703125,-0.046875 -0.703125,-0.4375 z m 0.03125,-1.734375 c 0,-0.3125 -0.234375,-0.53125 -0.515625,-0.53125 -0.3125,0 -0.53125,0.265625 -0.53125,0.53125 0,0.265625 0.21875,0.53125 0.53125,0.53125 0.28125,0 0.515625,-0.21875 0.515625,-0.53125 z m 0,0"
               id="id-a688b9a8-6ddc-4a25-96e2-e8f3d83e5f44" />
          </g>
          <g
             transform="translate(126.693,106.475)"
             style="fill:#ffffff;stroke-width:0"
             id="g2932">
            <path
               style="fill:#000000;stroke:#ffffff;stroke-width:0"
               d="m 1.171875,-2.171875 c 0,-1.625 0.8125,-2.046875 1.34375,-2.046875 0.09375,0 0.71875,0.015625 1.0625,0.375 -0.40625,0.03125 -0.46875,0.328125 -0.46875,0.453125 0,0.265625 0.1875,0.453125 0.453125,0.453125 0.265625,0 0.46875,-0.15625 0.46875,-0.46875 0,-0.671875 -0.765625,-1.0625 -1.53125,-1.0625 -1.25,0 -2.15625,1.078125 -2.15625,2.3125 0,1.28125 0.984375,2.265625 2.140625,2.265625 1.328125,0 1.65625,-1.203125 1.65625,-1.296875 0,-0.09375 -0.109375,-0.09375 -0.140625,-0.09375 -0.078125,0 -0.109375,0.03125 -0.125,0.09375 -0.28125,0.921875 -0.9375,1.046875 -1.296875,1.046875 -0.53125,0 -1.40625,-0.421875 -1.40625,-2.03125 z m 0,0"
               id="id-73d582dc-417a-4f3a-b9d4-d917da126dcb" />
          </g>
        </g>
        <g
           style="fill:#ffffff;fill-opacity:1;stroke-width:0"
           id="id-0fdc2db8-a6ca-4d4b-9c06-c052c1598f71">
          <g
             transform="translate(134.438,106.475)"
             style="fill:#ffffff;stroke-width:0"
             id="g2936">
            <path
               style="fill:#000000;stroke:#ffffff;stroke-width:0"
               d="m 2.078125,-1.9375 c 0.21875,0.046875 1.03125,0.203125 1.03125,0.921875 0,0.5 -0.34375,0.90625 -1.125,0.90625 -0.84375,0 -1.203125,-0.5625 -1.390625,-1.421875 -0.03125,-0.125 -0.03125,-0.15625 -0.140625,-0.15625 -0.125,0 -0.125,0.0625 -0.125,0.234375 v 1.328125 c 0,0.171875 0,0.234375 0.109375,0.234375 0.046875,0 0.0625,-0.015625 0.25,-0.203125 0.015625,-0.015625 0.015625,-0.03125 0.203125,-0.21875 0.4375,0.40625 0.890625,0.421875 1.09375,0.421875 1.140625,0 1.609375,-0.671875 1.609375,-1.390625 0,-0.515625 -0.296875,-0.828125 -0.421875,-0.9375 -0.328125,-0.328125 -0.71875,-0.40625 -1.140625,-0.484375 -0.5625,-0.109375 -1.21875,-0.234375 -1.21875,-0.8125 0,-0.359375 0.25,-0.765625 1.109375,-0.765625 1.09375,0 1.15625,0.90625 1.171875,1.203125 0,0.09375 0.09375,0.09375 0.109375,0.09375 0.140625,0 0.140625,-0.046875 0.140625,-0.234375 v -1.015625 c 0,-0.15625 0,-0.234375 -0.109375,-0.234375 -0.046875,0 -0.078125,0 -0.203125,0.125 -0.03125,0.03125 -0.125,0.125 -0.171875,0.15625 -0.375,-0.28125 -0.78125,-0.28125 -0.9375,-0.28125 -1.21875,0 -1.59375,0.671875 -1.59375,1.234375 0,0.34375 0.15625,0.625 0.421875,0.84375 0.328125,0.25 0.609375,0.3125 1.328125,0.453125 z m 0,0"
               id="id-01568975-650a-430e-b4ad-422b1b79dff2" />
          </g>
          <g
             transform="translate(138.367,106.475)"
             style="fill:#ffffff;stroke-width:0"
             id="g2939">
            <path
               style="fill:#000000;stroke:#ffffff;stroke-width:0"
               d="m 1.171875,-2.171875 c 0,-1.625 0.8125,-2.046875 1.34375,-2.046875 0.09375,0 0.71875,0.015625 1.0625,0.375 -0.40625,0.03125 -0.46875,0.328125 -0.46875,0.453125 0,0.265625 0.1875,0.453125 0.453125,0.453125 0.265625,0 0.46875,-0.15625 0.46875,-0.46875 0,-0.671875 -0.765625,-1.0625 -1.53125,-1.0625 -1.25,0 -2.15625,1.078125 -2.15625,2.3125 0,1.28125 0.984375,2.265625 2.140625,2.265625 1.328125,0 1.65625,-1.203125 1.65625,-1.296875 0,-0.09375 -0.109375,-0.09375 -0.140625,-0.09375 -0.078125,0 -0.109375,0.03125 -0.125,0.09375 -0.28125,0.921875 -0.9375,1.046875 -1.296875,1.046875 -0.53125,0 -1.40625,-0.421875 -1.40625,-2.03125 z m 0,0"
               id="id-b92faa6b-6e18-4d6f-93e1-a72fce1bb5af" />
          </g>
          <g
             transform="translate(142.794,106.475)"
             style="fill:#ffffff;stroke-width:0"
             id="g2942">
            <path
               style="fill:#000000;stroke:#ffffff;stroke-width:0"
               d="m 3.3125,-0.75 c 0.046875,0.390625 0.3125,0.8125 0.78125,0.8125 0.21875,0 0.828125,-0.140625 0.828125,-0.953125 v -0.5625 h -0.25 v 0.5625 c 0,0.578125 -0.25,0.640625 -0.359375,0.640625 -0.328125,0 -0.375,-0.453125 -0.375,-0.5 v -1.984375 c 0,-0.421875 0,-0.8125 -0.359375,-1.1875 -0.390625,-0.390625 -0.890625,-0.546875 -1.359375,-0.546875 -0.828125,0 -1.515625,0.46875 -1.515625,1.125 0,0.296875 0.203125,0.46875 0.46875,0.46875 0.28125,0 0.453125,-0.203125 0.453125,-0.453125 0,-0.125 -0.046875,-0.453125 -0.515625,-0.453125 0.28125,-0.359375 0.765625,-0.46875 1.078125,-0.46875 0.5,0 1.0625,0.390625 1.0625,1.28125 v 0.359375 c -0.515625,0.03125 -1.203125,0.0625 -1.828125,0.359375 -0.75,0.34375 -1,0.859375 -1,1.296875 0,0.8125 0.96875,1.0625 1.59375,1.0625 0.65625,0 1.109375,-0.40625 1.296875,-0.859375 z m -0.0625,-1.640625 v 1 c 0,0.9375 -0.71875,1.28125 -1.171875,1.28125 -0.484375,0 -0.890625,-0.34375 -0.890625,-0.84375 0,-0.546875 0.421875,-1.375 2.0625,-1.4375 z m 0,0"
               id="id-31b6be13-40cf-4c63-a4e3-027bed4abe0f" />
          </g>
          <g
             transform="translate(147.776,106.475)"
             style="fill:#ffffff;stroke-width:0"
             id="g2945">
            <path
               style="fill:#000000;stroke:#ffffff;stroke-width:0"
               d="m 1.765625,-6.921875 -1.4375,0.109375 v 0.3125 c 0.703125,0 0.78125,0.0625 0.78125,0.5625 v 5.1875 c 0,0.4375 -0.109375,0.4375 -0.78125,0.4375 v 0.3125 c 0.328125,-0.015625 0.859375,-0.03125 1.109375,-0.03125 0.25,0 0.734375,0.015625 1.109375,0.03125 v -0.3125 c -0.671875,0 -0.78125,0 -0.78125,-0.4375 z m 0,0"
               id="id-19349ffd-c648-4aa2-ab21-00e5196fd53c" />
          </g>
          <g
             transform="translate(150.543,106.475)"
             style="fill:#ffffff;stroke-width:0"
             id="g2948">
            <path
               style="fill:#000000;stroke:#ffffff;stroke-width:0"
               d="m 1.109375,-2.515625 c 0.0625,-1.484375 0.90625,-1.734375 1.25,-1.734375 1.015625,0 1.125,1.34375 1.125,1.734375 z m 0,0.21875 h 2.78125 c 0.21875,0 0.25,0 0.25,-0.21875 0,-0.984375 -0.546875,-1.953125 -1.78125,-1.953125 -1.15625,0 -2.078125,1.03125 -2.078125,2.28125 0,1.328125 1.046875,2.296875 2.1875,2.296875 1.21875,0 1.671875,-1.109375 1.671875,-1.296875 0,-0.09375 -0.078125,-0.125 -0.140625,-0.125 -0.078125,0 -0.109375,0.0625 -0.125,0.140625 -0.34375,1.03125 -1.25,1.03125 -1.34375,1.03125 -0.5,0 -0.890625,-0.296875 -1.125,-0.671875 -0.296875,-0.46875 -0.296875,-1.125 -0.296875,-1.484375 z m 0,0"
               id="id-0cc824fb-a1df-4864-ab37-6fe1e69f4f6e" />
          </g>
          <g
             transform="translate(154.971,106.475)"
             style="fill:#ffffff;stroke-width:0"
             id="g2951">
            <path
               style="fill:#000000;stroke:#ffffff;stroke-width:0"
               d="m 2.875,-2.5 c 0,-0.765625 -0.109375,-1.96875 -0.65625,-3.109375 -0.59375,-1.21875 -1.453125,-1.875 -1.546875,-1.875 -0.0625,0 -0.109375,0.046875 -0.109375,0.109375 0,0.03125 0,0.046875 0.1875,0.234375 0.984375,0.984375 1.546875,2.5625 1.546875,4.640625 0,1.71875 -0.359375,3.46875 -1.59375,4.71875 -0.140625,0.125 -0.140625,0.140625 -0.140625,0.171875 0,0.0625 0.046875,0.109375 0.109375,0.109375 0.09375,0 1,-0.6875 1.578125,-1.953125 0.515625,-1.09375 0.625,-2.203125 0.625,-3.046875 z m 0,0"
               id="id-76cbf789-8b90-4c46-8b7d-757e662d433a" />
          </g>
        </g>
      </g>
    </g>
    <text
       xml:space="preserve"
       style="font-size:6.03278px;line-height:1.25;font-family:sans-serif;fill:#000000;stroke-width:0.264583"
       x="50.196289"
       y="57.931911"
       id="text7604"><tspan
         sodipodi:role="line"
         id="tspan7602"
         style="fill:#000000;stroke-width:0.264583"
         x="50.196289"
         y="57.931911">Loading path</tspan></text>
    <text
       xml:space="preserve"
       style="font-size:6.03278px;line-height:1.25;font-family:sans-serif;fill:#000000;stroke-width:0.264583"
       x="66.289886"
       y="103.28659"
       id="text9866"><tspan
         sodipodi:role="line"
         id="tspan9864"
         style="fill:#000000;stroke-width:0.264583"
         x="66.289886"
         y="103.28659">Unloading path</tspan></text>
    <path
       style="fill:#000000;stroke:#000000;stroke-width:0.264583px;stroke-linecap:butt;stroke-linejoin:miter;stroke-opacity:1;marker-end:url(#Arrow1Mend)"
       d="m 48.829433,56.601907 -5.041821,2.910898"
       id="path12809" />
    <path
       style="fill:#000000;stroke:#000000;stroke-width:0.264583px;stroke-linecap:butt;stroke-linejoin:miter;stroke-opacity:1;marker-end:url(#Arrow1Mend)"
       d="m 65.197352,101.3165 -8.686885,-8.686882"
       id="path12887" />
    <path
       style="fill:none;stroke:#000000;stroke-width:1;stroke-linecap:butt;stroke-linejoin:miter;stroke-miterlimit:4;stroke-dasharray:none;stroke-opacity:1"
       d="m 153.60884,109.3633 v -80.102217"
       id="path13796" />
    <path
       style="fill:none;stroke:#000000;stroke-width:1;stroke-linecap:butt;stroke-linejoin:miter;stroke-miterlimit:4;stroke-dasharray:none;stroke-opacity:1"
       d="m 153.60884,109.3633 h 88.14901"
       id="path13798" />
    <path
       sodipodi:type="star"
       style="fill:#000000;stroke:none;stroke-width:4.50924;stroke-linecap:round;stroke-linejoin:round;stroke-miterlimit:4;stroke-dasharray:none"
       id="path13800"
       inkscape:flatsided="true"
       sodipodi:sides="3"
       sodipodi:cx="22.80982"
       sodipodi:cy="55.987743"
       sodipodi:r1="11.080886"
       sodipodi:r2="5.5404434"
       sodipodi:arg1="-1.5707963"
       sodipodi:arg2="-0.52359878"
       inkscape:rounded="0"
       inkscape:randomized="0"
       d="m 22.80982,44.906857 9.596329,16.62133 -19.192658,-1e-6 z"
       transform="matrix(0.18587905,0,0,0.26458333,149.36897,15.262809)"
       inkscape:transform-center-y="-0.73295464" />
    <path
       sodipodi:type="star"
       style="fill:#000000;stroke:none;stroke-width:4.50924;stroke-linecap:round;stroke-linejoin:round;stroke-miterlimit:4;stroke-dasharray:none"
       id="path13802"
       inkscape:flatsided="true"
       sodipodi:sides="3"
       sodipodi:cx="22.80982"
       sodipodi:cy="55.987743"
       sodipodi:r1="11.080886"
       sodipodi:r2="5.5404434"
       sodipodi:arg1="-1.5707963"
       sodipodi:arg2="-0.52359878"
       inkscape:rounded="0"
       inkscape:randomized="0"
       d="m 22.80982,44.906857 9.596329,16.62133 -19.192658,-1e-6 z"
       transform="matrix(0,0.18587905,-0.26458333,0,255.22697,105.12343)"
       inkscape:transform-center-x="-0.73295513" />
    <g
       transform="matrix(0.887883,0,0,0.887883,146.80819,38.145494)"
       ns1:version="1.6.0"
       ns1:texconverter="pdflatex"
       ns1:pdfconverter="inkscape"
       ns1:text="$e$"
       ns1:preamble="C:\Users\$r.984804\OneDrive - University of Maine System\UMaine_docs\Faculty_Service\Brochure4+1\preamble_triptico.tex"
       ns1:scale="2.5168309531773527"
       ns1:alignment="middle center"
       ns1:stroke-to-path="0"
       ns1:jacobian_sqrt="0.887883"
       id="g13826"
       style="fill:#ffffff">
      <defs
         id="defs13816">
        <g
           id="g13814">
          <symbol
             overflow="visible"
             id="symbol13808">
            <path
               style="stroke:none;stroke-width:0"
               d=""
               id="path13806" />
          </symbol>
          <symbol
             overflow="visible"
             id="symbol13812">
            <path
               style="stroke:none;stroke-width:0"
               d="m 1.859375,-2.296875 c 0.296875,0 1.03125,-0.03125 1.53125,-0.234375 0.703125,-0.296875 0.75,-0.890625 0.75,-1.03125 0,-0.4375 -0.375,-0.84375 -1.0625,-0.84375 -1.109375,0 -2.625,0.96875 -2.625,2.71875 0,1.015625 0.59375,1.796875 1.578125,1.796875 1.421875,0 2.25,-1.0625 2.25,-1.171875 0,-0.0625 -0.046875,-0.140625 -0.109375,-0.140625 -0.0625,0 -0.078125,0.03125 -0.140625,0.109375 -0.78125,0.984375 -1.875,0.984375 -1.984375,0.984375 -0.78125,0 -0.875,-0.84375 -0.875,-1.15625 0,-0.125 0.015625,-0.421875 0.15625,-1.03125 z m -0.46875,-0.21875 c 0.390625,-1.515625 1.421875,-1.671875 1.6875,-1.671875 0.453125,0 0.734375,0.296875 0.734375,0.625 0,1.046875 -1.59375,1.046875 -2.015625,1.046875 z m 0,0"
               id="path13810" />
          </symbol>
        </g>
      </defs>
      <g
         id="g13824"
         transform="translate(-70.6731,-102.069)"
         style="fill:#ffffff">
        <g
           style="fill:#ffffff;fill-opacity:1"
           id="g13822">
          <g
             transform="translate(70.22,106.475)"
             id="g13820"
             style="fill:#ffffff">
            <path
               style="fill:#000000;stroke:none;stroke-width:0"
               d="m 1.859375,-2.296875 c 0.296875,0 1.03125,-0.03125 1.53125,-0.234375 0.703125,-0.296875 0.75,-0.890625 0.75,-1.03125 0,-0.4375 -0.375,-0.84375 -1.0625,-0.84375 -1.109375,0 -2.625,0.96875 -2.625,2.71875 0,1.015625 0.59375,1.796875 1.578125,1.796875 1.421875,0 2.25,-1.0625 2.25,-1.171875 0,-0.0625 -0.046875,-0.140625 -0.109375,-0.140625 -0.0625,0 -0.078125,0.03125 -0.140625,0.109375 -0.78125,0.984375 -1.875,0.984375 -1.984375,0.984375 -0.78125,0 -0.875,-0.84375 -0.875,-1.15625 0,-0.125 0.015625,-0.421875 0.15625,-1.03125 z m -0.46875,-0.21875 c 0.390625,-1.515625 1.421875,-1.671875 1.6875,-1.671875 0.453125,0 0.734375,0.296875 0.734375,0.625 0,1.046875 -1.59375,1.046875 -2.015625,1.046875 z m 0,0"
               id="path13818" />
          </g>
        </g>
      </g>
    </g>
    <text
       xml:space="preserve"
       style="font-size:6.03278px;line-height:1.25;font-family:sans-serif;fill:#000000;stroke-width:0.264583"
       x="165.67633"
       y="27.025162"
       id="text13990"><tspan
         sodipodi:role="line"
         id="tspan13988"
         style="fill:#000000;stroke-width:0.264583"
         x="165.67633"
         y="27.025162">Recompression</tspan><tspan
         sodipodi:role="line"
         style="fill:#000000;stroke-width:0.264583"
         x="165.67633"
         y="34.566135"
         id="tspan21061">curve</tspan></text>
    <text
       xml:space="preserve"
       style="font-size:6.03278px;line-height:1.25;font-family:sans-serif;fill:#000000;stroke-width:0.264583"
       x="200.39156"
       y="101.0882"
       id="text13994"><tspan
         sodipodi:role="line"
         id="tspan13992"
         style="fill:#000000;stroke-width:0.264583"
         x="200.39156"
         y="101.0882">Unloading path</tspan></text>
    <path
       style="fill:#000000;stroke:#000000;stroke-width:0.264583px;stroke-linecap:butt;stroke-linejoin:miter;stroke-opacity:1;marker-end:url(#Arrow1Mend)"
       d="m 165.99058,33.19554 -5.04182,2.910898"
       id="path13996" />
    <path
       style="fill:#000000;stroke:#000000;stroke-width:0.264583px;stroke-linecap:butt;stroke-linejoin:miter;stroke-opacity:1;marker-end:url(#Arrow1Mend)"
       d="m 199.29902,99.118112 -8.68688,-8.686882"
       id="path13998" />
    <path
       style="fill:none;stroke:#000080;stroke-width:1.5;stroke-linecap:butt;stroke-linejoin:miter;stroke-miterlimit:4;stroke-dasharray:none;stroke-opacity:1;marker-mid:url(#Arrow1Send)"
       d="m 156.16918,35.661946 c 0,0 25.65044,3.133135 33.92672,5.719474 8.27629,2.586339 28.44973,51.209508 28.44973,51.209508 0,0 -11.89716,-0.517265 -27.93246,-4.138141 -16.0353,-3.620873 -21.98388,-4.914043 -21.98388,-4.914043"
       id="path14601" />
    <g
       transform="matrix(0.887883,0,0,0.887883,172.664,111.413)"
       ns1:version="1.6.0"
       ns1:texconverter="pdflatex"
       ns1:pdfconverter="inkscape"
       ns1:text="$\\sigma'$ (log scale)"
       ns1:preamble="C:\Users\$r.984804\OneDrive - University of Maine System\UMaine_docs\Faculty_Service\Brochure4+1\preamble_triptico.tex"
       ns1:scale="2.5168309531773527"
       ns1:alignment="middle center"
       ns1:stroke-to-path="0"
       ns1:inkscapeversion="1.1.1"
       ns1:jacobian_sqrt="0.887883"
       style="fill:#ffffff;stroke-width:0"
       id="g13986">
      <defs
         id="id-772831c4-e378-43c6-8420-2f6d829ad0f6"
         style="fill:#ffffff;stroke-width:0">
        <g
           id="id-7b28d226-c1a2-4d4a-8451-717e9f0da36b"
           style="fill:#ffffff;stroke-width:0">
          <symbol
             overflow="visible"
             id="id-ce252562-1233-4a22-bb84-188ffe5936b8"
             style="fill:#ffffff;stroke-width:0">
            <path
               style="fill:#ffffff;stroke:#ffffff;stroke-width:0"
               d=""
               id="id-0eaa04cd-3b9b-447c-8143-9909c87e42b1" />
          </symbol>
          <symbol
             overflow="visible"
             id="id-4d911437-7e27-417c-ac57-ba545f895c80"
             style="fill:#ffffff;stroke-width:0">
            <path
               style="fill:#ffffff;stroke:#ffffff;stroke-width:0"
               d="m 5.15625,-3.71875 c 0.140625,0 0.5,0 0.5,-0.34375 0,-0.234375 -0.21875,-0.234375 -0.390625,-0.234375 h -2.28125 c -1.5,0 -2.609375,1.640625 -2.609375,2.828125 0,0.875 0.59375,1.578125 1.5,1.578125 1.171875,0 2.5,-1.203125 2.5,-2.734375 0,-0.171875 0,-0.65625 -0.3125,-1.09375 z m -3.265625,3.609375 c -0.5,0 -0.890625,-0.359375 -0.890625,-1.078125 0,-0.296875 0.109375,-1.109375 0.46875,-1.703125 0.421875,-0.6875 1.015625,-0.828125 1.359375,-0.828125 0.828125,0 0.90625,0.65625 0.90625,0.96875 0,0.46875 -0.203125,1.28125 -0.53125,1.796875 -0.390625,0.578125 -0.9375,0.84375 -1.3125,0.84375 z m 0,0"
               id="id-629c5491-ff94-408f-b6e0-6832fe315762" />
          </symbol>
          <symbol
             overflow="visible"
             id="id-6d321ed6-3f83-461b-ac63-1fa819c5cf41"
             style="fill:#ffffff;stroke-width:0">
            <path
               style="fill:#ffffff;stroke:#ffffff;stroke-width:0"
               d=""
               id="id-c0831f0e-9f05-4502-968f-e4b3cba249fc" />
          </symbol>
          <symbol
             overflow="visible"
             id="id-a6b134dc-4333-4fea-9dac-1138e68a3688"
             style="fill:#ffffff;stroke-width:0">
            <path
               style="fill:#ffffff;stroke:#ffffff;stroke-width:0"
               d="m 2.015625,-3.296875 c 0.0625,-0.109375 0.0625,-0.171875 0.0625,-0.21875 0,-0.21875 -0.1875,-0.375 -0.40625,-0.375 -0.265625,0 -0.34375,0.21875 -0.375,0.328125 l -0.921875,3.015625 c -0.015625,0.015625 -0.046875,0.09375 -0.046875,0.109375 0,0.078125 0.21875,0.15625 0.28125,0.15625 0.046875,0 0.046875,-0.015625 0.09375,-0.125 z m 0,0"
               id="id-4bc2a811-2bd6-402c-9994-fcfc3f06f67a" />
          </symbol>
          <symbol
             overflow="visible"
             id="id-7aa5ff81-075c-450b-ac39-4e700f13cb6e"
             style="fill:#ffffff;stroke-width:0">
            <path
               style="fill:#ffffff;stroke:#ffffff;stroke-width:0"
               d=""
               id="id-07c2cb01-ba32-4ef6-b7a4-fcd083cbabbd" />
          </symbol>
          <symbol
             overflow="visible"
             id="id-aa8fc02b-0a11-4e8a-b1d1-1f23443799d9"
             style="fill:#ffffff;stroke-width:0">
            <path
               style="fill:#ffffff;stroke:#ffffff;stroke-width:0"
               d="m 3.296875,2.390625 c 0,-0.03125 0,-0.046875 -0.171875,-0.21875 -1.234375,-1.25 -1.5625,-3.140625 -1.5625,-4.671875 0,-1.734375 0.375,-3.46875 1.609375,-4.703125 0.125,-0.125 0.125,-0.140625 0.125,-0.171875 0,-0.078125 -0.03125,-0.109375 -0.09375,-0.109375 -0.109375,0 -1,0.6875 -1.59375,1.953125 -0.5,1.09375 -0.625,2.203125 -0.625,3.03125 0,0.78125 0.109375,1.984375 0.65625,3.125 0.609375,1.21875 1.453125,1.875 1.5625,1.875 0.0625,0 0.09375,-0.03125 0.09375,-0.109375 z m 0,0"
               id="id-0d54fb5b-54bb-44df-aee5-ba09eb57f06e" />
          </symbol>
          <symbol
             overflow="visible"
             id="id-bde6497a-d9a1-4dc4-a28a-67def1cafc96"
             style="fill:#ffffff;stroke-width:0">
            <path
               style="fill:#ffffff;stroke:#ffffff;stroke-width:0"
               d="m 1.765625,-6.921875 -1.4375,0.109375 v 0.3125 c 0.703125,0 0.78125,0.0625 0.78125,0.5625 v 5.1875 c 0,0.4375 -0.109375,0.4375 -0.78125,0.4375 v 0.3125 c 0.328125,-0.015625 0.859375,-0.03125 1.109375,-0.03125 0.25,0 0.734375,0.015625 1.109375,0.03125 v -0.3125 c -0.671875,0 -0.78125,0 -0.78125,-0.4375 z m 0,0"
               id="id-437fe535-6c2e-4bfb-9192-7cfec56a0d49" />
          </symbol>
          <symbol
             overflow="visible"
             id="id-83d3c9df-2f9a-4396-bf0b-d274cde3044b"
             style="fill:#ffffff;stroke-width:0">
            <path
               style="fill:#ffffff;stroke:#ffffff;stroke-width:0"
               d="m 4.6875,-2.140625 c 0,-1.265625 -0.984375,-2.328125 -2.1875,-2.328125 -1.25,0 -2.21875,1.09375 -2.21875,2.328125 0,1.296875 1.03125,2.25 2.203125,2.25 1.203125,0 2.203125,-0.984375 2.203125,-2.25 z m -2.1875,2 c -0.4375,0 -0.875,-0.203125 -1.140625,-0.671875 -0.25,-0.4375 -0.25,-1.046875 -0.25,-1.40625 0,-0.390625 0,-0.921875 0.234375,-1.359375 0.265625,-0.453125 0.734375,-0.671875 1.140625,-0.671875 0.4375,0 0.859375,0.21875 1.125,0.65625 0.265625,0.421875 0.265625,1 0.265625,1.375 0,0.359375 0,0.90625 -0.21875,1.34375 -0.234375,0.453125 -0.671875,0.734375 -1.15625,0.734375 z m 0,0"
               id="id-8ba175dd-592d-4655-9af7-676c02c86113" />
          </symbol>
          <symbol
             overflow="visible"
             id="id-1d5092aa-4c5b-4d6c-a590-9e5824f8b3cf"
             style="fill:#ffffff;stroke-width:0">
            <path
               style="fill:#ffffff;stroke:#ffffff;stroke-width:0"
               d="m 2.21875,-1.71875 c -0.875,0 -0.875,-1 -0.875,-1.21875 0,-0.265625 0.015625,-0.59375 0.15625,-0.84375 0.078125,-0.109375 0.3125,-0.390625 0.71875,-0.390625 0.859375,0 0.859375,0.984375 0.859375,1.21875 0,0.265625 0,0.59375 -0.15625,0.84375 -0.078125,0.109375 -0.3125,0.390625 -0.703125,0.390625 z m -1.15625,0.390625 c 0,-0.03125 0,-0.265625 0.15625,-0.46875 0.390625,0.28125 0.8125,0.3125 1,0.3125 0.921875,0 1.609375,-0.6875 1.609375,-1.453125 0,-0.375 -0.15625,-0.734375 -0.40625,-0.96875 0.359375,-0.34375 0.71875,-0.390625 0.890625,-0.390625 0.03125,0 0.078125,0 0.109375,0.015625 -0.109375,0.03125 -0.171875,0.140625 -0.171875,0.265625 0,0.171875 0.140625,0.28125 0.296875,0.28125 0.09375,0 0.28125,-0.0625 0.28125,-0.296875 0,-0.171875 -0.109375,-0.484375 -0.5,-0.484375 -0.203125,0 -0.640625,0.0625 -1.0625,0.46875 -0.421875,-0.328125 -0.828125,-0.359375 -1.046875,-0.359375 -0.9375,0 -1.625,0.6875 -1.625,1.453125 0,0.4375 0.21875,0.8125 0.46875,1.03125 -0.125,0.140625 -0.3125,0.46875 -0.3125,0.828125 0,0.3125 0.140625,0.6875 0.453125,0.890625 -0.609375,0.15625 -0.921875,0.59375 -0.921875,0.984375 0,0.71875 0.984375,1.265625 2.203125,1.265625 1.171875,0 2.203125,-0.5 2.203125,-1.28125 0,-0.34375 -0.125,-0.859375 -0.640625,-1.140625 -0.53125,-0.265625 -1.109375,-0.265625 -1.71875,-0.265625 -0.25,0 -0.671875,0 -0.75,-0.015625 -0.3125,-0.046875 -0.515625,-0.34375 -0.515625,-0.671875 z m 1.4375,3.15625 c -1.015625,0 -1.703125,-0.515625 -1.703125,-1.046875 0,-0.453125 0.375,-0.828125 0.8125,-0.84375 h 0.59375 c 0.859375,0 1.96875,0 1.96875,0.84375 0,0.546875 -0.703125,1.046875 -1.671875,1.046875 z m 0,0"
               id="id-d2e5a0a3-a7fc-4b63-9220-39884620e305" />
          </symbol>
          <symbol
             overflow="visible"
             id="id-4a60e315-e4c2-4fc7-9f45-7a5f96c4d25f"
             style="fill:#ffffff;stroke-width:0">
            <path
               style="fill:#ffffff;stroke:#ffffff;stroke-width:0"
               d="m 2.078125,-1.9375 c 0.21875,0.046875 1.03125,0.203125 1.03125,0.921875 0,0.5 -0.34375,0.90625 -1.125,0.90625 -0.84375,0 -1.203125,-0.5625 -1.390625,-1.421875 -0.03125,-0.125 -0.03125,-0.15625 -0.140625,-0.15625 -0.125,0 -0.125,0.0625 -0.125,0.234375 v 1.328125 c 0,0.171875 0,0.234375 0.109375,0.234375 0.046875,0 0.0625,-0.015625 0.25,-0.203125 0.015625,-0.015625 0.015625,-0.03125 0.203125,-0.21875 0.4375,0.40625 0.890625,0.421875 1.09375,0.421875 1.140625,0 1.609375,-0.671875 1.609375,-1.390625 0,-0.515625 -0.296875,-0.828125 -0.421875,-0.9375 -0.328125,-0.328125 -0.71875,-0.40625 -1.140625,-0.484375 -0.5625,-0.109375 -1.21875,-0.234375 -1.21875,-0.8125 0,-0.359375 0.25,-0.765625 1.109375,-0.765625 1.09375,0 1.15625,0.90625 1.171875,1.203125 0,0.09375 0.09375,0.09375 0.109375,0.09375 0.140625,0 0.140625,-0.046875 0.140625,-0.234375 v -1.015625 c 0,-0.15625 0,-0.234375 -0.109375,-0.234375 -0.046875,0 -0.078125,0 -0.203125,0.125 -0.03125,0.03125 -0.125,0.125 -0.171875,0.15625 -0.375,-0.28125 -0.78125,-0.28125 -0.9375,-0.28125 -1.21875,0 -1.59375,0.671875 -1.59375,1.234375 0,0.34375 0.15625,0.625 0.421875,0.84375 0.328125,0.25 0.609375,0.3125 1.328125,0.453125 z m 0,0"
               id="id-c577e743-b6de-4b17-9da3-cb516f135205" />
          </symbol>
          <symbol
             overflow="visible"
             id="id-42491f1c-2a18-4929-bea4-1f6fb24852c9"
             style="fill:#ffffff;stroke-width:0">
            <path
               style="fill:#ffffff;stroke:#ffffff;stroke-width:0"
               d="m 1.171875,-2.171875 c 0,-1.625 0.8125,-2.046875 1.34375,-2.046875 0.09375,0 0.71875,0.015625 1.0625,0.375 -0.40625,0.03125 -0.46875,0.328125 -0.46875,0.453125 0,0.265625 0.1875,0.453125 0.453125,0.453125 0.265625,0 0.46875,-0.15625 0.46875,-0.46875 0,-0.671875 -0.765625,-1.0625 -1.53125,-1.0625 -1.25,0 -2.15625,1.078125 -2.15625,2.3125 0,1.28125 0.984375,2.265625 2.140625,2.265625 1.328125,0 1.65625,-1.203125 1.65625,-1.296875 0,-0.09375 -0.109375,-0.09375 -0.140625,-0.09375 -0.078125,0 -0.109375,0.03125 -0.125,0.09375 -0.28125,0.921875 -0.9375,1.046875 -1.296875,1.046875 -0.53125,0 -1.40625,-0.421875 -1.40625,-2.03125 z m 0,0"
               id="id-04bbeb45-8225-440f-8e62-8c3939c0f5a0" />
          </symbol>
          <symbol
             overflow="visible"
             id="id-1e9588c8-edb4-4c29-9b0f-8d8c3aae0e2f"
             style="fill:#ffffff;stroke-width:0">
            <path
               style="fill:#ffffff;stroke:#ffffff;stroke-width:0"
               d="m 3.3125,-0.75 c 0.046875,0.390625 0.3125,0.8125 0.78125,0.8125 0.21875,0 0.828125,-0.140625 0.828125,-0.953125 v -0.5625 h -0.25 v 0.5625 c 0,0.578125 -0.25,0.640625 -0.359375,0.640625 -0.328125,0 -0.375,-0.453125 -0.375,-0.5 v -1.984375 c 0,-0.421875 0,-0.8125 -0.359375,-1.1875 -0.390625,-0.390625 -0.890625,-0.546875 -1.359375,-0.546875 -0.828125,0 -1.515625,0.46875 -1.515625,1.125 0,0.296875 0.203125,0.46875 0.46875,0.46875 0.28125,0 0.453125,-0.203125 0.453125,-0.453125 0,-0.125 -0.046875,-0.453125 -0.515625,-0.453125 0.28125,-0.359375 0.765625,-0.46875 1.078125,-0.46875 0.5,0 1.0625,0.390625 1.0625,1.28125 v 0.359375 c -0.515625,0.03125 -1.203125,0.0625 -1.828125,0.359375 -0.75,0.34375 -1,0.859375 -1,1.296875 0,0.8125 0.96875,1.0625 1.59375,1.0625 0.65625,0 1.109375,-0.40625 1.296875,-0.859375 z m -0.0625,-1.640625 v 1 c 0,0.9375 -0.71875,1.28125 -1.171875,1.28125 -0.484375,0 -0.890625,-0.34375 -0.890625,-0.84375 0,-0.546875 0.421875,-1.375 2.0625,-1.4375 z m 0,0"
               id="id-6dce069e-7c9d-4323-b5db-9456f48ebe03" />
          </symbol>
          <symbol
             overflow="visible"
             id="id-61acf8c6-95cf-42c7-a76a-5fb9e194fdee"
             style="fill:#ffffff;stroke-width:0">
            <path
               style="fill:#ffffff;stroke:#ffffff;stroke-width:0"
               d="m 1.109375,-2.515625 c 0.0625,-1.484375 0.90625,-1.734375 1.25,-1.734375 1.015625,0 1.125,1.34375 1.125,1.734375 z m 0,0.21875 h 2.78125 c 0.21875,0 0.25,0 0.25,-0.21875 0,-0.984375 -0.546875,-1.953125 -1.78125,-1.953125 -1.15625,0 -2.078125,1.03125 -2.078125,2.28125 0,1.328125 1.046875,2.296875 2.1875,2.296875 1.21875,0 1.671875,-1.109375 1.671875,-1.296875 0,-0.09375 -0.078125,-0.125 -0.140625,-0.125 -0.078125,0 -0.109375,0.0625 -0.125,0.140625 -0.34375,1.03125 -1.25,1.03125 -1.34375,1.03125 -0.5,0 -0.890625,-0.296875 -1.125,-0.671875 -0.296875,-0.46875 -0.296875,-1.125 -0.296875,-1.484375 z m 0,0"
               id="id-76deb7e9-95c7-49d7-a189-9c958bab4bf2" />
          </symbol>
          <symbol
             overflow="visible"
             id="id-fdefe4f3-7c96-4ea5-a3b6-07b6568ff412"
             style="fill:#ffffff;stroke-width:0">
            <path
               style="fill:#ffffff;stroke:#ffffff;stroke-width:0"
               d="m 2.875,-2.5 c 0,-0.765625 -0.109375,-1.96875 -0.65625,-3.109375 -0.59375,-1.21875 -1.453125,-1.875 -1.546875,-1.875 -0.0625,0 -0.109375,0.046875 -0.109375,0.109375 0,0.03125 0,0.046875 0.1875,0.234375 0.984375,0.984375 1.546875,2.5625 1.546875,4.640625 0,1.71875 -0.359375,3.46875 -1.59375,4.71875 -0.140625,0.125 -0.140625,0.140625 -0.140625,0.171875 0,0.0625 0.046875,0.109375 0.109375,0.109375 0.09375,0 1,-0.6875 1.578125,-1.953125 0.515625,-1.09375 0.625,-2.203125 0.625,-3.046875 z m 0,0"
               id="id-338dcc56-bf23-4193-94f5-3a5e5091b40a" />
          </symbol>
        </g>
      </defs>
      <g
         id="id-5e307009-9232-4ad6-a144-c088e79e22c1"
         transform="translate(-70.595,-98.9684)"
         style="fill:#ffffff;stroke-width:0">
        <g
           style="fill:#ffffff;fill-opacity:1;stroke-width:0"
           id="id-5c9e6e15-781a-4b71-9564-8a60c355e553">
          <g
             transform="translate(70.22,106.475)"
             style="fill:#ffffff;stroke-width:0"
             id="g15896">
            <path
               style="fill:#000000;stroke:#ffffff;stroke-width:0"
               d="m 5.15625,-3.71875 c 0.140625,0 0.5,0 0.5,-0.34375 0,-0.234375 -0.21875,-0.234375 -0.390625,-0.234375 h -2.28125 c -1.5,0 -2.609375,1.640625 -2.609375,2.828125 0,0.875 0.59375,1.578125 1.5,1.578125 1.171875,0 2.5,-1.203125 2.5,-2.734375 0,-0.171875 0,-0.65625 -0.3125,-1.09375 z m -3.265625,3.609375 c -0.5,0 -0.890625,-0.359375 -0.890625,-1.078125 0,-0.296875 0.109375,-1.109375 0.46875,-1.703125 0.421875,-0.6875 1.015625,-0.828125 1.359375,-0.828125 0.828125,0 0.90625,0.65625 0.90625,0.96875 0,0.46875 -0.203125,1.28125 -0.53125,1.796875 -0.390625,0.578125 -0.9375,0.84375 -1.3125,0.84375 z m 0,0"
               id="id-cd7d16ca-5262-4120-bb67-c31fb8e3a6c5" />
          </g>
        </g>
        <g
           style="fill:#ffffff;fill-opacity:1;stroke-width:0"
           id="id-316ac6b4-2513-4089-86e4-09ce71137aa5">
          <g
             transform="translate(76.27,102.859)"
             style="fill:#ffffff;stroke-width:0"
             id="g15900">
            <path
               style="fill:#000000;stroke:#ffffff;stroke-width:0"
               d="m 2.015625,-3.296875 c 0.0625,-0.109375 0.0625,-0.171875 0.0625,-0.21875 0,-0.21875 -0.1875,-0.375 -0.40625,-0.375 -0.265625,0 -0.34375,0.21875 -0.375,0.328125 l -0.921875,3.015625 c -0.015625,0.015625 -0.046875,0.09375 -0.046875,0.109375 0,0.078125 0.21875,0.15625 0.28125,0.15625 0.046875,0 0.046875,-0.015625 0.09375,-0.125 z m 0,0"
               id="id-7e68a66a-9a7c-4327-92f3-1845fd2e538b" />
          </g>
        </g>
        <g
           style="fill:#ffffff;fill-opacity:1;stroke-width:0"
           id="id-2025a756-0d5f-4542-bae8-c2ecb2411bb8">
          <g
             transform="translate(82.386,106.475)"
             style="fill:#ffffff;stroke-width:0"
             id="g15904">
            <path
               style="fill:#000000;stroke:#ffffff;stroke-width:0"
               d="m 3.296875,2.390625 c 0,-0.03125 0,-0.046875 -0.171875,-0.21875 -1.234375,-1.25 -1.5625,-3.140625 -1.5625,-4.671875 0,-1.734375 0.375,-3.46875 1.609375,-4.703125 0.125,-0.125 0.125,-0.140625 0.125,-0.171875 0,-0.078125 -0.03125,-0.109375 -0.09375,-0.109375 -0.109375,0 -1,0.6875 -1.59375,1.953125 -0.5,1.09375 -0.625,2.203125 -0.625,3.03125 0,0.78125 0.109375,1.984375 0.65625,3.125 0.609375,1.21875 1.453125,1.875 1.5625,1.875 0.0625,0 0.09375,-0.03125 0.09375,-0.109375 z m 0,0"
               id="id-9b824b38-79fd-45df-a721-f1cd51d7e1f7" />
          </g>
          <g
             transform="translate(86.2605,106.475)"
             style="fill:#ffffff;stroke-width:0"
             id="g15907">
            <path
               style="fill:#000000;stroke:#ffffff;stroke-width:0"
               d="m 1.765625,-6.921875 -1.4375,0.109375 v 0.3125 c 0.703125,0 0.78125,0.0625 0.78125,0.5625 v 5.1875 c 0,0.4375 -0.109375,0.4375 -0.78125,0.4375 v 0.3125 c 0.328125,-0.015625 0.859375,-0.03125 1.109375,-0.03125 0.25,0 0.734375,0.015625 1.109375,0.03125 v -0.3125 c -0.671875,0 -0.78125,0 -0.78125,-0.4375 z m 0,0"
               id="id-58423ac3-0472-4991-9784-db37408254d0" />
          </g>
          <g
             transform="translate(89.0281,106.475)"
             style="fill:#ffffff;stroke-width:0"
             id="g15910">
            <path
               style="fill:#000000;stroke:#ffffff;stroke-width:0"
               d="m 4.6875,-2.140625 c 0,-1.265625 -0.984375,-2.328125 -2.1875,-2.328125 -1.25,0 -2.21875,1.09375 -2.21875,2.328125 0,1.296875 1.03125,2.25 2.203125,2.25 1.203125,0 2.203125,-0.984375 2.203125,-2.25 z m -2.1875,2 c -0.4375,0 -0.875,-0.203125 -1.140625,-0.671875 -0.25,-0.4375 -0.25,-1.046875 -0.25,-1.40625 0,-0.390625 0,-0.921875 0.234375,-1.359375 0.265625,-0.453125 0.734375,-0.671875 1.140625,-0.671875 0.4375,0 0.859375,0.21875 1.125,0.65625 0.265625,0.421875 0.265625,1 0.265625,1.375 0,0.359375 0,0.90625 -0.21875,1.34375 -0.234375,0.453125 -0.671875,0.734375 -1.15625,0.734375 z m 0,0"
               id="id-b299d836-e65c-476c-bae1-a44fd514180c" />
          </g>
          <g
             transform="translate(94.0094,106.475)"
             style="fill:#ffffff;stroke-width:0"
             id="g15913">
            <path
               style="fill:#000000;stroke:#ffffff;stroke-width:0"
               d="m 2.21875,-1.71875 c -0.875,0 -0.875,-1 -0.875,-1.21875 0,-0.265625 0.015625,-0.59375 0.15625,-0.84375 0.078125,-0.109375 0.3125,-0.390625 0.71875,-0.390625 0.859375,0 0.859375,0.984375 0.859375,1.21875 0,0.265625 0,0.59375 -0.15625,0.84375 -0.078125,0.109375 -0.3125,0.390625 -0.703125,0.390625 z m -1.15625,0.390625 c 0,-0.03125 0,-0.265625 0.15625,-0.46875 0.390625,0.28125 0.8125,0.3125 1,0.3125 0.921875,0 1.609375,-0.6875 1.609375,-1.453125 0,-0.375 -0.15625,-0.734375 -0.40625,-0.96875 0.359375,-0.34375 0.71875,-0.390625 0.890625,-0.390625 0.03125,0 0.078125,0 0.109375,0.015625 -0.109375,0.03125 -0.171875,0.140625 -0.171875,0.265625 0,0.171875 0.140625,0.28125 0.296875,0.28125 0.09375,0 0.28125,-0.0625 0.28125,-0.296875 0,-0.171875 -0.109375,-0.484375 -0.5,-0.484375 -0.203125,0 -0.640625,0.0625 -1.0625,0.46875 -0.421875,-0.328125 -0.828125,-0.359375 -1.046875,-0.359375 -0.9375,0 -1.625,0.6875 -1.625,1.453125 0,0.4375 0.21875,0.8125 0.46875,1.03125 -0.125,0.140625 -0.3125,0.46875 -0.3125,0.828125 0,0.3125 0.140625,0.6875 0.453125,0.890625 -0.609375,0.15625 -0.921875,0.59375 -0.921875,0.984375 0,0.71875 0.984375,1.265625 2.203125,1.265625 1.171875,0 2.203125,-0.5 2.203125,-1.28125 0,-0.34375 -0.125,-0.859375 -0.640625,-1.140625 -0.53125,-0.265625 -1.109375,-0.265625 -1.71875,-0.265625 -0.25,0 -0.671875,0 -0.75,-0.015625 -0.3125,-0.046875 -0.515625,-0.34375 -0.515625,-0.671875 z m 1.4375,3.15625 c -1.015625,0 -1.703125,-0.515625 -1.703125,-1.046875 0,-0.453125 0.375,-0.828125 0.8125,-0.84375 h 0.59375 c 0.859375,0 1.96875,0 1.96875,0.84375 0,0.546875 -0.703125,1.046875 -1.671875,1.046875 z m 0,0"
               id="id-c7e5c281-1a11-4edf-85b4-26207488d499" />
          </g>
        </g>
        <g
           style="fill:#ffffff;fill-opacity:1;stroke-width:0"
           id="id-135027d7-1619-4ae0-a410-89a153c33052">
          <g
             transform="translate(102.308,106.475)"
             style="fill:#ffffff;stroke-width:0"
             id="g15917">
            <path
               style="fill:#000000;stroke:#ffffff;stroke-width:0"
               d="m 2.078125,-1.9375 c 0.21875,0.046875 1.03125,0.203125 1.03125,0.921875 0,0.5 -0.34375,0.90625 -1.125,0.90625 -0.84375,0 -1.203125,-0.5625 -1.390625,-1.421875 -0.03125,-0.125 -0.03125,-0.15625 -0.140625,-0.15625 -0.125,0 -0.125,0.0625 -0.125,0.234375 v 1.328125 c 0,0.171875 0,0.234375 0.109375,0.234375 0.046875,0 0.0625,-0.015625 0.25,-0.203125 0.015625,-0.015625 0.015625,-0.03125 0.203125,-0.21875 0.4375,0.40625 0.890625,0.421875 1.09375,0.421875 1.140625,0 1.609375,-0.671875 1.609375,-1.390625 0,-0.515625 -0.296875,-0.828125 -0.421875,-0.9375 -0.328125,-0.328125 -0.71875,-0.40625 -1.140625,-0.484375 -0.5625,-0.109375 -1.21875,-0.234375 -1.21875,-0.8125 0,-0.359375 0.25,-0.765625 1.109375,-0.765625 1.09375,0 1.15625,0.90625 1.171875,1.203125 0,0.09375 0.09375,0.09375 0.109375,0.09375 0.140625,0 0.140625,-0.046875 0.140625,-0.234375 v -1.015625 c 0,-0.15625 0,-0.234375 -0.109375,-0.234375 -0.046875,0 -0.078125,0 -0.203125,0.125 -0.03125,0.03125 -0.125,0.125 -0.171875,0.15625 -0.375,-0.28125 -0.78125,-0.28125 -0.9375,-0.28125 -1.21875,0 -1.59375,0.671875 -1.59375,1.234375 0,0.34375 0.15625,0.625 0.421875,0.84375 0.328125,0.25 0.609375,0.3125 1.328125,0.453125 z m 0,0"
               id="id-d290b9b1-3221-4846-922c-3bbd2b1826a0" />
          </g>
          <g
             transform="translate(106.237,106.475)"
             style="fill:#ffffff;stroke-width:0"
             id="g15920">
            <path
               style="fill:#000000;stroke:#ffffff;stroke-width:0"
               d="m 1.171875,-2.171875 c 0,-1.625 0.8125,-2.046875 1.34375,-2.046875 0.09375,0 0.71875,0.015625 1.0625,0.375 -0.40625,0.03125 -0.46875,0.328125 -0.46875,0.453125 0,0.265625 0.1875,0.453125 0.453125,0.453125 0.265625,0 0.46875,-0.15625 0.46875,-0.46875 0,-0.671875 -0.765625,-1.0625 -1.53125,-1.0625 -1.25,0 -2.15625,1.078125 -2.15625,2.3125 0,1.28125 0.984375,2.265625 2.140625,2.265625 1.328125,0 1.65625,-1.203125 1.65625,-1.296875 0,-0.09375 -0.109375,-0.09375 -0.140625,-0.09375 -0.078125,0 -0.109375,0.03125 -0.125,0.09375 -0.28125,0.921875 -0.9375,1.046875 -1.296875,1.046875 -0.53125,0 -1.40625,-0.421875 -1.40625,-2.03125 z m 0,0"
               id="id-c3af3edc-287c-40b0-865d-b9d15a2c5d72" />
          </g>
          <g
             transform="translate(110.665,106.475)"
             style="fill:#ffffff;stroke-width:0"
             id="g15923">
            <path
               style="fill:#000000;stroke:#ffffff;stroke-width:0"
               d="m 3.3125,-0.75 c 0.046875,0.390625 0.3125,0.8125 0.78125,0.8125 0.21875,0 0.828125,-0.140625 0.828125,-0.953125 v -0.5625 h -0.25 v 0.5625 c 0,0.578125 -0.25,0.640625 -0.359375,0.640625 -0.328125,0 -0.375,-0.453125 -0.375,-0.5 v -1.984375 c 0,-0.421875 0,-0.8125 -0.359375,-1.1875 -0.390625,-0.390625 -0.890625,-0.546875 -1.359375,-0.546875 -0.828125,0 -1.515625,0.46875 -1.515625,1.125 0,0.296875 0.203125,0.46875 0.46875,0.46875 0.28125,0 0.453125,-0.203125 0.453125,-0.453125 0,-0.125 -0.046875,-0.453125 -0.515625,-0.453125 0.28125,-0.359375 0.765625,-0.46875 1.078125,-0.46875 0.5,0 1.0625,0.390625 1.0625,1.28125 v 0.359375 c -0.515625,0.03125 -1.203125,0.0625 -1.828125,0.359375 -0.75,0.34375 -1,0.859375 -1,1.296875 0,0.8125 0.96875,1.0625 1.59375,1.0625 0.65625,0 1.109375,-0.40625 1.296875,-0.859375 z m -0.0625,-1.640625 v 1 c 0,0.9375 -0.71875,1.28125 -1.171875,1.28125 -0.484375,0 -0.890625,-0.34375 -0.890625,-0.84375 0,-0.546875 0.421875,-1.375 2.0625,-1.4375 z m 0,0"
               id="id-202a7d15-54b2-4eb8-9b93-de791e45c87e" />
          </g>
          <g
             transform="translate(115.646,106.475)"
             style="fill:#ffffff;stroke-width:0"
             id="g15926">
            <path
               style="fill:#000000;stroke:#ffffff;stroke-width:0"
               d="m 1.765625,-6.921875 -1.4375,0.109375 v 0.3125 c 0.703125,0 0.78125,0.0625 0.78125,0.5625 v 5.1875 c 0,0.4375 -0.109375,0.4375 -0.78125,0.4375 v 0.3125 c 0.328125,-0.015625 0.859375,-0.03125 1.109375,-0.03125 0.25,0 0.734375,0.015625 1.109375,0.03125 v -0.3125 c -0.671875,0 -0.78125,0 -0.78125,-0.4375 z m 0,0"
               id="id-8f141360-a5a4-400a-969c-33d4fdb253f5" />
          </g>
          <g
             transform="translate(118.414,106.475)"
             style="fill:#ffffff;stroke-width:0"
             id="g15929">
            <path
               style="fill:#000000;stroke:#ffffff;stroke-width:0"
               d="m 1.109375,-2.515625 c 0.0625,-1.484375 0.90625,-1.734375 1.25,-1.734375 1.015625,0 1.125,1.34375 1.125,1.734375 z m 0,0.21875 h 2.78125 c 0.21875,0 0.25,0 0.25,-0.21875 0,-0.984375 -0.546875,-1.953125 -1.78125,-1.953125 -1.15625,0 -2.078125,1.03125 -2.078125,2.28125 0,1.328125 1.046875,2.296875 2.1875,2.296875 1.21875,0 1.671875,-1.109375 1.671875,-1.296875 0,-0.09375 -0.078125,-0.125 -0.140625,-0.125 -0.078125,0 -0.109375,0.0625 -0.125,0.140625 -0.34375,1.03125 -1.25,1.03125 -1.34375,1.03125 -0.5,0 -0.890625,-0.296875 -1.125,-0.671875 -0.296875,-0.46875 -0.296875,-1.125 -0.296875,-1.484375 z m 0,0"
               id="id-2ad3cbc4-de54-4860-8e37-dbc1ed77f0bb" />
          </g>
          <g
             transform="translate(122.841,106.475)"
             style="fill:#ffffff;stroke-width:0"
             id="g15932">
            <path
               style="fill:#000000;stroke:#ffffff;stroke-width:0"
               d="m 2.875,-2.5 c 0,-0.765625 -0.109375,-1.96875 -0.65625,-3.109375 -0.59375,-1.21875 -1.453125,-1.875 -1.546875,-1.875 -0.0625,0 -0.109375,0.046875 -0.109375,0.109375 0,0.03125 0,0.046875 0.1875,0.234375 0.984375,0.984375 1.546875,2.5625 1.546875,4.640625 0,1.71875 -0.359375,3.46875 -1.59375,4.71875 -0.140625,0.125 -0.140625,0.140625 -0.140625,0.171875 0,0.0625 0.046875,0.109375 0.109375,0.109375 0.09375,0 1,-0.6875 1.578125,-1.953125 0.515625,-1.09375 0.625,-2.203125 0.625,-3.046875 z m 0,0"
               id="id-1538a2ae-6765-45dc-940b-3b71e8e858f4" />
          </g>
        </g>
      </g>
    </g>
    <text
       xml:space="preserve"
       style="font-size:6.03278px;line-height:1.25;font-family:sans-serif;fill:#000000;stroke-width:0.264583"
       x="212.7477"
       y="52.88855"
       id="text27241"><tspan
         sodipodi:role="line"
         id="tspan27237"
         style="fill:#000000;stroke-width:0.264583"
         x="212.7477"
         y="52.88855">Virgin</tspan><tspan
         sodipodi:role="line"
         style="fill:#000000;stroke-width:0.264583"
         x="212.7477"
         y="60.429523"
         id="tspan27239">curve</tspan></text>
    <path
       style="fill:#000000;stroke:#000000;stroke-width:0.264583px;stroke-linecap:butt;stroke-linejoin:miter;stroke-opacity:1;marker-end:url(#Arrow1Mend)"
       d="m 211.51014,58.024393 -5.04182,2.910898"
       id="path29856" />
    <path
       style="fill:none;stroke:#ff0000;stroke-width:1;stroke-linecap:butt;stroke-linejoin:miter;stroke-miterlimit:4;stroke-dasharray:2, 1;stroke-dashoffset:0;stroke-opacity:1"
       d="m 191.11145,40.965516 v 67.483374"
       id="path34853" />
    <g
       transform="matrix(0.887883,0,0,0.887883,180.26816,98.600224)"
       ns1:version="1.6.0"
       ns1:texconverter="pdflatex"
       ns1:pdfconverter="inkscape"
       ns1:text="$\\sigma'_c$"
       ns1:preamble="C:\Users\$r.984804\OneDrive - University of Maine System\UMaine_docs\Faculty_Service\Brochure4+1\preamble_triptico.tex"
       ns1:scale="2.5168309531773527"
       ns1:alignment="middle center"
       ns1:stroke-to-path="0"
       ns1:inkscapeversion="1.1.1"
       ns1:jacobian_sqrt="0.887883"
       id="g36117"
       style="fill:#ff0000">
      <defs
         id="id-a6ac1e64-a6af-4143-9418-958f563520a7">
        <g
           id="id-992fa9b6-146f-401d-9e06-47f120064fd1">
          <symbol
             overflow="visible"
             id="id-1c4d5fc0-0215-4d73-880d-09f370b5a726">
            <path
               style="stroke:none;stroke-width:0"
               d=""
               id="id-3965db2c-e440-4a36-a133-37f53c1e46fe" />
          </symbol>
          <symbol
             overflow="visible"
             id="id-c6336bc5-cf37-42ae-a027-cfd69c20928f">
            <path
               style="stroke:none;stroke-width:0"
               d="m 5.15625,-3.71875 c 0.140625,0 0.5,0 0.5,-0.34375 0,-0.234375 -0.21875,-0.234375 -0.390625,-0.234375 h -2.28125 c -1.5,0 -2.609375,1.640625 -2.609375,2.828125 0,0.875 0.59375,1.578125 1.5,1.578125 1.171875,0 2.5,-1.203125 2.5,-2.734375 0,-0.171875 0,-0.65625 -0.3125,-1.09375 z m -3.265625,3.609375 c -0.5,0 -0.890625,-0.359375 -0.890625,-1.078125 0,-0.296875 0.109375,-1.109375 0.46875,-1.703125 0.421875,-0.6875 1.015625,-0.828125 1.359375,-0.828125 0.828125,0 0.90625,0.65625 0.90625,0.96875 0,0.46875 -0.203125,1.28125 -0.53125,1.796875 -0.390625,0.578125 -0.9375,0.84375 -1.3125,0.84375 z m 0,0"
               id="id-71f300e8-cdc3-4dd3-bf60-d5fc4582838d" />
          </symbol>
          <symbol
             overflow="visible"
             id="id-3bd2f110-69a8-4876-9663-8ed3aa9e2a5a">
            <path
               style="stroke:none;stroke-width:0"
               d=""
               id="id-5509932d-aff2-44dd-af96-04b050b0c7f2" />
          </symbol>
          <symbol
             overflow="visible"
             id="id-8c4652d8-87ee-4ef8-8b4f-a52c83d9218e">
            <path
               style="stroke:none;stroke-width:0"
               d="m 2.015625,-3.296875 c 0.0625,-0.109375 0.0625,-0.171875 0.0625,-0.21875 0,-0.21875 -0.1875,-0.375 -0.40625,-0.375 -0.265625,0 -0.34375,0.21875 -0.375,0.328125 l -0.921875,3.015625 c -0.015625,0.015625 -0.046875,0.09375 -0.046875,0.109375 0,0.078125 0.21875,0.15625 0.28125,0.15625 0.046875,0 0.046875,-0.015625 0.09375,-0.125 z m 0,0"
               id="id-076f7652-addd-4913-8c7c-41ab4ee80581" />
          </symbol>
          <symbol
             overflow="visible"
             id="id-319d5556-e1dd-4d11-95c9-e805fd47c150">
            <path
               style="stroke:none;stroke-width:0"
               d=""
               id="id-fa200b86-abbc-4f17-80bb-5ad45b071262" />
          </symbol>
          <symbol
             overflow="visible"
             id="id-ad2e7b60-24e7-4e6f-b1bc-eaaee1163dcd">
            <path
               style="stroke:none;stroke-width:0"
               d="m 3.046875,-2.671875 c -0.25,0.046875 -0.34375,0.234375 -0.34375,0.390625 0,0.1875 0.140625,0.265625 0.265625,0.265625 0.15625,0 0.390625,-0.109375 0.390625,-0.453125 0,-0.46875 -0.53125,-0.609375 -0.90625,-0.609375 -1.046875,0 -2.015625,0.96875 -2.015625,1.9375 0,0.59375 0.40625,1.203125 1.28125,1.203125 1.1875,0 1.734375,-0.6875 1.734375,-0.78125 0,-0.046875 -0.0625,-0.125 -0.125,-0.125 -0.03125,0 -0.046875,0.015625 -0.109375,0.078125 -0.546875,0.640625 -1.359375,0.640625 -1.484375,0.640625 -0.5,0 -0.71875,-0.34375 -0.71875,-0.78125 0,-0.1875 0.09375,-0.953125 0.453125,-1.4375 0.265625,-0.34375 0.625,-0.53125 0.984375,-0.53125 0.09375,0 0.421875,0.015625 0.59375,0.203125 z m 0,0"
               id="id-71cf97dc-a6e6-4b92-abff-717436af1806" />
          </symbol>
        </g>
      </defs>
      <g
         id="id-3df6ae87-bb43-4c2e-90f7-6ab07f458063"
         transform="translate(-70.595,-98.9684)"
         style="fill:#ff0000">
        <g
           style="fill:#ff0000;fill-opacity:1"
           id="id-138b81ab-66c5-426b-bdcf-0e14238eef6d">
          <g
             transform="translate(70.22,106.475)"
             id="g36105"
             style="fill:#ff0000">
            <path
               style="fill:#ff0000;stroke:none;stroke-width:0"
               d="m 5.15625,-3.71875 c 0.140625,0 0.5,0 0.5,-0.34375 0,-0.234375 -0.21875,-0.234375 -0.390625,-0.234375 h -2.28125 c -1.5,0 -2.609375,1.640625 -2.609375,2.828125 0,0.875 0.59375,1.578125 1.5,1.578125 1.171875,0 2.5,-1.203125 2.5,-2.734375 0,-0.171875 0,-0.65625 -0.3125,-1.09375 z m -3.265625,3.609375 c -0.5,0 -0.890625,-0.359375 -0.890625,-1.078125 0,-0.296875 0.109375,-1.109375 0.46875,-1.703125 0.421875,-0.6875 1.015625,-0.828125 1.359375,-0.828125 0.828125,0 0.90625,0.65625 0.90625,0.96875 0,0.46875 -0.203125,1.28125 -0.53125,1.796875 -0.390625,0.578125 -0.9375,0.84375 -1.3125,0.84375 z m 0,0"
               id="id-74bd7f5f-5b25-4428-84ce-c2c5f2907427" />
          </g>
        </g>
        <g
           style="fill:#ff0000;fill-opacity:1"
           id="id-0d5fd27c-4566-4e7e-ac4b-ced27e2712cd">
          <g
             transform="translate(76.27,102.859)"
             id="g36109"
             style="fill:#ff0000">
            <path
               style="fill:#ff0000;stroke:none;stroke-width:0"
               d="m 2.015625,-3.296875 c 0.0625,-0.109375 0.0625,-0.171875 0.0625,-0.21875 0,-0.21875 -0.1875,-0.375 -0.40625,-0.375 -0.265625,0 -0.34375,0.21875 -0.375,0.328125 l -0.921875,3.015625 c -0.015625,0.015625 -0.046875,0.09375 -0.046875,0.109375 0,0.078125 0.21875,0.15625 0.28125,0.15625 0.046875,0 0.046875,-0.015625 0.09375,-0.125 z m 0,0"
               id="id-bd93f2c5-e253-40fe-9433-24bc36cf9c1f" />
          </g>
        </g>
        <g
           style="fill:#ff0000;fill-opacity:1"
           id="id-479376eb-fe74-4e40-8e88-d4bf162647a6">
          <g
             transform="translate(75.912,108.938)"
             id="g36113"
             style="fill:#ff0000">
            <path
               style="fill:#ff0000;stroke:none;stroke-width:0"
               d="m 3.046875,-2.671875 c -0.25,0.046875 -0.34375,0.234375 -0.34375,0.390625 0,0.1875 0.140625,0.265625 0.265625,0.265625 0.15625,0 0.390625,-0.109375 0.390625,-0.453125 0,-0.46875 -0.53125,-0.609375 -0.90625,-0.609375 -1.046875,0 -2.015625,0.96875 -2.015625,1.9375 0,0.59375 0.40625,1.203125 1.28125,1.203125 1.1875,0 1.734375,-0.6875 1.734375,-0.78125 0,-0.046875 -0.0625,-0.125 -0.125,-0.125 -0.03125,0 -0.046875,0.015625 -0.109375,0.078125 -0.546875,0.640625 -1.359375,0.640625 -1.484375,0.640625 -0.5,0 -0.71875,-0.34375 -0.71875,-0.78125 0,-0.1875 0.09375,-0.953125 0.453125,-1.4375 0.265625,-0.34375 0.625,-0.53125 0.984375,-0.53125 0.09375,0 0.421875,0.015625 0.59375,0.203125 z m 0,0"
               id="id-89a36abd-0d2e-425e-98a5-285b65eda326" />
          </g>
        </g>
      </g>
    </g>
    <text
       xml:space="preserve"
       style="font-size:6.03278px;line-height:1.25;font-family:sans-serif;fill:#ff0000;stroke-width:0.264583"
       x="135.57159"
       y="95.682884"
       id="text37000"><tspan
         sodipodi:role="line"
         style="fill:#ff0000;stroke-width:0.264583"
         x="135.57159"
         y="95.682884"
         id="tspan36998">Preconsolidation</tspan><tspan
         sodipodi:role="line"
         style="fill:#ff0000;stroke-width:0.264583"
         x="135.57159"
         y="103.22386"
         id="tspan40488">pressure</tspan></text>
  </g>
</svg>
