<?xml version="1.0" encoding="UTF-8" standalone="no"?>
<!-- Created with Inkscape (http://www.inkscape.org/) -->

<svg
   width="6in"
   height="1.5in"
   viewBox="0 0 152.4 38.100001"
   version="1.1"
   id="svg1048"
   inkscape:version="1.1.1 (3bf5ae0d25, 2021-09-20)"
   sodipodi:docname="Example_consol.svg"
   xmlns:inkscape="http://www.inkscape.org/namespaces/inkscape"
   xmlns:sodipodi="http://sodipodi.sourceforge.net/DTD/sodipodi-0.dtd"
   xmlns="http://www.w3.org/2000/svg"
   xmlns:svg="http://www.w3.org/2000/svg"
   xmlns:ns1="http://www.iki.fi/pav/software/textext/">
  <sodipodi:namedview
     id="namedview1050"
     pagecolor="#505050"
     bordercolor="#ffffff"
     borderopacity="1"
     inkscape:pageshadow="0"
     inkscape:pageopacity="0"
     inkscape:pagecheckerboard="1"
     inkscape:document-units="mm"
     showgrid="false"
     units="in"
     inkscape:zoom="1.2548169"
     inkscape:cx="224.73398"
     inkscape:cy="47.417275"
     inkscape:window-width="1920"
     inkscape:window-height="1015"
     inkscape:window-x="-9"
     inkscape:window-y="-9"
     inkscape:window-maximized="1"
     inkscape:current-layer="layer1"
     inkscape:snap-intersection-paths="true"
     inkscape:snap-midpoints="true" />
  <defs
     id="defs1045">
    <marker
       style="overflow:visible;"
       id="marker9760"
       refX="0.0"
       refY="0.0"
       orient="auto"
       inkscape:stockid="Arrow1Send"
       inkscape:isstock="true">
      <path
         transform="scale(0.2) rotate(180) translate(6,0)"
         style="fill-rule:evenodd;fill:context-stroke;stroke:context-stroke;stroke-width:1.0pt;"
         d="M 0.0,0.0 L 5.0,-5.0 L -12.5,0.0 L 5.0,5.0 L 0.0,0.0 z "
         id="path9758" />
    </marker>
    <marker
       style="overflow:visible;"
       id="Arrow1Send"
       refX="0.0"
       refY="0.0"
       orient="auto"
       inkscape:stockid="Arrow1Send"
       inkscape:isstock="true">
      <path
         transform="scale(0.2) rotate(180) translate(6,0)"
         style="fill-rule:evenodd;fill:context-stroke;stroke:context-stroke;stroke-width:1.0pt;"
         d="M 0.0,0.0 L 5.0,-5.0 L -12.5,0.0 L 5.0,5.0 L 0.0,0.0 z "
         id="path4437" />
    </marker>
    <marker
       style="overflow:visible"
       id="Arrow1Mstart"
       refX="0.0"
       refY="0.0"
       orient="auto"
       inkscape:stockid="Arrow1Mstart"
       inkscape:isstock="true">
      <path
         transform="scale(0.4) translate(10,0)"
         style="fill-rule:evenodd;fill:context-stroke;stroke:context-stroke;stroke-width:1.0pt"
         d="M 0.0,0.0 L 5.0,-5.0 L -12.5,0.0 L 5.0,5.0 L 0.0,0.0 z "
         id="path4428" />
    </marker>
    <marker
       style="overflow:visible;"
       id="Arrow1Mend"
       refX="0.0"
       refY="0.0"
       orient="auto"
       inkscape:stockid="Arrow1Mend"
       inkscape:isstock="true">
      <path
         transform="scale(0.4) rotate(180) translate(10,0)"
         style="fill-rule:evenodd;fill:context-stroke;stroke:context-stroke;stroke-width:1.0pt;"
         d="M 0.0,0.0 L 5.0,-5.0 L -12.5,0.0 L 5.0,5.0 L 0.0,0.0 z "
         id="path4431" />
    </marker>
  </defs>
  <g
     inkscape:label="Layer 1"
     inkscape:groupmode="layer"
     id="layer1">
    <rect
       style="fill:#ffb380;stroke:#000000;stroke-width:0.45;stroke-linecap:round;stroke-linejoin:round;paint-order:fill markers stroke;stroke-miterlimit:4;stroke-dasharray:none"
       id="rect1135"
       width="44.728916"
       height="19.233433"
       x="4.1746988"
       y="15.356928" />
    <text
       xml:space="preserve"
       style="font-size:3.52777px;line-height:1;font-family:'Times New Roman';-inkscape-font-specification:'Times New Roman, ';text-align:center;text-anchor:middle;stroke-width:0.264583"
       x="11.55497"
       y="21.246233"
       id="text1835"><tspan
         sodipodi:role="line"
         id="tspan1833"
         style="stroke-width:0.264583"
         x="11.55497"
         y="21.246233">NC soil</tspan></text>
    <rect
       style="fill:#ececec;stroke:#ff0000;stroke-width:0.35;stroke-linecap:round;stroke-linejoin:round;stroke-miterlimit:4;stroke-dasharray:none;paint-order:fill markers stroke"
       id="rect1975"
       width="1.8637048"
       height="2.5346386"
       x="25.293827"
       y="23.028061" />
    <text
       xml:space="preserve"
       style="font-size:3.52777px;line-height:1;font-family:'Times New Roman';-inkscape-font-specification:'Times New Roman, ';text-align:center;text-anchor:middle;stroke-width:0.264583"
       x="36.826805"
       y="28.7756"
       id="text3269"><tspan
         sodipodi:role="line"
         id="tspan3267"
         style="stroke-width:0.264583"
         x="36.826805"
         y="28.7756">Sample</tspan></text>
    <path
       style="fill:none;stroke:#000000;stroke-width:0.264583px;stroke-linecap:butt;stroke-linejoin:miter;stroke-opacity:1"
       d="M 31.38479,27.65738 27.157531,25.5627"
       id="path3552" />
    <rect
       style="fill:#b7c8c4;stroke:#4d4d4d;stroke-width:0.45000102;stroke-linecap:round;stroke-linejoin:round;stroke-miterlimit:4;stroke-dasharray:1.80000406,0.90000203;paint-order:fill markers stroke;stroke-dashoffset:0"
       id="rect3656"
       width="21.842621"
       height="8.9457827"
       x="16.251507"
       y="6.4111447" />
    <text
       xml:space="preserve"
       style="font-size:3.52777px;line-height:1;font-family:'Times New Roman';-inkscape-font-specification:'Times New Roman, ';text-align:center;text-anchor:middle;stroke-width:0.264583"
       x="27.268728"
       y="11.756627"
       id="text4084"><tspan
         sodipodi:role="line"
         id="tspan4082"
         style="stroke-width:0.264583"
         x="27.268728"
         y="11.756627">Future dev.</tspan></text>
    <path
       style="fill:none;stroke:#000000;stroke-width:0.264583px;stroke-linecap:butt;stroke-linejoin:miter;stroke-opacity:1"
       d="M 25.293827,24.29538 H 20.351656"
       id="path4213" />
    <path
       style="fill:none;stroke:#000000;stroke-width:0.264583px;stroke-linecap:butt;stroke-linejoin:miter;stroke-opacity:1"
       d="M 22.588102,15.207831 V 26.166415"
       id="path4215" />
    <g
       transform="matrix(0.352778,0,0,0.352778,20.746954,19.391722)"
       ns1:version="1.1.0"
       ns1:texconverter="pdflatex"
       ns1:pdfconverter="inkscape"
       ns1:text="z"
       ns1:preamble="C:\\Users\\zamcr\\AppData\\Roaming\\inkscape\\extensions\\textext\\default_packages.tex"
       ns1:scale="1.0"
       ns1:alignment="middle center"
       ns1:inkscapeversion="1.1.1"
       ns1:jacobian_sqrt="0.352778"
       id="g4354">
      <defs
         id="id-af2debca-95cf-447c-8842-8ccf94222ae0">
        <g
           id="id-500d98ff-29f1-4b09-82d2-074323653f89">
          <symbol
             overflow="visible"
             id="id-c4da17d0-5400-461a-a4ee-fd0124f831ea">
            <path
               style="stroke:none"
               d=""
               id="id-6d8d3dce-9682-47bc-b80b-5b2c3315e09f" />
          </symbol>
          <symbol
             overflow="visible"
             id="id-fdc9d243-9918-4614-a5e8-78ec01355865">
            <path
               style="stroke:none"
               d="m 3.890625,-4 c 0.09375,-0.109375 0.09375,-0.125 0.09375,-0.171875 0,-0.125 -0.09375,-0.125 -0.265625,-0.125 H 0.53125 L 0.421875,-2.6875 h 0.25 c 0.0625,-1.015625 0.25,-1.390625 1.34375,-1.390625 H 3.15625 L 0.375,-0.3125 C 0.28125,-0.203125 0.28125,-0.1875 0.28125,-0.140625 0.28125,0 0.34375,0 0.53125,0 H 3.828125 L 4,-1.859375 H 3.75 C 3.65625,-0.6875 3.453125,-0.25 2.296875,-0.25 h -1.1875 z m 0,0"
               id="id-a16c5cb2-bffd-47d4-9103-5163d5f287d6" />
          </symbol>
        </g>
      </defs>
      <g
         id="id-9a956675-0b1a-459d-89b7-34c80f3d2c3d"
         transform="translate(-148.993,-130.468)">
        <g
           style="fill:#000000;fill-opacity:1"
           id="id-2055813b-10b3-421f-bdc6-06da705599c4">
          <g
             transform="translate(148.712,134.765)"
             id="g4350">
            <path
               style="stroke:none"
               d="m 3.890625,-4 c 0.09375,-0.109375 0.09375,-0.125 0.09375,-0.171875 0,-0.125 -0.09375,-0.125 -0.265625,-0.125 H 0.53125 L 0.421875,-2.6875 h 0.25 c 0.0625,-1.015625 0.25,-1.390625 1.34375,-1.390625 H 3.15625 L 0.375,-0.3125 C 0.28125,-0.203125 0.28125,-0.1875 0.28125,-0.140625 0.28125,0 0.34375,0 0.53125,0 H 3.828125 L 4,-1.859375 H 3.75 C 3.65625,-0.6875 3.453125,-0.25 2.296875,-0.25 h -1.1875 z m 0,0"
               id="id-5e725db9-4c1e-4d53-a902-68cafe864278" />
          </g>
        </g>
      </g>
    </g>
    <g
       id="path4420">
      <path
         style="color:#000000;fill:#000000;-inkscape-stroke:none"
         d="M 53.318359,1.5820312 V 34.664062 h 0.265625 V 1.8476562 h 30.431641 v -0.265625 z"
         id="path4798" />
      <g
         id="g4780">
        <g
           id="path4790">
          <path
             style="color:#000000;fill:#000000;fill-rule:evenodd;stroke-width:0.105833pt;-inkscape-stroke:none"
             d="m 82.95748,1.7146084 -0.529166,0.529166 1.852081,-0.529166 -1.852081,-0.529166 z"
             id="path4794" />
          <path
             style="color:#000000;fill:#000000;fill-rule:evenodd;-inkscape-stroke:none"
             d="m 82.185547,1.0429687 0.671875,0.671875 -0.671875,0.6718751 2.351562,-0.6718751 z m 0.488281,0.2871094 1.347656,0.3847656 -1.351562,0.3867188 0.386719,-0.3867188 -0.04883,-0.050781 z"
             id="path4796" />
        </g>
        <g
           id="path4782">
          <path
             style="color:#000000;fill:#000000;fill-rule:evenodd;stroke-width:0.105833pt;-inkscape-stroke:none"
             d="m 53.451053,33.606577 -0.529166,-0.529166 0.529166,1.852081 0.529166,-1.852081 z"
             id="path4786" />
          <path
             style="color:#000000;fill:#000000;fill-rule:evenodd;-inkscape-stroke:none"
             d="m 52.779297,32.835937 0.671875,2.34961 0.671875,-2.34961 -0.671875,0.671875 z m 1.058594,0.482422 -0.386719,1.353516 -0.386719,-1.351563 0.386719,0.386719 L 53.5,33.65625 Z"
             id="path4788" />
        </g>
      </g>
    </g>
    <g
       transform="matrix(0.352778,0,0,0.352778,81.137064,2.8142839)"
       ns1:version="1.1.0"
       ns1:texconverter="pdflatex"
       ns1:pdfconverter="inkscape"
       ns1:text="$\\log \\sigma'$"
       ns1:preamble="C:\\Users\\zamcr\\AppData\\Roaming\\inkscape\\extensions\\textext\\default_packages.tex"
       ns1:scale="1.0"
       ns1:alignment="middle center"
       ns1:inkscapeversion="1.1.1"
       ns1:jacobian_sqrt="0.352778"
       id="g4915">
      <defs
         id="id-fa3f20dd-4d25-4bf5-b1c1-f5fa3f235384">
        <g
           id="id-60265598-2b8d-43d0-a5d7-7d47f36b578f">
          <symbol
             overflow="visible"
             id="id-319fbcf4-2a16-4ec5-931c-0160bf3ef8c8">
            <path
               style="stroke:none"
               d=""
               id="id-ea85cee9-30b8-4086-a31a-76cebdc588b3" />
          </symbol>
          <symbol
             overflow="visible"
             id="id-fd1f8bc9-aa7f-4336-84ff-8e4018555a41">
            <path
               style="stroke:none"
               d="M 1.765625,-6.921875 0.328125,-6.8125 V -6.5 c 0.703125,0 0.78125,0.0625 0.78125,0.5625 V -0.75 c 0,0.4375 -0.109375,0.4375 -0.78125,0.4375 V 0 C 0.65625,-0.015625 1.1875,-0.03125 1.4375,-0.03125 c 0.25,0 0.734375,0.015625 1.109375,0.03125 v -0.3125 c -0.671875,0 -0.78125,0 -0.78125,-0.4375 z m 0,0"
               id="id-a1ea5f33-7062-45f6-afea-2ebeb7e21348" />
          </symbol>
          <symbol
             overflow="visible"
             id="id-77ce343c-958f-463e-95a0-2abcc95115e3">
            <path
               style="stroke:none"
               d="M 4.6875,-2.140625 C 4.6875,-3.40625 3.703125,-4.46875 2.5,-4.46875 c -1.25,0 -2.21875,1.09375 -2.21875,2.328125 0,1.296875 1.03125,2.25 2.203125,2.25 1.203125,0 2.203125,-0.984375 2.203125,-2.25 z m -2.1875,2 c -0.4375,0 -0.875,-0.203125 -1.140625,-0.671875 -0.25,-0.4375 -0.25,-1.046875 -0.25,-1.40625 0,-0.390625 0,-0.921875 0.234375,-1.359375 C 1.609375,-4.03125 2.078125,-4.25 2.484375,-4.25 c 0.4375,0 0.859375,0.21875 1.125,0.65625 0.265625,0.421875 0.265625,1 0.265625,1.375 0,0.359375 0,0.90625 -0.21875,1.34375 C 3.421875,-0.421875 2.984375,-0.140625 2.5,-0.140625 Z m 0,0"
               id="id-39ae6c51-f943-42a0-af14-9e7608aacb01" />
          </symbol>
          <symbol
             overflow="visible"
             id="id-6f2c028a-1055-401f-9ccf-1f1fb0841482">
            <path
               style="stroke:none"
               d="m 2.21875,-1.71875 c -0.875,0 -0.875,-1 -0.875,-1.21875 0,-0.265625 0.015625,-0.59375 0.15625,-0.84375 0.078125,-0.109375 0.3125,-0.390625 0.71875,-0.390625 0.859375,0 0.859375,0.984375 0.859375,1.21875 0,0.265625 0,0.59375 -0.15625,0.84375 C 2.84375,-2 2.609375,-1.71875 2.21875,-1.71875 Z M 1.0625,-1.328125 c 0,-0.03125 0,-0.265625 0.15625,-0.46875 0.390625,0.28125 0.8125,0.3125 1,0.3125 0.921875,0 1.609375,-0.6875 1.609375,-1.453125 0,-0.375 -0.15625,-0.734375 -0.40625,-0.96875 C 3.78125,-4.25 4.140625,-4.296875 4.3125,-4.296875 c 0.03125,0 0.078125,0 0.109375,0.015625 C 4.3125,-4.25 4.25,-4.140625 4.25,-4.015625 c 0,0.171875 0.140625,0.28125 0.296875,0.28125 0.09375,0 0.28125,-0.0625 0.28125,-0.296875 0,-0.171875 -0.109375,-0.484375 -0.5,-0.484375 -0.203125,0 -0.640625,0.0625 -1.0625,0.46875 C 2.84375,-4.375 2.4375,-4.40625 2.21875,-4.40625 c -0.9375,0 -1.625,0.6875 -1.625,1.453125 0,0.4375 0.21875,0.8125 0.46875,1.03125 -0.125,0.140625 -0.3125,0.46875 -0.3125,0.828125 0,0.3125 0.140625,0.6875 0.453125,0.890625 -0.609375,0.15625 -0.921875,0.59375 -0.921875,0.984375 0,0.71875 0.984375,1.265625 2.203125,1.265625 1.171875,0 2.203125,-0.5 2.203125,-1.28125 0,-0.34375 -0.125,-0.859375 -0.640625,-1.140625 -0.53125,-0.265625 -1.109375,-0.265625 -1.71875,-0.265625 -0.25,0 -0.671875,0 -0.75,-0.015625 C 1.265625,-0.703125 1.0625,-1 1.0625,-1.328125 Z M 2.5,1.828125 c -1.015625,0 -1.703125,-0.515625 -1.703125,-1.046875 0,-0.453125 0.375,-0.828125 0.8125,-0.84375 h 0.59375 c 0.859375,0 1.96875,0 1.96875,0.84375 0,0.546875 -0.703125,1.046875 -1.671875,1.046875 z m 0,0"
               id="id-67b7a868-2027-40c8-b907-31e5084566a6" />
          </symbol>
          <symbol
             overflow="visible"
             id="id-edb067c0-1c15-4def-a0ef-861ed420d5fc">
            <path
               style="stroke:none"
               d=""
               id="id-a9839094-69cc-4a83-814b-2fe25973d895" />
          </symbol>
          <symbol
             overflow="visible"
             id="id-be0424b6-a460-490e-94e8-5b9fc3ae905e">
            <path
               style="stroke:none"
               d="m 5.15625,-3.71875 c 0.140625,0 0.5,0 0.5,-0.34375 0,-0.234375 -0.21875,-0.234375 -0.390625,-0.234375 h -2.28125 c -1.5,0 -2.609375,1.640625 -2.609375,2.828125 0,0.875 0.59375,1.578125 1.5,1.578125 1.171875,0 2.5,-1.203125 2.5,-2.734375 0,-0.171875 0,-0.65625 -0.3125,-1.09375 z M 1.890625,-0.109375 C 1.390625,-0.109375 1,-0.46875 1,-1.1875 c 0,-0.296875 0.109375,-1.109375 0.46875,-1.703125 0.421875,-0.6875 1.015625,-0.828125 1.359375,-0.828125 0.828125,0 0.90625,0.65625 0.90625,0.96875 0,0.46875 -0.203125,1.28125 -0.53125,1.796875 -0.390625,0.578125 -0.9375,0.84375 -1.3125,0.84375 z m 0,0"
               id="id-cc62e8ce-89d1-4ca9-bda4-e4f7d93e95cd" />
          </symbol>
          <symbol
             overflow="visible"
             id="id-5290026a-56b7-4ed1-974f-8ab1e852ffeb">
            <path
               style="stroke:none"
               d=""
               id="id-91273a85-2bbe-4a26-a504-8a5b17d6e7e4" />
          </symbol>
          <symbol
             overflow="visible"
             id="id-60b7dd7e-5deb-406c-94d1-d35935d96031">
            <path
               style="stroke:none"
               d="m 2.015625,-3.296875 c 0.0625,-0.109375 0.0625,-0.171875 0.0625,-0.21875 0,-0.21875 -0.1875,-0.375 -0.40625,-0.375 -0.265625,0 -0.34375,0.21875 -0.375,0.328125 L 0.375,-0.546875 c -0.015625,0.015625 -0.046875,0.09375 -0.046875,0.109375 0,0.078125 0.21875,0.15625 0.28125,0.15625 0.046875,0 0.046875,-0.015625 0.09375,-0.125 z m 0,0"
               id="id-d806f10f-f458-4745-ba7c-2e56f8a3f853" />
          </symbol>
        </g>
      </defs>
      <g
         id="id-72d596a5-e464-4575-a78d-0e15a3e36978"
         transform="translate(-149.04,-127.258)">
        <g
           style="fill:#000000;fill-opacity:1"
           id="id-9c31a283-6691-4379-bb1e-3121326b3fef">
          <g
             transform="translate(148.712,134.765)"
             id="g4897">
            <path
               style="stroke:none"
               d="M 1.765625,-6.921875 0.328125,-6.8125 V -6.5 c 0.703125,0 0.78125,0.0625 0.78125,0.5625 V -0.75 c 0,0.4375 -0.109375,0.4375 -0.78125,0.4375 V 0 C 0.65625,-0.015625 1.1875,-0.03125 1.4375,-0.03125 c 0.25,0 0.734375,0.015625 1.109375,0.03125 v -0.3125 c -0.671875,0 -0.78125,0 -0.78125,-0.4375 z m 0,0"
               id="id-162fae0a-8c2c-4d13-805e-b91b7006ff9e" />
          </g>
          <g
             transform="translate(151.48,134.765)"
             id="g4900">
            <path
               style="stroke:none"
               d="M 4.6875,-2.140625 C 4.6875,-3.40625 3.703125,-4.46875 2.5,-4.46875 c -1.25,0 -2.21875,1.09375 -2.21875,2.328125 0,1.296875 1.03125,2.25 2.203125,2.25 1.203125,0 2.203125,-0.984375 2.203125,-2.25 z m -2.1875,2 c -0.4375,0 -0.875,-0.203125 -1.140625,-0.671875 -0.25,-0.4375 -0.25,-1.046875 -0.25,-1.40625 0,-0.390625 0,-0.921875 0.234375,-1.359375 C 1.609375,-4.03125 2.078125,-4.25 2.484375,-4.25 c 0.4375,0 0.859375,0.21875 1.125,0.65625 0.265625,0.421875 0.265625,1 0.265625,1.375 0,0.359375 0,0.90625 -0.21875,1.34375 C 3.421875,-0.421875 2.984375,-0.140625 2.5,-0.140625 Z m 0,0"
               id="id-b58f9067-f8d0-4345-a0fb-93941ed6ebd6" />
          </g>
          <g
             transform="translate(156.461,134.765)"
             id="g4903">
            <path
               style="stroke:none"
               d="m 2.21875,-1.71875 c -0.875,0 -0.875,-1 -0.875,-1.21875 0,-0.265625 0.015625,-0.59375 0.15625,-0.84375 0.078125,-0.109375 0.3125,-0.390625 0.71875,-0.390625 0.859375,0 0.859375,0.984375 0.859375,1.21875 0,0.265625 0,0.59375 -0.15625,0.84375 C 2.84375,-2 2.609375,-1.71875 2.21875,-1.71875 Z M 1.0625,-1.328125 c 0,-0.03125 0,-0.265625 0.15625,-0.46875 0.390625,0.28125 0.8125,0.3125 1,0.3125 0.921875,0 1.609375,-0.6875 1.609375,-1.453125 0,-0.375 -0.15625,-0.734375 -0.40625,-0.96875 C 3.78125,-4.25 4.140625,-4.296875 4.3125,-4.296875 c 0.03125,0 0.078125,0 0.109375,0.015625 C 4.3125,-4.25 4.25,-4.140625 4.25,-4.015625 c 0,0.171875 0.140625,0.28125 0.296875,0.28125 0.09375,0 0.28125,-0.0625 0.28125,-0.296875 0,-0.171875 -0.109375,-0.484375 -0.5,-0.484375 -0.203125,0 -0.640625,0.0625 -1.0625,0.46875 C 2.84375,-4.375 2.4375,-4.40625 2.21875,-4.40625 c -0.9375,0 -1.625,0.6875 -1.625,1.453125 0,0.4375 0.21875,0.8125 0.46875,1.03125 -0.125,0.140625 -0.3125,0.46875 -0.3125,0.828125 0,0.3125 0.140625,0.6875 0.453125,0.890625 -0.609375,0.15625 -0.921875,0.59375 -0.921875,0.984375 0,0.71875 0.984375,1.265625 2.203125,1.265625 1.171875,0 2.203125,-0.5 2.203125,-1.28125 0,-0.34375 -0.125,-0.859375 -0.640625,-1.140625 -0.53125,-0.265625 -1.109375,-0.265625 -1.71875,-0.265625 -0.25,0 -0.671875,0 -0.75,-0.015625 C 1.265625,-0.703125 1.0625,-1 1.0625,-1.328125 Z M 2.5,1.828125 c -1.015625,0 -1.703125,-0.515625 -1.703125,-1.046875 0,-0.453125 0.375,-0.828125 0.8125,-0.84375 h 0.59375 c 0.859375,0 1.96875,0 1.96875,0.84375 0,0.546875 -0.703125,1.046875 -1.671875,1.046875 z m 0,0"
               id="id-0a13f8be-1d5a-48a0-a188-4a3d2aaa8242" />
          </g>
        </g>
        <g
           style="fill:#000000;fill-opacity:1"
           id="id-330570a4-ecdd-4b5d-81cb-a968bce4eee2">
          <g
             transform="translate(163.241,134.765)"
             id="g4907">
            <path
               style="stroke:none"
               d="m 5.15625,-3.71875 c 0.140625,0 0.5,0 0.5,-0.34375 0,-0.234375 -0.21875,-0.234375 -0.390625,-0.234375 h -2.28125 c -1.5,0 -2.609375,1.640625 -2.609375,2.828125 0,0.875 0.59375,1.578125 1.5,1.578125 1.171875,0 2.5,-1.203125 2.5,-2.734375 0,-0.171875 0,-0.65625 -0.3125,-1.09375 z M 1.890625,-0.109375 C 1.390625,-0.109375 1,-0.46875 1,-1.1875 c 0,-0.296875 0.109375,-1.109375 0.46875,-1.703125 0.421875,-0.6875 1.015625,-0.828125 1.359375,-0.828125 0.828125,0 0.90625,0.65625 0.90625,0.96875 0,0.46875 -0.203125,1.28125 -0.53125,1.796875 -0.390625,0.578125 -0.9375,0.84375 -1.3125,0.84375 z m 0,0"
               id="id-eb6a0782-8059-4a68-82b7-295d8c5b05d9" />
          </g>
        </g>
        <g
           style="fill:#000000;fill-opacity:1"
           id="id-8612af86-7876-4ffc-b627-0ca363093d1f">
          <g
             transform="translate(169.291,131.149)"
             id="g4911">
            <path
               style="stroke:none"
               d="m 2.015625,-3.296875 c 0.0625,-0.109375 0.0625,-0.171875 0.0625,-0.21875 0,-0.21875 -0.1875,-0.375 -0.40625,-0.375 -0.265625,0 -0.34375,0.21875 -0.375,0.328125 L 0.375,-0.546875 c -0.015625,0.015625 -0.046875,0.09375 -0.046875,0.109375 0,0.078125 0.21875,0.15625 0.28125,0.15625 0.046875,0 0.046875,-0.015625 0.09375,-0.125 z m 0,0"
               id="id-2fe09fbe-aef1-4bca-a469-8f3bfc2094b6" />
          </g>
        </g>
      </g>
    </g>
    <g
       transform="matrix(0.352778,0,0,0.352778,53.804819,34.166553)"
       ns1:version="1.1.0"
       ns1:texconverter="pdflatex"
       ns1:pdfconverter="inkscape"
       ns1:text="$e$"
       ns1:preamble="C:\\Users\\zamcr\\AppData\\Roaming\\inkscape\\extensions\\textext\\default_packages.tex"
       ns1:scale="1.0"
       ns1:alignment="middle center"
       ns1:inkscapeversion="1.1.1"
       ns1:jacobian_sqrt="0.352778"
       id="g5506">
      <defs
         id="id-2f314ceb-54a7-4b53-a683-324e09286a1f">
        <g
           id="id-74bd4ff2-af23-434a-9810-9838e5a83c24">
          <symbol
             overflow="visible"
             id="id-d3d67bf3-fc17-4dd0-a318-4938e25cee87">
            <path
               style="stroke:none"
               d=""
               id="id-255ad6de-4ccc-4fda-b5a4-5500a9fb067b" />
          </symbol>
          <symbol
             overflow="visible"
             id="id-33bacef6-fdf2-42f3-8d88-6659a21c177c">
            <path
               style="stroke:none"
               d="m 1.859375,-2.296875 c 0.296875,0 1.03125,-0.03125 1.53125,-0.234375 0.703125,-0.296875 0.75,-0.890625 0.75,-1.03125 0,-0.4375 -0.375,-0.84375 -1.0625,-0.84375 -1.109375,0 -2.625,0.96875 -2.625,2.71875 0,1.015625 0.59375,1.796875 1.578125,1.796875 1.421875,0 2.25,-1.0625 2.25,-1.171875 0,-0.0625 -0.046875,-0.140625 -0.109375,-0.140625 -0.0625,0 -0.078125,0.03125 -0.140625,0.109375 -0.78125,0.984375 -1.875,0.984375 -1.984375,0.984375 -0.78125,0 -0.875,-0.84375 -0.875,-1.15625 0,-0.125 0.015625,-0.421875 0.15625,-1.03125 z m -0.46875,-0.21875 C 1.78125,-4.03125 2.8125,-4.1875 3.078125,-4.1875 c 0.453125,0 0.734375,0.296875 0.734375,0.625 0,1.046875 -1.59375,1.046875 -2.015625,1.046875 z m 0,0"
               id="id-6c5acbb5-44c0-4f25-bcb1-fe47e72f7487" />
          </symbol>
        </g>
      </defs>
      <g
         id="id-bc75a52c-6d95-4b97-929c-3ed51a891eea"
         transform="translate(-149.165,-130.359)">
        <g
           style="fill:#000000;fill-opacity:1"
           id="id-c33bc8e1-6ca7-496b-9406-69987bc80b16">
          <g
             transform="translate(148.712,134.765)"
             id="g5502">
            <path
               style="stroke:none"
               d="m 1.859375,-2.296875 c 0.296875,0 1.03125,-0.03125 1.53125,-0.234375 0.703125,-0.296875 0.75,-0.890625 0.75,-1.03125 0,-0.4375 -0.375,-0.84375 -1.0625,-0.84375 -1.109375,0 -2.625,0.96875 -2.625,2.71875 0,1.015625 0.59375,1.796875 1.578125,1.796875 1.421875,0 2.25,-1.0625 2.25,-1.171875 0,-0.0625 -0.046875,-0.140625 -0.109375,-0.140625 -0.0625,0 -0.078125,0.03125 -0.140625,0.109375 -0.78125,0.984375 -1.875,0.984375 -1.984375,0.984375 -0.78125,0 -0.875,-0.84375 -0.875,-1.15625 0,-0.125 0.015625,-0.421875 0.15625,-1.03125 z m -0.46875,-0.21875 C 1.78125,-4.03125 2.8125,-4.1875 3.078125,-4.1875 c 0.453125,0 0.734375,0.296875 0.734375,0.625 0,1.046875 -1.59375,1.046875 -2.015625,1.046875 z m 0,0"
               id="id-66919346-142f-4436-82d9-2da38f5ae635" />
          </g>
        </g>
      </g>
    </g>
    <path
       style="fill:none;stroke:#ff0000;stroke-width:0.26458299;stroke-linecap:butt;stroke-linejoin:miter;stroke-opacity:1;stroke-miterlimit:4;stroke-dasharray:0.52916597, 1.58749792;stroke-dashoffset:0"
       d="M 67.24247,1.6773343 V 14.685994 l -13.658486,0"
       id="path5572" />
    <g
       transform="matrix(0.352778,0,0,0.352778,61.210744,2.511228)"
       ns1:version="1.1.0"
       ns1:texconverter="pdflatex"
       ns1:pdfconverter="inkscape"
       ns1:text="$\\sigma'_0=\\sigma'_c$"
       ns1:preamble="C:\\Users\\zamcr\\AppData\\Roaming\\inkscape\\extensions\\textext\\default_packages.tex"
       ns1:scale="1.0"
       ns1:alignment="middle center"
       ns1:inkscapeversion="1.1.1"
       ns1:jacobian_sqrt="0.352778"
       id="g5891">
      <defs
         id="id-3f91f77e-a1af-4e62-828d-f8de016d0042">
        <g
           id="id-0564a583-9d5c-432e-9912-366fb38ad532">
          <symbol
             overflow="visible"
             id="id-a756fd69-13c1-4c62-8005-7ed802bec7f1">
            <path
               style="stroke:none"
               d=""
               id="id-5340be22-b720-490f-8a4f-19e772e1161a" />
          </symbol>
          <symbol
             overflow="visible"
             id="id-3195163a-7c70-49d5-93f0-b9c0eeee4d18">
            <path
               style="stroke:none"
               d="m 5.15625,-3.71875 c 0.140625,0 0.5,0 0.5,-0.34375 0,-0.234375 -0.21875,-0.234375 -0.390625,-0.234375 h -2.28125 c -1.5,0 -2.609375,1.640625 -2.609375,2.828125 0,0.875 0.59375,1.578125 1.5,1.578125 1.171875,0 2.5,-1.203125 2.5,-2.734375 0,-0.171875 0,-0.65625 -0.3125,-1.09375 z M 1.890625,-0.109375 C 1.390625,-0.109375 1,-0.46875 1,-1.1875 c 0,-0.296875 0.109375,-1.109375 0.46875,-1.703125 0.421875,-0.6875 1.015625,-0.828125 1.359375,-0.828125 0.828125,0 0.90625,0.65625 0.90625,0.96875 0,0.46875 -0.203125,1.28125 -0.53125,1.796875 -0.390625,0.578125 -0.9375,0.84375 -1.3125,0.84375 z m 0,0"
               id="id-6e7f5094-314f-43a8-b946-6684e73e3248" />
          </symbol>
          <symbol
             overflow="visible"
             id="id-87762768-b8c1-4af5-a0c2-92f6497c0d62">
            <path
               style="stroke:none"
               d=""
               id="id-6bfe2e12-b758-4eda-86e7-1d8f10480022" />
          </symbol>
          <symbol
             overflow="visible"
             id="id-fce65db8-1a7d-4287-84d2-f41767286fb6">
            <path
               style="stroke:none"
               d="m 2.015625,-3.296875 c 0.0625,-0.109375 0.0625,-0.171875 0.0625,-0.21875 0,-0.21875 -0.1875,-0.375 -0.40625,-0.375 -0.265625,0 -0.34375,0.21875 -0.375,0.328125 L 0.375,-0.546875 c -0.015625,0.015625 -0.046875,0.09375 -0.046875,0.109375 0,0.078125 0.21875,0.15625 0.28125,0.15625 0.046875,0 0.046875,-0.015625 0.09375,-0.125 z m 0,0"
               id="id-4d03eeeb-5caa-4a5c-8e5d-09a48de88efb" />
          </symbol>
          <symbol
             overflow="visible"
             id="id-1eba2555-adb6-4a5c-83c0-243b0e616c0f">
            <path
               style="stroke:none"
               d=""
               id="id-9a64acbc-f680-4926-91d9-b515c4793722" />
          </symbol>
          <symbol
             overflow="visible"
             id="id-2519052d-ead3-4251-a7f0-60c8b78e5ef1">
            <path
               style="stroke:none"
               d="M 3.59375,-2.21875 C 3.59375,-2.984375 3.5,-3.546875 3.1875,-4.03125 2.96875,-4.34375 2.53125,-4.625 1.984375,-4.625 c -1.625,0 -1.625,1.90625 -1.625,2.40625 0,0.5 0,2.359375 1.625,2.359375 1.609375,0 1.609375,-1.859375 1.609375,-2.359375 z M 1.984375,-0.0625 c -0.328125,0 -0.75,-0.1875 -0.890625,-0.75 C 1,-1.21875 1,-1.796875 1,-2.3125 1,-2.828125 1,-3.359375 1.09375,-3.734375 1.25,-4.28125 1.6875,-4.4375 1.984375,-4.4375 c 0.375,0 0.734375,0.234375 0.859375,0.640625 0.109375,0.375 0.125,0.875 0.125,1.484375 0,0.515625 0,1.03125 -0.09375,1.46875 -0.140625,0.640625 -0.609375,0.78125 -0.890625,0.78125 z m 0,0"
               id="id-7664cab2-1b43-41d2-8c78-fa166ca37ed4" />
          </symbol>
          <symbol
             overflow="visible"
             id="id-f413a42b-c50e-4151-9621-a40524a314cb">
            <path
               style="stroke:none"
               d=""
               id="id-af30d558-762b-44fa-bb82-d9c703699d20" />
          </symbol>
          <symbol
             overflow="visible"
             id="id-c323441f-501a-44d4-bd71-e85e6a8baa67">
            <path
               style="stroke:none"
               d="m 6.84375,-3.265625 c 0.15625,0 0.34375,0 0.34375,-0.1875 C 7.1875,-3.65625 7,-3.65625 6.859375,-3.65625 h -5.96875 c -0.140625,0 -0.328125,0 -0.328125,0.203125 0,0.1875 0.1875,0.1875 0.328125,0.1875 z m 0.015625,1.9375 c 0.140625,0 0.328125,0 0.328125,-0.203125 0,-0.1875 -0.1875,-0.1875 -0.34375,-0.1875 H 0.890625 c -0.140625,0 -0.328125,0 -0.328125,0.1875 0,0.203125 0.1875,0.203125 0.328125,0.203125 z m 0,0"
               id="id-c5630ed4-24c7-4619-8f24-a51105cee90c" />
          </symbol>
          <symbol
             overflow="visible"
             id="id-7cb55c23-1133-43e3-874f-8f1cdceb2984">
            <path
               style="stroke:none"
               d=""
               id="id-37a6bb8d-16a3-4303-93c5-992d2f921ba6" />
          </symbol>
          <symbol
             overflow="visible"
             id="id-ff3f26b9-c207-4281-a559-82cf2abcb2e9">
            <path
               style="stroke:none"
               d="m 3.046875,-2.671875 c -0.25,0.046875 -0.34375,0.234375 -0.34375,0.390625 0,0.1875 0.140625,0.265625 0.265625,0.265625 0.15625,0 0.390625,-0.109375 0.390625,-0.453125 0,-0.46875 -0.53125,-0.609375 -0.90625,-0.609375 -1.046875,0 -2.015625,0.96875 -2.015625,1.9375 0,0.59375 0.40625,1.203125 1.28125,1.203125 1.1875,0 1.734375,-0.6875 1.734375,-0.78125 0,-0.046875 -0.0625,-0.125 -0.125,-0.125 -0.03125,0 -0.046875,0.015625 -0.109375,0.078125 C 2.671875,-0.125 1.859375,-0.125 1.734375,-0.125 c -0.5,0 -0.71875,-0.34375 -0.71875,-0.78125 0,-0.1875 0.09375,-0.953125 0.453125,-1.4375 0.265625,-0.34375 0.625,-0.53125 0.984375,-0.53125 0.09375,0 0.421875,0.015625 0.59375,0.203125 z m 0,0"
               id="id-c1cd601b-2724-4193-b245-14b4db73e48e" />
          </symbol>
        </g>
      </defs>
      <g
         id="id-bdaa48f7-e5ba-4b9e-a6bb-e8803d93eecd"
         transform="translate(-149.087,-127.258)">
        <g
           style="fill:#000000;fill-opacity:1"
           id="id-027e9a48-3156-48ad-abcb-91a6a1f9001b">
          <g
             transform="translate(148.712,134.765)"
             id="g5863">
            <path
               style="stroke:none"
               d="m 5.15625,-3.71875 c 0.140625,0 0.5,0 0.5,-0.34375 0,-0.234375 -0.21875,-0.234375 -0.390625,-0.234375 h -2.28125 c -1.5,0 -2.609375,1.640625 -2.609375,2.828125 0,0.875 0.59375,1.578125 1.5,1.578125 1.171875,0 2.5,-1.203125 2.5,-2.734375 0,-0.171875 0,-0.65625 -0.3125,-1.09375 z M 1.890625,-0.109375 C 1.390625,-0.109375 1,-0.46875 1,-1.1875 c 0,-0.296875 0.109375,-1.109375 0.46875,-1.703125 0.421875,-0.6875 1.015625,-0.828125 1.359375,-0.828125 0.828125,0 0.90625,0.65625 0.90625,0.96875 0,0.46875 -0.203125,1.28125 -0.53125,1.796875 -0.390625,0.578125 -0.9375,0.84375 -1.3125,0.84375 z m 0,0"
               id="id-9342af20-f274-4021-9cb7-20e9fdd9e7ff" />
          </g>
        </g>
        <g
           style="fill:#000000;fill-opacity:1"
           id="id-942a5fab-7b65-4cc8-afdd-d835cd04840d">
          <g
             transform="translate(154.763,131.149)"
             id="g5867">
            <path
               style="stroke:none"
               d="m 2.015625,-3.296875 c 0.0625,-0.109375 0.0625,-0.171875 0.0625,-0.21875 0,-0.21875 -0.1875,-0.375 -0.40625,-0.375 -0.265625,0 -0.34375,0.21875 -0.375,0.328125 L 0.375,-0.546875 c -0.015625,0.015625 -0.046875,0.09375 -0.046875,0.109375 0,0.078125 0.21875,0.15625 0.28125,0.15625 0.046875,0 0.046875,-0.015625 0.09375,-0.125 z m 0,0"
               id="id-3deca7af-ae06-42be-a9d3-4e98753661cd" />
          </g>
        </g>
        <g
           style="fill:#000000;fill-opacity:1"
           id="id-5e715de2-46e9-486b-a56c-50fc5f51d06c">
          <g
             transform="translate(154.405,137.237)"
             id="g5871">
            <path
               style="stroke:none"
               d="M 3.59375,-2.21875 C 3.59375,-2.984375 3.5,-3.546875 3.1875,-4.03125 2.96875,-4.34375 2.53125,-4.625 1.984375,-4.625 c -1.625,0 -1.625,1.90625 -1.625,2.40625 0,0.5 0,2.359375 1.625,2.359375 1.609375,0 1.609375,-1.859375 1.609375,-2.359375 z M 1.984375,-0.0625 c -0.328125,0 -0.75,-0.1875 -0.890625,-0.75 C 1,-1.21875 1,-1.796875 1,-2.3125 1,-2.828125 1,-3.359375 1.09375,-3.734375 1.25,-4.28125 1.6875,-4.4375 1.984375,-4.4375 c 0.375,0 0.734375,0.234375 0.859375,0.640625 0.109375,0.375 0.125,0.875 0.125,1.484375 0,0.515625 0,1.03125 -0.09375,1.46875 -0.140625,0.640625 -0.609375,0.78125 -0.890625,0.78125 z m 0,0"
               id="id-470c2291-d749-4906-93ab-a26c3488eaae" />
          </g>
        </g>
        <g
           style="fill:#000000;fill-opacity:1"
           id="id-fc52aedb-b4ed-4821-a56a-195fee46eef9">
          <g
             transform="translate(161.642,134.765)"
             id="g5875">
            <path
               style="stroke:none"
               d="m 6.84375,-3.265625 c 0.15625,0 0.34375,0 0.34375,-0.1875 C 7.1875,-3.65625 7,-3.65625 6.859375,-3.65625 h -5.96875 c -0.140625,0 -0.328125,0 -0.328125,0.203125 0,0.1875 0.1875,0.1875 0.328125,0.1875 z m 0.015625,1.9375 c 0.140625,0 0.328125,0 0.328125,-0.203125 0,-0.1875 -0.1875,-0.1875 -0.34375,-0.1875 H 0.890625 c -0.140625,0 -0.328125,0 -0.328125,0.1875 0,0.203125 0.1875,0.203125 0.328125,0.203125 z m 0,0"
               id="id-4b459705-2be0-4b65-8883-44edcb80c798" />
          </g>
        </g>
        <g
           style="fill:#000000;fill-opacity:1"
           id="id-ba615514-6daf-4fa2-868f-7ffe656b5746">
          <g
             transform="translate(172.158,134.765)"
             id="g5879">
            <path
               style="stroke:none"
               d="m 5.15625,-3.71875 c 0.140625,0 0.5,0 0.5,-0.34375 0,-0.234375 -0.21875,-0.234375 -0.390625,-0.234375 h -2.28125 c -1.5,0 -2.609375,1.640625 -2.609375,2.828125 0,0.875 0.59375,1.578125 1.5,1.578125 1.171875,0 2.5,-1.203125 2.5,-2.734375 0,-0.171875 0,-0.65625 -0.3125,-1.09375 z M 1.890625,-0.109375 C 1.390625,-0.109375 1,-0.46875 1,-1.1875 c 0,-0.296875 0.109375,-1.109375 0.46875,-1.703125 0.421875,-0.6875 1.015625,-0.828125 1.359375,-0.828125 0.828125,0 0.90625,0.65625 0.90625,0.96875 0,0.46875 -0.203125,1.28125 -0.53125,1.796875 -0.390625,0.578125 -0.9375,0.84375 -1.3125,0.84375 z m 0,0"
               id="id-368b5841-30e7-498a-a148-6572b5922a0a" />
          </g>
        </g>
        <g
           style="fill:#000000;fill-opacity:1"
           id="id-a536dcce-b61d-4aa1-8d93-0f228181a8d6">
          <g
             transform="translate(178.208,131.149)"
             id="g5883">
            <path
               style="stroke:none"
               d="m 2.015625,-3.296875 c 0.0625,-0.109375 0.0625,-0.171875 0.0625,-0.21875 0,-0.21875 -0.1875,-0.375 -0.40625,-0.375 -0.265625,0 -0.34375,0.21875 -0.375,0.328125 L 0.375,-0.546875 c -0.015625,0.015625 -0.046875,0.09375 -0.046875,0.109375 0,0.078125 0.21875,0.15625 0.28125,0.15625 0.046875,0 0.046875,-0.015625 0.09375,-0.125 z m 0,0"
               id="id-aa37fc7b-ed34-4153-94f0-baa3f56c95a9" />
          </g>
        </g>
        <g
           style="fill:#000000;fill-opacity:1"
           id="id-86acb695-b1c5-456f-9eb9-600ce1dc641e">
          <g
             transform="translate(177.851,137.228)"
             id="g5887">
            <path
               style="stroke:none"
               d="m 3.046875,-2.671875 c -0.25,0.046875 -0.34375,0.234375 -0.34375,0.390625 0,0.1875 0.140625,0.265625 0.265625,0.265625 0.15625,0 0.390625,-0.109375 0.390625,-0.453125 0,-0.46875 -0.53125,-0.609375 -0.90625,-0.609375 -1.046875,0 -2.015625,0.96875 -2.015625,1.9375 0,0.59375 0.40625,1.203125 1.28125,1.203125 1.1875,0 1.734375,-0.6875 1.734375,-0.78125 0,-0.046875 -0.0625,-0.125 -0.125,-0.125 -0.03125,0 -0.046875,0.015625 -0.109375,0.078125 C 2.671875,-0.125 1.859375,-0.125 1.734375,-0.125 c -0.5,0 -0.71875,-0.34375 -0.71875,-0.78125 0,-0.1875 0.09375,-0.953125 0.453125,-1.4375 0.265625,-0.34375 0.625,-0.53125 0.984375,-0.53125 0.09375,0 0.421875,0.015625 0.59375,0.203125 z m 0,0"
               id="id-980c1c41-9099-4e04-8d67-9f1073ca7271" />
          </g>
        </g>
      </g>
    </g>
    <g
       transform="matrix(0.352778,0,0,0.352778,49.781125,13.38733)"
       ns1:version="1.1.0"
       ns1:texconverter="pdflatex"
       ns1:pdfconverter="inkscape"
       ns1:text="$e_0$"
       ns1:preamble="C:\\Users\\zamcr\\AppData\\Roaming\\inkscape\\extensions\\textext\\default_packages.tex"
       ns1:scale="1.0"
       ns1:alignment="middle center"
       ns1:inkscapeversion="1.1.1"
       ns1:jacobian_sqrt="0.352778"
       id="g6235">
      <defs
         id="id-cf1c790d-0a0b-4f92-940f-2141b326ef2b">
        <g
           id="id-f8456ee7-88ae-4f69-98db-221f45dd1399">
          <symbol
             overflow="visible"
             id="id-6a307c57-c358-496f-b12e-814c4d1f31da">
            <path
               style="stroke:none"
               d=""
               id="id-f24986fa-919f-4fa7-a695-0a055b67dde3" />
          </symbol>
          <symbol
             overflow="visible"
             id="id-08a1e38e-addd-4dec-a203-ba65b5a0c3ea">
            <path
               style="stroke:none"
               d="m 1.859375,-2.296875 c 0.296875,0 1.03125,-0.03125 1.53125,-0.234375 0.703125,-0.296875 0.75,-0.890625 0.75,-1.03125 0,-0.4375 -0.375,-0.84375 -1.0625,-0.84375 -1.109375,0 -2.625,0.96875 -2.625,2.71875 0,1.015625 0.59375,1.796875 1.578125,1.796875 1.421875,0 2.25,-1.0625 2.25,-1.171875 0,-0.0625 -0.046875,-0.140625 -0.109375,-0.140625 -0.0625,0 -0.078125,0.03125 -0.140625,0.109375 -0.78125,0.984375 -1.875,0.984375 -1.984375,0.984375 -0.78125,0 -0.875,-0.84375 -0.875,-1.15625 0,-0.125 0.015625,-0.421875 0.15625,-1.03125 z m -0.46875,-0.21875 C 1.78125,-4.03125 2.8125,-4.1875 3.078125,-4.1875 c 0.453125,0 0.734375,0.296875 0.734375,0.625 0,1.046875 -1.59375,1.046875 -2.015625,1.046875 z m 0,0"
               id="id-0463ba7d-5932-411d-a63e-235e7691d6ab" />
          </symbol>
          <symbol
             overflow="visible"
             id="id-7eecb51c-5821-46ed-8c7f-cafc12650952">
            <path
               style="stroke:none"
               d=""
               id="id-fef4e139-48b1-49f9-a44d-21d7d5f8ce4b" />
          </symbol>
          <symbol
             overflow="visible"
             id="id-e162a2eb-2026-42b8-a4c3-6e45ffc5cb97">
            <path
               style="stroke:none"
               d="M 3.59375,-2.21875 C 3.59375,-2.984375 3.5,-3.546875 3.1875,-4.03125 2.96875,-4.34375 2.53125,-4.625 1.984375,-4.625 c -1.625,0 -1.625,1.90625 -1.625,2.40625 0,0.5 0,2.359375 1.625,2.359375 1.609375,0 1.609375,-1.859375 1.609375,-2.359375 z M 1.984375,-0.0625 c -0.328125,0 -0.75,-0.1875 -0.890625,-0.75 C 1,-1.21875 1,-1.796875 1,-2.3125 1,-2.828125 1,-3.359375 1.09375,-3.734375 1.25,-4.28125 1.6875,-4.4375 1.984375,-4.4375 c 0.375,0 0.734375,0.234375 0.859375,0.640625 0.109375,0.375 0.125,0.875 0.125,1.484375 0,0.515625 0,1.03125 -0.09375,1.46875 -0.140625,0.640625 -0.609375,0.78125 -0.890625,0.78125 z m 0,0"
               id="id-cb9f4171-5d42-4c8c-b8b2-3994eda0af77" />
          </symbol>
        </g>
      </defs>
      <g
         id="id-59ecbfed-62f3-4e0d-8f7b-572aeca7b2a6"
         transform="translate(-149.165,-130.359)">
        <g
           style="fill:#000000;fill-opacity:1"
           id="id-0d02ec61-f928-4349-ae8d-7db1e6c86fc8">
          <g
             transform="translate(148.712,134.765)"
             id="g6227">
            <path
               style="stroke:none"
               d="m 1.859375,-2.296875 c 0.296875,0 1.03125,-0.03125 1.53125,-0.234375 0.703125,-0.296875 0.75,-0.890625 0.75,-1.03125 0,-0.4375 -0.375,-0.84375 -1.0625,-0.84375 -1.109375,0 -2.625,0.96875 -2.625,2.71875 0,1.015625 0.59375,1.796875 1.578125,1.796875 1.421875,0 2.25,-1.0625 2.25,-1.171875 0,-0.0625 -0.046875,-0.140625 -0.109375,-0.140625 -0.0625,0 -0.078125,0.03125 -0.140625,0.109375 -0.78125,0.984375 -1.875,0.984375 -1.984375,0.984375 -0.78125,0 -0.875,-0.84375 -0.875,-1.15625 0,-0.125 0.015625,-0.421875 0.15625,-1.03125 z m -0.46875,-0.21875 C 1.78125,-4.03125 2.8125,-4.1875 3.078125,-4.1875 c 0.453125,0 0.734375,0.296875 0.734375,0.625 0,1.046875 -1.59375,1.046875 -2.015625,1.046875 z m 0,0"
               id="id-a6dd74cb-23f5-44a0-825a-0ebcbe5b68b5" />
          </g>
        </g>
        <g
           style="fill:#000000;fill-opacity:1"
           id="id-2b7c341d-39af-4f02-b800-91d85cb1e1f9">
          <g
             transform="translate(153.351,136.259)"
             id="g6231">
            <path
               style="stroke:none"
               d="M 3.59375,-2.21875 C 3.59375,-2.984375 3.5,-3.546875 3.1875,-4.03125 2.96875,-4.34375 2.53125,-4.625 1.984375,-4.625 c -1.625,0 -1.625,1.90625 -1.625,2.40625 0,0.5 0,2.359375 1.625,2.359375 1.609375,0 1.609375,-1.859375 1.609375,-2.359375 z M 1.984375,-0.0625 c -0.328125,0 -0.75,-0.1875 -0.890625,-0.75 C 1,-1.21875 1,-1.796875 1,-2.3125 1,-2.828125 1,-3.359375 1.09375,-3.734375 1.25,-4.28125 1.6875,-4.4375 1.984375,-4.4375 c 0.375,0 0.734375,0.234375 0.859375,0.640625 0.109375,0.375 0.125,0.875 0.125,1.484375 0,0.515625 0,1.03125 -0.09375,1.46875 -0.140625,0.640625 -0.609375,0.78125 -0.890625,0.78125 z m 0,0"
               id="id-4d0805b2-5761-474a-86a1-b939d369889c" />
          </g>
        </g>
      </g>
    </g>
    <g
       id="path6561">
      <path
         style="color:#000000;fill:#0000ff;-inkscape-stroke:none"
         d="m 67.400391,14.595703 -0.316407,0.181641 2.703125,4.683593 2.705078,4.681641 2.703125,4.683594 2.703125,4.68164 0.316407,-0.18164 -2.703125,-4.683594 -2.703125,-4.681641 -2.705078,-4.683593 z"
         id="path9876" />
      <g
         id="g9850">
        <g
           id="path9868">
          <path
             style="color:#000000;fill:#0000ff;fill-rule:evenodd;stroke-width:0.073pt;-inkscape-stroke:none"
             d="m 75.134398,28.355215 -0.498599,-0.133599 0.954849,0.923847 -0.322651,-1.288847 z"
             id="path9872" />
          <path
             style="color:#000000;fill:#0000ff;fill-rule:evenodd;-inkscape-stroke:none"
             d="m 75.269531,27.662109 -0.169922,0.634766 -0.632812,-0.169922 1.21289,1.171875 z m -0.0039,0.388672 0.236328,0.941406 -0.697266,-0.673828 0.363282,0.0957 0.01367,-0.04687 z"
             id="path9874" />
        </g>
        <g
           id="path9860">
          <path
             style="color:#000000;fill:#0000ff;fill-rule:evenodd;stroke-width:0.073pt;-inkscape-stroke:none"
             d="m 72.430755,23.672368 -0.498599,-0.133599 0.954849,0.923847 -0.322651,-1.288847 z"
             id="path9864" />
          <path
             style="color:#000000;fill:#0000ff;fill-rule:evenodd;-inkscape-stroke:none"
             d="m 72.566406,22.980469 -0.169922,0.630859 -0.632812,-0.167969 1.210937,1.171875 z m -0.0039,0.386718 0.236328,0.94336 -0.697266,-0.675781 0.363282,0.09766 0.01367,-0.04687 z"
             id="path9866" />
        </g>
        <g
           id="path9852">
          <path
             style="color:#000000;fill:#0000ff;fill-rule:evenodd;stroke-width:0.073pt;-inkscape-stroke:none"
             d="m 69.727113,18.989521 -0.498599,-0.133599 0.954849,0.923847 -0.322651,-1.288847 z"
             id="path9856" />
          <path
             style="color:#000000;fill:#0000ff;fill-rule:evenodd;-inkscape-stroke:none"
             d="m 69.863281,18.296875 -0.171875,0.632812 -0.630859,-0.169921 1.210937,1.173828 z m -0.0039,0.386719 0.236328,0.943359 -0.699219,-0.675781 0.365235,0.09766 0.01172,-0.04687 z"
             id="path9858" />
        </g>
      </g>
    </g>
    <circle
       style="fill:#b7c8c4;stroke:#ff0000;stroke-width:0.264583;stroke-linecap:round;stroke-linejoin:round;stroke-miterlimit:4;stroke-dasharray:none;stroke-dashoffset:0;paint-order:fill markers stroke"
       id="path6297"
       cx="67.236115"
       cy="14.733432"
       r="0.55349213" />
    <circle
       style="fill:#b7c8c4;stroke:#ff0000;stroke-width:0.264583;stroke-linecap:round;stroke-linejoin:round;stroke-miterlimit:4;stroke-dasharray:none;stroke-dashoffset:0;paint-order:fill markers stroke"
       id="circle6807"
       cx="78.194702"
       cy="33.519577"
       r="0.55349213" />
    <path
       style="fill:none;stroke:#ff0000;stroke-width:0.26458299;stroke-linecap:butt;stroke-linejoin:miter;stroke-opacity:1;stroke-miterlimit:4;stroke-dasharray:0.52916597, 1.05833194;stroke-dashoffset:0"
       d="M 78.057041,33.41738 V 1.8476562"
       id="path6842" />
    <text
       xml:space="preserve"
       style="font-size:3.52777px;line-height:1;font-family:'Times New Roman';-inkscape-font-specification:'Times New Roman, ';text-align:center;text-anchor:middle;stroke-width:0.264583"
       x="68.219437"
       y="36.583191"
       id="text8000"><tspan
         sodipodi:role="line"
         id="tspan7998"
         style="stroke-width:0.264583"
         x="68.219437"
         y="36.583191">Soil in-situ</tspan></text>
    <path
       style="fill:none;stroke:#ff0000;stroke-width:0.26458299;stroke-linecap:butt;stroke-linejoin:miter;stroke-opacity:1;stroke-miterlimit:4;stroke-dasharray:0.52916597, 1.05833194;stroke-dashoffset:0"
       d="M 78.057041,33.41738 H 53.956783"
       id="path8203" />
    <g
       transform="matrix(0.352778,0,0,0.352778,70.479775,8.9693156)"
       ns1:version="1.1.0"
       ns1:texconverter="pdflatex"
       ns1:pdfconverter="inkscape"
       ns1:text="$\\Delta \\sigma$"
       ns1:preamble="C:\\Users\\zamcr\\AppData\\Roaming\\inkscape\\extensions\\textext\\default_packages.tex"
       ns1:scale="1.0"
       ns1:alignment="middle center"
       ns1:inkscapeversion="1.1.1"
       ns1:jacobian_sqrt="0.352778"
       id="g8791">
      <defs
         id="id-627b024a-c50c-4aa8-ac60-2dc6fc502a5d">
        <g
           id="id-c3ef01a2-13e8-4e9e-84b7-cb7ddf735def">
          <symbol
             overflow="visible"
             id="id-c645f3ff-a329-4c07-a198-db16c5a0c4ae">
            <path
               style="stroke:none"
               d=""
               id="id-4e988064-5094-41f7-906d-4a9a1cec4acf" />
          </symbol>
          <symbol
             overflow="visible"
             id="id-79393fb8-b20a-4cc2-bbf2-3c662d29aca8">
            <path
               style="stroke:none"
               d="m 4.40625,-6.953125 c -0.0625,-0.140625 -0.09375,-0.1875 -0.265625,-0.1875 -0.15625,0 -0.1875,0.046875 -0.25,0.1875 l -3.375,6.75 C 0.46875,-0.109375 0.46875,-0.09375 0.46875,-0.078125 0.46875,0 0.53125,0 0.6875,0 h 6.921875 c 0.15625,0 0.21875,0 0.21875,-0.078125 0,-0.015625 0,-0.03125 -0.046875,-0.125 z m -0.578125,0.8125 2.6875,5.390625 h -5.375 z m 0,0"
               id="id-8b3fd74f-24cc-4071-90ed-3c977ae210ff" />
          </symbol>
          <symbol
             overflow="visible"
             id="id-bfa37f9b-2659-4dfc-8953-0af8b88384f9">
            <path
               style="stroke:none"
               d=""
               id="id-76f855ce-f16a-4940-804b-c4ccc966c83a" />
          </symbol>
          <symbol
             overflow="visible"
             id="id-ba1238d8-121e-46b8-bc5f-e9ee16daca9f">
            <path
               style="stroke:none"
               d="m 5.15625,-3.71875 c 0.140625,0 0.5,0 0.5,-0.34375 0,-0.234375 -0.21875,-0.234375 -0.390625,-0.234375 h -2.28125 c -1.5,0 -2.609375,1.640625 -2.609375,2.828125 0,0.875 0.59375,1.578125 1.5,1.578125 1.171875,0 2.5,-1.203125 2.5,-2.734375 0,-0.171875 0,-0.65625 -0.3125,-1.09375 z M 1.890625,-0.109375 C 1.390625,-0.109375 1,-0.46875 1,-1.1875 c 0,-0.296875 0.109375,-1.109375 0.46875,-1.703125 0.421875,-0.6875 1.015625,-0.828125 1.359375,-0.828125 0.828125,0 0.90625,0.65625 0.90625,0.96875 0,0.46875 -0.203125,1.28125 -0.53125,1.796875 -0.390625,0.578125 -0.9375,0.84375 -1.3125,0.84375 z m 0,0"
               id="id-78f3c44a-e351-425b-9853-fc847c3c2125" />
          </symbol>
        </g>
      </defs>
      <g
         id="id-94004a50-e42f-4260-b34b-5b2417b95232"
         transform="translate(-149.181,-127.624)">
        <g
           style="fill:#000000;fill-opacity:1"
           id="id-f8e1dd28-690d-43e6-8105-6cd76061fb9a">
          <g
             transform="translate(148.712,134.765)"
             id="g8783">
            <path
               style="stroke:none"
               d="m 4.40625,-6.953125 c -0.0625,-0.140625 -0.09375,-0.1875 -0.265625,-0.1875 -0.15625,0 -0.1875,0.046875 -0.25,0.1875 l -3.375,6.75 C 0.46875,-0.109375 0.46875,-0.09375 0.46875,-0.078125 0.46875,0 0.53125,0 0.6875,0 h 6.921875 c 0.15625,0 0.21875,0 0.21875,-0.078125 0,-0.015625 0,-0.03125 -0.046875,-0.125 z m -0.578125,0.8125 2.6875,5.390625 h -5.375 z m 0,0"
               id="id-40c1ce2b-4c78-4cd5-9b5c-fb5e552fc61f" />
          </g>
        </g>
        <g
           style="fill:#000000;fill-opacity:1"
           id="id-761f55bc-7d4e-49db-8160-6e1cfad657a5">
          <g
             transform="translate(157.015,134.765)"
             id="g8787">
            <path
               style="stroke:none"
               d="m 5.15625,-3.71875 c 0.140625,0 0.5,0 0.5,-0.34375 0,-0.234375 -0.21875,-0.234375 -0.390625,-0.234375 h -2.28125 c -1.5,0 -2.609375,1.640625 -2.609375,2.828125 0,0.875 0.59375,1.578125 1.5,1.578125 1.171875,0 2.5,-1.203125 2.5,-2.734375 0,-0.171875 0,-0.65625 -0.3125,-1.09375 z M 1.890625,-0.109375 C 1.390625,-0.109375 1,-0.46875 1,-1.1875 c 0,-0.296875 0.109375,-1.109375 0.46875,-1.703125 0.421875,-0.6875 1.015625,-0.828125 1.359375,-0.828125 0.828125,0 0.90625,0.65625 0.90625,0.96875 0,0.46875 -0.203125,1.28125 -0.53125,1.796875 -0.390625,0.578125 -0.9375,0.84375 -1.3125,0.84375 z m 0,0"
               id="id-647272fb-25d0-45dd-b579-348ed6aea57a" />
          </g>
        </g>
      </g>
    </g>
    <path
       style="fill:none;stroke:#000000;stroke-width:0.264583px;stroke-linecap:butt;stroke-linejoin:miter;stroke-opacity:1"
       d="M 65.839202,12.282253 H 79.38658"
       id="path8864" />
    <path
       style="fill:none;stroke:#000000;stroke-width:0.264583px;stroke-linecap:butt;stroke-linejoin:miter;stroke-opacity:1"
       d="M 56.825189,34.79093 V 13.336524"
       id="path8979" />
    <g
       transform="matrix(0.352778,0,0,0.352778,57.692837,22.415936)"
       ns1:version="1.1.0"
       ns1:texconverter="pdflatex"
       ns1:pdfconverter="inkscape"
       ns1:text="$\\Delta e$"
       ns1:preamble="C:\\Users\\zamcr\\AppData\\Roaming\\inkscape\\extensions\\textext\\default_packages.tex"
       ns1:scale="1.0"
       ns1:alignment="middle center"
       ns1:inkscapeversion="1.1.1"
       ns1:jacobian_sqrt="0.352778"
       id="g9432">
      <defs
         id="id-8a794e2f-0998-423d-a0e0-93ce4d930465">
        <g
           id="id-a8894c9d-f72a-4f1c-a079-e600a42019f6">
          <symbol
             overflow="visible"
             id="id-29e9eb2d-8e83-4274-a6bc-885d9858d6b4">
            <path
               style="stroke:none"
               d=""
               id="id-cf3c4a61-fdd2-4d34-a2c7-7535c2742188" />
          </symbol>
          <symbol
             overflow="visible"
             id="id-7eb5d8a5-5778-42a2-998d-b0f4e19c9fc3">
            <path
               style="stroke:none"
               d="m 4.40625,-6.953125 c -0.0625,-0.140625 -0.09375,-0.1875 -0.265625,-0.1875 -0.15625,0 -0.1875,0.046875 -0.25,0.1875 l -3.375,6.75 C 0.46875,-0.109375 0.46875,-0.09375 0.46875,-0.078125 0.46875,0 0.53125,0 0.6875,0 h 6.921875 c 0.15625,0 0.21875,0 0.21875,-0.078125 0,-0.015625 0,-0.03125 -0.046875,-0.125 z m -0.578125,0.8125 2.6875,5.390625 h -5.375 z m 0,0"
               id="id-4ee17aac-3211-4aad-a21f-30d9fffa0763" />
          </symbol>
          <symbol
             overflow="visible"
             id="id-2deadb7d-d54a-49d8-a8db-346945afc262">
            <path
               style="stroke:none"
               d=""
               id="id-ecaf741f-e624-40e1-8c31-12f8f3dd2b8c" />
          </symbol>
          <symbol
             overflow="visible"
             id="id-e509ee20-612c-4e02-b797-31db434f3a34">
            <path
               style="stroke:none"
               d="m 1.859375,-2.296875 c 0.296875,0 1.03125,-0.03125 1.53125,-0.234375 0.703125,-0.296875 0.75,-0.890625 0.75,-1.03125 0,-0.4375 -0.375,-0.84375 -1.0625,-0.84375 -1.109375,0 -2.625,0.96875 -2.625,2.71875 0,1.015625 0.59375,1.796875 1.578125,1.796875 1.421875,0 2.25,-1.0625 2.25,-1.171875 0,-0.0625 -0.046875,-0.140625 -0.109375,-0.140625 -0.0625,0 -0.078125,0.03125 -0.140625,0.109375 -0.78125,0.984375 -1.875,0.984375 -1.984375,0.984375 -0.78125,0 -0.875,-0.84375 -0.875,-1.15625 0,-0.125 0.015625,-0.421875 0.15625,-1.03125 z m -0.46875,-0.21875 C 1.78125,-4.03125 2.8125,-4.1875 3.078125,-4.1875 c 0.453125,0 0.734375,0.296875 0.734375,0.625 0,1.046875 -1.59375,1.046875 -2.015625,1.046875 z m 0,0"
               id="id-99290f19-d72c-44f1-a14d-9244df216ae8" />
          </symbol>
        </g>
      </defs>
      <g
         id="id-6b8004ec-d84b-4a4e-9c28-b0a7c4f2e6ad"
         transform="translate(-149.181,-127.624)">
        <g
           style="fill:#000000;fill-opacity:1"
           id="id-04abbed3-4eca-45e4-9703-4f4ef2fcf22d">
          <g
             transform="translate(148.712,134.765)"
             id="g9424">
            <path
               style="stroke:none"
               d="m 4.40625,-6.953125 c -0.0625,-0.140625 -0.09375,-0.1875 -0.265625,-0.1875 -0.15625,0 -0.1875,0.046875 -0.25,0.1875 l -3.375,6.75 C 0.46875,-0.109375 0.46875,-0.09375 0.46875,-0.078125 0.46875,0 0.53125,0 0.6875,0 h 6.921875 c 0.15625,0 0.21875,0 0.21875,-0.078125 0,-0.015625 0,-0.03125 -0.046875,-0.125 z m -0.578125,0.8125 2.6875,5.390625 h -5.375 z m 0,0"
               id="id-f622649a-2358-4b0b-b4e0-942e0efda869" />
          </g>
        </g>
        <g
           style="fill:#000000;fill-opacity:1"
           id="id-27e54cb6-8a0b-407b-92b6-fc22af1ba1c8">
          <g
             transform="translate(157.015,134.765)"
             id="g9428">
            <path
               style="stroke:none"
               d="m 1.859375,-2.296875 c 0.296875,0 1.03125,-0.03125 1.53125,-0.234375 0.703125,-0.296875 0.75,-0.890625 0.75,-1.03125 0,-0.4375 -0.375,-0.84375 -1.0625,-0.84375 -1.109375,0 -2.625,0.96875 -2.625,2.71875 0,1.015625 0.59375,1.796875 1.578125,1.796875 1.421875,0 2.25,-1.0625 2.25,-1.171875 0,-0.0625 -0.046875,-0.140625 -0.109375,-0.140625 -0.0625,0 -0.078125,0.03125 -0.140625,0.109375 -0.78125,0.984375 -1.875,0.984375 -1.984375,0.984375 -0.78125,0 -0.875,-0.84375 -0.875,-1.15625 0,-0.125 0.015625,-0.421875 0.15625,-1.03125 z m -0.46875,-0.21875 C 1.78125,-4.03125 2.8125,-4.1875 3.078125,-4.1875 c 0.453125,0 0.734375,0.296875 0.734375,0.625 0,1.046875 -1.59375,1.046875 -2.015625,1.046875 z m 0,0"
               id="id-8aa2a7b1-a24c-4c17-9286-6595355e60f3" />
          </g>
        </g>
      </g>
    </g>
    <path
       style="fill:none;stroke:#000000;stroke-width:0.264583px;stroke-linecap:butt;stroke-linejoin:miter;stroke-opacity:1;marker-mid:url(#marker9760);marker-end:url(#marker9760)"
       d="M 38.639019,9.8574306 C 52.100256,14.608225 51.783898,6.1869463 69.898143,10.437279"
       id="path9505"
       sodipodi:nodetypes="cc" />
    <g
       id="g9894"
       transform="translate(62.918675)">
      <path
         style="color:#000000;fill:#000000;-inkscape-stroke:none"
         d="M 53.318359,1.5820312 V 34.664062 h 0.265625 V 1.8476562 h 30.431641 v -0.265625 z"
         id="path9878" />
      <g
         id="g9892">
        <g
           id="g9884">
          <path
             style="color:#000000;fill:#000000;fill-rule:evenodd;stroke-width:0.105833pt;-inkscape-stroke:none"
             d="m 82.95748,1.7146084 -0.529166,0.529166 1.852081,-0.529166 -1.852081,-0.529166 z"
             id="path9880" />
          <path
             style="color:#000000;fill:#000000;fill-rule:evenodd;-inkscape-stroke:none"
             d="m 82.185547,1.0429687 0.671875,0.671875 -0.671875,0.6718751 2.351562,-0.6718751 z m 0.488281,0.2871094 1.347656,0.3847656 -1.351562,0.3867188 0.386719,-0.3867188 -0.04883,-0.050781 z"
             id="path9882" />
        </g>
        <g
           id="g9890">
          <path
             style="color:#000000;fill:#000000;fill-rule:evenodd;stroke-width:0.105833pt;-inkscape-stroke:none"
             d="m 53.451053,33.606577 -0.529166,-0.529166 0.529166,1.852081 0.529166,-1.852081 z"
             id="path9886" />
          <path
             style="color:#000000;fill:#000000;fill-rule:evenodd;-inkscape-stroke:none"
             d="m 52.779297,32.835937 0.671875,2.34961 0.671875,-2.34961 -0.671875,0.671875 z m 1.058594,0.482422 -0.386719,1.353516 -0.386719,-1.351563 0.386719,0.386719 L 53.5,33.65625 Z"
             id="path9888" />
        </g>
      </g>
    </g>
    <g
       transform="matrix(0.352778,0,0,0.352778,144.05574,2.8142839)"
       ns1:version="1.1.0"
       ns1:texconverter="pdflatex"
       ns1:pdfconverter="inkscape"
       ns1:text="$\\log \\sigma'$"
       ns1:preamble="C:\\Users\\zamcr\\AppData\\Roaming\\inkscape\\extensions\\textext\\default_packages.tex"
       ns1:scale="1.0"
       ns1:alignment="middle center"
       ns1:inkscapeversion="1.1.1"
       ns1:jacobian_sqrt="0.352778"
       id="g9960">
      <defs
         id="defs9930">
        <g
           id="g9928">
          <symbol
             overflow="visible"
             id="symbol9898">
            <path
               style="stroke:none"
               d=""
               id="path9896" />
          </symbol>
          <symbol
             overflow="visible"
             id="symbol9902">
            <path
               style="stroke:none"
               d="M 1.765625,-6.921875 0.328125,-6.8125 V -6.5 c 0.703125,0 0.78125,0.0625 0.78125,0.5625 V -0.75 c 0,0.4375 -0.109375,0.4375 -0.78125,0.4375 V 0 C 0.65625,-0.015625 1.1875,-0.03125 1.4375,-0.03125 c 0.25,0 0.734375,0.015625 1.109375,0.03125 v -0.3125 c -0.671875,0 -0.78125,0 -0.78125,-0.4375 z m 0,0"
               id="path9900" />
          </symbol>
          <symbol
             overflow="visible"
             id="symbol9906">
            <path
               style="stroke:none"
               d="M 4.6875,-2.140625 C 4.6875,-3.40625 3.703125,-4.46875 2.5,-4.46875 c -1.25,0 -2.21875,1.09375 -2.21875,2.328125 0,1.296875 1.03125,2.25 2.203125,2.25 1.203125,0 2.203125,-0.984375 2.203125,-2.25 z m -2.1875,2 c -0.4375,0 -0.875,-0.203125 -1.140625,-0.671875 -0.25,-0.4375 -0.25,-1.046875 -0.25,-1.40625 0,-0.390625 0,-0.921875 0.234375,-1.359375 C 1.609375,-4.03125 2.078125,-4.25 2.484375,-4.25 c 0.4375,0 0.859375,0.21875 1.125,0.65625 0.265625,0.421875 0.265625,1 0.265625,1.375 0,0.359375 0,0.90625 -0.21875,1.34375 C 3.421875,-0.421875 2.984375,-0.140625 2.5,-0.140625 Z m 0,0"
               id="path9904" />
          </symbol>
          <symbol
             overflow="visible"
             id="symbol9910">
            <path
               style="stroke:none"
               d="m 2.21875,-1.71875 c -0.875,0 -0.875,-1 -0.875,-1.21875 0,-0.265625 0.015625,-0.59375 0.15625,-0.84375 0.078125,-0.109375 0.3125,-0.390625 0.71875,-0.390625 0.859375,0 0.859375,0.984375 0.859375,1.21875 0,0.265625 0,0.59375 -0.15625,0.84375 C 2.84375,-2 2.609375,-1.71875 2.21875,-1.71875 Z M 1.0625,-1.328125 c 0,-0.03125 0,-0.265625 0.15625,-0.46875 0.390625,0.28125 0.8125,0.3125 1,0.3125 0.921875,0 1.609375,-0.6875 1.609375,-1.453125 0,-0.375 -0.15625,-0.734375 -0.40625,-0.96875 C 3.78125,-4.25 4.140625,-4.296875 4.3125,-4.296875 c 0.03125,0 0.078125,0 0.109375,0.015625 C 4.3125,-4.25 4.25,-4.140625 4.25,-4.015625 c 0,0.171875 0.140625,0.28125 0.296875,0.28125 0.09375,0 0.28125,-0.0625 0.28125,-0.296875 0,-0.171875 -0.109375,-0.484375 -0.5,-0.484375 -0.203125,0 -0.640625,0.0625 -1.0625,0.46875 C 2.84375,-4.375 2.4375,-4.40625 2.21875,-4.40625 c -0.9375,0 -1.625,0.6875 -1.625,1.453125 0,0.4375 0.21875,0.8125 0.46875,1.03125 -0.125,0.140625 -0.3125,0.46875 -0.3125,0.828125 0,0.3125 0.140625,0.6875 0.453125,0.890625 -0.609375,0.15625 -0.921875,0.59375 -0.921875,0.984375 0,0.71875 0.984375,1.265625 2.203125,1.265625 1.171875,0 2.203125,-0.5 2.203125,-1.28125 0,-0.34375 -0.125,-0.859375 -0.640625,-1.140625 -0.53125,-0.265625 -1.109375,-0.265625 -1.71875,-0.265625 -0.25,0 -0.671875,0 -0.75,-0.015625 C 1.265625,-0.703125 1.0625,-1 1.0625,-1.328125 Z M 2.5,1.828125 c -1.015625,0 -1.703125,-0.515625 -1.703125,-1.046875 0,-0.453125 0.375,-0.828125 0.8125,-0.84375 h 0.59375 c 0.859375,0 1.96875,0 1.96875,0.84375 0,0.546875 -0.703125,1.046875 -1.671875,1.046875 z m 0,0"
               id="path9908" />
          </symbol>
          <symbol
             overflow="visible"
             id="symbol9914">
            <path
               style="stroke:none"
               d=""
               id="path9912" />
          </symbol>
          <symbol
             overflow="visible"
             id="symbol9918">
            <path
               style="stroke:none"
               d="m 5.15625,-3.71875 c 0.140625,0 0.5,0 0.5,-0.34375 0,-0.234375 -0.21875,-0.234375 -0.390625,-0.234375 h -2.28125 c -1.5,0 -2.609375,1.640625 -2.609375,2.828125 0,0.875 0.59375,1.578125 1.5,1.578125 1.171875,0 2.5,-1.203125 2.5,-2.734375 0,-0.171875 0,-0.65625 -0.3125,-1.09375 z M 1.890625,-0.109375 C 1.390625,-0.109375 1,-0.46875 1,-1.1875 c 0,-0.296875 0.109375,-1.109375 0.46875,-1.703125 0.421875,-0.6875 1.015625,-0.828125 1.359375,-0.828125 0.828125,0 0.90625,0.65625 0.90625,0.96875 0,0.46875 -0.203125,1.28125 -0.53125,1.796875 -0.390625,0.578125 -0.9375,0.84375 -1.3125,0.84375 z m 0,0"
               id="path9916" />
          </symbol>
          <symbol
             overflow="visible"
             id="symbol9922">
            <path
               style="stroke:none"
               d=""
               id="path9920" />
          </symbol>
          <symbol
             overflow="visible"
             id="symbol9926">
            <path
               style="stroke:none"
               d="m 2.015625,-3.296875 c 0.0625,-0.109375 0.0625,-0.171875 0.0625,-0.21875 0,-0.21875 -0.1875,-0.375 -0.40625,-0.375 -0.265625,0 -0.34375,0.21875 -0.375,0.328125 L 0.375,-0.546875 c -0.015625,0.015625 -0.046875,0.09375 -0.046875,0.109375 0,0.078125 0.21875,0.15625 0.28125,0.15625 0.046875,0 0.046875,-0.015625 0.09375,-0.125 z m 0,0"
               id="path9924" />
          </symbol>
        </g>
      </defs>
      <g
         id="g9958"
         transform="translate(-149.04,-127.258)">
        <g
           style="fill:#000000;fill-opacity:1"
           id="g9944">
          <g
             transform="translate(148.712,134.765)"
             id="g9934">
            <path
               style="stroke:none"
               d="M 1.765625,-6.921875 0.328125,-6.8125 V -6.5 c 0.703125,0 0.78125,0.0625 0.78125,0.5625 V -0.75 c 0,0.4375 -0.109375,0.4375 -0.78125,0.4375 V 0 C 0.65625,-0.015625 1.1875,-0.03125 1.4375,-0.03125 c 0.25,0 0.734375,0.015625 1.109375,0.03125 v -0.3125 c -0.671875,0 -0.78125,0 -0.78125,-0.4375 z m 0,0"
               id="path9932" />
          </g>
          <g
             transform="translate(151.48,134.765)"
             id="g9938">
            <path
               style="stroke:none"
               d="M 4.6875,-2.140625 C 4.6875,-3.40625 3.703125,-4.46875 2.5,-4.46875 c -1.25,0 -2.21875,1.09375 -2.21875,2.328125 0,1.296875 1.03125,2.25 2.203125,2.25 1.203125,0 2.203125,-0.984375 2.203125,-2.25 z m -2.1875,2 c -0.4375,0 -0.875,-0.203125 -1.140625,-0.671875 -0.25,-0.4375 -0.25,-1.046875 -0.25,-1.40625 0,-0.390625 0,-0.921875 0.234375,-1.359375 C 1.609375,-4.03125 2.078125,-4.25 2.484375,-4.25 c 0.4375,0 0.859375,0.21875 1.125,0.65625 0.265625,0.421875 0.265625,1 0.265625,1.375 0,0.359375 0,0.90625 -0.21875,1.34375 C 3.421875,-0.421875 2.984375,-0.140625 2.5,-0.140625 Z m 0,0"
               id="path9936" />
          </g>
          <g
             transform="translate(156.461,134.765)"
             id="g9942">
            <path
               style="stroke:none"
               d="m 2.21875,-1.71875 c -0.875,0 -0.875,-1 -0.875,-1.21875 0,-0.265625 0.015625,-0.59375 0.15625,-0.84375 0.078125,-0.109375 0.3125,-0.390625 0.71875,-0.390625 0.859375,0 0.859375,0.984375 0.859375,1.21875 0,0.265625 0,0.59375 -0.15625,0.84375 C 2.84375,-2 2.609375,-1.71875 2.21875,-1.71875 Z M 1.0625,-1.328125 c 0,-0.03125 0,-0.265625 0.15625,-0.46875 0.390625,0.28125 0.8125,0.3125 1,0.3125 0.921875,0 1.609375,-0.6875 1.609375,-1.453125 0,-0.375 -0.15625,-0.734375 -0.40625,-0.96875 C 3.78125,-4.25 4.140625,-4.296875 4.3125,-4.296875 c 0.03125,0 0.078125,0 0.109375,0.015625 C 4.3125,-4.25 4.25,-4.140625 4.25,-4.015625 c 0,0.171875 0.140625,0.28125 0.296875,0.28125 0.09375,0 0.28125,-0.0625 0.28125,-0.296875 0,-0.171875 -0.109375,-0.484375 -0.5,-0.484375 -0.203125,0 -0.640625,0.0625 -1.0625,0.46875 C 2.84375,-4.375 2.4375,-4.40625 2.21875,-4.40625 c -0.9375,0 -1.625,0.6875 -1.625,1.453125 0,0.4375 0.21875,0.8125 0.46875,1.03125 -0.125,0.140625 -0.3125,0.46875 -0.3125,0.828125 0,0.3125 0.140625,0.6875 0.453125,0.890625 -0.609375,0.15625 -0.921875,0.59375 -0.921875,0.984375 0,0.71875 0.984375,1.265625 2.203125,1.265625 1.171875,0 2.203125,-0.5 2.203125,-1.28125 0,-0.34375 -0.125,-0.859375 -0.640625,-1.140625 -0.53125,-0.265625 -1.109375,-0.265625 -1.71875,-0.265625 -0.25,0 -0.671875,0 -0.75,-0.015625 C 1.265625,-0.703125 1.0625,-1 1.0625,-1.328125 Z M 2.5,1.828125 c -1.015625,0 -1.703125,-0.515625 -1.703125,-1.046875 0,-0.453125 0.375,-0.828125 0.8125,-0.84375 h 0.59375 c 0.859375,0 1.96875,0 1.96875,0.84375 0,0.546875 -0.703125,1.046875 -1.671875,1.046875 z m 0,0"
               id="path9940" />
          </g>
        </g>
        <g
           style="fill:#000000;fill-opacity:1"
           id="g9950">
          <g
             transform="translate(163.241,134.765)"
             id="g9948">
            <path
               style="stroke:none"
               d="m 5.15625,-3.71875 c 0.140625,0 0.5,0 0.5,-0.34375 0,-0.234375 -0.21875,-0.234375 -0.390625,-0.234375 h -2.28125 c -1.5,0 -2.609375,1.640625 -2.609375,2.828125 0,0.875 0.59375,1.578125 1.5,1.578125 1.171875,0 2.5,-1.203125 2.5,-2.734375 0,-0.171875 0,-0.65625 -0.3125,-1.09375 z M 1.890625,-0.109375 C 1.390625,-0.109375 1,-0.46875 1,-1.1875 c 0,-0.296875 0.109375,-1.109375 0.46875,-1.703125 0.421875,-0.6875 1.015625,-0.828125 1.359375,-0.828125 0.828125,0 0.90625,0.65625 0.90625,0.96875 0,0.46875 -0.203125,1.28125 -0.53125,1.796875 -0.390625,0.578125 -0.9375,0.84375 -1.3125,0.84375 z m 0,0"
               id="path9946" />
          </g>
        </g>
        <g
           style="fill:#000000;fill-opacity:1"
           id="g9956">
          <g
             transform="translate(169.291,131.149)"
             id="g9954">
            <path
               style="stroke:none"
               d="m 2.015625,-3.296875 c 0.0625,-0.109375 0.0625,-0.171875 0.0625,-0.21875 0,-0.21875 -0.1875,-0.375 -0.40625,-0.375 -0.265625,0 -0.34375,0.21875 -0.375,0.328125 L 0.375,-0.546875 c -0.015625,0.015625 -0.046875,0.09375 -0.046875,0.109375 0,0.078125 0.21875,0.15625 0.28125,0.15625 0.046875,0 0.046875,-0.015625 0.09375,-0.125 z m 0,0"
               id="path9952" />
          </g>
        </g>
      </g>
    </g>
    <g
       transform="matrix(0.352778,0,0,0.352778,116.72349,34.166553)"
       ns1:version="1.1.0"
       ns1:texconverter="pdflatex"
       ns1:pdfconverter="inkscape"
       ns1:text="$e$"
       ns1:preamble="C:\\Users\\zamcr\\AppData\\Roaming\\inkscape\\extensions\\textext\\default_packages.tex"
       ns1:scale="1.0"
       ns1:alignment="middle center"
       ns1:inkscapeversion="1.1.1"
       ns1:jacobian_sqrt="0.352778"
       id="g9982">
      <defs
         id="defs9972">
        <g
           id="g9970">
          <symbol
             overflow="visible"
             id="symbol9964">
            <path
               style="stroke:none"
               d=""
               id="path9962" />
          </symbol>
          <symbol
             overflow="visible"
             id="symbol9968">
            <path
               style="stroke:none"
               d="m 1.859375,-2.296875 c 0.296875,0 1.03125,-0.03125 1.53125,-0.234375 0.703125,-0.296875 0.75,-0.890625 0.75,-1.03125 0,-0.4375 -0.375,-0.84375 -1.0625,-0.84375 -1.109375,0 -2.625,0.96875 -2.625,2.71875 0,1.015625 0.59375,1.796875 1.578125,1.796875 1.421875,0 2.25,-1.0625 2.25,-1.171875 0,-0.0625 -0.046875,-0.140625 -0.109375,-0.140625 -0.0625,0 -0.078125,0.03125 -0.140625,0.109375 -0.78125,0.984375 -1.875,0.984375 -1.984375,0.984375 -0.78125,0 -0.875,-0.84375 -0.875,-1.15625 0,-0.125 0.015625,-0.421875 0.15625,-1.03125 z m -0.46875,-0.21875 C 1.78125,-4.03125 2.8125,-4.1875 3.078125,-4.1875 c 0.453125,0 0.734375,0.296875 0.734375,0.625 0,1.046875 -1.59375,1.046875 -2.015625,1.046875 z m 0,0"
               id="path9966" />
          </symbol>
        </g>
      </defs>
      <g
         id="g9980"
         transform="translate(-149.165,-130.359)">
        <g
           style="fill:#000000;fill-opacity:1"
           id="g9978">
          <g
             transform="translate(148.712,134.765)"
             id="g9976">
            <path
               style="stroke:none"
               d="m 1.859375,-2.296875 c 0.296875,0 1.03125,-0.03125 1.53125,-0.234375 0.703125,-0.296875 0.75,-0.890625 0.75,-1.03125 0,-0.4375 -0.375,-0.84375 -1.0625,-0.84375 -1.109375,0 -2.625,0.96875 -2.625,2.71875 0,1.015625 0.59375,1.796875 1.578125,1.796875 1.421875,0 2.25,-1.0625 2.25,-1.171875 0,-0.0625 -0.046875,-0.140625 -0.109375,-0.140625 -0.0625,0 -0.078125,0.03125 -0.140625,0.109375 -0.78125,0.984375 -1.875,0.984375 -1.984375,0.984375 -0.78125,0 -0.875,-0.84375 -0.875,-1.15625 0,-0.125 0.015625,-0.421875 0.15625,-1.03125 z m -0.46875,-0.21875 C 1.78125,-4.03125 2.8125,-4.1875 3.078125,-4.1875 c 0.453125,0 0.734375,0.296875 0.734375,0.625 0,1.046875 -1.59375,1.046875 -2.015625,1.046875 z m 0,0"
               id="path9974" />
          </g>
        </g>
      </g>
    </g>
    <path
       style="fill:none;stroke:#ff0000;stroke-width:0.264583;stroke-linecap:butt;stroke-linejoin:miter;stroke-miterlimit:4;stroke-dasharray:0.529166, 1.5875;stroke-dashoffset:0;stroke-opacity:1"
       d="M 130.16115,1.6773343 V 14.685994 h -13.65849"
       id="path9984" />
    <g
       transform="matrix(0.352778,0,0,0.352778,124.12942,2.511228)"
       ns1:version="1.1.0"
       ns1:texconverter="pdflatex"
       ns1:pdfconverter="inkscape"
       ns1:text="$\\sigma'_0=\\sigma'_c$"
       ns1:preamble="C:\\Users\\zamcr\\AppData\\Roaming\\inkscape\\extensions\\textext\\default_packages.tex"
       ns1:scale="1.0"
       ns1:alignment="middle center"
       ns1:inkscapeversion="1.1.1"
       ns1:jacobian_sqrt="0.352778"
       id="g10074">
      <defs
         id="defs10028">
        <g
           id="g10026">
          <symbol
             overflow="visible"
             id="symbol9988">
            <path
               style="stroke:none"
               d=""
               id="path9986" />
          </symbol>
          <symbol
             overflow="visible"
             id="symbol9992">
            <path
               style="stroke:none"
               d="m 5.15625,-3.71875 c 0.140625,0 0.5,0 0.5,-0.34375 0,-0.234375 -0.21875,-0.234375 -0.390625,-0.234375 h -2.28125 c -1.5,0 -2.609375,1.640625 -2.609375,2.828125 0,0.875 0.59375,1.578125 1.5,1.578125 1.171875,0 2.5,-1.203125 2.5,-2.734375 0,-0.171875 0,-0.65625 -0.3125,-1.09375 z M 1.890625,-0.109375 C 1.390625,-0.109375 1,-0.46875 1,-1.1875 c 0,-0.296875 0.109375,-1.109375 0.46875,-1.703125 0.421875,-0.6875 1.015625,-0.828125 1.359375,-0.828125 0.828125,0 0.90625,0.65625 0.90625,0.96875 0,0.46875 -0.203125,1.28125 -0.53125,1.796875 -0.390625,0.578125 -0.9375,0.84375 -1.3125,0.84375 z m 0,0"
               id="path9990" />
          </symbol>
          <symbol
             overflow="visible"
             id="symbol9996">
            <path
               style="stroke:none"
               d=""
               id="path9994" />
          </symbol>
          <symbol
             overflow="visible"
             id="symbol10000">
            <path
               style="stroke:none"
               d="m 2.015625,-3.296875 c 0.0625,-0.109375 0.0625,-0.171875 0.0625,-0.21875 0,-0.21875 -0.1875,-0.375 -0.40625,-0.375 -0.265625,0 -0.34375,0.21875 -0.375,0.328125 L 0.375,-0.546875 c -0.015625,0.015625 -0.046875,0.09375 -0.046875,0.109375 0,0.078125 0.21875,0.15625 0.28125,0.15625 0.046875,0 0.046875,-0.015625 0.09375,-0.125 z m 0,0"
               id="path9998" />
          </symbol>
          <symbol
             overflow="visible"
             id="symbol10004">
            <path
               style="stroke:none"
               d=""
               id="path10002" />
          </symbol>
          <symbol
             overflow="visible"
             id="symbol10008">
            <path
               style="stroke:none"
               d="M 3.59375,-2.21875 C 3.59375,-2.984375 3.5,-3.546875 3.1875,-4.03125 2.96875,-4.34375 2.53125,-4.625 1.984375,-4.625 c -1.625,0 -1.625,1.90625 -1.625,2.40625 0,0.5 0,2.359375 1.625,2.359375 1.609375,0 1.609375,-1.859375 1.609375,-2.359375 z M 1.984375,-0.0625 c -0.328125,0 -0.75,-0.1875 -0.890625,-0.75 C 1,-1.21875 1,-1.796875 1,-2.3125 1,-2.828125 1,-3.359375 1.09375,-3.734375 1.25,-4.28125 1.6875,-4.4375 1.984375,-4.4375 c 0.375,0 0.734375,0.234375 0.859375,0.640625 0.109375,0.375 0.125,0.875 0.125,1.484375 0,0.515625 0,1.03125 -0.09375,1.46875 -0.140625,0.640625 -0.609375,0.78125 -0.890625,0.78125 z m 0,0"
               id="path10006" />
          </symbol>
          <symbol
             overflow="visible"
             id="symbol10012">
            <path
               style="stroke:none"
               d=""
               id="path10010" />
          </symbol>
          <symbol
             overflow="visible"
             id="symbol10016">
            <path
               style="stroke:none"
               d="m 6.84375,-3.265625 c 0.15625,0 0.34375,0 0.34375,-0.1875 C 7.1875,-3.65625 7,-3.65625 6.859375,-3.65625 h -5.96875 c -0.140625,0 -0.328125,0 -0.328125,0.203125 0,0.1875 0.1875,0.1875 0.328125,0.1875 z m 0.015625,1.9375 c 0.140625,0 0.328125,0 0.328125,-0.203125 0,-0.1875 -0.1875,-0.1875 -0.34375,-0.1875 H 0.890625 c -0.140625,0 -0.328125,0 -0.328125,0.1875 0,0.203125 0.1875,0.203125 0.328125,0.203125 z m 0,0"
               id="path10014" />
          </symbol>
          <symbol
             overflow="visible"
             id="symbol10020">
            <path
               style="stroke:none"
               d=""
               id="path10018" />
          </symbol>
          <symbol
             overflow="visible"
             id="symbol10024">
            <path
               style="stroke:none"
               d="m 3.046875,-2.671875 c -0.25,0.046875 -0.34375,0.234375 -0.34375,0.390625 0,0.1875 0.140625,0.265625 0.265625,0.265625 0.15625,0 0.390625,-0.109375 0.390625,-0.453125 0,-0.46875 -0.53125,-0.609375 -0.90625,-0.609375 -1.046875,0 -2.015625,0.96875 -2.015625,1.9375 0,0.59375 0.40625,1.203125 1.28125,1.203125 1.1875,0 1.734375,-0.6875 1.734375,-0.78125 0,-0.046875 -0.0625,-0.125 -0.125,-0.125 -0.03125,0 -0.046875,0.015625 -0.109375,0.078125 C 2.671875,-0.125 1.859375,-0.125 1.734375,-0.125 c -0.5,0 -0.71875,-0.34375 -0.71875,-0.78125 0,-0.1875 0.09375,-0.953125 0.453125,-1.4375 0.265625,-0.34375 0.625,-0.53125 0.984375,-0.53125 0.09375,0 0.421875,0.015625 0.59375,0.203125 z m 0,0"
               id="path10022" />
          </symbol>
        </g>
      </defs>
      <g
         id="g10072"
         transform="translate(-149.087,-127.258)">
        <g
           style="fill:#000000;fill-opacity:1"
           id="g10034">
          <g
             transform="translate(148.712,134.765)"
             id="g10032">
            <path
               style="stroke:none"
               d="m 5.15625,-3.71875 c 0.140625,0 0.5,0 0.5,-0.34375 0,-0.234375 -0.21875,-0.234375 -0.390625,-0.234375 h -2.28125 c -1.5,0 -2.609375,1.640625 -2.609375,2.828125 0,0.875 0.59375,1.578125 1.5,1.578125 1.171875,0 2.5,-1.203125 2.5,-2.734375 0,-0.171875 0,-0.65625 -0.3125,-1.09375 z M 1.890625,-0.109375 C 1.390625,-0.109375 1,-0.46875 1,-1.1875 c 0,-0.296875 0.109375,-1.109375 0.46875,-1.703125 0.421875,-0.6875 1.015625,-0.828125 1.359375,-0.828125 0.828125,0 0.90625,0.65625 0.90625,0.96875 0,0.46875 -0.203125,1.28125 -0.53125,1.796875 -0.390625,0.578125 -0.9375,0.84375 -1.3125,0.84375 z m 0,0"
               id="path10030" />
          </g>
        </g>
        <g
           style="fill:#000000;fill-opacity:1"
           id="g10040">
          <g
             transform="translate(154.763,131.149)"
             id="g10038">
            <path
               style="stroke:none"
               d="m 2.015625,-3.296875 c 0.0625,-0.109375 0.0625,-0.171875 0.0625,-0.21875 0,-0.21875 -0.1875,-0.375 -0.40625,-0.375 -0.265625,0 -0.34375,0.21875 -0.375,0.328125 L 0.375,-0.546875 c -0.015625,0.015625 -0.046875,0.09375 -0.046875,0.109375 0,0.078125 0.21875,0.15625 0.28125,0.15625 0.046875,0 0.046875,-0.015625 0.09375,-0.125 z m 0,0"
               id="path10036" />
          </g>
        </g>
        <g
           style="fill:#000000;fill-opacity:1"
           id="g10046">
          <g
             transform="translate(154.405,137.237)"
             id="g10044">
            <path
               style="stroke:none"
               d="M 3.59375,-2.21875 C 3.59375,-2.984375 3.5,-3.546875 3.1875,-4.03125 2.96875,-4.34375 2.53125,-4.625 1.984375,-4.625 c -1.625,0 -1.625,1.90625 -1.625,2.40625 0,0.5 0,2.359375 1.625,2.359375 1.609375,0 1.609375,-1.859375 1.609375,-2.359375 z M 1.984375,-0.0625 c -0.328125,0 -0.75,-0.1875 -0.890625,-0.75 C 1,-1.21875 1,-1.796875 1,-2.3125 1,-2.828125 1,-3.359375 1.09375,-3.734375 1.25,-4.28125 1.6875,-4.4375 1.984375,-4.4375 c 0.375,0 0.734375,0.234375 0.859375,0.640625 0.109375,0.375 0.125,0.875 0.125,1.484375 0,0.515625 0,1.03125 -0.09375,1.46875 -0.140625,0.640625 -0.609375,0.78125 -0.890625,0.78125 z m 0,0"
               id="path10042" />
          </g>
        </g>
        <g
           style="fill:#000000;fill-opacity:1"
           id="g10052">
          <g
             transform="translate(161.642,134.765)"
             id="g10050">
            <path
               style="stroke:none"
               d="m 6.84375,-3.265625 c 0.15625,0 0.34375,0 0.34375,-0.1875 C 7.1875,-3.65625 7,-3.65625 6.859375,-3.65625 h -5.96875 c -0.140625,0 -0.328125,0 -0.328125,0.203125 0,0.1875 0.1875,0.1875 0.328125,0.1875 z m 0.015625,1.9375 c 0.140625,0 0.328125,0 0.328125,-0.203125 0,-0.1875 -0.1875,-0.1875 -0.34375,-0.1875 H 0.890625 c -0.140625,0 -0.328125,0 -0.328125,0.1875 0,0.203125 0.1875,0.203125 0.328125,0.203125 z m 0,0"
               id="path10048" />
          </g>
        </g>
        <g
           style="fill:#000000;fill-opacity:1"
           id="g10058">
          <g
             transform="translate(172.158,134.765)"
             id="g10056">
            <path
               style="stroke:none"
               d="m 5.15625,-3.71875 c 0.140625,0 0.5,0 0.5,-0.34375 0,-0.234375 -0.21875,-0.234375 -0.390625,-0.234375 h -2.28125 c -1.5,0 -2.609375,1.640625 -2.609375,2.828125 0,0.875 0.59375,1.578125 1.5,1.578125 1.171875,0 2.5,-1.203125 2.5,-2.734375 0,-0.171875 0,-0.65625 -0.3125,-1.09375 z M 1.890625,-0.109375 C 1.390625,-0.109375 1,-0.46875 1,-1.1875 c 0,-0.296875 0.109375,-1.109375 0.46875,-1.703125 0.421875,-0.6875 1.015625,-0.828125 1.359375,-0.828125 0.828125,0 0.90625,0.65625 0.90625,0.96875 0,0.46875 -0.203125,1.28125 -0.53125,1.796875 -0.390625,0.578125 -0.9375,0.84375 -1.3125,0.84375 z m 0,0"
               id="path10054" />
          </g>
        </g>
        <g
           style="fill:#000000;fill-opacity:1"
           id="g10064">
          <g
             transform="translate(178.208,131.149)"
             id="g10062">
            <path
               style="stroke:none"
               d="m 2.015625,-3.296875 c 0.0625,-0.109375 0.0625,-0.171875 0.0625,-0.21875 0,-0.21875 -0.1875,-0.375 -0.40625,-0.375 -0.265625,0 -0.34375,0.21875 -0.375,0.328125 L 0.375,-0.546875 c -0.015625,0.015625 -0.046875,0.09375 -0.046875,0.109375 0,0.078125 0.21875,0.15625 0.28125,0.15625 0.046875,0 0.046875,-0.015625 0.09375,-0.125 z m 0,0"
               id="path10060" />
          </g>
        </g>
        <g
           style="fill:#000000;fill-opacity:1"
           id="g10070">
          <g
             transform="translate(177.851,137.228)"
             id="g10068">
            <path
               style="stroke:none"
               d="m 3.046875,-2.671875 c -0.25,0.046875 -0.34375,0.234375 -0.34375,0.390625 0,0.1875 0.140625,0.265625 0.265625,0.265625 0.15625,0 0.390625,-0.109375 0.390625,-0.453125 0,-0.46875 -0.53125,-0.609375 -0.90625,-0.609375 -1.046875,0 -2.015625,0.96875 -2.015625,1.9375 0,0.59375 0.40625,1.203125 1.28125,1.203125 1.1875,0 1.734375,-0.6875 1.734375,-0.78125 0,-0.046875 -0.0625,-0.125 -0.125,-0.125 -0.03125,0 -0.046875,0.015625 -0.109375,0.078125 C 2.671875,-0.125 1.859375,-0.125 1.734375,-0.125 c -0.5,0 -0.71875,-0.34375 -0.71875,-0.78125 0,-0.1875 0.09375,-0.953125 0.453125,-1.4375 0.265625,-0.34375 0.625,-0.53125 0.984375,-0.53125 0.09375,0 0.421875,0.015625 0.59375,0.203125 z m 0,0"
               id="path10066" />
          </g>
        </g>
      </g>
    </g>
    <g
       transform="matrix(0.352778,0,0,0.352778,112.6998,13.38733)"
       ns1:version="1.1.0"
       ns1:texconverter="pdflatex"
       ns1:pdfconverter="inkscape"
       ns1:text="$e_0$"
       ns1:preamble="C:\\Users\\zamcr\\AppData\\Roaming\\inkscape\\extensions\\textext\\default_packages.tex"
       ns1:scale="1.0"
       ns1:alignment="middle center"
       ns1:inkscapeversion="1.1.1"
       ns1:jacobian_sqrt="0.352778"
       id="g10110">
      <defs
         id="defs10094">
        <g
           id="g10092">
          <symbol
             overflow="visible"
             id="symbol10078">
            <path
               style="stroke:none"
               d=""
               id="path10076" />
          </symbol>
          <symbol
             overflow="visible"
             id="symbol10082">
            <path
               style="stroke:none"
               d="m 1.859375,-2.296875 c 0.296875,0 1.03125,-0.03125 1.53125,-0.234375 0.703125,-0.296875 0.75,-0.890625 0.75,-1.03125 0,-0.4375 -0.375,-0.84375 -1.0625,-0.84375 -1.109375,0 -2.625,0.96875 -2.625,2.71875 0,1.015625 0.59375,1.796875 1.578125,1.796875 1.421875,0 2.25,-1.0625 2.25,-1.171875 0,-0.0625 -0.046875,-0.140625 -0.109375,-0.140625 -0.0625,0 -0.078125,0.03125 -0.140625,0.109375 -0.78125,0.984375 -1.875,0.984375 -1.984375,0.984375 -0.78125,0 -0.875,-0.84375 -0.875,-1.15625 0,-0.125 0.015625,-0.421875 0.15625,-1.03125 z m -0.46875,-0.21875 C 1.78125,-4.03125 2.8125,-4.1875 3.078125,-4.1875 c 0.453125,0 0.734375,0.296875 0.734375,0.625 0,1.046875 -1.59375,1.046875 -2.015625,1.046875 z m 0,0"
               id="path10080" />
          </symbol>
          <symbol
             overflow="visible"
             id="symbol10086">
            <path
               style="stroke:none"
               d=""
               id="path10084" />
          </symbol>
          <symbol
             overflow="visible"
             id="symbol10090">
            <path
               style="stroke:none"
               d="M 3.59375,-2.21875 C 3.59375,-2.984375 3.5,-3.546875 3.1875,-4.03125 2.96875,-4.34375 2.53125,-4.625 1.984375,-4.625 c -1.625,0 -1.625,1.90625 -1.625,2.40625 0,0.5 0,2.359375 1.625,2.359375 1.609375,0 1.609375,-1.859375 1.609375,-2.359375 z M 1.984375,-0.0625 c -0.328125,0 -0.75,-0.1875 -0.890625,-0.75 C 1,-1.21875 1,-1.796875 1,-2.3125 1,-2.828125 1,-3.359375 1.09375,-3.734375 1.25,-4.28125 1.6875,-4.4375 1.984375,-4.4375 c 0.375,0 0.734375,0.234375 0.859375,0.640625 0.109375,0.375 0.125,0.875 0.125,1.484375 0,0.515625 0,1.03125 -0.09375,1.46875 -0.140625,0.640625 -0.609375,0.78125 -0.890625,0.78125 z m 0,0"
               id="path10088" />
          </symbol>
        </g>
      </defs>
      <g
         id="g10108"
         transform="translate(-149.165,-130.359)">
        <g
           style="fill:#000000;fill-opacity:1"
           id="g10100">
          <g
             transform="translate(148.712,134.765)"
             id="g10098">
            <path
               style="stroke:none"
               d="m 1.859375,-2.296875 c 0.296875,0 1.03125,-0.03125 1.53125,-0.234375 0.703125,-0.296875 0.75,-0.890625 0.75,-1.03125 0,-0.4375 -0.375,-0.84375 -1.0625,-0.84375 -1.109375,0 -2.625,0.96875 -2.625,2.71875 0,1.015625 0.59375,1.796875 1.578125,1.796875 1.421875,0 2.25,-1.0625 2.25,-1.171875 0,-0.0625 -0.046875,-0.140625 -0.109375,-0.140625 -0.0625,0 -0.078125,0.03125 -0.140625,0.109375 -0.78125,0.984375 -1.875,0.984375 -1.984375,0.984375 -0.78125,0 -0.875,-0.84375 -0.875,-1.15625 0,-0.125 0.015625,-0.421875 0.15625,-1.03125 z m -0.46875,-0.21875 C 1.78125,-4.03125 2.8125,-4.1875 3.078125,-4.1875 c 0.453125,0 0.734375,0.296875 0.734375,0.625 0,1.046875 -1.59375,1.046875 -2.015625,1.046875 z m 0,0"
               id="path10096" />
          </g>
        </g>
        <g
           style="fill:#000000;fill-opacity:1"
           id="g10106">
          <g
             transform="translate(153.351,136.259)"
             id="g10104">
            <path
               style="stroke:none"
               d="M 3.59375,-2.21875 C 3.59375,-2.984375 3.5,-3.546875 3.1875,-4.03125 2.96875,-4.34375 2.53125,-4.625 1.984375,-4.625 c -1.625,0 -1.625,1.90625 -1.625,2.40625 0,0.5 0,2.359375 1.625,2.359375 1.609375,0 1.609375,-1.859375 1.609375,-2.359375 z M 1.984375,-0.0625 c -0.328125,0 -0.75,-0.1875 -0.890625,-0.75 C 1,-1.21875 1,-1.796875 1,-2.3125 1,-2.828125 1,-3.359375 1.09375,-3.734375 1.25,-4.28125 1.6875,-4.4375 1.984375,-4.4375 c 0.375,0 0.734375,0.234375 0.859375,0.640625 0.109375,0.375 0.125,0.875 0.125,1.484375 0,0.515625 0,1.03125 -0.09375,1.46875 -0.140625,0.640625 -0.609375,0.78125 -0.890625,0.78125 z m 0,0"
               id="path10102" />
          </g>
        </g>
      </g>
    </g>
    <g
       id="g10134"
       transform="translate(62.918675)">
      <path
         style="color:#000000;fill:#0000ff;-inkscape-stroke:none"
         d="m 67.400391,14.595703 -0.316407,0.181641 2.703125,4.683593 2.705078,4.681641 2.703125,4.683594 2.703125,4.68164 0.316407,-0.18164 -2.703125,-4.683594 -2.703125,-4.681641 -2.705078,-4.683593 z"
         id="path10112" />
      <g
         id="g10132">
        <g
           id="g10118">
          <path
             style="color:#000000;fill:#0000ff;fill-rule:evenodd;stroke-width:0.073pt;-inkscape-stroke:none"
             d="m 75.134398,28.355215 -0.498599,-0.133599 0.954849,0.923847 -0.322651,-1.288847 z"
             id="path10114" />
          <path
             style="color:#000000;fill:#0000ff;fill-rule:evenodd;-inkscape-stroke:none"
             d="m 75.269531,27.662109 -0.169922,0.634766 -0.632812,-0.169922 1.21289,1.171875 z m -0.0039,0.388672 0.236328,0.941406 -0.697266,-0.673828 0.363282,0.0957 0.01367,-0.04687 z"
             id="path10116" />
        </g>
        <g
           id="g10124">
          <path
             style="color:#000000;fill:#0000ff;fill-rule:evenodd;stroke-width:0.073pt;-inkscape-stroke:none"
             d="m 72.430755,23.672368 -0.498599,-0.133599 0.954849,0.923847 -0.322651,-1.288847 z"
             id="path10120" />
          <path
             style="color:#000000;fill:#0000ff;fill-rule:evenodd;-inkscape-stroke:none"
             d="m 72.566406,22.980469 -0.169922,0.630859 -0.632812,-0.167969 1.210937,1.171875 z m -0.0039,0.386718 0.236328,0.94336 -0.697266,-0.675781 0.363282,0.09766 0.01367,-0.04687 z"
             id="path10122" />
        </g>
        <g
           id="g10130">
          <path
             style="color:#000000;fill:#0000ff;fill-rule:evenodd;stroke-width:0.073pt;-inkscape-stroke:none"
             d="m 69.727113,18.989521 -0.498599,-0.133599 0.954849,0.923847 -0.322651,-1.288847 z"
             id="path10126" />
          <path
             style="color:#000000;fill:#0000ff;fill-rule:evenodd;-inkscape-stroke:none"
             d="m 69.863281,18.296875 -0.171875,0.632812 -0.630859,-0.169921 1.210937,1.173828 z m -0.0039,0.386719 0.236328,0.943359 -0.699219,-0.675781 0.365235,0.09766 0.01172,-0.04687 z"
             id="path10128" />
        </g>
      </g>
    </g>
    <circle
       style="fill:#b7c8c4;stroke:#ff0000;stroke-width:0.264583;stroke-linecap:round;stroke-linejoin:round;stroke-miterlimit:4;stroke-dasharray:none;stroke-dashoffset:0;paint-order:fill markers stroke"
       id="circle10136"
       cx="130.15479"
       cy="14.733432"
       r="0.55349213" />
    <circle
       style="fill:#b7c8c4;stroke:#ff0000;stroke-width:0.264583;stroke-linecap:round;stroke-linejoin:round;stroke-miterlimit:4;stroke-dasharray:none;stroke-dashoffset:0;paint-order:fill markers stroke"
       id="circle10138"
       cx="141.11339"
       cy="33.519577"
       r="0.55349213" />
    <path
       style="fill:none;stroke:#ff0000;stroke-width:0.264583;stroke-linecap:butt;stroke-linejoin:miter;stroke-miterlimit:4;stroke-dasharray:0.529166, 1.05833;stroke-dashoffset:0;stroke-opacity:1"
       d="M 140.97572,33.41738 V 1.8476562"
       id="path10140" />
    <text
       xml:space="preserve"
       style="font-size:3.52777px;line-height:1;font-family:'Times New Roman';-inkscape-font-specification:'Times New Roman, ';text-align:center;text-anchor:middle;stroke-width:0.264583"
       x="131.13811"
       y="36.583191"
       id="text10144"><tspan
         sodipodi:role="line"
         id="tspan10142"
         style="stroke-width:0.264583"
         x="131.13811"
         y="36.583191">Soil in-lab</tspan></text>
    <path
       style="fill:none;stroke:#ff0000;stroke-width:0.264583;stroke-linecap:butt;stroke-linejoin:miter;stroke-miterlimit:4;stroke-dasharray:0.529166, 1.05833;stroke-dashoffset:0;stroke-opacity:1"
       d="M 140.97572,33.41738 H 116.87546"
       id="path10146" />
    <path
       style="fill:none;stroke:#6c5353;stroke-width:0.765;stroke-linecap:butt;stroke-linejoin:miter;stroke-opacity:1;stroke-miterlimit:4;stroke-dasharray:none"
       d="m 88.980443,30.152141 v -8.170598 h 17.711747 v 8.486878"
       id="path11766" />
    <rect
       style="fill:#ececec;stroke:#ff0000;stroke-width:0.35;stroke-linecap:round;stroke-linejoin:round;stroke-miterlimit:4;stroke-dasharray:none;paint-order:fill markers stroke"
       id="rect11866"
       width="1.8637048"
       height="2.5346386"
       x="95.97261"
       y="18.917736" />
    <text
       xml:space="preserve"
       style="font-size:3.52777px;line-height:1;font-family:'Times New Roman';-inkscape-font-specification:'Times New Roman, ';text-align:center;text-anchor:middle;stroke-width:0.264583"
       x="96.709381"
       y="16.546061"
       id="text11870"><tspan
         sodipodi:role="line"
         id="tspan11868"
         style="stroke-width:0.264583"
         x="96.709381"
         y="16.546061">Sample</tspan></text>
    <path
       style="fill:none;stroke:#ff0000;stroke-width:0.264583px;stroke-linecap:butt;stroke-linejoin:miter;stroke-opacity:1;marker-mid:url(#marker9760)"
       d="m 130.16086,14.686523 c -0.99938,-0.147632 -2.19331,-0.344978 -3.46398,-0.599881 -1.27067,-0.254902 -2.61808,-0.567362 -3.92442,-0.945221 -1.30634,-0.377859 -2.57161,-0.821118 -3.678,-1.337619 -1.10639,-0.5165 -2.0539,-1.106243 -2.72473,-1.77707"
       id="path11905"
       sodipodi:nodetypes="csssc" />
    <circle
       style="fill:#b7c8c4;stroke:#ff0000;stroke-width:0.264583;stroke-linecap:round;stroke-linejoin:round;stroke-miterlimit:4;stroke-dasharray:none;stroke-dashoffset:0;paint-order:fill markers stroke"
       id="circle12142"
       cx="116.39655"
       cy="9.9365005"
       r="0.55349213" />
    <path
       style="fill:none;stroke:#000000;stroke-width:0.264583px;stroke-linecap:butt;stroke-linejoin:miter;stroke-opacity:1;marker-end:url(#marker9760)"
       d="M 99.206866,19.662147 115.02093,10.59542"
       id="path12177" />
    <text
       xml:space="preserve"
       style="font-size:3.52777px;line-height:1;font-family:'Times New Roman';-inkscape-font-specification:'Times New Roman, ';text-align:center;text-anchor:middle;fill:#ff0000;stroke-width:0.264583"
       x="116.58839"
       y="4.2637463"
       id="text14231"><tspan
         sodipodi:role="line"
         id="tspan14229"
         style="fill:#ff0000;stroke-width:0.264583"
         x="116.58839"
         y="4.2637463">Sample</tspan><tspan
         sodipodi:role="line"
         style="fill:#ff0000;stroke-width:0.264583"
         x="116.58839"
         y="7.7915154"
         id="tspan14233">extraction</tspan></text>
    <path
       style="fill:none;stroke:#008000;stroke-width:0.264583px;stroke-linecap:butt;stroke-linejoin:miter;stroke-opacity:1;marker-mid:url(#Arrow1Send)"
       d="m 116.36973,10.026732 c 1.44349,0.932691 2.93202,1.672919 4.4279,2.381771 1.49588,0.708853 2.9991,1.38633 4.47196,2.193519 1.47286,0.807189 2.91536,1.744089 4.28981,2.971789 1.37444,1.227699 2.68082,2.746197 3.88145,4.71658 l 3.94462,5.836561"
       id="path14437"
       sodipodi:nodetypes="cssscc" />
    <path
       style="fill:none;stroke:#00ffff;stroke-width:0.264583px;stroke-linecap:butt;stroke-linejoin:miter;stroke-opacity:1;marker-mid:url(#marker9760)"
       d="m 137.38547,28.126952 c -3.93029,0.987769 -7.59768,-0.294569 -11.2872,-1.401424 -0.90259,-0.270776 -1.93748,-0.628904 -2.87011,-0.745483 -0.42886,-0.05361 -1.66224,-0.410015 -1.23004,-0.410015 0.90954,0 1.87542,-0.339725 2.79555,-0.186371 4.06531,0.677551 8.87038,2.086922 12.5241,3.91378 1.01197,0.505984 1.87967,2.577216 2.42282,3.391943"
       id="path14993" />
    <text
       xml:space="preserve"
       style="font-size:3.52777px;line-height:1;font-family:'Times New Roman';-inkscape-font-specification:'Times New Roman, ';text-align:center;text-anchor:middle;fill:#008000;stroke-width:0.264583"
       x="122.18449"
       y="18.92791"
       id="text16584"><tspan
         sodipodi:role="line"
         id="tspan16582"
         style="fill:#008000;stroke-width:0.264583"
         x="122.18449"
         y="18.92791">Loding</tspan><tspan
         sodipodi:role="line"
         style="fill:#008000;stroke-width:0.264583"
         x="122.18449"
         y="22.455681"
         id="tspan16586">stage</tspan></text>
    <text
       xml:space="preserve"
       style="font-size:3.52777px;line-height:1;font-family:'Times New Roman';-inkscape-font-specification:'Times New Roman, ';text-align:center;text-anchor:middle;fill:#00ffff;stroke-width:0.264583"
       x="113.83546"
       y="28.432833"
       id="text17838"><tspan
         sodipodi:role="line"
         id="tspan17836"
         style="fill:#00ffff;stroke-width:0.264583"
         x="113.83546"
         y="28.432833">Unloading</tspan><tspan
         sodipodi:role="line"
         style="fill:#00ffff;stroke-width:0.264583"
         x="113.83546"
         y="31.960602"
         id="tspan17840">reloading</tspan></text>
  </g>
</svg>
