<?xml version="1.0" encoding="UTF-8" standalone="no"?>
<!-- Created with Inkscape (http://www.inkscape.org/) -->

<svg
   width="107.30484mm"
   height="87.979256mm"
   viewBox="0 0 107.30484 87.979256"
   version="1.1"
   id="svg52869"
   inkscape:version="1.1.1 (3bf5ae0d25, 2021-09-20)"
   sodipodi:docname="pc_complexoverconsol.svg"
   xmlns:inkscape="http://www.inkscape.org/namespaces/inkscape"
   xmlns:sodipodi="http://sodipodi.sourceforge.net/DTD/sodipodi-0.dtd"
   xmlns="http://www.w3.org/2000/svg"
   xmlns:svg="http://www.w3.org/2000/svg"
   xmlns:ns1="http://www.iki.fi/pav/software/textext/">
  <sodipodi:namedview
     id="namedview52871"
     pagecolor="#505050"
     bordercolor="#ffffff"
     borderopacity="1"
     inkscape:pageshadow="0"
     inkscape:pageopacity="0"
     inkscape:pagecheckerboard="1"
     inkscape:document-units="mm"
     showgrid="false"
     inkscape:zoom="1.4467452"
     inkscape:cx="163.12478"
     inkscape:cy="169.69125"
     inkscape:window-width="1920"
     inkscape:window-height="1001"
     inkscape:window-x="-9"
     inkscape:window-y="1341"
     inkscape:window-maximized="1"
     inkscape:current-layer="layer1" />
  <defs
     id="defs52866">
    <clipPath
       id="clip0">
      <rect
         x="658"
         y="279"
         width="437"
         height="375"
         id="rect52937" />
    </clipPath>
  </defs>
  <g
     inkscape:label="Layer 1"
     inkscape:groupmode="layer"
     id="layer1"
     transform="translate(1.34824, -86.2222)">
    <path
       d="m 6.7849543,116.2524 h 25.3999997"
       stroke="#131519"
       stroke-width="0.440973"
       stroke-linejoin="round"
       stroke-miterlimit="10"
       stroke-dasharray="6.66667, 5"
       fill="none"
       fill-rule="evenodd"
       id="path52942"
       style="stroke:#666666" />
    <path
       d="m 7.5848463,154.33972 h 83.3832497"
       stroke="#131519"
       stroke-width="0.440973"
       stroke-linejoin="round"
       stroke-miterlimit="10"
       stroke-dasharray="6.66667, 5"
       fill="none"
       fill-rule="evenodd"
       id="path52944"
       style="stroke:#666666"
       sodipodi:nodetypes="cc" />
    <path
       d="m 33.243287,115.98782 v 49.68584"
       stroke="#131519"
       stroke-width="0.440973"
       stroke-linejoin="round"
       stroke-miterlimit="10"
       stroke-dasharray="6.66667, 5"
       fill="none"
       fill-rule="evenodd"
       id="path52946"
       style="stroke:#666666" />
    <path
       d="m 90.968096,154.33972 -3.5e-5,11.12932"
       stroke="#131519"
       stroke-width="0.440973"
       stroke-linejoin="round"
       stroke-miterlimit="10"
       stroke-dasharray="6.66667, 5"
       fill="none"
       fill-rule="evenodd"
       id="path52948"
       style="stroke:#666666"
       sodipodi:nodetypes="cc" />
    <path
       d="m 6.2888606,165.51385 3.38e-5,-77.086882 h -0.3307291 l -3.39e-5,77.086882 z m 1.1575864,-76.645822 -1.3229163,-2.645833 -1.322917,2.645833 z"
       fill="#9da1b4"
       id="path52950"
       style="stroke-width:0.264583" />
    <path
       d="m 6.3880794,165.49797 97.3637506,-3e-5 v -0.33073 l -97.3637508,4e-5 z m 96.9226906,1.15752 2.64584,-1.32291 -2.64584,-1.32292 z"
       fill="#9da1b4"
       id="path52952"
       style="stroke-width:0.264583" />
    <path
       d="m 4.2714127,116.12011 h 3.6226749"
       stroke="#9da1b4"
       stroke-width="0.330729"
       stroke-linejoin="round"
       stroke-miterlimit="10"
       fill="none"
       fill-rule="evenodd"
       id="path52976" />
    <path
       d="m 4.2714127,154.47226 h 3.6226749"
       stroke="#9da1b4"
       stroke-width="0.330729"
       stroke-linejoin="round"
       stroke-miterlimit="10"
       fill="none"
       fill-rule="evenodd"
       id="path52978" />
    <path
       d="m 33.110996,163.74511 v 3.05964"
       stroke="#9da1b4"
       stroke-width="0.330729"
       stroke-linejoin="round"
       stroke-miterlimit="10"
       fill="none"
       fill-rule="evenodd"
       id="path52980" />
    <path
       d="m 82.588082,163.74511 v 3.05964"
       stroke="#9da1b4"
       stroke-width="0.330729"
       stroke-linejoin="round"
       stroke-miterlimit="10"
       fill="none"
       fill-rule="evenodd"
       id="path52982" />
    <path
       d="m 7.9755793,110.0347 97.9540407,24.37368"
       stroke="#c00000"
       stroke-width="0.661458"
       stroke-linejoin="round"
       stroke-miterlimit="10"
       stroke-dasharray="10, 7.5"
       fill="none"
       fill-rule="evenodd"
       id="path52984" />
    <path
       d="m 8.5047459,109.95135 8.9154001,-0.18124 0.08043,2.91042 z"
       stroke="#c00000"
       stroke-width="0.661458"
       stroke-linejoin="round"
       stroke-miterlimit="10"
       fill="#ff0000"
       fill-rule="evenodd"
       id="path52986" />
    <text
       fill="#c00000"
       font-family="'Cambria Math', 'Cambria Math_MSFontService', sans-serif"
       font-weight="400"
       font-size="6.08542px"
       id="text52990"
       x="19.061356"
       y="105.93365"
       style="stroke-width:0.264583">𝐶<tspan
   font-size="4.49792px"
   x="22.39291"
   y="107.25657"
   id="tspan52988"
   style="stroke-width:0.0700043">𝑠</tspan></text>
    <text
       font-family="'Cambria Math', 'Cambria Math_MSFontService', sans-serif"
       font-weight="400"
       font-size="6.08542px"
       id="text52994"
       x="-1.3684456"
       y="89.794067"
       style="stroke-width:0.264583;fill:#ffffff">𝑒</text>
    <text
       font-family="Calibri, Calibri_MSFontService, sans-serif"
       font-style="italic"
       font-weight="400"
       font-size="5.29167px"
       id="text52998"
       x="42.591545"
       y="97.466988"
       style="stroke-width:0.264583;fill:#ffffff">Consolidation curve <tspan
   font-size="5.29167px"
   x="51.664532"
   y="103.81699"
   id="tspan52996"
   style="stroke-width:0.0700043;fill:#ffffff">(</tspan></text>
    <text
       font-family="'Cambria Math', 'Cambria Math_MSFontService', sans-serif"
       font-weight="400"
       font-size="5.29167px"
       id="text53000"
       x="53.262985"
       y="103.81699"
       style="stroke-width:0.264583;fill:#ffffff">𝑒</text>
    <text
       font-family="Calibri, Calibri_MSFontService, sans-serif"
       font-style="italic"
       font-weight="400"
       font-size="5.29167px"
       id="text53002"
       x="57.23835"
       y="103.81699"
       style="stroke-width:0.264583;fill:#ffffff">vs log</text>
    <text
       font-family="'Cambria Math', 'Cambria Math_MSFontService', sans-serif"
       font-weight="400"
       font-size="5.29167px"
       id="text53006"
       x="69.451248"
       y="103.81699"
       style="stroke-width:0.264583;fill:#ffffff">𝜎<tspan
   font-size="5.29167px"
   x="72.538063"
   y="103.81699"
   id="tspan53004"
   style="stroke-width:0.0700043;fill:#ffffff">′</tspan></text>
    <text
       font-family="Calibri, Calibri_MSFontService, sans-serif"
       font-style="italic"
       font-weight="400"
       font-size="5.29167px"
       id="text53008"
       x="73.916092"
       y="103.81699"
       style="stroke-width:0.264583;fill:#ffffff">)</text>
    <path
       d="m 60.226024,106.33053 c -3.471439,0 -6.942878,3.25437 -6.942878,6.50878 0,3.25437 -3.471439,6.50875 -6.942878,6.50875"
       stroke="#9da1b4"
       stroke-width="0.330729"
       stroke-linejoin="round"
       stroke-miterlimit="10"
       fill="none"
       fill-rule="evenodd"
       id="path53010" />
    <path
       style="fill:none;stroke:#0000ff;stroke-width:0.54999999;stroke-linecap:butt;stroke-linejoin:miter;stroke-opacity:1;stroke-miterlimit:5;stroke-dasharray:13.19999976,13.19999976;stroke-dashoffset:5.49999978"
       d="m 75.827872,112.55717 18.836822,51.38978"
       id="path53160" />
    <path
       style="fill:none;stroke:#808080;stroke-width:0.50000001;stroke-linecap:butt;stroke-linejoin:miter;stroke-opacity:1;stroke-miterlimit:4;stroke-dasharray:4.00000011, 2.00000006;stroke-dashoffset:0"
       d="m 82.594498,128.83365 v 36.39347"
       id="path53228" />
    <g
       transform="matrix(0.5490248,0,0,0.59620916,80.941414,165.16303)"
       ns1:version="1.6.0"
       ns1:texconverter="pdflatex"
       ns1:pdfconverter="inkscape"
       ns1:text="$\\sigma'_c$"
       ns1:preamble="C:\Users\$r.984804\OneDrive - University of Maine System\UMaine_docs\Faculty_Service\Brochure4+1\preamble_triptico.tex"
       ns1:scale="2.5168309531773527"
       ns1:alignment="middle center"
       ns1:stroke-to-path="0"
       ns1:inkscapeversion="1.1.1"
       ns1:jacobian_sqrt="0.887883"
       id="g53497"
       style="fill:#ffffff;stroke-width:1.55189">
      <defs
         id="id-4397adad-6b9f-4e32-8a5b-9a2c8e986850">
        <g
           id="id-615f9b5b-9fe5-473c-b475-81b1a9e7e40f">
          <symbol
             overflow="visible"
             id="id-66e575b3-b8e3-42b4-a1f3-338973b151ad">
            <path
               style="stroke:none;stroke-width:0"
               d=""
               id="id-9252cafb-09ec-41f0-921c-66fbd225fd2a" />
          </symbol>
          <symbol
             overflow="visible"
             id="id-f02c6e27-59ab-4296-a1e5-0411495f390b">
            <path
               style="stroke:none;stroke-width:0"
               d="m 5.15625,-3.71875 c 0.140625,0 0.5,0 0.5,-0.34375 0,-0.234375 -0.21875,-0.234375 -0.390625,-0.234375 h -2.28125 c -1.5,0 -2.609375,1.640625 -2.609375,2.828125 0,0.875 0.59375,1.578125 1.5,1.578125 1.171875,0 2.5,-1.203125 2.5,-2.734375 0,-0.171875 0,-0.65625 -0.3125,-1.09375 z m -3.265625,3.609375 c -0.5,0 -0.890625,-0.359375 -0.890625,-1.078125 0,-0.296875 0.109375,-1.109375 0.46875,-1.703125 0.421875,-0.6875 1.015625,-0.828125 1.359375,-0.828125 0.828125,0 0.90625,0.65625 0.90625,0.96875 0,0.46875 -0.203125,1.28125 -0.53125,1.796875 -0.390625,0.578125 -0.9375,0.84375 -1.3125,0.84375 z m 0,0"
               id="id-55a3c0f4-a78c-4ef1-859c-1aee4e51031d" />
          </symbol>
          <symbol
             overflow="visible"
             id="id-911cac92-dda6-4e09-ad38-a76a99f665ad">
            <path
               style="stroke:none;stroke-width:0"
               d=""
               id="id-6a8077e3-b451-4288-8fb5-a18302c0956a" />
          </symbol>
          <symbol
             overflow="visible"
             id="id-2ffe9a59-3469-457a-9b1c-56d3c35e2cf1">
            <path
               style="stroke:none;stroke-width:0"
               d="m 2.015625,-3.296875 c 0.0625,-0.109375 0.0625,-0.171875 0.0625,-0.21875 0,-0.21875 -0.1875,-0.375 -0.40625,-0.375 -0.265625,0 -0.34375,0.21875 -0.375,0.328125 l -0.921875,3.015625 c -0.015625,0.015625 -0.046875,0.09375 -0.046875,0.109375 0,0.078125 0.21875,0.15625 0.28125,0.15625 0.046875,0 0.046875,-0.015625 0.09375,-0.125 z m 0,0"
               id="id-d7c7f06c-d6da-4cb3-8a7e-6cb1e5f3d60f" />
          </symbol>
          <symbol
             overflow="visible"
             id="id-c5880668-c24c-44de-a1eb-6cec40a55fbe">
            <path
               style="stroke:none;stroke-width:0"
               d=""
               id="id-17d767b8-0386-40cc-b06e-e2739b9b8bb7" />
          </symbol>
          <symbol
             overflow="visible"
             id="id-6a2dc916-1248-42d0-a01a-4b86ff35557f">
            <path
               style="stroke:none;stroke-width:0"
               d="m 3.046875,-2.671875 c -0.25,0.046875 -0.34375,0.234375 -0.34375,0.390625 0,0.1875 0.140625,0.265625 0.265625,0.265625 0.15625,0 0.390625,-0.109375 0.390625,-0.453125 0,-0.46875 -0.53125,-0.609375 -0.90625,-0.609375 -1.046875,0 -2.015625,0.96875 -2.015625,1.9375 0,0.59375 0.40625,1.203125 1.28125,1.203125 1.1875,0 1.734375,-0.6875 1.734375,-0.78125 0,-0.046875 -0.0625,-0.125 -0.125,-0.125 -0.03125,0 -0.046875,0.015625 -0.109375,0.078125 -0.546875,0.640625 -1.359375,0.640625 -1.484375,0.640625 -0.5,0 -0.71875,-0.34375 -0.71875,-0.78125 0,-0.1875 0.09375,-0.953125 0.453125,-1.4375 0.265625,-0.34375 0.625,-0.53125 0.984375,-0.53125 0.09375,0 0.421875,0.015625 0.59375,0.203125 z m 0,0"
               id="id-a3e731c5-549f-46a4-aad8-b0379236ec7c" />
          </symbol>
        </g>
      </defs>
      <g
         id="id-46867741-f488-4617-b9e1-6f044f06e224"
         transform="translate(-70.595,-98.9684)"
         style="fill:#ffffff;stroke-width:1.55189">
        <g
           style="fill:#ffffff;fill-opacity:1;stroke-width:1.55189"
           id="id-5c618708-51ae-46c8-8013-5b109b7523df">
          <g
             transform="translate(70.22,106.475)"
             id="g53485"
             style="fill:#ffffff;stroke-width:1.55189">
            <path
               style="fill:#ffffff;stroke:none;stroke-width:0"
               d="m 5.15625,-3.71875 c 0.140625,0 0.5,0 0.5,-0.34375 0,-0.234375 -0.21875,-0.234375 -0.390625,-0.234375 h -2.28125 c -1.5,0 -2.609375,1.640625 -2.609375,2.828125 0,0.875 0.59375,1.578125 1.5,1.578125 1.171875,0 2.5,-1.203125 2.5,-2.734375 0,-0.171875 0,-0.65625 -0.3125,-1.09375 z m -3.265625,3.609375 c -0.5,0 -0.890625,-0.359375 -0.890625,-1.078125 0,-0.296875 0.109375,-1.109375 0.46875,-1.703125 0.421875,-0.6875 1.015625,-0.828125 1.359375,-0.828125 0.828125,0 0.90625,0.65625 0.90625,0.96875 0,0.46875 -0.203125,1.28125 -0.53125,1.796875 -0.390625,0.578125 -0.9375,0.84375 -1.3125,0.84375 z m 0,0"
               id="id-73f8cfdd-370b-429e-9762-573c2e3cd32b" />
          </g>
        </g>
        <g
           style="fill:#ffffff;fill-opacity:1;stroke-width:1.55189"
           id="id-3a0fb9b6-6761-4616-bdeb-4daf3b1fd946">
          <g
             transform="translate(76.27,102.859)"
             id="g53489"
             style="fill:#ffffff;stroke-width:1.55189">
            <path
               style="fill:#ffffff;stroke:none;stroke-width:0"
               d="m 2.015625,-3.296875 c 0.0625,-0.109375 0.0625,-0.171875 0.0625,-0.21875 0,-0.21875 -0.1875,-0.375 -0.40625,-0.375 -0.265625,0 -0.34375,0.21875 -0.375,0.328125 l -0.921875,3.015625 c -0.015625,0.015625 -0.046875,0.09375 -0.046875,0.109375 0,0.078125 0.21875,0.15625 0.28125,0.15625 0.046875,0 0.046875,-0.015625 0.09375,-0.125 z m 0,0"
               id="id-e3020df1-f52f-477d-963e-aece26831097" />
          </g>
        </g>
        <g
           style="fill:#ffffff;fill-opacity:1;stroke-width:1.55189"
           id="id-e81a5cf1-88e8-4bdf-bde7-ef6659743c3e">
          <g
             transform="translate(75.912,108.938)"
             id="g53493"
             style="fill:#ffffff;stroke-width:1.55189">
            <path
               style="fill:#ffffff;stroke:none;stroke-width:0"
               d="m 3.046875,-2.671875 c -0.25,0.046875 -0.34375,0.234375 -0.34375,0.390625 0,0.1875 0.140625,0.265625 0.265625,0.265625 0.15625,0 0.390625,-0.109375 0.390625,-0.453125 0,-0.46875 -0.53125,-0.609375 -0.90625,-0.609375 -1.046875,0 -2.015625,0.96875 -2.015625,1.9375 0,0.59375 0.40625,1.203125 1.28125,1.203125 1.1875,0 1.734375,-0.6875 1.734375,-0.78125 0,-0.046875 -0.0625,-0.125 -0.125,-0.125 -0.03125,0 -0.046875,0.015625 -0.109375,0.078125 -0.546875,0.640625 -1.359375,0.640625 -1.484375,0.640625 -0.5,0 -0.71875,-0.34375 -0.71875,-0.78125 0,-0.1875 0.09375,-0.953125 0.453125,-1.4375 0.265625,-0.34375 0.625,-0.53125 0.984375,-0.53125 0.09375,0 0.421875,0.015625 0.59375,0.203125 z m 0,0"
               id="id-7ff93546-b928-49c1-9ef5-51456b432e21" />
          </g>
        </g>
      </g>
    </g>
    <path
       style="fill:none;stroke:#808080;stroke-width:3;stroke-linecap:butt;stroke-linejoin:miter;stroke-opacity:1;stroke-miterlimit:4;stroke-dasharray:none;opacity:0.80705394"
       d="m 32.184953,116.2524 50.409544,12.58125 7.315266,22.86022"
       id="path54774" />
    <circle
       style="opacity:0.807054;fill:#808080;stroke:#808080;stroke-width:3;stroke-linecap:round;stroke-linejoin:round;stroke-miterlimit:4;stroke-dasharray:none;stroke-dashoffset:0"
       id="path56632"
       cx="32.739639"
       cy="116.80709"
       r="1.6130217" />
    <path
       sodipodi:type="star"
       style="opacity:0.807054;fill:#808080;stroke:none;stroke-width:8.18842;stroke-linecap:round;stroke-linejoin:round;stroke-miterlimit:4;stroke-dasharray:none;stroke-dashoffset:0"
       id="path56856"
       inkscape:flatsided="true"
       sodipodi:sides="3"
       sodipodi:cx="-9.6768942"
       sodipodi:cy="-56.678951"
       sodipodi:r1="12.460906"
       sodipodi:r2="6.230453"
       sodipodi:arg1="1.5707963"
       sodipodi:arg2="2.6179939"
       inkscape:rounded="0"
       inkscape:randomized="0"
       d="m -9.6768939,-44.218045 -10.7914621,-18.691359 21.5829228,-10e-7 z"
       transform="matrix(0.34716425,-0.13382581,0.13958831,0.33283259,100.49989,167.76191)"
       inkscape:transform-center-y="0.31476069"
       inkscape:transform-center-x="0.86970311" />
    <path
       d="m 91.054754,163.74511 v 3.05964"
       stroke="#9da1b4"
       stroke-width="0.330729"
       stroke-linejoin="round"
       stroke-miterlimit="10"
       fill="none"
       fill-rule="evenodd"
       id="path58576" />
    <g
       transform="matrix(0.549025 0 0 0.596209 -0.198099 114.523)"
       ns1:version="1.6.0"
       ns1:texconverter="pdflatex"
       ns1:pdfconverter="inkscape"
       ns1:text="$e_0$"
       ns1:preamble="C:\Users\$r.984804\OneDrive - University of Maine System\UMaine_docs\Faculty_Service\Brochure4+1\preamble_triptico.tex"
       ns1:scale="1.6217862311416238"
       ns1:alignment="middle center"
       ns1:stroke-to-path="0"
       ns1:inkscapeversion="1.1.1"
       ns1:jacobian_sqrt="0.5721307946833486"
       style="fill:#ffffff;stroke-width:0"
       id="g59424">
      <defs
         id="id-8dfd6e0f-6d58-46b5-b175-f5d479e52490"
         style="fill:#ffffff;stroke-width:0">
        <g
           id="id-b4dd7ced-1907-4dd7-a076-c6cee9c01b30"
           style="fill:#ffffff;stroke-width:0">
          <symbol
             overflow="visible"
             id="id-acd2362a-4347-45ae-8ad9-ae2b7736d12c"
             style="fill:#ffffff;stroke-width:0">
            <path
               style="stroke:#ffffff;fill:#ffffff;stroke-width:0"
               d=""
               id="id-f325df41-af3f-4b16-88c3-c3dc17654956" />
          </symbol>
          <symbol
             overflow="visible"
             id="id-14d6f1d2-8a5c-412c-ae21-0223ae07685a"
             style="fill:#ffffff;stroke-width:0">
            <path
               style="stroke:#ffffff;fill:#ffffff;stroke-width:0"
               d="m 1.859375,-2.296875 c 0.296875,0 1.03125,-0.03125 1.53125,-0.234375 0.703125,-0.296875 0.75,-0.890625 0.75,-1.03125 0,-0.4375 -0.375,-0.84375 -1.0625,-0.84375 -1.109375,0 -2.625,0.96875 -2.625,2.71875 0,1.015625 0.59375,1.796875 1.578125,1.796875 1.421875,0 2.25,-1.0625 2.25,-1.171875 0,-0.0625 -0.046875,-0.140625 -0.109375,-0.140625 -0.0625,0 -0.078125,0.03125 -0.140625,0.109375 -0.78125,0.984375 -1.875,0.984375 -1.984375,0.984375 -0.78125,0 -0.875,-0.84375 -0.875,-1.15625 0,-0.125 0.015625,-0.421875 0.15625,-1.03125 z m -0.46875,-0.21875 c 0.390625,-1.515625 1.421875,-1.671875 1.6875,-1.671875 0.453125,0 0.734375,0.296875 0.734375,0.625 0,1.046875 -1.59375,1.046875 -2.015625,1.046875 z m 0,0"
               id="id-3b0b95ad-44c9-4e61-b2f5-492703536902" />
          </symbol>
          <symbol
             overflow="visible"
             id="id-1540fc9c-8884-4e35-a371-73d135042e7b"
             style="fill:#ffffff;stroke-width:0">
            <path
               style="stroke:#ffffff;fill:#ffffff;stroke-width:0"
               d=""
               id="id-4b580d06-b71f-4acf-b102-78286a1e1687" />
          </symbol>
          <symbol
             overflow="visible"
             id="id-4e879852-2498-4f95-812c-50ce7ae86831"
             style="fill:#ffffff;stroke-width:0">
            <path
               style="stroke:#ffffff;fill:#ffffff;stroke-width:0"
               d="m 3.59375,-2.21875 c 0,-0.765625 -0.09375,-1.328125 -0.40625,-1.8125 -0.21875,-0.3125 -0.65625,-0.59375 -1.203125,-0.59375 -1.625,0 -1.625,1.90625 -1.625,2.40625 0,0.5 0,2.359375 1.625,2.359375 1.609375,0 1.609375,-1.859375 1.609375,-2.359375 z m -1.609375,2.15625 c -0.328125,0 -0.75,-0.1875 -0.890625,-0.75 -0.09375,-0.40625 -0.09375,-0.984375 -0.09375,-1.5 0,-0.515625 0,-1.046875 0.09375,-1.421875 0.15625,-0.546875 0.59375,-0.703125 0.890625,-0.703125 0.375,0 0.734375,0.234375 0.859375,0.640625 0.109375,0.375 0.125,0.875 0.125,1.484375 0,0.515625 0,1.03125 -0.09375,1.46875 -0.140625,0.640625 -0.609375,0.78125 -0.890625,0.78125 z m 0,0"
               id="id-3e1cd1fc-1a3c-4d04-842c-4bbb0d44549c" />
          </symbol>
        </g>
      </defs>
      <g
         id="id-5dcac59a-dd2b-4096-a0dd-9040b412f3d2"
         transform="translate(-70.6731, -102.069)"
         style="fill:#ffffff;stroke-width:0">
        <g
           style="fill:#ffffff;fill-opacity:1;stroke-width:0"
           id="id-52ea2139-4e6f-443a-8593-585ee4566cc4">
          <g
             transform="translate(70.22, 106.475)"
             style="fill:#ffffff;stroke-width:0"
             id="g61232">
            <path
               style="stroke:#ffffff;fill:#ffffff;stroke-width:0"
               d="m 1.859375,-2.296875 c 0.296875,0 1.03125,-0.03125 1.53125,-0.234375 0.703125,-0.296875 0.75,-0.890625 0.75,-1.03125 0,-0.4375 -0.375,-0.84375 -1.0625,-0.84375 -1.109375,0 -2.625,0.96875 -2.625,2.71875 0,1.015625 0.59375,1.796875 1.578125,1.796875 1.421875,0 2.25,-1.0625 2.25,-1.171875 0,-0.0625 -0.046875,-0.140625 -0.109375,-0.140625 -0.0625,0 -0.078125,0.03125 -0.140625,0.109375 -0.78125,0.984375 -1.875,0.984375 -1.984375,0.984375 -0.78125,0 -0.875,-0.84375 -0.875,-1.15625 0,-0.125 0.015625,-0.421875 0.15625,-1.03125 z m -0.46875,-0.21875 c 0.390625,-1.515625 1.421875,-1.671875 1.6875,-1.671875 0.453125,0 0.734375,0.296875 0.734375,0.625 0,1.046875 -1.59375,1.046875 -2.015625,1.046875 z m 0,0"
               id="id-8818a8f6-aebe-4a0d-b77b-c7824c5ec69f" />
          </g>
        </g>
        <g
           style="fill:#ffffff;fill-opacity:1;stroke-width:0"
           id="id-60e9f685-4ceb-4a6b-8e33-5cd8906cb8ad">
          <g
             transform="translate(74.858, 107.969)"
             style="fill:#ffffff;stroke-width:0"
             id="g61236">
            <path
               style="stroke:#ffffff;fill:#ffffff;stroke-width:0"
               d="m 3.59375,-2.21875 c 0,-0.765625 -0.09375,-1.328125 -0.40625,-1.8125 -0.21875,-0.3125 -0.65625,-0.59375 -1.203125,-0.59375 -1.625,0 -1.625,1.90625 -1.625,2.40625 0,0.5 0,2.359375 1.625,2.359375 1.609375,0 1.609375,-1.859375 1.609375,-2.359375 z m -1.609375,2.15625 c -0.328125,0 -0.75,-0.1875 -0.890625,-0.75 -0.09375,-0.40625 -0.09375,-0.984375 -0.09375,-1.5 0,-0.515625 0,-1.046875 0.09375,-1.421875 0.15625,-0.546875 0.59375,-0.703125 0.890625,-0.703125 0.375,0 0.734375,0.234375 0.859375,0.640625 0.109375,0.375 0.125,0.875 0.125,1.484375 0,0.515625 0,1.03125 -0.09375,1.46875 -0.140625,0.640625 -0.609375,0.78125 -0.890625,0.78125 z m 0,0"
               id="id-6a8926c6-e776-4507-ac3f-4610fa9abc41" />
          </g>
        </g>
      </g>
    </g>
    <g
       transform="matrix(0.549025,0,0,0.596209,-0.36538,152.61101)"
       ns1:version="1.6.0"
       ns1:texconverter="pdflatex"
       ns1:pdfconverter="inkscape"
       ns1:text="$e_f$"
       ns1:preamble="C:\Users\$r.984804\OneDrive - University of Maine System\UMaine_docs\Faculty_Service\Brochure4+1\preamble_triptico.tex"
       ns1:scale="1.6217862311416238"
       ns1:alignment="middle center"
       ns1:stroke-to-path="0"
       ns1:inkscapeversion="1.1.1"
       ns1:jacobian_sqrt="0.5721307946833486"
       style="fill:#ffffff;stroke-width:0"
       id="g59966">
      <defs
         id="id-7bd529e6-68be-48a8-a0b8-41fa352518e3"
         style="fill:#ffffff;stroke-width:0">
        <g
           id="id-eb27fb88-b8dd-4b88-bc79-32fa62fca57f"
           style="fill:#ffffff;stroke-width:0">
          <symbol
             overflow="visible"
             id="id-812bf0e8-3504-4442-b6ac-663104bb464a"
             style="fill:#ffffff;stroke-width:0">
            <path
               style="fill:#ffffff;stroke:#ffffff;stroke-width:0"
               d=""
               id="id-01ca8741-3b20-4e7a-beb5-4eca5a915931" />
          </symbol>
          <symbol
             overflow="visible"
             id="id-dfc005c3-e561-4f18-9f49-671e5c0ee19a"
             style="fill:#ffffff;stroke-width:0">
            <path
               style="fill:#ffffff;stroke:#ffffff;stroke-width:0"
               d="m 1.859375,-2.296875 c 0.296875,0 1.03125,-0.03125 1.53125,-0.234375 0.703125,-0.296875 0.75,-0.890625 0.75,-1.03125 0,-0.4375 -0.375,-0.84375 -1.0625,-0.84375 -1.109375,0 -2.625,0.96875 -2.625,2.71875 0,1.015625 0.59375,1.796875 1.578125,1.796875 1.421875,0 2.25,-1.0625 2.25,-1.171875 0,-0.0625 -0.046875,-0.140625 -0.109375,-0.140625 -0.0625,0 -0.078125,0.03125 -0.140625,0.109375 -0.78125,0.984375 -1.875,0.984375 -1.984375,0.984375 -0.78125,0 -0.875,-0.84375 -0.875,-1.15625 0,-0.125 0.015625,-0.421875 0.15625,-1.03125 z m -0.46875,-0.21875 c 0.390625,-1.515625 1.421875,-1.671875 1.6875,-1.671875 0.453125,0 0.734375,0.296875 0.734375,0.625 0,1.046875 -1.59375,1.046875 -2.015625,1.046875 z m 0,0"
               id="id-3ce190e4-5f86-4f03-bfdc-72e1a780a0e5" />
          </symbol>
          <symbol
             overflow="visible"
             id="id-efc0b484-da4b-41e1-bf0c-87dc56fd5e37"
             style="fill:#ffffff;stroke-width:0">
            <path
               style="fill:#ffffff;stroke:#ffffff;stroke-width:0"
               d=""
               id="id-ebe04118-677e-42c7-b11d-b2cd3367e696" />
          </symbol>
          <symbol
             overflow="visible"
             id="id-b9edfbff-5cdd-4ed4-a561-f72e2f78eba3"
             style="fill:#ffffff;stroke-width:0">
            <path
               style="fill:#ffffff;stroke:#ffffff;stroke-width:0"
               d="m 2.84375,-2.75 h 0.671875 c 0.140625,0 0.234375,0 0.234375,-0.15625 0,-0.09375 -0.09375,-0.09375 -0.21875,-0.09375 h -0.640625 c 0.15625,-0.890625 0.203125,-1.203125 0.265625,-1.40625 0.03125,-0.15625 0.1875,-0.296875 0.359375,-0.296875 0,0 0.1875,0 0.328125,0.078125 -0.296875,0.09375 -0.3125,0.34375 -0.3125,0.375 0,0.15625 0.125,0.265625 0.28125,0.265625 0.1875,0 0.390625,-0.15625 0.390625,-0.421875 0,-0.328125 -0.328125,-0.5 -0.6875,-0.5 -0.3125,0 -0.65625,0.171875 -0.84375,0.515625 -0.140625,0.265625 -0.1875,0.578125 -0.34375,1.390625 h -0.546875 c -0.140625,0 -0.234375,0 -0.234375,0.15625 0,0.09375 0.09375,0.09375 0.21875,0.09375 h 0.515625 c 0,0.046875 -0.4375,2.546875 -0.609375,3.296875 -0.03125,0.15625 -0.15625,0.671875 -0.484375,0.671875 -0.015625,0 -0.171875,0 -0.3125,-0.078125 0.28125,-0.09375 0.3125,-0.34375 0.3125,-0.375 0,-0.15625 -0.125,-0.265625 -0.28125,-0.265625 -0.1875,0 -0.390625,0.15625 -0.390625,0.421875 0,0.3125 0.328125,0.5 0.671875,0.5 0.4375,0 0.75,-0.453125 0.828125,-0.609375 0.25,-0.46875 0.421875,-1.328125 0.4375,-1.40625 z m 0,0"
               id="id-a91e5911-145a-4ff4-b78e-041b2319858d" />
          </symbol>
        </g>
      </defs>
      <g
         id="id-51467b43-4e5a-4e4f-8cc9-2e6215430c69"
         transform="translate(-70.6731,-102.069)"
         style="fill:#ffffff;stroke-width:0">
        <g
           style="fill:#ffffff;fill-opacity:1;stroke-width:0"
           id="id-45eff807-dd0a-4219-8946-d3686efae36f">
          <g
             transform="translate(70.22,106.475)"
             style="fill:#ffffff;stroke-width:0"
             id="g61737">
            <path
               style="fill:#ffffff;stroke:#ffffff;stroke-width:0"
               d="m 1.859375,-2.296875 c 0.296875,0 1.03125,-0.03125 1.53125,-0.234375 0.703125,-0.296875 0.75,-0.890625 0.75,-1.03125 0,-0.4375 -0.375,-0.84375 -1.0625,-0.84375 -1.109375,0 -2.625,0.96875 -2.625,2.71875 0,1.015625 0.59375,1.796875 1.578125,1.796875 1.421875,0 2.25,-1.0625 2.25,-1.171875 0,-0.0625 -0.046875,-0.140625 -0.109375,-0.140625 -0.0625,0 -0.078125,0.03125 -0.140625,0.109375 -0.78125,0.984375 -1.875,0.984375 -1.984375,0.984375 -0.78125,0 -0.875,-0.84375 -0.875,-1.15625 0,-0.125 0.015625,-0.421875 0.15625,-1.03125 z m -0.46875,-0.21875 c 0.390625,-1.515625 1.421875,-1.671875 1.6875,-1.671875 0.453125,0 0.734375,0.296875 0.734375,0.625 0,1.046875 -1.59375,1.046875 -2.015625,1.046875 z m 0,0"
               id="id-2502dac7-84a1-4ac2-8e23-2a39db824936" />
          </g>
        </g>
        <g
           style="fill:#ffffff;fill-opacity:1;stroke-width:0"
           id="id-94cb47e5-2b97-4c23-91fa-ea979ba067e6">
          <g
             transform="translate(74.858,107.969)"
             style="fill:#ffffff;stroke-width:0"
             id="g61741">
            <path
               style="fill:#ffffff;stroke:#ffffff;stroke-width:0"
               d="m 2.84375,-2.75 h 0.671875 c 0.140625,0 0.234375,0 0.234375,-0.15625 0,-0.09375 -0.09375,-0.09375 -0.21875,-0.09375 h -0.640625 c 0.15625,-0.890625 0.203125,-1.203125 0.265625,-1.40625 0.03125,-0.15625 0.1875,-0.296875 0.359375,-0.296875 0,0 0.1875,0 0.328125,0.078125 -0.296875,0.09375 -0.3125,0.34375 -0.3125,0.375 0,0.15625 0.125,0.265625 0.28125,0.265625 0.1875,0 0.390625,-0.15625 0.390625,-0.421875 0,-0.328125 -0.328125,-0.5 -0.6875,-0.5 -0.3125,0 -0.65625,0.171875 -0.84375,0.515625 -0.140625,0.265625 -0.1875,0.578125 -0.34375,1.390625 h -0.546875 c -0.140625,0 -0.234375,0 -0.234375,0.15625 0,0.09375 0.09375,0.09375 0.21875,0.09375 h 0.515625 c 0,0.046875 -0.4375,2.546875 -0.609375,3.296875 -0.03125,0.15625 -0.15625,0.671875 -0.484375,0.671875 -0.015625,0 -0.171875,0 -0.3125,-0.078125 0.28125,-0.09375 0.3125,-0.34375 0.3125,-0.375 0,-0.15625 -0.125,-0.265625 -0.28125,-0.265625 -0.1875,0 -0.390625,0.15625 -0.390625,0.421875 0,0.3125 0.328125,0.5 0.671875,0.5 0.4375,0 0.75,-0.453125 0.828125,-0.609375 0.25,-0.46875 0.421875,-1.328125 0.4375,-1.40625 z m 0,0"
               id="id-68c14b72-b321-44c8-be99-1a9149e1404e" />
          </g>
        </g>
      </g>
    </g>
    <g
       transform="matrix(0.549025 0 0 0.596209 31.159 165.137)"
       ns1:version="1.6.0"
       ns1:texconverter="pdflatex"
       ns1:pdfconverter="inkscape"
       ns1:text="$\\sigma'_0$"
       ns1:preamble="C:\Users\$r.984804\OneDrive - University of Maine System\UMaine_docs\Faculty_Service\Brochure4+1\preamble_triptico.tex"
       ns1:scale="1.6217862311416238"
       ns1:alignment="middle center"
       ns1:stroke-to-path="0"
       ns1:inkscapeversion="1.1.1"
       ns1:jacobian_sqrt="0.5721307946833486"
       style="fill:#ffffff;stroke-width:0"
       id="g59154">
      <defs
         id="id-8394431d-dbed-4239-bf20-75cd01e7b394"
         style="fill:#ffffff;stroke-width:0">
        <g
           id="id-4657d837-b281-4833-8995-ec7e445ecc34"
           style="fill:#ffffff;stroke-width:0">
          <symbol
             overflow="visible"
             id="id-16cc157a-12a9-4142-ab25-648b74a9e9bd"
             style="fill:#ffffff;stroke-width:0">
            <path
               style="stroke:#ffffff;fill:#ffffff;stroke-width:0"
               d=""
               id="id-fe9d14d6-516f-4e37-b8cc-f1883efde538" />
          </symbol>
          <symbol
             overflow="visible"
             id="id-b27366e0-a8ba-4d7b-867e-72b98356835e"
             style="fill:#ffffff;stroke-width:0">
            <path
               style="stroke:#ffffff;fill:#ffffff;stroke-width:0"
               d="m 5.15625,-3.71875 c 0.140625,0 0.5,0 0.5,-0.34375 0,-0.234375 -0.21875,-0.234375 -0.390625,-0.234375 h -2.28125 c -1.5,0 -2.609375,1.640625 -2.609375,2.828125 0,0.875 0.59375,1.578125 1.5,1.578125 1.171875,0 2.5,-1.203125 2.5,-2.734375 0,-0.171875 0,-0.65625 -0.3125,-1.09375 z m -3.265625,3.609375 c -0.5,0 -0.890625,-0.359375 -0.890625,-1.078125 0,-0.296875 0.109375,-1.109375 0.46875,-1.703125 0.421875,-0.6875 1.015625,-0.828125 1.359375,-0.828125 0.828125,0 0.90625,0.65625 0.90625,0.96875 0,0.46875 -0.203125,1.28125 -0.53125,1.796875 -0.390625,0.578125 -0.9375,0.84375 -1.3125,0.84375 z m 0,0"
               id="id-b6296d91-6996-4b76-9b8f-452d9ede1b07" />
          </symbol>
          <symbol
             overflow="visible"
             id="id-f32ef84f-05a2-4b52-97e8-4d4bda9762e4"
             style="fill:#ffffff;stroke-width:0">
            <path
               style="stroke:#ffffff;fill:#ffffff;stroke-width:0"
               d=""
               id="id-4e0143b7-717c-479a-bbd1-d461ff2baf67" />
          </symbol>
          <symbol
             overflow="visible"
             id="id-8254e537-18a1-49f8-8820-7531c7ba8151"
             style="fill:#ffffff;stroke-width:0">
            <path
               style="stroke:#ffffff;fill:#ffffff;stroke-width:0"
               d="m 2.015625,-3.296875 c 0.0625,-0.109375 0.0625,-0.171875 0.0625,-0.21875 0,-0.21875 -0.1875,-0.375 -0.40625,-0.375 -0.265625,0 -0.34375,0.21875 -0.375,0.328125 l -0.921875,3.015625 c -0.015625,0.015625 -0.046875,0.09375 -0.046875,0.109375 0,0.078125 0.21875,0.15625 0.28125,0.15625 0.046875,0 0.046875,-0.015625 0.09375,-0.125 z m 0,0"
               id="id-0cc126ce-ff1e-43fa-a2af-5a399b5e00bc" />
          </symbol>
          <symbol
             overflow="visible"
             id="id-a7d0e494-f1e2-4c74-b38e-d1216d9dfd2a"
             style="fill:#ffffff;stroke-width:0">
            <path
               style="stroke:#ffffff;fill:#ffffff;stroke-width:0"
               d=""
               id="id-45854ab6-f6b7-4c8d-9067-65f9f6f091ec" />
          </symbol>
          <symbol
             overflow="visible"
             id="id-4dc80dd3-0b85-4522-a3c5-a21c539b5770"
             style="fill:#ffffff;stroke-width:0">
            <path
               style="stroke:#ffffff;fill:#ffffff;stroke-width:0"
               d="m 3.59375,-2.21875 c 0,-0.765625 -0.09375,-1.328125 -0.40625,-1.8125 -0.21875,-0.3125 -0.65625,-0.59375 -1.203125,-0.59375 -1.625,0 -1.625,1.90625 -1.625,2.40625 0,0.5 0,2.359375 1.625,2.359375 1.609375,0 1.609375,-1.859375 1.609375,-2.359375 z m -1.609375,2.15625 c -0.328125,0 -0.75,-0.1875 -0.890625,-0.75 -0.09375,-0.40625 -0.09375,-0.984375 -0.09375,-1.5 0,-0.515625 0,-1.046875 0.09375,-1.421875 0.15625,-0.546875 0.59375,-0.703125 0.890625,-0.703125 0.375,0 0.734375,0.234375 0.859375,0.640625 0.109375,0.375 0.125,0.875 0.125,1.484375 0,0.515625 0,1.03125 -0.09375,1.46875 -0.140625,0.640625 -0.609375,0.78125 -0.890625,0.78125 z m 0,0"
               id="id-d24ed3d1-c27b-4f96-8e43-d11d583bbf0f" />
          </symbol>
        </g>
      </defs>
      <g
         id="id-ffb67d2d-272a-4cbc-bdbc-f0e4e6741ccc"
         transform="translate(-70.595, -98.9684)"
         style="fill:#ffffff;stroke-width:0">
        <g
           style="fill:#ffffff;fill-opacity:1;stroke-width:0"
           id="id-79777ccc-2263-42aa-8f50-cf13335ef4bd">
          <g
             transform="translate(70.22, 106.475)"
             style="fill:#ffffff;stroke-width:0"
             id="g62220">
            <path
               style="stroke:#ffffff;fill:#ffffff;stroke-width:0"
               d="m 5.15625,-3.71875 c 0.140625,0 0.5,0 0.5,-0.34375 0,-0.234375 -0.21875,-0.234375 -0.390625,-0.234375 h -2.28125 c -1.5,0 -2.609375,1.640625 -2.609375,2.828125 0,0.875 0.59375,1.578125 1.5,1.578125 1.171875,0 2.5,-1.203125 2.5,-2.734375 0,-0.171875 0,-0.65625 -0.3125,-1.09375 z m -3.265625,3.609375 c -0.5,0 -0.890625,-0.359375 -0.890625,-1.078125 0,-0.296875 0.109375,-1.109375 0.46875,-1.703125 0.421875,-0.6875 1.015625,-0.828125 1.359375,-0.828125 0.828125,0 0.90625,0.65625 0.90625,0.96875 0,0.46875 -0.203125,1.28125 -0.53125,1.796875 -0.390625,0.578125 -0.9375,0.84375 -1.3125,0.84375 z m 0,0"
               id="id-d172658d-374d-4a43-af55-d96418a91a23" />
          </g>
        </g>
        <g
           style="fill:#ffffff;fill-opacity:1;stroke-width:0"
           id="id-d1012b7e-c97e-4497-b5f6-0f135635d3b9">
          <g
             transform="translate(76.27, 102.859)"
             style="fill:#ffffff;stroke-width:0"
             id="g62224">
            <path
               style="stroke:#ffffff;fill:#ffffff;stroke-width:0"
               d="m 2.015625,-3.296875 c 0.0625,-0.109375 0.0625,-0.171875 0.0625,-0.21875 0,-0.21875 -0.1875,-0.375 -0.40625,-0.375 -0.265625,0 -0.34375,0.21875 -0.375,0.328125 l -0.921875,3.015625 c -0.015625,0.015625 -0.046875,0.09375 -0.046875,0.109375 0,0.078125 0.21875,0.15625 0.28125,0.15625 0.046875,0 0.046875,-0.015625 0.09375,-0.125 z m 0,0"
               id="id-27d7a3a7-bf43-4d0f-b1c5-f9c3d5640d21" />
          </g>
        </g>
        <g
           style="fill:#ffffff;fill-opacity:1;stroke-width:0"
           id="id-ad46626c-e17d-4d47-b649-85bac46fd78e">
          <g
             transform="translate(75.912, 108.947)"
             style="fill:#ffffff;stroke-width:0"
             id="g62228">
            <path
               style="stroke:#ffffff;fill:#ffffff;stroke-width:0"
               d="m 3.59375,-2.21875 c 0,-0.765625 -0.09375,-1.328125 -0.40625,-1.8125 -0.21875,-0.3125 -0.65625,-0.59375 -1.203125,-0.59375 -1.625,0 -1.625,1.90625 -1.625,2.40625 0,0.5 0,2.359375 1.625,2.359375 1.609375,0 1.609375,-1.859375 1.609375,-2.359375 z m -1.609375,2.15625 c -0.328125,0 -0.75,-0.1875 -0.890625,-0.75 -0.09375,-0.40625 -0.09375,-0.984375 -0.09375,-1.5 0,-0.515625 0,-1.046875 0.09375,-1.421875 0.15625,-0.546875 0.59375,-0.703125 0.890625,-0.703125 0.375,0 0.734375,0.234375 0.859375,0.640625 0.109375,0.375 0.125,0.875 0.125,1.484375 0,0.515625 0,1.03125 -0.09375,1.46875 -0.140625,0.640625 -0.609375,0.78125 -0.890625,0.78125 z m 0,0"
               id="id-95e5477c-07d6-477a-8d05-107f1a7c64df" />
          </g>
        </g>
      </g>
    </g>
    <g
       transform="matrix(0.549025 0 0 0.596209 89.8796 164.651)"
       ns1:version="1.6.0"
       ns1:texconverter="pdflatex"
       ns1:pdfconverter="inkscape"
       ns1:text="$\\sigma'_f$"
       ns1:preamble="C:\Users\$r.984804\OneDrive - University of Maine System\UMaine_docs\Faculty_Service\Brochure4+1\preamble_triptico.tex"
       ns1:scale="1.6217862311416238"
       ns1:alignment="middle center"
       ns1:stroke-to-path="0"
       ns1:inkscapeversion="1.1.1"
       ns1:jacobian_sqrt="0.5721307946833486"
       style="fill:#ffffff;stroke-width:0"
       id="g58274">
      <defs
         id="id-147515e2-1f65-4203-b45f-cc078092d0e6"
         style="fill:#ffffff;stroke-width:0">
        <g
           id="id-817a52d3-07a0-4df2-b6f7-3323476c0d26"
           style="fill:#ffffff;stroke-width:0">
          <symbol
             overflow="visible"
             id="id-5b6513e2-3b6b-49a1-9eaa-5de8a2a293a1"
             style="fill:#ffffff;stroke-width:0">
            <path
               style="stroke:#ffffff;fill:#ffffff;stroke-width:0"
               d=""
               id="id-e7117485-6375-4aed-bf2e-06116415ad7e" />
          </symbol>
          <symbol
             overflow="visible"
             id="id-04d320ce-3fc9-4e72-9214-14aca3fc75a9"
             style="fill:#ffffff;stroke-width:0">
            <path
               style="stroke:#ffffff;fill:#ffffff;stroke-width:0"
               d="m 5.15625,-3.71875 c 0.140625,0 0.5,0 0.5,-0.34375 0,-0.234375 -0.21875,-0.234375 -0.390625,-0.234375 h -2.28125 c -1.5,0 -2.609375,1.640625 -2.609375,2.828125 0,0.875 0.59375,1.578125 1.5,1.578125 1.171875,0 2.5,-1.203125 2.5,-2.734375 0,-0.171875 0,-0.65625 -0.3125,-1.09375 z m -3.265625,3.609375 c -0.5,0 -0.890625,-0.359375 -0.890625,-1.078125 0,-0.296875 0.109375,-1.109375 0.46875,-1.703125 0.421875,-0.6875 1.015625,-0.828125 1.359375,-0.828125 0.828125,0 0.90625,0.65625 0.90625,0.96875 0,0.46875 -0.203125,1.28125 -0.53125,1.796875 -0.390625,0.578125 -0.9375,0.84375 -1.3125,0.84375 z m 0,0"
               id="id-806bc291-07a7-4d0a-8bcf-1402dff6914f" />
          </symbol>
          <symbol
             overflow="visible"
             id="id-7d07ca61-5295-4c1b-9414-7182aaa0e98c"
             style="fill:#ffffff;stroke-width:0">
            <path
               style="stroke:#ffffff;fill:#ffffff;stroke-width:0"
               d=""
               id="id-178d331e-e375-4af2-83db-27b38955fe5f" />
          </symbol>
          <symbol
             overflow="visible"
             id="id-1d572d43-99da-4ec3-9a2e-60923f15d411"
             style="fill:#ffffff;stroke-width:0">
            <path
               style="stroke:#ffffff;fill:#ffffff;stroke-width:0"
               d="m 2.015625,-3.296875 c 0.0625,-0.109375 0.0625,-0.171875 0.0625,-0.21875 0,-0.21875 -0.1875,-0.375 -0.40625,-0.375 -0.265625,0 -0.34375,0.21875 -0.375,0.328125 l -0.921875,3.015625 c -0.015625,0.015625 -0.046875,0.09375 -0.046875,0.109375 0,0.078125 0.21875,0.15625 0.28125,0.15625 0.046875,0 0.046875,-0.015625 0.09375,-0.125 z m 0,0"
               id="id-80af179d-5a18-4795-b8ab-ab15ee93d601" />
          </symbol>
          <symbol
             overflow="visible"
             id="id-ad298002-cfc5-4691-84f1-f8150e6ec4b3"
             style="fill:#ffffff;stroke-width:0">
            <path
               style="stroke:#ffffff;fill:#ffffff;stroke-width:0"
               d=""
               id="id-da17c51c-850d-4f05-800f-87b5bda21347" />
          </symbol>
          <symbol
             overflow="visible"
             id="id-ed7086da-2d8e-4238-a6d6-158c66fc5546"
             style="fill:#ffffff;stroke-width:0">
            <path
               style="stroke:#ffffff;fill:#ffffff;stroke-width:0"
               d="m 2.84375,-2.75 h 0.671875 c 0.140625,0 0.234375,0 0.234375,-0.15625 0,-0.09375 -0.09375,-0.09375 -0.21875,-0.09375 h -0.640625 c 0.15625,-0.890625 0.203125,-1.203125 0.265625,-1.40625 0.03125,-0.15625 0.1875,-0.296875 0.359375,-0.296875 0,0 0.1875,0 0.328125,0.078125 -0.296875,0.09375 -0.3125,0.34375 -0.3125,0.375 0,0.15625 0.125,0.265625 0.28125,0.265625 0.1875,0 0.390625,-0.15625 0.390625,-0.421875 0,-0.328125 -0.328125,-0.5 -0.6875,-0.5 -0.3125,0 -0.65625,0.171875 -0.84375,0.515625 -0.140625,0.265625 -0.1875,0.578125 -0.34375,1.390625 h -0.546875 c -0.140625,0 -0.234375,0 -0.234375,0.15625 0,0.09375 0.09375,0.09375 0.21875,0.09375 h 0.515625 c 0,0.046875 -0.4375,2.546875 -0.609375,3.296875 -0.03125,0.15625 -0.15625,0.671875 -0.484375,0.671875 -0.015625,0 -0.171875,0 -0.3125,-0.078125 0.28125,-0.09375 0.3125,-0.34375 0.3125,-0.375 0,-0.15625 -0.125,-0.265625 -0.28125,-0.265625 -0.1875,0 -0.390625,0.15625 -0.390625,0.421875 0,0.3125 0.328125,0.5 0.671875,0.5 0.4375,0 0.75,-0.453125 0.828125,-0.609375 0.25,-0.46875 0.421875,-1.328125 0.4375,-1.40625 z m 0,0"
               id="id-40f70b63-e0bb-4a48-a916-a1e1331bb419" />
          </symbol>
        </g>
      </defs>
      <g
         id="id-2068e2c8-5ed7-4a1e-8530-3b70724412a7"
         transform="translate(-70.595, -98.9684)"
         style="fill:#ffffff;stroke-width:0">
        <g
           style="fill:#ffffff;fill-opacity:1;stroke-width:0"
           id="id-65f30b0d-ef56-4f4d-8aa8-cb0c9399d85c">
          <g
             transform="translate(70.22, 106.475)"
             style="fill:#ffffff;stroke-width:0"
             id="g63232">
            <path
               style="stroke:#ffffff;fill:#ffffff;stroke-width:0"
               d="m 5.15625,-3.71875 c 0.140625,0 0.5,0 0.5,-0.34375 0,-0.234375 -0.21875,-0.234375 -0.390625,-0.234375 h -2.28125 c -1.5,0 -2.609375,1.640625 -2.609375,2.828125 0,0.875 0.59375,1.578125 1.5,1.578125 1.171875,0 2.5,-1.203125 2.5,-2.734375 0,-0.171875 0,-0.65625 -0.3125,-1.09375 z m -3.265625,3.609375 c -0.5,0 -0.890625,-0.359375 -0.890625,-1.078125 0,-0.296875 0.109375,-1.109375 0.46875,-1.703125 0.421875,-0.6875 1.015625,-0.828125 1.359375,-0.828125 0.828125,0 0.90625,0.65625 0.90625,0.96875 0,0.46875 -0.203125,1.28125 -0.53125,1.796875 -0.390625,0.578125 -0.9375,0.84375 -1.3125,0.84375 z m 0,0"
               id="id-510f4e68-58dd-4e67-b2f9-4bdffc3240f9" />
          </g>
        </g>
        <g
           style="fill:#ffffff;fill-opacity:1;stroke-width:0"
           id="id-f8bf32e6-1bf2-4965-9e76-7b44fea29022">
          <g
             transform="translate(76.27, 102.859)"
             style="fill:#ffffff;stroke-width:0"
             id="g63236">
            <path
               style="stroke:#ffffff;fill:#ffffff;stroke-width:0"
               d="m 2.015625,-3.296875 c 0.0625,-0.109375 0.0625,-0.171875 0.0625,-0.21875 0,-0.21875 -0.1875,-0.375 -0.40625,-0.375 -0.265625,0 -0.34375,0.21875 -0.375,0.328125 l -0.921875,3.015625 c -0.015625,0.015625 -0.046875,0.09375 -0.046875,0.109375 0,0.078125 0.21875,0.15625 0.28125,0.15625 0.046875,0 0.046875,-0.015625 0.09375,-0.125 z m 0,0"
               id="id-984330fb-788b-4b59-9d46-9f5abfbe7904" />
          </g>
        </g>
        <g
           style="fill:#ffffff;fill-opacity:1;stroke-width:0"
           id="id-8fb145bc-319c-4181-8f02-dacc1ba2fe59">
          <g
             transform="translate(75.912, 109.296)"
             style="fill:#ffffff;stroke-width:0"
             id="g63240">
            <path
               style="stroke:#ffffff;fill:#ffffff;stroke-width:0"
               d="m 2.84375,-2.75 h 0.671875 c 0.140625,0 0.234375,0 0.234375,-0.15625 0,-0.09375 -0.09375,-0.09375 -0.21875,-0.09375 h -0.640625 c 0.15625,-0.890625 0.203125,-1.203125 0.265625,-1.40625 0.03125,-0.15625 0.1875,-0.296875 0.359375,-0.296875 0,0 0.1875,0 0.328125,0.078125 -0.296875,0.09375 -0.3125,0.34375 -0.3125,0.375 0,0.15625 0.125,0.265625 0.28125,0.265625 0.1875,0 0.390625,-0.15625 0.390625,-0.421875 0,-0.328125 -0.328125,-0.5 -0.6875,-0.5 -0.3125,0 -0.65625,0.171875 -0.84375,0.515625 -0.140625,0.265625 -0.1875,0.578125 -0.34375,1.390625 h -0.546875 c -0.140625,0 -0.234375,0 -0.234375,0.15625 0,0.09375 0.09375,0.09375 0.21875,0.09375 h 0.515625 c 0,0.046875 -0.4375,2.546875 -0.609375,3.296875 -0.03125,0.15625 -0.15625,0.671875 -0.484375,0.671875 -0.015625,0 -0.171875,0 -0.3125,-0.078125 0.28125,-0.09375 0.3125,-0.34375 0.3125,-0.375 0,-0.15625 -0.125,-0.265625 -0.28125,-0.265625 -0.1875,0 -0.390625,0.15625 -0.390625,0.421875 0,0.3125 0.328125,0.5 0.671875,0.5 0.4375,0 0.75,-0.453125 0.828125,-0.609375 0.25,-0.46875 0.421875,-1.328125 0.4375,-1.40625 z m 0,0"
               id="id-9535b108-d48e-43fb-b14d-a8ca21fb9aa3" />
          </g>
        </g>
      </g>
    </g>
  </g>
</svg>
