<?xml version="1.0" encoding="UTF-8" standalone="no"?>
<!-- Created with Inkscape (http://www.inkscape.org/) -->

<svg
   width="2in"
   height="1.9in"
   viewBox="0 0 50.8 48.259998"
   version="1.1"
   id="svg1"
   inkscape:version="1.4 (86a8ad7, 2024-10-11)"
   sodipodi:docname="EX741.svg"
   xmlns:inkscape="http://www.inkscape.org/namespaces/inkscape"
   xmlns:sodipodi="http://sodipodi.sourceforge.net/DTD/sodipodi-0.dtd"
   xmlns="http://www.w3.org/2000/svg"
   xmlns:svg="http://www.w3.org/2000/svg"
   xmlns:ns14="http://www.iki.fi/pav/software/textext/">
  <sodipodi:namedview
     id="namedview1"
     pagecolor="#ffffff"
     bordercolor="#111111"
     borderopacity="1"
     inkscape:showpageshadow="0"
     inkscape:pageopacity="0"
     inkscape:pagecheckerboard="1"
     inkscape:deskcolor="#d1d1d1"
     inkscape:document-units="mm"
     inkscape:zoom="1.4503086"
     inkscape:cx="75.845925"
     inkscape:cy="122.04299"
     inkscape:window-width="1920"
     inkscape:window-height="1009"
     inkscape:window-x="1912"
     inkscape:window-y="-8"
     inkscape:window-maximized="1"
     inkscape:current-layer="layer1" />
  <defs
     id="defs1">
    <marker
       style="overflow:visible"
       id="ArrowWide"
       refX="0"
       refY="0"
       orient="auto-start-reverse"
       inkscape:stockid="Wide arrow"
       markerWidth="1"
       markerHeight="1"
       viewBox="0 0 1 1"
       inkscape:isstock="true"
       inkscape:collect="always"
       preserveAspectRatio="xMidYMid">
      <path
         style="fill:none;stroke:context-stroke;stroke-width:1;stroke-linecap:butt"
         d="M 3,-3 0,0 3,3"
         transform="rotate(180,0.125,0)"
         sodipodi:nodetypes="ccc"
         id="path33" />
    </marker>
    <inkscape:path-effect
       effect="ruler"
       id="path-effect11"
       is_visible="true"
       lpeversion="1.3.1"
       unit="px"
       mark_distance="7.19"
       mark_angle="0"
       mark_length="3.5"
       minor_mark_length="2"
       minor_mark_gap="0"
       major_mark_gap="0"
       major_mark_steps="10"
       shift="0"
       offset="0"
       mark_dir="left"
       border_marks="both" />
    <inkscape:path-effect
       effect="ruler"
       id="path-effect10"
       is_visible="true"
       lpeversion="1.3.1"
       unit="px"
       mark_distance="7.19"
       mark_angle="0"
       mark_length="3.5"
       minor_mark_length="2"
       minor_mark_gap="0"
       major_mark_gap="0"
       major_mark_steps="10"
       shift="0"
       offset="0"
       mark_dir="left"
       border_marks="both" />
    <marker
       style="overflow:visible"
       id="DartArrow"
       refX="0"
       refY="0"
       orient="auto-start-reverse"
       inkscape:stockid="Dart arrow"
       markerWidth="1"
       markerHeight="1"
       viewBox="0 0 1 1"
       inkscape:isstock="true"
       inkscape:collect="always"
       preserveAspectRatio="xMidYMid">
      <path
         style="fill:context-stroke;fill-rule:evenodd;stroke:none"
         d="M 0,0 5,-5 -12.5,0 5,5 Z"
         transform="scale(-0.5)"
         id="path6" />
    </marker>
  </defs>
  <g
     inkscape:label="Layer 1"
     inkscape:groupmode="layer"
     id="layer1">

    <path
       style="fill:none;stroke:#000000;stroke-width:0.264583px;stroke-linecap:butt;stroke-linejoin:miter;stroke-opacity:1;marker-start:url(#DartArrow);marker-end:url(#DartArrow)"
       d="M 3.0101352,3.0101353 V 40.817898 H 48.253376"
       id="path1"
       sodipodi:nodetypes="ccc" />
    <g
       transform="matrix(0.352778,0,0,0.352778,4.1761195,0.29122839)"
       ns14:version="1.10.2"
       ns14:texconverter="pdflatex"
       ns14:pdfconverter="inkscape"
       ns14:text="$\\tau$ (psi)"
       ns14:preamble="C:\Users\zamcr\AppData\Roaming\inkscape\extensions\textext\default_packages.tex"
       ns14:scale="1.0"
       ns14:alignment="middle center"
       ns14:stroke-to-path="0"
       ns14:inkscapeversion="1.4"
       ns14:jacobian_sqrt="0.352778"
       id="g7">
      <defs
         id="id-da4d8d8b-d350-40cf-90d1-905346d70cb3">
        <g
           id="id-942081ec-ed53-4bbf-8a0c-84fa64998e74">
          <g
             id="id-e8cd15ed-7082-4c88-ac86-664e9314aa12">
            <path
               d="m 2.9375,-3.71875 h 1.671875 c 0.125,0 0.484375,0 0.484375,-0.34375 0,-0.234375 -0.203125,-0.234375 -0.40625,-0.234375 H 1.90625 c -0.203125,0 -0.59375,0 -1.03125,0.46875 -0.328125,0.359375 -0.609375,0.84375 -0.609375,0.890625 0,0.015625 0,0.109375 0.125,0.109375 0.078125,0 0.09375,-0.046875 0.15625,-0.125 C 1.03125,-3.71875 1.609375,-3.71875 1.8125,-3.71875 h 0.828125 l -0.96875,3.203125 C 1.625,-0.40625 1.5625,-0.1875 1.5625,-0.15625 c 0,0.109375 0.078125,0.28125 0.296875,0.28125 0.328125,0 0.375,-0.28125 0.40625,-0.4375 z m 0,0"
               id="id-30355c85-2ebc-4d86-b9a7-072294a4c7c3" />
          </g>
          <g
             id="id-aa4bef8e-1b43-4433-9a46-4e5dc32982a1">
            <path
               d="m 3.296875,2.390625 c 0,-0.03125 0,-0.046875 -0.171875,-0.21875 C 1.890625,0.921875 1.5625,-0.96875 1.5625,-2.5 c 0,-1.734375 0.375,-3.46875 1.609375,-4.703125 0.125,-0.125 0.125,-0.140625 0.125,-0.171875 0,-0.078125 -0.03125,-0.109375 -0.09375,-0.109375 -0.109375,0 -1,0.6875 -1.59375,1.953125 -0.5,1.09375 -0.625,2.203125 -0.625,3.03125 0,0.78125 0.109375,1.984375 0.65625,3.125 C 2.25,1.84375 3.09375,2.5 3.203125,2.5 c 0.0625,0 0.09375,-0.03125 0.09375,-0.109375 z m 0,0"
               id="id-7076d8f9-c60e-4064-96bd-37862d11f742" />
          </g>
          <g
             id="id-e4f7d7b4-9330-4884-8afc-a23332848967">
            <path
               d="m 1.71875,-3.75 v -0.65625 l -1.4375,0.109375 v 0.3125 c 0.703125,0 0.78125,0.0625 0.78125,0.5 v 4.65625 C 1.0625,1.625 0.953125,1.625 0.28125,1.625 V 1.9375 C 0.625,1.921875 1.140625,1.90625 1.390625,1.90625 c 0.28125,0 0.78125,0.015625 1.125,0.03125 V 1.625 C 1.859375,1.625 1.75,1.625 1.75,1.171875 V -0.59375 c 0.046875,0.171875 0.46875,0.703125 1.21875,0.703125 1.1875,0 2.21875,-0.984375 2.21875,-2.265625 0,-1.265625 -0.953125,-2.25 -2.078125,-2.25 -0.78125,0 -1.203125,0.4375 -1.390625,0.65625 z M 1.75,-1.140625 v -2.21875 C 2.03125,-3.875 2.515625,-4.15625 3.03125,-4.15625 c 0.734375,0 1.328125,0.875 1.328125,2 0,1.203125 -0.6875,2.046875 -1.421875,2.046875 -0.40625,0 -0.78125,-0.203125 -1.046875,-0.609375 C 1.75,-0.921875 1.75,-0.9375 1.75,-1.140625 Z m 0,0"
               id="id-a07732cb-46fd-4e15-964f-39b9ce303fe6" />
          </g>
          <g
             id="id-75a0c1cf-f09a-48e8-ac86-0c66ab6a1428">
            <path
               d="m 2.078125,-1.9375 c 0.21875,0.046875 1.03125,0.203125 1.03125,0.921875 0,0.5 -0.34375,0.90625 -1.125,0.90625 -0.84375,0 -1.203125,-0.5625 -1.390625,-1.421875 C 0.5625,-1.65625 0.5625,-1.6875 0.453125,-1.6875 c -0.125,0 -0.125,0.0625 -0.125,0.234375 V -0.125 c 0,0.171875 0,0.234375 0.109375,0.234375 0.046875,0 0.0625,-0.015625 0.25,-0.203125 0.015625,-0.015625 0.015625,-0.03125 0.203125,-0.21875 0.4375,0.40625 0.890625,0.421875 1.09375,0.421875 1.140625,0 1.609375,-0.671875 1.609375,-1.390625 0,-0.515625 -0.296875,-0.828125 -0.421875,-0.9375 C 2.84375,-2.546875 2.453125,-2.625 2.03125,-2.703125 1.46875,-2.8125 0.8125,-2.9375 0.8125,-3.515625 c 0,-0.359375 0.25,-0.765625 1.109375,-0.765625 1.09375,0 1.15625,0.90625 1.171875,1.203125 0,0.09375 0.09375,0.09375 0.109375,0.09375 0.140625,0 0.140625,-0.046875 0.140625,-0.234375 v -1.015625 c 0,-0.15625 0,-0.234375 -0.109375,-0.234375 -0.046875,0 -0.078125,0 -0.203125,0.125 -0.03125,0.03125 -0.125,0.125 -0.171875,0.15625 -0.375,-0.28125 -0.78125,-0.28125 -0.9375,-0.28125 -1.21875,0 -1.59375,0.671875 -1.59375,1.234375 0,0.34375 0.15625,0.625 0.421875,0.84375 0.328125,0.25 0.609375,0.3125 1.328125,0.453125 z m 0,0"
               id="id-6ce50e79-b8ed-463c-adfb-961273235896" />
          </g>
          <g
             id="id-9207f942-6d4d-48e4-b046-f0a49a57dcd3">
            <path
               d="M 1.765625,-4.40625 0.375,-4.296875 v 0.3125 c 0.640625,0 0.734375,0.0625 0.734375,0.546875 V -0.75 c 0,0.4375 -0.109375,0.4375 -0.78125,0.4375 V 0 C 0.640625,-0.015625 1.1875,-0.03125 1.421875,-0.03125 1.78125,-0.03125 2.125,-0.015625 2.46875,0 v -0.3125 c -0.671875,0 -0.703125,-0.046875 -0.703125,-0.4375 z m 0.03125,-1.734375 c 0,-0.3125 -0.234375,-0.53125 -0.515625,-0.53125 -0.3125,0 -0.53125,0.265625 -0.53125,0.53125 0,0.265625 0.21875,0.53125 0.53125,0.53125 0.28125,0 0.515625,-0.21875 0.515625,-0.53125 z m 0,0"
               id="id-be630d4e-31b9-4530-9eb8-64b18feb2f68" />
          </g>
          <g
             id="id-1e5780f1-37e9-4d56-9299-d3c65e9dab01">
            <path
               d="m 2.875,-2.5 c 0,-0.765625 -0.109375,-1.96875 -0.65625,-3.109375 -0.59375,-1.21875 -1.453125,-1.875 -1.546875,-1.875 -0.0625,0 -0.109375,0.046875 -0.109375,0.109375 0,0.03125 0,0.046875 0.1875,0.234375 0.984375,0.984375 1.546875,2.5625 1.546875,4.640625 0,1.71875 -0.359375,3.46875 -1.59375,4.71875 C 0.5625,2.34375 0.5625,2.359375 0.5625,2.390625 0.5625,2.453125 0.609375,2.5 0.671875,2.5 0.765625,2.5 1.671875,1.8125 2.25,0.546875 2.765625,-0.546875 2.875,-1.65625 2.875,-2.5 Z m 0,0"
               id="id-8f0cdf96-7a58-46c1-8264-c57901525df8" />
          </g>
        </g>
      </defs>
      <g
         fill="#000000"
         fill-opacity="1"
         id="id-26ebe1a6-0a78-4df1-b3d5-22cebf3c9757"
         transform="translate(-148.978,-127.281)">
        <g
           transform="translate(148.712,134.765)"
           id="g1">
          <path
             d="m 2.9375,-3.71875 h 1.671875 c 0.125,0 0.484375,0 0.484375,-0.34375 0,-0.234375 -0.203125,-0.234375 -0.40625,-0.234375 H 1.90625 c -0.203125,0 -0.59375,0 -1.03125,0.46875 -0.328125,0.359375 -0.609375,0.84375 -0.609375,0.890625 0,0.015625 0,0.109375 0.125,0.109375 0.078125,0 0.09375,-0.046875 0.15625,-0.125 C 1.03125,-3.71875 1.609375,-3.71875 1.8125,-3.71875 h 0.828125 l -0.96875,3.203125 C 1.625,-0.40625 1.5625,-0.1875 1.5625,-0.15625 c 0,0.109375 0.078125,0.28125 0.296875,0.28125 0.328125,0 0.375,-0.28125 0.40625,-0.4375 z m 0,0"
             id="id-b0b12a72-8eb7-40bc-9cb1-1dd176d729cd" />
        </g>
      </g>
      <g
         fill="#000000"
         fill-opacity="1"
         id="id-8341002a-856f-4792-8ddc-2af75d657bc3"
         transform="translate(-148.978,-127.281)">
        <g
           transform="translate(157.516,134.765)"
           id="g2">
          <path
             d="m 3.296875,2.390625 c 0,-0.03125 0,-0.046875 -0.171875,-0.21875 C 1.890625,0.921875 1.5625,-0.96875 1.5625,-2.5 c 0,-1.734375 0.375,-3.46875 1.609375,-4.703125 0.125,-0.125 0.125,-0.140625 0.125,-0.171875 0,-0.078125 -0.03125,-0.109375 -0.09375,-0.109375 -0.109375,0 -1,0.6875 -1.59375,1.953125 -0.5,1.09375 -0.625,2.203125 -0.625,3.03125 0,0.78125 0.109375,1.984375 0.65625,3.125 C 2.25,1.84375 3.09375,2.5 3.203125,2.5 c 0.0625,0 0.09375,-0.03125 0.09375,-0.109375 z m 0,0"
             id="id-0e5354d7-f892-409b-b72b-58182ed9403e" />
        </g>
        <g
           transform="translate(161.39,134.765)"
           id="g3">
          <path
             d="m 1.71875,-3.75 v -0.65625 l -1.4375,0.109375 v 0.3125 c 0.703125,0 0.78125,0.0625 0.78125,0.5 v 4.65625 C 1.0625,1.625 0.953125,1.625 0.28125,1.625 V 1.9375 C 0.625,1.921875 1.140625,1.90625 1.390625,1.90625 c 0.28125,0 0.78125,0.015625 1.125,0.03125 V 1.625 C 1.859375,1.625 1.75,1.625 1.75,1.171875 V -0.59375 c 0.046875,0.171875 0.46875,0.703125 1.21875,0.703125 1.1875,0 2.21875,-0.984375 2.21875,-2.265625 0,-1.265625 -0.953125,-2.25 -2.078125,-2.25 -0.78125,0 -1.203125,0.4375 -1.390625,0.65625 z M 1.75,-1.140625 v -2.21875 C 2.03125,-3.875 2.515625,-4.15625 3.03125,-4.15625 c 0.734375,0 1.328125,0.875 1.328125,2 0,1.203125 -0.6875,2.046875 -1.421875,2.046875 -0.40625,0 -0.78125,-0.203125 -1.046875,-0.609375 C 1.75,-0.921875 1.75,-0.9375 1.75,-1.140625 Z m 0,0"
             id="id-b90053b2-22bb-43a6-8b5f-d855a86e1c73" />
        </g>
        <g
           transform="translate(166.926,134.765)"
           id="g4">
          <path
             d="m 2.078125,-1.9375 c 0.21875,0.046875 1.03125,0.203125 1.03125,0.921875 0,0.5 -0.34375,0.90625 -1.125,0.90625 -0.84375,0 -1.203125,-0.5625 -1.390625,-1.421875 C 0.5625,-1.65625 0.5625,-1.6875 0.453125,-1.6875 c -0.125,0 -0.125,0.0625 -0.125,0.234375 V -0.125 c 0,0.171875 0,0.234375 0.109375,0.234375 0.046875,0 0.0625,-0.015625 0.25,-0.203125 0.015625,-0.015625 0.015625,-0.03125 0.203125,-0.21875 0.4375,0.40625 0.890625,0.421875 1.09375,0.421875 1.140625,0 1.609375,-0.671875 1.609375,-1.390625 0,-0.515625 -0.296875,-0.828125 -0.421875,-0.9375 C 2.84375,-2.546875 2.453125,-2.625 2.03125,-2.703125 1.46875,-2.8125 0.8125,-2.9375 0.8125,-3.515625 c 0,-0.359375 0.25,-0.765625 1.109375,-0.765625 1.09375,0 1.15625,0.90625 1.171875,1.203125 0,0.09375 0.09375,0.09375 0.109375,0.09375 0.140625,0 0.140625,-0.046875 0.140625,-0.234375 v -1.015625 c 0,-0.15625 0,-0.234375 -0.109375,-0.234375 -0.046875,0 -0.078125,0 -0.203125,0.125 -0.03125,0.03125 -0.125,0.125 -0.171875,0.15625 -0.375,-0.28125 -0.78125,-0.28125 -0.9375,-0.28125 -1.21875,0 -1.59375,0.671875 -1.59375,1.234375 0,0.34375 0.15625,0.625 0.421875,0.84375 0.328125,0.25 0.609375,0.3125 1.328125,0.453125 z m 0,0"
             id="id-e8026a03-0d60-4edc-8a36-3a7ca0128d34" />
        </g>
        <g
           transform="translate(170.855,134.765)"
           id="g5">
          <path
             d="M 1.765625,-4.40625 0.375,-4.296875 v 0.3125 c 0.640625,0 0.734375,0.0625 0.734375,0.546875 V -0.75 c 0,0.4375 -0.109375,0.4375 -0.78125,0.4375 V 0 C 0.640625,-0.015625 1.1875,-0.03125 1.421875,-0.03125 1.78125,-0.03125 2.125,-0.015625 2.46875,0 v -0.3125 c -0.671875,0 -0.703125,-0.046875 -0.703125,-0.4375 z m 0.03125,-1.734375 c 0,-0.3125 -0.234375,-0.53125 -0.515625,-0.53125 -0.3125,0 -0.53125,0.265625 -0.53125,0.53125 0,0.265625 0.21875,0.53125 0.53125,0.53125 0.28125,0 0.515625,-0.21875 0.515625,-0.53125 z m 0,0"
             id="id-a9eba084-6250-46c0-b4ac-4e997871302d" />
        </g>
        <g
           transform="translate(173.623,134.765)"
           id="g6">
          <path
             d="m 2.875,-2.5 c 0,-0.765625 -0.109375,-1.96875 -0.65625,-3.109375 -0.59375,-1.21875 -1.453125,-1.875 -1.546875,-1.875 -0.0625,0 -0.109375,0.046875 -0.109375,0.109375 0,0.03125 0,0.046875 0.1875,0.234375 0.984375,0.984375 1.546875,2.5625 1.546875,4.640625 0,1.71875 -0.359375,3.46875 -1.59375,4.71875 C 0.5625,2.34375 0.5625,2.359375 0.5625,2.390625 0.5625,2.453125 0.609375,2.5 0.671875,2.5 0.765625,2.5 1.671875,1.8125 2.25,0.546875 2.765625,-0.546875 2.875,-1.65625 2.875,-2.5 Z m 0,0"
             id="id-e625fc7e-de2e-4b1d-a3f6-407e2fb53f74" />
        </g>
      </g>
    </g>
    <g
       transform="matrix(0.352778,0,0,0.352778,46.556551,41.656291)"
       ns14:version="1.10.2"
       ns14:texconverter="pdflatex"
       ns14:pdfconverter="inkscape"
       ns14:text="$\\sigma'$"
       ns14:preamble="C:\Users\zamcr\AppData\Roaming\inkscape\extensions\textext\default_packages.tex"
       ns14:scale="1.0"
       ns14:alignment="middle center"
       ns14:stroke-to-path="0"
       ns14:inkscapeversion="1.4"
       ns14:jacobian_sqrt="0.352778"
       id="g10">
      <defs
         id="id-6bf2f574-2bd0-49c6-960a-a82967248650">
        <g
           id="id-af6c1bb1-9ea2-4673-974f-c928a562bf18">
          <g
             id="id-ad546d6a-35ef-4198-8bdf-ea9797ad52a7">
            <path
               d="m 5.15625,-3.71875 c 0.140625,0 0.5,0 0.5,-0.34375 0,-0.234375 -0.21875,-0.234375 -0.390625,-0.234375 h -2.28125 c -1.5,0 -2.609375,1.640625 -2.609375,2.828125 0,0.875 0.59375,1.578125 1.5,1.578125 1.171875,0 2.5,-1.203125 2.5,-2.734375 0,-0.171875 0,-0.65625 -0.3125,-1.09375 z M 1.890625,-0.109375 C 1.390625,-0.109375 1,-0.46875 1,-1.1875 c 0,-0.296875 0.109375,-1.109375 0.46875,-1.703125 0.421875,-0.6875 1.015625,-0.828125 1.359375,-0.828125 0.828125,0 0.90625,0.65625 0.90625,0.96875 0,0.46875 -0.203125,1.28125 -0.53125,1.796875 -0.390625,0.578125 -0.9375,0.84375 -1.3125,0.84375 z m 0,0"
               id="id-5d70cca8-b15d-4b83-8226-2a73d7d83709" />
          </g>
          <g
             id="id-85faa0cd-7750-4f7a-93b0-c44b4f284fa4">
            <path
               d="m 2.015625,-3.296875 c 0.0625,-0.109375 0.0625,-0.171875 0.0625,-0.21875 0,-0.21875 -0.1875,-0.375 -0.40625,-0.375 -0.265625,0 -0.34375,0.21875 -0.375,0.328125 L 0.375,-0.546875 c -0.015625,0.015625 -0.046875,0.09375 -0.046875,0.109375 0,0.078125 0.21875,0.15625 0.28125,0.15625 0.046875,0 0.046875,-0.015625 0.09375,-0.125 z m 0,0"
               id="id-3b6c4634-27e5-4369-8955-078c55669ca8" />
          </g>
        </g>
      </defs>
      <g
         fill="#000000"
         fill-opacity="1"
         id="id-3c5d853e-7f9b-4ddf-9071-a8639fd00caf"
         transform="translate(-149.087,-127.258)">
        <g
           transform="translate(148.712,134.765)"
           id="g8">
          <path
             d="m 5.15625,-3.71875 c 0.140625,0 0.5,0 0.5,-0.34375 0,-0.234375 -0.21875,-0.234375 -0.390625,-0.234375 h -2.28125 c -1.5,0 -2.609375,1.640625 -2.609375,2.828125 0,0.875 0.59375,1.578125 1.5,1.578125 1.171875,0 2.5,-1.203125 2.5,-2.734375 0,-0.171875 0,-0.65625 -0.3125,-1.09375 z M 1.890625,-0.109375 C 1.390625,-0.109375 1,-0.46875 1,-1.1875 c 0,-0.296875 0.109375,-1.109375 0.46875,-1.703125 0.421875,-0.6875 1.015625,-0.828125 1.359375,-0.828125 0.828125,0 0.90625,0.65625 0.90625,0.96875 0,0.46875 -0.203125,1.28125 -0.53125,1.796875 -0.390625,0.578125 -0.9375,0.84375 -1.3125,0.84375 z m 0,0"
             id="id-98dc83ed-255b-47ba-b412-fc123f46d5fb" />
        </g>
      </g>
      <g
         fill="#000000"
         fill-opacity="1"
         id="id-f556f7d7-1030-45a2-83f7-d1b2cfc74739"
         transform="translate(-149.087,-127.258)">
        <g
           transform="translate(154.763,131.149)"
           id="g9">
          <path
             d="m 2.015625,-3.296875 c 0.0625,-0.109375 0.0625,-0.171875 0.0625,-0.21875 0,-0.21875 -0.1875,-0.375 -0.40625,-0.375 -0.265625,0 -0.34375,0.21875 -0.375,0.328125 L 0.375,-0.546875 c -0.015625,0.015625 -0.046875,0.09375 -0.046875,0.109375 0,0.078125 0.21875,0.15625 0.28125,0.15625 0.046875,0 0.046875,-0.015625 0.09375,-0.125 z m 0,0"
             id="id-a51c3ed8-b7a2-436a-8542-748196172c96" />
        </g>
      </g>
    </g>
    <path
       style="fill:none;stroke:#000000;stroke-width:0.165;stroke-linecap:butt;stroke-linejoin:miter;stroke-dasharray:none;stroke-opacity:1"
       d="M 3.0101352,35.391891 H 47.729708 m -44.7195728,0 v -0.926042 m 1.9023542,0.926042 v -0.529167 m 1.9023541,0.529167 v -0.529167 m 1.9023542,0.529167 v -0.529167 m 1.9023543,0.529167 v -0.529167 m 1.902354,0.529167 v -0.529167 m 1.902354,0.529167 v -0.529167 m 1.902354,0.529167 v -0.529167 m 1.902355,0.529167 v -0.529167 m 1.902354,0.529167 v -0.529167 m 1.902354,0.529167 v -0.926042 m 1.902354,0.926042 v -0.529167 m 1.902354,0.529167 v -0.529167 m 1.902354,0.529167 v -0.529167 m 1.902355,0.529167 v -0.529167 m 1.902354,0.529167 v -0.529167 m 1.902354,0.529167 v -0.529167 m 1.902354,0.529167 v -0.529167 m 1.902354,0.529167 v -0.529167 m 1.902354,0.529167 v -0.529167 m 1.902355,0.529167 v -0.926042 m 1.902354,0.926042 v -0.529167 m 1.902354,0.529167 v -0.529167 m 1.902354,0.529167 v -0.529167 m 0.965427,0.529167 v -0.926042"
       id="path10"
       inkscape:path-effect="#path-effect10"
       inkscape:original-d="M 3.0101352,35.391891 H 47.729708"
       transform="translate(0,5.426007)" />
    <path
       style="fill:none;stroke:#000000;stroke-width:0.165;stroke-linecap:butt;stroke-linejoin:miter;stroke-dasharray:none;stroke-opacity:1"
       d="M 3.0101352,40.817898 V 3.0101352 m 0,37.8077628 H 2.0840935 M 3.0101352,38.915544 H 2.4809685 M 3.0101352,37.01319 H 2.4809685 M 3.0101352,35.110835 H 2.4809685 M 3.0101352,33.208481 H 2.4809685 M 3.0101352,31.306127 H 2.4809685 M 3.0101352,29.403773 H 2.4809685 M 3.0101352,27.501419 H 2.4809685 M 3.0101352,25.599065 H 2.4809685 M 3.0101352,23.696711 H 2.4809685 M 3.0101352,21.794356 H 2.0840935 M 3.0101352,19.892002 H 2.4809685 M 3.0101352,17.989648 H 2.4809685 M 3.0101352,16.087294 H 2.4809685 M 3.0101352,14.18494 H 2.4809685 M 3.0101352,12.282586 H 2.4809685 M 3.0101352,10.380231 H 2.4809685 M 3.0101352,8.4778772 H 2.4809685 M 3.0101352,6.575523 H 2.4809685 M 3.0101352,4.6731688 H 2.4809685 M 3.0101352,3.0101352 H 2.0840935"
       id="path11"
       inkscape:path-effect="#path-effect11"
       inkscape:original-d="M 3.0101352,40.817898 V 3.0101352"
       sodipodi:nodetypes="cc" />
    <text
       xml:space="preserve"
       style="font-size:2.11667px;line-height:0.95;font-family:'Gunny Rewritten';-inkscape-font-specification:'Gunny Rewritten';font-variant-ligatures:none;stroke-width:0.264583"
       x="21.195755"
       y="42.388683"
       id="text11"><tspan
         sodipodi:role="line"
         id="tspan11"
         style="stroke-width:0.264583"
         x="21.195755"
         y="42.388683">10</tspan></text>
    <text
       xml:space="preserve"
       style="font-size:2.11667px;line-height:0.95;font-family:'Gunny Rewritten';-inkscape-font-specification:'Gunny Rewritten';font-variant-ligatures:none;stroke-width:0.264583"
       x="40.158638"
       y="42.388683"
       id="text12"><tspan
         sodipodi:role="line"
         id="tspan12"
         style="stroke-width:0.264583"
         x="40.158638"
         y="42.388683">20</tspan></text>
    <text
       xml:space="preserve"
       style="font-size:2.11667px;line-height:0.95;font-family:'Gunny Rewritten';-inkscape-font-specification:'Gunny Rewritten';font-variant-ligatures:none;stroke-width:0.264583"
       x="-22.778564"
       y="2.1037307"
       id="text13"
       transform="rotate(-90)"><tspan
         sodipodi:role="line"
         id="tspan13"
         style="stroke-width:0.264583"
         x="-22.778564"
         y="2.1037307">10</tspan></text>
    <text
       xml:space="preserve"
       style="font-size:2.11667px;line-height:0.95;font-family:'Gunny Rewritten';-inkscape-font-specification:'Gunny Rewritten';font-variant-ligatures:none;stroke-width:0.264583"
       x="-3.7921832"
       y="2.1037307"
       id="text14"
       transform="rotate(-90)"><tspan
         sodipodi:role="line"
         id="tspan14"
         style="stroke-width:0.264583"
         x="-3.7921832"
         y="2.1037307">20</tspan></text>
    <path class="Animate"
       id="rect19"
       style="fill:#000080;stroke:#008000;stroke-width:0.165;stroke-linecap:round;stroke-miterlimit:4.1;paint-order:fill markers stroke"
       d="m 22.312189,20.875534 h 0.869709 v 0.869709 h -0.869709 z" />
    <path class="Animate"
       id="path20"
       style="fill:#000080;stroke:#008000;stroke-width:0.165;stroke-linecap:round;stroke-miterlimit:4.1;paint-order:fill markers stroke"
       d="m 31.110593,12.900439 h 0.869709 v 0.869709 h -0.869709 z" />
    <path class="Animate"
       id="path21"
       style="fill:#000080;stroke:#008000;stroke-width:0.165;stroke-linecap:round;stroke-miterlimit:4.1;paint-order:fill markers stroke"
       d="m 41.614193,3.8409055 h 0.869709 v 0.869709 h -0.869709 z" />
    <path class="Animate"
       style="fill:none;stroke:#008000;stroke-width:0.264583px;stroke-linecap:butt;stroke-linejoin:miter;stroke-opacity:1"
       d="M 3.0101352,40.817897 44.741554,1.0033784"
       id="path22" />
    <text class="Animate"
       xml:space="preserve"
       style="font-size:3.175px;line-height:0.95;font-family:'Gunny Rewritten';-inkscape-font-specification:'Gunny Rewritten';font-variant-ligatures:none;stroke-width:0.264583;fill:#008000"
       x="12.019979"
       y="8.688345"
       id="text22"><tspan
         sodipodi:role="line"
         id="tspan22"
         style="stroke-width:0.264583;fill:#008000"
         x="12.019979"
         y="8.688345">M.C. for peak condition</tspan></text>
    <path class="Animate"
       style="fill:none;stroke:#000000;stroke-width:0.264583px;stroke-linecap:butt;stroke-linejoin:miter;stroke-opacity:1"
       d="M 35.616986,9.8285471 H 44.71875"
       id="path23" />
    <g class="Animate"
       id="g25"
       style="fill:#008000"
       transform="translate(-7.2069713,-1.1631521)">
      <text
         xml:space="preserve"
         style="font-size:3.175px;line-height:0.95;font-family:'Gunny Rewritten';-inkscape-font-specification:'Gunny Rewritten';font-variant-ligatures:none;fill:#008000;stroke-width:0.264583"
         x="47.272804"
         y="9.0760136"
         id="text23"><tspan
           sodipodi:role="line"
           id="tspan23"
           x="47.272804"
           y="9.0760136">φ'=43</tspan></text>
      <text
         xml:space="preserve"
         style="font-size:1.47966px;line-height:0.95;font-family:'Gunny Rewritten';-inkscape-font-specification:'Gunny Rewritten';font-variant-ligatures:none;fill:#008000;stroke-width:0.264583"
         x="48.610313"
         y="9.8596144"
         id="text24"><tspan
           sodipodi:role="line"
           id="tspan24"
           style="fill:#008000;stroke-width:0.264583"
           x="48.610313"
           y="9.8596144">p</tspan></text>
      <text
         xml:space="preserve"
         style="font-size:1.58676px;line-height:0.95;font-family:'Gunny Rewritten';-inkscape-font-specification:'Gunny Rewritten';font-variant-ligatures:none;fill:#008000;stroke-width:0.264583"
         x="53.435249"
         y="7.1015821"
         id="text25"><tspan
           sodipodi:role="line"
           id="tspan25"
           style="fill:#008000;stroke-width:0.264583"
           x="53.435249"
           y="7.1015821">o</tspan></text>
    </g>
    <path class="Animate"
       id="path29"
       style="fill:#ff0000;stroke:#ff0000;stroke-width:0.165;stroke-linecap:round;stroke-miterlimit:4.1;paint-order:fill markers stroke"
       d="m 31.841901,15.221907 a 0.2964527,0.2964527 0 0 1 -0.296453,0.296453 0.2964527,0.2964527 0 0 1 -0.296452,-0.296453 0.2964527,0.2964527 0 0 1 0.296452,-0.296453 0.2964527,0.2964527 0 0 1 0.296453,0.296453 z" />
    <path class="Animate"
       id="path30"
       style="fill:#ff0000;stroke:#ff0000;stroke-width:0.165;stroke-linecap:round;stroke-miterlimit:4.1;paint-order:fill markers stroke"
       d="m 42.403294,5.7922297 a 0.2964527,0.2964527 0 0 1 -0.296452,0.296453 0.2964527,0.2964527 0 0 1 -0.296453,-0.296453 0.2964527,0.2964527 0 0 1 0.296453,-0.296453 0.2964527,0.2964527 0 0 1 0.296452,0.296453 z" />
    <path class="Animate"
       id="path28"
       style="fill:#ff0000;stroke:#ff0000;stroke-width:0.165;stroke-linecap:round;stroke-miterlimit:4.1;paint-order:fill markers stroke"
       d="m 23.043496,22.716552 a 0.2964527,0.2964527 0 0 1 -0.296453,0.296453 0.2964527,0.2964527 0 0 1 -0.296452,-0.296453 0.2964527,0.2964527 0 0 1 0.296452,-0.296453 0.2964527,0.2964527 0 0 1 0.296453,0.296453 z" />
    <path class="Animate"
       style="fill:none;stroke:#ff0000;stroke-width:0.264583px;stroke-linecap:butt;stroke-linejoin:miter;stroke-opacity:1"
       d="M 3.0101352,40.817897 45.836149,2.1624731"
       id="path31" />
    <text class="Animate"
       xml:space="preserve"
       style="font-size:3.175px;line-height:0.95;font-family:'Gunny Rewritten';-inkscape-font-specification:'Gunny Rewritten';font-variant-ligatures:none;white-space:pre;inline-size:12.8487;display:inline;fill:#ff0000;stroke-width:0.264583"
       x="9.5194273"
       y="21.914017"
       id="text31"
       transform="translate(-3.0988606,-5.0168919)"><tspan
         x="9.5194273"
         y="21.914017"
         id="tspan1">M.C. line for </tspan><tspan
         x="9.5194273"
         y="24.930267"
         id="tspan2">secant </tspan><tspan
         x="9.5194273"
         y="27.946517"
         id="tspan3">condition</tspan></text>
    <path class="Animate"
       style="fill:none;stroke:#000000;stroke-width:0.165;stroke-linecap:butt;stroke-linejoin:miter;stroke-opacity:1;stroke-dasharray:none;marker-end:url(#ArrowWide)"
       d="m 17.89864,19.027383 6.524502,2.462802"
       id="path32" />
    <path class="Animate"
       style="fill:none;stroke:#000000;stroke-width:0.264583px;stroke-linecap:butt;stroke-linejoin:miter;stroke-opacity:1"
       d="m 28.448719,17.856637 h 8.858713"
       id="path34" />
    <g class="Animate"
       id="g36">
      <text
         xml:space="preserve"
         style="font-size:3.175px;line-height:0.95;font-family:'Gunny Rewritten';-inkscape-font-specification:'Gunny Rewritten';font-variant-ligatures:none;fill:#ff0000;stroke-width:0.264583"
         x="33.407051"
         y="16.269037"
         id="text34"><tspan
           sodipodi:role="line"
           id="tspan34"
           x="33.407051"
           y="16.269037">φ'=42</tspan></text>
      <text
         xml:space="preserve"
         style="font-size:2.05566px;line-height:0.95;font-family:'Gunny Rewritten';-inkscape-font-specification:'Gunny Rewritten';font-variant-ligatures:none;fill:#ff0000;stroke-width:0.264583"
         x="34.81982"
         y="17.047012"
         id="text35"><tspan
           sodipodi:role="line"
           id="tspan35"
           style="fill:#ff0000;stroke-width:0.264583"
           x="34.81982"
           y="17.047012">s</tspan></text>
      <text
         xml:space="preserve"
         style="font-size:1.58676px;line-height:0.95;font-family:'Gunny Rewritten';-inkscape-font-specification:'Gunny Rewritten';font-variant-ligatures:none;fill:#ff0000;stroke-width:0.264583"
         x="39.569496"
         y="14.294605"
         id="text36"><tspan
           sodipodi:role="line"
           id="tspan36"
           style="fill:#ff0000;stroke-width:0.264583"
           x="39.569496"
           y="14.294605">o</tspan></text>
    </g>
  </g>
</svg>
