<?xml version="1.0" encoding="UTF-8" standalone="no"?>
<!-- Created with Inkscape (http://www.inkscape.org/) -->

<svg
   width="1.7846662in"
   height="1.7562948in"
   viewBox="0 0 45.330521 44.609889"
   version="1.1"
   id="svg1"
   inkscape:version="1.4.2 (f4327f4, 2025-05-13)"
   sodipodi:docname="flow_curve.svg"
   xml:space="preserve"
   xmlns:inkscape="http://www.inkscape.org/namespaces/inkscape"
   xmlns:sodipodi="http://sodipodi.sourceforge.net/DTD/sodipodi-0.dtd"
   xmlns="http://www.w3.org/2000/svg"
   xmlns:svg="http://www.w3.org/2000/svg"
   xmlns:ns2="http://www.iki.fi/pav/software/textext/"><sodipodi:namedview
     id="namedview1"
     pagecolor="#ffffff"
     bordercolor="#000000"
     borderopacity="0.25"
     inkscape:showpageshadow="2"
     inkscape:pageopacity="0.0"
     inkscape:pagecheckerboard="0"
     inkscape:deskcolor="#d1d1d1"
     inkscape:document-units="mm"
     inkscape:zoom="2.5222324"
     inkscape:cx="7.9294833"
     inkscape:cy="114.77927"
     inkscape:current-layer="layer1" /><defs
     id="defs1"><marker
       style="overflow:visible"
       id="marker79"
       refX="0"
       refY="0"
       orient="auto-start-reverse"
       inkscape:stockid="Wide arrow"
       markerWidth="1"
       markerHeight="1"
       viewBox="0 0 1 1"
       inkscape:isstock="true"
       inkscape:collect="always"
       preserveAspectRatio="xMidYMid"><path
         style="fill:none;stroke:context-stroke;stroke-width:1;stroke-linecap:butt"
         d="M 3,-3 0,0 3,3"
         transform="rotate(180,0.125,0)"
         sodipodi:nodetypes="ccc"
         id="path79" /></marker><marker
       style="overflow:visible"
       id="Stop"
       refX="0"
       refY="0"
       orient="auto"
       inkscape:stockid="Stop"
       markerWidth="1"
       markerHeight="1"
       viewBox="0 0 1 1"
       inkscape:isstock="true"
       inkscape:collect="always"
       preserveAspectRatio="xMidYMid"><path
         style="fill:none;stroke:context-stroke;stroke-width:1"
         d="M 0,4 V -4"
         id="path78" /></marker><marker
       style="overflow:visible"
       id="X"
       refX="0"
       refY="0"
       orient="auto"
       inkscape:stockid="X"
       markerWidth="1"
       markerHeight="1"
       viewBox="0 0 1 1"
       inkscape:isstock="true"
       inkscape:collect="always"
       preserveAspectRatio="xMidYMid"><path
         style="fill:none;stroke:context-stroke;stroke-width:1"
         d="M -3,3 3,-3 M 3,3 -3,-3"
         id="path77" /></marker><marker
       style="overflow:visible"
       id="ArrowWide"
       refX="0"
       refY="0"
       orient="auto-start-reverse"
       inkscape:stockid="Wide arrow"
       markerWidth="1"
       markerHeight="1"
       viewBox="0 0 1 1"
       inkscape:isstock="true"
       inkscape:collect="always"
       preserveAspectRatio="xMidYMid"><path
         style="fill:none;stroke:context-stroke;stroke-width:1;stroke-linecap:butt"
         d="M 3,-3 0,0 3,3"
         transform="rotate(180,0.125,0)"
         sodipodi:nodetypes="ccc"
         id="path63" /></marker></defs><g
     inkscape:label="Layer 1"
     inkscape:groupmode="layer"
     id="layer1"
     transform="translate(-0.25053083)"><text
       xml:space="preserve"
       style="font-size:2.82223px;line-height:0.8;font-family:Arial;-inkscape-font-specification:Arial;text-align:start;writing-mode:lr-tb;direction:ltr;text-anchor:start;fill:#000000;fill-rule:evenodd;stroke:none;stroke-width:0.290999;stroke-dasharray:none"
       x="25.516483"
       y="45.358517"
       id="text71"><tspan
         sodipodi:role="line"
         id="tspan71"
         style="fill:#000000;stroke:none;stroke-width:0.291"
         x="25.516483"
         y="45.358517" /></text><g
       id="g76"
       transform="translate(0,-3.4149396)"><rect
         style="fill:none;fill-rule:evenodd;stroke:#000000;stroke-width:0.291;stroke-dasharray:none"
         id="rect1"
         width="37.31044"
         height="38.47871"
         x="6.7500005"
         y="3.5604396" /><path
         style="fill:none;fill-rule:evenodd;stroke:#cccccc;stroke-width:0.191;stroke-dasharray:none"
         d="M 6.7685437,39.888048 H 44.126323"
         id="path1" /><path
         style="fill:none;fill-rule:evenodd;stroke:#cccccc;stroke-width:0.191;stroke-dasharray:none"
         d="M 6.7685437,37.753175 H 44.126323"
         id="path3" /><path
         style="fill:none;fill-rule:evenodd;stroke:#cccccc;stroke-width:0.191;stroke-dasharray:none"
         d="M 6.7685437,35.618302 H 44.126323"
         id="path4" /><path
         style="fill:none;fill-rule:evenodd;stroke:#cccccc;stroke-width:0.191;stroke-dasharray:none"
         d="M 6.7685437,33.483429 H 44.126323"
         id="path5" /><path
         style="fill:none;fill-rule:evenodd;stroke:#cccccc;stroke-width:0.191;stroke-dasharray:none"
         d="M 6.7685437,31.348556 H 44.126323"
         id="path6" /><path
         style="fill:none;fill-rule:evenodd;stroke:#cccccc;stroke-width:0.191;stroke-dasharray:none"
         d="M 6.7685437,29.213683 H 44.126323"
         id="path7" /><path
         style="fill:none;fill-rule:evenodd;stroke:#cccccc;stroke-width:0.191;stroke-dasharray:none"
         d="M 6.7685437,27.07881 H 44.126323"
         id="path8" /><path
         style="fill:none;fill-rule:evenodd;stroke:#cccccc;stroke-width:0.191;stroke-dasharray:none"
         d="M 6.7685437,24.943937 H 44.126323"
         id="path9" /><path
         style="fill:none;fill-rule:evenodd;stroke:#cccccc;stroke-width:0.191;stroke-dasharray:none"
         d="M 6.7685437,22.809064 H 44.126323"
         id="path10" /><path
         style="fill:none;fill-rule:evenodd;stroke:#cccccc;stroke-width:0.191;stroke-dasharray:none"
         d="M 6.7685437,20.674192 H 44.126323"
         id="path11" /><path
         style="fill:none;fill-rule:evenodd;stroke:#cccccc;stroke-width:0.191;stroke-dasharray:none"
         d="M 6.7685437,18.539319 H 44.126323"
         id="path12" /><path
         style="fill:none;fill-rule:evenodd;stroke:#cccccc;stroke-width:0.191;stroke-dasharray:none"
         d="M 6.7685437,16.404446 H 44.126323"
         id="path13" /><path
         style="fill:none;fill-rule:evenodd;stroke:#cccccc;stroke-width:0.191;stroke-dasharray:none"
         d="M 6.7685437,14.269573 H 44.126323"
         id="path14" /><path
         style="fill:none;fill-rule:evenodd;stroke:#cccccc;stroke-width:0.191;stroke-dasharray:none"
         d="M 6.7685437,12.1347 H 44.126323"
         id="path15" /><path
         style="fill:none;fill-rule:evenodd;stroke:#cccccc;stroke-width:0.191;stroke-dasharray:none"
         d="M 6.7685437,9.9998268 H 44.126323"
         id="path16" /><path
         style="fill:none;fill-rule:evenodd;stroke:#cccccc;stroke-width:0.191;stroke-dasharray:none"
         d="M 6.7685437,7.8649538 H 44.126323"
         id="path17" /><path
         style="fill:none;fill-rule:evenodd;stroke:#cccccc;stroke-width:0.191;stroke-dasharray:none"
         d="M 6.7685437,5.7300809 H 44.126323"
         id="path2" /><path
         style="fill:none;fill-rule:evenodd;stroke:#cccccc;stroke-width:0.191;stroke-dasharray:none"
         d="M 8.9715585,42.058526 V 3.6190658"
         id="path18" /><path
         style="fill:none;fill-rule:evenodd;stroke:#cccccc;stroke-width:0.191;stroke-dasharray:none"
         d="M 10.820429,42.058526 V 3.6190658"
         id="path20" /><path
         style="fill:none;fill-rule:evenodd;stroke:#cccccc;stroke-width:0.191;stroke-dasharray:none"
         d="M 12.826651,42.058526 V 3.6190658"
         id="path21" /><path
         style="fill:none;fill-rule:evenodd;stroke:#cccccc;stroke-width:0.191;stroke-dasharray:none"
         d="M 14.596846,42.058526 V 3.6190658"
         id="path22" /><path
         style="fill:none;fill-rule:evenodd;stroke:#cccccc;stroke-width:0.191;stroke-dasharray:none"
         d="M 16.419491,42.058526 V 3.6190658"
         id="path23" /><path
         style="fill:none;fill-rule:evenodd;stroke:#cccccc;stroke-width:0.191;stroke-dasharray:none"
         d="M 17.678297,42.058526 V 3.6190658"
         id="path24" /><path
         style="fill:none;fill-rule:evenodd;stroke:#cccccc;stroke-width:0.191;stroke-dasharray:none"
         d="M 19.251804,42.058526 V 3.6190658"
         id="path25" /><path
         style="fill:none;fill-rule:evenodd;stroke:#cccccc;stroke-width:0.191;stroke-dasharray:none"
         d="M 20.340146,42.058526 V 3.6190658"
         id="path26" /><path
         style="fill:none;fill-rule:evenodd;stroke:#cccccc;stroke-width:0.191;stroke-dasharray:none"
         d="M 21.572726,42.058526 V 3.6190658"
         id="path27" /><path
         style="fill:none;fill-rule:evenodd;stroke:#cccccc;stroke-width:0.191;stroke-dasharray:none"
         d="M 22.805307,42.058526 V 3.6190658"
         id="path28" /><path
         style="fill:none;fill-rule:evenodd;stroke:#cccccc;stroke-width:0.191;stroke-dasharray:none"
         d="M 23.841199,42.058526 V 3.6190658"
         id="path29" /><path
         style="fill:none;fill-rule:evenodd;stroke:#cccccc;stroke-width:0.191;stroke-dasharray:none"
         d="M 25.060667,42.058526 V 3.6190658"
         id="path30" /><path
         style="fill:none;fill-rule:evenodd;stroke:#cccccc;stroke-width:0.191;stroke-dasharray:none"
         d="M 26.122784,42.058526 V 3.6190658"
         id="path31" /><path
         style="fill:none;fill-rule:evenodd;stroke:#cccccc;stroke-width:0.191;stroke-dasharray:none"
         d="M 27.171788,42.058526 V 3.6190658"
         id="path32" /><path
         style="fill:none;fill-rule:evenodd;stroke:#cccccc;stroke-width:0.191;stroke-dasharray:none"
         d="M 28.05033,42.058526 V 3.6190658"
         id="path33" /><path
         style="fill:none;fill-rule:evenodd;stroke:#cccccc;stroke-width:0.191;stroke-dasharray:none"
         d="M 29.033771,42.058526 V 3.6190658"
         id="path34" /><path
         style="fill:none;fill-rule:evenodd;stroke:#cccccc;stroke-width:0.191;stroke-dasharray:none"
         d="M 29.8992,42.058526 V 3.6190658"
         id="path35" /><path
         style="fill:none;fill-rule:evenodd;stroke:#cccccc;stroke-width:0.191;stroke-dasharray:none"
         d="M 30.594166,42.058526 V 3.6190658"
         id="path36" /><path
         style="fill:none;fill-rule:evenodd;stroke:#cccccc;stroke-width:0.191;stroke-dasharray:none"
         d="M 31.354694,42.058526 V 3.6190658"
         id="path37" /><path
         style="fill:none;fill-rule:evenodd;stroke:#cccccc;stroke-width:0.191;stroke-dasharray:none"
         d="M 32.20701,42.058526 V 3.6190658"
         id="path38" /><path
         style="fill:none;fill-rule:evenodd;stroke:#cccccc;stroke-width:0.191;stroke-dasharray:none"
         d="M 32.967538,42.058526 V 3.6190658"
         id="path39" /><path
         style="fill:none;fill-rule:evenodd;stroke:#cccccc;stroke-width:0.191;stroke-dasharray:none"
         d="M 33.859192,42.058526 V 3.6190658"
         id="path40" /><path
         style="fill:none;fill-rule:evenodd;stroke:#cccccc;stroke-width:0.191;stroke-dasharray:none"
         d="M 34.593496,42.058526 V 3.6190658"
         id="path41" /><path
         style="fill:none;fill-rule:evenodd;stroke:#cccccc;stroke-width:0.191;stroke-dasharray:none"
         d="M 35.236011,42.058526 V 3.6190658"
         id="path42" /><path
         style="fill:none;fill-rule:evenodd;stroke:#cccccc;stroke-width:0.191;stroke-dasharray:none"
         d="M 35.852301,42.058526 V 3.6190658"
         id="path43" /><path
         style="fill:none;fill-rule:evenodd;stroke:#cccccc;stroke-width:0.191;stroke-dasharray:none"
         d="M 36.586604,42.058526 V 3.6190658"
         id="path44" /><path
         style="fill:none;fill-rule:evenodd;stroke:#cccccc;stroke-width:0.191;stroke-dasharray:none"
         d="M 37.373358,42.058526 V 3.6190658"
         id="path45" /><path
         style="fill:none;fill-rule:evenodd;stroke:#cccccc;stroke-width:0.191;stroke-dasharray:none"
         d="M 37.976535,42.058526 V 3.6190658"
         id="path46" /><path
         style="fill:none;fill-rule:evenodd;stroke:#cccccc;stroke-width:0.191;stroke-dasharray:none"
         d="M 38.645276,42.058526 V 3.6190658"
         id="path47" /><path
         style="fill:none;fill-rule:evenodd;stroke:#cccccc;stroke-width:0.191;stroke-dasharray:none"
         d="M 39.314016,42.058526 V 3.6190658"
         id="path48" /><path
         style="fill:none;fill-rule:evenodd;stroke:#cccccc;stroke-width:0.191;stroke-dasharray:none"
         d="M 39.890969,42.058526 V 3.6190658"
         id="path49" /><path
         style="fill:none;fill-rule:evenodd;stroke:#cccccc;stroke-width:0.191;stroke-dasharray:none"
         d="M 40.441696,42.058526 V 3.6190658"
         id="path50" /><path
         style="fill:none;fill-rule:evenodd;stroke:#cccccc;stroke-width:0.191;stroke-dasharray:none"
         d="M 40.730172,42.058526 V 3.6190658"
         id="path51" /><path
         style="fill:none;fill-rule:evenodd;stroke:#cccccc;stroke-width:0.191;stroke-dasharray:none"
         d="M 41.294012,42.058526 V 3.6190658"
         id="path52" /><path
         style="fill:none;fill-rule:evenodd;stroke:#cccccc;stroke-width:0.191;stroke-dasharray:none"
         d="M 41.818515,42.058526 V 3.6190658"
         id="path53" /><path
         style="fill:none;fill-rule:evenodd;stroke:#cccccc;stroke-width:0.191;stroke-dasharray:none"
         d="M 42.343017,42.058526 V 3.6190658"
         id="path54" /><path
         style="fill:none;fill-rule:evenodd;stroke:#cccccc;stroke-width:0.191;stroke-dasharray:none"
         d="M 42.893744,42.058526 V 3.6190658"
         id="path55" /><path
         style="fill:none;fill-rule:evenodd;stroke:#cccccc;stroke-width:0.191;stroke-dasharray:none"
         d="M 43.444472,42.058526 V 3.6190658"
         id="path19" /><g
         id="g56"
         transform="translate(9.0774297,13.566978)"><circle
           style="fill:none;fill-rule:evenodd;stroke:#008000;stroke-width:0.191;stroke-dasharray:none"
           id="path56"
           cx="4.5435009"
           cy="-4.0189986"
           r="0.57039618" /><circle
           style="fill:#008000;fill-rule:evenodd;stroke:#008000;stroke-width:0.191;stroke-dasharray:none"
           id="circle56"
           cx="4.5435009"
           cy="-4.0189986"
           r="0.2374481" /></g><path
         style="fill:#008000;fill-rule:evenodd;stroke:#ff0000;stroke-width:0.291;stroke-dasharray:none"
         d="M 11.161356,5.0352219 43.103544,35.771055"
         id="path57" /><g
         id="g60"
         transform="translate(18.990523,20.070806)"><circle
           style="fill:none;fill-rule:evenodd;stroke:#008000;stroke-width:0.191;stroke-dasharray:none"
           id="circle59"
           cx="4.5435009"
           cy="-4.0189986"
           r="0.57039618" /><circle
           style="fill:#008000;fill-rule:evenodd;stroke:#008000;stroke-width:0.191;stroke-dasharray:none"
           id="circle60"
           cx="4.5435009"
           cy="-4.0189986"
           r="0.2374481" /></g><g
         id="g62"
         transform="translate(25.1272,28.515293)"><circle
           style="fill:none;fill-rule:evenodd;stroke:#008000;stroke-width:0.191;stroke-dasharray:none"
           id="circle61"
           cx="4.5435009"
           cy="-4.0189986"
           r="0.57039618" /><circle
           style="fill:#008000;fill-rule:evenodd;stroke:#008000;stroke-width:0.191;stroke-dasharray:none"
           id="circle62"
           cx="4.5435009"
           cy="-4.0189986"
           r="0.2374481" /></g><g
         id="g58"
         transform="translate(35.407445,36.015676)"><circle
           style="fill:none;fill-rule:evenodd;stroke:#008000;stroke-width:0.191;stroke-dasharray:none"
           id="circle57"
           cx="4.5435009"
           cy="-4.0189986"
           r="0.57039618" /><circle
           style="fill:#008000;fill-rule:evenodd;stroke:#008000;stroke-width:0.191;stroke-dasharray:none"
           id="circle58"
           cx="4.5435009"
           cy="-4.0189986"
           r="0.2374481" /></g><text
         xml:space="preserve"
         style="font-size:2.82223px;line-height:0.8;font-family:Arial;-inkscape-font-specification:Arial;text-align:start;writing-mode:lr-tb;direction:ltr;text-anchor:start;fill:#ff0000;fill-rule:evenodd;stroke:none;stroke-width:0.290999;stroke-dasharray:none"
         x="32.084538"
         y="23.327206"
         id="text62"><tspan
           sodipodi:role="line"
           id="tspan62"
           style="fill:#ff0000;stroke:none;stroke-width:0.291"
           x="32.084538"
           y="23.327206">Best fit</tspan></text><path
         style="fill:#ff0000;fill-rule:evenodd;stroke:#000000;stroke-width:0.290999;stroke-dasharray:none;marker-end:url(#ArrowWide)"
         d="M 32.023435,22.448698 H 29.374696"
         id="path62" /><text
         xml:space="preserve"
         style="font-size:2.82223px;line-height:0.8;font-family:Arial;-inkscape-font-specification:Arial;text-align:start;writing-mode:lr-tb;direction:ltr;text-anchor:start;fill:#000000;fill-rule:evenodd;stroke:none;stroke-width:0.290999;stroke-dasharray:none"
         x="3.0226648"
         y="42.89217"
         id="text63"><tspan
           sodipodi:role="line"
           id="tspan63"
           style="fill:#000000;stroke:none;stroke-width:0.291"
           x="3.0226648"
           y="42.89217">15</tspan></text><text
         xml:space="preserve"
         style="font-size:2.82223px;line-height:0.8;font-family:Arial;-inkscape-font-specification:Arial;text-align:start;writing-mode:lr-tb;direction:ltr;text-anchor:start;fill:#000000;fill-rule:evenodd;stroke:none;stroke-width:0.290999;stroke-dasharray:none"
         x="3.0226648"
         y="32.655907"
         id="text64"><tspan
           sodipodi:role="line"
           id="tspan64"
           style="fill:#000000;stroke:none;stroke-width:0.291"
           x="3.0226648"
           y="32.655907">20</tspan></text><text
         xml:space="preserve"
         style="font-size:2.82223px;line-height:0.8;font-family:Arial;-inkscape-font-specification:Arial;text-align:start;writing-mode:lr-tb;direction:ltr;text-anchor:start;fill:#000000;fill-rule:evenodd;stroke:none;stroke-width:0.290999;stroke-dasharray:none"
         x="3.0226648"
         y="21.75206"
         id="text65"><tspan
           sodipodi:role="line"
           id="tspan65"
           style="fill:#000000;stroke:none;stroke-width:0.291"
           x="3.0226648"
           y="21.75206">30</tspan></text><text
         xml:space="preserve"
         style="font-size:2.82223px;line-height:0.8;font-family:Arial;-inkscape-font-specification:Arial;text-align:start;writing-mode:lr-tb;direction:ltr;text-anchor:start;fill:#000000;fill-rule:evenodd;stroke:none;stroke-width:0.290999;stroke-dasharray:none"
         x="3.0226648"
         y="11.070742"
         id="text66"><tspan
           sodipodi:role="line"
           id="tspan66"
           style="fill:#000000;stroke:none;stroke-width:0.291"
           x="3.0226648"
           y="11.070742">40</tspan></text><text
         xml:space="preserve"
         style="font-size:2.82223px;line-height:0.8;font-family:Arial;-inkscape-font-specification:Arial;text-align:start;writing-mode:lr-tb;direction:ltr;text-anchor:start;fill:#000000;fill-rule:evenodd;stroke:none;stroke-width:0.290999;stroke-dasharray:none"
         x="5.1181321"
         y="45.358517"
         id="text67"><tspan
           sodipodi:role="line"
           id="tspan67"
           style="fill:#000000;stroke:none;stroke-width:0.291"
           x="5.1181321"
           y="45.358517">10</tspan></text><text
         xml:space="preserve"
         style="font-size:2.82223px;line-height:0.8;font-family:Arial;-inkscape-font-specification:Arial;text-align:start;writing-mode:lr-tb;direction:ltr;text-anchor:start;fill:#000000;fill-rule:evenodd;stroke:none;stroke-width:0.290999;stroke-dasharray:none"
         x="14.983517"
         y="45.358517"
         id="text69"><tspan
           sodipodi:role="line"
           id="tspan69"
           style="fill:#000000;stroke:none;stroke-width:0.291"
           x="14.983517"
           y="45.358517">15</tspan></text><text
         xml:space="preserve"
         style="font-size:2.82223px;line-height:0.8;font-family:Arial;-inkscape-font-specification:Arial;text-align:start;writing-mode:lr-tb;direction:ltr;text-anchor:start;fill:#000000;fill-rule:evenodd;stroke:none;stroke-width:0.290999;stroke-dasharray:none"
         x="21.214287"
         y="45.358517"
         id="text70"><tspan
           sodipodi:role="line"
           id="tspan70"
           style="fill:#000000;stroke:none;stroke-width:0.291"
           x="21.214287"
           y="45.358517">20</tspan></text><text
         xml:space="preserve"
         style="font-size:2.82223px;line-height:0.8;font-family:Arial;-inkscape-font-specification:Arial;text-align:start;writing-mode:lr-tb;direction:ltr;text-anchor:start;fill:#000000;fill-rule:evenodd;stroke:none;stroke-width:0.290999;stroke-dasharray:none"
         x="30.412088"
         y="45.358517"
         id="text72"><tspan
           sodipodi:role="line"
           id="tspan72"
           style="fill:#000000;stroke:none;stroke-width:0.291"
           x="30.412088"
           y="45.358517">30</tspan></text><text
         xml:space="preserve"
         style="font-size:2.82223px;line-height:0.8;font-family:Arial;-inkscape-font-specification:Arial;text-align:start;writing-mode:lr-tb;direction:ltr;text-anchor:start;fill:#000000;fill-rule:evenodd;stroke:none;stroke-width:0.290999;stroke-dasharray:none"
         x="37.60714"
         y="45.358517"
         id="text74"><tspan
           sodipodi:role="line"
           id="tspan74"
           style="fill:#000000;stroke:none;stroke-width:0.291"
           x="37.60714"
           y="45.358517">40</tspan></text><text
         xml:space="preserve"
         style="font-size:2.82223px;line-height:0.8;font-family:Arial;-inkscape-font-specification:Arial;text-align:start;writing-mode:lr-tb;direction:ltr;text-anchor:start;fill:#000000;fill-rule:evenodd;stroke:none;stroke-width:0.290999;stroke-dasharray:none"
         x="42.57692"
         y="45.358517"
         id="text68"><tspan
           sodipodi:role="line"
           id="tspan68"
           style="fill:#000000;stroke:none;stroke-width:0.291"
           x="42.57692"
           y="45.358517">50</tspan></text><text
         xml:space="preserve"
         style="font-size:2.82223px;line-height:0.8;font-family:Arial;-inkscape-font-specification:Arial;text-align:start;writing-mode:lr-tb;direction:ltr;text-anchor:start;fill:#000000;fill-rule:evenodd;stroke:none;stroke-width:0.290999;stroke-dasharray:none"
         x="15.206045"
         y="47.991756"
         id="text75"><tspan
           sodipodi:role="line"
           id="tspan75"
           style="stroke-width:0.291"
           x="15.206045"
           y="47.991756">Number of blows</tspan></text><text
         xml:space="preserve"
         style="font-size:2.82223px;line-height:0.8;font-family:Arial;-inkscape-font-specification:Arial;text-align:start;writing-mode:lr-tb;direction:ltr;text-anchor:start;fill:#000000;fill-rule:evenodd;stroke:none;stroke-width:0.290999;stroke-dasharray:none"
         x="-34.92371"
         y="2.3051915"
         id="text76"
         transform="rotate(-90)"><tspan
           sodipodi:role="line"
           id="tspan76"
           style="stroke-width:0.291"
           x="-34.92371"
           y="2.3051915">Water content (%)</tspan></text></g>
        <path class="Animate"
       style="fill:none;fill-rule:evenodd;stroke:#000080;stroke-width:0.290999;stroke-dasharray:none;marker-start:url(#X);marker-mid:url(#Stop);marker-end:url(#marker79)"
       d="M 28.050331,38.643586 V 17.871413 H 6.7500004"
       id="path76" /><g
       class="Animate"
       id="g7858"
       transform="matrix(0.352778,0,0,0.352778,14.635807,15.0618)"
       ns2:version="1.12.0"
       ns2:texconverter="pdflatex"
       ns2:pdfconverter="inkscape"
       ns2:text="$LL$"
       ns2:preamble="C:\Users\zamcr\AppData\Roaming\inkscape\extensions\textext\default_packages.tex"
       ns2:scale="1.0"
       ns2:alignment="middle center"
       ns2:inkscapeversion="1.4.2"
       ns2:jacobian_sqrt="0.352778"
       style="fill:#000080"><defs
   id="defs9026">
    <g
   id="g3009">
      <g
   id="g4452">
        <path
   d="M 3.734375,-6.03125 C 3.8125,-6.390625 3.84375,-6.5 4.78125,-6.5 c 0.296875,0 0.375,0 0.375,-0.1875 0,-0.125 -0.109375,-0.125 -0.15625,-0.125 -0.328125,0 -1.140625,0.03125 -1.46875,0.03125 -0.296875,0 -1.03125,-0.03125 -1.328125,-0.03125 -0.0625,0 -0.1875,0 -0.1875,0.203125 0,0.109375 0.09375,0.109375 0.28125,0.109375 0.015625,0 0.203125,0 0.375,0.015625 0.171875,0.03125 0.265625,0.03125 0.265625,0.171875 0,0.03125 0,0.0625 -0.03125,0.1875 L 1.5625,-0.78125 c -0.09375,0.390625 -0.109375,0.46875 -0.90625,0.46875 -0.171875,0 -0.265625,0 -0.265625,0.203125 C 0.390625,0 0.484375,0 0.65625,0 h 4.625 C 5.515625,0 5.515625,0 5.578125,-0.171875 L 6.375,-2.328125 c 0.03125,-0.109375 0.03125,-0.125 0.03125,-0.140625 0,-0.03125 -0.03125,-0.109375 -0.109375,-0.109375 -0.09375,0 -0.109375,0.0625 -0.171875,0.21875 -0.34375,0.90625 -0.78125,2.046875 -2.5,2.046875 H 2.6875 c -0.140625,0 -0.171875,0 -0.21875,0 -0.109375,-0.015625 -0.140625,-0.03125 -0.140625,-0.109375 0,-0.03125 0,-0.046875 0.046875,-0.21875 z m 0,0"
   id="path8115" />
      </g>
    </g>
  </defs>
  <g
   fill="#000000"
   fill-opacity="1"
   id="g165"
   transform="translate(-149.103,-127.953)"
   style="fill:#000080">
    <g
   transform="translate(148.712,134.765)"
   id="g6708"
   style="fill:#000080"><path
   d="M 3.734375,-6.03125 C 3.8125,-6.390625 3.84375,-6.5 4.78125,-6.5 c 0.296875,0 0.375,0 0.375,-0.1875 0,-0.125 -0.109375,-0.125 -0.15625,-0.125 -0.328125,0 -1.140625,0.03125 -1.46875,0.03125 -0.296875,0 -1.03125,-0.03125 -1.328125,-0.03125 -0.0625,0 -0.1875,0 -0.1875,0.203125 0,0.109375 0.09375,0.109375 0.28125,0.109375 0.015625,0 0.203125,0 0.375,0.015625 0.171875,0.03125 0.265625,0.03125 0.265625,0.171875 0,0.03125 0,0.0625 -0.03125,0.1875 L 1.5625,-0.78125 c -0.09375,0.390625 -0.109375,0.46875 -0.90625,0.46875 -0.171875,0 -0.265625,0 -0.265625,0.203125 C 0.390625,0 0.484375,0 0.65625,0 h 4.625 C 5.515625,0 5.515625,0 5.578125,-0.171875 L 6.375,-2.328125 c 0.03125,-0.109375 0.03125,-0.125 0.03125,-0.140625 0,-0.03125 -0.03125,-0.109375 -0.109375,-0.109375 -0.09375,0 -0.109375,0.0625 -0.171875,0.21875 -0.34375,0.90625 -0.78125,2.046875 -2.5,2.046875 H 2.6875 c -0.140625,0 -0.171875,0 -0.21875,0 -0.109375,-0.015625 -0.140625,-0.03125 -0.140625,-0.109375 0,-0.03125 0,-0.046875 0.046875,-0.21875 z m 0,0"
   id="path1067"
   style="fill:#000080" />
      </g><g
   transform="translate(155.493,134.765)"
   id="g7275"
   style="fill:#000080"><path
   d="M 3.734375,-6.03125 C 3.8125,-6.390625 3.84375,-6.5 4.78125,-6.5 c 0.296875,0 0.375,0 0.375,-0.1875 0,-0.125 -0.109375,-0.125 -0.15625,-0.125 -0.328125,0 -1.140625,0.03125 -1.46875,0.03125 -0.296875,0 -1.03125,-0.03125 -1.328125,-0.03125 -0.0625,0 -0.1875,0 -0.1875,0.203125 0,0.109375 0.09375,0.109375 0.28125,0.109375 0.015625,0 0.203125,0 0.375,0.015625 0.171875,0.03125 0.265625,0.03125 0.265625,0.171875 0,0.03125 0,0.0625 -0.03125,0.1875 L 1.5625,-0.78125 c -0.09375,0.390625 -0.109375,0.46875 -0.90625,0.46875 -0.171875,0 -0.265625,0 -0.265625,0.203125 C 0.390625,0 0.484375,0 0.65625,0 h 4.625 C 5.515625,0 5.515625,0 5.578125,-0.171875 L 6.375,-2.328125 c 0.03125,-0.109375 0.03125,-0.125 0.03125,-0.140625 0,-0.03125 -0.03125,-0.109375 -0.109375,-0.109375 -0.09375,0 -0.109375,0.0625 -0.171875,0.21875 -0.34375,0.90625 -0.78125,2.046875 -2.5,2.046875 H 2.6875 c -0.140625,0 -0.171875,0 -0.21875,0 -0.109375,-0.015625 -0.140625,-0.03125 -0.140625,-0.109375 0,-0.03125 0,-0.046875 0.046875,-0.21875 z m 0,0"
   id="path1313"
   style="fill:#000080" />
      </g></g>
</g><text
       xml:space="preserve"
       style="font-size:2.82223px;line-height:0.8;font-family:Arial;-inkscape-font-specification:Arial;text-align:start;writing-mode:lr-tb;direction:ltr;text-anchor:start;fill:#000000;fill-rule:evenodd;stroke:none;stroke-width:0.290999;stroke-dasharray:none"
       x="7.7771382"
       y="36.488396"
       id="text79"><tspan
         sodipodi:role="line"
         id="tspan79"
         style="fill:#000000;stroke:none;stroke-width:0.291"
         x="7.7771382"
         y="36.488396">Semilog plot</tspan></text><path
       style="fill:#000000;fill-rule:evenodd;stroke:#000000;stroke-width:0.290999;stroke-dasharray:none"
       d="m 20.340146,36.837569 0.967047,1.786642"
       id="path80" /><text
       xml:space="preserve"
       style="font-size:2.82223px;line-height:0.8;font-family:Arial;-inkscape-font-specification:Arial;text-align:start;writing-mode:lr-tb;direction:ltr;text-anchor:start;fill:#000000;fill-rule:evenodd;stroke:none;stroke-width:0.290999;stroke-dasharray:none"
       x="18.254744"
       y="3.3252461"
       id="text80"><tspan
         sodipodi:role="line"
         id="tspan80"
         style="fill:#000000;stroke:none;stroke-width:0.291"
         x="18.254744"
         y="3.3252461">Flow Curve</tspan></text></g></svg>
