<?xml version="1.0" encoding="UTF-8" standalone="no"?>
<svg
   height="195.95723pt"
   version="1.1"
   viewBox="0 0 209.61577 195.95723"
   width="209.61577pt"
   id="svg344"
   sodipodi:docname="P5.svg"
   inkscape:version="1.1.1 (3bf5ae0d25, 2021-09-20)"
   inkscape:export-filename="C:\Users\$r.984804\OneDrive - University of Maine System\UMaine_docs\Courses\CIE365 Soil Mechanics\CIE365-Soil-mechanics\grain_size\P5.png"
   inkscape:export-xdpi="300"
   inkscape:export-ydpi="300"
   xmlns:inkscape="http://www.inkscape.org/namespaces/inkscape"
   xmlns:sodipodi="http://sodipodi.sourceforge.net/DTD/sodipodi-0.dtd"
   xmlns:xlink="http://www.w3.org/1999/xlink"
   xmlns="http://www.w3.org/2000/svg"
   xmlns:svg="http://www.w3.org/2000/svg"
   xmlns:rdf="http://www.w3.org/1999/02/22-rdf-syntax-ns#"
   xmlns:cc="http://creativecommons.org/ns#"
   xmlns:dc="http://purl.org/dc/elements/1.1/">
  <sodipodi:namedview
     id="namedview346"
     pagecolor="#505050"
     bordercolor="#ffffff"
     borderopacity="1"
     inkscape:pageshadow="0"
     inkscape:pageopacity="0"
     inkscape:pagecheckerboard="1"
     inkscape:document-units="pt"
     showgrid="false"
     inkscape:zoom="2.8194444"
     inkscape:cx="156.59113"
     inkscape:cy="138.50246"
     inkscape:window-width="2400"
     inkscape:window-height="1271"
     inkscape:window-x="-5"
     inkscape:window-y="-9"
     inkscape:window-maximized="1"
     inkscape:current-layer="svg344" />
  <metadata
     id="metadata2">
    <rdf:RDF>
      <cc:Work>
        <dc:type
           rdf:resource="http://purl.org/dc/dcmitype/StillImage" />
        <dc:date>2022-02-14T06:00:29.939628</dc:date>
        <dc:format>image/svg+xml</dc:format>
        <dc:creator>
          <cc:Agent>
            <dc:title>Matplotlib v3.4.3, https://matplotlib.org/</dc:title>
          </cc:Agent>
        </dc:creator>
      </cc:Work>
    </rdf:RDF>
  </metadata>
  <defs
     id="defs6">
    <marker
       style="overflow:visible;"
       id="Arrow1Mend"
       refX="0.0"
       refY="0.0"
       orient="auto"
       inkscape:stockid="Arrow1Mend"
       inkscape:isstock="true">
      <path
         transform="scale(0.4) rotate(180) translate(10,0)"
         style="fill-rule:evenodd;fill:context-stroke;stroke:context-stroke;stroke-width:1.0pt;"
         d="M 0.0,0.0 L 5.0,-5.0 L -12.5,0.0 L 5.0,5.0 L 0.0,0.0 z "
         id="path1787" />
    </marker>
    <marker
       style="overflow:visible"
       id="Arrow1Lstart"
       refX="0.0"
       refY="0.0"
       orient="auto"
       inkscape:stockid="Arrow1Lstart"
       inkscape:isstock="true">
      <path
         transform="scale(0.8) translate(12.5,0)"
         style="fill-rule:evenodd;fill:context-stroke;stroke:context-stroke;stroke-width:1.0pt"
         d="M 0.0,0.0 L 5.0,-5.0 L -12.5,0.0 L 5.0,5.0 L 0.0,0.0 z "
         id="path1778" />
    </marker>
    <style
       type="text/css"
       id="style4">*{stroke-linecap:butt;stroke-linejoin:round;}</style>
  </defs>
  <rect
     style="fill:#ffffff;stroke:none;stroke-width:1.88504;stroke-linecap:round;stroke-linejoin:round"
     id="rect1656"
     width="209.61577"
     height="195.95723"
     x="4.4408921e-16"
     y="-3.5527137e-15"
     rx="3.621501e-06" />
  <g
     id="axes_1"
     transform="translate(11.145591,-21.106827)">
    <g
       id="patch_2">
      <path
         d="m 27,189 h 167.4 v -163.08 h -167.4 z"
         style="fill:#ffffff"
         id="path11" />
    </g>
    <g
       id="matplotlib.axis_1">
      <g
         id="xtick_1">
        <g
           id="line2d_1">
          <defs
             id="defs15">
            <path
               d="m 0,0 v 3.5"
               id="m0a29aee05e"
               style="stroke:#000000;stroke-width:0.8" />
          </defs>
          <g
             id="g19">
            <use
               style="stroke:#000000;stroke-width:0.8"
               x="71.501656"
               xlink:href="#m0a29aee05e"
               y="189"
               id="use17"
               width="100%"
               height="100%" />
          </g>
        </g>
        <g
           id="text_1">
          <!-- $\mathdefault{10}$ -->
          <g
             transform="matrix(0.08,0,0,-0.08,67.26747,201.5348)"
             id="g30">
            <defs
               id="defs24">
              <path
                 d="m 1702,4083 c 0,134 -6,141 -96,141 -249,-297 -627,-391 -985,-404 -19,0 -51,0 -58,-12 -6,-13 -6,-26 -6,-160 198,0 531,38 787,191 v -3372 c 0,-224 -13,-301 -563,-301 h -192 v -166 c 307,6 627,12 934,12 307,0 627,-6 935,-12 v 166 h -192 c -551,0 -564,70 -564,301 z"
                 id="CMR17-31"
                 transform="scale(0.015625)" />
              <path
                 d="m 2688,2038 c 0,392 -6,1061 -275,1575 -237,450 -615,611 -947,611 -308,0 -698,-142 -941,-604 -256,-483 -282,-1081 -282,-1582 0,-367 7,-926 205,-1415 275,-662 768,-751 1018,-751 294,0 742,121 1004,732 192,444 218,964 218,1434 z m -1222,-2064 c -410,0 -653,354 -743,842 -70,380 -70,933 -70,1293 0,495 0,906 83,1298 122,547 480,714 730,714 262,0 601,-174 723,-701 83,-366 89,-797 89,-1311 0,-418 0,-933 -76,-1312 -135,-701 -512,-823 -736,-823 z"
                 id="CMR17-30"
                 transform="scale(0.015625)" />
            </defs>
            <use
               transform="scale(0.996264)"
               xlink:href="#CMR17-31"
               id="use26"
               x="0"
               y="0"
               width="100%"
               height="100%" />
            <use
               transform="matrix(0.996264,0,0,0.996264,45.690477,0)"
               xlink:href="#CMR17-30"
               id="use28"
               x="0"
               y="0"
               width="100%"
               height="100%" />
          </g>
        </g>
      </g>
      <g
         id="xtick_2">
        <g
           id="line2d_2">
          <g
             id="g36">
            <use
               style="stroke:#000000;stroke-width:0.8"
               x="117.61736"
               xlink:href="#m0a29aee05e"
               y="189"
               id="use34"
               width="100%"
               height="100%" />
          </g>
        </g>
        <g
           id="text_2">
          <!-- $\mathdefault{20}$ -->
          <g
             transform="matrix(0.08,0,0,-0.08,113.38317,201.5348)"
             id="g46">
            <defs
               id="defs40">
              <path
                 d="m 2669,990 h -115 c -64,-453 -116,-530 -141,-568 -32,-51 -493,-51 -583,-51 h -1228 c 230,249 678,702 1222,1225 390,370 845,804 845,1437 0,755 -602,1191 -1274,1191 -704,0 -1133,-621 -1133,-1197 0,-250 186,-282 263,-282 64,0 256,38 256,262 0,199 -167,257 -256,257 -39,0 -77,-7 -103,-20 122,544 493,813 884,813 556,0 921,-441 921,-1024 0,-556 -326,-1035 -691,-1450 l -1274,-1436 v -147 h 2253 z"
                 id="CMR17-32"
                 transform="scale(0.015625)" />
            </defs>
            <use
               transform="scale(0.996264)"
               xlink:href="#CMR17-32"
               id="use42"
               x="0"
               y="0"
               width="100%"
               height="100%" />
            <use
               transform="matrix(0.996264,0,0,0.996264,45.690477,0)"
               xlink:href="#CMR17-30"
               id="use44"
               x="0"
               y="0"
               width="100%"
               height="100%" />
          </g>
        </g>
      </g>
      <g
         id="xtick_3">
        <g
           id="line2d_3">
          <g
             id="g52">
            <use
               style="stroke:#000000;stroke-width:0.8"
               x="163.73306"
               xlink:href="#m0a29aee05e"
               y="189"
               id="use50"
               width="100%"
               height="100%" />
          </g>
        </g>
        <g
           id="text_3">
          <!-- $\mathdefault{30}$ -->
          <g
             transform="matrix(0.08,0,0,-0.08,159.49887,201.5348)"
             id="g62">
            <defs
               id="defs56">
              <path
                 d="m 1414,2176 c 570,0 820,-503 820,-1082 0,-772 -410,-1069 -781,-1069 -339,0 -890,168 -1063,666 32,-13 64,-13 96,-13 154,0 269,102 269,269 0,185 -141,269 -269,269 -108,0 -275,-52 -275,-289 0,-592 576,-1055 1255,-1055 710,0 1254,560 1254,1215 0,631 -512,1089 -1120,1159 486,101 954,530 954,1107 0,503 -506,871 -1082,871 -582,0 -1094,-362 -1094,-877 0,-224 166,-263 249,-263 135,0 250,83 250,250 0,166 -115,250 -250,250 -25,0 -57,0 -83,-13 186,428 691,505 915,505 224,0 647,-110 647,-729 0,-180 -26,-496 -244,-773 -192,-245 -409,-258 -620,-277 -32,0 -180,-13 -205,-13 -45,-6 -71,-12 -71,-57 0,-45 7,-51 135,-51 z"
                 id="CMR17-33"
                 transform="scale(0.015625)" />
            </defs>
            <use
               transform="scale(0.996264)"
               xlink:href="#CMR17-33"
               id="use58"
               x="0"
               y="0"
               width="100%"
               height="100%" />
            <use
               transform="matrix(0.996264,0,0,0.996264,45.690477,0)"
               xlink:href="#CMR17-30"
               id="use60"
               x="0"
               y="0"
               width="100%"
               height="100%" />
          </g>
        </g>
      </g>
      <g
         id="text_4">
        <!-- Blow count ($N$) -->
        <g
           transform="matrix(0.1,0,0,-0.1,76.05903,214.55653)"
           id="g103">
          <defs
             id="defs77">
            <path
               d="m 333,4352 v -167 c 441,0 512,0 512,-288 v -3446 c 0,-285 -71,-285 -512,-285 v -166 h 2201 c 820,0 1351,578 1351,1155 0,571 -525,1059 -1210,1104 615,121 1043,531 1043,1017 0,532 -524,1076 -1350,1076 z m 915,-2048 v 1632 c 0,217 13,249 269,249 h 819 c 634,0 915,-512 915,-909 0,-486 -390,-972 -1081,-972 z m 269,-2138 c -256,0 -269,32 -269,247 v 1788 h 1184 c 659,0 979,-577 979,-1040 0,-463 -365,-995 -1062,-995 z"
               id="CMR17-42"
               transform="scale(0.015625)" />
            <path
               d="m 979,4416 -761,-71 v -166 c 377,0 435,-38 435,-344 v -3396 c 0,-241 -26,-273 -435,-273 v -166 c 153,12 435,12 595,12 166,0 448,0 601,-12 v 166 c -409,0 -435,25 -435,273 z"
               id="CMR17-6c"
               transform="scale(0.015625)" />
            <path
               d="m 2758,1356 c 0,820 -595,1460 -1292,1460 -698,0 -1293,-640 -1293,-1460 0,-806 595,-1420 1293,-1420 697,0 1292,614 1292,1420 z m -1292,-1305 c -301,0 -557,179 -704,429 -160,288 -180,646 -180,928 0,268 13,601 180,889 128,211 377,416 704,416 288,0 531,-160 684,-384 199,-301 199,-723 199,-921 0,-250 -13,-634 -186,-941 -179,-295 -454,-416 -697,-416 z"
               id="CMR17-6f"
               transform="scale(0.015625)" />
            <path
               d="m 3725,2186 c 128,380 384,393 480,399 v 167 c -128,-7 -256,-13 -384,-13 -122,0 -397,0 -506,13 v -167 c 199,-13 307,-129 307,-289 0,-45 -12,-103 -25,-148 l -602,-1750 -653,1898 c -12,45 -32,96 -32,122 0,167 218,167 320,167 v 167 c -147,-13 -416,-13 -569,-13 -160,0 -327,0 -474,13 v -167 c 352,0 352,-13 487,-418 l -589,-1724 -634,1859 c -32,84 -32,97 -32,116 0,167 218,167 320,167 v 167 c -153,-13 -422,-13 -582,-13 -141,0 -359,0 -493,13 v -167 c 282,0 352,-19 422,-232 l 788,-2315 c 25,-83 44,-102 96,-102 44,0 70,12 102,108 l 659,1943 666,-1943 c 32,-96 57,-108 102,-108 51,0 71,19 96,102 z"
               id="CMR17-77"
               transform="scale(0.015625)" />
            <path
               d="m 2234,2240 c -122,0 -301,0 -301,-225 0,-179 147,-230 230,-230 45,0 231,19 231,243 0,448 -436,788 -928,788 -679,0 -1255,-615 -1255,-1437 0,-858 602,-1443 1255,-1443 793,0 992,740 992,811 0,26 -7,45 -52,45 -44,0 -51,-6 -76,-90 -167,-522 -532,-651 -807,-651 -409,0 -902,380 -902,1334 0,973 473,1315 851,1315 250,0 621,-118 762,-460 z"
               id="CMR17-63"
               transform="scale(0.015625)" />
            <path
               d="m 1882,2745 v -166 c 377,0 435,-39 435,-350 v -1176 c 0,-543 -288,-1015 -762,-1015 -525,0 -569,317 -569,653 v 2125 l -775,-71 v -166 c 256,0 429,0 435,-259 v -1241 c 0,-433 0,-711 167,-892 83,-84 243,-251 704,-251 544,0 755,464 806,600 h 7 v -600 l 761,51 v 167 c -377,0 -435,39 -435,349 v 2313 z"
               id="CMR17-75"
               transform="scale(0.015625)" />
            <path
               d="m 2656,1954 c 0,328 -64,862 -819,862 -506,0 -768,-392 -864,-650 h -7 v 650 l -755,-71 v -167 c 378,0 435,-38 435,-347 v -1788 c 0,-245 -25,-277 -435,-277 v -166 c 154,12 435,12 602,12 166,0 454,0 608,-12 v 166 c -410,0 -435,26 -435,277 v 1235 c 0,591 358,1035 806,1035 474,0 525,-424 525,-733 v -1537 c 0,-245 -26,-277 -435,-277 v -166 c 153,12 435,12 601,12 167,0 455,0 608,-12 v 166 c -409,0 -435,26 -435,277 z"
               id="CMR17-6e"
               transform="scale(0.015625)" />
            <path
               d="m 966,2585 h 896 v 167 h -896 v 1216 h -115 c -13,-676 -237,-1268 -781,-1281 v -102 h 557 v -1807 c 0,-123 0,-842 743,-842 377,0 595,372 595,848 v 367 h -115 v -361 c 0,-443 -173,-739 -442,-739 -186,0 -442,128 -442,714 z"
               id="CMR17-74"
               transform="scale(0.015625)" />
            <path
               d="m 1958,-1562 c 0,6 0,19 -19,38 -294,301 -1081,1121 -1081,3120 0,1999 774,2812 1088,3133 0,6 12,19 12,38 0,20 -19,33 -44,33 -71,0 -615,-475 -928,-1180 -320,-711 -410,-1402 -410,-2017 0,-462 45,-1243 429,-2070 307,-666 832,-1133 909,-1133 32,0 44,12 44,38 z"
               id="CMR17-28"
               transform="scale(0.015625)" />
            <path
               d="m 4736,3682 c 70,274 173,465 659,484 19,0 96,6 96,115 0,71 -57,71 -83,71 -128,0 -454,-13 -582,-13 h -308 c -89,0 -204,13 -294,13 -38,0 -115,0 -115,-122 0,-64 51,-64 96,-64 384,-13 409,-159 409,-274 0,-57 -6,-76 -25,-166 l -723,-2872 -1370,3389 c -45,102 -51,109 -192,109 h -781 c -128,0 -185,0 -185,-122 0,-64 44,-64 166,-64 32,0 410,0 410,-57 0,-13 -13,-64 -20,-83 l -851,-3376 c -77,-312 -230,-446 -653,-465 -32,0 -96,-6 -96,-121 0,-64 64,-64 84,-64 128,0 454,12 582,12 h 307 c 90,0 199,-12 288,-12 45,0 115,0 115,121 0,58 -64,64 -89,64 -211,6 -416,45 -416,274 0,51 13,108 25,159 l 864,3408 c 39,-64 39,-77 64,-134 l 1524,-3777 c 32,-77 44,-115 102,-115 64,0 70,19 96,128 z"
               id="CMMI12-4e"
               transform="scale(0.015625)" />
            <path
               d="m 1683,1596 c 0,461 -45,1243 -429,2069 -307,667 -832,1135 -908,1135 -20,0 -45,-7 -45,-39 0,-13 6,-19 13,-32 307,-321 1088,-1134 1088,-3126 0,-1999 -775,-2813 -1088,-3133 -7,-13 -13,-19 -13,-32 0,-32 25,-38 45,-38 70,0 614,473 928,1178 320,711 409,1403 409,2018 z"
               id="CMR17-29"
               transform="scale(0.015625)" />
          </defs>
          <use
             transform="scale(0.996264)"
             xlink:href="#CMR17-42"
             id="use79"
             x="0"
             y="0"
             width="100%"
             height="100%" />
          <use
             transform="matrix(0.996264,0,0,0.996264,65.188754,0)"
             xlink:href="#CMR17-6c"
             id="use81"
             x="0"
             y="0"
             width="100%"
             height="100%" />
          <use
             transform="matrix(0.996264,0,0,0.996264,90.059813,0)"
             xlink:href="#CMR17-6f"
             id="use83"
             x="0"
             y="0"
             width="100%"
             height="100%" />
          <use
             transform="matrix(0.996264,0,0,0.996264,133.14784,0)"
             xlink:href="#CMR17-77"
             id="use85"
             x="0"
             y="0"
             width="100%"
             height="100%" />
          <use
             transform="matrix(0.996264,0,0,0.996264,229.73368,0)"
             xlink:href="#CMR17-63"
             id="use87"
             x="0"
             y="0"
             width="100%"
             height="100%" />
          <use
             transform="matrix(0.996264,0,0,0.996264,270.21934,0)"
             xlink:href="#CMR17-6f"
             id="use89"
             x="0"
             y="0"
             width="100%"
             height="100%" />
          <use
             transform="matrix(0.996264,0,0,0.996264,315.90982,0)"
             xlink:href="#CMR17-75"
             id="use91"
             x="0"
             y="0"
             width="100%"
             height="100%" />
          <use
             transform="matrix(0.996264,0,0,0.996264,366.80519,0)"
             xlink:href="#CMR17-6e"
             id="use93"
             x="0"
             y="0"
             width="100%"
             height="100%" />
          <use
             transform="matrix(0.996264,0,0,0.996264,415.09811,0)"
             xlink:href="#CMR17-74"
             id="use95"
             x="0"
             y="0"
             width="100%"
             height="100%" />
          <use
             transform="matrix(0.996264,0,0,0.996264,480.45484,0)"
             xlink:href="#CMR17-28"
             id="use97"
             x="0"
             y="0"
             width="100%"
             height="100%" />
          <use
             transform="matrix(0.996264,0,0,0.996264,515.73561,0)"
             xlink:href="#CMMI12-4e"
             id="use99"
             x="0"
             y="0"
             width="100%"
             height="100%" />
          <use
             transform="matrix(0.996264,0,0,0.996264,604.25738,0)"
             xlink:href="#CMR17-29"
             id="use101"
             x="0"
             y="0"
             width="100%"
             height="100%" />
        </g>
      </g>
    </g>
    <g
       id="matplotlib.axis_2">
      <g
         id="ytick_1">
        <g
           id="line2d_4">
          <defs
             id="defs108">
            <path
               d="m 0,0 h -3.5"
               id="m5f08e4c510"
               style="stroke:#000000;stroke-width:0.8" />
          </defs>
          <g
             id="g112">
            <use
               style="stroke:#000000;stroke-width:0.8"
               x="27"
               xlink:href="#m5f08e4c510"
               y="179.47777"
               id="use110"
               width="100%"
               height="100%" />
          </g>
        </g>
        <g
           id="text_5">
          <!-- $\mathdefault{35.0}$ -->
          <g
             transform="matrix(0.08,0,0,-0.08,4.945128,182.24516)"
             id="g127">
            <defs
               id="defs117">
              <path
                 d="m 730,3750 c 64,-26 326,-109 595,-109 595,0 921,320 1107,499 0,51 0,84 -38,84 -7,0 -20,0 -71,-26 -224,-96 -486,-166 -806,-166 -192,0 -480,23 -794,159 -70,33 -83,33 -89,33 -32,0 -39,-7 -39,-134 v -1859 c 0,-118 0,-151 64,-151 32,0 45,13 77,59 205,296 486,421 806,421 224,0 704,-145 704,-1267 0,-206 0,-577 -192,-871 -160,-263 -409,-397 -684,-397 -423,0 -852,294 -967,787 26,-6 77,-19 103,-19 83,0 243,45 243,243 0,173 -122,244 -243,244 -148,0 -244,-90 -244,-269 0,-557 442,-1139 1120,-1139 660,0 1287,569 1287,1395 0,787 -499,1395 -1120,1395 -327,0 -602,-122 -819,-358 z"
                 id="CMR17-35"
                 transform="scale(0.015625)" />
              <path
                 d="m 1178,307 c 0,185 -154,313 -308,313 -185,0 -313,-153 -313,-307 0,-185 153,-313 307,-313 186,0 314,153 314,307 z"
                 id="CMMI12-3a"
                 transform="scale(0.015625)" />
            </defs>
            <use
               transform="scale(0.996264)"
               xlink:href="#CMR17-33"
               id="use119"
               x="0"
               y="0"
               width="100%"
               height="100%" />
            <use
               transform="matrix(0.996264,0,0,0.996264,45.690477,0)"
               xlink:href="#CMR17-35"
               id="use121"
               x="0"
               y="0"
               width="100%"
               height="100%" />
            <use
               transform="matrix(0.996264,0,0,0.996264,91.380954,0)"
               xlink:href="#CMMI12-3a"
               id="use123"
               x="0"
               y="0"
               width="100%"
               height="100%" />
            <use
               transform="matrix(0.996264,0,0,0.996264,118.47813,0)"
               xlink:href="#CMR17-30"
               id="use125"
               x="0"
               y="0"
               width="100%"
               height="100%" />
          </g>
        </g>
      </g>
      <g
         id="ytick_2">
        <g
           id="line2d_5">
          <g
             id="g133">
            <use
               style="stroke:#000000;stroke-width:0.8"
               x="27"
               xlink:href="#m5f08e4c510"
               y="160.1599"
               id="use131"
               width="100%"
               height="100%" />
          </g>
        </g>
        <g
           id="text_6">
          <!-- $\mathdefault{37.5}$ -->
          <g
             transform="matrix(0.08,0,0,-0.08,4.945128,162.9273)"
             id="g147">
            <defs
               id="defs137">
              <path
                 d="m 2886,3955 v 141 h -1504 c -748,0 -761,70 -787,192 h -115 l -186,-1184 h 116 c 19,122 64,448 140,569 39,51 512,51 621,51 h 1408 l -710,-1054 c -474,-709 -800,-1667 -800,-2504 0,-77 0,-294 230,-294 231,0 231,217 231,300 v 294 c 0,1048 179,1738 473,2178 z"
                 id="CMR17-37"
                 transform="scale(0.015625)" />
            </defs>
            <use
               transform="scale(0.996264)"
               xlink:href="#CMR17-33"
               id="use139"
               x="0"
               y="0"
               width="100%"
               height="100%" />
            <use
               transform="matrix(0.996264,0,0,0.996264,45.690477,0)"
               xlink:href="#CMR17-37"
               id="use141"
               x="0"
               y="0"
               width="100%"
               height="100%" />
            <use
               transform="matrix(0.996264,0,0,0.996264,91.380954,0)"
               xlink:href="#CMMI12-3a"
               id="use143"
               x="0"
               y="0"
               width="100%"
               height="100%" />
            <use
               transform="matrix(0.996264,0,0,0.996264,118.47813,0)"
               xlink:href="#CMR17-35"
               id="use145"
               x="0"
               y="0"
               width="100%"
               height="100%" />
          </g>
        </g>
      </g>
      <g
         id="ytick_3">
        <g
           id="line2d_6">
          <g
             id="g153">
            <use
               style="stroke:#000000;stroke-width:0.8"
               x="27"
               xlink:href="#m5f08e4c510"
               y="140.84204"
               id="use151"
               width="100%"
               height="100%" />
          </g>
        </g>
        <g
           id="text_7">
          <!-- $\mathdefault{40.0}$ -->
          <g
             transform="matrix(0.08,0,0,-0.08,4.945128,143.60944)"
             id="g167">
            <defs
               id="defs157">
              <path
                 d="m 2150,4147 c 0,134 -6,141 -121,141 l -1901,-3034 v -166 h 1651 v -628 c 0,-230 -13,-294 -461,-294 h -121 v -166 c 205,12 550,12 768,12 217,0 563,0 768,-12 v 166 h -122 c -448,0 -461,64 -461,294 v 628 h 653 v 166 h -653 z m -352,-424 v -2469 h -1542 z"
                 id="CMR17-34"
                 transform="scale(0.015625)" />
            </defs>
            <use
               transform="scale(0.996264)"
               xlink:href="#CMR17-34"
               id="use159"
               x="0"
               y="0"
               width="100%"
               height="100%" />
            <use
               transform="matrix(0.996264,0,0,0.996264,45.690477,0)"
               xlink:href="#CMR17-30"
               id="use161"
               x="0"
               y="0"
               width="100%"
               height="100%" />
            <use
               transform="matrix(0.996264,0,0,0.996264,91.380954,0)"
               xlink:href="#CMMI12-3a"
               id="use163"
               x="0"
               y="0"
               width="100%"
               height="100%" />
            <use
               transform="matrix(0.996264,0,0,0.996264,118.47813,0)"
               xlink:href="#CMR17-30"
               id="use165"
               x="0"
               y="0"
               width="100%"
               height="100%" />
          </g>
        </g>
      </g>
      <g
         id="ytick_4">
        <g
           id="line2d_7">
          <g
             id="g173">
            <use
               style="stroke:#000000;stroke-width:0.8"
               x="27"
               xlink:href="#m5f08e4c510"
               y="121.52418"
               id="use171"
               width="100%"
               height="100%" />
          </g>
        </g>
        <g
           id="text_8">
          <!-- $\mathdefault{42.5}$ -->
          <g
             transform="matrix(0.08,0,0,-0.08,4.945128,124.29158)"
             id="g184">
            <use
               transform="scale(0.996264)"
               xlink:href="#CMR17-34"
               id="use176"
               x="0"
               y="0"
               width="100%"
               height="100%" />
            <use
               transform="matrix(0.996264,0,0,0.996264,45.690477,0)"
               xlink:href="#CMR17-32"
               id="use178"
               x="0"
               y="0"
               width="100%"
               height="100%" />
            <use
               transform="matrix(0.996264,0,0,0.996264,91.380954,0)"
               xlink:href="#CMMI12-3a"
               id="use180"
               x="0"
               y="0"
               width="100%"
               height="100%" />
            <use
               transform="matrix(0.996264,0,0,0.996264,118.47813,0)"
               xlink:href="#CMR17-35"
               id="use182"
               x="0"
               y="0"
               width="100%"
               height="100%" />
          </g>
        </g>
      </g>
      <g
         id="ytick_5">
        <g
           id="line2d_8">
          <g
             id="g190">
            <use
               style="stroke:#000000;stroke-width:0.8"
               x="27"
               xlink:href="#m5f08e4c510"
               y="102.20631"
               id="use188"
               width="100%"
               height="100%" />
          </g>
        </g>
        <g
           id="text_9">
          <!-- $\mathdefault{45.0}$ -->
          <g
             transform="matrix(0.08,0,0,-0.08,4.945128,104.97372)"
             id="g201">
            <use
               transform="scale(0.996264)"
               xlink:href="#CMR17-34"
               id="use193"
               x="0"
               y="0"
               width="100%"
               height="100%" />
            <use
               transform="matrix(0.996264,0,0,0.996264,45.690477,0)"
               xlink:href="#CMR17-35"
               id="use195"
               x="0"
               y="0"
               width="100%"
               height="100%" />
            <use
               transform="matrix(0.996264,0,0,0.996264,91.380954,0)"
               xlink:href="#CMMI12-3a"
               id="use197"
               x="0"
               y="0"
               width="100%"
               height="100%" />
            <use
               transform="matrix(0.996264,0,0,0.996264,118.47813,0)"
               xlink:href="#CMR17-30"
               id="use199"
               x="0"
               y="0"
               width="100%"
               height="100%" />
          </g>
        </g>
      </g>
      <g
         id="ytick_6">
        <g
           id="line2d_9">
          <g
             id="g207">
            <use
               style="stroke:#000000;stroke-width:0.8"
               x="27"
               xlink:href="#m5f08e4c510"
               y="82.888451"
               id="use205"
               width="100%"
               height="100%" />
          </g>
        </g>
        <g
           id="text_10">
          <!-- $\mathdefault{47.5}$ -->
          <g
             transform="matrix(0.08,0,0,-0.08,4.945128,85.655853)"
             id="g218">
            <use
               transform="scale(0.996264)"
               xlink:href="#CMR17-34"
               id="use210"
               x="0"
               y="0"
               width="100%"
               height="100%" />
            <use
               transform="matrix(0.996264,0,0,0.996264,45.690477,0)"
               xlink:href="#CMR17-37"
               id="use212"
               x="0"
               y="0"
               width="100%"
               height="100%" />
            <use
               transform="matrix(0.996264,0,0,0.996264,91.380954,0)"
               xlink:href="#CMMI12-3a"
               id="use214"
               x="0"
               y="0"
               width="100%"
               height="100%" />
            <use
               transform="matrix(0.996264,0,0,0.996264,118.47813,0)"
               xlink:href="#CMR17-35"
               id="use216"
               x="0"
               y="0"
               width="100%"
               height="100%" />
          </g>
        </g>
      </g>
      <g
         id="ytick_7">
        <g
           id="line2d_10">
          <g
             id="g224">
            <use
               style="stroke:#000000;stroke-width:0.8"
               x="27"
               xlink:href="#m5f08e4c510"
               y="63.570591"
               id="use222"
               width="100%"
               height="100%" />
          </g>
        </g>
        <g
           id="text_11">
          <!-- $\mathdefault{50.0}$ -->
          <g
             transform="matrix(0.08,0,0,-0.08,4.945128,66.337991)"
             id="g235">
            <use
               transform="scale(0.996264)"
               xlink:href="#CMR17-35"
               id="use227"
               x="0"
               y="0"
               width="100%"
               height="100%" />
            <use
               transform="matrix(0.996264,0,0,0.996264,45.690477,0)"
               xlink:href="#CMR17-30"
               id="use229"
               x="0"
               y="0"
               width="100%"
               height="100%" />
            <use
               transform="matrix(0.996264,0,0,0.996264,91.380954,0)"
               xlink:href="#CMMI12-3a"
               id="use231"
               x="0"
               y="0"
               width="100%"
               height="100%" />
            <use
               transform="matrix(0.996264,0,0,0.996264,118.47813,0)"
               xlink:href="#CMR17-30"
               id="use233"
               x="0"
               y="0"
               width="100%"
               height="100%" />
          </g>
        </g>
      </g>
      <g
         id="ytick_8">
        <g
           id="line2d_11">
          <g
             id="g241">
            <use
               style="stroke:#000000;stroke-width:0.8"
               x="27"
               xlink:href="#m5f08e4c510"
               y="44.252728"
               id="use239"
               width="100%"
               height="100%" />
          </g>
        </g>
        <g
           id="text_12">
          <!-- $\mathdefault{52.5}$ -->
          <g
             transform="matrix(0.08,0,0,-0.08,4.945128,47.020129)"
             id="g252">
            <use
               transform="scale(0.996264)"
               xlink:href="#CMR17-35"
               id="use244"
               x="0"
               y="0"
               width="100%"
               height="100%" />
            <use
               transform="matrix(0.996264,0,0,0.996264,45.690477,0)"
               xlink:href="#CMR17-32"
               id="use246"
               x="0"
               y="0"
               width="100%"
               height="100%" />
            <use
               transform="matrix(0.996264,0,0,0.996264,91.380954,0)"
               xlink:href="#CMMI12-3a"
               id="use248"
               x="0"
               y="0"
               width="100%"
               height="100%" />
            <use
               transform="matrix(0.996264,0,0,0.996264,118.47813,0)"
               xlink:href="#CMR17-35"
               id="use250"
               x="0"
               y="0"
               width="100%"
               height="100%" />
          </g>
        </g>
      </g>
      <g
         id="text_13">
        <!-- Water content ($w$) [\%] -->
        <g
           transform="matrix(0,-0.1,-0.1,0,-1.545532,156.28278)"
           id="g302">
          <defs
             id="defs264">
            <path
               d="m 5523,3775 c 58,173 154,398 525,410 v 167 c -109,-7 -333,-13 -448,-13 -160,0 -442,0 -595,13 v -167 c 288,-6 409,-166 409,-320 0,-45 -6,-71 -32,-141 l -992,-3167 -1043,3333 c -19,65 -25,90 -25,116 0,179 281,179 403,179 v 167 c -186,-13 -506,-13 -704,-13 -160,0 -448,0 -595,13 v -167 c 294,0 371,-19 435,-134 25,-58 128,-391 128,-411 0,-25 -13,-64 -19,-83 l -941,-2993 -1043,3326 c -32,90 -32,103 -32,116 0,179 281,179 409,179 v 167 c -185,-13 -505,-13 -704,-13 -166,0 -448,0 -601,13 v -167 c 384,0 409,-38 473,-243 l 1248,-3962 c 32,-96 32,-108 90,-108 51,0 70,12 96,102 l 1088,3474 1088,-3474 c 25,-90 45,-102 96,-102 57,0 57,12 89,108 z"
               id="CMR17-57"
               transform="scale(0.015625)" />
            <path
               d="m 2304,1656 c 0,392 0,619 -269,878 -237,217 -512,282 -729,282 -506,0 -871,-408 -871,-839 0,-237 192,-249 231,-249 83,0 230,51 230,230 0,160 -122,230 -230,230 -26,0 -58,-6 -77,-12 134,418 480,537 704,537 320,0 672,-292 672,-838 v -243 c -378,-13 -832,-64 -1191,-259 -403,-226 -518,-551 -518,-797 0,-499 576,-640 915,-640 352,0 679,199 819,569 13,-286 192,-544 474,-544 134,0 474,90 474,602 v 363 h -116 v -369 c 0,-396 -172,-448 -256,-448 -262,0 -262,337 -262,623 z m -339,-769 c 0,-564 -397,-849 -749,-849 -320,0 -570,240 -570,538 0,195 84,538 455,746 307,175 659,201 864,214 z"
               id="CMR17-61"
               transform="scale(0.015625)" />
            <path
               d="m 2438,1503 c 26,26 26,39 26,103 0,645 -346,1210 -1075,1210 -679,0 -1216,-641 -1216,-1422 0,-840 608,-1458 1286,-1458 717,0 999,683 999,819 0,45 -39,45 -52,45 -44,0 -51,-13 -76,-91 -141,-439 -493,-658 -826,-658 -275,0 -550,155 -723,439 -199,329 -199,710 -199,1013 z m -1849,97 c 45,911 537,1113 793,1113 436,0 730,-405 736,-1113 z"
               id="CMR17-65"
               transform="scale(0.015625)" />
            <path
               d="m 960,1517 c 0,617 262,1196 742,1196 45,0 90,-6 135,-26 0,0 -141,-45 -141,-212 0,-154 122,-218 218,-218 76,0 217,45 217,225 0,205 -205,334 -422,334 -487,0 -698,-476 -762,-701 h -6 v 701 l -743,-71 v -167 c 378,0 436,-38 436,-347 v -1788 c 0,-245 -26,-277 -436,-277 v -166 c 154,12 448,12 615,12 185,0 512,0 685,-12 v 166 c -461,0 -538,0 -538,289 z"
               id="CMR17-72"
               transform="scale(0.015625)" />
            <path
               d="m 2202,389 c 140,-383 537,-453 780,-453 487,0 775,421 954,862 147,370 384,1213 384,1590 0,389 -198,428 -256,428 -154,0 -294,-154 -294,-282 0,-76 44,-121 76,-146 58,-58 224,-230 224,-562 0,-217 -179,-818 -313,-1118 -179,-389 -416,-644 -749,-644 -358,0 -474,268 -474,561 0,185 58,409 84,517 l 268,1073 c 32,128 90,351 90,376 0,96 -77,161 -173,161 -185,0 -230,-161 -269,-314 -64,-249 -332,-1328 -358,-1468 -26,-109 -26,-179 -26,-319 0,-153 -204,-396 -211,-409 -70,-70 -173,-178 -371,-178 -506,0 -506,478 -506,587 0,204 45,485 333,1245 77,198 109,281 109,409 0,268 -192,511 -506,511 -588,0 -825,-926 -825,-978 0,-25 25,-57 70,-57 58,0 64,26 90,115 160,562 409,791 646,791 64,0 167,-6 167,-210 0,-32 0,-166 -109,-447 -301,-798 -365,-1060 -365,-1302 0,-671 550,-792 877,-792 109,0 397,0 653,453 z"
               id="CMMI12-77"
               transform="scale(0.015625)" />
            <path
               d="m 1504,-1600 v 224 h -602 v 5951 h 602 v 225 h -826 v -6400 z"
               id="CMR17-5b"
               transform="scale(0.015625)" />
            <path
               d="m 4640,928 c 0,742 -365,1286 -794,1286 -435,0 -876,-506 -876,-1286 0,-781 435,-1287 876,-1287 429,0 794,538 794,1287 z m -787,-1184 c -167,0 -583,153 -583,1184 0,1036 416,1184 583,1184 352,0 672,-506 672,-1184 0,-679 -320,-1184 -672,-1184 z m 230,4828 c 45,72 51,79 51,112 0,77 -57,116 -108,116 -64,0 -90,-45 -135,-97 -371,-548 -883,-607 -1145,-607 -640,0 -1031,383 -1152,502 -84,79 -205,202 -423,202 -435,0 -877,-519 -877,-1304 0,-778 436,-1282 877,-1282 429,0 794,536 794,1282 0,440 -135,745 -154,785 391,-256 775,-288 941,-288 410,0 704,155 864,268 l 6,-7 -2764,-4376 c -58,-90 -58,-102 -58,-122 0,-70 58,-115 115,-115 58,0 77,32 122,103 z m -2905,-2256 c -167,0 -583,153 -583,1180 0,1049 416,1201 583,1201 352,0 672,-522 672,-1201 0,-676 -320,-1180 -672,-1180 z"
               id="CMR17-25"
               transform="scale(0.015625)" />
            <path
               d="m 915,4800 h -825 v -225 h 601 v -5951 h -601 v -224 h 825 z"
               id="CMR17-5d"
               transform="scale(0.015625)" />
          </defs>
          <use
             transform="scale(0.996264)"
             xlink:href="#CMR17-57"
             id="use266"
             x="0"
             y="0"
             width="100%"
             height="100%" />
          <use
             transform="matrix(0.996264,0,0,0.996264,87.289395,0)"
             xlink:href="#CMR17-61"
             id="use268"
             x="0"
             y="0"
             width="100%"
             height="100%" />
          <use
             transform="matrix(0.996264,0,0,0.996264,132.97987,0)"
             xlink:href="#CMR17-74"
             id="use270"
             x="0"
             y="0"
             width="100%"
             height="100%" />
          <use
             transform="matrix(0.996264,0,0,0.996264,168.26064,0)"
             xlink:href="#CMR17-65"
             id="use272"
             x="0"
             y="0"
             width="100%"
             height="100%" />
          <use
             transform="matrix(0.996264,0,0,0.996264,208.7463,0)"
             xlink:href="#CMR17-72"
             id="use274"
             x="0"
             y="0"
             width="100%"
             height="100%" />
          <use
             transform="matrix(0.996264,0,0,0.996264,274.10303,0)"
             xlink:href="#CMR17-63"
             id="use276"
             x="0"
             y="0"
             width="100%"
             height="100%" />
          <use
             transform="matrix(0.996264,0,0,0.996264,314.58869,0)"
             xlink:href="#CMR17-6f"
             id="use278"
             x="0"
             y="0"
             width="100%"
             height="100%" />
          <use
             transform="matrix(0.996264,0,0,0.996264,360.27917,0)"
             xlink:href="#CMR17-6e"
             id="use280"
             x="0"
             y="0"
             width="100%"
             height="100%" />
          <use
             transform="matrix(0.996264,0,0,0.996264,408.57209,0)"
             xlink:href="#CMR17-74"
             id="use282"
             x="0"
             y="0"
             width="100%"
             height="100%" />
          <use
             transform="matrix(0.996264,0,0,0.996264,443.85285,0)"
             xlink:href="#CMR17-65"
             id="use284"
             x="0"
             y="0"
             width="100%"
             height="100%" />
          <use
             transform="matrix(0.996264,0,0,0.996264,484.33852,0)"
             xlink:href="#CMR17-6e"
             id="use286"
             x="0"
             y="0"
             width="100%"
             height="100%" />
          <use
             transform="matrix(0.996264,0,0,0.996264,532.63143,0)"
             xlink:href="#CMR17-74"
             id="use288"
             x="0"
             y="0"
             width="100%"
             height="100%" />
          <use
             transform="matrix(0.996264,0,0,0.996264,597.98817,0)"
             xlink:href="#CMR17-28"
             id="use290"
             x="0"
             y="0"
             width="100%"
             height="100%" />
          <use
             transform="matrix(0.996264,0,0,0.996264,633.26893,0)"
             xlink:href="#CMMI12-77"
             id="use292"
             x="0"
             y="0"
             width="100%"
             height="100%" />
          <use
             transform="matrix(0.996264,0,0,0.996264,705.68185,0)"
             xlink:href="#CMR17-29"
             id="use294"
             x="0"
             y="0"
             width="100%"
             height="100%" />
          <use
             transform="matrix(0.996264,0,0,0.996264,771.03858,0)"
             xlink:href="#CMR17-5b"
             id="use296"
             x="0"
             y="0"
             width="100%"
             height="100%" />
          <use
             transform="matrix(0.996264,0,0,0.996264,795.90964,0)"
             xlink:href="#CMR17-25"
             id="use298"
             x="0"
             y="0"
             width="100%"
             height="100%" />
          <use
             transform="matrix(0.996264,0,0,0.996264,872.82923,0)"
             xlink:href="#CMR17-5d"
             id="use300"
             x="0"
             y="0"
             width="100%"
             height="100%" />
        </g>
      </g>
    </g>
    <g
       id="line2d_12">
      <defs
         id="defs307">
        <path
           d="m 0,-3 -0.673542,2.072949 h -2.179628 l 1.763356,1.281153 -0.673542,2.072949 1.763356,-1.281153 1.763356,1.281153 -0.673542,-2.072949 1.763356,-1.281153 h -2.179628 z"
           id="mb634c20e56"
           style="stroke:#f77189;stroke-linejoin:bevel" />
      </defs>
      <g
         clip-path="url(#p4e8e9f6127)"
         id="g319">
        <use
           style="fill:#f77189;stroke:#f77189;stroke-linejoin:bevel"
           x="53.05537"
           xlink:href="#mb634c20e56"
           y="44.252728"
           id="use309"
           width="100%"
           height="100%" />
        <use
           style="fill:#f77189;stroke:#f77189;stroke-linejoin:bevel"
           x="80.724792"
           xlink:href="#mb634c20e56"
           y="85.979309"
           id="use311"
           width="100%"
           height="100%" />
        <use
           style="fill:#f77189;stroke:#f77189;stroke-linejoin:bevel"
           x="117.61736"
           xlink:href="#mb634c20e56"
           y="116.11517"
           id="use313"
           width="100%"
           height="100%" />
        <use
           style="fill:#f77189;stroke:#f77189;stroke-linejoin:bevel"
           x="154.50992"
           xlink:href="#mb634c20e56"
           y="151.66003"
           id="use315"
           width="100%"
           height="100%" />
        <use
           style="fill:#f77189;stroke:#f77189;stroke-linejoin:bevel"
           x="172.95619"
           xlink:href="#mb634c20e56"
           y="164.02347"
           id="use317"
           width="100%"
           height="100%" />
      </g>
    </g>
    <g
       id="line2d_13">
      <path
         clip-path="url(#p4e8e9f6127)"
         d="m 34.609091,33.332727 152.181819,148.254543"
         style="fill:none;stroke:#000000;stroke-width:1.5;stroke-linecap:square"
         id="path322" />
    </g>
    <g
       id="patch_3">
      <path
         d="m 27,189 v -163.08"
         style="fill:none;stroke:#000000;stroke-width:0.8;stroke-linecap:square;stroke-linejoin:miter"
         id="path325" />
    </g>
    <g
       id="patch_4">
      <path
         d="m 194.4,189 v -163.08"
         style="fill:none;stroke:#000000;stroke-width:0.8;stroke-linecap:square;stroke-linejoin:miter"
         id="path328" />
    </g>
    <g
       id="patch_5">
      <path
         d="m 27,189 h 167.4"
         style="fill:none;stroke:#000000;stroke-width:0.8;stroke-linecap:square;stroke-linejoin:miter"
         id="path331" />
    </g>
    <g
       id="patch_6">
      <path
         d="m 27,25.92 h 167.4"
         style="fill:none;stroke:#000000;stroke-width:0.8;stroke-linecap:square;stroke-linejoin:miter"
         id="path334" />
    </g>
  </g>
  <defs
     id="defs342">
    <clipPath
       id="p4e8e9f6127">
      <rect
         height="163.08"
         width="167.39999"
         x="27"
         y="25.92"
         id="rect339" />
    </clipPath>
  </defs>
  <path
     style="fill:none;stroke:#aa0000;stroke-width:0.75px;stroke-linecap:butt;stroke-linejoin:miter;stroke-opacity:1;marker-end:url(#Arrow1Mend)"
     d="m 151.59879,168.55819 v -53.46798 h -113.320194"
     id="path1203" />
</svg>
