<?xml version="1.0" encoding="UTF-8" standalone="no"?>
<!-- Created with matplotlib (https://matplotlib.org/) -->

<svg
   height="194.98521pt"
   version="1.1"
   viewBox="0 0 202.74138 194.98521"
   width="202.74138pt"
   id="svg311"
   sodipodi:docname="P5.svg"
   inkscape:version="1.1.1 (3bf5ae0d25, 2021-09-20)"
   inkscape:export-filename="C:\Users\$r.984804\OneDrive - University of Maine System\UMaine_docs\Courses\CIE365 Soil Mechanics\CIE365-Soil-mechanics\grain_size\P5.png"
   inkscape:export-xdpi="300"
   inkscape:export-ydpi="300"
   xmlns:inkscape="http://www.inkscape.org/namespaces/inkscape"
   xmlns:sodipodi="http://sodipodi.sourceforge.net/DTD/sodipodi-0.dtd"
   xmlns:xlink="http://www.w3.org/1999/xlink"
   xmlns="http://www.w3.org/2000/svg"
   xmlns:svg="http://www.w3.org/2000/svg"
   xmlns:rdf="http://www.w3.org/1999/02/22-rdf-syntax-ns#"
   xmlns:cc="http://creativecommons.org/ns#"
   xmlns:dc="http://purl.org/dc/elements/1.1/">
  <sodipodi:namedview
     id="namedview313"
     pagecolor="#505050"
     bordercolor="#ffffff"
     borderopacity="1"
     inkscape:pageshadow="0"
     inkscape:pageopacity="0"
     inkscape:pagecheckerboard="1"
     inkscape:document-units="pt"
     showgrid="false"
     inkscape:zoom="1.9936483"
     inkscape:cx="184.33542"
     inkscape:cy="72.98178"
     inkscape:window-width="2400"
     inkscape:window-height="1271"
     inkscape:window-x="2395"
     inkscape:window-y="-9"
     inkscape:window-maximized="1"
     inkscape:current-layer="svg311" />
  <metadata
     id="metadata2">
    <rdf:RDF>
      <cc:Work>
        <dc:type
           rdf:resource="http://purl.org/dc/dcmitype/StillImage" />
        <dc:date>2022-02-16T08:39:36.961510</dc:date>
        <dc:format>image/svg+xml</dc:format>
        <dc:creator>
          <cc:Agent>
            <dc:title>Matplotlib v3.3.4, https://matplotlib.org/</dc:title>
          </cc:Agent>
        </dc:creator>
      </cc:Work>
    </rdf:RDF>
  </metadata>
  <defs
     id="defs6">
    <style
       type="text/css"
       id="style4">*{stroke-linecap:butt;stroke-linejoin:round;}</style>
  </defs>
  <g
     id="patch_1"
     style="fill:#ffffff;stroke-width:1.08638"
     transform="scale(0.93861749,0.90270936)">
    <path
       d="m 0,216 h 216 v -216 h -216 z"
       style="fill:#ffffff;stroke-width:1.08638"
       id="path8" />
  </g>
  <g
     id="axes_1"
     transform="translate(3.5,-21.014778)">
    <g
       id="patch_2">
      <path
         d="m 27,189 h 167.4 v -163.08 h -167.4 z"
         style="fill:#ffffff"
         id="path11" />
    </g>
    <g
       id="matplotlib.axis_1">
      <g
         id="xtick_1">
        <g
           id="line2d_1">
          <defs
             id="defs15">
            <path
               d="m 0,0 v 3.5"
               id="mb76ef13ac5"
               style="stroke:#000000;stroke-width:0.8" />
          </defs>
          <g
             id="g19">
            <use
               style="stroke:#000000;stroke-width:0.8"
               x="120.18211"
               xlink:href="#mb76ef13ac5"
               y="189"
               id="use17"
               width="100%"
               height="100%" />
          </g>
        </g>
        <g
           id="text_1">
          <!-- $\mathdefault{10^{1}}$ -->
          <g
             transform="matrix(0.08,0,0,-0.08,114.12148,201.5348)"
             id="g32">
            <defs
               id="defs24">
              <path
                 d="m 26.59375,63.796875 c 0,2.09375 -0.09375,2.203125 -1.5,2.203125 -3.890625,-4.640625 -9.796875,-6.109375 -15.390625,-6.3125 -0.296875,0 -0.796875,0 -0.90625,-0.1875 -0.09375,-0.203125 -0.09375,-0.40625 -0.09375,-2.5 3.09375,0 8.296875,0.59375 12.296875,2.984375 v -52.6875 c 0,-3.5 -0.203125,-4.703125 -8.796875,-4.703125 h -3 v -2.59375 c 4.796875,0.09375 9.796875,0.1875 14.59375,0.1875 4.796875,0 9.796875,-0.09375 14.609375,-0.1875 v 2.59375 h -3 c -8.609375,0 -8.8125,1.09375 -8.8125,4.703125 z"
                 id="CMR17-49" />
              <path
                 d="m 42,31.84375 c 0,6.125 -0.09375,16.578125 -4.296875,24.609375 -3.703125,7.03125 -9.609375,9.546875 -14.796875,9.546875 -4.8125,0 -10.90625,-2.21875 -14.703125,-9.4375 -4,-7.546875 -4.40625,-16.890625 -4.40625,-24.71875 0,-5.734375 0.109375,-14.46875 3.203125,-22.109375 4.296875,-10.34375 12,-11.734375 15.90625,-11.734375 4.59375,0 11.59375,1.890625 15.6875,11.4375 3,6.9375 3.40625,15.0625 3.40625,22.40625 z m -19.09375,-32.25 c -6.40625,0 -10.203125,5.53125 -11.609375,13.15625 -1.09375,5.9375 -1.09375,14.578125 -1.09375,20.203125 0,7.734375 0,14.15625 1.296875,20.28125 1.90625,8.546875 7.5,11.15625 11.40625,11.15625 4.09375,0 9.390625,-2.71875 11.296875,-10.953125 1.296875,-5.71875 1.390625,-12.453125 1.390625,-20.484375 0,-6.53125 0,-14.578125 -1.1875,-20.5 -2.109375,-10.953125 -8,-12.859375 -11.5,-12.859375 z"
                 id="CMR17-48" />
            </defs>
            <use
               transform="scale(0.996264)"
               xlink:href="#CMR17-49"
               id="use26"
               x="0"
               y="0"
               width="100%"
               height="100%" />
            <use
               transform="matrix(0.996264,0,0,0.996264,45.690477,0)"
               xlink:href="#CMR17-48"
               id="use28"
               x="0"
               y="0"
               width="100%"
               height="100%" />
            <use
               transform="matrix(0.697382,0,0,0.697382,91.380954,36.153639)"
               xlink:href="#CMR17-49"
               id="use30"
               x="0"
               y="0"
               width="100%"
               height="100%" />
          </g>
        </g>
      </g>
      <g
         id="xtick_2">
        <g
           id="line2d_2">
          <defs
             id="defs37">
            <path
               d="m 0,0 v 2"
               id="m43a3c4c806"
               style="stroke:#000000;stroke-width:0.6" />
          </defs>
          <g
             id="g41">
            <use
               style="stroke:#000000;stroke-width:0.6"
               x="34.609093"
               xlink:href="#m43a3c4c806"
               y="189"
               id="use39"
               width="100%"
               height="100%" />
          </g>
        </g>
      </g>
      <g
         id="xtick_3">
        <g
           id="line2d_3">
          <g
             id="g47">
            <use
               style="stroke:#000000;stroke-width:0.6"
               x="56.167473"
               xlink:href="#m43a3c4c806"
               y="189"
               id="use45"
               width="100%"
               height="100%" />
          </g>
        </g>
      </g>
      <g
         id="xtick_4">
        <g
           id="line2d_4">
          <g
             id="g53">
            <use
               style="stroke:#000000;stroke-width:0.6"
               x="71.463387"
               xlink:href="#m43a3c4c806"
               y="189"
               id="use51"
               width="100%"
               height="100%" />
          </g>
        </g>
      </g>
      <g
         id="xtick_5">
        <g
           id="line2d_5">
          <g
             id="g59">
            <use
               style="stroke:#000000;stroke-width:0.6"
               x="83.32782"
               xlink:href="#m43a3c4c806"
               y="189"
               id="use57"
               width="100%"
               height="100%" />
          </g>
        </g>
      </g>
      <g
         id="xtick_6">
        <g
           id="line2d_6">
          <g
             id="g65">
            <use
               style="stroke:#000000;stroke-width:0.6"
               x="93.021767"
               xlink:href="#m43a3c4c806"
               y="189"
               id="use63"
               width="100%"
               height="100%" />
          </g>
        </g>
      </g>
      <g
         id="xtick_7">
        <g
           id="line2d_7">
          <g
             id="g71">
            <use
               style="stroke:#000000;stroke-width:0.6"
               x="101.21788"
               xlink:href="#m43a3c4c806"
               y="189"
               id="use69"
               width="100%"
               height="100%" />
          </g>
        </g>
      </g>
      <g
         id="xtick_8">
        <g
           id="line2d_8">
          <g
             id="g77">
            <use
               style="stroke:#000000;stroke-width:0.6"
               x="108.31768"
               xlink:href="#m43a3c4c806"
               y="189"
               id="use75"
               width="100%"
               height="100%" />
          </g>
        </g>
      </g>
      <g
         id="xtick_9">
        <g
           id="line2d_9">
          <g
             id="g83">
            <use
               style="stroke:#000000;stroke-width:0.6"
               x="114.58015"
               xlink:href="#m43a3c4c806"
               y="189"
               id="use81"
               width="100%"
               height="100%" />
          </g>
        </g>
      </g>
      <g
         id="xtick_10">
        <g
           id="line2d_10">
          <g
             id="g89">
            <use
               style="stroke:#000000;stroke-width:0.6"
               x="157.03641"
               xlink:href="#m43a3c4c806"
               y="189"
               id="use87"
               width="100%"
               height="100%" />
          </g>
        </g>
      </g>
      <g
         id="xtick_11">
        <g
           id="line2d_11">
          <g
             id="g95">
            <use
               style="stroke:#000000;stroke-width:0.6"
               x="178.59479"
               xlink:href="#m43a3c4c806"
               y="189"
               id="use93"
               width="100%"
               height="100%" />
          </g>
        </g>
      </g>
      <g
         id="xtick_12">
        <g
           id="line2d_12">
          <g
             id="g101">
            <use
               style="stroke:#000000;stroke-width:0.6"
               x="193.8907"
               xlink:href="#m43a3c4c806"
               y="189"
               id="use99"
               width="100%"
               height="100%" />
          </g>
        </g>
      </g>
      <g
         id="text_2">
        <!-- Blow count ($N$) -->
        <g
           transform="matrix(0.09,0,0,-0.09,78.69454,213.80933)"
           id="g142">
          <defs
             id="defs116">
            <path
               d="m 5.203125,68 v -2.609375 c 6.890625,0 8,0 8,-4.5 v -53.84375 c 0,-4.453125 -1.109375,-4.453125 -8,-4.453125 v -2.59375 h 34.390625 c 12.8125,0 21.109375,9.03125 21.109375,18.046875 0,8.921875 -8.203125,16.546875 -18.90625,17.25 9.609375,1.890625 16.296875,8.296875 16.296875,15.890625 0,8.3125 -8.1875,16.8125 -21.09375,16.8125 z m 14.296875,-32 v 25.5 c 0,3.390625 0.203125,3.890625 4.203125,3.890625 h 12.796875 c 9.90625,0 14.296875,-8 14.296875,-14.203125 0,-7.59375 -6.09375,-15.1875 -16.890625,-15.1875 z m 4.203125,-33.40625 c -4,0 -4.203125,0.5 -4.203125,3.859375 v 27.9375 h 18.5 c 10.296875,0 15.296875,-9.015625 15.296875,-16.25 0,-7.234375 -5.703125,-15.546875 -16.59375,-15.546875 z"
               id="CMR17-66" />
            <path
               d="m 15.296875,69 -11.890625,-1.109375 v -2.59375 c 5.890625,0 6.796875,-0.59375 6.796875,-5.375 v -53.0625 c 0,-3.765625 -0.40625,-4.265625 -6.796875,-4.265625 v -2.59375 c 2.390625,0.1875 6.796875,0.1875 9.296875,0.1875 2.59375,0 7,0 9.390625,-0.1875 v 2.59375 c -6.390625,0 -6.796875,0.390625 -6.796875,4.265625 z"
               id="CMR17-108" />
            <path
               d="m 43.09375,21.1875 c 0,12.8125 -9.296875,22.8125 -20.1875,22.8125 -10.90625,0 -20.203125,-10 -20.203125,-22.8125 0,-12.59375 9.296875,-22.1875 20.203125,-22.1875 10.890625,0 20.1875,9.59375 20.1875,22.1875 z m -20.1875,-20.390625 c -4.703125,0 -8.703125,2.796875 -11,6.703125 -2.5,4.5 -2.8125,10.09375 -2.8125,14.5 0,4.1875 0.203125,9.390625 2.8125,13.890625 2,3.296875 5.890625,6.5 11,6.5 4.5,0 8.296875,-2.5 10.6875,-6 3.109375,-4.703125 3.109375,-11.296875 3.109375,-14.390625 0,-3.90625 -0.203125,-9.90625 -2.90625,-14.703125 -2.796875,-4.609375 -7.09375,-6.5 -10.890625,-6.5 z"
               id="CMR17-111" />
            <path
               d="m 58.203125,34.15625 c 2,5.9375 6,6.140625 7.5,6.234375 v 2.609375 c -2,-0.109375 -4,-0.203125 -6,-0.203125 -1.90625,0 -6.203125,0 -7.90625,0.203125 v -2.609375 c 3.109375,-0.203125 4.796875,-2.015625 4.796875,-4.515625 0,-0.703125 -0.1875,-1.609375 -0.390625,-2.3125 l -9.40625,-27.34375 -10.203125,29.65625 c -0.1875,0.703125 -0.5,1.5 -0.5,1.90625 0,2.609375 3.40625,2.609375 5,2.609375 v 2.609375 c -2.296875,-0.203125 -6.5,-0.203125 -8.890625,-0.203125 -2.5,0 -5.109375,0 -7.40625,0.203125 v -2.609375 c 5.5,0 5.5,-0.203125 7.609375,-6.53125 l -9.203125,-26.9375 -9.90625,29.046875 c -0.5,1.3125 -0.5,1.515625 -0.5,1.8125 0,2.609375 3.40625,2.609375 5,2.609375 v 2.609375 c -2.390625,-0.203125 -6.59375,-0.203125 -9.09375,-0.203125 -2.203125,0 -5.609375,0 -7.703125,0.203125 v -2.609375 c 4.40625,0 5.5,-0.296875 6.59375,-3.625 l 12.3125,-36.171875 c 0.390625,-1.296875 0.6875,-1.59375 1.5,-1.59375 0.6875,0 1.09375,0.1875 1.59375,1.6875 l 10.296875,30.359375 10.40625,-30.359375 c 0.5,-1.5 0.890625,-1.6875 1.59375,-1.6875 0.796875,0 1.109375,0.296875 1.5,1.59375 z"
               id="CMR17-119" />
            <path
               d="m 34.90625,35 c -1.90625,0 -4.703125,0 -4.703125,-3.515625 0,-2.796875 2.296875,-3.59375 3.59375,-3.59375 0.703125,0 3.609375,0.296875 3.609375,3.796875 0,7 -6.8125,12.3125 -14.5,12.3125 -10.609375,0 -19.609375,-9.609375 -19.609375,-22.453125 0,-13.40625 9.40625,-22.546875 19.609375,-22.546875 12.390625,0 15.5,11.5625 15.5,12.671875 0,0.40625 -0.109375,0.703125 -0.8125,0.703125 -0.6875,0 -0.796875,-0.09375 -1.1875,-1.40625 -2.609375,-8.15625 -8.3125,-10.171875 -12.609375,-10.171875 -6.390625,0 -14.09375,5.9375 -14.09375,20.84375 0,15.203125 7.390625,20.546875 13.296875,20.546875 3.90625,0 9.703125,-1.84375 11.90625,-7.1875 z"
               id="CMR17-99" />
            <path
               d="m 29.40625,42.890625 v -2.59375 c 5.890625,0 6.796875,-0.609375 6.796875,-5.46875 v -18.375 c 0,-8.484375 -4.5,-15.859375 -11.90625,-15.859375 -8.203125,0 -8.890625,4.953125 -8.890625,10.203125 v 33.203125 l -12.109375,-1.109375 v -2.59375 c 4,0 6.703125,0 6.796875,-4.046875 v -19.390625 c 0,-6.765625 0,-11.109375 2.609375,-13.9375 1.296875,-1.3125 3.796875,-3.921875 11,-3.921875 8.5,0 11.796875,7.25 12.59375,9.375 h 0.109375 v -9.375 l 11.890625,0.796875 v 2.609375 c -5.890625,0 -6.796875,0.609375 -6.796875,5.453125 v 36.140625 z"
               id="CMR17-117" />
            <path
               d="m 41.5,30.53125 c 0,5.125 -1,13.46875 -12.796875,13.46875 -7.90625,0 -12,-6.125 -13.5,-10.15625 h -0.109375 v 10.15625 l -11.796875,-1.109375 v -2.609375 c 5.90625,0 6.796875,-0.59375 6.796875,-5.421875 v -27.9375 c 0,-3.828125 -0.390625,-4.328125 -6.796875,-4.328125 v -2.59375 c 2.40625,0.1875 6.796875,0.1875 9.40625,0.1875 2.59375,0 7.09375,0 9.5,-0.1875 v 2.59375 c -6.40625,0 -6.796875,0.40625 -6.796875,4.328125 v 19.296875 c 0,9.234375 5.59375,16.171875 12.59375,16.171875 7.40625,0 8.203125,-6.625 8.203125,-11.453125 v -24.015625 c 0,-3.828125 -0.40625,-4.328125 -6.796875,-4.328125 v -2.59375 c 2.390625,0.1875 6.796875,0.1875 9.390625,0.1875 2.609375,0 7.109375,0 9.5,-0.1875 v 2.59375 c -6.390625,0 -6.796875,0.40625 -6.796875,4.328125 z"
               id="CMR17-110" />
            <path
               d="m 15.09375,40.390625 h 14 v 2.609375 h -14 v 19 h -1.796875 c -0.203125,-10.5625 -3.703125,-19.8125 -12.203125,-20.015625 v -1.59375 h 8.703125 v -28.234375 c 0,-1.921875 0,-13.15625 11.609375,-13.15625 5.890625,0 9.296875,5.8125 9.296875,13.25 v 5.734375 h -1.796875 v -5.640625 c 0,-6.921875 -2.703125,-11.546875 -6.90625,-11.546875 -2.90625,0 -6.90625,2 -6.90625,11.15625 z"
               id="CMR17-116" />
            <path
               d="m 30.59375,-24.40625 c 0,0.09375 0,0.296875 -0.296875,0.59375 -4.59375,4.703125 -16.890625,17.515625 -16.890625,48.75 0,31.234375 12.09375,43.9375 17,48.953125 0,0.09375 0.1875,0.296875 0.1875,0.59375 0,0.3125 -0.296875,0.515625 -0.6875,0.515625 -1.109375,0 -9.609375,-7.421875 -14.5,-18.4375 -5,-11.109375 -6.40625,-21.90625 -6.40625,-31.515625 0,-7.21875 0.703125,-19.421875 6.703125,-32.34375 4.796875,-10.40625 13,-17.703125 14.203125,-17.703125 0.5,0 0.6875,0.1875 0.6875,0.59375 z"
               id="CMR17-40" />
            <path
               d="m 74,57.53125 c 1.09375,4.28125 2.703125,7.265625 10.296875,7.5625 0.296875,0 1.5,0.09375 1.5,1.796875 0,1.109375 -0.890625,1.109375 -1.296875,1.109375 -2,0 -7.09375,-0.203125 -9.09375,-0.203125 h -4.8125 c -1.390625,0 -3.1875,0.203125 -4.59375,0.203125 -0.59375,0 -1.796875,0 -1.796875,-1.90625 0,-1 0.796875,-1 1.5,-1 6,-0.203125 6.390625,-2.484375 6.390625,-4.28125 0,-0.890625 -0.09375,-1.1875 -0.390625,-2.59375 l -11.296875,-44.875 -21.40625,52.953125 c -0.703125,1.59375 -0.796875,1.703125 -3,1.703125 h -12.203125 c -2,0 -2.890625,0 -2.890625,-1.90625 0,-1 0.6875,-1 2.59375,-1 0.5,0 6.40625,0 6.40625,-0.890625 0,-0.203125 -0.203125,-1 -0.3125,-1.296875 l -13.296875,-52.75 c -1.203125,-4.875 -3.59375,-6.96875 -10.203125,-7.265625 -0.5,0 -1.5,-0.09375 -1.5,-1.890625 0,-1 1,-1 1.3125,-1 2,0 7.09375,0.1875 9.09375,0.1875 h 4.796875 c 1.40625,0 3.109375,-0.1875 4.5,-0.1875 0.703125,0 1.796875,0 1.796875,1.890625 0,0.90625 -1,1 -1.390625,1 -3.296875,0.09375 -6.5,0.703125 -6.5,4.28125 0,0.796875 0.203125,1.6875 0.390625,2.484375 l 13.5,53.25 c 0.609375,-1 0.609375,-1.203125 1,-2.09375 l 23.8125,-59.015625 c 0.5,-1.203125 0.6875,-1.796875 1.59375,-1.796875 1,0 1.09375,0.296875 1.5,2 z"
               id="CMMI12-78" />
            <path
               d="m 26.296875,24.9375 c 0,7.203125 -0.703125,19.421875 -6.703125,32.328125 -4.796875,10.421875 -13,17.734375 -14.1875,17.734375 -0.3125,0 -0.703125,-0.109375 -0.703125,-0.609375 0,-0.203125 0.09375,-0.296875 0.203125,-0.5 4.796875,-5.015625 17,-17.71875 17,-48.84375 0,-31.234375 -12.109375,-43.953125 -17,-48.953125 -0.109375,-0.203125 -0.203125,-0.296875 -0.203125,-0.5 0,-0.5 0.390625,-0.59375 0.703125,-0.59375 1.09375,0 9.59375,7.390625 14.5,18.40625 5,11.109375 6.390625,21.921875 6.390625,31.53125 z"
               id="CMR17-41" />
          </defs>
          <use
             transform="scale(0.996264)"
             xlink:href="#CMR17-66"
             id="use118"
             x="0"
             y="0"
             width="100%"
             height="100%" />
          <use
             transform="matrix(0.996264,0,0,0.996264,65.188754,0)"
             xlink:href="#CMR17-108"
             id="use120"
             x="0"
             y="0"
             width="100%"
             height="100%" />
          <use
             transform="matrix(0.996264,0,0,0.996264,90.059813,0)"
             xlink:href="#CMR17-111"
             id="use122"
             x="0"
             y="0"
             width="100%"
             height="100%" />
          <use
             transform="matrix(0.996264,0,0,0.996264,133.14784,0)"
             xlink:href="#CMR17-119"
             id="use124"
             x="0"
             y="0"
             width="100%"
             height="100%" />
          <use
             transform="matrix(0.996264,0,0,0.996264,229.73368,0)"
             xlink:href="#CMR17-99"
             id="use126"
             x="0"
             y="0"
             width="100%"
             height="100%" />
          <use
             transform="matrix(0.996264,0,0,0.996264,270.21934,0)"
             xlink:href="#CMR17-111"
             id="use128"
             x="0"
             y="0"
             width="100%"
             height="100%" />
          <use
             transform="matrix(0.996264,0,0,0.996264,315.90982,0)"
             xlink:href="#CMR17-117"
             id="use130"
             x="0"
             y="0"
             width="100%"
             height="100%" />
          <use
             transform="matrix(0.996264,0,0,0.996264,366.80519,0)"
             xlink:href="#CMR17-110"
             id="use132"
             x="0"
             y="0"
             width="100%"
             height="100%" />
          <use
             transform="matrix(0.996264,0,0,0.996264,415.09811,0)"
             xlink:href="#CMR17-116"
             id="use134"
             x="0"
             y="0"
             width="100%"
             height="100%" />
          <use
             transform="matrix(0.996264,0,0,0.996264,480.45484,0)"
             xlink:href="#CMR17-40"
             id="use136"
             x="0"
             y="0"
             width="100%"
             height="100%" />
          <use
             transform="matrix(0.996264,0,0,0.996264,515.73561,0)"
             xlink:href="#CMMI12-78"
             id="use138"
             x="0"
             y="0"
             width="100%"
             height="100%" />
          <use
             transform="matrix(0.996264,0,0,0.996264,604.25738,0)"
             xlink:href="#CMR17-41"
             id="use140"
             x="0"
             y="0"
             width="100%"
             height="100%" />
        </g>
      </g>
    </g>
    <g
       id="matplotlib.axis_2">
      <g
         id="ytick_1">
        <g
           id="line2d_13">
          <defs
             id="defs147">
            <path
               d="m 0,0 h -3.5"
               id="m289406d53f"
               style="stroke:#000000;stroke-width:0.8" />
          </defs>
          <g
             id="g151">
            <use
               style="stroke:#000000;stroke-width:0.8"
               x="27"
               xlink:href="#m289406d53f"
               y="163.97971"
               id="use149"
               width="100%"
               height="100%" />
          </g>
        </g>
        <g
           id="text_3">
          <!-- $\mathdefault{40}$ -->
          <g
             transform="matrix(0.08,0,0,-0.08,11.531634,166.74711)"
             id="g161">
            <defs
               id="defs155">
              <path
                 d="m 33.59375,64.796875 c 0,2.09375 -0.09375,2.203125 -1.890625,2.203125 l -29.703125,-47.40625 v -2.59375 h 25.796875 v -9.8125 c 0,-3.59375 -0.203125,-4.59375 -7.203125,-4.59375 h -1.890625 v -2.59375 c 3.203125,0.1875 8.59375,0.1875 12,0.1875 3.390625,0 8.796875,0 12,-0.1875 v 2.59375 h -1.90625 c -7,0 -7.203125,1 -7.203125,4.59375 v 9.8125 h 10.203125 v 2.59375 h -10.203125 z m -5.5,-6.625 v -38.578125 h -24.09375 z"
                 id="CMR17-52" />
            </defs>
            <use
               transform="scale(0.996264)"
               xlink:href="#CMR17-52"
               id="use157"
               x="0"
               y="0"
               width="100%"
               height="100%" />
            <use
               transform="matrix(0.996264,0,0,0.996264,45.690477,0)"
               xlink:href="#CMR17-48"
               id="use159"
               x="0"
               y="0"
               width="100%"
               height="100%" />
          </g>
        </g>
      </g>
      <g
         id="ytick_2">
        <g
           id="line2d_14">
          <g
             id="g167">
            <use
               style="stroke:#000000;stroke-width:0.8"
               x="27"
               xlink:href="#m289406d53f"
               y="135.70293"
               id="use165"
               width="100%"
               height="100%" />
          </g>
        </g>
        <g
           id="text_4">
          <!-- $\mathdefault{45}$ -->
          <g
             transform="matrix(0.08,0,0,-0.08,11.531634,138.47033)"
             id="g177">
            <defs
               id="defs171">
              <path
                 d="m 11.40625,58.59375 c 1,-0.40625 5.09375,-1.703125 9.296875,-1.703125 9.296875,0 14.390625,5 17.296875,7.796875 0,0.796875 0,1.3125 -0.59375,1.3125 -0.109375,0 -0.3125,0 -1.109375,-0.40625 -3.5,-1.5 -7.59375,-2.59375 -12.59375,-2.59375 -3,0 -7.5,0.359375 -12.40625,2.484375 -1.09375,0.515625 -1.296875,0.515625 -1.390625,0.515625 -0.5,0 -0.609375,-0.109375 -0.609375,-2.09375 v -29.046875 c 0,-1.84375 0,-2.359375 1,-2.359375 0.5,0 0.703125,0.203125 1.203125,0.921875 3.203125,4.625 7.59375,6.578125 12.59375,6.578125 3.5,0 11,-2.265625 11,-19.796875 0,-3.21875 0,-9.015625 -3,-13.609375 -2.5,-4.109375 -6.390625,-6.203125 -10.6875,-6.203125 -6.609375,0 -13.3125,4.59375 -15.109375,12.296875 0.40625,-0.09375 1.203125,-0.296875 1.609375,-0.296875 1.296875,0 3.796875,0.703125 3.796875,3.796875 0,2.703125 -1.90625,3.8125 -3.796875,3.8125 -2.3125,0 -3.8125,-1.40625 -3.8125,-4.203125 0,-8.703125 6.90625,-17.796875 17.5,-17.796875 10.3125,0 20.109375,8.890625 20.109375,21.796875 0,12.296875 -7.796875,21.796875 -17.5,21.796875 -5.109375,0 -9.40625,-1.90625 -12.796875,-5.59375 z"
                 id="CMR17-53" />
            </defs>
            <use
               transform="scale(0.996264)"
               xlink:href="#CMR17-52"
               id="use173"
               x="0"
               y="0"
               width="100%"
               height="100%" />
            <use
               transform="matrix(0.996264,0,0,0.996264,45.690477,0)"
               xlink:href="#CMR17-53"
               id="use175"
               x="0"
               y="0"
               width="100%"
               height="100%" />
          </g>
        </g>
      </g>
      <g
         id="ytick_3">
        <g
           id="line2d_15">
          <g
             id="g183">
            <use
               style="stroke:#000000;stroke-width:0.8"
               x="27"
               xlink:href="#m289406d53f"
               y="107.42616"
               id="use181"
               width="100%"
               height="100%" />
          </g>
        </g>
        <g
           id="text_5">
          <!-- $\mathdefault{50}$ -->
          <g
             transform="matrix(0.08,0,0,-0.08,11.531634,110.19356)"
             id="g190">
            <use
               transform="scale(0.996264)"
               xlink:href="#CMR17-53"
               id="use186"
               x="0"
               y="0"
               width="100%"
               height="100%" />
            <use
               transform="matrix(0.996264,0,0,0.996264,45.690477,0)"
               xlink:href="#CMR17-48"
               id="use188"
               x="0"
               y="0"
               width="100%"
               height="100%" />
          </g>
        </g>
      </g>
      <g
         id="ytick_4">
        <g
           id="line2d_16">
          <g
             id="g196">
            <use
               style="stroke:#000000;stroke-width:0.8"
               x="27"
               xlink:href="#m289406d53f"
               y="79.149384"
               id="use194"
               width="100%"
               height="100%" />
          </g>
        </g>
        <g
           id="text_6">
          <!-- $\mathdefault{55}$ -->
          <g
             transform="matrix(0.08,0,0,-0.08,11.531634,81.916786)"
             id="g203">
            <use
               transform="scale(0.996264)"
               xlink:href="#CMR17-53"
               id="use199"
               x="0"
               y="0"
               width="100%"
               height="100%" />
            <use
               transform="matrix(0.996264,0,0,0.996264,45.690477,0)"
               xlink:href="#CMR17-53"
               id="use201"
               x="0"
               y="0"
               width="100%"
               height="100%" />
          </g>
        </g>
      </g>
      <g
         id="ytick_5">
        <g
           id="line2d_17">
          <g
             id="g209">
            <use
               style="stroke:#000000;stroke-width:0.8"
               x="27"
               xlink:href="#m289406d53f"
               y="50.872612"
               id="use207"
               width="100%"
               height="100%" />
          </g>
        </g>
        <g
           id="text_7">
          <!-- $\mathdefault{60}$ -->
          <g
             transform="matrix(0.08,0,0,-0.08,11.531634,53.640013)"
             id="g219">
            <defs
               id="defs213">
              <path
                 d="m 10.59375,34.34375 c 0,23.65625 11.203125,29.34375 17.703125,29.34375 2.109375,0 7.203125,-0.421875 9.203125,-4.59375 -1.59375,0 -4.59375,0 -4.59375,-3.5 0,-2.703125 2.1875,-3.59375 3.59375,-3.59375 0.90625,0 3.59375,0.390625 3.59375,3.796875 0,6.5 -5,10.203125 -11.890625,10.203125 -11.90625,0 -24.40625,-12.703125 -24.40625,-34.578125 0,-27.40625 11.296875,-33.421875 19.296875,-33.421875 9.703125,0 18.90625,8.734375 18.90625,22.234375 0,12.59375 -8.09375,21.765625 -18.296875,21.765625 -6.109375,0 -10.609375,-4.03125 -13.109375,-11.078125 z m 12.5,-33.953125 c -12.296875,0 -12.296875,18.546875 -12.296875,22.265625 0,7.25 3.40625,17.734375 12.703125,17.734375 1.703125,0 6.59375,0 9.90625,-6.953125 1.796875,-3.921875 1.796875,-8.0625 1.796875,-13.09375 0,-5.4375 0,-9.46875 -2.109375,-13.5 -2.1875,-4.140625 -5.390625,-6.453125 -10,-6.453125 z"
                 id="CMR17-54" />
            </defs>
            <use
               transform="scale(0.996264)"
               xlink:href="#CMR17-54"
               id="use215"
               x="0"
               y="0"
               width="100%"
               height="100%" />
            <use
               transform="matrix(0.996264,0,0,0.996264,45.690477,0)"
               xlink:href="#CMR17-48"
               id="use217"
               x="0"
               y="0"
               width="100%"
               height="100%" />
          </g>
        </g>
      </g>
      <g
         id="text_8">
        <!-- Water content ($w$) [\%] -->
        <g
           transform="matrix(0,-0.09,-0.09,0,5.29004,152.62124)"
           id="g269">
          <defs
             id="defs231">
            <path
               d="m 86.296875,58.984375 c 0.90625,2.703125 2.40625,6.21875 8.203125,6.40625 v 2.609375 c -1.703125,-0.109375 -5.203125,-0.203125 -7,-0.203125 -2.5,0 -6.90625,0 -9.296875,0.203125 v -2.609375 c 4.5,-0.09375 6.390625,-2.59375 6.390625,-5 0,-0.703125 -0.09375,-1.109375 -0.5,-2.203125 l -15.5,-49.484375 -16.296875,52.078125 c -0.296875,1.015625 -0.390625,1.40625 -0.390625,1.8125 0,2.796875 4.390625,2.796875 6.296875,2.796875 v 2.609375 c -2.90625,-0.203125 -7.90625,-0.203125 -11,-0.203125 -2.5,0 -7,0 -9.296875,0.203125 v -2.609375 c 4.59375,0 5.796875,-0.296875 6.796875,-2.09375 0.390625,-0.90625 2,-6.109375 2,-6.421875 0,-0.390625 -0.203125,-1 -0.296875,-1.296875 l -14.703125,-46.765625 -16.296875,51.96875 c -0.5,1.40625 -0.5,1.609375 -0.5,1.8125 0,2.796875 4.390625,2.796875 6.390625,2.796875 v 2.609375 c -2.890625,-0.203125 -7.890625,-0.203125 -11,-0.203125 -2.59375,0 -7,0 -9.390625,0.203125 v -2.609375 c 6,0 6.390625,-0.59375 7.390625,-3.796875 l 19.5,-61.90625 c 0.5,-1.5 0.5,-1.6875 1.40625,-1.6875 0.796875,0 1.09375,0.1875 1.5,1.59375 l 17,54.28125 17,-54.28125 c 0.390625,-1.40625 0.703125,-1.59375 1.5,-1.59375 0.890625,0 0.890625,0.1875 1.390625,1.6875 z"
               id="CMR17-87" />
            <path
               d="m 36,25.875 c 0,6.125 0,9.671875 -4.203125,13.71875 -3.703125,3.390625 -8,4.40625 -11.390625,4.40625 -7.90625,0 -13.609375,-6.375 -13.609375,-13.109375 0,-3.703125 3,-3.890625 3.609375,-3.890625 1.296875,0 3.59375,0.796875 3.59375,3.59375 0,2.5 -1.90625,3.59375 -3.59375,3.59375 -0.40625,0 -0.90625,-0.09375 -1.203125,-0.1875 2.09375,6.53125 7.5,8.390625 11,8.390625 5,0 10.5,-4.5625 10.5,-13.09375 v -3.796875 c -5.90625,-0.203125 -13,-1 -18.609375,-4.046875 -6.296875,-3.53125 -8.09375,-8.609375 -8.09375,-12.453125 0,-7.796875 9,-10 14.296875,-10 5.5,0 10.609375,3.109375 12.796875,8.890625 0.203125,-4.46875 3,-8.5 7.40625,-8.5 2.09375,0 7.40625,1.40625 7.40625,9.40625 v 5.671875 h -1.8125 v -5.765625 c 0,-6.1875 -2.6875,-7 -4,-7 -4.09375,0 -4.09375,5.265625 -4.09375,9.734375 z m -5.296875,-12.015625 c 0,-8.8125 -6.203125,-13.265625 -11.703125,-13.265625 -5,0 -8.90625,3.75 -8.90625,8.40625 0,3.046875 1.3125,8.40625 7.109375,11.65625 4.796875,2.734375 10.296875,3.140625 13.5,3.34375 z"
               id="CMR17-97" />
            <path
               d="m 38.09375,23.484375 c 0.40625,0.40625 0.40625,0.609375 0.40625,1.609375 0,10.078125 -5.40625,18.90625 -16.796875,18.90625 -10.609375,0 -19,-10.015625 -19,-22.21875 0,-13.125 9.5,-22.78125 20.09375,-22.78125 11.203125,0 15.609375,10.671875 15.609375,12.796875 0,0.703125 -0.609375,0.703125 -0.8125,0.703125 -0.6875,0 -0.796875,-0.203125 -1.1875,-1.421875 -2.203125,-6.859375 -7.703125,-10.28125 -12.90625,-10.28125 -4.296875,0 -8.59375,2.421875 -11.296875,6.859375 -3.109375,5.140625 -3.109375,11.09375 -3.109375,15.828125 z m -28.890625,1.515625 c 0.703125,14.234375 8.390625,17.390625 12.390625,17.390625 6.8125,0 11.40625,-6.328125 11.5,-17.390625 z"
               id="CMR17-101" />
            <path
               d="m 15,23.703125 c 0,9.640625 4.09375,18.6875 11.59375,18.6875 0.703125,0 1.40625,-0.09375 2.109375,-0.40625 0,0 -2.203125,-0.703125 -2.203125,-3.3125 0,-2.40625 1.90625,-3.40625 3.40625,-3.40625 1.1875,0 3.390625,0.703125 3.390625,3.515625 0,3.203125 -3.203125,5.21875 -6.59375,5.21875 -7.609375,0 -10.90625,-7.4375 -11.90625,-10.953125 h -0.09375 v 10.953125 l -11.609375,-1.109375 v -2.609375 c 5.90625,0 6.8125,-0.59375 6.8125,-5.421875 v -27.9375 c 0,-3.828125 -0.40625,-4.328125 -6.8125,-4.328125 v -2.59375 c 2.40625,0.1875 7,0.1875 9.609375,0.1875 2.890625,0 8,0 10.703125,-0.1875 v 2.59375 c -7.203125,0 -8.40625,0 -8.40625,4.515625 z"
               id="CMR17-114" />
            <path
               d="m 34.40625,6.078125 c 2.1875,-5.984375 8.390625,-7.078125 12.1875,-7.078125 7.609375,0 12.109375,6.578125 14.90625,13.46875 2.296875,5.78125 6,18.953125 6,24.84375 0,6.078125 -3.09375,6.6875 -4,6.6875 -2.40625,0 -4.59375,-2.40625 -4.59375,-4.40625 0,-1.1875 0.6875,-1.890625 1.1875,-2.28125 0.90625,-0.90625 3.5,-3.59375 3.5,-8.78125 0,-3.390625 -2.796875,-12.78125 -4.890625,-17.46875 -2.796875,-6.078125 -6.5,-10.0625 -11.703125,-10.0625 -5.59375,0 -7.40625,4.1875 -7.40625,8.765625 0,2.890625 0.90625,6.390625 1.3125,8.078125 l 4.1875,16.765625 c 0.5,2 1.40625,5.484375 1.40625,5.875 0,1.5 -1.203125,2.515625 -2.703125,2.515625 -2.890625,0 -3.59375,-2.515625 -4.203125,-4.90625 -1,-3.890625 -5.1875,-20.75 -5.59375,-22.9375 -0.40625,-1.703125 -0.40625,-2.796875 -0.40625,-4.984375 0,-2.390625 -3.1875,-6.1875 -3.296875,-6.390625 -1.09375,-1.09375 -2.703125,-2.78125 -5.796875,-2.78125 -7.90625,0 -7.90625,7.46875 -7.90625,9.171875 0,3.1875 0.703125,7.578125 5.203125,19.453125 1.203125,3.09375 1.703125,4.390625 1.703125,6.390625 0,4.1875 -3,7.984375 -7.90625,7.984375 -9.1875,0 -12.890625,-14.46875 -12.890625,-15.28125 0,-0.390625 0.390625,-0.890625 1.09375,-0.890625 0.90625,0 1,0.40625 1.40625,1.796875 2.5,8.78125 6.390625,12.359375 10.09375,12.359375 1,0 2.609375,-0.09375 2.609375,-3.28125 0,-0.5 0,-2.59375 -1.703125,-6.984375 -4.703125,-12.46875 -5.703125,-16.5625 -5.703125,-20.34375 0,-10.484375 8.59375,-12.375 13.703125,-12.375 1.703125,0 6.203125,0 10.203125,7.078125 z"
               id="CMMI12-119" />
            <path
               d="m 23.5,-25 v 3.5 h -9.40625 v 92.984375 h 9.40625 v 3.515625 h -12.90625 v -100 z"
               id="CMR17-91" />
            <path
               d="m 72.5,14.5 c 0,11.59375 -5.703125,20.09375 -12.40625,20.09375 -6.796875,0 -13.6875,-7.90625 -13.6875,-20.09375 0,-12.203125 6.796875,-20.109375 13.6875,-20.109375 6.703125,0 12.40625,8.40625 12.40625,20.109375 z m -12.296875,-18.5 c -2.609375,0 -9.109375,2.390625 -9.109375,18.5 0,16.1875 6.5,18.5 9.109375,18.5 5.5,0 10.5,-7.90625 10.5,-18.5 0,-10.609375 -5,-18.5 -10.5,-18.5 z m 3.59375,75.4375 c 0.703125,1.125 0.796875,1.234375 0.796875,1.75 0,1.203125 -0.890625,1.8125 -1.6875,1.8125 -1,0 -1.40625,-0.703125 -2.109375,-1.515625 -5.796875,-8.5625 -13.796875,-9.484375 -17.890625,-9.484375 -10,0 -16.109375,5.984375 -18,7.84375 -1.3125,1.234375 -3.203125,3.15625 -6.609375,3.15625 -6.796875,0 -13.703125,-8.109375 -13.703125,-20.375 0,-12.15625 6.8125,-20.03125 13.703125,-20.03125 6.703125,0 12.40625,8.375 12.40625,20.03125 0,6.875 -2.109375,11.640625 -2.40625,12.265625 6.109375,-4 12.109375,-4.5 14.703125,-4.5 6.40625,0 11,2.421875 13.5,4.1875 l 0.09375,-0.109375 -43.1875,-68.375 c -0.90625,-1.40625 -0.90625,-1.59375 -0.90625,-1.90625 0,-1.09375 0.90625,-1.796875 1.796875,-1.796875 0.90625,0 1.203125,0.5 1.90625,1.609375 z m -45.390625,-35.25 c -2.609375,0 -9.109375,2.390625 -9.109375,18.4375 0,16.390625 6.5,18.765625 9.109375,18.765625 5.5,0 10.5,-8.15625 10.5,-18.765625 0,-10.5625 -5,-18.4375 -10.5,-18.4375 z"
               id="CMR17-37" />
            <path
               d="m 14.296875,75 h -12.890625 v -3.515625 h 9.390625 v -92.984375 h -9.390625 v -3.5 h 12.890625 z"
               id="CMR17-93" />
          </defs>
          <use
             transform="scale(0.996264)"
             xlink:href="#CMR17-87"
             id="use233"
             x="0"
             y="0"
             width="100%"
             height="100%" />
          <use
             transform="matrix(0.996264,0,0,0.996264,87.289395,0)"
             xlink:href="#CMR17-97"
             id="use235"
             x="0"
             y="0"
             width="100%"
             height="100%" />
          <use
             transform="matrix(0.996264,0,0,0.996264,132.97987,0)"
             xlink:href="#CMR17-116"
             id="use237"
             x="0"
             y="0"
             width="100%"
             height="100%" />
          <use
             transform="matrix(0.996264,0,0,0.996264,168.26064,0)"
             xlink:href="#CMR17-101"
             id="use239"
             x="0"
             y="0"
             width="100%"
             height="100%" />
          <use
             transform="matrix(0.996264,0,0,0.996264,208.7463,0)"
             xlink:href="#CMR17-114"
             id="use241"
             x="0"
             y="0"
             width="100%"
             height="100%" />
          <use
             transform="matrix(0.996264,0,0,0.996264,274.10303,0)"
             xlink:href="#CMR17-99"
             id="use243"
             x="0"
             y="0"
             width="100%"
             height="100%" />
          <use
             transform="matrix(0.996264,0,0,0.996264,314.58869,0)"
             xlink:href="#CMR17-111"
             id="use245"
             x="0"
             y="0"
             width="100%"
             height="100%" />
          <use
             transform="matrix(0.996264,0,0,0.996264,360.27917,0)"
             xlink:href="#CMR17-110"
             id="use247"
             x="0"
             y="0"
             width="100%"
             height="100%" />
          <use
             transform="matrix(0.996264,0,0,0.996264,408.57209,0)"
             xlink:href="#CMR17-116"
             id="use249"
             x="0"
             y="0"
             width="100%"
             height="100%" />
          <use
             transform="matrix(0.996264,0,0,0.996264,443.85285,0)"
             xlink:href="#CMR17-101"
             id="use251"
             x="0"
             y="0"
             width="100%"
             height="100%" />
          <use
             transform="matrix(0.996264,0,0,0.996264,484.33852,0)"
             xlink:href="#CMR17-110"
             id="use253"
             x="0"
             y="0"
             width="100%"
             height="100%" />
          <use
             transform="matrix(0.996264,0,0,0.996264,532.63143,0)"
             xlink:href="#CMR17-116"
             id="use255"
             x="0"
             y="0"
             width="100%"
             height="100%" />
          <use
             transform="matrix(0.996264,0,0,0.996264,597.98817,0)"
             xlink:href="#CMR17-40"
             id="use257"
             x="0"
             y="0"
             width="100%"
             height="100%" />
          <use
             transform="matrix(0.996264,0,0,0.996264,633.26893,0)"
             xlink:href="#CMMI12-119"
             id="use259"
             x="0"
             y="0"
             width="100%"
             height="100%" />
          <use
             transform="matrix(0.996264,0,0,0.996264,705.68185,0)"
             xlink:href="#CMR17-41"
             id="use261"
             x="0"
             y="0"
             width="100%"
             height="100%" />
          <use
             transform="matrix(0.996264,0,0,0.996264,771.03858,0)"
             xlink:href="#CMR17-91"
             id="use263"
             x="0"
             y="0"
             width="100%"
             height="100%" />
          <use
             transform="matrix(0.996264,0,0,0.996264,795.90964,0)"
             xlink:href="#CMR17-37"
             id="use265"
             x="0"
             y="0"
             width="100%"
             height="100%" />
          <use
             transform="matrix(0.996264,0,0,0.996264,872.82923,0)"
             xlink:href="#CMR17-93"
             id="use267"
             x="0"
             y="0"
             width="100%"
             height="100%" />
        </g>
      </g>
    </g>
    <g
       id="line2d_18">
      <defs
         id="defs274">
        <path
           d="m 0,-3 -0.673542,2.072949 h -2.179628 l 1.763356,1.281153 -0.673542,2.072949 1.763356,-1.281153 1.763356,1.281153 -0.673542,-2.072949 1.763356,-1.281153 h -2.179628 z"
           id="m0ff95f8bea"
           style="stroke:#f77189;stroke-linejoin:bevel" />
      </defs>
      <g
         clip-path="url(#p2f0cec355f)"
         id="g286">
        <use
           style="fill:#f77189;stroke:#f77189;stroke-linejoin:bevel"
           x="93.021767"
           xlink:href="#m0ff95f8bea"
           y="93.287773"
           id="use276"
           width="100%"
           height="100%" />
        <use
           style="fill:#f77189;stroke:#f77189;stroke-linejoin:bevel"
           x="129.87607"
           xlink:href="#m0ff95f8bea"
           y="123.82669"
           id="use278"
           width="100%"
           height="100%" />
        <use
           style="fill:#f77189;stroke:#f77189;stroke-linejoin:bevel"
           x="157.03641"
           xlink:href="#m0ff95f8bea"
           y="145.88257"
           id="use280"
           width="100%"
           height="100%" />
        <use
           style="fill:#f77189;stroke:#f77189;stroke-linejoin:bevel"
           x="174.92648"
           xlink:href="#m0ff95f8bea"
           y="171.8972"
           id="use282"
           width="100%"
           height="100%" />
        <use
           style="fill:#f77189;stroke:#f77189;stroke-linejoin:bevel"
           x="182.02628"
           xlink:href="#m0ff95f8bea"
           y="180.94577"
           id="use284"
           width="100%"
           height="100%" />
      </g>
    </g>
    <g
       id="line2d_19">
      <path
         clip-path="url(#p2f0cec355f)"
         d="m 34.609091,33.332727 152.181819,148.254543"
         style="fill:none;stroke:#000000;stroke-width:1.5;stroke-linecap:square"
         id="path289" />
    </g>
    <g
       id="patch_3">
      <path
         d="m 27,189 v -163.08"
         style="fill:none;stroke:#000000;stroke-width:0.8;stroke-linecap:square;stroke-linejoin:miter"
         id="path292" />
    </g>
    <g
       id="patch_4">
      <path
         d="m 194.4,189 v -163.08"
         style="fill:none;stroke:#000000;stroke-width:0.8;stroke-linecap:square;stroke-linejoin:miter"
         id="path295" />
    </g>
    <g
       id="patch_5">
      <path
         d="m 27,189 h 167.4"
         style="fill:none;stroke:#000000;stroke-width:0.8;stroke-linecap:square;stroke-linejoin:miter"
         id="path298" />
    </g>
    <g
       id="patch_6">
      <path
         d="m 27,25.92 h 167.4"
         style="fill:none;stroke:#000000;stroke-width:0.8;stroke-linecap:square;stroke-linejoin:miter"
         id="path301" />
    </g>
  </g>
  <defs
     id="defs309">
    <clipPath
       id="p2f0cec355f">
      <rect
         height="163.08"
         width="167.39999"
         x="27"
         y="25.92"
         id="rect306" />
    </clipPath>
  </defs>
  <path
     style="fill:none;stroke:#ff0000;stroke-width:0.75px;stroke-linecap:butt;stroke-linejoin:miter;stroke-opacity:1"
     d="m 170.98051,167.78285 v -26.14553 h -140.508736"
     id="path1377" />
</svg>
