<?xml version="1.0" encoding="utf-8" standalone="no"?>
<!DOCTYPE svg PUBLIC "-//W3C//DTD SVG 1.1//EN"
  "http://www.w3.org/Graphics/SVG/1.1/DTD/svg11.dtd">
<svg height="288pt" version="1.1" viewBox="0 0 504 288" width="504pt" xmlns="http://www.w3.org/2000/svg" xmlns:xlink="http://www.w3.org/1999/xlink">
 <metadata>
  <rdf:RDF xmlns:cc="http://creativecommons.org/ns#" xmlns:dc="http://purl.org/dc/elements/1.1/" xmlns:rdf="http://www.w3.org/1999/02/22-rdf-syntax-ns#">
   <cc:Work>
    <dc:type rdf:resource="http://purl.org/dc/dcmitype/StillImage"/>
    <dc:date>2022-02-14T06:46:35.180513</dc:date>
    <dc:format>image/svg+xml</dc:format>
    <dc:creator>
     <cc:Agent>
      <dc:title>Matplotlib v3.4.3, https://matplotlib.org/</dc:title>
     </cc:Agent>
    </dc:creator>
   </cc:Work>
  </rdf:RDF>
 </metadata>
 <defs>
  <style type="text/css">*{stroke-linecap:butt;stroke-linejoin:round;}</style>
 </defs>
 <g id="figure_1">
  <g id="patch_1">
   <path d="M 0 288 
L 504 288 
L 504 0 
L 0 0 
z
" style="fill:none;"/>
  </g>
  <g id="axes_1">
   <g id="patch_2">
    <path d="M 63 252 
L 453.6 252 
L 453.6 34.56 
L 63 34.56 
z
" style="fill:#ffffff;"/>
   </g>
   <g id="matplotlib.axis_1">
    <g id="xtick_1">
     <g id="line2d_1">
      <path clip-path="url(#p14b5e745ab)" d="M 453.6 252 
L 453.6 34.56 
" style="fill:none;stroke:#b0b0b0;stroke-linecap:square;stroke-width:0.8;"/>
     </g>
     <g id="line2d_2">
      <defs>
       <path d="M 0 0 
L 0 3.5 
" id="mc5b1216f06" style="stroke:#000000;stroke-width:0.8;"/>
      </defs>
      <g>
       <use style="stroke:#000000;stroke-width:0.8;" x="453.6" xlink:href="#mc5b1216f06" y="252"/>
      </g>
     </g>
     <g id="text_1">
      <!-- $\mathdefault{10^{-3}}$ -->
      <g transform="translate(444.661291 264.534802)scale(0.08 -0.08)">
       <defs>
        <path d="M 1702 4083 
C 1702 4217 1696 4224 1606 4224 
C 1357 3927 979 3833 621 3820 
C 602 3820 570 3820 563 3808 
C 557 3795 557 3782 557 3648 
C 755 3648 1088 3686 1344 3839 
L 1344 467 
C 1344 243 1331 166 781 166 
L 589 166 
L 589 0 
C 896 6 1216 12 1523 12 
C 1830 12 2150 6 2458 0 
L 2458 166 
L 2266 166 
C 1715 166 1702 236 1702 467 
L 1702 4083 
z
" id="CMR17-31" transform="scale(0.015625)"/>
        <path d="M 2688 2038 
C 2688 2430 2682 3099 2413 3613 
C 2176 4063 1798 4224 1466 4224 
C 1158 4224 768 4082 525 3620 
C 269 3137 243 2539 243 2038 
C 243 1671 250 1112 448 623 
C 723 -39 1216 -128 1466 -128 
C 1760 -128 2208 -7 2470 604 
C 2662 1048 2688 1568 2688 2038 
z
M 1466 -26 
C 1056 -26 813 328 723 816 
C 653 1196 653 1749 653 2109 
C 653 2604 653 3015 736 3407 
C 858 3954 1216 4121 1466 4121 
C 1728 4121 2067 3947 2189 3420 
C 2272 3054 2278 2623 2278 2109 
C 2278 1691 2278 1176 2202 797 
C 2067 96 1690 -26 1466 -26 
z
" id="CMR17-30" transform="scale(0.015625)"/>
        <path d="M 4218 1472 
C 4326 1472 4442 1472 4442 1600 
C 4442 1728 4326 1728 4218 1728 
L 755 1728 
C 646 1728 531 1728 531 1600 
C 531 1472 646 1472 755 1472 
L 4218 1472 
z
" id="CMSY10-0" transform="scale(0.015625)"/>
        <path d="M 1414 2176 
C 1984 2176 2234 1673 2234 1094 
C 2234 322 1824 25 1453 25 
C 1114 25 563 193 390 691 
C 422 678 454 678 486 678 
C 640 678 755 780 755 947 
C 755 1132 614 1216 486 1216 
C 378 1216 211 1164 211 927 
C 211 335 787 -128 1466 -128 
C 2176 -128 2720 432 2720 1087 
C 2720 1718 2208 2176 1600 2246 
C 2086 2347 2554 2776 2554 3353 
C 2554 3856 2048 4224 1472 4224 
C 890 4224 378 3862 378 3347 
C 378 3123 544 3084 627 3084 
C 762 3084 877 3167 877 3334 
C 877 3500 762 3584 627 3584 
C 602 3584 570 3584 544 3571 
C 730 3999 1235 4076 1459 4076 
C 1683 4076 2106 3966 2106 3347 
C 2106 3167 2080 2851 1862 2574 
C 1670 2329 1453 2316 1242 2297 
C 1210 2297 1062 2284 1037 2284 
C 992 2278 966 2272 966 2227 
C 966 2182 973 2176 1101 2176 
L 1414 2176 
z
" id="CMR17-33" transform="scale(0.015625)"/>
       </defs>
       <use transform="scale(0.996264)" xlink:href="#CMR17-31"/>
       <use transform="translate(45.690477 0)scale(0.996264)" xlink:href="#CMR17-30"/>
       <use transform="translate(91.380954 36.153639)scale(0.697382)" xlink:href="#CMSY10-0"/>
       <use transform="translate(145.621947 36.153639)scale(0.697382)" xlink:href="#CMR17-33"/>
      </g>
     </g>
    </g>
    <g id="xtick_2">
     <g id="line2d_3">
      <path clip-path="url(#p14b5e745ab)" d="M 375.48 252 
L 375.48 34.56 
" style="fill:none;stroke:#b0b0b0;stroke-linecap:square;stroke-width:0.8;"/>
     </g>
     <g id="line2d_4">
      <g>
       <use style="stroke:#000000;stroke-width:0.8;" x="375.48" xlink:href="#mc5b1216f06" y="252"/>
      </g>
     </g>
     <g id="text_2">
      <!-- $\mathdefault{10^{-2}}$ -->
      <g transform="translate(366.541291 264.534802)scale(0.08 -0.08)">
       <defs>
        <path d="M 2669 990 
L 2554 990 
C 2490 537 2438 460 2413 422 
C 2381 371 1920 371 1830 371 
L 602 371 
C 832 620 1280 1073 1824 1596 
C 2214 1966 2669 2400 2669 3033 
C 2669 3788 2067 4224 1395 4224 
C 691 4224 262 3603 262 3027 
C 262 2777 448 2745 525 2745 
C 589 2745 781 2783 781 3007 
C 781 3206 614 3264 525 3264 
C 486 3264 448 3257 422 3244 
C 544 3788 915 4057 1306 4057 
C 1862 4057 2227 3616 2227 3033 
C 2227 2477 1901 1998 1536 1583 
L 262 147 
L 262 0 
L 2515 0 
L 2669 990 
z
" id="CMR17-32" transform="scale(0.015625)"/>
       </defs>
       <use transform="scale(0.996264)" xlink:href="#CMR17-31"/>
       <use transform="translate(45.690477 0)scale(0.996264)" xlink:href="#CMR17-30"/>
       <use transform="translate(91.380954 36.153639)scale(0.697382)" xlink:href="#CMSY10-0"/>
       <use transform="translate(145.621947 36.153639)scale(0.697382)" xlink:href="#CMR17-32"/>
      </g>
     </g>
    </g>
    <g id="xtick_3">
     <g id="line2d_5">
      <path clip-path="url(#p14b5e745ab)" d="M 297.36 252 
L 297.36 34.56 
" style="fill:none;stroke:#b0b0b0;stroke-linecap:square;stroke-width:0.8;"/>
     </g>
     <g id="line2d_6">
      <g>
       <use style="stroke:#000000;stroke-width:0.8;" x="297.36" xlink:href="#mc5b1216f06" y="252"/>
      </g>
     </g>
     <g id="text_3">
      <!-- $\mathdefault{10^{-1}}$ -->
      <g transform="translate(288.421291 264.534802)scale(0.08 -0.08)">
       <use transform="scale(0.996264)" xlink:href="#CMR17-31"/>
       <use transform="translate(45.690477 0)scale(0.996264)" xlink:href="#CMR17-30"/>
       <use transform="translate(91.380954 36.153639)scale(0.697382)" xlink:href="#CMSY10-0"/>
       <use transform="translate(145.621947 36.153639)scale(0.697382)" xlink:href="#CMR17-31"/>
      </g>
     </g>
    </g>
    <g id="xtick_4">
     <g id="line2d_7">
      <path clip-path="url(#p14b5e745ab)" d="M 219.24 252 
L 219.24 34.56 
" style="fill:none;stroke:#b0b0b0;stroke-linecap:square;stroke-width:0.8;"/>
     </g>
     <g id="line2d_8">
      <g>
       <use style="stroke:#000000;stroke-width:0.8;" x="219.24" xlink:href="#mc5b1216f06" y="252"/>
      </g>
     </g>
     <g id="text_4">
      <!-- $\mathdefault{10^{0}}$ -->
      <g transform="translate(213.179361 264.534802)scale(0.08 -0.08)">
       <use transform="scale(0.996264)" xlink:href="#CMR17-31"/>
       <use transform="translate(45.690477 0)scale(0.996264)" xlink:href="#CMR17-30"/>
       <use transform="translate(91.380954 36.153639)scale(0.697382)" xlink:href="#CMR17-30"/>
      </g>
     </g>
    </g>
    <g id="xtick_5">
     <g id="line2d_9">
      <path clip-path="url(#p14b5e745ab)" d="M 141.12 252 
L 141.12 34.56 
" style="fill:none;stroke:#b0b0b0;stroke-linecap:square;stroke-width:0.8;"/>
     </g>
     <g id="line2d_10">
      <g>
       <use style="stroke:#000000;stroke-width:0.8;" x="141.12" xlink:href="#mc5b1216f06" y="252"/>
      </g>
     </g>
     <g id="text_5">
      <!-- $\mathdefault{10^{1}}$ -->
      <g transform="translate(135.059361 264.534802)scale(0.08 -0.08)">
       <use transform="scale(0.996264)" xlink:href="#CMR17-31"/>
       <use transform="translate(45.690477 0)scale(0.996264)" xlink:href="#CMR17-30"/>
       <use transform="translate(91.380954 36.153639)scale(0.697382)" xlink:href="#CMR17-31"/>
      </g>
     </g>
    </g>
    <g id="xtick_6">
     <g id="line2d_11">
      <path clip-path="url(#p14b5e745ab)" d="M 63 252 
L 63 34.56 
" style="fill:none;stroke:#b0b0b0;stroke-linecap:square;stroke-width:0.8;"/>
     </g>
     <g id="line2d_12">
      <g>
       <use style="stroke:#000000;stroke-width:0.8;" x="63" xlink:href="#mc5b1216f06" y="252"/>
      </g>
     </g>
     <g id="text_6">
      <!-- $\mathdefault{10^{2}}$ -->
      <g transform="translate(56.939361 264.534802)scale(0.08 -0.08)">
       <use transform="scale(0.996264)" xlink:href="#CMR17-31"/>
       <use transform="translate(45.690477 0)scale(0.996264)" xlink:href="#CMR17-30"/>
       <use transform="translate(91.380954 36.153639)scale(0.697382)" xlink:href="#CMR17-32"/>
      </g>
     </g>
    </g>
    <g id="xtick_7">
     <g id="line2d_13">
      <path clip-path="url(#p14b5e745ab)" d="M 430.083537 252 
L 430.083537 34.56 
" style="fill:none;stroke:#b0b0b0;stroke-dasharray:2.96,1.28;stroke-dashoffset:0;stroke-width:0.8;"/>
     </g>
     <g id="line2d_14">
      <defs>
       <path d="M 0 0 
L 0 2 
" id="ma190b60640" style="stroke:#000000;stroke-width:0.6;"/>
      </defs>
      <g>
       <use style="stroke:#000000;stroke-width:0.6;" x="430.083537" xlink:href="#ma190b60640" y="252"/>
      </g>
     </g>
    </g>
    <g id="xtick_8">
     <g id="line2d_15">
      <path clip-path="url(#p14b5e745ab)" d="M 416.327288 252 
L 416.327288 34.56 
" style="fill:none;stroke:#b0b0b0;stroke-dasharray:2.96,1.28;stroke-dashoffset:0;stroke-width:0.8;"/>
     </g>
     <g id="line2d_16">
      <g>
       <use style="stroke:#000000;stroke-width:0.6;" x="416.327288" xlink:href="#ma190b60640" y="252"/>
      </g>
     </g>
    </g>
    <g id="xtick_9">
     <g id="line2d_17">
      <path clip-path="url(#p14b5e745ab)" d="M 406.567073 252 
L 406.567073 34.56 
" style="fill:none;stroke:#b0b0b0;stroke-dasharray:2.96,1.28;stroke-dashoffset:0;stroke-width:0.8;"/>
     </g>
     <g id="line2d_18">
      <g>
       <use style="stroke:#000000;stroke-width:0.6;" x="406.567073" xlink:href="#ma190b60640" y="252"/>
      </g>
     </g>
    </g>
    <g id="xtick_10">
     <g id="line2d_19">
      <path clip-path="url(#p14b5e745ab)" d="M 398.996463 252 
L 398.996463 34.56 
" style="fill:none;stroke:#b0b0b0;stroke-dasharray:2.96,1.28;stroke-dashoffset:0;stroke-width:0.8;"/>
     </g>
     <g id="line2d_20">
      <g>
       <use style="stroke:#000000;stroke-width:0.6;" x="398.996463" xlink:href="#ma190b60640" y="252"/>
      </g>
     </g>
    </g>
    <g id="xtick_11">
     <g id="line2d_21">
      <path clip-path="url(#p14b5e745ab)" d="M 392.810824 252 
L 392.810824 34.56 
" style="fill:none;stroke:#b0b0b0;stroke-dasharray:2.96,1.28;stroke-dashoffset:0;stroke-width:0.8;"/>
     </g>
     <g id="line2d_22">
      <g>
       <use style="stroke:#000000;stroke-width:0.6;" x="392.810824" xlink:href="#ma190b60640" y="252"/>
      </g>
     </g>
    </g>
    <g id="xtick_12">
     <g id="line2d_23">
      <path clip-path="url(#p14b5e745ab)" d="M 387.580941 252 
L 387.580941 34.56 
" style="fill:none;stroke:#b0b0b0;stroke-dasharray:2.96,1.28;stroke-dashoffset:0;stroke-width:0.8;"/>
     </g>
     <g id="line2d_24">
      <g>
       <use style="stroke:#000000;stroke-width:0.6;" x="387.580941" xlink:href="#ma190b60640" y="252"/>
      </g>
     </g>
    </g>
    <g id="xtick_13">
     <g id="line2d_25">
      <path clip-path="url(#p14b5e745ab)" d="M 383.05061 252 
L 383.05061 34.56 
" style="fill:none;stroke:#b0b0b0;stroke-dasharray:2.96,1.28;stroke-dashoffset:0;stroke-width:0.8;"/>
     </g>
     <g id="line2d_26">
      <g>
       <use style="stroke:#000000;stroke-width:0.6;" x="383.05061" xlink:href="#ma190b60640" y="252"/>
      </g>
     </g>
    </g>
    <g id="xtick_14">
     <g id="line2d_27">
      <path clip-path="url(#p14b5e745ab)" d="M 379.054575 252 
L 379.054575 34.56 
" style="fill:none;stroke:#b0b0b0;stroke-dasharray:2.96,1.28;stroke-dashoffset:0;stroke-width:0.8;"/>
     </g>
     <g id="line2d_28">
      <g>
       <use style="stroke:#000000;stroke-width:0.6;" x="379.054575" xlink:href="#ma190b60640" y="252"/>
      </g>
     </g>
    </g>
    <g id="xtick_15">
     <g id="line2d_29">
      <path clip-path="url(#p14b5e745ab)" d="M 351.963537 252 
L 351.963537 34.56 
" style="fill:none;stroke:#b0b0b0;stroke-dasharray:2.96,1.28;stroke-dashoffset:0;stroke-width:0.8;"/>
     </g>
     <g id="line2d_30">
      <g>
       <use style="stroke:#000000;stroke-width:0.6;" x="351.963537" xlink:href="#ma190b60640" y="252"/>
      </g>
     </g>
    </g>
    <g id="xtick_16">
     <g id="line2d_31">
      <path clip-path="url(#p14b5e745ab)" d="M 338.207288 252 
L 338.207288 34.56 
" style="fill:none;stroke:#b0b0b0;stroke-dasharray:2.96,1.28;stroke-dashoffset:0;stroke-width:0.8;"/>
     </g>
     <g id="line2d_32">
      <g>
       <use style="stroke:#000000;stroke-width:0.6;" x="338.207288" xlink:href="#ma190b60640" y="252"/>
      </g>
     </g>
    </g>
    <g id="xtick_17">
     <g id="line2d_33">
      <path clip-path="url(#p14b5e745ab)" d="M 328.447073 252 
L 328.447073 34.56 
" style="fill:none;stroke:#b0b0b0;stroke-dasharray:2.96,1.28;stroke-dashoffset:0;stroke-width:0.8;"/>
     </g>
     <g id="line2d_34">
      <g>
       <use style="stroke:#000000;stroke-width:0.6;" x="328.447073" xlink:href="#ma190b60640" y="252"/>
      </g>
     </g>
    </g>
    <g id="xtick_18">
     <g id="line2d_35">
      <path clip-path="url(#p14b5e745ab)" d="M 320.876463 252 
L 320.876463 34.56 
" style="fill:none;stroke:#b0b0b0;stroke-dasharray:2.96,1.28;stroke-dashoffset:0;stroke-width:0.8;"/>
     </g>
     <g id="line2d_36">
      <g>
       <use style="stroke:#000000;stroke-width:0.6;" x="320.876463" xlink:href="#ma190b60640" y="252"/>
      </g>
     </g>
    </g>
    <g id="xtick_19">
     <g id="line2d_37">
      <path clip-path="url(#p14b5e745ab)" d="M 314.690824 252 
L 314.690824 34.56 
" style="fill:none;stroke:#b0b0b0;stroke-dasharray:2.96,1.28;stroke-dashoffset:0;stroke-width:0.8;"/>
     </g>
     <g id="line2d_38">
      <g>
       <use style="stroke:#000000;stroke-width:0.6;" x="314.690824" xlink:href="#ma190b60640" y="252"/>
      </g>
     </g>
    </g>
    <g id="xtick_20">
     <g id="line2d_39">
      <path clip-path="url(#p14b5e745ab)" d="M 309.460941 252 
L 309.460941 34.56 
" style="fill:none;stroke:#b0b0b0;stroke-dasharray:2.96,1.28;stroke-dashoffset:0;stroke-width:0.8;"/>
     </g>
     <g id="line2d_40">
      <g>
       <use style="stroke:#000000;stroke-width:0.6;" x="309.460941" xlink:href="#ma190b60640" y="252"/>
      </g>
     </g>
    </g>
    <g id="xtick_21">
     <g id="line2d_41">
      <path clip-path="url(#p14b5e745ab)" d="M 304.93061 252 
L 304.93061 34.56 
" style="fill:none;stroke:#b0b0b0;stroke-dasharray:2.96,1.28;stroke-dashoffset:0;stroke-width:0.8;"/>
     </g>
     <g id="line2d_42">
      <g>
       <use style="stroke:#000000;stroke-width:0.6;" x="304.93061" xlink:href="#ma190b60640" y="252"/>
      </g>
     </g>
    </g>
    <g id="xtick_22">
     <g id="line2d_43">
      <path clip-path="url(#p14b5e745ab)" d="M 300.934575 252 
L 300.934575 34.56 
" style="fill:none;stroke:#b0b0b0;stroke-dasharray:2.96,1.28;stroke-dashoffset:0;stroke-width:0.8;"/>
     </g>
     <g id="line2d_44">
      <g>
       <use style="stroke:#000000;stroke-width:0.6;" x="300.934575" xlink:href="#ma190b60640" y="252"/>
      </g>
     </g>
    </g>
    <g id="xtick_23">
     <g id="line2d_45">
      <path clip-path="url(#p14b5e745ab)" d="M 273.843537 252 
L 273.843537 34.56 
" style="fill:none;stroke:#b0b0b0;stroke-dasharray:2.96,1.28;stroke-dashoffset:0;stroke-width:0.8;"/>
     </g>
     <g id="line2d_46">
      <g>
       <use style="stroke:#000000;stroke-width:0.6;" x="273.843537" xlink:href="#ma190b60640" y="252"/>
      </g>
     </g>
    </g>
    <g id="xtick_24">
     <g id="line2d_47">
      <path clip-path="url(#p14b5e745ab)" d="M 260.087288 252 
L 260.087288 34.56 
" style="fill:none;stroke:#b0b0b0;stroke-dasharray:2.96,1.28;stroke-dashoffset:0;stroke-width:0.8;"/>
     </g>
     <g id="line2d_48">
      <g>
       <use style="stroke:#000000;stroke-width:0.6;" x="260.087288" xlink:href="#ma190b60640" y="252"/>
      </g>
     </g>
    </g>
    <g id="xtick_25">
     <g id="line2d_49">
      <path clip-path="url(#p14b5e745ab)" d="M 250.327073 252 
L 250.327073 34.56 
" style="fill:none;stroke:#b0b0b0;stroke-dasharray:2.96,1.28;stroke-dashoffset:0;stroke-width:0.8;"/>
     </g>
     <g id="line2d_50">
      <g>
       <use style="stroke:#000000;stroke-width:0.6;" x="250.327073" xlink:href="#ma190b60640" y="252"/>
      </g>
     </g>
    </g>
    <g id="xtick_26">
     <g id="line2d_51">
      <path clip-path="url(#p14b5e745ab)" d="M 242.756463 252 
L 242.756463 34.56 
" style="fill:none;stroke:#b0b0b0;stroke-dasharray:2.96,1.28;stroke-dashoffset:0;stroke-width:0.8;"/>
     </g>
     <g id="line2d_52">
      <g>
       <use style="stroke:#000000;stroke-width:0.6;" x="242.756463" xlink:href="#ma190b60640" y="252"/>
      </g>
     </g>
    </g>
    <g id="xtick_27">
     <g id="line2d_53">
      <path clip-path="url(#p14b5e745ab)" d="M 236.570824 252 
L 236.570824 34.56 
" style="fill:none;stroke:#b0b0b0;stroke-dasharray:2.96,1.28;stroke-dashoffset:0;stroke-width:0.8;"/>
     </g>
     <g id="line2d_54">
      <g>
       <use style="stroke:#000000;stroke-width:0.6;" x="236.570824" xlink:href="#ma190b60640" y="252"/>
      </g>
     </g>
    </g>
    <g id="xtick_28">
     <g id="line2d_55">
      <path clip-path="url(#p14b5e745ab)" d="M 231.340941 252 
L 231.340941 34.56 
" style="fill:none;stroke:#b0b0b0;stroke-dasharray:2.96,1.28;stroke-dashoffset:0;stroke-width:0.8;"/>
     </g>
     <g id="line2d_56">
      <g>
       <use style="stroke:#000000;stroke-width:0.6;" x="231.340941" xlink:href="#ma190b60640" y="252"/>
      </g>
     </g>
    </g>
    <g id="xtick_29">
     <g id="line2d_57">
      <path clip-path="url(#p14b5e745ab)" d="M 226.81061 252 
L 226.81061 34.56 
" style="fill:none;stroke:#b0b0b0;stroke-dasharray:2.96,1.28;stroke-dashoffset:0;stroke-width:0.8;"/>
     </g>
     <g id="line2d_58">
      <g>
       <use style="stroke:#000000;stroke-width:0.6;" x="226.81061" xlink:href="#ma190b60640" y="252"/>
      </g>
     </g>
    </g>
    <g id="xtick_30">
     <g id="line2d_59">
      <path clip-path="url(#p14b5e745ab)" d="M 222.814575 252 
L 222.814575 34.56 
" style="fill:none;stroke:#b0b0b0;stroke-dasharray:2.96,1.28;stroke-dashoffset:0;stroke-width:0.8;"/>
     </g>
     <g id="line2d_60">
      <g>
       <use style="stroke:#000000;stroke-width:0.6;" x="222.814575" xlink:href="#ma190b60640" y="252"/>
      </g>
     </g>
    </g>
    <g id="xtick_31">
     <g id="line2d_61">
      <path clip-path="url(#p14b5e745ab)" d="M 195.723537 252 
L 195.723537 34.56 
" style="fill:none;stroke:#b0b0b0;stroke-dasharray:2.96,1.28;stroke-dashoffset:0;stroke-width:0.8;"/>
     </g>
     <g id="line2d_62">
      <g>
       <use style="stroke:#000000;stroke-width:0.6;" x="195.723537" xlink:href="#ma190b60640" y="252"/>
      </g>
     </g>
    </g>
    <g id="xtick_32">
     <g id="line2d_63">
      <path clip-path="url(#p14b5e745ab)" d="M 181.967288 252 
L 181.967288 34.56 
" style="fill:none;stroke:#b0b0b0;stroke-dasharray:2.96,1.28;stroke-dashoffset:0;stroke-width:0.8;"/>
     </g>
     <g id="line2d_64">
      <g>
       <use style="stroke:#000000;stroke-width:0.6;" x="181.967288" xlink:href="#ma190b60640" y="252"/>
      </g>
     </g>
    </g>
    <g id="xtick_33">
     <g id="line2d_65">
      <path clip-path="url(#p14b5e745ab)" d="M 172.207073 252 
L 172.207073 34.56 
" style="fill:none;stroke:#b0b0b0;stroke-dasharray:2.96,1.28;stroke-dashoffset:0;stroke-width:0.8;"/>
     </g>
     <g id="line2d_66">
      <g>
       <use style="stroke:#000000;stroke-width:0.6;" x="172.207073" xlink:href="#ma190b60640" y="252"/>
      </g>
     </g>
    </g>
    <g id="xtick_34">
     <g id="line2d_67">
      <path clip-path="url(#p14b5e745ab)" d="M 164.636463 252 
L 164.636463 34.56 
" style="fill:none;stroke:#b0b0b0;stroke-dasharray:2.96,1.28;stroke-dashoffset:0;stroke-width:0.8;"/>
     </g>
     <g id="line2d_68">
      <g>
       <use style="stroke:#000000;stroke-width:0.6;" x="164.636463" xlink:href="#ma190b60640" y="252"/>
      </g>
     </g>
    </g>
    <g id="xtick_35">
     <g id="line2d_69">
      <path clip-path="url(#p14b5e745ab)" d="M 158.450824 252 
L 158.450824 34.56 
" style="fill:none;stroke:#b0b0b0;stroke-dasharray:2.96,1.28;stroke-dashoffset:0;stroke-width:0.8;"/>
     </g>
     <g id="line2d_70">
      <g>
       <use style="stroke:#000000;stroke-width:0.6;" x="158.450824" xlink:href="#ma190b60640" y="252"/>
      </g>
     </g>
    </g>
    <g id="xtick_36">
     <g id="line2d_71">
      <path clip-path="url(#p14b5e745ab)" d="M 153.220941 252 
L 153.220941 34.56 
" style="fill:none;stroke:#b0b0b0;stroke-dasharray:2.96,1.28;stroke-dashoffset:0;stroke-width:0.8;"/>
     </g>
     <g id="line2d_72">
      <g>
       <use style="stroke:#000000;stroke-width:0.6;" x="153.220941" xlink:href="#ma190b60640" y="252"/>
      </g>
     </g>
    </g>
    <g id="xtick_37">
     <g id="line2d_73">
      <path clip-path="url(#p14b5e745ab)" d="M 148.69061 252 
L 148.69061 34.56 
" style="fill:none;stroke:#b0b0b0;stroke-dasharray:2.96,1.28;stroke-dashoffset:0;stroke-width:0.8;"/>
     </g>
     <g id="line2d_74">
      <g>
       <use style="stroke:#000000;stroke-width:0.6;" x="148.69061" xlink:href="#ma190b60640" y="252"/>
      </g>
     </g>
    </g>
    <g id="xtick_38">
     <g id="line2d_75">
      <path clip-path="url(#p14b5e745ab)" d="M 144.694575 252 
L 144.694575 34.56 
" style="fill:none;stroke:#b0b0b0;stroke-dasharray:2.96,1.28;stroke-dashoffset:0;stroke-width:0.8;"/>
     </g>
     <g id="line2d_76">
      <g>
       <use style="stroke:#000000;stroke-width:0.6;" x="144.694575" xlink:href="#ma190b60640" y="252"/>
      </g>
     </g>
    </g>
    <g id="xtick_39">
     <g id="line2d_77">
      <path clip-path="url(#p14b5e745ab)" d="M 117.603537 252 
L 117.603537 34.56 
" style="fill:none;stroke:#b0b0b0;stroke-dasharray:2.96,1.28;stroke-dashoffset:0;stroke-width:0.8;"/>
     </g>
     <g id="line2d_78">
      <g>
       <use style="stroke:#000000;stroke-width:0.6;" x="117.603537" xlink:href="#ma190b60640" y="252"/>
      </g>
     </g>
    </g>
    <g id="xtick_40">
     <g id="line2d_79">
      <path clip-path="url(#p14b5e745ab)" d="M 103.847288 252 
L 103.847288 34.56 
" style="fill:none;stroke:#b0b0b0;stroke-dasharray:2.96,1.28;stroke-dashoffset:0;stroke-width:0.8;"/>
     </g>
     <g id="line2d_80">
      <g>
       <use style="stroke:#000000;stroke-width:0.6;" x="103.847288" xlink:href="#ma190b60640" y="252"/>
      </g>
     </g>
    </g>
    <g id="xtick_41">
     <g id="line2d_81">
      <path clip-path="url(#p14b5e745ab)" d="M 94.087073 252 
L 94.087073 34.56 
" style="fill:none;stroke:#b0b0b0;stroke-dasharray:2.96,1.28;stroke-dashoffset:0;stroke-width:0.8;"/>
     </g>
     <g id="line2d_82">
      <g>
       <use style="stroke:#000000;stroke-width:0.6;" x="94.087073" xlink:href="#ma190b60640" y="252"/>
      </g>
     </g>
    </g>
    <g id="xtick_42">
     <g id="line2d_83">
      <path clip-path="url(#p14b5e745ab)" d="M 86.516463 252 
L 86.516463 34.56 
" style="fill:none;stroke:#b0b0b0;stroke-dasharray:2.96,1.28;stroke-dashoffset:0;stroke-width:0.8;"/>
     </g>
     <g id="line2d_84">
      <g>
       <use style="stroke:#000000;stroke-width:0.6;" x="86.516463" xlink:href="#ma190b60640" y="252"/>
      </g>
     </g>
    </g>
    <g id="xtick_43">
     <g id="line2d_85">
      <path clip-path="url(#p14b5e745ab)" d="M 80.330824 252 
L 80.330824 34.56 
" style="fill:none;stroke:#b0b0b0;stroke-dasharray:2.96,1.28;stroke-dashoffset:0;stroke-width:0.8;"/>
     </g>
     <g id="line2d_86">
      <g>
       <use style="stroke:#000000;stroke-width:0.6;" x="80.330824" xlink:href="#ma190b60640" y="252"/>
      </g>
     </g>
    </g>
    <g id="xtick_44">
     <g id="line2d_87">
      <path clip-path="url(#p14b5e745ab)" d="M 75.100941 252 
L 75.100941 34.56 
" style="fill:none;stroke:#b0b0b0;stroke-dasharray:2.96,1.28;stroke-dashoffset:0;stroke-width:0.8;"/>
     </g>
     <g id="line2d_88">
      <g>
       <use style="stroke:#000000;stroke-width:0.6;" x="75.100941" xlink:href="#ma190b60640" y="252"/>
      </g>
     </g>
    </g>
    <g id="xtick_45">
     <g id="line2d_89">
      <path clip-path="url(#p14b5e745ab)" d="M 70.57061 252 
L 70.57061 34.56 
" style="fill:none;stroke:#b0b0b0;stroke-dasharray:2.96,1.28;stroke-dashoffset:0;stroke-width:0.8;"/>
     </g>
     <g id="line2d_90">
      <g>
       <use style="stroke:#000000;stroke-width:0.6;" x="70.57061" xlink:href="#ma190b60640" y="252"/>
      </g>
     </g>
    </g>
    <g id="xtick_46">
     <g id="line2d_91">
      <path clip-path="url(#p14b5e745ab)" d="M 66.574575 252 
L 66.574575 34.56 
" style="fill:none;stroke:#b0b0b0;stroke-dasharray:2.96,1.28;stroke-dashoffset:0;stroke-width:0.8;"/>
     </g>
     <g id="line2d_92">
      <g>
       <use style="stroke:#000000;stroke-width:0.6;" x="66.574575" xlink:href="#ma190b60640" y="252"/>
      </g>
     </g>
    </g>
    <g id="text_7">
     <!-- Particle diameter ($d$) [mm] -->
     <g transform="translate(199.847216 277.556528)scale(0.1 -0.1)">
      <defs>
       <path d="M 1267 2048 
L 2291 2048 
C 3117 2048 3718 2583 3718 3187 
C 3718 3791 3130 4352 2291 4352 
L 333 4352 
L 333 4185 
C 774 4185 845 4185 845 3899 
L 845 453 
C 845 166 774 166 333 166 
L 333 0 
C 518 12 858 12 1056 12 
C 1254 12 1594 12 1779 0 
L 1779 166 
C 1338 166 1267 166 1267 453 
L 1267 2048 
z
M 1254 2182 
L 1254 3937 
C 1254 4153 1267 4185 1523 4185 
L 2170 4185 
C 2995 4185 3232 3715 3232 3187 
C 3232 2608 2950 2182 2170 2182 
L 1254 2182 
z
" id="CMR17-50" transform="scale(0.015625)"/>
       <path d="M 2304 1656 
C 2304 2048 2304 2275 2035 2534 
C 1798 2751 1523 2816 1306 2816 
C 800 2816 435 2408 435 1977 
C 435 1740 627 1728 666 1728 
C 749 1728 896 1779 896 1958 
C 896 2118 774 2188 666 2188 
C 640 2188 608 2182 589 2176 
C 723 2594 1069 2713 1293 2713 
C 1613 2713 1965 2421 1965 1875 
L 1965 1632 
C 1587 1619 1133 1568 774 1373 
C 371 1147 256 822 256 576 
C 256 77 832 -64 1171 -64 
C 1523 -64 1850 135 1990 505 
C 2003 219 2182 -39 2464 -39 
C 2598 -39 2938 51 2938 563 
L 2938 926 
L 2822 926 
L 2822 557 
C 2822 161 2650 109 2566 109 
C 2304 109 2304 446 2304 732 
L 2304 1656 
z
M 1965 887 
C 1965 323 1568 38 1216 38 
C 896 38 646 278 646 576 
C 646 771 730 1114 1101 1322 
C 1408 1497 1760 1523 1965 1536 
L 1965 887 
z
" id="CMR17-61" transform="scale(0.015625)"/>
       <path d="M 960 1517 
C 960 2134 1222 2713 1702 2713 
C 1747 2713 1792 2707 1837 2687 
C 1837 2687 1696 2642 1696 2475 
C 1696 2321 1818 2257 1914 2257 
C 1990 2257 2131 2302 2131 2482 
C 2131 2687 1926 2816 1709 2816 
C 1222 2816 1011 2340 947 2115 
L 941 2115 
L 941 2816 
L 198 2745 
L 198 2578 
C 576 2578 634 2540 634 2231 
L 634 443 
C 634 198 608 166 198 166 
L 198 0 
C 352 12 646 12 813 12 
C 998 12 1325 12 1498 0 
L 1498 166 
C 1037 166 960 166 960 455 
L 960 1517 
z
" id="CMR17-72" transform="scale(0.015625)"/>
       <path d="M 966 2585 
L 1862 2585 
L 1862 2752 
L 966 2752 
L 966 3968 
L 851 3968 
C 838 3292 614 2700 70 2687 
L 70 2585 
L 627 2585 
L 627 778 
C 627 655 627 -64 1370 -64 
C 1747 -64 1965 308 1965 784 
L 1965 1151 
L 1850 1151 
L 1850 790 
C 1850 347 1677 51 1408 51 
C 1222 51 966 179 966 765 
L 966 2585 
z
" id="CMR17-74" transform="scale(0.015625)"/>
       <path d="M 992 3961 
C 992 4102 877 4224 730 4224 
C 589 4224 467 4108 467 3961 
C 467 3820 582 3699 730 3699 
C 870 3699 992 3814 992 3961 
z
M 243 2745 
L 243 2579 
C 602 2579 653 2540 653 2231 
L 653 443 
C 653 198 627 166 218 166 
L 218 0 
C 371 12 646 12 806 12 
C 960 12 1222 12 1370 0 
L 1370 166 
C 992 166 979 205 979 436 
L 979 2816 
L 243 2745 
z
" id="CMR17-69" transform="scale(0.015625)"/>
       <path d="M 2234 2240 
C 2112 2240 1933 2240 1933 2015 
C 1933 1836 2080 1785 2163 1785 
C 2208 1785 2394 1804 2394 2028 
C 2394 2476 1958 2816 1466 2816 
C 787 2816 211 2201 211 1379 
C 211 521 813 -64 1466 -64 
C 2259 -64 2458 676 2458 747 
C 2458 773 2451 792 2406 792 
C 2362 792 2355 786 2330 702 
C 2163 180 1798 51 1523 51 
C 1114 51 621 431 621 1385 
C 621 2358 1094 2700 1472 2700 
C 1722 2700 2093 2582 2234 2240 
z
" id="CMR17-63" transform="scale(0.015625)"/>
       <path d="M 979 4416 
L 218 4345 
L 218 4179 
C 595 4179 653 4141 653 3835 
L 653 439 
C 653 198 627 166 218 166 
L 218 0 
C 371 12 653 12 813 12 
C 979 12 1261 12 1414 0 
L 1414 166 
C 1005 166 979 191 979 439 
L 979 4416 
z
" id="CMR17-6c" transform="scale(0.015625)"/>
       <path d="M 2438 1503 
C 2464 1529 2464 1542 2464 1606 
C 2464 2251 2118 2816 1389 2816 
C 710 2816 173 2175 173 1394 
C 173 554 781 -64 1459 -64 
C 2176 -64 2458 619 2458 755 
C 2458 800 2419 800 2406 800 
C 2362 800 2355 787 2330 709 
C 2189 270 1837 51 1504 51 
C 1229 51 954 206 781 490 
C 582 819 582 1200 582 1503 
L 2438 1503 
z
M 589 1600 
C 634 2511 1126 2713 1382 2713 
C 1818 2713 2112 2308 2118 1600 
L 589 1600 
z
" id="CMR17-65" transform="scale(0.015625)"/>
       <path d="M 1869 4345 
L 1869 4179 
C 2246 4179 2304 4141 2304 3843 
L 2304 2371 
C 2278 2403 2016 2816 1498 2816 
C 845 2816 211 2228 211 1376 
C 211 529 806 -64 1434 -64 
C 1978 -64 2259 361 2291 406 
L 2291 -64 
L 3066 -13 
L 3066 154 
C 2688 154 2630 193 2630 503 
L 2630 4416 
L 1869 4345 
z
M 2291 762 
C 2291 568 2176 393 2029 264 
C 1811 70 1594 38 1472 38 
C 1286 38 621 135 621 1369 
C 621 2636 1363 2713 1530 2713 
C 1824 2713 2061 2545 2208 2313 
C 2291 2177 2291 2157 2291 2041 
L 2291 762 
z
" id="CMR17-64" transform="scale(0.015625)"/>
       <path d="M 4326 1954 
C 4326 2276 4269 2816 3507 2816 
C 3072 2816 2771 2520 2656 2173 
L 2650 2173 
C 2573 2700 2195 2816 1837 2816 
C 1331 2816 1069 2424 973 2166 
L 966 2166 
L 966 2816 
L 211 2745 
L 211 2578 
C 589 2578 646 2540 646 2231 
L 646 443 
C 646 198 621 166 211 166 
L 211 0 
C 365 12 646 12 813 12 
C 979 12 1267 12 1421 0 
L 1421 166 
C 1011 166 986 192 986 443 
L 986 1678 
C 986 2269 1344 2713 1792 2713 
C 2266 2713 2317 2289 2317 1980 
L 2317 443 
C 2317 198 2291 166 1882 166 
L 1882 0 
C 2035 12 2317 12 2483 12 
C 2650 12 2938 12 3091 0 
L 3091 166 
C 2682 166 2656 192 2656 443 
L 2656 1678 
C 2656 2269 3014 2713 3462 2713 
C 3936 2713 3987 2289 3987 1980 
L 3987 443 
C 3987 198 3962 166 3552 166 
L 3552 0 
C 3706 12 3987 12 4154 12 
C 4320 12 4608 12 4762 0 
L 4762 166 
C 4352 166 4326 192 4326 443 
L 4326 1954 
z
" id="CMR17-6d" transform="scale(0.015625)"/>
       <path d="M 1958 -1562 
C 1958 -1556 1958 -1543 1939 -1524 
C 1645 -1223 858 -403 858 1596 
C 858 3595 1632 4408 1946 4729 
C 1946 4735 1958 4748 1958 4767 
C 1958 4787 1939 4800 1914 4800 
C 1843 4800 1299 4325 986 3620 
C 666 2909 576 2218 576 1603 
C 576 1141 621 360 1005 -467 
C 1312 -1133 1837 -1600 1914 -1600 
C 1946 -1600 1958 -1588 1958 -1562 
z
" id="CMR17-28" transform="scale(0.015625)"/>
       <path d="M 3219 4255 
C 3226 4281 3238 4319 3238 4351 
C 3238 4416 3174 4416 3162 4416 
C 3155 4416 2842 4390 2810 4383 
C 2701 4377 2605 4364 2490 4358 
C 2330 4345 2285 4339 2285 4223 
C 2285 4159 2336 4159 2426 4159 
C 2739 4159 2746 4103 2746 4040 
C 2746 4002 2733 3951 2726 3932 
L 2336 2394 
C 2266 2560 2093 2816 1760 2816 
C 1037 2816 256 1883 256 938 
C 256 306 627 -64 1062 -64 
C 1414 -64 1715 210 1894 421 
C 1958 44 2259 -64 2451 -64 
C 2643 -64 2797 51 2912 281 
C 3014 498 3104 887 3104 913 
C 3104 945 3078 970 3040 970 
C 2982 970 2976 938 2950 842 
C 2854 466 2733 64 2470 64 
C 2285 64 2272 230 2272 357 
C 2272 383 2272 517 2317 696 
L 3219 4255 
z
M 1926 759 
C 1894 651 1894 638 1805 517 
C 1664 338 1382 64 1082 64 
C 819 64 672 300 672 676 
C 672 1028 870 1743 992 2011 
C 1210 2458 1510 2687 1760 2687 
C 2182 2687 2266 2164 2266 2113 
C 2266 2107 2246 2024 2240 2011 
L 1926 759 
z
" id="CMMI12-64" transform="scale(0.015625)"/>
       <path d="M 1683 1596 
C 1683 2057 1638 2839 1254 3665 
C 947 4332 422 4800 346 4800 
C 326 4800 301 4793 301 4761 
C 301 4748 307 4742 314 4729 
C 621 4408 1402 3595 1402 1603 
C 1402 -396 627 -1210 314 -1530 
C 307 -1543 301 -1549 301 -1562 
C 301 -1594 326 -1600 346 -1600 
C 416 -1600 960 -1127 1274 -422 
C 1594 289 1683 981 1683 1596 
z
" id="CMR17-29" transform="scale(0.015625)"/>
       <path d="M 1504 -1600 
L 1504 -1376 
L 902 -1376 
L 902 4575 
L 1504 4575 
L 1504 4800 
L 678 4800 
L 678 -1600 
L 1504 -1600 
z
" id="CMR17-5b" transform="scale(0.015625)"/>
       <path d="M 915 4800 
L 90 4800 
L 90 4575 
L 691 4575 
L 691 -1376 
L 90 -1376 
L 90 -1600 
L 915 -1600 
L 915 4800 
z
" id="CMR17-5d" transform="scale(0.015625)"/>
      </defs>
      <use transform="scale(0.996264)" xlink:href="#CMR17-50"/>
      <use transform="translate(59.983847 0)scale(0.996264)" xlink:href="#CMR17-61"/>
      <use transform="translate(105.674324 0)scale(0.996264)" xlink:href="#CMR17-72"/>
      <use transform="translate(140.955092 0)scale(0.996264)" xlink:href="#CMR17-74"/>
      <use transform="translate(176.235859 0)scale(0.996264)" xlink:href="#CMR17-69"/>
      <use transform="translate(201.106918 0)scale(0.996264)" xlink:href="#CMR17-63"/>
      <use transform="translate(241.592578 0)scale(0.996264)" xlink:href="#CMR17-6c"/>
      <use transform="translate(266.463637 0)scale(0.996264)" xlink:href="#CMR17-65"/>
      <use transform="translate(337.025264 0)scale(0.996264)" xlink:href="#CMR17-64"/>
      <use transform="translate(387.920633 0)scale(0.996264)" xlink:href="#CMR17-69"/>
      <use transform="translate(412.791692 0)scale(0.996264)" xlink:href="#CMR17-61"/>
      <use transform="translate(458.482169 0)scale(0.996264)" xlink:href="#CMR17-6d"/>
      <use transform="translate(535.401759 0)scale(0.996264)" xlink:href="#CMR17-65"/>
      <use transform="translate(575.887419 0)scale(0.996264)" xlink:href="#CMR17-74"/>
      <use transform="translate(611.168187 0)scale(0.996264)" xlink:href="#CMR17-65"/>
      <use transform="translate(651.653848 0)scale(0.996264)" xlink:href="#CMR17-72"/>
      <use transform="translate(717.010582 0)scale(0.996264)" xlink:href="#CMR17-28"/>
      <use transform="translate(752.291349 0)scale(0.996264)" xlink:href="#CMMI12-64"/>
      <use transform="translate(802.980446 0)scale(0.996264)" xlink:href="#CMR17-29"/>
      <use transform="translate(868.33718 0)scale(0.996264)" xlink:href="#CMR17-5b"/>
      <use transform="translate(893.208239 0)scale(0.996264)" xlink:href="#CMR17-6d"/>
      <use transform="translate(970.127829 0)scale(0.996264)" xlink:href="#CMR17-6d"/>
      <use transform="translate(1047.047419 0)scale(0.996264)" xlink:href="#CMR17-5d"/>
     </g>
    </g>
   </g>
   <g id="matplotlib.axis_2">
    <g id="ytick_1">
     <g id="line2d_93">
      <path clip-path="url(#p14b5e745ab)" d="M 63 252 
L 453.6 252 
" style="fill:none;stroke:#b0b0b0;stroke-linecap:square;stroke-width:0.8;"/>
     </g>
     <g id="line2d_94">
      <defs>
       <path d="M 0 0 
L -3.5 0 
" id="m0348e5dd42" style="stroke:#000000;stroke-width:0.8;"/>
      </defs>
      <g>
       <use style="stroke:#000000;stroke-width:0.8;" x="63" xlink:href="#m0348e5dd42" y="252"/>
      </g>
     </g>
     <g id="text_8">
      <!-- $\mathdefault{0}$ -->
      <g transform="translate(51.765817 254.767401)scale(0.08 -0.08)">
       <use transform="scale(0.996264)" xlink:href="#CMR17-30"/>
      </g>
     </g>
    </g>
    <g id="ytick_2">
     <g id="line2d_95">
      <path clip-path="url(#p14b5e745ab)" d="M 63 208.512 
L 453.6 208.512 
" style="fill:none;stroke:#b0b0b0;stroke-linecap:square;stroke-width:0.8;"/>
     </g>
     <g id="line2d_96">
      <g>
       <use style="stroke:#000000;stroke-width:0.8;" x="63" xlink:href="#m0348e5dd42" y="208.512"/>
      </g>
     </g>
     <g id="text_9">
      <!-- $\mathdefault{20}$ -->
      <g transform="translate(47.531634 211.279401)scale(0.08 -0.08)">
       <use transform="scale(0.996264)" xlink:href="#CMR17-32"/>
       <use transform="translate(45.690477 0)scale(0.996264)" xlink:href="#CMR17-30"/>
      </g>
     </g>
    </g>
    <g id="ytick_3">
     <g id="line2d_97">
      <path clip-path="url(#p14b5e745ab)" d="M 63 165.024 
L 453.6 165.024 
" style="fill:none;stroke:#b0b0b0;stroke-linecap:square;stroke-width:0.8;"/>
     </g>
     <g id="line2d_98">
      <g>
       <use style="stroke:#000000;stroke-width:0.8;" x="63" xlink:href="#m0348e5dd42" y="165.024"/>
      </g>
     </g>
     <g id="text_10">
      <!-- $\mathdefault{40}$ -->
      <g transform="translate(47.531634 167.791401)scale(0.08 -0.08)">
       <defs>
        <path d="M 2150 4147 
C 2150 4281 2144 4288 2029 4288 
L 128 1254 
L 128 1088 
L 1779 1088 
L 1779 460 
C 1779 230 1766 166 1318 166 
L 1197 166 
L 1197 0 
C 1402 12 1747 12 1965 12 
C 2182 12 2528 12 2733 0 
L 2733 166 
L 2611 166 
C 2163 166 2150 230 2150 460 
L 2150 1088 
L 2803 1088 
L 2803 1254 
L 2150 1254 
L 2150 4147 
z
M 1798 3723 
L 1798 1254 
L 256 1254 
L 1798 3723 
z
" id="CMR17-34" transform="scale(0.015625)"/>
       </defs>
       <use transform="scale(0.996264)" xlink:href="#CMR17-34"/>
       <use transform="translate(45.690477 0)scale(0.996264)" xlink:href="#CMR17-30"/>
      </g>
     </g>
    </g>
    <g id="ytick_4">
     <g id="line2d_99">
      <path clip-path="url(#p14b5e745ab)" d="M 63 121.536 
L 453.6 121.536 
" style="fill:none;stroke:#b0b0b0;stroke-linecap:square;stroke-width:0.8;"/>
     </g>
     <g id="line2d_100">
      <g>
       <use style="stroke:#000000;stroke-width:0.8;" x="63" xlink:href="#m0348e5dd42" y="121.536"/>
      </g>
     </g>
     <g id="text_11">
      <!-- $\mathdefault{60}$ -->
      <g transform="translate(47.531634 124.303401)scale(0.08 -0.08)">
       <defs>
        <path d="M 678 2198 
C 678 3712 1395 4076 1811 4076 
C 1946 4076 2272 4049 2400 3782 
C 2298 3782 2106 3782 2106 3558 
C 2106 3385 2246 3328 2336 3328 
C 2394 3328 2566 3353 2566 3571 
C 2566 3987 2246 4224 1805 4224 
C 1043 4224 243 3411 243 2011 
C 243 257 966 -128 1478 -128 
C 2099 -128 2688 431 2688 1295 
C 2688 2101 2170 2688 1517 2688 
C 1126 2688 838 2430 678 1979 
L 678 2198 
z
M 1478 25 
C 691 25 691 1212 691 1450 
C 691 1914 909 2585 1504 2585 
C 1613 2585 1926 2585 2138 2140 
C 2253 1889 2253 1624 2253 1302 
C 2253 954 2253 696 2118 438 
C 1978 173 1773 25 1478 25 
z
" id="CMR17-36" transform="scale(0.015625)"/>
       </defs>
       <use transform="scale(0.996264)" xlink:href="#CMR17-36"/>
       <use transform="translate(45.690477 0)scale(0.996264)" xlink:href="#CMR17-30"/>
      </g>
     </g>
    </g>
    <g id="ytick_5">
     <g id="line2d_101">
      <path clip-path="url(#p14b5e745ab)" d="M 63 78.048 
L 453.6 78.048 
" style="fill:none;stroke:#b0b0b0;stroke-linecap:square;stroke-width:0.8;"/>
     </g>
     <g id="line2d_102">
      <g>
       <use style="stroke:#000000;stroke-width:0.8;" x="63" xlink:href="#m0348e5dd42" y="78.048"/>
      </g>
     </g>
     <g id="text_12">
      <!-- $\mathdefault{80}$ -->
      <g transform="translate(47.531634 80.815401)scale(0.08 -0.08)">
       <defs>
        <path d="M 1741 2289 
C 2144 2494 2554 2803 2554 3298 
C 2554 3884 1990 4224 1472 4224 
C 890 4224 378 3800 378 3215 
C 378 3054 416 2777 666 2533 
C 730 2469 998 2276 1171 2154 
C 883 2006 211 1652 211 945 
C 211 282 838 -128 1459 -128 
C 2144 -128 2720 366 2720 1022 
C 2720 1607 2330 1877 2074 2051 
L 1741 2289 
z
M 902 2855 
C 851 2887 595 3086 595 3388 
C 595 3781 998 4076 1459 4076 
C 1965 4076 2336 3716 2336 3298 
C 2336 2700 1670 2359 1638 2359 
C 1632 2359 1626 2359 1574 2398 
L 902 2855 
z
M 2080 1536 
C 2176 1466 2483 1253 2483 861 
C 2483 385 2010 25 1472 25 
C 890 25 448 443 448 951 
C 448 1459 838 1884 1280 2083 
L 2080 1536 
z
" id="CMR17-38" transform="scale(0.015625)"/>
       </defs>
       <use transform="scale(0.996264)" xlink:href="#CMR17-38"/>
       <use transform="translate(45.690477 0)scale(0.996264)" xlink:href="#CMR17-30"/>
      </g>
     </g>
    </g>
    <g id="ytick_6">
     <g id="line2d_103">
      <path clip-path="url(#p14b5e745ab)" d="M 63 34.56 
L 453.6 34.56 
" style="fill:none;stroke:#b0b0b0;stroke-linecap:square;stroke-width:0.8;"/>
     </g>
     <g id="line2d_104">
      <g>
       <use style="stroke:#000000;stroke-width:0.8;" x="63" xlink:href="#m0348e5dd42" y="34.56"/>
      </g>
     </g>
     <g id="text_13">
      <!-- $\mathdefault{100}$ -->
      <g transform="translate(43.297451 37.327401)scale(0.08 -0.08)">
       <use transform="scale(0.996264)" xlink:href="#CMR17-31"/>
       <use transform="translate(45.690477 0)scale(0.996264)" xlink:href="#CMR17-30"/>
       <use transform="translate(91.380954 0)scale(0.996264)" xlink:href="#CMR17-30"/>
      </g>
     </g>
    </g>
    <g id="text_14">
     <!-- Percentage finer -->
     <g transform="translate(37.360273 178.246144)rotate(-90)scale(0.1 -0.1)">
      <defs>
       <path d="M 2656 1954 
C 2656 2282 2592 2816 1837 2816 
C 1331 2816 1069 2424 973 2166 
L 966 2166 
L 966 2816 
L 211 2745 
L 211 2578 
C 589 2578 646 2540 646 2231 
L 646 443 
C 646 198 621 166 211 166 
L 211 0 
C 365 12 646 12 813 12 
C 979 12 1267 12 1421 0 
L 1421 166 
C 1011 166 986 192 986 443 
L 986 1678 
C 986 2269 1344 2713 1792 2713 
C 2266 2713 2317 2289 2317 1980 
L 2317 443 
C 2317 198 2291 166 1882 166 
L 1882 0 
C 2035 12 2317 12 2483 12 
C 2650 12 2938 12 3091 0 
L 3091 166 
C 2682 166 2656 192 2656 443 
L 2656 1954 
z
" id="CMR17-6e" transform="scale(0.015625)"/>
       <path d="M 710 1165 
C 832 1068 1043 960 1299 960 
C 1805 960 2240 1359 2240 1895 
C 2240 2063 2189 2321 1997 2521 
C 2176 2713 2438 2777 2586 2777 
C 2611 2777 2650 2777 2682 2758 
C 2656 2751 2598 2726 2598 2623 
C 2598 2540 2656 2483 2739 2483 
C 2835 2483 2886 2547 2886 2630 
C 2886 2751 2790 2880 2586 2880 
C 2330 2880 2106 2758 1926 2591 
C 1734 2764 1504 2828 1299 2828 
C 794 2828 358 2431 358 1895 
C 358 1527 570 1294 634 1230 
C 442 1004 442 742 442 710 
C 442 544 506 300 723 166 
C 390 82 128 -184 128 -517 
C 128 -996 736 -1344 1466 -1344 
C 2170 -1344 2803 -1009 2803 -510 
C 2803 384 1856 384 1363 384 
C 1216 384 954 384 922 390 
C 723 422 589 601 589 825 
C 589 883 589 1024 710 1165 
z
M 1299 1068 
C 736 1068 736 1766 736 1895 
C 736 2024 736 2719 1299 2719 
C 1862 2719 1862 2024 1862 1895 
C 1862 1766 1862 1068 1299 1068 
z
M 1466 -1236 
C 826 -1236 384 -883 384 -517 
C 384 -311 493 -118 634 -11 
C 794 102 858 102 1293 102 
C 1818 102 2547 102 2547 -517 
C 2547 -883 2106 -1236 1466 -1236 
z
" id="CMR17-67" transform="scale(0.015625)"/>
       <path d="M 2554 2816 
C 2400 2809 1926 2777 1805 2764 
C 1766 2758 1754 2758 1677 2758 
L 947 2758 
L 947 3517 
C 947 4127 1434 4416 1818 4416 
C 1939 4416 2214 4383 2355 4160 
C 2291 4160 2086 4160 2086 3935 
C 2086 3782 2189 3705 2317 3705 
C 2432 3705 2547 3769 2547 3942 
C 2547 4265 2240 4518 1843 4518 
C 1338 4518 634 4225 634 3517 
L 634 2758 
L 122 2758 
L 122 2591 
L 634 2591 
L 634 442 
C 634 198 608 166 198 166 
L 198 0 
C 352 12 634 12 794 12 
C 960 12 1242 12 1395 0 
L 1395 166 
C 986 166 960 192 960 442 
L 960 2591 
L 1901 2591 
C 2176 2591 2227 2534 2227 2251 
L 2227 442 
C 2227 198 2202 166 1792 166 
L 1792 0 
C 1946 12 2227 12 2387 12 
C 2554 12 2835 12 2989 0 
L 2989 166 
C 2579 166 2554 192 2554 442 
L 2554 2816 
z
" id="CMR17-c" transform="scale(0.015625)"/>
      </defs>
      <use transform="scale(0.996264)" xlink:href="#CMR17-50"/>
      <use transform="translate(59.983847 0)scale(0.996264)" xlink:href="#CMR17-65"/>
      <use transform="translate(100.469507 0)scale(0.996264)" xlink:href="#CMR17-72"/>
      <use transform="translate(135.750275 0)scale(0.996264)" xlink:href="#CMR17-63"/>
      <use transform="translate(176.235935 0)scale(0.996264)" xlink:href="#CMR17-65"/>
      <use transform="translate(216.721596 0)scale(0.996264)" xlink:href="#CMR17-6e"/>
      <use transform="translate(265.014512 0)scale(0.996264)" xlink:href="#CMR17-74"/>
      <use transform="translate(300.295279 0)scale(0.996264)" xlink:href="#CMR17-61"/>
      <use transform="translate(345.985757 0)scale(0.996264)" xlink:href="#CMR17-67"/>
      <use transform="translate(391.676234 0)scale(0.996264)" xlink:href="#CMR17-65"/>
      <use transform="translate(462.23786 0)scale(0.996264)" xlink:href="#CMR17-c"/>
      <use transform="translate(511.980084 0)scale(0.996264)" xlink:href="#CMR17-6e"/>
      <use transform="translate(562.875454 0)scale(0.996264)" xlink:href="#CMR17-65"/>
      <use transform="translate(603.361114 0)scale(0.996264)" xlink:href="#CMR17-72"/>
     </g>
    </g>
   </g>
   <g id="line2d_105">
    <path clip-path="url(#p14b5e745ab)" d="M 72.760214 34.56 
L 95.827305 99.792 
L 119.343769 145.4544 
L 142.860232 173.7216 
L 166.376695 193.2912 
L 195.723537 208.512 
L 248.270257 234.6048 
L 283.603751 241.128 
L 307.120214 243.3024 
L 328.447073 245.4768 
L 351.963537 247.6512 
L 375.48 249.8256 
" style="fill:none;stroke:#f77189;stroke-linecap:square;stroke-width:2;"/>
    <defs>
     <path d="M 0 1.5 
C 0.397805 1.5 0.77937 1.341951 1.06066 1.06066 
C 1.341951 0.77937 1.5 0.397805 1.5 0 
C 1.5 -0.397805 1.341951 -0.77937 1.06066 -1.06066 
C 0.77937 -1.341951 0.397805 -1.5 0 -1.5 
C -0.397805 -1.5 -0.77937 -1.341951 -1.06066 -1.06066 
C -1.341951 -0.77937 -1.5 -0.397805 -1.5 0 
C -1.5 0.397805 -1.341951 0.77937 -1.06066 1.06066 
C -0.77937 1.341951 -0.397805 1.5 0 1.5 
z
" id="m43d2bb7f7c" style="stroke:#f77189;"/>
    </defs>
    <g clip-path="url(#p14b5e745ab)">
     <use style="fill:#f77189;stroke:#f77189;" x="72.760214" xlink:href="#m43d2bb7f7c" y="34.56"/>
     <use style="fill:#f77189;stroke:#f77189;" x="95.827305" xlink:href="#m43d2bb7f7c" y="99.792"/>
     <use style="fill:#f77189;stroke:#f77189;" x="119.343769" xlink:href="#m43d2bb7f7c" y="145.4544"/>
     <use style="fill:#f77189;stroke:#f77189;" x="142.860232" xlink:href="#m43d2bb7f7c" y="173.7216"/>
     <use style="fill:#f77189;stroke:#f77189;" x="166.376695" xlink:href="#m43d2bb7f7c" y="193.2912"/>
     <use style="fill:#f77189;stroke:#f77189;" x="195.723537" xlink:href="#m43d2bb7f7c" y="208.512"/>
     <use style="fill:#f77189;stroke:#f77189;" x="248.270257" xlink:href="#m43d2bb7f7c" y="234.6048"/>
     <use style="fill:#f77189;stroke:#f77189;" x="283.603751" xlink:href="#m43d2bb7f7c" y="241.128"/>
     <use style="fill:#f77189;stroke:#f77189;" x="307.120214" xlink:href="#m43d2bb7f7c" y="243.3024"/>
     <use style="fill:#f77189;stroke:#f77189;" x="328.447073" xlink:href="#m43d2bb7f7c" y="245.4768"/>
     <use style="fill:#f77189;stroke:#f77189;" x="351.963537" xlink:href="#m43d2bb7f7c" y="247.6512"/>
     <use style="fill:#f77189;stroke:#f77189;" x="375.48" xlink:href="#m43d2bb7f7c" y="249.8256"/>
    </g>
   </g>
   <g id="line2d_106">
    <path clip-path="url(#p14b5e745ab)" d="M 72.760214 34.56 
L 95.827305 34.56 
L 119.343769 34.56 
L 166.376695 60.6528 
L 195.723537 73.6992 
L 224.753794 78.048 
L 248.270257 82.3968 
L 266.272927 91.0944 
L 295.383106 110.664 
L 307.120214 132.408 
L 328.447073 184.5936 
L 351.963537 210.6864 
L 375.48 223.7328 
L 398.996463 230.256 
L 453.6 247.6512 
" style="fill:none;stroke:#bb9832;stroke-linecap:square;stroke-width:2;"/>
    <defs>
     <path d="M 0 1.5 
C 0.397805 1.5 0.77937 1.341951 1.06066 1.06066 
C 1.341951 0.77937 1.5 0.397805 1.5 0 
C 1.5 -0.397805 1.341951 -0.77937 1.06066 -1.06066 
C 0.77937 -1.341951 0.397805 -1.5 0 -1.5 
C -0.397805 -1.5 -0.77937 -1.341951 -1.06066 -1.06066 
C -1.341951 -0.77937 -1.5 -0.397805 -1.5 0 
C -1.5 0.397805 -1.341951 0.77937 -1.06066 1.06066 
C -0.77937 1.341951 -0.397805 1.5 0 1.5 
z
" id="m58c39c0389" style="stroke:#bb9832;"/>
    </defs>
    <g clip-path="url(#p14b5e745ab)">
     <use style="fill:#bb9832;stroke:#bb9832;" x="72.760214" xlink:href="#m58c39c0389" y="34.56"/>
     <use style="fill:#bb9832;stroke:#bb9832;" x="95.827305" xlink:href="#m58c39c0389" y="34.56"/>
     <use style="fill:#bb9832;stroke:#bb9832;" x="119.343769" xlink:href="#m58c39c0389" y="34.56"/>
     <use style="fill:#bb9832;stroke:#bb9832;" x="166.376695" xlink:href="#m58c39c0389" y="60.6528"/>
     <use style="fill:#bb9832;stroke:#bb9832;" x="195.723537" xlink:href="#m58c39c0389" y="73.6992"/>
     <use style="fill:#bb9832;stroke:#bb9832;" x="224.753794" xlink:href="#m58c39c0389" y="78.048"/>
     <use style="fill:#bb9832;stroke:#bb9832;" x="248.270257" xlink:href="#m58c39c0389" y="82.3968"/>
     <use style="fill:#bb9832;stroke:#bb9832;" x="266.272927" xlink:href="#m58c39c0389" y="91.0944"/>
     <use style="fill:#bb9832;stroke:#bb9832;" x="295.383106" xlink:href="#m58c39c0389" y="110.664"/>
     <use style="fill:#bb9832;stroke:#bb9832;" x="307.120214" xlink:href="#m58c39c0389" y="132.408"/>
     <use style="fill:#bb9832;stroke:#bb9832;" x="328.447073" xlink:href="#m58c39c0389" y="184.5936"/>
     <use style="fill:#bb9832;stroke:#bb9832;" x="351.963537" xlink:href="#m58c39c0389" y="210.6864"/>
     <use style="fill:#bb9832;stroke:#bb9832;" x="375.48" xlink:href="#m58c39c0389" y="223.7328"/>
     <use style="fill:#bb9832;stroke:#bb9832;" x="398.996463" xlink:href="#m58c39c0389" y="230.256"/>
     <use style="fill:#bb9832;stroke:#bb9832;" x="453.6" xlink:href="#m58c39c0389" y="247.6512"/>
    </g>
   </g>
   <g id="line2d_107">
    <path clip-path="url(#p14b5e745ab)" d="M 72.760214 34.56 
L 119.343769 54.1296 
L 142.860232 62.8272 
L 166.376695 75.8736 
L 195.723537 99.792 
L 248.270257 145.4544 
L 295.383106 175.896 
L 307.120214 182.4192 
L 328.447073 193.2912 
L 351.963537 204.1632 
L 375.48 212.8608 
L 398.996463 221.5584 
L 430.083537 228.0816 
L 453.6 230.256 
" style="fill:none;stroke:#50b131;stroke-linecap:square;stroke-width:2;"/>
    <defs>
     <path d="M 0 1.5 
C 0.397805 1.5 0.77937 1.341951 1.06066 1.06066 
C 1.341951 0.77937 1.5 0.397805 1.5 0 
C 1.5 -0.397805 1.341951 -0.77937 1.06066 -1.06066 
C 0.77937 -1.341951 0.397805 -1.5 0 -1.5 
C -0.397805 -1.5 -0.77937 -1.341951 -1.06066 -1.06066 
C -1.341951 -0.77937 -1.5 -0.397805 -1.5 0 
C -1.5 0.397805 -1.341951 0.77937 -1.06066 1.06066 
C -0.77937 1.341951 -0.397805 1.5 0 1.5 
z
" id="m7971ecccf5" style="stroke:#50b131;"/>
    </defs>
    <g clip-path="url(#p14b5e745ab)">
     <use style="fill:#50b131;stroke:#50b131;" x="72.760214" xlink:href="#m7971ecccf5" y="34.56"/>
     <use style="fill:#50b131;stroke:#50b131;" x="119.343769" xlink:href="#m7971ecccf5" y="54.1296"/>
     <use style="fill:#50b131;stroke:#50b131;" x="142.860232" xlink:href="#m7971ecccf5" y="62.8272"/>
     <use style="fill:#50b131;stroke:#50b131;" x="166.376695" xlink:href="#m7971ecccf5" y="75.8736"/>
     <use style="fill:#50b131;stroke:#50b131;" x="195.723537" xlink:href="#m7971ecccf5" y="99.792"/>
     <use style="fill:#50b131;stroke:#50b131;" x="248.270257" xlink:href="#m7971ecccf5" y="145.4544"/>
     <use style="fill:#50b131;stroke:#50b131;" x="295.383106" xlink:href="#m7971ecccf5" y="175.896"/>
     <use style="fill:#50b131;stroke:#50b131;" x="307.120214" xlink:href="#m7971ecccf5" y="182.4192"/>
     <use style="fill:#50b131;stroke:#50b131;" x="328.447073" xlink:href="#m7971ecccf5" y="193.2912"/>
     <use style="fill:#50b131;stroke:#50b131;" x="351.963537" xlink:href="#m7971ecccf5" y="204.1632"/>
     <use style="fill:#50b131;stroke:#50b131;" x="375.48" xlink:href="#m7971ecccf5" y="212.8608"/>
     <use style="fill:#50b131;stroke:#50b131;" x="398.996463" xlink:href="#m7971ecccf5" y="221.5584"/>
     <use style="fill:#50b131;stroke:#50b131;" x="430.083537" xlink:href="#m7971ecccf5" y="228.0816"/>
     <use style="fill:#50b131;stroke:#50b131;" x="453.6" xlink:href="#m7971ecccf5" y="230.256"/>
    </g>
   </g>
   <g id="line2d_108">
    <path clip-path="url(#p14b5e745ab)" d="M 195.723537 34.56 
L 224.753794 36.7344 
L 248.270257 54.1296 
L 266.272927 171.5472 
L 283.603751 232.4304 
L 295.383106 243.3024 
" style="fill:none;stroke:#36ada4;stroke-linecap:square;stroke-width:2;"/>
    <defs>
     <path d="M 0 1.5 
C 0.397805 1.5 0.77937 1.341951 1.06066 1.06066 
C 1.341951 0.77937 1.5 0.397805 1.5 0 
C 1.5 -0.397805 1.341951 -0.77937 1.06066 -1.06066 
C 0.77937 -1.341951 0.397805 -1.5 0 -1.5 
C -0.397805 -1.5 -0.77937 -1.341951 -1.06066 -1.06066 
C -1.341951 -0.77937 -1.5 -0.397805 -1.5 0 
C -1.5 0.397805 -1.341951 0.77937 -1.06066 1.06066 
C -0.77937 1.341951 -0.397805 1.5 0 1.5 
z
" id="m305340819e" style="stroke:#36ada4;"/>
    </defs>
    <g clip-path="url(#p14b5e745ab)">
     <use style="fill:#36ada4;stroke:#36ada4;" x="195.723537" xlink:href="#m305340819e" y="34.56"/>
     <use style="fill:#36ada4;stroke:#36ada4;" x="224.753794" xlink:href="#m305340819e" y="36.7344"/>
     <use style="fill:#36ada4;stroke:#36ada4;" x="248.270257" xlink:href="#m305340819e" y="54.1296"/>
     <use style="fill:#36ada4;stroke:#36ada4;" x="266.272927" xlink:href="#m305340819e" y="171.5472"/>
     <use style="fill:#36ada4;stroke:#36ada4;" x="283.603751" xlink:href="#m305340819e" y="232.4304"/>
     <use style="fill:#36ada4;stroke:#36ada4;" x="295.383106" xlink:href="#m305340819e" y="243.3024"/>
    </g>
   </g>
   <g id="line2d_109">
    <path clip-path="url(#p14b5e745ab)" d="M 166.376695 34.56 
L 195.723537 58.4784 
L 248.270257 115.0128 
L 295.383106 121.536 
L 307.120214 128.0592 
L 328.447073 162.8496 
L 351.963537 175.896 
L 375.48 208.512 
L 398.996463 234.6048 
" style="fill:none;stroke:#3ba3ec;stroke-linecap:square;stroke-width:2;"/>
    <defs>
     <path d="M 0 1.5 
C 0.397805 1.5 0.77937 1.341951 1.06066 1.06066 
C 1.341951 0.77937 1.5 0.397805 1.5 0 
C 1.5 -0.397805 1.341951 -0.77937 1.06066 -1.06066 
C 0.77937 -1.341951 0.397805 -1.5 0 -1.5 
C -0.397805 -1.5 -0.77937 -1.341951 -1.06066 -1.06066 
C -1.341951 -0.77937 -1.5 -0.397805 -1.5 0 
C -1.5 0.397805 -1.341951 0.77937 -1.06066 1.06066 
C -0.77937 1.341951 -0.397805 1.5 0 1.5 
z
" id="ma6553f2f87" style="stroke:#3ba3ec;"/>
    </defs>
    <g clip-path="url(#p14b5e745ab)">
     <use style="fill:#3ba3ec;stroke:#3ba3ec;" x="166.376695" xlink:href="#ma6553f2f87" y="34.56"/>
     <use style="fill:#3ba3ec;stroke:#3ba3ec;" x="195.723537" xlink:href="#ma6553f2f87" y="58.4784"/>
     <use style="fill:#3ba3ec;stroke:#3ba3ec;" x="248.270257" xlink:href="#ma6553f2f87" y="115.0128"/>
     <use style="fill:#3ba3ec;stroke:#3ba3ec;" x="295.383106" xlink:href="#ma6553f2f87" y="121.536"/>
     <use style="fill:#3ba3ec;stroke:#3ba3ec;" x="307.120214" xlink:href="#ma6553f2f87" y="128.0592"/>
     <use style="fill:#3ba3ec;stroke:#3ba3ec;" x="328.447073" xlink:href="#ma6553f2f87" y="162.8496"/>
     <use style="fill:#3ba3ec;stroke:#3ba3ec;" x="351.963537" xlink:href="#ma6553f2f87" y="175.896"/>
     <use style="fill:#3ba3ec;stroke:#3ba3ec;" x="375.48" xlink:href="#ma6553f2f87" y="208.512"/>
     <use style="fill:#3ba3ec;stroke:#3ba3ec;" x="398.996463" xlink:href="#ma6553f2f87" y="234.6048"/>
    </g>
   </g>
   <g id="line2d_110">
    <path clip-path="url(#p14b5e745ab)" d="M 307.120214 34.56 
L 328.447073 36.7344 
L 351.963537 51.9552 
L 375.48 73.6992 
L 398.996463 97.6176 
L 430.083537 138.9312 
L 453.6 167.1984 
" style="fill:none;stroke:#e866f4;stroke-linecap:square;stroke-width:2;"/>
    <defs>
     <path d="M 0 1.5 
C 0.397805 1.5 0.77937 1.341951 1.06066 1.06066 
C 1.341951 0.77937 1.5 0.397805 1.5 0 
C 1.5 -0.397805 1.341951 -0.77937 1.06066 -1.06066 
C 0.77937 -1.341951 0.397805 -1.5 0 -1.5 
C -0.397805 -1.5 -0.77937 -1.341951 -1.06066 -1.06066 
C -1.341951 -0.77937 -1.5 -0.397805 -1.5 0 
C -1.5 0.397805 -1.341951 0.77937 -1.06066 1.06066 
C -0.77937 1.341951 -0.397805 1.5 0 1.5 
z
" id="mafcb12867b" style="stroke:#e866f4;"/>
    </defs>
    <g clip-path="url(#p14b5e745ab)">
     <use style="fill:#e866f4;stroke:#e866f4;" x="307.120214" xlink:href="#mafcb12867b" y="34.56"/>
     <use style="fill:#e866f4;stroke:#e866f4;" x="328.447073" xlink:href="#mafcb12867b" y="36.7344"/>
     <use style="fill:#e866f4;stroke:#e866f4;" x="351.963537" xlink:href="#mafcb12867b" y="51.9552"/>
     <use style="fill:#e866f4;stroke:#e866f4;" x="375.48" xlink:href="#mafcb12867b" y="73.6992"/>
     <use style="fill:#e866f4;stroke:#e866f4;" x="398.996463" xlink:href="#mafcb12867b" y="97.6176"/>
     <use style="fill:#e866f4;stroke:#e866f4;" x="430.083537" xlink:href="#mafcb12867b" y="138.9312"/>
     <use style="fill:#e866f4;stroke:#e866f4;" x="453.6" xlink:href="#mafcb12867b" y="167.1984"/>
    </g>
   </g>
   <g id="patch_3">
    <path d="M 63 252 
L 63 34.56 
" style="fill:none;stroke:#000000;stroke-linecap:square;stroke-linejoin:miter;stroke-width:0.8;"/>
   </g>
   <g id="patch_4">
    <path d="M 453.6 252 
L 453.6 34.56 
" style="fill:none;stroke:#000000;stroke-linecap:square;stroke-linejoin:miter;stroke-width:0.8;"/>
   </g>
   <g id="patch_5">
    <path d="M 63 252 
L 453.6 252 
" style="fill:none;stroke:#000000;stroke-linecap:square;stroke-linejoin:miter;stroke-width:0.8;"/>
   </g>
   <g id="patch_6">
    <path d="M 63 34.56 
L 453.6 34.56 
" style="fill:none;stroke:#000000;stroke-linecap:square;stroke-linejoin:miter;stroke-width:0.8;"/>
   </g>
   <g id="legend_1">
    <g id="patch_7">
     <path d="M 67 248 
L 128.331007 248 
L 128.331007 169.101526 
L 67 169.101526 
z
" style="fill:#ffffff;stroke:#000000;stroke-linejoin:miter;"/>
    </g>
    <g id="line2d_111">
     <path d="M 75 179.901526 
L 91 179.901526 
" style="fill:none;stroke:#f77189;stroke-linecap:square;stroke-width:2;"/>
    </g>
    <g id="line2d_112">
     <g>
      <use style="fill:#f77189;stroke:#f77189;" x="83" xlink:href="#m43d2bb7f7c" y="179.901526"/>
     </g>
    </g>
    <g id="text_15">
     <!-- Soil A -->
     <g transform="translate(97.4 182.701526)scale(0.08 -0.08)">
      <defs>
       <path d="M 2803 4351 
C 2803 4467 2797 4473 2758 4473 
C 2720 4473 2707 4447 2682 4390 
L 2490 3965 
C 2246 4320 1875 4480 1472 4480 
C 819 4480 294 3958 294 3301 
C 294 3101 339 2817 557 2546 
C 794 2250 1018 2198 1530 2063 
C 1722 2011 2042 1927 2106 1901 
C 2470 1747 2662 1360 2662 999 
C 2662 534 2336 38 1779 38 
C 1094 38 454 425 410 1328 
C 403 1431 397 1437 352 1437 
C 301 1437 294 1431 294 1302 
L 294 0 
C 294 -116 301 -122 339 -122 
C 384 -122 397 -90 486 109 
C 493 128 493 141 614 386 
C 934 -39 1472 -128 1779 -128 
C 2477 -128 2970 457 2970 1141 
C 2970 1476 2848 1734 2778 1850 
C 2509 2263 2221 2340 1914 2417 
C 1869 2437 1856 2437 1498 2527 
C 1152 2617 1005 2662 845 2836 
C 666 3036 602 3243 602 3449 
C 602 3868 934 4326 1478 4326 
C 2157 4326 2579 3842 2675 3036 
C 2694 2920 2701 2914 2746 2914 
C 2803 2914 2803 2933 2803 3043 
L 2803 4351 
z
" id="CMR17-53" transform="scale(0.015625)"/>
       <path d="M 2758 1356 
C 2758 2176 2163 2816 1466 2816 
C 768 2816 173 2176 173 1356 
C 173 550 768 -64 1466 -64 
C 2163 -64 2758 550 2758 1356 
z
M 1466 51 
C 1165 51 909 230 762 480 
C 602 768 582 1126 582 1408 
C 582 1676 595 2009 762 2297 
C 890 2508 1139 2713 1466 2713 
C 1754 2713 1997 2553 2150 2329 
C 2349 2028 2349 1606 2349 1408 
C 2349 1158 2336 774 2163 467 
C 1984 172 1709 51 1466 51 
z
" id="CMR17-6f" transform="scale(0.015625)"/>
       <path d="M 2323 4441 
C 2291 4524 2278 4544 2214 4544 
C 2150 4544 2138 4524 2106 4441 
L 749 580 
C 627 236 371 166 147 166 
L 147 0 
C 262 12 518 12 640 12 
C 800 12 1056 12 1210 0 
L 1210 166 
C 909 179 864 382 864 459 
C 864 516 877 548 890 586 
L 1229 1536 
L 2906 1536 
L 3290 453 
C 3322 376 3322 363 3322 338 
C 3322 166 3046 166 2925 166 
L 2925 0 
C 3110 12 3443 12 3642 12 
C 3808 12 4128 12 4282 0 
L 4282 166 
C 3942 166 3827 166 3744 402 
L 2323 4441 
z
M 2067 3924 
L 2848 1702 
L 1286 1702 
L 2067 3924 
z
" id="CMR17-41" transform="scale(0.015625)"/>
      </defs>
      <use transform="scale(0.996264)" xlink:href="#CMR17-53"/>
      <use transform="translate(50.89537 0)scale(0.996264)" xlink:href="#CMR17-6f"/>
      <use transform="translate(96.585847 0)scale(0.996264)" xlink:href="#CMR17-69"/>
      <use transform="translate(121.456905 0)scale(0.996264)" xlink:href="#CMR17-6c"/>
      <use transform="translate(176.40393 0)scale(0.996264)" xlink:href="#CMR17-41"/>
     </g>
    </g>
    <g id="line2d_113">
     <path d="M 75 191.051271 
L 91 191.051271 
" style="fill:none;stroke:#bb9832;stroke-linecap:square;stroke-width:2;"/>
    </g>
    <g id="line2d_114">
     <g>
      <use style="fill:#bb9832;stroke:#bb9832;" x="83" xlink:href="#m58c39c0389" y="191.051271"/>
     </g>
    </g>
    <g id="text_16">
     <!-- Soil B -->
     <g transform="translate(97.4 193.851271)scale(0.08 -0.08)">
      <defs>
       <path d="M 333 4352 
L 333 4185 
C 774 4185 845 4185 845 3897 
L 845 451 
C 845 166 774 166 333 166 
L 333 0 
L 2534 0 
C 3354 0 3885 578 3885 1155 
C 3885 1726 3360 2214 2675 2259 
C 3290 2380 3718 2790 3718 3276 
C 3718 3808 3194 4352 2368 4352 
L 333 4352 
z
M 1248 2304 
L 1248 3936 
C 1248 4153 1261 4185 1517 4185 
L 2336 4185 
C 2970 4185 3251 3673 3251 3276 
C 3251 2790 2861 2304 2170 2304 
L 1248 2304 
z
M 1517 166 
C 1261 166 1248 198 1248 413 
L 1248 2201 
L 2432 2201 
C 3091 2201 3411 1624 3411 1161 
C 3411 698 3046 166 2349 166 
L 1517 166 
z
" id="CMR17-42" transform="scale(0.015625)"/>
      </defs>
      <use transform="scale(0.996264)" xlink:href="#CMR17-53"/>
      <use transform="translate(50.89537 0)scale(0.996264)" xlink:href="#CMR17-6f"/>
      <use transform="translate(96.585847 0)scale(0.996264)" xlink:href="#CMR17-69"/>
      <use transform="translate(121.456905 0)scale(0.996264)" xlink:href="#CMR17-6c"/>
      <use transform="translate(176.40393 0)scale(0.996264)" xlink:href="#CMR17-42"/>
     </g>
    </g>
    <g id="line2d_115">
     <path d="M 75 202.201017 
L 91 202.201017 
" style="fill:none;stroke:#50b131;stroke-linecap:square;stroke-width:2;"/>
    </g>
    <g id="line2d_116">
     <g>
      <use style="fill:#50b131;stroke:#50b131;" x="83" xlink:href="#m7971ecccf5" y="202.201017"/>
     </g>
    </g>
    <g id="text_17">
     <!-- Soil C -->
     <g transform="translate(97.4 205.001017)scale(0.08 -0.08)">
      <defs>
       <path d="M 3974 4351 
C 3974 4467 3968 4473 3930 4473 
C 3904 4473 3898 4467 3853 4390 
L 3571 3849 
C 3258 4249 2874 4480 2381 4480 
C 1286 4480 294 3507 294 2179 
C 294 837 1286 -128 2387 -128 
C 3366 -128 3974 741 3974 1482 
C 3974 1547 3974 1573 3917 1573 
C 3866 1573 3866 1553 3859 1495 
C 3808 592 3168 38 2477 38 
C 1824 38 781 502 781 2179 
C 781 3862 1843 4313 2464 4313 
C 3187 4313 3712 3681 3834 2785 
C 3846 2707 3846 2695 3904 2695 
C 3974 2695 3974 2707 3974 2824 
L 3974 4351 
z
" id="CMR17-43" transform="scale(0.015625)"/>
      </defs>
      <use transform="scale(0.996264)" xlink:href="#CMR17-53"/>
      <use transform="translate(50.89537 0)scale(0.996264)" xlink:href="#CMR17-6f"/>
      <use transform="translate(96.585847 0)scale(0.996264)" xlink:href="#CMR17-69"/>
      <use transform="translate(121.456905 0)scale(0.996264)" xlink:href="#CMR17-6c"/>
      <use transform="translate(176.40393 0)scale(0.996264)" xlink:href="#CMR17-43"/>
     </g>
    </g>
    <g id="line2d_117">
     <path d="M 75 213.350763 
L 91 213.350763 
" style="fill:none;stroke:#36ada4;stroke-linecap:square;stroke-width:2;"/>
    </g>
    <g id="line2d_118">
     <g>
      <use style="fill:#36ada4;stroke:#36ada4;" x="83" xlink:href="#m305340819e" y="213.350763"/>
     </g>
    </g>
    <g id="text_18">
     <!-- Soil D -->
     <g transform="translate(97.4 216.150763)scale(0.08 -0.08)">
      <defs>
       <path d="M 333 4352 
L 333 4185 
C 774 4185 845 4185 845 3898 
L 845 453 
C 845 166 774 166 333 166 
L 333 0 
L 2368 0 
C 3398 0 4224 943 4224 2140 
C 4224 3344 3411 4352 2368 4352 
L 333 4352 
z
M 1523 166 
C 1267 166 1254 198 1254 414 
L 1254 3936 
C 1254 4153 1267 4185 1523 4185 
L 2240 4185 
C 2771 4185 3750 3873 3750 2140 
C 3750 1242 3488 879 3366 707 
C 3213 510 2848 166 2240 166 
L 1523 166 
z
" id="CMR17-44" transform="scale(0.015625)"/>
      </defs>
      <use transform="scale(0.996264)" xlink:href="#CMR17-53"/>
      <use transform="translate(50.89537 0)scale(0.996264)" xlink:href="#CMR17-6f"/>
      <use transform="translate(96.585847 0)scale(0.996264)" xlink:href="#CMR17-69"/>
      <use transform="translate(121.456905 0)scale(0.996264)" xlink:href="#CMR17-6c"/>
      <use transform="translate(176.40393 0)scale(0.996264)" xlink:href="#CMR17-44"/>
     </g>
    </g>
    <g id="line2d_119">
     <path d="M 75 224.500509 
L 91 224.500509 
" style="fill:none;stroke:#3ba3ec;stroke-linecap:square;stroke-width:2;"/>
    </g>
    <g id="line2d_120">
     <g>
      <use style="fill:#3ba3ec;stroke:#3ba3ec;" x="83" xlink:href="#ma6553f2f87" y="224.500509"/>
     </g>
    </g>
    <g id="text_19">
     <!-- Soil E -->
     <g transform="translate(97.4 227.300509)scale(0.08 -0.08)">
      <defs>
       <path d="M 3885 1614 
L 3770 1614 
C 3629 676 3546 166 2419 166 
L 1530 166 
C 1274 166 1261 198 1261 415 
L 1261 2176 
L 1862 2176 
C 2464 2176 2522 1959 2522 1429 
L 2637 1429 
L 2637 3086 
L 2522 3086 
C 2522 2558 2464 2342 1862 2342 
L 1261 2342 
L 1261 3924 
C 1261 4141 1274 4172 1530 4172 
L 2406 4172 
C 3398 4172 3514 3778 3603 2933 
L 3718 2933 
L 3565 4339 
L 326 4339 
L 326 4172 
C 768 4172 838 4172 838 3886 
L 838 453 
C 838 166 768 166 326 166 
L 326 0 
L 3654 0 
L 3885 1614 
z
" id="CMR17-45" transform="scale(0.015625)"/>
      </defs>
      <use transform="scale(0.996264)" xlink:href="#CMR17-53"/>
      <use transform="translate(50.89537 0)scale(0.996264)" xlink:href="#CMR17-6f"/>
      <use transform="translate(96.585847 0)scale(0.996264)" xlink:href="#CMR17-69"/>
      <use transform="translate(121.456905 0)scale(0.996264)" xlink:href="#CMR17-6c"/>
      <use transform="translate(176.40393 0)scale(0.996264)" xlink:href="#CMR17-45"/>
     </g>
    </g>
    <g id="line2d_121">
     <path d="M 75 235.650254 
L 91 235.650254 
" style="fill:none;stroke:#e866f4;stroke-linecap:square;stroke-width:2;"/>
    </g>
    <g id="line2d_122">
     <g>
      <use style="fill:#e866f4;stroke:#e866f4;" x="83" xlink:href="#mafcb12867b" y="235.650254"/>
     </g>
    </g>
    <g id="text_20">
     <!-- Soil F -->
     <g transform="translate(97.4 238.450254)scale(0.08 -0.08)">
      <defs>
       <path d="M 3482 4339 
L 326 4339 
L 326 4172 
C 768 4172 838 4172 838 3883 
L 838 450 
C 838 166 768 166 326 166 
L 326 0 
C 512 12 870 12 1069 12 
C 1331 12 1638 12 1901 0 
L 1901 166 
L 1760 166 
C 1274 166 1261 229 1261 456 
L 1261 2073 
L 1837 2073 
C 2432 2073 2490 1865 2490 1334 
L 2605 1334 
L 2605 2991 
L 2490 2991 
C 2490 2451 2432 2240 1837 2240 
L 1261 2240 
L 1261 3922 
C 1261 4140 1274 4172 1530 4172 
L 2355 4172 
C 3322 4172 3430 3774 3520 2920 
L 3635 2920 
L 3482 4339 
z
" id="CMR17-46" transform="scale(0.015625)"/>
      </defs>
      <use transform="scale(0.996264)" xlink:href="#CMR17-53"/>
      <use transform="translate(50.89537 0)scale(0.996264)" xlink:href="#CMR17-6f"/>
      <use transform="translate(96.585847 0)scale(0.996264)" xlink:href="#CMR17-69"/>
      <use transform="translate(121.456905 0)scale(0.996264)" xlink:href="#CMR17-6c"/>
      <use transform="translate(176.40393 0)scale(0.996264)" xlink:href="#CMR17-46"/>
     </g>
    </g>
   </g>
  </g>
 </g>
 <defs>
  <clipPath id="p14b5e745ab">
   <rect height="217.44" width="390.6" x="63" y="34.56"/>
  </clipPath>
 </defs>
</svg>
