<?xml version="1.0" encoding="UTF-8" standalone="no"?>
<!-- Created with Inkscape (http://www.inkscape.org/) -->

<svg
   width="4in"
   height="2in"
   viewBox="0 0 101.6 50.8"
   version="1.1"
   id="svg1"
   inkscape:version="1.4 (86a8ad7, 2024-10-11)"
   sodipodi:docname="settlement_time.svg"
   xmlns:inkscape="http://www.inkscape.org/namespaces/inkscape"
   xmlns:sodipodi="http://sodipodi.sourceforge.net/DTD/sodipodi-0.dtd"
   xmlns="http://www.w3.org/2000/svg"
   xmlns:svg="http://www.w3.org/2000/svg"
   xmlns:ns14="http://www.iki.fi/pav/software/textext/">
  <sodipodi:namedview
     id="namedview1"
     pagecolor="#ffffff"
     bordercolor="#111111"
     borderopacity="1"
     inkscape:showpageshadow="0"
     inkscape:pageopacity="0"
     inkscape:pagecheckerboard="1"
     inkscape:deskcolor="#d1d1d1"
     inkscape:document-units="mm"
     inkscape:zoom="1.4895062"
     inkscape:cx="164.48404"
     inkscape:cy="56.39453"
     inkscape:window-width="1920"
     inkscape:window-height="1009"
     inkscape:window-x="1912"
     inkscape:window-y="-8"
     inkscape:window-maximized="1"
     inkscape:current-layer="layer1" />
  <defs
     id="defs1">
    <marker
       style="overflow:visible"
       id="ArrowWideRounded"
       refX="0"
       refY="0"
       orient="auto-start-reverse"
       inkscape:stockid="Wide, rounded arrow"
       markerWidth="1"
       markerHeight="1"
       viewBox="0 0 1 1"
       inkscape:isstock="true"
       inkscape:collect="always"
       preserveAspectRatio="xMidYMid">
      <path
         style="fill:none;stroke:context-stroke;stroke-width:1;stroke-linecap:round"
         d="M 3,-3 0,0 3,3"
         transform="rotate(180,0.125,0)"
         sodipodi:nodetypes="ccc"
         id="path2" />
    </marker>
    <marker
       style="overflow:visible"
       id="Dot"
       refX="0"
       refY="0"
       orient="auto"
       inkscape:stockid="Dot"
       markerWidth="1"
       markerHeight="1"
       viewBox="0 0 1 1"
       inkscape:isstock="true"
       inkscape:collect="always"
       preserveAspectRatio="xMidYMid">
      <path
         transform="scale(0.5)"
         style="fill:context-stroke;fill-rule:evenodd;stroke:none"
         d="M 5,0 C 5,2.76 2.76,5 0,5 -2.76,5 -5,2.76 -5,0 c 0,-2.76 2.3,-5 5,-5 2.76,0 5,2.24 5,5 z"
         sodipodi:nodetypes="sssss"
         id="path17" />
    </marker>
    <marker
       style="overflow:visible"
       id="marker30"
       refX="0"
       refY="0"
       orient="auto"
       inkscape:stockid="Stop"
       markerWidth="1"
       markerHeight="1"
       viewBox="0 0 1 1"
       inkscape:isstock="true"
       inkscape:collect="always"
       preserveAspectRatio="xMidYMid">
      <path
         style="fill:none;stroke:context-stroke;stroke-width:1"
         d="M 0,4 V -4"
         id="path30" />
    </marker>
    <marker
       style="overflow:visible"
       id="Stop"
       refX="0"
       refY="0"
       orient="auto"
       inkscape:stockid="Stop"
       markerWidth="1"
       markerHeight="1"
       viewBox="0 0 1 1"
       inkscape:isstock="true"
       inkscape:collect="always"
       preserveAspectRatio="xMidYMid">
      <path
         style="fill:none;stroke:context-stroke;stroke-width:1"
         d="M 0,4 V -4"
         id="path29" />
    </marker>
    <marker
       style="overflow:visible"
       id="marker27"
       refX="0"
       refY="0"
       orient="auto-start-reverse"
       inkscape:stockid="Wide arrow"
       markerWidth="1"
       markerHeight="1"
       viewBox="0 0 1 1"
       inkscape:isstock="true"
       inkscape:collect="always"
       preserveAspectRatio="xMidYMid">
      <path
         style="fill:none;stroke:context-stroke;stroke-width:1;stroke-linecap:butt"
         d="M 3,-3 0,0 3,3"
         transform="rotate(180,0.125,0)"
         sodipodi:nodetypes="ccc"
         id="path27" />
    </marker>
    <marker
       style="overflow:visible"
       id="ArrowWide"
       refX="0"
       refY="0"
       orient="auto-start-reverse"
       inkscape:stockid="Wide arrow"
       markerWidth="1"
       markerHeight="1"
       viewBox="0 0 1 1"
       inkscape:isstock="true"
       inkscape:collect="always"
       preserveAspectRatio="xMidYMid">
      <path
         style="fill:none;stroke:context-stroke;stroke-width:1;stroke-linecap:butt"
         d="M 3,-3 0,0 3,3"
         transform="rotate(180,0.125,0)"
         sodipodi:nodetypes="ccc"
         id="path22" />
    </marker>
    <marker
       style="overflow:visible"
       id="DartArrow"
       refX="0"
       refY="0"
       orient="auto-start-reverse"
       inkscape:stockid="Dart arrow"
       markerWidth="1"
       markerHeight="1"
       viewBox="0 0 1 1"
       inkscape:isstock="true"
       inkscape:collect="always"
       preserveAspectRatio="xMidYMid">
      <path
         style="fill:context-stroke;fill-rule:evenodd;stroke:none"
         d="M 0,0 5,-5 -12.5,0 5,5 Z"
         transform="scale(-0.5)"
         id="path6" />
    </marker>
  </defs>
  <g
     inkscape:label="Layer 1"
     inkscape:groupmode="layer"
     id="layer1">
    <path
       style="fill:none;stroke:#000000;stroke-width:0.265;stroke-linecap:butt;stroke-linejoin:miter;stroke-dasharray:none;stroke-opacity:1;marker-start:url(#DartArrow);marker-end:url(#DartArrow)"
       d="M 5.2819479,2.7632988 V 46.054201 H 97.853854"
       id="path1" />
    <g
       transform="matrix(0,-0.352778,0.352778,0,1.0893591,37.461854)"
       ns14:version="1.10.2"
       ns14:texconverter="pdflatex"
       ns14:pdfconverter="inkscape"
       ns14:text="Void ration $e$ [-]"
       ns14:preamble="C:\Users\zamcr\AppData\Roaming\inkscape\extensions\textext\default_packages.tex"
       ns14:scale="1.0"
       ns14:alignment="middle center"
       ns14:stroke-to-path="0"
       ns14:inkscapeversion="1.4"
       ns14:jacobian_sqrt="0.352778"
       id="g16">
      <defs
         id="id-711c413d-d68c-4d4b-bc28-5c92e4356df8">
        <g
           id="id-013d95f6-ead7-465f-8361-a4d86bbe7f31">
          <g
             id="id-db476495-a91b-40be-984b-c0a051e93699">
            <path
               d="M 6.1875,-5.828125 C 6.328125,-6.203125 6.59375,-6.484375 7.28125,-6.5 v -0.3125 c -0.3125,0.03125 -0.71875,0.03125 -0.96875,0.03125 -0.296875,0 -0.875,-0.015625 -1.140625,-0.03125 V -6.5 C 5.6875,-6.484375 5.90625,-6.234375 5.90625,-6 c 0,0.078125 -0.03125,0.140625 -0.046875,0.203125 L 4.03125,-1 2.125,-6.03125 C 2.0625,-6.171875 2.0625,-6.1875 2.0625,-6.203125 2.0625,-6.5 2.625,-6.5 2.875,-6.5 v -0.3125 c -0.359375,0.03125 -1.046875,0.03125 -1.421875,0.03125 -0.46875,0 -0.90625,-0.015625 -1.265625,-0.03125 V -6.5 c 0.65625,0 0.84375,0 0.984375,0.375 L 3.484375,0 c 0.0625,0.1875 0.109375,0.21875 0.25,0.21875 0.15625,0 0.1875,-0.046875 0.234375,-0.1875 z m 0,0"
               id="id-3e07ada1-0520-4a1a-b9c8-4666f425ef4c" />
          </g>
          <g
             id="id-38485d3d-413a-4f0a-91da-5ca3cf483f63">
            <path
               d="M 4.6875,-2.140625 C 4.6875,-3.40625 3.703125,-4.46875 2.5,-4.46875 c -1.25,0 -2.21875,1.09375 -2.21875,2.328125 0,1.296875 1.03125,2.25 2.203125,2.25 1.203125,0 2.203125,-0.984375 2.203125,-2.25 z m -2.1875,2 c -0.4375,0 -0.875,-0.203125 -1.140625,-0.671875 -0.25,-0.4375 -0.25,-1.046875 -0.25,-1.40625 0,-0.390625 0,-0.921875 0.234375,-1.359375 C 1.609375,-4.03125 2.078125,-4.25 2.484375,-4.25 c 0.4375,0 0.859375,0.21875 1.125,0.65625 0.265625,0.421875 0.265625,1 0.265625,1.375 0,0.359375 0,0.90625 -0.21875,1.34375 C 3.421875,-0.421875 2.984375,-0.140625 2.5,-0.140625 Z m 0,0"
               id="id-b6b89a18-4f63-4cbe-beff-d56b13fbd1f3" />
          </g>
          <g
             id="id-1f804e3d-5f37-48a5-99a1-b130f8bd4fe0">
            <path
               d="M 1.765625,-4.40625 0.375,-4.296875 v 0.3125 c 0.640625,0 0.734375,0.0625 0.734375,0.546875 V -0.75 c 0,0.4375 -0.109375,0.4375 -0.78125,0.4375 V 0 C 0.640625,-0.015625 1.1875,-0.03125 1.421875,-0.03125 1.78125,-0.03125 2.125,-0.015625 2.46875,0 v -0.3125 c -0.671875,0 -0.703125,-0.046875 -0.703125,-0.4375 z m 0.03125,-1.734375 c 0,-0.3125 -0.234375,-0.53125 -0.515625,-0.53125 -0.3125,0 -0.53125,0.265625 -0.53125,0.53125 0,0.265625 0.21875,0.53125 0.53125,0.53125 0.28125,0 0.515625,-0.21875 0.515625,-0.53125 z m 0,0"
               id="id-cbec4282-de3b-45b1-956e-b144065e9c8a" />
          </g>
          <g
             id="id-0103b90d-47ee-4e66-bc6f-da970d49b8cd">
            <path
               d="m 3.78125,-0.546875 v 0.65625 L 5.25,0 v -0.3125 c -0.6875,0 -0.78125,-0.0625 -0.78125,-0.5625 V -6.921875 L 3.046875,-6.8125 V -6.5 c 0.6875,0 0.765625,0.0625 0.765625,0.5625 v 2.15625 c -0.28125,-0.359375 -0.71875,-0.625 -1.25,-0.625 -1.171875,0 -2.21875,0.984375 -2.21875,2.265625 0,1.265625 0.96875,2.25 2.109375,2.25 0.640625,0 1.078125,-0.34375 1.328125,-0.65625 z m 0,-2.671875 v 2.046875 c 0,0.171875 0,0.1875 -0.109375,0.359375 C 3.375,-0.328125 2.9375,-0.109375 2.5,-0.109375 2.046875,-0.109375 1.6875,-0.375 1.453125,-0.75 1.203125,-1.15625 1.171875,-1.71875 1.171875,-2.140625 1.171875,-2.5 1.1875,-3.09375 1.46875,-3.546875 1.6875,-3.859375 2.0625,-4.1875 2.609375,-4.1875 c 0.34375,0 0.765625,0.15625 1.0625,0.59375 0.109375,0.171875 0.109375,0.1875 0.109375,0.375 z m 0,0"
               id="id-8b9b8d09-3378-4b62-a9f2-2db1054cc078" />
          </g>
          <g
             id="id-91178ab0-e31a-41fb-b5f4-00874f8f554c">
            <path
               d="M 1.671875,-3.3125 V -4.40625 L 0.28125,-4.296875 v 0.3125 c 0.703125,0 0.78125,0.0625 0.78125,0.5625 V -0.75 c 0,0.4375 -0.109375,0.4375 -0.78125,0.4375 V 0 c 0.390625,-0.015625 0.859375,-0.03125 1.140625,-0.03125 0.390625,0 0.859375,0 1.265625,0.03125 V -0.3125 H 2.46875 c -0.734375,0 -0.75,-0.109375 -0.75,-0.46875 V -2.3125 c 0,-0.984375 0.421875,-1.875 1.171875,-1.875 0.0625,0 0.09375,0 0.109375,0.015625 -0.03125,0 -0.234375,0.125 -0.234375,0.390625 0,0.265625 0.21875,0.421875 0.4375,0.421875 0.171875,0 0.421875,-0.125 0.421875,-0.4375 0,-0.3125 -0.3125,-0.609375 -0.734375,-0.609375 -0.734375,0 -1.09375,0.671875 -1.21875,1.09375 z m 0,0"
               id="id-f440415b-a231-448b-9aa4-c2f2a8375741" />
          </g>
          <g
             id="id-f9065033-f17b-4ed7-abd7-0d5f109a234a">
            <path
               d="m 3.3125,-0.75 c 0.046875,0.390625 0.3125,0.8125 0.78125,0.8125 0.21875,0 0.828125,-0.140625 0.828125,-0.953125 v -0.5625 h -0.25 v 0.5625 c 0,0.578125 -0.25,0.640625 -0.359375,0.640625 -0.328125,0 -0.375,-0.453125 -0.375,-0.5 v -1.984375 c 0,-0.421875 0,-0.8125 -0.359375,-1.1875 C 3.1875,-4.3125 2.6875,-4.46875 2.21875,-4.46875 c -0.828125,0 -1.515625,0.46875 -1.515625,1.125 0,0.296875 0.203125,0.46875 0.46875,0.46875 0.28125,0 0.453125,-0.203125 0.453125,-0.453125 0,-0.125 -0.046875,-0.453125 -0.515625,-0.453125 C 1.390625,-4.140625 1.875,-4.25 2.1875,-4.25 c 0.5,0 1.0625,0.390625 1.0625,1.28125 v 0.359375 c -0.515625,0.03125 -1.203125,0.0625 -1.828125,0.359375 -0.75,0.34375 -1,0.859375 -1,1.296875 0,0.8125 0.96875,1.0625 1.59375,1.0625 0.65625,0 1.109375,-0.40625 1.296875,-0.859375 z M 3.25,-2.390625 v 1 c 0,0.9375 -0.71875,1.28125 -1.171875,1.28125 -0.484375,0 -0.890625,-0.34375 -0.890625,-0.84375 0,-0.546875 0.421875,-1.375 2.0625,-1.4375 z m 0,0"
               id="id-4293ea27-148a-4d8f-98a3-90d37391069c" />
          </g>
          <g
             id="id-d5043f37-b5a2-4725-b72a-e4c8b48bcff2">
            <path
               d="m 1.71875,-3.984375 h 1.4375 v -0.3125 H 1.71875 V -6.125 h -0.25 c 0,0.8125 -0.296875,1.875 -1.28125,1.921875 v 0.21875 h 0.84375 v 2.75 c 0,1.21875 0.9375,1.34375 1.296875,1.34375 0.703125,0 0.984375,-0.703125 0.984375,-1.34375 v -0.5625 h -0.25 V -1.25 c 0,0.734375 -0.296875,1.109375 -0.671875,1.109375 -0.671875,0 -0.671875,-0.90625 -0.671875,-1.078125 z m 0,0"
               id="id-a3505f58-3b71-4b48-ab91-e8f859a86bab" />
          </g>
          <g
             id="id-01e302b6-7268-4493-985d-59bec9b38ef3">
            <path
               d="M 1.09375,-3.421875 V -0.75 c 0,0.4375 -0.109375,0.4375 -0.78125,0.4375 V 0 c 0.359375,-0.015625 0.859375,-0.03125 1.140625,-0.03125 0.25,0 0.765625,0.015625 1.109375,0.03125 v -0.3125 c -0.671875,0 -0.78125,0 -0.78125,-0.4375 V -2.59375 C 1.78125,-3.625 2.5,-4.1875 3.125,-4.1875 c 0.640625,0 0.75,0.53125 0.75,1.109375 V -0.75 c 0,0.4375 -0.109375,0.4375 -0.78125,0.4375 V 0 c 0.34375,-0.015625 0.859375,-0.03125 1.125,-0.03125 0.25,0 0.78125,0.015625 1.109375,0.03125 v -0.3125 c -0.515625,0 -0.765625,0 -0.765625,-0.296875 v -1.90625 c 0,-0.859375 0,-1.15625 -0.3125,-1.515625 -0.140625,-0.171875 -0.46875,-0.375 -1.046875,-0.375 C 2.46875,-4.40625 2,-3.984375 1.71875,-3.359375 V -4.40625 L 0.3125,-4.296875 v 0.3125 c 0.703125,0 0.78125,0.0625 0.78125,0.5625 z m 0,0"
               id="id-889f07a1-c373-41ef-863b-7bc642065815" />
          </g>
          <g
             id="id-ef4e6cb6-a1d2-4910-a6d6-c1bafb0952de">
            <path
               d="M 2.546875,2.5 V 2.09375 h -0.96875 v -9.171875 h 0.96875 v -0.40625 h -1.375 V 2.5 Z m 0,0"
               id="id-eaeb552f-4234-42de-a082-31361d4fb14b" />
          </g>
          <g
             id="id-6b80e506-7870-4a3e-8fcf-e1b317ce4909">
            <path
               d="M 2.75,-1.859375 V -2.4375 H 0.109375 v 0.578125 z m 0,0"
               id="id-d0558609-8cf3-49af-b5d7-042772196e2c" />
          </g>
          <g
             id="id-d9a0b515-c006-4eae-941d-6a754126b15f">
            <path
               d="M 1.578125,-7.484375 H 0.21875 v 0.40625 H 1.1875 V 2.09375 H 0.21875 V 2.5 h 1.359375 z m 0,0"
               id="id-3b3fe79d-b6d7-4103-99a1-a7a34c729866" />
          </g>
          <g
             id="id-2e1789a3-7db4-47bf-a9e8-ecd070bf1672">
            <path
               d="m 1.859375,-2.296875 c 0.296875,0 1.03125,-0.03125 1.53125,-0.234375 0.703125,-0.296875 0.75,-0.890625 0.75,-1.03125 0,-0.4375 -0.375,-0.84375 -1.0625,-0.84375 -1.109375,0 -2.625,0.96875 -2.625,2.71875 0,1.015625 0.59375,1.796875 1.578125,1.796875 1.421875,0 2.25,-1.0625 2.25,-1.171875 0,-0.0625 -0.046875,-0.140625 -0.109375,-0.140625 -0.0625,0 -0.078125,0.03125 -0.140625,0.109375 -0.78125,0.984375 -1.875,0.984375 -1.984375,0.984375 -0.78125,0 -0.875,-0.84375 -0.875,-1.15625 0,-0.125 0.015625,-0.421875 0.15625,-1.03125 z m -0.46875,-0.21875 C 1.78125,-4.03125 2.8125,-4.1875 3.078125,-4.1875 c 0.453125,0 0.734375,0.296875 0.734375,0.625 0,1.046875 -1.59375,1.046875 -2.015625,1.046875 z m 0,0"
               id="id-56bf7161-f78c-44a9-8e0d-c3fad6b9042c" />
          </g>
        </g>
      </defs>
      <g
         fill="#000000"
         fill-opacity="1"
         id="id-63ca7145-5d71-4c19-8a29-ce189d42abdd"
         transform="translate(-148.9,-127.281)">
        <g
           transform="translate(148.712,134.765)"
           id="g2">
          <path
             d="M 6.1875,-5.828125 C 6.328125,-6.203125 6.59375,-6.484375 7.28125,-6.5 v -0.3125 c -0.3125,0.03125 -0.71875,0.03125 -0.96875,0.03125 -0.296875,0 -0.875,-0.015625 -1.140625,-0.03125 V -6.5 C 5.6875,-6.484375 5.90625,-6.234375 5.90625,-6 c 0,0.078125 -0.03125,0.140625 -0.046875,0.203125 L 4.03125,-1 2.125,-6.03125 C 2.0625,-6.171875 2.0625,-6.1875 2.0625,-6.203125 2.0625,-6.5 2.625,-6.5 2.875,-6.5 v -0.3125 c -0.359375,0.03125 -1.046875,0.03125 -1.421875,0.03125 -0.46875,0 -0.90625,-0.015625 -1.265625,-0.03125 V -6.5 c 0.65625,0 0.84375,0 0.984375,0.375 L 3.484375,0 c 0.0625,0.1875 0.109375,0.21875 0.25,0.21875 0.15625,0 0.1875,-0.046875 0.234375,-0.1875 z m 0,0"
             id="id-f87ea496-7d99-450b-bb6a-a08a0542ae04" />
        </g>
      </g>
      <g
         fill="#000000"
         fill-opacity="1"
         id="id-e9b508b2-adb0-43b9-8fdc-17a0e28fb3e3"
         transform="translate(-148.9,-127.281)">
        <g
           transform="translate(155.357,134.765)"
           id="g3">
          <path
             d="M 4.6875,-2.140625 C 4.6875,-3.40625 3.703125,-4.46875 2.5,-4.46875 c -1.25,0 -2.21875,1.09375 -2.21875,2.328125 0,1.296875 1.03125,2.25 2.203125,2.25 1.203125,0 2.203125,-0.984375 2.203125,-2.25 z m -2.1875,2 c -0.4375,0 -0.875,-0.203125 -1.140625,-0.671875 -0.25,-0.4375 -0.25,-1.046875 -0.25,-1.40625 0,-0.390625 0,-0.921875 0.234375,-1.359375 C 1.609375,-4.03125 2.078125,-4.25 2.484375,-4.25 c 0.4375,0 0.859375,0.21875 1.125,0.65625 0.265625,0.421875 0.265625,1 0.265625,1.375 0,0.359375 0,0.90625 -0.21875,1.34375 C 3.421875,-0.421875 2.984375,-0.140625 2.5,-0.140625 Z m 0,0"
             id="id-5d47124e-0d03-4127-bb25-236e33ad073b" />
        </g>
        <g
           transform="translate(160.338,134.765)"
           id="g4">
          <path
             d="M 1.765625,-4.40625 0.375,-4.296875 v 0.3125 c 0.640625,0 0.734375,0.0625 0.734375,0.546875 V -0.75 c 0,0.4375 -0.109375,0.4375 -0.78125,0.4375 V 0 C 0.640625,-0.015625 1.1875,-0.03125 1.421875,-0.03125 1.78125,-0.03125 2.125,-0.015625 2.46875,0 v -0.3125 c -0.671875,0 -0.703125,-0.046875 -0.703125,-0.4375 z m 0.03125,-1.734375 c 0,-0.3125 -0.234375,-0.53125 -0.515625,-0.53125 -0.3125,0 -0.53125,0.265625 -0.53125,0.53125 0,0.265625 0.21875,0.53125 0.53125,0.53125 0.28125,0 0.515625,-0.21875 0.515625,-0.53125 z m 0,0"
             id="id-356678a9-fb08-4a3b-b295-290e09b2dac1" />
        </g>
        <g
           transform="translate(163.106,134.765)"
           id="g5">
          <path
             d="m 3.78125,-0.546875 v 0.65625 L 5.25,0 v -0.3125 c -0.6875,0 -0.78125,-0.0625 -0.78125,-0.5625 V -6.921875 L 3.046875,-6.8125 V -6.5 c 0.6875,0 0.765625,0.0625 0.765625,0.5625 v 2.15625 c -0.28125,-0.359375 -0.71875,-0.625 -1.25,-0.625 -1.171875,0 -2.21875,0.984375 -2.21875,2.265625 0,1.265625 0.96875,2.25 2.109375,2.25 0.640625,0 1.078125,-0.34375 1.328125,-0.65625 z m 0,-2.671875 v 2.046875 c 0,0.171875 0,0.1875 -0.109375,0.359375 C 3.375,-0.328125 2.9375,-0.109375 2.5,-0.109375 2.046875,-0.109375 1.6875,-0.375 1.453125,-0.75 1.203125,-1.15625 1.171875,-1.71875 1.171875,-2.140625 1.171875,-2.5 1.1875,-3.09375 1.46875,-3.546875 1.6875,-3.859375 2.0625,-4.1875 2.609375,-4.1875 c 0.34375,0 0.765625,0.15625 1.0625,0.59375 0.109375,0.171875 0.109375,0.1875 0.109375,0.375 z m 0,0"
             id="id-7550be71-65ca-45a7-a138-0ab4388e6936" />
        </g>
      </g>
      <g
         fill="#000000"
         fill-opacity="1"
         id="id-ac2930f6-8743-4867-ae61-e0eb336e7863"
         transform="translate(-148.9,-127.281)">
        <g
           transform="translate(171.959,134.765)"
           id="g6">
          <path
             d="M 1.671875,-3.3125 V -4.40625 L 0.28125,-4.296875 v 0.3125 c 0.703125,0 0.78125,0.0625 0.78125,0.5625 V -0.75 c 0,0.4375 -0.109375,0.4375 -0.78125,0.4375 V 0 c 0.390625,-0.015625 0.859375,-0.03125 1.140625,-0.03125 0.390625,0 0.859375,0 1.265625,0.03125 V -0.3125 H 2.46875 c -0.734375,0 -0.75,-0.109375 -0.75,-0.46875 V -2.3125 c 0,-0.984375 0.421875,-1.875 1.171875,-1.875 0.0625,0 0.09375,0 0.109375,0.015625 -0.03125,0 -0.234375,0.125 -0.234375,0.390625 0,0.265625 0.21875,0.421875 0.4375,0.421875 0.171875,0 0.421875,-0.125 0.421875,-0.4375 0,-0.3125 -0.3125,-0.609375 -0.734375,-0.609375 -0.734375,0 -1.09375,0.671875 -1.21875,1.09375 z m 0,0"
             id="id-c20c32ba-5b45-4831-b202-dceee9b28697" />
        </g>
        <g
           transform="translate(175.861,134.765)"
           id="g7">
          <path
             d="m 3.3125,-0.75 c 0.046875,0.390625 0.3125,0.8125 0.78125,0.8125 0.21875,0 0.828125,-0.140625 0.828125,-0.953125 v -0.5625 h -0.25 v 0.5625 c 0,0.578125 -0.25,0.640625 -0.359375,0.640625 -0.328125,0 -0.375,-0.453125 -0.375,-0.5 v -1.984375 c 0,-0.421875 0,-0.8125 -0.359375,-1.1875 C 3.1875,-4.3125 2.6875,-4.46875 2.21875,-4.46875 c -0.828125,0 -1.515625,0.46875 -1.515625,1.125 0,0.296875 0.203125,0.46875 0.46875,0.46875 0.28125,0 0.453125,-0.203125 0.453125,-0.453125 0,-0.125 -0.046875,-0.453125 -0.515625,-0.453125 C 1.390625,-4.140625 1.875,-4.25 2.1875,-4.25 c 0.5,0 1.0625,0.390625 1.0625,1.28125 v 0.359375 c -0.515625,0.03125 -1.203125,0.0625 -1.828125,0.359375 -0.75,0.34375 -1,0.859375 -1,1.296875 0,0.8125 0.96875,1.0625 1.59375,1.0625 0.65625,0 1.109375,-0.40625 1.296875,-0.859375 z M 3.25,-2.390625 v 1 c 0,0.9375 -0.71875,1.28125 -1.171875,1.28125 -0.484375,0 -0.890625,-0.34375 -0.890625,-0.84375 0,-0.546875 0.421875,-1.375 2.0625,-1.4375 z m 0,0"
             id="id-18cb57dc-b683-4406-96ba-c6886074f5cb" />
        </g>
        <g
           transform="translate(180.842,134.765)"
           id="g8">
          <path
             d="m 1.71875,-3.984375 h 1.4375 v -0.3125 H 1.71875 V -6.125 h -0.25 c 0,0.8125 -0.296875,1.875 -1.28125,1.921875 v 0.21875 h 0.84375 v 2.75 c 0,1.21875 0.9375,1.34375 1.296875,1.34375 0.703125,0 0.984375,-0.703125 0.984375,-1.34375 v -0.5625 h -0.25 V -1.25 c 0,0.734375 -0.296875,1.109375 -0.671875,1.109375 -0.671875,0 -0.671875,-0.90625 -0.671875,-1.078125 z m 0,0"
             id="id-911a63d7-4e78-4504-b467-a97c4a0d8e3e" />
        </g>
        <g
           transform="translate(184.717,134.765)"
           id="g9">
          <path
             d="M 1.765625,-4.40625 0.375,-4.296875 v 0.3125 c 0.640625,0 0.734375,0.0625 0.734375,0.546875 V -0.75 c 0,0.4375 -0.109375,0.4375 -0.78125,0.4375 V 0 C 0.640625,-0.015625 1.1875,-0.03125 1.421875,-0.03125 1.78125,-0.03125 2.125,-0.015625 2.46875,0 v -0.3125 c -0.671875,0 -0.703125,-0.046875 -0.703125,-0.4375 z m 0.03125,-1.734375 c 0,-0.3125 -0.234375,-0.53125 -0.515625,-0.53125 -0.3125,0 -0.53125,0.265625 -0.53125,0.53125 0,0.265625 0.21875,0.53125 0.53125,0.53125 0.28125,0 0.515625,-0.21875 0.515625,-0.53125 z m 0,0"
             id="id-2b7d85e1-4a23-4537-8ed3-185c127b9b9e" />
        </g>
        <g
           transform="translate(187.484,134.765)"
           id="g10">
          <path
             d="M 4.6875,-2.140625 C 4.6875,-3.40625 3.703125,-4.46875 2.5,-4.46875 c -1.25,0 -2.21875,1.09375 -2.21875,2.328125 0,1.296875 1.03125,2.25 2.203125,2.25 1.203125,0 2.203125,-0.984375 2.203125,-2.25 z m -2.1875,2 c -0.4375,0 -0.875,-0.203125 -1.140625,-0.671875 -0.25,-0.4375 -0.25,-1.046875 -0.25,-1.40625 0,-0.390625 0,-0.921875 0.234375,-1.359375 C 1.609375,-4.03125 2.078125,-4.25 2.484375,-4.25 c 0.4375,0 0.859375,0.21875 1.125,0.65625 0.265625,0.421875 0.265625,1 0.265625,1.375 0,0.359375 0,0.90625 -0.21875,1.34375 C 3.421875,-0.421875 2.984375,-0.140625 2.5,-0.140625 Z m 0,0"
             id="id-9773148c-f928-4479-83cc-de69f1cd024a" />
        </g>
        <g
           transform="translate(192.466,134.765)"
           id="g11">
          <path
             d="M 1.09375,-3.421875 V -0.75 c 0,0.4375 -0.109375,0.4375 -0.78125,0.4375 V 0 c 0.359375,-0.015625 0.859375,-0.03125 1.140625,-0.03125 0.25,0 0.765625,0.015625 1.109375,0.03125 v -0.3125 c -0.671875,0 -0.78125,0 -0.78125,-0.4375 V -2.59375 C 1.78125,-3.625 2.5,-4.1875 3.125,-4.1875 c 0.640625,0 0.75,0.53125 0.75,1.109375 V -0.75 c 0,0.4375 -0.109375,0.4375 -0.78125,0.4375 V 0 c 0.34375,-0.015625 0.859375,-0.03125 1.125,-0.03125 0.25,0 0.78125,0.015625 1.109375,0.03125 v -0.3125 c -0.515625,0 -0.765625,0 -0.765625,-0.296875 v -1.90625 c 0,-0.859375 0,-1.15625 -0.3125,-1.515625 -0.140625,-0.171875 -0.46875,-0.375 -1.046875,-0.375 C 2.46875,-4.40625 2,-3.984375 1.71875,-3.359375 V -4.40625 L 0.3125,-4.296875 v 0.3125 c 0.703125,0 0.78125,0.0625 0.78125,0.5625 z m 0,0"
             id="id-1f7bfc57-b14b-4bc3-be90-fa3dcf48f77b" />
        </g>
      </g>
      <g
         fill="#000000"
         fill-opacity="1"
         id="id-1f42d7ed-643d-4a95-9fb1-bc6597c52cab"
         transform="translate(-148.9,-127.281)">
        <g
           transform="translate(201.321,134.765)"
           id="g12">
          <path
             d="m 1.859375,-2.296875 c 0.296875,0 1.03125,-0.03125 1.53125,-0.234375 0.703125,-0.296875 0.75,-0.890625 0.75,-1.03125 0,-0.4375 -0.375,-0.84375 -1.0625,-0.84375 -1.109375,0 -2.625,0.96875 -2.625,2.71875 0,1.015625 0.59375,1.796875 1.578125,1.796875 1.421875,0 2.25,-1.0625 2.25,-1.171875 0,-0.0625 -0.046875,-0.140625 -0.109375,-0.140625 -0.0625,0 -0.078125,0.03125 -0.140625,0.109375 -0.78125,0.984375 -1.875,0.984375 -1.984375,0.984375 -0.78125,0 -0.875,-0.84375 -0.875,-1.15625 0,-0.125 0.015625,-0.421875 0.15625,-1.03125 z m -0.46875,-0.21875 C 1.78125,-4.03125 2.8125,-4.1875 3.078125,-4.1875 c 0.453125,0 0.734375,0.296875 0.734375,0.625 0,1.046875 -1.59375,1.046875 -2.015625,1.046875 z m 0,0"
             id="id-091a58e7-ac85-4e6b-9e19-442cfe8fe73e" />
        </g>
      </g>
      <g
         fill="#000000"
         fill-opacity="1"
         id="id-2ff81aca-e13f-49ac-a82a-a4b1288a4f20"
         transform="translate(-148.9,-127.281)">
        <g
           transform="translate(209.28,134.765)"
           id="g13">
          <path
             d="M 2.546875,2.5 V 2.09375 h -0.96875 v -9.171875 h 0.96875 v -0.40625 h -1.375 V 2.5 Z m 0,0"
             id="id-6ab8a13e-3f5c-4f64-9f8d-6d8e6353fb0a" />
        </g>
        <g
           transform="translate(212.048,134.765)"
           id="g14">
          <path
             d="M 2.75,-1.859375 V -2.4375 H 0.109375 v 0.578125 z m 0,0"
             id="id-882759ad-05f9-4af9-b963-0f05f8a2bd71" />
        </g>
        <g
           transform="translate(215.368,134.765)"
           id="g15">
          <path
             d="M 1.578125,-7.484375 H 0.21875 v 0.40625 H 1.1875 V 2.09375 H 0.21875 V 2.5 h 1.359375 z m 0,0"
             id="id-a4306e50-7b61-4ab2-ad18-5d4425a02d8a" />
        </g>
      </g>
    </g>
    <g
       transform="matrix(0.352778,0,0,0.352778,92.257009,47.333195)"
       ns14:version="1.10.2"
       ns14:texconverter="pdflatex"
       ns14:pdfconverter="inkscape"
       ns14:text="$\\log t$"
       ns14:preamble="C:\Users\zamcr\AppData\Roaming\inkscape\extensions\textext\default_packages.tex"
       ns14:scale="1.0"
       ns14:alignment="middle center"
       ns14:stroke-to-path="0"
       ns14:inkscapeversion="1.4"
       ns14:jacobian_sqrt="0.352778"
       id="g21">
      <defs
         id="id-d4dcb79a-69a1-44dc-aa98-7d9ba8eb7857">
        <g
           id="id-0d55c781-2bbc-475a-b424-7fe3a5cfcb54">
          <g
             id="id-adce84ca-09d7-4a7b-bd17-56006e1e0e25">
            <path
               d="M 1.765625,-6.921875 0.328125,-6.8125 V -6.5 c 0.703125,0 0.78125,0.0625 0.78125,0.5625 V -0.75 c 0,0.4375 -0.109375,0.4375 -0.78125,0.4375 V 0 C 0.65625,-0.015625 1.1875,-0.03125 1.4375,-0.03125 c 0.25,0 0.734375,0.015625 1.109375,0.03125 v -0.3125 c -0.671875,0 -0.78125,0 -0.78125,-0.4375 z m 0,0"
               id="id-5a2c4e30-ab45-4008-a3e8-889ddedcfd2c" />
          </g>
          <g
             id="id-72b55173-9340-4636-9993-3363b7cc5a79">
            <path
               d="M 4.6875,-2.140625 C 4.6875,-3.40625 3.703125,-4.46875 2.5,-4.46875 c -1.25,0 -2.21875,1.09375 -2.21875,2.328125 0,1.296875 1.03125,2.25 2.203125,2.25 1.203125,0 2.203125,-0.984375 2.203125,-2.25 z m -2.1875,2 c -0.4375,0 -0.875,-0.203125 -1.140625,-0.671875 -0.25,-0.4375 -0.25,-1.046875 -0.25,-1.40625 0,-0.390625 0,-0.921875 0.234375,-1.359375 C 1.609375,-4.03125 2.078125,-4.25 2.484375,-4.25 c 0.4375,0 0.859375,0.21875 1.125,0.65625 0.265625,0.421875 0.265625,1 0.265625,1.375 0,0.359375 0,0.90625 -0.21875,1.34375 C 3.421875,-0.421875 2.984375,-0.140625 2.5,-0.140625 Z m 0,0"
               id="id-82257315-8846-4ce8-a41e-287de62a8d91" />
          </g>
          <g
             id="id-75530a1a-5b64-4d0f-8921-b50cb00f4567">
            <path
               d="m 2.21875,-1.71875 c -0.875,0 -0.875,-1 -0.875,-1.21875 0,-0.265625 0.015625,-0.59375 0.15625,-0.84375 0.078125,-0.109375 0.3125,-0.390625 0.71875,-0.390625 0.859375,0 0.859375,0.984375 0.859375,1.21875 0,0.265625 0,0.59375 -0.15625,0.84375 C 2.84375,-2 2.609375,-1.71875 2.21875,-1.71875 Z M 1.0625,-1.328125 c 0,-0.03125 0,-0.265625 0.15625,-0.46875 0.390625,0.28125 0.8125,0.3125 1,0.3125 0.921875,0 1.609375,-0.6875 1.609375,-1.453125 0,-0.375 -0.15625,-0.734375 -0.40625,-0.96875 C 3.78125,-4.25 4.140625,-4.296875 4.3125,-4.296875 c 0.03125,0 0.078125,0 0.109375,0.015625 C 4.3125,-4.25 4.25,-4.140625 4.25,-4.015625 c 0,0.171875 0.140625,0.28125 0.296875,0.28125 0.09375,0 0.28125,-0.0625 0.28125,-0.296875 0,-0.171875 -0.109375,-0.484375 -0.5,-0.484375 -0.203125,0 -0.640625,0.0625 -1.0625,0.46875 C 2.84375,-4.375 2.4375,-4.40625 2.21875,-4.40625 c -0.9375,0 -1.625,0.6875 -1.625,1.453125 0,0.4375 0.21875,0.8125 0.46875,1.03125 -0.125,0.140625 -0.3125,0.46875 -0.3125,0.828125 0,0.3125 0.140625,0.6875 0.453125,0.890625 -0.609375,0.15625 -0.921875,0.59375 -0.921875,0.984375 0,0.71875 0.984375,1.265625 2.203125,1.265625 1.171875,0 2.203125,-0.5 2.203125,-1.28125 0,-0.34375 -0.125,-0.859375 -0.640625,-1.140625 -0.53125,-0.265625 -1.109375,-0.265625 -1.71875,-0.265625 -0.25,0 -0.671875,0 -0.75,-0.015625 C 1.265625,-0.703125 1.0625,-1 1.0625,-1.328125 Z M 2.5,1.828125 c -1.015625,0 -1.703125,-0.515625 -1.703125,-1.046875 0,-0.453125 0.375,-0.828125 0.8125,-0.84375 h 0.59375 c 0.859375,0 1.96875,0 1.96875,0.84375 0,0.546875 -0.703125,1.046875 -1.671875,1.046875 z m 0,0"
               id="id-bceb185c-7305-449a-9110-66cdd0a86553" />
          </g>
          <g
             id="id-2e95f39f-4acc-46d8-899c-c4e02549625c">
            <path
               d="m 2.046875,-3.984375 h 0.9375 c 0.203125,0 0.3125,0 0.3125,-0.203125 0,-0.109375 -0.109375,-0.109375 -0.28125,-0.109375 h -0.875 C 2.5,-5.71875 2.546875,-5.90625 2.546875,-5.96875 c 0,-0.171875 -0.125,-0.265625 -0.296875,-0.265625 -0.03125,0 -0.3125,0 -0.390625,0.359375 L 1.46875,-4.296875 h -0.9375 c -0.203125,0 -0.296875,0 -0.296875,0.1875 0,0.125 0.078125,0.125 0.28125,0.125 h 0.875 C 0.671875,-1.15625 0.625,-0.984375 0.625,-0.8125 0.625,-0.265625 1,0.109375 1.546875,0.109375 2.5625,0.109375 3.125,-1.34375 3.125,-1.421875 3.125,-1.53125 3.046875,-1.53125 3.015625,-1.53125 2.921875,-1.53125 2.90625,-1.5 2.859375,-1.390625 2.4375,-0.34375 1.90625,-0.109375 1.5625,-0.109375 c -0.203125,0 -0.3125,-0.125 -0.3125,-0.453125 0,-0.25 0.03125,-0.3125 0.0625,-0.484375 z m 0,0"
               id="id-d2ef2713-b8cd-4c31-8891-f7a9f42b7137" />
          </g>
        </g>
      </defs>
      <g
         fill="#000000"
         fill-opacity="1"
         id="id-253ffc27-17f1-4894-9181-25ab57442b50"
         transform="translate(-149.04,-127.843)">
        <g
           transform="translate(148.712,134.765)"
           id="g17">
          <path
             d="M 1.765625,-6.921875 0.328125,-6.8125 V -6.5 c 0.703125,0 0.78125,0.0625 0.78125,0.5625 V -0.75 c 0,0.4375 -0.109375,0.4375 -0.78125,0.4375 V 0 C 0.65625,-0.015625 1.1875,-0.03125 1.4375,-0.03125 c 0.25,0 0.734375,0.015625 1.109375,0.03125 v -0.3125 c -0.671875,0 -0.78125,0 -0.78125,-0.4375 z m 0,0"
             id="id-f6ad4bfb-4a8f-4779-9c29-5f217bb81871" />
        </g>
        <g
           transform="translate(151.48,134.765)"
           id="g18">
          <path
             d="M 4.6875,-2.140625 C 4.6875,-3.40625 3.703125,-4.46875 2.5,-4.46875 c -1.25,0 -2.21875,1.09375 -2.21875,2.328125 0,1.296875 1.03125,2.25 2.203125,2.25 1.203125,0 2.203125,-0.984375 2.203125,-2.25 z m -2.1875,2 c -0.4375,0 -0.875,-0.203125 -1.140625,-0.671875 -0.25,-0.4375 -0.25,-1.046875 -0.25,-1.40625 0,-0.390625 0,-0.921875 0.234375,-1.359375 C 1.609375,-4.03125 2.078125,-4.25 2.484375,-4.25 c 0.4375,0 0.859375,0.21875 1.125,0.65625 0.265625,0.421875 0.265625,1 0.265625,1.375 0,0.359375 0,0.90625 -0.21875,1.34375 C 3.421875,-0.421875 2.984375,-0.140625 2.5,-0.140625 Z m 0,0"
             id="id-4b636ee7-da29-4615-9bbf-9317cfa59421" />
        </g>
        <g
           transform="translate(156.461,134.765)"
           id="g19">
          <path
             d="m 2.21875,-1.71875 c -0.875,0 -0.875,-1 -0.875,-1.21875 0,-0.265625 0.015625,-0.59375 0.15625,-0.84375 0.078125,-0.109375 0.3125,-0.390625 0.71875,-0.390625 0.859375,0 0.859375,0.984375 0.859375,1.21875 0,0.265625 0,0.59375 -0.15625,0.84375 C 2.84375,-2 2.609375,-1.71875 2.21875,-1.71875 Z M 1.0625,-1.328125 c 0,-0.03125 0,-0.265625 0.15625,-0.46875 0.390625,0.28125 0.8125,0.3125 1,0.3125 0.921875,0 1.609375,-0.6875 1.609375,-1.453125 0,-0.375 -0.15625,-0.734375 -0.40625,-0.96875 C 3.78125,-4.25 4.140625,-4.296875 4.3125,-4.296875 c 0.03125,0 0.078125,0 0.109375,0.015625 C 4.3125,-4.25 4.25,-4.140625 4.25,-4.015625 c 0,0.171875 0.140625,0.28125 0.296875,0.28125 0.09375,0 0.28125,-0.0625 0.28125,-0.296875 0,-0.171875 -0.109375,-0.484375 -0.5,-0.484375 -0.203125,0 -0.640625,0.0625 -1.0625,0.46875 C 2.84375,-4.375 2.4375,-4.40625 2.21875,-4.40625 c -0.9375,0 -1.625,0.6875 -1.625,1.453125 0,0.4375 0.21875,0.8125 0.46875,1.03125 -0.125,0.140625 -0.3125,0.46875 -0.3125,0.828125 0,0.3125 0.140625,0.6875 0.453125,0.890625 -0.609375,0.15625 -0.921875,0.59375 -0.921875,0.984375 0,0.71875 0.984375,1.265625 2.203125,1.265625 1.171875,0 2.203125,-0.5 2.203125,-1.28125 0,-0.34375 -0.125,-0.859375 -0.640625,-1.140625 -0.53125,-0.265625 -1.109375,-0.265625 -1.71875,-0.265625 -0.25,0 -0.671875,0 -0.75,-0.015625 C 1.265625,-0.703125 1.0625,-1 1.0625,-1.328125 Z M 2.5,1.828125 c -1.015625,0 -1.703125,-0.515625 -1.703125,-1.046875 0,-0.453125 0.375,-0.828125 0.8125,-0.84375 h 0.59375 c 0.859375,0 1.96875,0 1.96875,0.84375 0,0.546875 -0.703125,1.046875 -1.671875,1.046875 z m 0,0"
             id="id-c85a2beb-b218-4aa1-98c1-748d72d3b90c" />
        </g>
      </g>
      <g
         fill="#000000"
         fill-opacity="1"
         id="id-4c8b39e6-b50d-4438-ac9e-698e762366ef"
         transform="translate(-149.04,-127.843)">
        <g
           transform="translate(163.241,134.765)"
           id="g20">
          <path
             d="m 2.046875,-3.984375 h 0.9375 c 0.203125,0 0.3125,0 0.3125,-0.203125 0,-0.109375 -0.109375,-0.109375 -0.28125,-0.109375 h -0.875 C 2.5,-5.71875 2.546875,-5.90625 2.546875,-5.96875 c 0,-0.171875 -0.125,-0.265625 -0.296875,-0.265625 -0.03125,0 -0.3125,0 -0.390625,0.359375 L 1.46875,-4.296875 h -0.9375 c -0.203125,0 -0.296875,0 -0.296875,0.1875 0,0.125 0.078125,0.125 0.28125,0.125 h 0.875 C 0.671875,-1.15625 0.625,-0.984375 0.625,-0.8125 0.625,-0.265625 1,0.109375 1.546875,0.109375 2.5625,0.109375 3.125,-1.34375 3.125,-1.421875 3.125,-1.53125 3.046875,-1.53125 3.015625,-1.53125 2.921875,-1.53125 2.90625,-1.5 2.859375,-1.390625 2.4375,-0.34375 1.90625,-0.109375 1.5625,-0.109375 c -0.203125,0 -0.3125,-0.125 -0.3125,-0.453125 0,-0.25 0.03125,-0.3125 0.0625,-0.484375 z m 0,0"
             id="id-c6ca6a4c-0a28-40f9-b4fe-03fed06ec66b" />
        </g>
      </g>
    </g>
    <text
       xml:space="preserve"
       style="font-size:3.175px;line-height:0.95;font-family:'Times New Roman';-inkscape-font-specification:'Times New Roman, ';font-variant-ligatures:none;text-align:center;text-anchor:middle;white-space:pre;inline-size:20.5947;display:inline;stroke-width:0.264583"
       x="91.302628"
       y="39.078949"
       id="text21"
       transform="translate(0.90393427,-1.9539474)"><tspan
         x="91.302628"
         y="39.078949"
         id="tspan1">Typically plot<tspan
   y="39.078949"
   id="tspan2"> </tspan></tspan><tspan
         x="91.302628"
         y="42.0952"
         id="tspan3">in log scale</tspan></text>
    <path
       style="fill:none;stroke:#000000;stroke-width:0.165;stroke-linecap:butt;stroke-linejoin:miter;stroke-opacity:1;stroke-dasharray:none;marker-end:url(#ArrowWide)"
       d="M 95.343749,40.82648 V 46.0542"
       id="path21" />
    <path
       style="fill:none;stroke:#ff0000;stroke-width:0.465;stroke-linecap:round;stroke-linejoin:miter;stroke-dasharray:none;stroke-opacity:1"
       d="M 8.5411055,8.0386874 C 23.349433,7.8651015 21.471655,24.951815 44.425353,36.210771 c 5.352683,2.62553 7.639423,3.791605 40.35768,7.30853"
       id="path23"
       sodipodi:nodetypes="csc" />
    <path
       style="fill:none;stroke:#808080;stroke-width:0.264583px;stroke-linecap:butt;stroke-linejoin:miter;stroke-opacity:1;stroke-dasharray:0.79374898,0.79374898;stroke-dashoffset:0"
       d="M 22.564389,16.691442 44.275583,43.751801"
       id="path24" />
    <path
       style="fill:none;stroke:#808080;stroke-width:0.264583px;stroke-linecap:butt;stroke-linejoin:miter;stroke-opacity:1;stroke-dasharray:0.79374898,0.79374898;stroke-dashoffset:0"
       d="M 84.783032,43.519301 36.802115,37.492942"
       id="path25" />
    <path
       style="fill:#0000ff;stroke:#0000ff;stroke-width:0.264583px;stroke-linecap:butt;stroke-linejoin:miter;stroke-opacity:1;marker-end:url(#marker27)"
       d="m 39.528707,37.8354 v 8.2188"
       id="path26" />
    <text
       xml:space="preserve"
       style="font-size:3.175px;line-height:0.95;font-family:'Times New Roman';-inkscape-font-specification:'Times New Roman, ';font-variant-ligatures:none;text-align:center;text-anchor:middle;stroke-width:0.264583;fill:#0000ff"
       x="40.392746"
       y="49.041119"
       id="text27"><tspan
         sodipodi:role="line"
         id="tspan27"
         style="stroke-width:0.264583;fill:#0000ff"
         x="40.392746"
         y="49.041119">End of primary</tspan></text>
    <text
       xml:space="preserve"
       style="font-size:3.175px;line-height:0.95;font-family:'Times New Roman';-inkscape-font-specification:'Times New Roman, ';font-variant-ligatures:none;text-align:center;text-anchor:middle;white-space:pre;inline-size:27.7759;stroke-width:0.264583;fill:#0000ff"
       x="14.921053"
       y="39.167763"
       id="text28"
       transform="translate(6.75,-0.75557585)"><tspan
         x="14.921053"
         y="39.167763"
         id="tspan4">Process of<tspan
   y="39.167763"
   id="tspan5"> </tspan></tspan><tspan
         x="14.921053"
         y="42.184014"
         id="tspan6">consolidation</tspan></text>
    <path
       style="fill:none;stroke:#0000ff;stroke-width:0.264583px;stroke-linecap:butt;stroke-linejoin:miter;stroke-opacity:1;marker-end:url(#Stop);marker-start:url(#marker30)"
       d="M 39.528707,42.071416 H 5.2819479"
       id="path28" />
    <path
       style="fill:none;stroke:#ff0000;stroke-width:0.264583px;stroke-linecap:butt;stroke-linejoin:miter;stroke-opacity:1;marker-start:url(#Dot);marker-end:url(#ArrowWideRounded)"
       d="M 39.528707,42.071416 H 62.676642"
       id="path31" />
    <text
       xml:space="preserve"
       style="font-size:3.175px;line-height:0.95;font-family:'Times New Roman';-inkscape-font-specification:'Times New Roman, ';font-variant-ligatures:none;text-align:center;text-anchor:middle;stroke-width:0.264583;fill:#ff0000"
       x="50.069675"
       y="41.241737"
       id="text31"><tspan
         sodipodi:role="line"
         id="tspan31"
         style="stroke-width:0.264583;fill:#ff0000"
         x="50.069675"
         y="41.241737">Creep</tspan></text>
  </g>
</svg>
