<?xml version="1.0" encoding="UTF-8" standalone="no"?>
<!-- Created with Inkscape (http://www.inkscape.org/) -->

<svg
   width="155.69409mm"
   height="111.9688mm"
   viewBox="0 0 155.69409 111.96881"
   version="1.1"
   id="svg908"
   sodipodi:docname="grain_size_scale.svg"
   inkscape:version="1.1.1 (3bf5ae0d25, 2021-09-20)"
   xmlns:inkscape="http://www.inkscape.org/namespaces/inkscape"
   xmlns:sodipodi="http://sodipodi.sourceforge.net/DTD/sodipodi-0.dtd"
   xmlns="http://www.w3.org/2000/svg"
   xmlns:svg="http://www.w3.org/2000/svg">
  <sodipodi:namedview
     id="namedview910"
     pagecolor="#505050"
     bordercolor="#ffffff"
     borderopacity="1"
     inkscape:pageshadow="0"
     inkscape:pageopacity="0"
     inkscape:pagecheckerboard="1"
     inkscape:document-units="mm"
     showgrid="false"
     inkscape:zoom="1.1474186"
     inkscape:cx="256.66308"
     inkscape:cy="121.14149"
     inkscape:window-width="1920"
     inkscape:window-height="1015"
     inkscape:window-x="-9"
     inkscape:window-y="-9"
     inkscape:window-maximized="1"
     inkscape:current-layer="layer1" />
  <defs
     id="defs905">
    <marker
       inkscape:stockid="DistanceStart"
       orient="auto"
       refY="0"
       refX="0"
       id="marker11120"
       style="overflow:visible"
       inkscape:isstock="true">
      <g
         id="g11118">
        <path
           id="path11112"
           d="M 0,0 H 2"
           style="fill:none;stroke:context-fill;stroke-width:1.15;stroke-linecap:square" />
        <path
           id="path11114"
           d="M 0,0 13,4 9,0 13,-4 Z"
           style="fill:context-stroke;fill-rule:evenodd;stroke:none" />
        <path
           id="path11116"
           d="M 0,-4 V 40"
           style="fill:none;stroke:context-stroke;stroke-width:1;stroke-linecap:square" />
      </g>
    </marker>
    <marker
       inkscape:stockid="DistanceEnd"
       orient="auto"
       refY="0"
       refX="0"
       id="marker10774"
       style="overflow:visible"
       inkscape:isstock="true">
      <g
         id="g10772">
        <path
           id="path10766"
           d="M 0,0 H -2"
           style="fill:none;stroke:context-fill;stroke-width:1.15;stroke-linecap:square" />
        <path
           id="path10768"
           d="m 0,0 -13,4 4,-4 -4,-4 z"
           style="fill:context-stroke;fill-rule:evenodd;stroke:none" />
        <path
           id="path10770"
           d="M 0,-4 V 40"
           style="fill:none;stroke:context-stroke;stroke-width:1;stroke-linecap:square" />
      </g>
    </marker>
    <marker
       inkscape:stockid="DistanceStart"
       orient="auto"
       refY="0"
       refX="0"
       id="DistanceStart"
       style="overflow:visible"
       inkscape:isstock="true">
      <g
         id="g2300">
        <path
           id="path2306"
           d="M 0,0 H 2"
           style="fill:none;stroke:context-fill;stroke-width:1.15;stroke-linecap:square" />
        <path
           id="path2302"
           d="M 0,0 13,4 9,0 13,-4 Z"
           style="fill:context-stroke;fill-rule:evenodd;stroke:none" />
        <path
           id="path2304"
           d="M 0,-4 V 40"
           style="fill:none;stroke:context-stroke;stroke-width:1;stroke-linecap:square" />
      </g>
    </marker>
    <marker
       inkscape:stockid="DistanceEnd"
       orient="auto"
       refY="0"
       refX="0"
       id="DistanceEnd"
       style="overflow:visible"
       inkscape:isstock="true">
      <g
         id="g2301">
        <path
           id="path2316"
           d="M 0,0 H -2"
           style="fill:none;stroke:context-fill;stroke-width:1.15;stroke-linecap:square" />
        <path
           id="path2312"
           d="m 0,0 -13,4 4,-4 -4,-4 z"
           style="fill:context-stroke;fill-rule:evenodd;stroke:none" />
        <path
           id="path2314"
           d="M 0,-4 V 40"
           style="fill:none;stroke:context-stroke;stroke-width:1;stroke-linecap:square" />
      </g>
    </marker>
    <filter
       style="color-interpolation-filters:sRGB"
       inkscape:label="Duochrome"
       id="filter1934"
       x="0"
       y="0"
       width="1"
       height="1">
      <feColorMatrix
         type="luminanceToAlpha"
         result="colormatrix1"
         id="feColorMatrix1914" />
      <feFlood
         flood-opacity="1"
         flood-color="rgb(0,42,93)"
         result="flood1"
         id="feFlood1916" />
      <feComposite
         in2="colormatrix1"
         operator="out"
         result="composite1"
         id="feComposite1918" />
      <feFlood
         flood-opacity="1"
         flood-color="rgb(255,255,255)"
         result="flood2"
         id="feFlood1920" />
      <feComposite
         in2="colormatrix1"
         result="composite2"
         operator="in"
         id="feComposite1922" />
      <feComposite
         in="composite2"
         in2="composite1"
         k2="1"
         k3="1"
         operator="arithmetic"
         result="composite3"
         id="feComposite1924"
         k1="0"
         k4="0" />
      <feColorMatrix
         in="composite3"
         type="matrix"
         values="2 -1 0 0 0 0 2 -1 0 0 -1 0 2 0 0 0 0 0 1 0 "
         result="colormatrix2"
         id="feColorMatrix1926" />
      <feComposite
         in="colormatrix2"
         in2="composite3"
         operator="arithmetic"
         k2="0"
         result="composite4"
         id="feComposite1928"
         k1="0"
         k3="0"
         k4="0" />
      <feBlend
         in="composite4"
         in2="composite3"
         mode="normal"
         result="blend"
         id="feBlend1930" />
      <feComposite
         in2="SourceGraphic"
         operator="in"
         id="feComposite1932" />
    </filter>
    <filter
       style="color-interpolation-filters:sRGB"
       inkscape:label="Duochrome"
       id="filter2022"
       x="0"
       y="0"
       width="1"
       height="1">
      <feColorMatrix
         type="luminanceToAlpha"
         result="colormatrix1"
         id="feColorMatrix2002" />
      <feFlood
         flood-opacity="1"
         flood-color="rgb(0,42,93)"
         result="flood1"
         id="feFlood2004" />
      <feComposite
         in2="colormatrix1"
         operator="out"
         result="composite1"
         id="feComposite2006" />
      <feFlood
         flood-opacity="1"
         flood-color="rgb(255,255,255)"
         result="flood2"
         id="feFlood2008" />
      <feComposite
         in2="colormatrix1"
         result="composite2"
         operator="in"
         id="feComposite2010" />
      <feComposite
         in="composite2"
         in2="composite1"
         k2="1"
         k3="1"
         operator="arithmetic"
         result="composite3"
         id="feComposite2012"
         k1="0"
         k4="0" />
      <feColorMatrix
         in="composite3"
         type="matrix"
         values="2 -1 0 0 0 0 2 -1 0 0 -1 0 2 0 0 0 0 0 1 0 "
         result="colormatrix2"
         id="feColorMatrix2014" />
      <feComposite
         in="colormatrix2"
         in2="composite3"
         operator="arithmetic"
         k2="0"
         result="composite4"
         id="feComposite2016"
         k1="0"
         k3="0"
         k4="0" />
      <feBlend
         in="composite4"
         in2="composite3"
         mode="normal"
         result="blend"
         id="feBlend2018" />
      <feComposite
         in2="SourceGraphic"
         operator="in"
         id="feComposite2020" />
    </filter>
  </defs>
  <g
     inkscape:label="Layer 1"
     inkscape:groupmode="layer"
     id="layer1"
     transform="translate(-30.477791,-50.417088)">
    <path
       style="fill:none;stroke:#0066ff;stroke-width:1;stroke-linecap:round;stroke-linejoin:miter;stroke-miterlimit:4;stroke-dasharray:none;stroke-opacity:1"
       d="M 31.36324,75.549317 H 183.48957"
       id="path1014" />
    <path
       style="fill:none;stroke:#ff0000;stroke-width:1;stroke-linecap:round;stroke-linejoin:miter;stroke-miterlimit:4;stroke-dasharray:none;stroke-opacity:1"
       d="M 55.086281,78.930348 V 72.245224"
       id="path1183" />
    <path
       style="fill:none;stroke:#ff0000;stroke-width:1;stroke-linecap:round;stroke-linejoin:miter;stroke-miterlimit:4;stroke-dasharray:none;stroke-opacity:1"
       d="M 74.652497,78.930348 V 72.245224"
       id="path1303" />
    <path
       style="fill:none;stroke:#ff0000;stroke-width:1;stroke-linecap:round;stroke-linejoin:miter;stroke-miterlimit:4;stroke-dasharray:none;stroke-opacity:1"
       d="M 107.26286,78.930348 V 72.245224"
       id="path1305" />
    <path
       style="fill:none;stroke:#ff0000;stroke-width:1;stroke-linecap:round;stroke-linejoin:miter;stroke-miterlimit:4;stroke-dasharray:none;stroke-opacity:1"
       d="M 158.78722,78.930348 V 72.245224"
       id="path1301" />
    <text
       xml:space="preserve"
       style="font-size:5.64444px;line-height:1;font-family:'Times New Roman';-inkscape-font-specification:'Times New Roman, ';text-align:center;text-anchor:middle;stroke-width:0.264583"
       x="55.690495"
       y="83.619972"
       id="text4447"><tspan
         sodipodi:role="line"
         id="tspan4445"
         style="stroke-width:0.264583"
         x="55.690495"
         y="83.619972">300 mm</tspan><tspan
         sodipodi:role="line"
         style="stroke-width:0.264583"
         x="55.690495"
         y="89.264412"
         id="tspan4449">1 ft</tspan></text>
    <text
       xml:space="preserve"
       style="font-size:5.64444px;line-height:1;font-family:'Times New Roman';-inkscape-font-specification:'Times New Roman, ';text-align:center;text-anchor:middle;fill:#ff0000;stroke-width:0.264583"
       x="75.256714"
       y="83.619972"
       id="text5327"><tspan
         sodipodi:role="line"
         id="tspan5323"
         style="fill:#ff0000;stroke-width:0.264583"
         x="75.256714"
         y="83.619972">75 mm</tspan><tspan
         sodipodi:role="line"
         style="fill:#ff0000;stroke-width:0.264583"
         x="75.256714"
         y="89.264412"
         id="tspan5325">3 in</tspan></text>
    <text
       xml:space="preserve"
       style="font-size:5.64444px;line-height:1;font-family:'Times New Roman';-inkscape-font-specification:'Times New Roman, ';text-align:center;text-anchor:middle;fill:#ff0000;stroke-width:0.264583"
       x="107.54097"
       y="83.619972"
       id="text7001"><tspan
         sodipodi:role="line"
         style="fill:#ff0000;stroke-width:0.264583"
         x="107.54097"
         y="83.619972"
         id="tspan7719">4.75 mm</tspan><tspan
         sodipodi:role="line"
         style="fill:#ff0000;stroke-width:0.264583"
         x="107.54097"
         y="89.264412"
         id="tspan7723">No 4</tspan></text>
    <rect
       style="fill:#ffff00;stroke:#800000;stroke-width:1;stroke-linecap:round;stroke-linejoin:round;stroke-miterlimit:4;stroke-dasharray:none;paint-order:stroke fill markers"
       id="rect19334"
       width="29.75695"
       height="11.250574"
       x="143.62341"
       y="79.174927" />
    <text
       xml:space="preserve"
       style="font-size:5.64444px;line-height:1;font-family:'Times New Roman';-inkscape-font-specification:'Times New Roman, ';text-align:center;text-anchor:middle;fill:#ff0000;stroke-width:0.264583"
       x="157.92398"
       y="83.619972"
       id="text8087"><tspan
         sodipodi:role="line"
         style="fill:#ff0000;stroke-width:0.264583"
         x="157.92398"
         y="83.619972"
         id="tspan8083">0.075 mm</tspan><tspan
         sodipodi:role="line"
         style="fill:#ff0000;stroke-width:0.264583"
         x="157.92398"
         y="89.264412"
         id="tspan8085">No 200</tspan></text>
    <path
       style="fill:#008000;stroke:#008000;stroke-width:0.264583px;stroke-linecap:butt;stroke-linejoin:miter;stroke-opacity:1;marker-start:url(#DistanceStart);marker-end:url(#DistanceEnd)"
       d="M 74.652496,51.607711 H 158.78722"
       id="path10233" />
    <path
       style="fill:none;stroke:#800000;stroke-width:0.264583px;stroke-linecap:butt;stroke-linejoin:miter;stroke-opacity:1;marker-start:url(#DistanceStart);marker-end:url(#marker10774)"
       d="m 158.78722,51.607711 h 24.8654"
       id="path10684" />
    <text
       xml:space="preserve"
       style="font-size:5.64444px;line-height:1;font-family:'Times New Roman';-inkscape-font-specification:'Times New Roman, ';text-align:center;text-anchor:middle;stroke-width:0.264583"
       x="40.574669"
       y="72.245224"
       id="text12102"><tspan
         sodipodi:role="line"
         id="tspan12100"
         style="stroke-width:0.264583"
         x="40.574669"
         y="72.245224">Boulders</tspan></text>
    <text
       xml:space="preserve"
       style="font-size:5.64444px;line-height:1;font-family:'Times New Roman';-inkscape-font-specification:'Times New Roman, ';text-align:center;text-anchor:middle;stroke-width:0.264583"
       x="64.869385"
       y="72.245224"
       id="text12966"><tspan
         sodipodi:role="line"
         id="tspan12964"
         style="stroke-width:0.264583"
         x="64.869385"
         y="72.245224">Cobbles</tspan></text>
    <text
       xml:space="preserve"
       style="font-size:5.64444px;line-height:1;font-family:'Times New Roman';-inkscape-font-specification:'Times New Roman, ';text-align:center;text-anchor:middle;stroke-width:0.264583"
       x="90.794624"
       y="72.245224"
       id="text12970"><tspan
         sodipodi:role="line"
         id="tspan12968"
         style="stroke-width:0.264583"
         x="90.794624"
         y="72.245224">Gravel</tspan></text>
    <text
       xml:space="preserve"
       style="font-size:5.64444px;line-height:1;font-family:'Times New Roman';-inkscape-font-specification:'Times New Roman, ';text-align:center;text-anchor:middle;stroke-width:0.264583"
       x="132.37283"
       y="72.245224"
       id="text12974"><tspan
         sodipodi:role="line"
         id="tspan12972"
         style="stroke-width:0.264583"
         x="132.37283"
         y="72.245224">Sand</tspan></text>
    <text
       xml:space="preserve"
       style="font-size:5.64444px;line-height:1;font-family:'Times New Roman';-inkscape-font-specification:'Times New Roman, ';text-align:center;text-anchor:middle;stroke-width:0.264583"
       x="172.64662"
       y="72.245224"
       id="text12962"><tspan
         sodipodi:role="line"
         id="tspan12960"
         style="stroke-width:0.264583"
         x="172.64662"
         y="72.245224">Silt + clay</tspan></text>
    <text
       xml:space="preserve"
       style="font-size:5.64444px;line-height:1;font-family:'Times New Roman';-inkscape-font-specification:'Times New Roman, ';text-align:center;text-anchor:middle;fill:#800000;stroke-width:0.264583"
       x="172.64662"
       y="59.038029"
       id="text12982"><tspan
         sodipodi:role="line"
         id="tspan12980"
         style="fill:#800000;stroke-width:0.264583"
         x="172.64662"
         y="59.038029">Fine</tspan></text>
    <text
       xml:space="preserve"
       style="font-size:5.64444px;line-height:1;font-family:'Times New Roman';-inkscape-font-specification:'Times New Roman, ';text-align:center;text-anchor:middle;fill:#008000;stroke-width:0.264583"
       x="118.51343"
       y="59.038029"
       id="text12978"><tspan
         sodipodi:role="line"
         id="tspan12976"
         style="fill:#008000;stroke-width:0.264583"
         x="118.51343"
         y="59.038029">Coarse</tspan></text>
    <path
       style="fill:#ff6600;fill-opacity:1;stroke:#000000;stroke-width:0.264583px;stroke-linecap:butt;stroke-linejoin:miter;stroke-opacity:1"
       d="m 102.12886,128.05472 c -6.821303,9.14759 -0.88666,17.95191 9.61206,17.95191 2.15741,0 4.50774,0.19287 6.36092,-1.13083 5.77316,-4.12368 6.53434,-17.06269 -0.98948,-20.07222 -4.9903,-1.99612 -10.72014,2.03303 -14.9835,3.25114 z"
       id="path11236" />
    <path
       style="fill:#ffb380;fill-opacity:1;stroke:#000000;stroke-width:0.264583px;stroke-linecap:butt;stroke-linejoin:miter;stroke-opacity:1"
       d="m 43.788314,124.44951 c 1.889142,5.91787 7.675705,18.33091 13.393587,21.18985 2.992614,1.49631 6.133853,1.09947 9.395491,1.09947 2.42722,0 5.109622,0.27746 7.496418,-0.1999 7.635474,-1.52709 11.365752,-9.97042 12.893837,-16.59206 0.839195,-3.63658 4.095329,-6.5184 3.598262,-10.49497 -0.636549,-5.09251 -8.722715,-16.03463 -13.693442,-17.69153 -4.03171,-1.3439 -8.802536,-1.46118 -12.893815,0 -4.991093,1.78254 -10.286525,5.55409 -12.993784,10.19512 -0.815689,1.39832 -1.31513,2.97221 -2.198945,4.29794 -2.467273,3.70091 -3.607305,4.02518 -4.997609,8.19608 z"
       id="path6525" />
    <path
       style="fill:#986532;stroke-width:1.29379;filter:url(#filter1934)"
       d="m 138.63227,155.0181 c -1.1976,-1.41907 -1.20326,-1.45179 -0.27472,-1.58954 1.04306,-0.15474 1.07432,-0.32882 0.54784,-3.05031 -0.36186,-1.87057 -0.36186,-1.87057 1.29322,-1.87057 1.65508,0 1.65508,0 1.2718,1.6505 -0.60563,2.60797 -0.50836,3.19096 0.53239,3.19096 0.92462,0 0.92272,0.0181 -0.14789,1.40637 -1.47393,1.91128 -1.80826,1.93852 -3.22264,0.26259 z m 30.2102,-2.99551 c -1.40986,-1.75438 -1.40986,-1.75438 -0.34789,-1.75438 1.01273,0 1.0452,-0.0867 0.70011,-1.87056 -0.56245,-2.90745 -0.53767,-2.9709 1.16021,-2.9709 1.55922,0 1.56019,0.001 1.28196,1.6505 -0.15314,0.90777 -0.36907,1.98309 -0.47985,2.38959 -0.14263,0.52343 0.11256,0.78028 0.87461,0.88026 1.07601,0.14118 1.07601,0.14118 -0.35165,1.78552 -1.42765,1.64433 -1.42765,1.64433 -2.8375,-0.11003 z"
       id="path1481"
       transform="matrix(0.77292379,0,0,0.77292379,26.315888,22.79392)" />
    <path
       style="fill:#ff6600;stroke-width:1.29379;filter:url(#filter2022)"
       d="m 42.696446,163.47633 c -7.41194,-0.41067 -12.20794,-1.07112 -16.11688,-2.21945 -4.6111,-1.3546 -4.8196,-2.31824 -0.80782,-3.73368 2.23899,-0.78996 9.13613,-1.96906 11.53308,-1.97163 1.96017,-0.002 2.08844,-0.42172 0.44013,-1.43989 -1.37804,-0.85122 -4.07123,-3.26276 -4.07123,-3.64547 0,-0.14 1.49509,0.96714 3.32242,2.4603 4.69362,3.8353 9.9363,5.54046 18.46415,6.00539 6.21244,0.3387 13.15749,-1.17097 15.10674,-3.2838 0.40592,-0.43999 0.59094,-0.57403 0.41115,-0.29787 -0.22476,0.34523 0.77256,0.71872 3.19205,1.19538 3.67012,0.72306 6.81776,1.99052 6.81776,2.74532 0,0.70521 -2.96024,1.95729 -6.2252,2.63305 -6.82388,1.41236 -21.64407,2.12982 -32.06635,1.55235 z m 62.938994,-0.4464 c -5.931794,-0.54399 -9.902994,-1.95923 -9.902994,-3.52919 0,-0.60518 0.65849,-1.18559 2.17518,-1.91726 2.171624,-1.04763 2.179694,-1.04809 4.951494,-0.28133 4.27281,1.18199 10.10138,1.92524 12.39755,1.58091 1.14596,-0.17185 2.58095,-0.75789 3.23648,-1.32175 1.02063,-0.87791 1.38638,-0.95572 2.74258,-0.58343 4.04521,1.11044 5.15212,2.78756 2.68264,4.06457 -3.24691,1.67904 -11.66623,2.59428 -18.28293,1.98748 z M 31.712276,149.06699 c -0.66067,-0.66066 -1.50209,-1.79951 -1.86982,-2.53076 -0.36773,-0.73125 -1.1911,-1.93245 -1.8297,-2.66934 -0.6386,-0.73689 -0.46788,-0.62242 0.37938,0.25438 1.45087,1.50146 4.97633,6.14694 4.66492,6.14694 -0.079,0 -0.68411,-0.54055 -1.34478,-1.20122 z m 46.37303,-12.11279 c 0.20708,-0.54467 0.39797,-1.13979 0.4242,-1.3225 0.0262,-0.18271 0.3643,-1.07398 0.75124,-1.9806 0.38695,-0.90662 0.87946,-2.09403 1.09447,-2.63869 0.21501,-0.54467 0.64341,-0.98727 0.95199,-0.98356 0.34539,0.004 0.39188,0.13103 0.12093,0.3301 -0.24208,0.17785 -0.49791,0.66812 -0.56853,1.08951 -0.0706,0.42138 -0.61334,1.8078 -1.20606,3.08092 -0.59273,1.27313 -1.07961,2.56236 -1.08198,2.86495 -0.002,0.30259 -0.19745,0.55017 -0.43354,0.55017 -0.26327,0 -0.28366,-0.3829 -0.0527,-0.9903 z"
       id="path1473"
       transform="matrix(0.77292379,0,0,0.77292379,26.315888,22.79392)" />
    <circle
       style="fill:#aa4400;fill-opacity:1;stroke:none;stroke-width:3.96875;stroke-linecap:round;stroke-linejoin:round"
       id="path2266"
       cx="134.6698"
       cy="144.71481"
       r="0.63719487" />
    <text
       xml:space="preserve"
       style="font-style:normal;font-weight:normal;font-size:8.18008px;line-height:1.25;font-family:sans-serif;fill:#000000;fill-opacity:1;stroke:none;stroke-width:0.264583"
       x="54.209972"
       y="96.391495"
       id="text18821"><tspan
         sodipodi:role="line"
         id="tspan18819"
         style="fill:#000000;stroke-width:0.264583"
         x="54.209972"
         y="96.391495">Gravel</tspan></text>
    <text
       xml:space="preserve"
       style="font-style:normal;font-weight:normal;font-size:8.18008px;line-height:1.25;font-family:sans-serif;fill:#000000;fill-opacity:1;stroke:none;stroke-width:0.264583"
       x="99.918274"
       y="123.2487"
       id="text20375"><tspan
         sodipodi:role="line"
         id="tspan20373"
         style="fill:#000000;stroke-width:0.264583"
         x="99.918274"
         y="123.2487">Sand</tspan></text>
    <text
       xml:space="preserve"
       style="font-style:normal;font-weight:normal;font-size:8.18008px;line-height:1.25;font-family:sans-serif;fill:#000000;fill-opacity:1;stroke:none;stroke-width:0.264583"
       x="125.94239"
       y="133.00209"
       id="text20379"><tspan
         sodipodi:role="line"
         id="tspan20377"
         style="fill:#000000;stroke-width:0.264583"
         x="125.94239"
         y="133.00209">Silt</tspan></text>
    <text
       xml:space="preserve"
       style="font-style:normal;font-weight:normal;font-size:8.18008px;line-height:1.25;font-family:sans-serif;fill:#000000;fill-opacity:1;stroke:none;stroke-width:0.264583"
       x="157.51672"
       y="150.95401"
       id="text20383"><tspan
         sodipodi:role="line"
         id="tspan20381"
         style="text-align:center;text-anchor:middle;fill:#000000;stroke-width:0.264583"
         x="157.51672"
         y="150.95401">Clay</tspan><tspan
         sodipodi:role="line"
         style="font-size:5.99875px;text-align:center;text-anchor:middle;fill:#000000;stroke-width:0.264583"
         x="157.51672"
         y="161.17911"
         id="tspan24847">Invisible to the eye</tspan></text>
  </g>
</svg>
