<?xml version="1.0" encoding="UTF-8" standalone="no"?>
<!-- Created with matplotlib (https://matplotlib.org/) -->

<svg
   height="197.37932pt"
   version="1.1"
   viewBox="0 0 258.7308 197.37932"
   width="258.7308pt"
   id="svg583"
   sodipodi:docname="P8.svg"
   inkscape:version="1.1.1 (3bf5ae0d25, 2021-09-20)"
   inkscape:export-filename="C:\Users\$r.984804\OneDrive - University of Maine System\UMaine_docs\Courses\CIE365 Soil Mechanics\CIE365-Soil-mechanics\grain_size\P8.png"
   inkscape:export-xdpi="300"
   inkscape:export-ydpi="300"
   xmlns:inkscape="http://www.inkscape.org/namespaces/inkscape"
   xmlns:sodipodi="http://sodipodi.sourceforge.net/DTD/sodipodi-0.dtd"
   xmlns:xlink="http://www.w3.org/1999/xlink"
   xmlns="http://www.w3.org/2000/svg"
   xmlns:svg="http://www.w3.org/2000/svg"
   xmlns:rdf="http://www.w3.org/1999/02/22-rdf-syntax-ns#"
   xmlns:cc="http://creativecommons.org/ns#"
   xmlns:dc="http://purl.org/dc/elements/1.1/">
  <sodipodi:namedview
     id="namedview585"
     pagecolor="#505050"
     bordercolor="#ffffff"
     borderopacity="1"
     inkscape:pageshadow="0"
     inkscape:pageopacity="0"
     inkscape:pagecheckerboard="1"
     inkscape:document-units="pt"
     showgrid="false"
     inkscape:zoom="1.9936483"
     inkscape:cx="32.854341"
     inkscape:cy="20.314516"
     inkscape:window-width="2400"
     inkscape:window-height="1271"
     inkscape:window-x="-5"
     inkscape:window-y="-9"
     inkscape:window-maximized="1"
     inkscape:current-layer="svg583" />
  <metadata
     id="metadata2">
    <rdf:RDF>
      <cc:Work>
        <dc:type
           rdf:resource="http://purl.org/dc/dcmitype/StillImage" />
        <dc:date>2022-02-14T14:42:34.522669</dc:date>
        <dc:format>image/svg+xml</dc:format>
        <dc:creator>
          <cc:Agent>
            <dc:title>Matplotlib v3.3.4, https://matplotlib.org/</dc:title>
          </cc:Agent>
        </dc:creator>
      </cc:Work>
    </rdf:RDF>
  </metadata>
  <defs
     id="defs6">
    <style
       type="text/css"
       id="style4">*{stroke-linecap:butt;stroke-linejoin:round;}</style>
  </defs>
  <g
     id="patch_1"
     style="fill:#ffffff;stroke-width:1.10369"
     transform="scale(0.89837081,0.91379311)">
    <path
       d="m 0,216 h 288 v -216 h -288 z"
       style="fill:#ffffff;stroke-width:1.10369"
       id="path8" />
  </g>
  <g
     id="patch_2"
     transform="translate(-4.2642802,-21.812808)">
    <path
       d="m 36,189 h 223.2 v -163.08 h -223.2 z"
       style="fill:#ffffff"
       id="path11" />
  </g>
  <g
     id="matplotlib.axis_1"
     transform="translate(-4.2642802,-21.812808)">
    <g
       id="xtick_1">
      <g
         id="line2d_1">
        <path
           clip-path="url(#p7797480e68)"
           d="m 51.781818,189 v -163.08"
           style="fill:none;stroke:#808080;stroke-width:0.8;stroke-linecap:square"
           id="path14" />
      </g>
      <g
         id="line2d_2">
        <defs
           id="defs18">
          <path
             d="m 0,0 v 3.5"
             id="md23032fa9d"
             style="stroke:#000000;stroke-width:0.8" />
        </defs>
        <g
           id="g22">
          <use
             style="stroke:#000000;stroke-width:0.8"
             x="51.781818"
             xlink:href="#md23032fa9d"
             y="189"
             id="use20"
             width="100%"
             height="100%" />
        </g>
      </g>
      <g
         id="text_1">
        <!-- $\mathdefault{7.5}$ -->
        <g
           transform="matrix(0.08,0,0,-0.08,46.371473,201.5348)"
           id="g36">
          <defs
             id="defs28">
            <path
               d="m 45.09375,61.796875 v 2.203125 h -23.5 c -11.6875,0 -11.890625,1.09375 -12.296875,3 h -1.796875 l -2.90625,-18.5 h 1.8125 c 0.296875,1.90625 1,7 2.1875,8.890625 0.609375,0.796875 8,0.796875 9.703125,0.796875 h 22 l -11.09375,-16.46875 c -7.40625,-11.078125 -12.5,-26.046875 -12.5,-39.125 0,-1.203125 0,-4.59375 3.59375,-4.59375 3.609375,0 3.609375,3.390625 3.609375,4.6875 v 4.59375 c 0,16.375 2.796875,27.15625 7.390625,34.03125 z"
               id="CMR17-55" />
            <path
               d="m 18.40625,4.796875 c 0,2.890625 -2.40625,4.890625 -4.8125,4.890625 -2.890625,0 -4.890625,-2.390625 -4.890625,-4.796875 0,-2.890625 2.390625,-4.890625 4.796875,-4.890625 2.90625,0 4.90625,2.390625 4.90625,4.796875 z"
               id="CMMI12-58" />
            <path
               d="m 11.40625,58.59375 c 1,-0.40625 5.09375,-1.703125 9.296875,-1.703125 9.296875,0 14.390625,5 17.296875,7.796875 0,0.796875 0,1.3125 -0.59375,1.3125 -0.109375,0 -0.3125,0 -1.109375,-0.40625 -3.5,-1.5 -7.59375,-2.59375 -12.59375,-2.59375 -3,0 -7.5,0.359375 -12.40625,2.484375 -1.09375,0.515625 -1.296875,0.515625 -1.390625,0.515625 -0.5,0 -0.609375,-0.109375 -0.609375,-2.09375 v -29.046875 c 0,-1.84375 0,-2.359375 1,-2.359375 0.5,0 0.703125,0.203125 1.203125,0.921875 3.203125,4.625 7.59375,6.578125 12.59375,6.578125 3.5,0 11,-2.265625 11,-19.796875 0,-3.21875 0,-9.015625 -3,-13.609375 -2.5,-4.109375 -6.390625,-6.203125 -10.6875,-6.203125 -6.609375,0 -13.3125,4.59375 -15.109375,12.296875 0.40625,-0.09375 1.203125,-0.296875 1.609375,-0.296875 1.296875,0 3.796875,0.703125 3.796875,3.796875 0,2.703125 -1.90625,3.8125 -3.796875,3.8125 -2.3125,0 -3.8125,-1.40625 -3.8125,-4.203125 0,-8.703125 6.90625,-17.796875 17.5,-17.796875 10.3125,0 20.109375,8.890625 20.109375,21.796875 0,12.296875 -7.796875,21.796875 -17.5,21.796875 -5.109375,0 -9.40625,-1.90625 -12.796875,-5.59375 z"
               id="CMR17-53" />
          </defs>
          <use
             transform="scale(0.996264)"
             xlink:href="#CMR17-55"
             id="use30"
             x="0"
             y="0"
             width="100%"
             height="100%" />
          <use
             transform="matrix(0.996264,0,0,0.996264,45.690477,0)"
             xlink:href="#CMMI12-58"
             id="use32"
             x="0"
             y="0"
             width="100%"
             height="100%" />
          <use
             transform="matrix(0.996264,0,0,0.996264,72.787654,0)"
             xlink:href="#CMR17-53"
             id="use34"
             x="0"
             y="0"
             width="100%"
             height="100%" />
        </g>
      </g>
    </g>
    <g
       id="xtick_2">
      <g
         id="line2d_3">
        <path
           clip-path="url(#p7797480e68)"
           d="m 79.963636,189 v -163.08"
           style="fill:none;stroke:#808080;stroke-width:0.8;stroke-linecap:square"
           id="path40" />
      </g>
      <g
         id="line2d_4">
        <g
           id="g45">
          <use
             style="stroke:#000000;stroke-width:0.8"
             x="79.963638"
             xlink:href="#md23032fa9d"
             y="189"
             id="use43"
             width="100%"
             height="100%" />
        </g>
      </g>
      <g
         id="text_2">
        <!-- $\mathdefault{10.0}$ -->
        <g
           transform="matrix(0.08,0,0,-0.08,72.4362,201.5348)"
           id="g60">
          <defs
             id="defs50">
            <path
               d="m 26.59375,63.796875 c 0,2.09375 -0.09375,2.203125 -1.5,2.203125 -3.890625,-4.640625 -9.796875,-6.109375 -15.390625,-6.3125 -0.296875,0 -0.796875,0 -0.90625,-0.1875 -0.09375,-0.203125 -0.09375,-0.40625 -0.09375,-2.5 3.09375,0 8.296875,0.59375 12.296875,2.984375 v -52.6875 c 0,-3.5 -0.203125,-4.703125 -8.796875,-4.703125 h -3 v -2.59375 c 4.796875,0.09375 9.796875,0.1875 14.59375,0.1875 4.796875,0 9.796875,-0.09375 14.609375,-0.1875 v 2.59375 h -3 c -8.609375,0 -8.8125,1.09375 -8.8125,4.703125 z"
               id="CMR17-49" />
            <path
               d="m 42,31.84375 c 0,6.125 -0.09375,16.578125 -4.296875,24.609375 -3.703125,7.03125 -9.609375,9.546875 -14.796875,9.546875 -4.8125,0 -10.90625,-2.21875 -14.703125,-9.4375 -4,-7.546875 -4.40625,-16.890625 -4.40625,-24.71875 0,-5.734375 0.109375,-14.46875 3.203125,-22.109375 4.296875,-10.34375 12,-11.734375 15.90625,-11.734375 4.59375,0 11.59375,1.890625 15.6875,11.4375 3,6.9375 3.40625,15.0625 3.40625,22.40625 z m -19.09375,-32.25 c -6.40625,0 -10.203125,5.53125 -11.609375,13.15625 -1.09375,5.9375 -1.09375,14.578125 -1.09375,20.203125 0,7.734375 0,14.15625 1.296875,20.28125 1.90625,8.546875 7.5,11.15625 11.40625,11.15625 4.09375,0 9.390625,-2.71875 11.296875,-10.953125 1.296875,-5.71875 1.390625,-12.453125 1.390625,-20.484375 0,-6.53125 0,-14.578125 -1.1875,-20.5 -2.109375,-10.953125 -8,-12.859375 -11.5,-12.859375 z"
               id="CMR17-48" />
          </defs>
          <use
             transform="scale(0.996264)"
             xlink:href="#CMR17-49"
             id="use52"
             x="0"
             y="0"
             width="100%"
             height="100%" />
          <use
             transform="matrix(0.996264,0,0,0.996264,45.690477,0)"
             xlink:href="#CMR17-48"
             id="use54"
             x="0"
             y="0"
             width="100%"
             height="100%" />
          <use
             transform="matrix(0.996264,0,0,0.996264,91.380954,0)"
             xlink:href="#CMMI12-58"
             id="use56"
             x="0"
             y="0"
             width="100%"
             height="100%" />
          <use
             transform="matrix(0.996264,0,0,0.996264,118.47813,0)"
             xlink:href="#CMR17-48"
             id="use58"
             x="0"
             y="0"
             width="100%"
             height="100%" />
        </g>
      </g>
    </g>
    <g
       id="xtick_3">
      <g
         id="line2d_5">
        <path
           clip-path="url(#p7797480e68)"
           d="m 108.14545,189 v -163.08"
           style="fill:none;stroke:#808080;stroke-width:0.8;stroke-linecap:square"
           id="path64" />
      </g>
      <g
         id="line2d_6">
        <g
           id="g69">
          <use
             style="stroke:#000000;stroke-width:0.8"
             x="108.14545"
             xlink:href="#md23032fa9d"
             y="189"
             id="use67"
             width="100%"
             height="100%" />
        </g>
      </g>
      <g
         id="text_3">
        <!-- $\mathdefault{12.5}$ -->
        <g
           transform="matrix(0.08,0,0,-0.08,100.61802,201.5348)"
           id="g83">
          <defs
             id="defs73">
            <path
               d="m 41.703125,15.46875 h -1.796875 c -1,-7.078125 -1.8125,-8.28125 -2.203125,-8.875 -0.5,-0.796875 -7.703125,-0.796875 -9.109375,-0.796875 h -19.1875 c 3.59375,3.890625 10.59375,10.96875 19.09375,19.140625 6.09375,5.78125 13.203125,12.5625 13.203125,22.453125 0,11.796875 -9.40625,18.609375 -19.90625,18.609375 -11,0 -17.703125,-9.703125 -17.703125,-18.703125 0,-3.90625 2.90625,-4.40625 4.109375,-4.40625 1,0 4,0.59375 4,4.09375 0,3.109375 -2.609375,4.015625 -4,4.015625 -0.609375,0 -1.203125,-0.109375 -1.609375,-0.3125 1.90625,8.5 7.703125,12.703125 13.8125,12.703125 8.6875,0 14.390625,-6.890625 14.390625,-16 0,-8.6875 -5.09375,-16.171875 -10.796875,-22.65625 l -19.90625,-22.4375 v -2.296875 h 35.203125 z"
               id="CMR17-50" />
          </defs>
          <use
             transform="scale(0.996264)"
             xlink:href="#CMR17-49"
             id="use75"
             x="0"
             y="0"
             width="100%"
             height="100%" />
          <use
             transform="matrix(0.996264,0,0,0.996264,45.690477,0)"
             xlink:href="#CMR17-50"
             id="use77"
             x="0"
             y="0"
             width="100%"
             height="100%" />
          <use
             transform="matrix(0.996264,0,0,0.996264,91.380954,0)"
             xlink:href="#CMMI12-58"
             id="use79"
             x="0"
             y="0"
             width="100%"
             height="100%" />
          <use
             transform="matrix(0.996264,0,0,0.996264,118.47813,0)"
             xlink:href="#CMR17-53"
             id="use81"
             x="0"
             y="0"
             width="100%"
             height="100%" />
        </g>
      </g>
    </g>
    <g
       id="xtick_4">
      <g
         id="line2d_7">
        <path
           clip-path="url(#p7797480e68)"
           d="m 136.32727,189 v -163.08"
           style="fill:none;stroke:#808080;stroke-width:0.8;stroke-linecap:square"
           id="path87" />
      </g>
      <g
         id="line2d_8">
        <g
           id="g92">
          <use
             style="stroke:#000000;stroke-width:0.8"
             x="136.32727"
             xlink:href="#md23032fa9d"
             y="189"
             id="use90"
             width="100%"
             height="100%" />
        </g>
      </g>
      <g
         id="text_4">
        <!-- $\mathdefault{15.0}$ -->
        <g
           transform="matrix(0.08,0,0,-0.08,128.79984,201.5348)"
           id="g103">
          <use
             transform="scale(0.996264)"
             xlink:href="#CMR17-49"
             id="use95"
             x="0"
             y="0"
             width="100%"
             height="100%" />
          <use
             transform="matrix(0.996264,0,0,0.996264,45.690477,0)"
             xlink:href="#CMR17-53"
             id="use97"
             x="0"
             y="0"
             width="100%"
             height="100%" />
          <use
             transform="matrix(0.996264,0,0,0.996264,91.380954,0)"
             xlink:href="#CMMI12-58"
             id="use99"
             x="0"
             y="0"
             width="100%"
             height="100%" />
          <use
             transform="matrix(0.996264,0,0,0.996264,118.47813,0)"
             xlink:href="#CMR17-48"
             id="use101"
             x="0"
             y="0"
             width="100%"
             height="100%" />
        </g>
      </g>
    </g>
    <g
       id="xtick_5">
      <g
         id="line2d_9">
        <path
           clip-path="url(#p7797480e68)"
           d="m 164.50909,189 v -163.08"
           style="fill:none;stroke:#808080;stroke-width:0.8;stroke-linecap:square"
           id="path107" />
      </g>
      <g
         id="line2d_10">
        <g
           id="g112">
          <use
             style="stroke:#000000;stroke-width:0.8"
             x="164.50909"
             xlink:href="#md23032fa9d"
             y="189"
             id="use110"
             width="100%"
             height="100%" />
        </g>
      </g>
      <g
         id="text_5">
        <!-- $\mathdefault{17.5}$ -->
        <g
           transform="matrix(0.08,0,0,-0.08,156.98165,201.5348)"
           id="g123">
          <use
             transform="scale(0.996264)"
             xlink:href="#CMR17-49"
             id="use115"
             x="0"
             y="0"
             width="100%"
             height="100%" />
          <use
             transform="matrix(0.996264,0,0,0.996264,45.690477,0)"
             xlink:href="#CMR17-55"
             id="use117"
             x="0"
             y="0"
             width="100%"
             height="100%" />
          <use
             transform="matrix(0.996264,0,0,0.996264,91.380954,0)"
             xlink:href="#CMMI12-58"
             id="use119"
             x="0"
             y="0"
             width="100%"
             height="100%" />
          <use
             transform="matrix(0.996264,0,0,0.996264,118.47813,0)"
             xlink:href="#CMR17-53"
             id="use121"
             x="0"
             y="0"
             width="100%"
             height="100%" />
        </g>
      </g>
    </g>
    <g
       id="xtick_6">
      <g
         id="line2d_11">
        <path
           clip-path="url(#p7797480e68)"
           d="m 192.69091,189 v -163.08"
           style="fill:none;stroke:#808080;stroke-width:0.8;stroke-linecap:square"
           id="path127" />
      </g>
      <g
         id="line2d_12">
        <g
           id="g132">
          <use
             style="stroke:#000000;stroke-width:0.8"
             x="192.6909"
             xlink:href="#md23032fa9d"
             y="189"
             id="use130"
             width="100%"
             height="100%" />
        </g>
      </g>
      <g
         id="text_6">
        <!-- $\mathdefault{20.0}$ -->
        <g
           transform="matrix(0.08,0,0,-0.08,185.16347,201.5348)"
           id="g143">
          <use
             transform="scale(0.996264)"
             xlink:href="#CMR17-50"
             id="use135"
             x="0"
             y="0"
             width="100%"
             height="100%" />
          <use
             transform="matrix(0.996264,0,0,0.996264,45.690477,0)"
             xlink:href="#CMR17-48"
             id="use137"
             x="0"
             y="0"
             width="100%"
             height="100%" />
          <use
             transform="matrix(0.996264,0,0,0.996264,91.380954,0)"
             xlink:href="#CMMI12-58"
             id="use139"
             x="0"
             y="0"
             width="100%"
             height="100%" />
          <use
             transform="matrix(0.996264,0,0,0.996264,118.47813,0)"
             xlink:href="#CMR17-48"
             id="use141"
             x="0"
             y="0"
             width="100%"
             height="100%" />
        </g>
      </g>
    </g>
    <g
       id="xtick_7">
      <g
         id="line2d_13">
        <path
           clip-path="url(#p7797480e68)"
           d="m 220.87273,189 v -163.08"
           style="fill:none;stroke:#808080;stroke-width:0.8;stroke-linecap:square"
           id="path147" />
      </g>
      <g
         id="line2d_14">
        <g
           id="g152">
          <use
             style="stroke:#000000;stroke-width:0.8"
             x="220.87273"
             xlink:href="#md23032fa9d"
             y="189"
             id="use150"
             width="100%"
             height="100%" />
        </g>
      </g>
      <g
         id="text_7">
        <!-- $\mathdefault{22.5}$ -->
        <g
           transform="matrix(0.08,0,0,-0.08,213.34529,201.5348)"
           id="g163">
          <use
             transform="scale(0.996264)"
             xlink:href="#CMR17-50"
             id="use155"
             x="0"
             y="0"
             width="100%"
             height="100%" />
          <use
             transform="matrix(0.996264,0,0,0.996264,45.690477,0)"
             xlink:href="#CMR17-50"
             id="use157"
             x="0"
             y="0"
             width="100%"
             height="100%" />
          <use
             transform="matrix(0.996264,0,0,0.996264,91.380954,0)"
             xlink:href="#CMMI12-58"
             id="use159"
             x="0"
             y="0"
             width="100%"
             height="100%" />
          <use
             transform="matrix(0.996264,0,0,0.996264,118.47813,0)"
             xlink:href="#CMR17-53"
             id="use161"
             x="0"
             y="0"
             width="100%"
             height="100%" />
        </g>
      </g>
    </g>
    <g
       id="xtick_8">
      <g
         id="line2d_15">
        <path
           clip-path="url(#p7797480e68)"
           d="m 249.05454,189 v -163.08"
           style="fill:none;stroke:#808080;stroke-width:0.8;stroke-linecap:square"
           id="path167" />
      </g>
      <g
         id="line2d_16">
        <g
           id="g172">
          <use
             style="stroke:#000000;stroke-width:0.8"
             x="249.05455"
             xlink:href="#md23032fa9d"
             y="189"
             id="use170"
             width="100%"
             height="100%" />
        </g>
      </g>
      <g
         id="text_8">
        <!-- $\mathdefault{25.0}$ -->
        <g
           transform="matrix(0.08,0,0,-0.08,241.52711,201.5348)"
           id="g183">
          <use
             transform="scale(0.996264)"
             xlink:href="#CMR17-50"
             id="use175"
             x="0"
             y="0"
             width="100%"
             height="100%" />
          <use
             transform="matrix(0.996264,0,0,0.996264,45.690477,0)"
             xlink:href="#CMR17-53"
             id="use177"
             x="0"
             y="0"
             width="100%"
             height="100%" />
          <use
             transform="matrix(0.996264,0,0,0.996264,91.380954,0)"
             xlink:href="#CMMI12-58"
             id="use179"
             x="0"
             y="0"
             width="100%"
             height="100%" />
          <use
             transform="matrix(0.996264,0,0,0.996264,118.47813,0)"
             xlink:href="#CMR17-48"
             id="use181"
             x="0"
             y="0"
             width="100%"
             height="100%" />
        </g>
      </g>
    </g>
    <g
       id="text_9">
      <!-- Water content ($w$) [\%] -->
      <g
         transform="matrix(0.09,0,0,-0.09,102.43877,213.80933)"
         id="g239">
        <defs
           id="defs201">
          <path
             d="m 86.296875,58.984375 c 0.90625,2.703125 2.40625,6.21875 8.203125,6.40625 v 2.609375 c -1.703125,-0.109375 -5.203125,-0.203125 -7,-0.203125 -2.5,0 -6.90625,0 -9.296875,0.203125 v -2.609375 c 4.5,-0.09375 6.390625,-2.59375 6.390625,-5 0,-0.703125 -0.09375,-1.109375 -0.5,-2.203125 l -15.5,-49.484375 -16.296875,52.078125 c -0.296875,1.015625 -0.390625,1.40625 -0.390625,1.8125 0,2.796875 4.390625,2.796875 6.296875,2.796875 v 2.609375 c -2.90625,-0.203125 -7.90625,-0.203125 -11,-0.203125 -2.5,0 -7,0 -9.296875,0.203125 v -2.609375 c 4.59375,0 5.796875,-0.296875 6.796875,-2.09375 0.390625,-0.90625 2,-6.109375 2,-6.421875 0,-0.390625 -0.203125,-1 -0.296875,-1.296875 l -14.703125,-46.765625 -16.296875,51.96875 c -0.5,1.40625 -0.5,1.609375 -0.5,1.8125 0,2.796875 4.390625,2.796875 6.390625,2.796875 v 2.609375 c -2.890625,-0.203125 -7.890625,-0.203125 -11,-0.203125 -2.59375,0 -7,0 -9.390625,0.203125 v -2.609375 c 6,0 6.390625,-0.59375 7.390625,-3.796875 l 19.5,-61.90625 c 0.5,-1.5 0.5,-1.6875 1.40625,-1.6875 0.796875,0 1.09375,0.1875 1.5,1.59375 l 17,54.28125 17,-54.28125 c 0.390625,-1.40625 0.703125,-1.59375 1.5,-1.59375 0.890625,0 0.890625,0.1875 1.390625,1.6875 z"
             id="CMR17-87" />
          <path
             d="m 36,25.875 c 0,6.125 0,9.671875 -4.203125,13.71875 -3.703125,3.390625 -8,4.40625 -11.390625,4.40625 -7.90625,0 -13.609375,-6.375 -13.609375,-13.109375 0,-3.703125 3,-3.890625 3.609375,-3.890625 1.296875,0 3.59375,0.796875 3.59375,3.59375 0,2.5 -1.90625,3.59375 -3.59375,3.59375 -0.40625,0 -0.90625,-0.09375 -1.203125,-0.1875 2.09375,6.53125 7.5,8.390625 11,8.390625 5,0 10.5,-4.5625 10.5,-13.09375 v -3.796875 c -5.90625,-0.203125 -13,-1 -18.609375,-4.046875 -6.296875,-3.53125 -8.09375,-8.609375 -8.09375,-12.453125 0,-7.796875 9,-10 14.296875,-10 5.5,0 10.609375,3.109375 12.796875,8.890625 0.203125,-4.46875 3,-8.5 7.40625,-8.5 2.09375,0 7.40625,1.40625 7.40625,9.40625 v 5.671875 h -1.8125 v -5.765625 c 0,-6.1875 -2.6875,-7 -4,-7 -4.09375,0 -4.09375,5.265625 -4.09375,9.734375 z m -5.296875,-12.015625 c 0,-8.8125 -6.203125,-13.265625 -11.703125,-13.265625 -5,0 -8.90625,3.75 -8.90625,8.40625 0,3.046875 1.3125,8.40625 7.109375,11.65625 4.796875,2.734375 10.296875,3.140625 13.5,3.34375 z"
             id="CMR17-97" />
          <path
             d="m 15.09375,40.390625 h 14 v 2.609375 h -14 v 19 h -1.796875 c -0.203125,-10.5625 -3.703125,-19.8125 -12.203125,-20.015625 v -1.59375 h 8.703125 v -28.234375 c 0,-1.921875 0,-13.15625 11.609375,-13.15625 5.890625,0 9.296875,5.8125 9.296875,13.25 v 5.734375 h -1.796875 v -5.640625 c 0,-6.921875 -2.703125,-11.546875 -6.90625,-11.546875 -2.90625,0 -6.90625,2 -6.90625,11.15625 z"
             id="CMR17-116" />
          <path
             d="m 38.09375,23.484375 c 0.40625,0.40625 0.40625,0.609375 0.40625,1.609375 0,10.078125 -5.40625,18.90625 -16.796875,18.90625 -10.609375,0 -19,-10.015625 -19,-22.21875 0,-13.125 9.5,-22.78125 20.09375,-22.78125 11.203125,0 15.609375,10.671875 15.609375,12.796875 0,0.703125 -0.609375,0.703125 -0.8125,0.703125 -0.6875,0 -0.796875,-0.203125 -1.1875,-1.421875 -2.203125,-6.859375 -7.703125,-10.28125 -12.90625,-10.28125 -4.296875,0 -8.59375,2.421875 -11.296875,6.859375 -3.109375,5.140625 -3.109375,11.09375 -3.109375,15.828125 z m -28.890625,1.515625 c 0.703125,14.234375 8.390625,17.390625 12.390625,17.390625 6.8125,0 11.40625,-6.328125 11.5,-17.390625 z"
             id="CMR17-101" />
          <path
             d="m 15,23.703125 c 0,9.640625 4.09375,18.6875 11.59375,18.6875 0.703125,0 1.40625,-0.09375 2.109375,-0.40625 0,0 -2.203125,-0.703125 -2.203125,-3.3125 0,-2.40625 1.90625,-3.40625 3.40625,-3.40625 1.1875,0 3.390625,0.703125 3.390625,3.515625 0,3.203125 -3.203125,5.21875 -6.59375,5.21875 -7.609375,0 -10.90625,-7.4375 -11.90625,-10.953125 h -0.09375 v 10.953125 l -11.609375,-1.109375 v -2.609375 c 5.90625,0 6.8125,-0.59375 6.8125,-5.421875 v -27.9375 c 0,-3.828125 -0.40625,-4.328125 -6.8125,-4.328125 v -2.59375 c 2.40625,0.1875 7,0.1875 9.609375,0.1875 2.890625,0 8,0 10.703125,-0.1875 v 2.59375 c -7.203125,0 -8.40625,0 -8.40625,4.515625 z"
             id="CMR17-114" />
          <path
             d="m 34.90625,35 c -1.90625,0 -4.703125,0 -4.703125,-3.515625 0,-2.796875 2.296875,-3.59375 3.59375,-3.59375 0.703125,0 3.609375,0.296875 3.609375,3.796875 0,7 -6.8125,12.3125 -14.5,12.3125 -10.609375,0 -19.609375,-9.609375 -19.609375,-22.453125 0,-13.40625 9.40625,-22.546875 19.609375,-22.546875 12.390625,0 15.5,11.5625 15.5,12.671875 0,0.40625 -0.109375,0.703125 -0.8125,0.703125 -0.6875,0 -0.796875,-0.09375 -1.1875,-1.40625 -2.609375,-8.15625 -8.3125,-10.171875 -12.609375,-10.171875 -6.390625,0 -14.09375,5.9375 -14.09375,20.84375 0,15.203125 7.390625,20.546875 13.296875,20.546875 3.90625,0 9.703125,-1.84375 11.90625,-7.1875 z"
             id="CMR17-99" />
          <path
             d="m 43.09375,21.1875 c 0,12.8125 -9.296875,22.8125 -20.1875,22.8125 -10.90625,0 -20.203125,-10 -20.203125,-22.8125 0,-12.59375 9.296875,-22.1875 20.203125,-22.1875 10.890625,0 20.1875,9.59375 20.1875,22.1875 z m -20.1875,-20.390625 c -4.703125,0 -8.703125,2.796875 -11,6.703125 -2.5,4.5 -2.8125,10.09375 -2.8125,14.5 0,4.1875 0.203125,9.390625 2.8125,13.890625 2,3.296875 5.890625,6.5 11,6.5 4.5,0 8.296875,-2.5 10.6875,-6 3.109375,-4.703125 3.109375,-11.296875 3.109375,-14.390625 0,-3.90625 -0.203125,-9.90625 -2.90625,-14.703125 -2.796875,-4.609375 -7.09375,-6.5 -10.890625,-6.5 z"
             id="CMR17-111" />
          <path
             d="m 41.5,30.53125 c 0,5.125 -1,13.46875 -12.796875,13.46875 -7.90625,0 -12,-6.125 -13.5,-10.15625 h -0.109375 v 10.15625 l -11.796875,-1.109375 v -2.609375 c 5.90625,0 6.796875,-0.59375 6.796875,-5.421875 v -27.9375 c 0,-3.828125 -0.390625,-4.328125 -6.796875,-4.328125 v -2.59375 c 2.40625,0.1875 6.796875,0.1875 9.40625,0.1875 2.59375,0 7.09375,0 9.5,-0.1875 v 2.59375 c -6.40625,0 -6.796875,0.40625 -6.796875,4.328125 v 19.296875 c 0,9.234375 5.59375,16.171875 12.59375,16.171875 7.40625,0 8.203125,-6.625 8.203125,-11.453125 v -24.015625 c 0,-3.828125 -0.40625,-4.328125 -6.796875,-4.328125 v -2.59375 c 2.390625,0.1875 6.796875,0.1875 9.390625,0.1875 2.609375,0 7.109375,0 9.5,-0.1875 v 2.59375 c -6.390625,0 -6.796875,0.40625 -6.796875,4.328125 z"
             id="CMR17-110" />
          <path
             d="m 30.59375,-24.40625 c 0,0.09375 0,0.296875 -0.296875,0.59375 -4.59375,4.703125 -16.890625,17.515625 -16.890625,48.75 0,31.234375 12.09375,43.9375 17,48.953125 0,0.09375 0.1875,0.296875 0.1875,0.59375 0,0.3125 -0.296875,0.515625 -0.6875,0.515625 -1.109375,0 -9.609375,-7.421875 -14.5,-18.4375 -5,-11.109375 -6.40625,-21.90625 -6.40625,-31.515625 0,-7.21875 0.703125,-19.421875 6.703125,-32.34375 4.796875,-10.40625 13,-17.703125 14.203125,-17.703125 0.5,0 0.6875,0.1875 0.6875,0.59375 z"
             id="CMR17-40" />
          <path
             d="m 34.40625,6.078125 c 2.1875,-5.984375 8.390625,-7.078125 12.1875,-7.078125 7.609375,0 12.109375,6.578125 14.90625,13.46875 2.296875,5.78125 6,18.953125 6,24.84375 0,6.078125 -3.09375,6.6875 -4,6.6875 -2.40625,0 -4.59375,-2.40625 -4.59375,-4.40625 0,-1.1875 0.6875,-1.890625 1.1875,-2.28125 0.90625,-0.90625 3.5,-3.59375 3.5,-8.78125 0,-3.390625 -2.796875,-12.78125 -4.890625,-17.46875 -2.796875,-6.078125 -6.5,-10.0625 -11.703125,-10.0625 -5.59375,0 -7.40625,4.1875 -7.40625,8.765625 0,2.890625 0.90625,6.390625 1.3125,8.078125 l 4.1875,16.765625 c 0.5,2 1.40625,5.484375 1.40625,5.875 0,1.5 -1.203125,2.515625 -2.703125,2.515625 -2.890625,0 -3.59375,-2.515625 -4.203125,-4.90625 -1,-3.890625 -5.1875,-20.75 -5.59375,-22.9375 -0.40625,-1.703125 -0.40625,-2.796875 -0.40625,-4.984375 0,-2.390625 -3.1875,-6.1875 -3.296875,-6.390625 -1.09375,-1.09375 -2.703125,-2.78125 -5.796875,-2.78125 -7.90625,0 -7.90625,7.46875 -7.90625,9.171875 0,3.1875 0.703125,7.578125 5.203125,19.453125 1.203125,3.09375 1.703125,4.390625 1.703125,6.390625 0,4.1875 -3,7.984375 -7.90625,7.984375 -9.1875,0 -12.890625,-14.46875 -12.890625,-15.28125 0,-0.390625 0.390625,-0.890625 1.09375,-0.890625 0.90625,0 1,0.40625 1.40625,1.796875 2.5,8.78125 6.390625,12.359375 10.09375,12.359375 1,0 2.609375,-0.09375 2.609375,-3.28125 0,-0.5 0,-2.59375 -1.703125,-6.984375 -4.703125,-12.46875 -5.703125,-16.5625 -5.703125,-20.34375 0,-10.484375 8.59375,-12.375 13.703125,-12.375 1.703125,0 6.203125,0 10.203125,7.078125 z"
             id="CMMI12-119" />
          <path
             d="m 26.296875,24.9375 c 0,7.203125 -0.703125,19.421875 -6.703125,32.328125 -4.796875,10.421875 -13,17.734375 -14.1875,17.734375 -0.3125,0 -0.703125,-0.109375 -0.703125,-0.609375 0,-0.203125 0.09375,-0.296875 0.203125,-0.5 4.796875,-5.015625 17,-17.71875 17,-48.84375 0,-31.234375 -12.109375,-43.953125 -17,-48.953125 -0.109375,-0.203125 -0.203125,-0.296875 -0.203125,-0.5 0,-0.5 0.390625,-0.59375 0.703125,-0.59375 1.09375,0 9.59375,7.390625 14.5,18.40625 5,11.109375 6.390625,21.921875 6.390625,31.53125 z"
             id="CMR17-41" />
          <path
             d="m 23.5,-25 v 3.5 h -9.40625 v 92.984375 h 9.40625 v 3.515625 h -12.90625 v -100 z"
             id="CMR17-91" />
          <path
             d="m 72.5,14.5 c 0,11.59375 -5.703125,20.09375 -12.40625,20.09375 -6.796875,0 -13.6875,-7.90625 -13.6875,-20.09375 0,-12.203125 6.796875,-20.109375 13.6875,-20.109375 6.703125,0 12.40625,8.40625 12.40625,20.109375 z m -12.296875,-18.5 c -2.609375,0 -9.109375,2.390625 -9.109375,18.5 0,16.1875 6.5,18.5 9.109375,18.5 5.5,0 10.5,-7.90625 10.5,-18.5 0,-10.609375 -5,-18.5 -10.5,-18.5 z m 3.59375,75.4375 c 0.703125,1.125 0.796875,1.234375 0.796875,1.75 0,1.203125 -0.890625,1.8125 -1.6875,1.8125 -1,0 -1.40625,-0.703125 -2.109375,-1.515625 -5.796875,-8.5625 -13.796875,-9.484375 -17.890625,-9.484375 -10,0 -16.109375,5.984375 -18,7.84375 -1.3125,1.234375 -3.203125,3.15625 -6.609375,3.15625 -6.796875,0 -13.703125,-8.109375 -13.703125,-20.375 0,-12.15625 6.8125,-20.03125 13.703125,-20.03125 6.703125,0 12.40625,8.375 12.40625,20.03125 0,6.875 -2.109375,11.640625 -2.40625,12.265625 6.109375,-4 12.109375,-4.5 14.703125,-4.5 6.40625,0 11,2.421875 13.5,4.1875 l 0.09375,-0.109375 -43.1875,-68.375 c -0.90625,-1.40625 -0.90625,-1.59375 -0.90625,-1.90625 0,-1.09375 0.90625,-1.796875 1.796875,-1.796875 0.90625,0 1.203125,0.5 1.90625,1.609375 z m -45.390625,-35.25 c -2.609375,0 -9.109375,2.390625 -9.109375,18.4375 0,16.390625 6.5,18.765625 9.109375,18.765625 5.5,0 10.5,-8.15625 10.5,-18.765625 0,-10.5625 -5,-18.4375 -10.5,-18.4375 z"
             id="CMR17-37" />
          <path
             d="m 14.296875,75 h -12.890625 v -3.515625 h 9.390625 v -92.984375 h -9.390625 v -3.5 h 12.890625 z"
             id="CMR17-93" />
        </defs>
        <use
           transform="scale(0.996264)"
           xlink:href="#CMR17-87"
           id="use203"
           x="0"
           y="0"
           width="100%"
           height="100%" />
        <use
           transform="matrix(0.996264,0,0,0.996264,87.289395,0)"
           xlink:href="#CMR17-97"
           id="use205"
           x="0"
           y="0"
           width="100%"
           height="100%" />
        <use
           transform="matrix(0.996264,0,0,0.996264,132.97987,0)"
           xlink:href="#CMR17-116"
           id="use207"
           x="0"
           y="0"
           width="100%"
           height="100%" />
        <use
           transform="matrix(0.996264,0,0,0.996264,168.26064,0)"
           xlink:href="#CMR17-101"
           id="use209"
           x="0"
           y="0"
           width="100%"
           height="100%" />
        <use
           transform="matrix(0.996264,0,0,0.996264,208.7463,0)"
           xlink:href="#CMR17-114"
           id="use211"
           x="0"
           y="0"
           width="100%"
           height="100%" />
        <use
           transform="matrix(0.996264,0,0,0.996264,274.10303,0)"
           xlink:href="#CMR17-99"
           id="use213"
           x="0"
           y="0"
           width="100%"
           height="100%" />
        <use
           transform="matrix(0.996264,0,0,0.996264,314.58869,0)"
           xlink:href="#CMR17-111"
           id="use215"
           x="0"
           y="0"
           width="100%"
           height="100%" />
        <use
           transform="matrix(0.996264,0,0,0.996264,360.27917,0)"
           xlink:href="#CMR17-110"
           id="use217"
           x="0"
           y="0"
           width="100%"
           height="100%" />
        <use
           transform="matrix(0.996264,0,0,0.996264,408.57209,0)"
           xlink:href="#CMR17-116"
           id="use219"
           x="0"
           y="0"
           width="100%"
           height="100%" />
        <use
           transform="matrix(0.996264,0,0,0.996264,443.85285,0)"
           xlink:href="#CMR17-101"
           id="use221"
           x="0"
           y="0"
           width="100%"
           height="100%" />
        <use
           transform="matrix(0.996264,0,0,0.996264,484.33852,0)"
           xlink:href="#CMR17-110"
           id="use223"
           x="0"
           y="0"
           width="100%"
           height="100%" />
        <use
           transform="matrix(0.996264,0,0,0.996264,532.63143,0)"
           xlink:href="#CMR17-116"
           id="use225"
           x="0"
           y="0"
           width="100%"
           height="100%" />
        <use
           transform="matrix(0.996264,0,0,0.996264,597.98817,0)"
           xlink:href="#CMR17-40"
           id="use227"
           x="0"
           y="0"
           width="100%"
           height="100%" />
        <use
           transform="matrix(0.996264,0,0,0.996264,633.26893,0)"
           xlink:href="#CMMI12-119"
           id="use229"
           x="0"
           y="0"
           width="100%"
           height="100%" />
        <use
           transform="matrix(0.996264,0,0,0.996264,705.68185,0)"
           xlink:href="#CMR17-41"
           id="use231"
           x="0"
           y="0"
           width="100%"
           height="100%" />
        <use
           transform="matrix(0.996264,0,0,0.996264,771.03858,0)"
           xlink:href="#CMR17-91"
           id="use233"
           x="0"
           y="0"
           width="100%"
           height="100%" />
        <use
           transform="matrix(0.996264,0,0,0.996264,795.90964,0)"
           xlink:href="#CMR17-37"
           id="use235"
           x="0"
           y="0"
           width="100%"
           height="100%" />
        <use
           transform="matrix(0.996264,0,0,0.996264,872.82923,0)"
           xlink:href="#CMR17-93"
           id="use237"
           x="0"
           y="0"
           width="100%"
           height="100%" />
      </g>
    </g>
  </g>
  <g
     id="matplotlib.axis_2"
     transform="translate(-4.2642802,-21.812808)">
    <g
       id="ytick_1">
      <g
         id="line2d_17">
        <path
           clip-path="url(#p7797480e68)"
           d="m 36,169.94184 h 223.2"
           style="fill:none;stroke:#808080;stroke-width:0.8;stroke-linecap:square"
           id="path243" />
      </g>
      <g
         id="line2d_18">
        <defs
           id="defs247">
          <path
             d="m 0,0 h -3.5"
             id="mdcfeab609e"
             style="stroke:#000000;stroke-width:0.8" />
        </defs>
        <g
           id="g251">
          <use
             style="stroke:#000000;stroke-width:0.8"
             x="36"
             xlink:href="#mdcfeab609e"
             y="169.94183"
             id="use249"
             width="100%"
             height="100%" />
        </g>
      </g>
      <g
         id="text_10">
        <!-- $\mathdefault{14}$ -->
        <g
           transform="matrix(0.08,0,0,-0.08,20.531634,172.70924)"
           id="g261">
          <defs
             id="defs255">
            <path
               d="m 33.59375,64.796875 c 0,2.09375 -0.09375,2.203125 -1.890625,2.203125 l -29.703125,-47.40625 v -2.59375 h 25.796875 v -9.8125 c 0,-3.59375 -0.203125,-4.59375 -7.203125,-4.59375 h -1.890625 v -2.59375 c 3.203125,0.1875 8.59375,0.1875 12,0.1875 3.390625,0 8.796875,0 12,-0.1875 v 2.59375 h -1.90625 c -7,0 -7.203125,1 -7.203125,4.59375 v 9.8125 h 10.203125 v 2.59375 h -10.203125 z m -5.5,-6.625 v -38.578125 h -24.09375 z"
               id="CMR17-52" />
          </defs>
          <use
             transform="scale(0.996264)"
             xlink:href="#CMR17-49"
             id="use257"
             x="0"
             y="0"
             width="100%"
             height="100%" />
          <use
             transform="matrix(0.996264,0,0,0.996264,45.690477,0)"
             xlink:href="#CMR17-52"
             id="use259"
             x="0"
             y="0"
             width="100%"
             height="100%" />
        </g>
      </g>
    </g>
    <g
       id="ytick_2">
      <g
         id="line2d_19">
        <path
           clip-path="url(#p7797480e68)"
           d="m 36,135.17629 h 223.2"
           style="fill:none;stroke:#808080;stroke-width:0.8;stroke-linecap:square"
           id="path265" />
      </g>
      <g
         id="line2d_20">
        <g
           id="g270">
          <use
             style="stroke:#000000;stroke-width:0.8"
             x="36"
             xlink:href="#mdcfeab609e"
             y="135.17628"
             id="use268"
             width="100%"
             height="100%" />
        </g>
      </g>
      <g
         id="text_11">
        <!-- $\mathdefault{16}$ -->
        <g
           transform="matrix(0.08,0,0,-0.08,20.531634,137.94369)"
           id="g280">
          <defs
             id="defs274">
            <path
               d="m 10.59375,34.34375 c 0,23.65625 11.203125,29.34375 17.703125,29.34375 2.109375,0 7.203125,-0.421875 9.203125,-4.59375 -1.59375,0 -4.59375,0 -4.59375,-3.5 0,-2.703125 2.1875,-3.59375 3.59375,-3.59375 0.90625,0 3.59375,0.390625 3.59375,3.796875 0,6.5 -5,10.203125 -11.890625,10.203125 -11.90625,0 -24.40625,-12.703125 -24.40625,-34.578125 0,-27.40625 11.296875,-33.421875 19.296875,-33.421875 9.703125,0 18.90625,8.734375 18.90625,22.234375 0,12.59375 -8.09375,21.765625 -18.296875,21.765625 -6.109375,0 -10.609375,-4.03125 -13.109375,-11.078125 z m 12.5,-33.953125 c -12.296875,0 -12.296875,18.546875 -12.296875,22.265625 0,7.25 3.40625,17.734375 12.703125,17.734375 1.703125,0 6.59375,0 9.90625,-6.953125 1.796875,-3.921875 1.796875,-8.0625 1.796875,-13.09375 0,-5.4375 0,-9.46875 -2.109375,-13.5 -2.1875,-4.140625 -5.390625,-6.453125 -10,-6.453125 z"
               id="CMR17-54" />
          </defs>
          <use
             transform="scale(0.996264)"
             xlink:href="#CMR17-49"
             id="use276"
             x="0"
             y="0"
             width="100%"
             height="100%" />
          <use
             transform="matrix(0.996264,0,0,0.996264,45.690477,0)"
             xlink:href="#CMR17-54"
             id="use278"
             x="0"
             y="0"
             width="100%"
             height="100%" />
        </g>
      </g>
    </g>
    <g
       id="ytick_3">
      <g
         id="line2d_21">
        <path
           clip-path="url(#p7797480e68)"
           d="m 36,100.41075 h 223.2"
           style="fill:none;stroke:#808080;stroke-width:0.8;stroke-linecap:square"
           id="path284" />
      </g>
      <g
         id="line2d_22">
        <g
           id="g289">
          <use
             style="stroke:#000000;stroke-width:0.8"
             x="36"
             xlink:href="#mdcfeab609e"
             y="100.41074"
             id="use287"
             width="100%"
             height="100%" />
        </g>
      </g>
      <g
         id="text_12">
        <!-- $\mathdefault{18}$ -->
        <g
           transform="matrix(0.08,0,0,-0.08,20.531634,103.17815)"
           id="g299">
          <defs
             id="defs293">
            <path
               d="m 27.203125,35.765625 c 6.296875,3.203125 12.703125,8.03125 12.703125,15.765625 0,9.15625 -8.8125,14.46875 -16.90625,14.46875 -9.09375,0 -17.09375,-6.625 -17.09375,-15.765625 0,-2.515625 0.59375,-6.84375 4.5,-10.65625 1,-1 5.1875,-4.015625 7.890625,-5.921875 -4.5,-2.3125 -15,-7.84375 -15,-18.890625 0,-10.359375 9.796875,-16.765625 19.5,-16.765625 10.703125,0 19.703125,7.71875 19.703125,17.96875 0,9.140625 -6.09375,13.359375 -10.09375,16.078125 z m -13.109375,8.84375 c -0.796875,0.5 -4.796875,3.609375 -4.796875,8.328125 0,6.140625 6.296875,10.75 13.5,10.75 7.90625,0 13.703125,-5.625 13.703125,-12.15625 0,-9.34375 -10.40625,-14.671875 -10.90625,-14.671875 -0.09375,0 -0.1875,0 -1,0.609375 z m 18.40625,-20.609375 c 1.5,-1.09375 6.296875,-4.421875 6.296875,-10.546875 0,-7.4375 -7.390625,-13.0625 -15.796875,-13.0625 -9.09375,0 -16,6.53125 -16,14.46875 0,7.9375 6.09375,14.578125 13,17.6875 z"
               id="CMR17-56" />
          </defs>
          <use
             transform="scale(0.996264)"
             xlink:href="#CMR17-49"
             id="use295"
             x="0"
             y="0"
             width="100%"
             height="100%" />
          <use
             transform="matrix(0.996264,0,0,0.996264,45.690477,0)"
             xlink:href="#CMR17-56"
             id="use297"
             x="0"
             y="0"
             width="100%"
             height="100%" />
        </g>
      </g>
    </g>
    <g
       id="ytick_4">
      <g
         id="line2d_23">
        <path
           clip-path="url(#p7797480e68)"
           d="m 36,65.645201 h 223.2"
           style="fill:none;stroke:#808080;stroke-width:0.8;stroke-linecap:square"
           id="path303" />
      </g>
      <g
         id="line2d_24">
        <g
           id="g308">
          <use
             style="stroke:#000000;stroke-width:0.8"
             x="36"
             xlink:href="#mdcfeab609e"
             y="65.645203"
             id="use306"
             width="100%"
             height="100%" />
        </g>
      </g>
      <g
         id="text_13">
        <!-- $\mathdefault{20}$ -->
        <g
           transform="matrix(0.08,0,0,-0.08,20.531634,68.412602)"
           id="g315">
          <use
             transform="scale(0.996264)"
             xlink:href="#CMR17-50"
             id="use311"
             x="0"
             y="0"
             width="100%"
             height="100%" />
          <use
             transform="matrix(0.996264,0,0,0.996264,45.690477,0)"
             xlink:href="#CMR17-48"
             id="use313"
             x="0"
             y="0"
             width="100%"
             height="100%" />
        </g>
      </g>
    </g>
    <g
       id="ytick_5">
      <g
         id="line2d_25">
        <path
           clip-path="url(#p7797480e68)"
           d="m 36,30.879655 h 223.2"
           style="fill:none;stroke:#808080;stroke-width:0.8;stroke-linecap:square"
           id="path319" />
      </g>
      <g
         id="line2d_26">
        <g
           id="g324">
          <use
             style="stroke:#000000;stroke-width:0.8"
             x="36"
             xlink:href="#mdcfeab609e"
             y="30.879656"
             id="use322"
             width="100%"
             height="100%" />
        </g>
      </g>
      <g
         id="text_14">
        <!-- $\mathdefault{22}$ -->
        <g
           transform="matrix(0.08,0,0,-0.08,20.531634,33.647056)"
           id="g331">
          <use
             transform="scale(0.996264)"
             xlink:href="#CMR17-50"
             id="use327"
             x="0"
             y="0"
             width="100%"
             height="100%" />
          <use
             transform="matrix(0.996264,0,0,0.996264,45.690477,0)"
             xlink:href="#CMR17-50"
             id="use329"
             x="0"
             y="0"
             width="100%"
             height="100%" />
        </g>
      </g>
    </g>
    <g
       id="text_15">
      <!-- Dry unit weight ($\gamma_d$) [kN/m$^3$] -->
      <g
         transform="matrix(0,-0.09,-0.09,0,14.29004,167.40415)"
         id="g399">
        <defs
           id="defs349">
          <path
             d="m 5.203125,68 v -2.609375 c 6.890625,0 8,0 8,-4.484375 v -53.828125 c 0,-4.484375 -1.109375,-4.484375 -8,-4.484375 v -2.59375 h 31.796875 c 16.09375,0 29,14.734375 29,33.4375 0,18.8125 -12.703125,34.5625 -29,34.5625 z m 18.59375,-65.40625 c -4,0 -4.203125,0.5 -4.203125,3.875 v 55.03125 c 0,3.390625 0.203125,3.890625 4.203125,3.890625 h 11.203125 c 8.296875,0 23.59375,-4.875 23.59375,-31.953125 0,-14.03125 -4.09375,-19.703125 -6,-22.390625 -2.390625,-3.078125 -8.09375,-8.453125 -17.59375,-8.453125 z"
             id="CMR17-68" />
          <path
             d="m 39,34.109375 c 2.5,6.1875 7,6.28125 8.40625,6.28125 v 2.609375 c -1.90625,-0.109375 -4.40625,-0.203125 -6.3125,-0.203125 -2.09375,0 -5.390625,0 -7.390625,0.203125 v -2.609375 c 3.796875,-0.296875 3.890625,-3.140625 3.890625,-3.953125 0,-1 -0.1875,-1.515625 -0.6875,-2.71875 l -10.90625,-27.328125 -11.90625,29.546875 c -0.5,1.21875 -0.5,1.921875 -0.5,2.03125 0,2.21875 2.3125,2.421875 4.703125,2.421875 v 2.609375 c -2.390625,-0.203125 -6.703125,-0.203125 -9.203125,-0.203125 -2.6875,0 -5.890625,0 -8.09375,0.203125 v -2.609375 c 5.40625,0 6,-0.5 7.296875,-3.75 l 14.90625,-37.125 c -4.5,-11.9375 -7.109375,-18.921875 -13.40625,-18.921875 -1.09375,0 -3.59375,0.296875 -5.390625,2.125 2.296875,0.203125 3.296875,1.625 3.296875,3.34375 0,1.71875 -1.203125,3.234375 -3.203125,3.234375 -2.203125,0 -3.296875,-1.515625 -3.296875,-3.34375 0,-4.046875 4.09375,-6.953125 8.59375,-6.953125 5.796875,0 9.40625,5.640625 11.40625,10.703125 z"
             id="CMR17-121" />
          <path
             d="m 29.40625,42.890625 v -2.59375 c 5.890625,0 6.796875,-0.609375 6.796875,-5.46875 v -18.375 c 0,-8.484375 -4.5,-15.859375 -11.90625,-15.859375 -8.203125,0 -8.890625,4.953125 -8.890625,10.203125 v 33.203125 l -12.109375,-1.109375 v -2.59375 c 4,0 6.703125,0 6.796875,-4.046875 v -19.390625 c 0,-6.765625 0,-11.109375 2.609375,-13.9375 1.296875,-1.3125 3.796875,-3.921875 11,-3.921875 8.5,0 11.796875,7.25 12.59375,9.375 h 0.109375 v -9.375 l 11.890625,0.796875 v 2.609375 c -5.890625,0 -6.796875,0.609375 -6.796875,5.453125 v 36.140625 z"
             id="CMR17-117" />
          <path
             d="m 15.5,61.890625 c 0,2.203125 -1.796875,4.109375 -4.09375,4.109375 -2.203125,0 -4.109375,-1.8125 -4.109375,-4.109375 0,-2.203125 1.796875,-4.09375 4.109375,-4.09375 2.1875,0 4.09375,1.796875 4.09375,4.09375 z m -11.703125,-19 v -2.59375 c 5.609375,0 6.40625,-0.609375 6.40625,-5.4375 v -27.9375 c 0,-3.828125 -0.40625,-4.328125 -6.796875,-4.328125 v -2.59375 c 2.390625,0.1875 6.6875,0.1875 9.1875,0.1875 2.40625,0 6.5,0 8.8125,-0.1875 v 2.59375 c -5.90625,0 -6.109375,0.609375 -6.109375,4.21875 v 37.1875 z"
             id="CMR17-105" />
          <path
             d="m 58.203125,34.15625 c 2,5.9375 6,6.140625 7.5,6.234375 v 2.609375 c -2,-0.109375 -4,-0.203125 -6,-0.203125 -1.90625,0 -6.203125,0 -7.90625,0.203125 v -2.609375 c 3.109375,-0.203125 4.796875,-2.015625 4.796875,-4.515625 0,-0.703125 -0.1875,-1.609375 -0.390625,-2.3125 l -9.40625,-27.34375 -10.203125,29.65625 c -0.1875,0.703125 -0.5,1.5 -0.5,1.90625 0,2.609375 3.40625,2.609375 5,2.609375 v 2.609375 c -2.296875,-0.203125 -6.5,-0.203125 -8.890625,-0.203125 -2.5,0 -5.109375,0 -7.40625,0.203125 v -2.609375 c 5.5,0 5.5,-0.203125 7.609375,-6.53125 l -9.203125,-26.9375 -9.90625,29.046875 c -0.5,1.3125 -0.5,1.515625 -0.5,1.8125 0,2.609375 3.40625,2.609375 5,2.609375 v 2.609375 c -2.390625,-0.203125 -6.59375,-0.203125 -9.09375,-0.203125 -2.203125,0 -5.609375,0 -7.703125,0.203125 v -2.609375 c 4.40625,0 5.5,-0.296875 6.59375,-3.625 l 12.3125,-36.171875 c 0.390625,-1.296875 0.6875,-1.59375 1.5,-1.59375 0.6875,0 1.09375,0.1875 1.59375,1.6875 l 10.296875,30.359375 10.40625,-30.359375 c 0.5,-1.5 0.890625,-1.6875 1.59375,-1.6875 0.796875,0 1.109375,0.296875 1.5,1.59375 z"
             id="CMR17-119" />
          <path
             d="m 11.09375,18.203125 c 1.90625,-1.515625 5.203125,-3.203125 9.203125,-3.203125 7.90625,0 14.703125,6.234375 14.703125,14.609375 0,2.625 -0.796875,6.65625 -3.796875,9.78125 2.796875,3 6.890625,4 9.203125,4 0.390625,0 1,0 1.5,-0.296875 -0.40625,-0.109375 -1.3125,-0.5 -1.3125,-2.109375 0,-1.296875 0.90625,-2.1875 2.203125,-2.1875 1.5,0 2.296875,1 2.296875,2.296875 0,1.890625 -1.5,3.90625 -4.6875,3.90625 -4,0 -7.5,-1.90625 -10.3125,-4.515625 -3,2.703125 -6.59375,3.703125 -9.796875,3.703125 -7.890625,0 -14.703125,-6.203125 -14.703125,-14.578125 0,-5.75 3.3125,-9.390625 4.3125,-10.390625 -3,-3.53125 -3,-7.625 -3,-8.125 0,-2.59375 1,-6.40625 4.390625,-8.5 -5.203125,-1.3125 -9.296875,-5.46875 -9.296875,-10.671875 0,-7.484375 9.5,-12.921875 20.90625,-12.921875 11,0 20.890625,5.234375 20.890625,13.03125 0,13.96875 -14.796875,13.96875 -22.5,13.96875 -2.296875,0 -6.390625,0 -6.890625,0.09375 -3.109375,0.5 -5.203125,3.296875 -5.203125,6.796875 0,0.90625 0,3.109375 1.890625,5.3125 z m 9.203125,-1.515625 c -8.796875,0 -8.796875,10.90625 -8.796875,12.921875 0,2.015625 0,12.875 8.796875,12.875 8.796875,0 8.796875,-10.859375 8.796875,-12.875 0,-2.015625 0,-12.921875 -8.796875,-12.921875 z m 2.609375,-36 c -10,0 -16.90625,5.515625 -16.90625,11.234375 0,3.21875 1.703125,6.234375 3.90625,7.90625 2.5,1.765625 3.5,1.765625 10.296875,1.765625 8.203125,0 19.59375,0 19.59375,-9.671875 0,-5.71875 -6.890625,-11.234375 -16.890625,-11.234375 z"
             id="CMR17-103" />
          <path
             d="m 41.5,30.53125 c 0,5.125 -1,13.46875 -12.796875,13.46875 -8.203125,0 -12.203125,-6.625 -13.40625,-9.953125 h -0.09375 v 34.953125 l -11.90625,-1.109375 v -2.59375 c 5.90625,0 6.796875,-0.59375 6.796875,-5.25 v -53.125 c 0,-3.828125 -0.390625,-4.328125 -6.796875,-4.328125 v -2.59375 c 2.40625,0.1875 6.796875,0.1875 9.40625,0.1875 2.59375,0 7.09375,0 9.5,-0.1875 v 2.59375 c -6.40625,0 -6.796875,0.40625 -6.796875,4.328125 v 19.296875 c 0,9.234375 5.59375,16.171875 12.59375,16.171875 7.40625,0 8.203125,-6.625 8.203125,-11.453125 v -24.015625 c 0,-3.828125 -0.40625,-4.328125 -6.796875,-4.328125 v -2.59375 c 2.390625,0.1875 6.796875,0.1875 9.390625,0.1875 2.609375,0 7.109375,0 9.5,-0.1875 v 2.59375 c -6.390625,0 -6.796875,0.40625 -6.796875,4.328125 z"
             id="CMR17-104" />
          <path
             d="m 37.796875,12.265625 c -0.203125,4.875 -0.390625,12.515625 -4.203125,21.453125 -2,4.96875 -5.390625,10.28125 -12.6875,10.28125 -12.3125,0 -19,-15.640625 -19,-18.234375 0,-0.890625 0.6875,-0.890625 1,-0.890625 0.890625,0 0.890625,0.203125 1.390625,1.5 2.109375,6.140625 8.5,11.015625 15.40625,11.015625 13.890625,0 15.890625,-15.390625 15.890625,-25.21875 0,-6.265625 -0.6875,-8.34375 -1.296875,-10.328125 -1.890625,-6.15625 -5.203125,-18.46875 -5.203125,-21.25 0,-0.796875 0.3125,-1.703125 1.109375,-1.703125 1.5,0 2.390625,3.296875 3.5,7.265625 2.390625,8.734375 3,13.109375 3.5,17.078125 0.296875,2.390625 6,18.78125 13.890625,34.375 0.703125,1.59375 2.109375,4.28125 2.109375,4.578125 0,0.109375 -0.109375,0.8125 -1,0.8125 -0.203125,0 -0.703125,0 -0.90625,-0.40625 -0.203125,-0.203125 -3.703125,-6.96875 -6.703125,-13.71875 -1.5,-3.40625 -3.5,-7.875 -6.796875,-16.609375 z"
             id="CMMI12-13" />
          <path
             d="m 50.296875,66.484375 c 0.109375,0.40625 0.296875,1 0.296875,1.5 0,1.015625 -1,1.015625 -1.1875,1.015625 -0.109375,0 -5,-0.40625 -5.5,-0.515625 -1.703125,-0.09375 -3.203125,-0.296875 -5,-0.390625 -2.5,-0.203125 -3.203125,-0.296875 -3.203125,-2.109375 0,-1 0.796875,-1 2.203125,-1 4.890625,0 5,-0.875 5,-1.859375 0,-0.59375 -0.203125,-1.390625 -0.3125,-1.6875 l -6.09375,-24.03125 c -1.09375,2.59375 -3.796875,6.59375 -9,6.59375 -11.296875,0 -23.5,-14.578125 -23.5,-29.34375 0,-9.875 5.796875,-15.65625 12.59375,-15.65625 5.5,0 10.203125,4.28125 13,7.578125 1,-5.890625 5.703125,-7.578125 8.703125,-7.578125 3,0 5.40625,1.796875 7.203125,5.390625 1.59375,3.390625 3,9.46875 3,9.875 0,0.5 -0.40625,0.890625 -1,0.890625 -0.90625,0 -1,-0.5 -1.40625,-2 -1.5,-5.875 -3.390625,-12.15625 -7.5,-12.15625 -2.890625,0 -3.09375,2.59375 -3.09375,4.578125 0,0.40625 0,2.5 0.703125,5.296875 z m -20.203125,-54.625 c -0.5,-1.6875 -0.5,-1.890625 -1.890625,-3.78125 -2.203125,-2.796875 -6.609375,-7.078125 -11.296875,-7.078125 -4.109375,0 -6.40625,3.6875 -6.40625,9.5625 0,5.5 3.09375,16.671875 5,20.859375 3.40625,6.984375 8.09375,10.5625 12,10.5625 6.59375,0 7.90625,-8.171875 7.90625,-8.96875 0,-0.09375 -0.3125,-1.390625 -0.40625,-1.59375 z"
             id="CMMI12-100" />
          <path
             d="m 26.09375,26.234375 c -0.09375,0.203125 -0.59375,0.796875 -0.59375,1.09375 0,0.203125 7.09375,6.65625 8,7.453125 5.703125,4.78125 9.296875,5.265625 11.90625,5.375 v 2.578125 c -0.609375,0 -0.8125,0 -0.90625,-0.09375 l -4.90625,-0.109375 c -2.796875,0 -7.09375,0 -9.796875,0.203125 v -2.578125 c 1.40625,-0.109375 2.40625,-0.890625 2.40625,-2.296875 0,-1.984375 -2,-3.875 -2.109375,-3.875 l -15.09375,-13.703125 v 48.71875 l -11.90625,-1.109375 v -2.59375 c 5.90625,0 6.8125,-0.59375 6.8125,-5.375 v -53.0625 c 0,-3.765625 -0.40625,-4.265625 -6.8125,-4.265625 v -2.59375 c 2.40625,0.1875 6.8125,0.1875 9.3125,0.1875 2.5,0 6.890625,0 9.296875,-0.1875 v 2.59375 c -6.40625,0 -6.796875,0.390625 -6.796875,4.265625 v 10.9375 l 6.890625,6.265625 10.109375,-14.90625 c 1.1875,-1.796875 2.1875,-3.1875 2.1875,-4.484375 0,-1.78125 -1.796875,-2.078125 -3,-2.078125 v -2.59375 c 2.40625,0.1875 6.703125,0.1875 9.203125,0.1875 1.796875,0 5.5,-0.09375 7.203125,-0.1875 v 2.59375 c -4.703125,0 -5.796875,0.890625 -8.796875,5.265625 z"
             id="CMR17-107" />
          <path
             d="m 20.5,66.796875 c -0.703125,1.09375 -0.796875,1.203125 -2.703125,1.203125 h -12.703125 v -2.609375 h 1.90625 c 4,0 5.796875,-0.5 6.09375,-0.59375 v -55.046875 c 0,-2.484375 0,-7.15625 -8,-7.15625 v -2.59375 c 2.3125,0.1875 6.5,0.1875 9,0.1875 2.5,0 6.703125,0 9,-0.1875 v 2.59375 c -8,0 -8,4.671875 -8,7.15625 v 53.640625 c 0.703125,-0.59375 0.703125,-0.78125 1.40625,-1.78125 l 37.09375,-60.421875 c 0.703125,-1.1875 1,-1.1875 1.5,-1.1875 1,0 1,0.296875 1,2.1875 v 56.03125 c 0,2.484375 0,7.171875 8,7.171875 v 2.609375 c -2.296875,-0.203125 -6.5,-0.203125 -9,-0.203125 -2.5,0 -6.6875,0 -9,0.203125 v -2.609375 c 8,0 8,-4.6875 8,-7.171875 v -46.078125 z"
             id="CMR17-78" />
          <path
             d="m 40.703125,71.484375 c 0.5,1.296875 0.5,1.5 0.5,1.703125 0,1.203125 -0.90625,1.8125 -1.703125,1.8125 -1.203125,0 -1.59375,-0.8125 -2,-2.015625 l -32.40625,-94.484375 c -0.5,-1.3125 -0.5,-1.5 -0.5,-1.703125 0,-1.203125 0.90625,-1.796875 1.703125,-1.796875 1.203125,0 1.609375,0.796875 2,2 z"
             id="CMR17-47" />
          <path
             d="m 67.59375,30.53125 c 0,5.03125 -0.890625,13.46875 -12.796875,13.46875 -6.796875,0 -11.5,-4.625 -13.296875,-10.046875 h -0.09375 c -1.203125,8.234375 -7.109375,10.046875 -12.703125,10.046875 -7.90625,0 -12,-6.125 -13.5,-10.15625 h -0.109375 v 10.15625 l -11.796875,-1.109375 v -2.609375 c 5.90625,0 6.796875,-0.59375 6.796875,-5.421875 v -27.9375 c 0,-3.828125 -0.390625,-4.328125 -6.796875,-4.328125 v -2.59375 c 2.40625,0.1875 6.796875,0.1875 9.40625,0.1875 2.59375,0 7.09375,0 9.5,-0.1875 v 2.59375 c -6.40625,0 -6.796875,0.40625 -6.796875,4.328125 v 19.296875 c 0,9.234375 5.59375,16.171875 12.59375,16.171875 7.40625,0 8.203125,-6.625 8.203125,-11.453125 v -24.015625 c 0,-3.828125 -0.40625,-4.328125 -6.796875,-4.328125 v -2.59375 c 2.390625,0.1875 6.796875,0.1875 9.390625,0.1875 2.609375,0 7.109375,0 9.5,-0.1875 v 2.59375 c -6.390625,0 -6.796875,0.40625 -6.796875,4.328125 v 19.296875 c 0,9.234375 5.59375,16.171875 12.59375,16.171875 7.40625,0 8.203125,-6.625 8.203125,-11.453125 v -24.015625 c 0,-3.828125 -0.390625,-4.328125 -6.796875,-4.328125 v -2.59375 c 2.40625,0.1875 6.796875,0.1875 9.40625,0.1875 2.59375,0 7.09375,0 9.5,-0.1875 v 2.59375 c -6.40625,0 -6.8125,0.40625 -6.8125,4.328125 z"
             id="CMR17-109" />
          <path
             d="m 22.09375,34 c 8.90625,0 12.8125,-7.859375 12.8125,-16.90625 0,-12.0625 -6.40625,-16.703125 -12.203125,-16.703125 -5.296875,0 -13.90625,2.625 -16.609375,10.40625 0.5,-0.203125 1,-0.203125 1.5,-0.203125 2.40625,0 4.203125,1.59375 4.203125,4.203125 0,2.890625 -2.203125,4.203125 -4.203125,4.203125 -1.6875,0 -4.296875,-0.8125 -4.296875,-4.515625 0,-9.25 9,-16.484375 19.609375,-16.484375 11.09375,0 19.59375,8.75 19.59375,18.984375 0,9.859375 -8,17.015625 -17.5,18.109375 7.59375,1.578125 14.90625,8.28125 14.90625,17.296875 0,7.859375 -7.90625,13.609375 -16.90625,13.609375 -9.09375,0 -17.09375,-5.65625 -17.09375,-13.703125 0,-3.5 2.59375,-4.109375 3.890625,-4.109375 2.109375,0 3.90625,1.296875 3.90625,3.90625 0,2.59375 -1.796875,3.90625 -3.90625,3.90625 -0.390625,0 -0.890625,0 -1.296875,-0.203125 2.90625,6.6875 10.796875,7.890625 14.296875,7.890625 3.5,0 10.109375,-1.71875 10.109375,-11.390625 0,-2.8125 -0.40625,-7.75 -3.8125,-12.078125 -3,-3.828125 -6.390625,-4.03125 -9.6875,-4.328125 -0.5,0 -2.8125,-0.203125 -3.203125,-0.203125 -0.703125,-0.09375 -1.109375,-0.1875 -1.109375,-0.890625 0,-0.703125 0.109375,-0.796875 2.109375,-0.796875 z"
             id="CMR17-51" />
        </defs>
        <use
           transform="scale(0.996264)"
           xlink:href="#CMR17-68"
           id="use351"
           x="0"
           y="0"
           width="100%"
           height="100%" />
        <use
           transform="matrix(0.996264,0,0,0.996264,70.393556,0)"
           xlink:href="#CMR17-114"
           id="use353"
           x="0"
           y="0"
           width="100%"
           height="100%" />
        <use
           transform="matrix(0.996264,0,0,0.996264,105.67432,0)"
           xlink:href="#CMR17-121"
           id="use355"
           x="0"
           y="0"
           width="100%"
           height="100%" />
        <use
           transform="matrix(0.996264,0,0,0.996264,184.04321,0)"
           xlink:href="#CMR17-117"
           id="use357"
           x="0"
           y="0"
           width="100%"
           height="100%" />
        <use
           transform="matrix(0.996264,0,0,0.996264,234.93858,0)"
           xlink:href="#CMR17-110"
           id="use359"
           x="0"
           y="0"
           width="100%"
           height="100%" />
        <use
           transform="matrix(0.996264,0,0,0.996264,285.83395,0)"
           xlink:href="#CMR17-105"
           id="use361"
           x="0"
           y="0"
           width="100%"
           height="100%" />
        <use
           transform="matrix(0.996264,0,0,0.996264,310.705,0)"
           xlink:href="#CMR17-116"
           id="use363"
           x="0"
           y="0"
           width="100%"
           height="100%" />
        <use
           transform="matrix(0.996264,0,0,0.996264,376.06174,0)"
           xlink:href="#CMR17-119"
           id="use365"
           x="0"
           y="0"
           width="100%"
           height="100%" />
        <use
           transform="matrix(0.996264,0,0,0.996264,439.96916,0)"
           xlink:href="#CMR17-101"
           id="use367"
           x="0"
           y="0"
           width="100%"
           height="100%" />
        <use
           transform="matrix(0.996264,0,0,0.996264,480.45483,0)"
           xlink:href="#CMR17-105"
           id="use369"
           x="0"
           y="0"
           width="100%"
           height="100%" />
        <use
           transform="matrix(0.996264,0,0,0.996264,505.32588,0)"
           xlink:href="#CMR17-103"
           id="use371"
           x="0"
           y="0"
           width="100%"
           height="100%" />
        <use
           transform="matrix(0.996264,0,0,0.996264,551.01636,0)"
           xlink:href="#CMR17-104"
           id="use373"
           x="0"
           y="0"
           width="100%"
           height="100%" />
        <use
           transform="matrix(0.996264,0,0,0.996264,599.30928,0)"
           xlink:href="#CMR17-116"
           id="use375"
           x="0"
           y="0"
           width="100%"
           height="100%" />
        <use
           transform="matrix(0.996264,0,0,0.996264,664.66601,0)"
           xlink:href="#CMR17-40"
           id="use377"
           x="0"
           y="0"
           width="100%"
           height="100%" />
        <use
           transform="matrix(0.996264,0,0,0.996264,699.94678,0)"
           xlink:href="#CMMI12-13"
           id="use379"
           x="0"
           y="0"
           width="100%"
           height="100%" />
        <use
           transform="matrix(0.697382,0,0,0.697382,750.54591,-14.943915)"
           xlink:href="#CMMI12-100"
           id="use381"
           x="0"
           y="0"
           width="100%"
           height="100%" />
        <use
           transform="matrix(0.996264,0,0,0.996264,786.52625,0)"
           xlink:href="#CMR17-41"
           id="use383"
           x="0"
           y="0"
           width="100%"
           height="100%" />
        <use
           transform="matrix(0.996264,0,0,0.996264,851.88298,0)"
           xlink:href="#CMR17-91"
           id="use385"
           x="0"
           y="0"
           width="100%"
           height="100%" />
        <use
           transform="matrix(0.996264,0,0,0.996264,876.75404,0)"
           xlink:href="#CMR17-107"
           id="use387"
           x="0"
           y="0"
           width="100%"
           height="100%" />
        <use
           transform="matrix(0.996264,0,0,0.996264,925.04696,0)"
           xlink:href="#CMR17-78"
           id="use389"
           x="0"
           y="0"
           width="100%"
           height="100%" />
        <use
           transform="matrix(0.996264,0,0,0.996264,994.11939,0)"
           xlink:href="#CMR17-47"
           id="use391"
           x="0"
           y="0"
           width="100%"
           height="100%" />
        <use
           transform="matrix(0.996264,0,0,0.996264,1039.8099,0)"
           xlink:href="#CMR17-109"
           id="use393"
           x="0"
           y="0"
           width="100%"
           height="100%" />
        <use
           transform="matrix(0.697382,0,0,0.697382,1116.7295,36.153639)"
           xlink:href="#CMR17-51"
           id="use395"
           x="0"
           y="0"
           width="100%"
           height="100%" />
        <use
           transform="matrix(0.996264,0,0,0.996264,1149.2108,0)"
           xlink:href="#CMR17-93"
           id="use397"
           x="0"
           y="0"
           width="100%"
           height="100%" />
      </g>
    </g>
  </g>
  <g
     id="line2d_27"
     transform="translate(-4.2642802,-21.812808)">
    <defs
       id="defs404">
      <path
         d="m 0,-3 -0.673542,2.072949 h -2.179628 l 1.763356,1.281153 -0.673542,2.072949 1.763356,-1.281153 1.763356,1.281153 -0.673542,-2.072949 1.763356,-1.281153 h -2.179628 z"
         id="md570abced4"
         style="stroke:#f77189;stroke-linejoin:bevel" />
    </defs>
    <g
       clip-path="url(#p7797480e68)"
       id="g416">
      <use
         style="fill:#f77189;stroke:#f77189;stroke-linejoin:bevel"
         x="90.109093"
         xlink:href="#md570abced4"
         y="135.8716"
         id="use406"
         width="100%"
         height="100%" />
      <use
         style="fill:#f77189;stroke:#f77189;stroke-linejoin:bevel"
         x="105.89091"
         xlink:href="#md570abced4"
         y="133.78568"
         id="use408"
         width="100%"
         height="100%" />
      <use
         style="fill:#f77189;stroke:#f77189;stroke-linejoin:bevel"
         x="150.98181"
         xlink:href="#md570abced4"
         y="116.57672"
         id="use410"
         width="100%"
         height="100%" />
      <use
         style="fill:#f77189;stroke:#f77189;stroke-linejoin:bevel"
         x="193.81818"
         xlink:href="#md570abced4"
         y="122.13921"
         id="use412"
         width="100%"
         height="100%" />
      <use
         style="fill:#f77189;stroke:#f77189;stroke-linejoin:bevel"
         x="219.74545"
         xlink:href="#md570abced4"
         y="132.39505"
         id="use414"
         width="100%"
         height="100%" />
    </g>
  </g>
  <g
     id="line2d_28"
     transform="translate(-4.2642802,-21.812808)">
    <defs
       id="defs420">
      <path
         d="m 0,-3 -0.673542,2.072949 h -2.179628 l 1.763356,1.281153 -0.673542,2.072949 1.763356,-1.281153 1.763356,1.281153 -0.673542,-2.072949 1.763356,-1.281153 h -2.179628 z"
         id="m05c87582c8"
         style="stroke:#bb9832;stroke-linejoin:bevel" />
    </defs>
    <g
       clip-path="url(#p7797480e68)"
       id="g432">
      <use
         style="fill:#bb9832;stroke:#bb9832;stroke-linejoin:bevel"
         x="72.072723"
         xlink:href="#m05c87582c8"
         y="93.979118"
         id="use422"
         width="100%"
         height="100%" />
      <use
         style="fill:#bb9832;stroke:#bb9832;stroke-linejoin:bevel"
         x="111.52728"
         xlink:href="#m05c87582c8"
         y="87.721321"
         id="use424"
         width="100%"
         height="100%" />
      <use
         style="fill:#bb9832;stroke:#bb9832;stroke-linejoin:bevel"
         x="141.96364"
         xlink:href="#m05c87582c8"
         y="105.79941"
         id="use426"
         width="100%"
         height="100%" />
      <use
         style="fill:#bb9832;stroke:#bb9832;stroke-linejoin:bevel"
         x="178.03636"
         xlink:href="#m05c87582c8"
         y="123.52983"
         id="use428"
         width="100%"
         height="100%" />
      <use
         style="fill:#bb9832;stroke:#bb9832;stroke-linejoin:bevel"
         x="205.09091"
         xlink:href="#m05c87582c8"
         y="133.43802"
         id="use430"
         width="100%"
         height="100%" />
    </g>
  </g>
  <g
     id="line2d_29"
     transform="translate(-4.2642802,-21.812808)">
    <defs
       id="defs436">
      <path
         d="m 0,-3 -0.673542,2.072949 h -2.179628 l 1.763356,1.281153 -0.673542,2.072949 1.763356,-1.281153 1.763356,1.281153 -0.673542,-2.072949 1.763356,-1.281153 h -2.179628 z"
         id="m5527a2432b"
         style="stroke:#50b131;stroke-linejoin:bevel" />
    </defs>
    <g
       clip-path="url(#p7797480e68)"
       id="g450">
      <use
         style="fill:#50b131;stroke:#50b131;stroke-linejoin:bevel"
         x="72.072723"
         xlink:href="#m5527a2432b"
         y="124.92046"
         id="use438"
         width="100%"
         height="100%" />
      <use
         style="fill:#50b131;stroke:#50b131;stroke-linejoin:bevel"
         x="100.25455"
         xlink:href="#m5527a2432b"
         y="120.92242"
         id="use440"
         width="100%"
         height="100%" />
      <use
         style="fill:#50b131;stroke:#50b131;stroke-linejoin:bevel"
         x="128.43637"
         xlink:href="#m5527a2432b"
         y="113.96931"
         id="use442"
         width="100%"
         height="100%" />
      <use
         style="fill:#50b131;stroke:#50b131;stroke-linejoin:bevel"
         x="165.63637"
         xlink:href="#m5527a2432b"
         y="115.35993"
         id="use444"
         width="100%"
         height="100%" />
      <use
         style="fill:#50b131;stroke:#50b131;stroke-linejoin:bevel"
         x="201.70909"
         xlink:href="#m5527a2432b"
         y="125.96342"
         id="use446"
         width="100%"
         height="100%" />
      <use
         style="fill:#50b131;stroke:#50b131;stroke-linejoin:bevel"
         x="226.50909"
         xlink:href="#m5527a2432b"
         y="137.26222"
         id="use448"
         width="100%"
         height="100%" />
    </g>
  </g>
  <g
     id="line2d_30"
     transform="translate(-4.2642802,-21.812808)"
     style="stroke-width:1;stroke-miterlimit:4;stroke-dasharray:none;stroke:#ff00ff">
    <path
       clip-path="url(#p7797480e68)"
       d="m 90.109091,135.8716 3.034965,0.0566 3.034965,-0.18531 3.034965,-0.40476 3.468534,-0.70254 3.46853,-0.9264 3.9021,-1.26812 4.76923,-1.80763 5.63636,-2.38958 18.20979,-7.93408 4.33567,-1.5689 3.90209,-1.19305 3.46853,-0.84634 3.46854,-0.61434 3.46853,-0.38359 3.46853,-0.16671 3.9021,0.0544 3.9021,0.2914 3.90209,0.50863 4.33567,0.7958 4.76923,1.1244 4.76923,1.35019 5.63636,1.8373 6.5035,2.37098 8.67133,3.4274 12.57342,5.09776 v 0"
       style="fill:none;stroke:#ff00ff;stroke-width:1;stroke-linecap:square;stroke-miterlimit:4;stroke-dasharray:none"
       id="path453" />
  </g>
  <g
     id="line2d_31"
     transform="translate(-4.2642802,-21.812808)">
    <path
       clip-path="url(#p7797480e68)"
       d="m 74.000725,94.778534 c 29.986335,-11.111659 37.088025,-8.431343 40.928675,-5.585048 l 2.07589,1.212538 4.44877,2.497244 5.7834,3.534464 19.1297,11.967748 5.7834,3.20542 6.22828,3.20079 6.67315,3.17273 7.11803,3.13114 8.00778,3.26337 8.89754,3.3769 11.5668,4.1337 4.44877,1.54848 v 0"
       style="fill:none;stroke:#ff7f0e;stroke-width:1.5;stroke-linecap:square"
       id="path456"
       sodipodi:nodetypes="ccccccccccccccc" />
  </g>
  <g
     id="line2d_32"
     transform="translate(-4.2642802,-21.812808)">
    <path
       clip-path="url(#p7797480e68)"
       d="m 72.072727,124.92046 3.615567,0.0903 3.615567,-0.13845 4.132077,-0.40436 4.132077,-0.62896 4.648586,-0.92679 5.681605,-1.36857 8.264154,-2.2534 11.36321,-3.07918 5.68161,-1.30209 4.64858,-0.85018 4.13208,-0.54948 4.64858,-0.38363 4.64859,-0.15069 4.64859,0.0662 5.16509,0.30849 5.1651,0.5345 5.6816,0.82278 5.68161,1.04057 6.19811,1.36085 6.19812,1.58903 6.19811,1.811 6.71463,2.20522 6.71462,2.45057 6.71463,2.68803 6.71462,2.9176 7.23114,3.38972 6.19811,3.10264 v 0"
       style="fill:none;stroke:#2ca02c;stroke-width:1.5;stroke-linecap:square"
       id="path459" />
  </g>
  <g
     id="line2d_33"
     transform="translate(-4.2642802,-21.812808)"
     style="stroke:#000000">
    <path
       clip-path="url(#p7797480e68)"
       d="m 46.145455,57.140844 8.143508,7.514926 8.143509,7.20435 8.143509,6.912639 8.143508,6.638294 8.822135,6.900437 8.822134,6.615984 8.822132,6.348766 9.50076,6.55646 9.50076,6.28316 9.50076,6.02661 10.17939,6.18984 10.17938,5.9304 10.85802,6.05776 10.85801,5.79851 10.85801,5.55555 11.53664,5.65327 11.53663,5.41232 12.21527,5.48481 12.21526,5.24797 12.89389,5.29917 2.03587,0.8152 v 0"
       style="fill:none;stroke:#000000;stroke-width:1.5;stroke-dasharray:1.5, 2.475;stroke-dashoffset:0"
       id="path462" />
  </g>
  <g
     id="line2d_34"
     transform="translate(-4.2642802,-21.812808)"
     style="stroke:#333333">
    <path
       clip-path="url(#p7797480e68)"
       d="m 46.145455,47.5931 8.822134,7.514798 8.822134,7.21218 8.822135,6.927478 8.822134,6.659309 9.50076,6.889155 9.500758,6.613449 9.50076,6.353969 10.17939,6.536872 10.17938,6.27316 10.85802,6.41831 10.85801,6.15352 10.85801,5.90478 11.53664,6.01779 11.53663,5.76999 12.21527,5.85593 12.21526,5.61128 12.89389,5.67415 12.89389,5.43449 12.89388,5.20968 v 0"
       style="fill:none;stroke:#333333;stroke-width:1.5;stroke-dasharray:1.5, 2.475;stroke-dashoffset:0"
       id="path465" />
  </g>
  <g
     id="line2d_35"
     transform="translate(-4.2642802,-21.812808)"
     style="stroke:#4d4d4d">
    <path
       clip-path="url(#p7797480e68)"
       d="m 46.145455,39.805632 8.822134,6.980557 9.50076,7.231469 9.50076,6.951632 9.50076,6.687729 10.179386,6.889305 10.179385,6.62004 10.17939,6.366257 10.85801,6.527063 10.85801,6.270646 11.53664,6.39817 11.53663,6.14181 12.21527,6.24043 12.21526,5.98646 12.89389,6.06029 12.89389,5.81066 13.57251,5.86341 13.57252,5.61976 12.89388,5.12664 v 0"
       style="fill:none;stroke:#4d4d4d;stroke-width:1.5;stroke-dasharray:1.5, 2.475;stroke-dashoffset:0"
       id="path468" />
  </g>
  <g
     id="line2d_36"
     transform="translate(-4.2642802,-21.812808)"
     style="stroke:#0000ff;stroke-width:1.9;stroke-miterlimit:4;stroke-dasharray:none;stroke-dashoffset:0">
    <path
       clip-path="url(#p7797480e68)"
       d="m 46.145455,33.332727 9.50076,7.004142 10.179385,7.223439 10.179386,6.948954 10.179386,6.689821 10.858012,6.866201 10.858016,6.603532 11.53663,6.74497 11.53664,6.481521 11.53664,6.233211 12.21526,6.344762 12.21526,6.09743 12.89389,6.1835 12.89389,5.93912 13.57252,6.00329 13.57251,5.76351 14.25114,5.80903 14.25114,5.57522 0.67862,0.25989 v 0"
       style="fill:none;stroke:#0000ff;stroke-width:1.9;stroke-dasharray:none;stroke-dashoffset:0;stroke-miterlimit:4"
       id="path471" />
  </g>
  <g
     id="patch_3"
     transform="translate(-4.2642802,-21.812808)">
    <path
       d="m 36,189 v -163.08"
       style="fill:none;stroke:#000000;stroke-width:0.8;stroke-linecap:square;stroke-linejoin:miter"
       id="path474" />
  </g>
  <g
     id="patch_4"
     transform="translate(-4.2642802,-21.812808)">
    <path
       d="m 259.2,189 v -163.08"
       style="fill:none;stroke:#000000;stroke-width:0.8;stroke-linecap:square;stroke-linejoin:miter"
       id="path477" />
  </g>
  <g
     id="patch_5"
     transform="translate(-4.2642802,-21.812808)">
    <path
       d="m 36,189 h 223.2"
       style="fill:none;stroke:#000000;stroke-width:0.8;stroke-linecap:square;stroke-linejoin:miter"
       id="path480" />
  </g>
  <g
     id="patch_6"
     transform="translate(-4.2642802,-21.812808)">
    <path
       d="m 36,25.92 h 223.2"
       style="fill:none;stroke:#000000;stroke-width:0.8;stroke-linecap:square;stroke-linejoin:miter"
       id="path483" />
  </g>
  <g
     id="legend_1"
     transform="translate(-4.2642802,-21.812808)">
    <g
       id="patch_7">
      <path
         d="m 174.33779,77.033496 h 80.86221 v -47.113496 h -80.86221 z"
         style="fill:#ffffff;stroke:#000000;stroke-linejoin:miter"
         id="path486" />
    </g>
    <g
       id="line2d_37" />
    <g
       id="line2d_38">
      <g
         id="g492">
        <use
           style="fill:#f77189;stroke:#f77189;stroke-linejoin:bevel"
           x="190.33778"
           xlink:href="#md570abced4"
           y="41.19875"
           id="use490"
           width="100%"
           height="100%" />
      </g>
    </g>
    <g
       id="text_16">
      <!-- Low energy -->
      <g
         transform="matrix(0.08,0,0,-0.08,204.73779,43.99875)"
         id="g516">
        <defs
           id="defs496">
          <path
             d="m 54.203125,25.1875 h -1.796875 c -0.8125,-9.859375 -2.109375,-22.59375 -19.203125,-22.59375 h -9.296875 c -4,0 -4.203125,0.5 -4.203125,3.875 v 54.34375 c 0,3.578125 0.203125,4.578125 7.796875,4.578125 h 2.203125 v 2.609375 c -4.109375,-0.203125 -8.90625,-0.203125 -13,-0.203125 -3.109375,0 -8.703125,0 -11.609375,0.203125 v -2.609375 c 6.90625,0 8,0 8,-4.484375 v -53.828125 c 0,-4.484375 -1.09375,-4.484375 -8,-4.484375 v -2.59375 h 46.703125 z"
             id="CMR17-76" />
        </defs>
        <use
           transform="scale(0.996264)"
           xlink:href="#CMR17-76"
           id="use498"
           x="0"
           y="0"
           width="100%"
           height="100%" />
        <use
           transform="matrix(0.996264,0,0,0.996264,57.381408,0)"
           xlink:href="#CMR17-111"
           id="use500"
           x="0"
           y="0"
           width="100%"
           height="100%" />
        <use
           transform="matrix(0.996264,0,0,0.996264,100.46943,0)"
           xlink:href="#CMR17-119"
           id="use502"
           x="0"
           y="0"
           width="100%"
           height="100%" />
        <use
           transform="matrix(0.996264,0,0,0.996264,197.05528,0)"
           xlink:href="#CMR17-101"
           id="use504"
           x="0"
           y="0"
           width="100%"
           height="100%" />
        <use
           transform="matrix(0.996264,0,0,0.996264,237.54094,0)"
           xlink:href="#CMR17-110"
           id="use506"
           x="0"
           y="0"
           width="100%"
           height="100%" />
        <use
           transform="matrix(0.996264,0,0,0.996264,288.43631,0)"
           xlink:href="#CMR17-101"
           id="use508"
           x="0"
           y="0"
           width="100%"
           height="100%" />
        <use
           transform="matrix(0.996264,0,0,0.996264,328.92197,0)"
           xlink:href="#CMR17-114"
           id="use510"
           x="0"
           y="0"
           width="100%"
           height="100%" />
        <use
           transform="matrix(0.996264,0,0,0.996264,364.20274,0)"
           xlink:href="#CMR17-103"
           id="use512"
           x="0"
           y="0"
           width="100%"
           height="100%" />
        <use
           transform="matrix(0.996264,0,0,0.996264,409.89321,0)"
           xlink:href="#CMR17-121"
           id="use514"
           x="0"
           y="0"
           width="100%"
           height="100%" />
      </g>
    </g>
    <g
       id="line2d_39" />
    <g
       id="line2d_40">
      <g
         id="g522">
        <use
           style="fill:#bb9832;stroke:#bb9832;stroke-linejoin:bevel"
           x="190.33778"
           xlink:href="#m05c87582c8"
           y="52.94125"
           id="use520"
           width="100%"
           height="100%" />
      </g>
    </g>
    <g
       id="text_17">
      <!-- Modified -->
      <g
         transform="matrix(0.08,0,0,-0.08,204.73779,55.74125)"
         id="g544">
        <defs
           id="defs528">
          <path
             d="m 20.90625,66.390625 c -0.609375,1.5 -0.703125,1.609375 -2.8125,1.609375 h -12.796875 v -2.609375 c 6.90625,0 8,0 8,-4.484375 v -51.15625 c 0,-2.484375 0,-7.15625 -8,-7.15625 v -2.59375 c 2.296875,0.1875 6.5,0.1875 9,0.1875 2.5,0 6.703125,0 9,-0.1875 v 2.59375 c -8,0 -8,4.671875 -8,7.15625 v 55.234375 h 0.109375 l 23.5,-63.390625 c 0.390625,-1 0.59375,-1.59375 1.390625,-1.59375 0.796875,0 1,0.59375 1.40625,1.59375 l 23.703125,63.890625 h 0.09375 v -58.40625 c 0,-4.484375 -1.09375,-4.484375 -8,-4.484375 v -2.59375 c 2.703125,0.1875 8.09375,0.1875 11,0.1875 2.90625,0 8.40625,0 11.09375,-0.1875 v 2.59375 c -6.890625,0 -8,0 -8,4.484375 v 53.828125 c 0,4.484375 1.109375,4.484375 8,4.484375 v 2.609375 h -12.6875 c -2.109375,0 -2.203125,-0.109375 -2.8125,-1.609375 l -21.59375,-58.328125 z"
             id="CMR17-77" />
          <path
             d="m 29.203125,67.890625 v -2.59375 c 5.890625,0 6.796875,-0.59375 6.796875,-5.25 v -23 c -0.40625,0.5 -4.5,6.953125 -12.59375,6.953125 -10.203125,0 -20.109375,-9.1875 -20.109375,-22.5 0,-13.234375 9.296875,-22.5 19.109375,-22.5 8.5,0 12.890625,6.640625 13.390625,7.34375 v -7.34375 l 12.109375,0.796875 v 2.609375 c -5.90625,0 -6.8125,0.609375 -6.8125,5.453125 v 61.140625 z m 6.59375,-55.984375 c 0,-3.03125 -1.796875,-5.765625 -4.09375,-7.78125 -3.40625,-3.03125 -6.796875,-3.53125 -8.703125,-3.53125 -2.90625,0 -13.296875,1.515625 -13.296875,20.796875 0,19.796875 11.59375,21 14.203125,21 4.59375,0 8.296875,-2.625 10.59375,-6.25 1.296875,-2.125 1.296875,-2.4375 1.296875,-4.25 z"
             id="CMR17-100" />
          <path
             d="m 39.90625,44 c -2.40625,-0.109375 -9.8125,-0.609375 -11.703125,-0.8125 -0.609375,-0.09375 -0.796875,-0.09375 -2,-0.09375 h -11.40625 v 11.859375 c 0,9.53125 7.609375,14.046875 13.609375,14.046875 1.890625,0 6.1875,-0.515625 8.390625,-4 -1,0 -4.203125,0 -4.203125,-3.515625 0,-2.390625 1.609375,-3.59375 3.609375,-3.59375 1.796875,0 3.59375,1 3.59375,3.703125 0,5.046875 -4.796875,9 -11,9 -7.890625,0 -18.890625,-4.578125 -18.890625,-15.640625 v -11.859375 h -8 v -2.609375 h 8 v -33.578125 c 0,-3.8125 -0.40625,-4.3125 -6.8125,-4.3125 v -2.59375 c 2.40625,0.1875 6.8125,0.1875 9.3125,0.1875 2.59375,0 7,0 9.390625,-0.1875 v 2.59375 c -6.390625,0 -6.796875,0.40625 -6.796875,4.3125 v 33.578125 h 14.703125 c 4.296875,0 5.09375,-0.890625 5.09375,-5.3125 v -28.265625 c 0,-3.8125 -0.390625,-4.3125 -6.796875,-4.3125 v -2.59375 c 2.40625,0.1875 6.796875,0.1875 9.296875,0.1875 2.609375,0 7,0 9.40625,-0.1875 v 2.59375 c -6.40625,0 -6.796875,0.40625 -6.796875,4.3125 z"
             id="CMR17-12" />
        </defs>
        <use
           transform="scale(0.996264)"
           xlink:href="#CMR17-77"
           id="use530"
           x="0"
           y="0"
           width="100%"
           height="100%" />
        <use
           transform="matrix(0.996264,0,0,0.996264,84.686941,0)"
           xlink:href="#CMR17-111"
           id="use532"
           x="0"
           y="0"
           width="100%"
           height="100%" />
        <use
           transform="matrix(0.996264,0,0,0.996264,132.97986,0)"
           xlink:href="#CMR17-100"
           id="use534"
           x="0"
           y="0"
           width="100%"
           height="100%" />
        <use
           transform="matrix(0.996264,0,0,0.996264,183.87523,0)"
           xlink:href="#CMR17-105"
           id="use536"
           x="0"
           y="0"
           width="100%"
           height="100%" />
        <use
           transform="matrix(0.996264,0,0,0.996264,208.74628,0)"
           xlink:href="#CMR17-12"
           id="use538"
           x="0"
           y="0"
           width="100%"
           height="100%" />
        <use
           transform="matrix(0.996264,0,0,0.996264,258.48851,0)"
           xlink:href="#CMR17-101"
           id="use540"
           x="0"
           y="0"
           width="100%"
           height="100%" />
        <use
           transform="matrix(0.996264,0,0,0.996264,298.97417,0)"
           xlink:href="#CMR17-100"
           id="use542"
           x="0"
           y="0"
           width="100%"
           height="100%" />
      </g>
    </g>
    <g
       id="line2d_41" />
    <g
       id="line2d_42">
      <g
         id="g550">
        <use
           style="fill:#50b131;stroke:#50b131;stroke-linejoin:bevel"
           x="190.33778"
           xlink:href="#m5527a2432b"
           y="64.683746"
           id="use548"
           width="100%"
           height="100%" />
      </g>
    </g>
    <g
       id="text_18">
      <!-- Standard -->
      <g
         transform="matrix(0.08,0,0,-0.08,204.73779,67.48375)"
         id="g572">
        <defs
           id="defs554">
          <path
             d="m 43.796875,67.984375 c 0,1.8125 -0.09375,1.90625 -0.703125,1.90625 -0.59375,0 -0.796875,-0.40625 -1.1875,-1.296875 l -3,-6.640625 c -3.8125,5.546875 -9.609375,8.046875 -15.90625,8.046875 -10.203125,0 -18.40625,-8.15625 -18.40625,-18.421875 0,-3.125 0.703125,-7.5625 4.109375,-11.796875 3.703125,-4.625 7.203125,-5.4375 15.203125,-7.546875 3,-0.8125 8,-2.125 9,-2.53125 5.6875,-2.40625 8.6875,-8.453125 8.6875,-14.09375 0,-7.265625 -5.09375,-15.015625 -13.796875,-15.015625 -10.703125,0 -20.703125,6.046875 -21.390625,20.15625 -0.109375,1.609375 -0.203125,1.703125 -0.90625,1.703125 -0.796875,0 -0.90625,-0.09375 -0.90625,-2.109375 v -20.34375 c 0,-1.8125 0.109375,-1.90625 0.703125,-1.90625 0.703125,0 0.90625,0.5 2.296875,3.609375 0.109375,0.296875 0.109375,0.5 2,4.328125 5,-6.640625 13.40625,-8.03125 18.203125,-8.03125 10.90625,0 18.609375,9.140625 18.609375,19.828125 0,5.234375 -1.90625,9.265625 -3,11.078125 -4.203125,6.453125 -8.703125,7.65625 -13.5,8.859375 -0.703125,0.3125 -0.90625,0.3125 -6.5,1.71875 -5.40625,1.40625 -7.703125,2.109375 -10.203125,4.828125 -2.796875,3.125 -3.796875,6.359375 -3.796875,9.578125 0,6.546875 5.1875,13.703125 13.6875,13.703125 10.609375,0 17.203125,-7.5625 18.703125,-20.15625 0.296875,-1.8125 0.40625,-1.90625 1.109375,-1.90625 0.890625,0 0.890625,0.296875 0.890625,2.015625 z"
             id="CMR17-83" />
        </defs>
        <use
           transform="scale(0.996264)"
           xlink:href="#CMR17-83"
           id="use556"
           x="0"
           y="0"
           width="100%"
           height="100%" />
        <use
           transform="matrix(0.996264,0,0,0.996264,50.89537,0)"
           xlink:href="#CMR17-116"
           id="use558"
           x="0"
           y="0"
           width="100%"
           height="100%" />
        <use
           transform="matrix(0.996264,0,0,0.996264,86.176138,0)"
           xlink:href="#CMR17-97"
           id="use560"
           x="0"
           y="0"
           width="100%"
           height="100%" />
        <use
           transform="matrix(0.996264,0,0,0.996264,131.86661,0)"
           xlink:href="#CMR17-110"
           id="use562"
           x="0"
           y="0"
           width="100%"
           height="100%" />
        <use
           transform="matrix(0.996264,0,0,0.996264,182.76198,0)"
           xlink:href="#CMR17-100"
           id="use564"
           x="0"
           y="0"
           width="100%"
           height="100%" />
        <use
           transform="matrix(0.996264,0,0,0.996264,233.65735,0)"
           xlink:href="#CMR17-97"
           id="use566"
           x="0"
           y="0"
           width="100%"
           height="100%" />
        <use
           transform="matrix(0.996264,0,0,0.996264,279.34783,0)"
           xlink:href="#CMR17-114"
           id="use568"
           x="0"
           y="0"
           width="100%"
           height="100%" />
        <use
           transform="matrix(0.996264,0,0,0.996264,314.6286,0)"
           xlink:href="#CMR17-100"
           id="use570"
           x="0"
           y="0"
           width="100%"
           height="100%" />
      </g>
    </g>
  </g>
  <defs
     id="defs581">
    <clipPath
       id="p7797480e68">
      <rect
         height="163.08"
         width="223.2"
         x="36"
         y="25.92"
         id="rect578" />
    </clipPath>
  </defs>
  <circle
     style="fill:#ff0000;stroke:none;stroke-width:0.999997;stroke-linecap:round;stroke-linejoin:round;stroke-miterlimit:4;stroke-dasharray:none;stroke-dashoffset:0"
     id="path7647"
     cx="106.60345"
     cy="65.371918"
     r="2.3275862" />
  <circle
     style="fill:#ff0000;stroke:none;stroke-width:0.999997;stroke-linecap:round;stroke-linejoin:round;stroke-miterlimit:4;stroke-dasharray:none;stroke-dashoffset:0"
     id="circle7769"
     cx="144.37685"
     cy="91.174873"
     r="2.3275862" />
  <circle
     style="fill:#ff0000;stroke:none;stroke-width:0.999997;stroke-linecap:round;stroke-linejoin:round;stroke-miterlimit:4;stroke-dasharray:none;stroke-dashoffset:0"
     id="circle7771"
     cx="161.66748"
     cy="94.366989"
     r="2.3275862" />
  <path
     style="fill:none;stroke:#ff0000;stroke-width:1.85;stroke-linecap:butt;stroke-linejoin:miter;stroke-miterlimit:4;stroke-dasharray:none;stroke-opacity:1"
     d="m 88.514781,53.334974 c 50.807879,37.773403 102.613299,58.123166 110.061569,59.719216"
     id="path7806"
     sodipodi:nodetypes="cc" />
</svg>
