<?xml version="1.0" encoding="UTF-8" standalone="no"?>
<!-- Created with Inkscape (http://www.inkscape.org/) -->

<svg
   width="118.32188mm"
   height="74.417976mm"
   viewBox="0 0 118.32188 74.417976"
   version="1.1"
   id="svg5"
   inkscape:version="1.1.1 (3bf5ae0d25, 2021-09-20)"
   sodipodi:docname="icelenses.svg.2023_02_12_11_59_51.0.svg"
   xmlns:inkscape="http://www.inkscape.org/namespaces/inkscape"
   xmlns:sodipodi="http://sodipodi.sourceforge.net/DTD/sodipodi-0.dtd"
   xmlns="http://www.w3.org/2000/svg"
   xmlns:svg="http://www.w3.org/2000/svg"
   xmlns:ns16="http://www.iki.fi/pav/software/textext/">
  <sodipodi:namedview
     id="namedview7"
     pagecolor="#505050"
     bordercolor="#ffffff"
     borderopacity="1"
     inkscape:pageshadow="0"
     inkscape:pageopacity="0"
     inkscape:pagecheckerboard="1"
     inkscape:document-units="mm"
     showgrid="false"
     inkscape:zoom="4.8176907"
     inkscape:cx="163.1487"
     inkscape:cy="157.33679"
     inkscape:window-width="2400"
     inkscape:window-height="1280"
     inkscape:window-x="2391"
     inkscape:window-y="-9"
     inkscape:window-maximized="1"
     inkscape:current-layer="layer3"
     inkscape:snap-intersection-paths="true"
     inkscape:object-paths="true"
     inkscape:snap-smooth-nodes="true"
     inkscape:snap-midpoints="true"
     inkscape:snap-global="false" />
  <defs
     id="defs2">
    <inkscape:path-effect
       effect="roughen"
       id="path-effect11257"
       is_visible="true"
       lpeversion="1.1"
       method="segments"
       max_segment_size="0.0109838"
       segments="6"
       displace_x="0;1"
       displace_y="0.5;1"
       global_randomize="1;1"
       handles="along"
       shift_nodes="true"
       fixed_displacement="false"
       spray_tool_friendly="false" />
    <inkscape:path-effect
       effect="roughen"
       id="path-effect11255"
       is_visible="true"
       lpeversion="1.1"
       method="segments"
       max_segment_size="0.00768868"
       segments="5"
       displace_x="0;1"
       displace_y="1.2;1"
       global_randomize="1;1"
       handles="along"
       shift_nodes="true"
       fixed_displacement="false"
       spray_tool_friendly="false" />
    <inkscape:path-effect
       effect="roughen"
       id="path-effect7740"
       is_visible="true"
       lpeversion="1.1"
       method="segments"
       max_segment_size="0.00329512"
       segments="4"
       displace_x="0;1"
       displace_y="0.5;1"
       global_randomize="1;1"
       handles="along"
       shift_nodes="true"
       fixed_displacement="false"
       spray_tool_friendly="false" />
    <inkscape:path-effect
       effect="roughen"
       id="path-effect7738"
       is_visible="true"
       lpeversion="1.1"
       method="size"
       max_segment_size="2"
       segments="2"
       displace_x="0;1"
       displace_y="0.1;1"
       global_randomize="3;1"
       handles="along"
       shift_nodes="true"
       fixed_displacement="false"
       spray_tool_friendly="false" />
    <inkscape:path-effect
       effect="roughen"
       id="path-effect7561"
       is_visible="true"
       lpeversion="1.1"
       method="segments"
       max_segment_size="2"
       segments="10"
       displace_x="0.8;1"
       displace_y="0.67;1"
       global_randomize="1;1"
       handles="along"
       shift_nodes="true"
       fixed_displacement="false"
       spray_tool_friendly="false" />
    <marker
       style="overflow:visible"
       id="Arrow1Mstart"
       refX="0"
       refY="0"
       orient="auto"
       inkscape:stockid="Arrow1Mstart"
       inkscape:isstock="true">
      <path
         transform="matrix(0.4,0,0,0.4,4,0)"
         style="fill:context-stroke;fill-rule:evenodd;stroke:context-stroke;stroke-width:1pt"
         d="M 0,0 5,-5 -12.5,0 5,5 Z"
         id="path1839" />
    </marker>
    <marker
       style="overflow:visible"
       id="Arrow1Mend"
       refX="0"
       refY="0"
       orient="auto"
       inkscape:stockid="Arrow1Mend"
       inkscape:isstock="true">
      <path
         transform="matrix(-0.4,0,0,-0.4,-4,0)"
         style="fill:context-stroke;fill-rule:evenodd;stroke:context-stroke;stroke-width:1pt"
         d="M 0,0 5,-5 -12.5,0 5,5 Z"
         id="path1842" />
    </marker>
    <inkscape:path-effect
       effect="fill_between_many"
       method="originald"
       linkedpaths="#path7614,0,1|#path7616,0,1"
       id="path-effect7778"
       join="true"
       close="true"
       autoreverse="true"
       is_visible="true"
       lpeversion="0"
       applied="false" />
    <inkscape:path-effect
       effect="fill_between_many"
       method="originald"
       linkedpaths="#path7620,0,1|#path7618,0,1"
       id="path-effect11277"
       join="true"
       close="true"
       autoreverse="true"
       is_visible="true"
       lpeversion="0"
       applied="false" />
  </defs>
  <g
     inkscape:label="Background"
     inkscape:groupmode="layer"
     id="layer1"
     transform="translate(-51.675414,-64.740423)">
    <path
       id="rect865"
       style="fill:#ff7f2a;stroke-width:0.564999;stroke-linecap:round;paint-order:fill markers stroke"
       d="M 76.926677,74.909676 H 103.61737 V 134.99119 H 76.926677 Z" />
    <path
       style="fill:none;stroke:#0000ff;stroke-width:0.665;stroke-linecap:butt;stroke-linejoin:miter;stroke-miterlimit:4;stroke-dasharray:none;stroke-opacity:1"
       d="M 76.926677,122.90899 H 103.61737"
       id="path1033" />
    <rect
       style="fill:#aaeeff;stroke:none;stroke-width:0.665001;stroke-linecap:round;stroke-miterlimit:4;stroke-dasharray:none;paint-order:fill markers stroke"
       id="rect1177"
       width="26.690689"
       height="12.0822"
       x="76.926674"
       y="122.90899" />
    <path
       sodipodi:type="star"
       style="fill:#0000ff;stroke:none;stroke-width:2.51339;stroke-linecap:round;stroke-miterlimit:4;stroke-dasharray:none;paint-order:fill markers stroke"
       id="path1355"
       inkscape:flatsided="true"
       sodipodi:sides="3"
       sodipodi:cx="374.03812"
       sodipodi:cy="299.31354"
       sodipodi:r1="8.3131046"
       sodipodi:r2="4.1565523"
       sodipodi:arg1="1.5707963"
       sodipodi:arg2="2.6179939"
       inkscape:rounded="0"
       inkscape:randomized="0"
       d="m 374.03812,307.62664 -7.19936,-12.46965 14.39872,0 z"
       transform="matrix(0.26458333,0,0,0.26458333,-17.973562,41.516108)"
       inkscape:transform-center-x="1.2467937e-06"
       inkscape:transform-center-y="0.54987625" />
    <g
       id="g1605"
       transform="translate(-44.306186)">
      <path
         style="fill:none;stroke:#0000ff;stroke-width:0.264583px;stroke-linecap:butt;stroke-linejoin:miter;stroke-opacity:1"
         d="m 123.76295,123.99595 h 3.06785"
         id="path1501" />
      <path
         style="fill:none;stroke:#0000ff;stroke-width:0.264583px;stroke-linecap:butt;stroke-linejoin:miter;stroke-opacity:1"
         d="m 124.65612,124.85029 h 1.28151"
         id="path1503" />
    </g>
    <text
       xml:space="preserve"
       style="font-size:3.52777px;line-height:1;font-family:'Times New Roman';-inkscape-font-specification:'Times New Roman, ';text-align:center;text-anchor:middle;stroke-width:0.264583"
       x="114.48169"
       y="74.909668"
       id="text3338"><tspan
         sodipodi:role="line"
         id="tspan3336"
         style="stroke-width:0.264583"
         x="114.48169"
         y="74.909668" /></text>
  </g>
  <g
     inkscape:groupmode="layer"
     id="layer2"
     inkscape:label="capillary_rise"
     style="display:inline"
     transform="translate(-51.675414,-64.740423)">
    <g
       id="path4730">
      <path
         style="color:#000000;fill:#00ffff;-inkscape-stroke:none"
         d="m 90.158203,74.841797 c -2.272359,3.829476 -2.32362,7.88977 -0.002,12.130859 l 0.0098,0.01953 0.01758,0.01563 c 1.885816,1.721379 2.442233,3.589341 2.255859,5.582032 -0.186074,1.989487 -1.128517,4.102921 -2.277344,6.248047 -1.410899,2.164159 -1.722411,4.231889 -1.523437,6.234379 0.198974,2.00248 0.901249,3.94141 1.507812,5.87695 l 0.002,0.008 0.0039,0.01 c 1.812809,3.79365 2.289778,7.68555 0.0039,11.8789 l 0.232422,0.12696 c 2.322841,-4.26118 1.838403,-8.26753 0.0098,-12.10352 -0.608853,-1.94285 -1.301528,-3.86416 -1.496093,-5.82226 -0.194565,-1.95811 0.101792,-3.94972 1.480468,-6.064458 l 0.0039,-0.0059 0.002,-0.0039 c 1.156867,-2.159011 2.121993,-4.299663 2.314453,-6.357422 0.19246,-2.057759 -0.404078,-4.033978 -2.341797,-5.802734 l 0.02734,0.0332 c -2.286998,-4.177758 -2.233646,-8.108198 -0.002,-11.869141 z"
         id="path45597" />
      <g
         id="g45563">
        <g
           id="path45589">
          <path
             style="color:#000000;fill:#00ffff;fill-rule:evenodd;stroke-width:0.105833pt;-inkscape-stroke:none"
             d="m 89.731947,75.819831 0.185041,0.725116 0.490053,-1.862812 -1.40021,1.322737 z"
             id="path45593" />
          <path
             style="color:#000000;fill:#00ffff;fill-rule:evenodd;-inkscape-stroke:none"
             d="m 90.539062,74.460937 -1.779296,1.679688 0.921875,-0.234375 0.234375,0.919922 z m -0.263671,0.44336 -0.357422,1.359375 -0.134766,-0.529297 -0.06836,0.01758 -0.460938,0.117188 z"
             id="path45595" />
        </g>
        <g
           id="path45581">
          <path
             style="color:#000000;fill:#00ffff;fill-rule:evenodd;stroke-width:0.105833pt;-inkscape-stroke:none"
             d="m 90.92583,87.741729 0.743017,0.08921 -1.560278,-1.129492 0.728052,1.783301 z"
             id="path45585" />
          <path
             style="color:#000000;fill:#00ffff;fill-rule:evenodd;-inkscape-stroke:none"
             d="m 89.949219,86.5 0.925781,2.263672 0.113281,-0.94336 0.94336,0.113282 z m 0.318359,0.404297 1.138672,0.824219 -0.542969,-0.06445 -0.0078,0.06836 -0.05664,0.472656 z"
             id="path45587" />
        </g>
        <g
           id="path45573">
          <path
             style="color:#000000;fill:#00ffff;fill-rule:evenodd;stroke-width:0.105833pt;-inkscape-stroke:none"
             d="m 89.732603,99.81988 0.185566,0.72498 0.488704,-1.863165 -1.399252,1.323755 z"
             id="path45577" />
          <path
             style="color:#000000;fill:#00ffff;fill-rule:evenodd;-inkscape-stroke:none"
             d="m 90.537109,98.460937 -1.77539,1.679693 0.919922,-0.23438 0.236328,0.91992 z m -0.261718,0.441407 -0.357422,1.361326 -0.134766,-0.529295 -0.06836,0.01758 -0.460938,0.117188 z"
             id="path45579" />
        </g>
        <g
           id="path45565">
          <path
             style="color:#000000;fill:#00ffff;fill-rule:evenodd;stroke-width:0.105833pt;-inkscape-stroke:none"
             d="m 90.659391,111.89405 0.686131,0.29876 -1.170347,-1.52987 0.185457,1.91724 z"
             id="path45569" />
          <path
             style="color:#000000;fill:#00ffff;fill-rule:evenodd;-inkscape-stroke:none"
             d="m 90.082031,110.42383 0.234375,2.43359 0.378906,-0.87109 0.871094,0.3789 z m 0.1875,0.47851 0.853516,1.11719 -0.5,-0.21875 -0.0293,0.0644 -0.1875,0.43555 z"
             id="path45571" />
        </g>
      </g>
    </g>
    <text
       xml:space="preserve"
       style="font-size:5.29167px;line-height:1;font-family:'Times New Roman';-inkscape-font-specification:'Times New Roman, ';text-align:center;text-anchor:middle;white-space:pre;inline-size:20.2386;stroke-width:0.264583"
       x="80.152718"
       y="96.152199"
       id="text7493"
       transform="translate(-3.2620293,15.067469)"><tspan
         x="80.152718"
         y="96.152199"
         id="tspan46005">Capillary<tspan
   y="96.152199"
   id="tspan46007"> </tspan></tspan><tspan
         x="80.152718"
         y="101.44387"
         id="tspan46009">rise</tspan></text>
    <path
       style="fill:none;stroke:#000000;stroke-width:0.264583px;stroke-linecap:butt;stroke-linejoin:miter;stroke-opacity:1"
       d="m 87.471215,110.52681 2.388272,-0.466"
       id="path21280" />
  </g>
  <g
     inkscape:groupmode="layer"
     id="layer3"
     inkscape:label="Profile"
     style="display:inline"
     transform="translate(-51.675414,-64.740423)">
    <g
       id="path1652">
      <path
         style="color:#000000;fill:#000000;-inkscape-stroke:none"
         d="m 107.08984,74.677734 v 60.312496 h 0.46485 V 75.142578 h 39.83398 v -0.464844 z"
         id="path45816" />
      <g
         id="g45798">
        <g
           id="path45808">
          <path
             style="color:#000000;fill:#000000;fill-rule:evenodd;stroke-width:0.186pt;-inkscape-stroke:none"
             d="m 145.52881,74.909674 -0.93,0.93 3.255,-0.93 -3.255,-0.93 z"
             id="path45812" />
          <path
             style="color:#000000;fill:#000000;fill-rule:evenodd;-inkscape-stroke:none"
             d="m 144.17187,73.728516 1.18165,1.18164 -1.18165,1.179688 4.13282,-1.179688 z m 0.85352,0.501953 2.37695,0.679687 -2.37695,0.679688 0.67969,-0.679688 -0.0879,-0.08789 z"
             id="path45814" />
        </g>
        <g
           id="path45800">
          <path
             style="color:#000000;fill:#000000;fill-rule:evenodd;stroke-width:0.186pt;-inkscape-stroke:none"
             d="m 107.32156,133.13119 -0.93,-0.93 0.93,3.255 0.93,-3.255 z"
             id="path45804" />
          <path
             style="color:#000000;fill:#000000;fill-rule:evenodd;-inkscape-stroke:none"
             d="m 106.14063,131.77539 1.18164,4.13281 1.17968,-4.13281 -1.17968,1.17969 z m 0.50195,0.85156 0.67969,0.67969 0.0879,-0.0879 0.59179,-0.5918 -0.67968,2.37696 z"
             id="path45806" />
        </g>
      </g>
    </g>
    <g
       transform="matrix(0.44097199,0,0,0.44097199,108.96026,69.492772)"
       ns16:version="1.1.0"
       ns16:texconverter="pdflatex"
       ns16:pdfconverter="inkscape"
       ns16:text="Water content $w$ [\\%]"
       ns16:preamble="C:\\Users\\zamcr\\AppData\\Roaming\\inkscape\\extensions\\textext\\default_packages.tex"
       ns16:scale="1.25"
       ns16:alignment="middle center"
       ns16:inkscapeversion="1.1.1"
       ns16:jacobian_sqrt="0.440972"
       id="g3542">
      <defs
         id="id-ebb1342a-001f-4a30-8273-478fe7e8b42e">
        <g
           id="id-96b07a4c-ec7b-4a23-b5a1-c8616b2312a2">
          <symbol
             overflow="visible"
             id="id-06853faf-b33b-4456-a2ab-a4c99a04aeee">
            <path
               style="stroke:none"
               d=""
               id="id-0a9b1f0e-ac69-431d-8568-f6ed5d91d589" />
          </symbol>
          <symbol
             overflow="visible"
             id="id-fa3de765-33d7-4091-bef5-bb379a231d64">
            <path
               style="stroke:none"
               d="M 9.0625,-5.828125 C 9.234375,-6.40625 9.671875,-6.5 10.0625,-6.5 v -0.3125 c -0.296875,0.03125 -0.609375,0.03125 -0.90625,0.03125 -0.296875,0 -0.9375,-0.015625 -1.1875,-0.03125 V -6.5 c 0.671875,0.015625 0.859375,0.34375 0.859375,0.53125 0,0.0625 -0.03125,0.140625 -0.046875,0.203125 l -1.5,4.59375 -1.59375,-4.875 C 5.6875,-6.09375 5.65625,-6.15625 5.65625,-6.203125 5.65625,-6.5 6.234375,-6.5 6.5,-6.5 v -0.3125 c -0.359375,0.03125 -1.03125,0.03125 -1.421875,0.03125 -0.375,0 -0.796875,-0.015625 -1.203125,-0.03125 V -6.5 c 0.5625,0 0.765625,0 0.890625,0.359375 L 4.984375,-5.4375 3.59375,-1.171875 2,-6.078125 C 1.984375,-6.09375 1.96875,-6.171875 1.96875,-6.203125 1.96875,-6.5 2.546875,-6.5 2.8125,-6.5 v -0.3125 c -0.359375,0.03125 -1.03125,0.03125 -1.421875,0.03125 -0.375,0 -0.796875,-0.015625 -1.21875,-0.03125 V -6.5 c 0.75,0 0.796875,0.046875 0.921875,0.421875 L 3.078125,0.03125 c 0.03125,0.09375 0.0625,0.1875 0.1875,0.1875 0.140625,0 0.15625,-0.0625 0.203125,-0.203125 l 1.640625,-5.0625 1.65625,5.078125 c 0.03125,0.09375 0.0625,0.1875 0.1875,0.1875 0.140625,0 0.171875,-0.0625 0.203125,-0.203125 z m 0,0"
               id="id-98b4ace7-08cb-4c37-aa7b-4ac8b228cbab" />
          </symbol>
          <symbol
             overflow="visible"
             id="id-892f63af-0b2b-4feb-aab6-9b55f43e7cb6">
            <path
               style="stroke:none"
               d="m 3.3125,-0.75 c 0.046875,0.390625 0.3125,0.8125 0.78125,0.8125 0.21875,0 0.828125,-0.140625 0.828125,-0.953125 v -0.5625 h -0.25 v 0.5625 c 0,0.578125 -0.25,0.640625 -0.359375,0.640625 -0.328125,0 -0.375,-0.453125 -0.375,-0.5 v -1.984375 c 0,-0.421875 0,-0.8125 -0.359375,-1.1875 C 3.1875,-4.3125 2.6875,-4.46875 2.21875,-4.46875 c -0.828125,0 -1.515625,0.46875 -1.515625,1.125 0,0.296875 0.203125,0.46875 0.46875,0.46875 0.28125,0 0.453125,-0.203125 0.453125,-0.453125 0,-0.125 -0.046875,-0.453125 -0.515625,-0.453125 C 1.390625,-4.140625 1.875,-4.25 2.1875,-4.25 c 0.5,0 1.0625,0.390625 1.0625,1.28125 v 0.359375 c -0.515625,0.03125 -1.203125,0.0625 -1.828125,0.359375 -0.75,0.34375 -1,0.859375 -1,1.296875 0,0.8125 0.96875,1.0625 1.59375,1.0625 0.65625,0 1.109375,-0.40625 1.296875,-0.859375 z M 3.25,-2.390625 v 1 c 0,0.9375 -0.71875,1.28125 -1.171875,1.28125 -0.484375,0 -0.890625,-0.34375 -0.890625,-0.84375 0,-0.546875 0.421875,-1.375 2.0625,-1.4375 z m 0,0"
               id="id-c5cd8cf6-11e0-4c03-8601-6ac47f7a2a8d" />
          </symbol>
          <symbol
             overflow="visible"
             id="id-b8b33512-2f85-441f-b87e-9b4c7b40767f">
            <path
               style="stroke:none"
               d="m 1.71875,-3.984375 h 1.4375 v -0.3125 H 1.71875 V -6.125 h -0.25 c 0,0.8125 -0.296875,1.875 -1.28125,1.921875 v 0.21875 h 0.84375 v 2.75 c 0,1.21875 0.9375,1.34375 1.296875,1.34375 0.703125,0 0.984375,-0.703125 0.984375,-1.34375 v -0.5625 h -0.25 V -1.25 c 0,0.734375 -0.296875,1.109375 -0.671875,1.109375 -0.671875,0 -0.671875,-0.90625 -0.671875,-1.078125 z m 0,0"
               id="id-ce788b55-8930-4fa0-a4a9-f28c7af47473" />
          </symbol>
          <symbol
             overflow="visible"
             id="id-e98db7e6-af6f-4fa4-a9d8-00395dd2f83e">
            <path
               style="stroke:none"
               d="M 1.109375,-2.515625 C 1.171875,-4 2.015625,-4.25 2.359375,-4.25 c 1.015625,0 1.125,1.34375 1.125,1.734375 z m 0,0.21875 h 2.78125 c 0.21875,0 0.25,0 0.25,-0.21875 0,-0.984375 -0.546875,-1.953125 -1.78125,-1.953125 -1.15625,0 -2.078125,1.03125 -2.078125,2.28125 0,1.328125 1.046875,2.296875 2.1875,2.296875 C 3.6875,0.109375 4.140625,-1 4.140625,-1.1875 4.140625,-1.28125 4.0625,-1.3125 4,-1.3125 c -0.078125,0 -0.109375,0.0625 -0.125,0.140625 -0.34375,1.03125 -1.25,1.03125 -1.34375,1.03125 -0.5,0 -0.890625,-0.296875 -1.125,-0.671875 -0.296875,-0.46875 -0.296875,-1.125 -0.296875,-1.484375 z m 0,0"
               id="id-04cb4ac5-ab1c-434e-be45-fc425614155b" />
          </symbol>
          <symbol
             overflow="visible"
             id="id-4fe34c5e-4eed-45ea-bc65-b58b82ce5365">
            <path
               style="stroke:none"
               d="M 1.671875,-3.3125 V -4.40625 L 0.28125,-4.296875 v 0.3125 c 0.703125,0 0.78125,0.0625 0.78125,0.5625 V -0.75 c 0,0.4375 -0.109375,0.4375 -0.78125,0.4375 V 0 c 0.390625,-0.015625 0.859375,-0.03125 1.140625,-0.03125 0.390625,0 0.859375,0 1.265625,0.03125 V -0.3125 H 2.46875 c -0.734375,0 -0.75,-0.109375 -0.75,-0.46875 V -2.3125 c 0,-0.984375 0.421875,-1.875 1.171875,-1.875 0.0625,0 0.09375,0 0.109375,0.015625 -0.03125,0 -0.234375,0.125 -0.234375,0.390625 0,0.265625 0.21875,0.421875 0.4375,0.421875 0.171875,0 0.421875,-0.125 0.421875,-0.4375 0,-0.3125 -0.3125,-0.609375 -0.734375,-0.609375 -0.734375,0 -1.09375,0.671875 -1.21875,1.09375 z m 0,0"
               id="id-1ce7ea5f-535b-408e-a9a1-40619f46ad8b" />
          </symbol>
          <symbol
             overflow="visible"
             id="id-310b01bc-232a-4945-9e64-c27a6437eb8f">
            <path
               style="stroke:none"
               d="m 1.171875,-2.171875 c 0,-1.625 0.8125,-2.046875 1.34375,-2.046875 0.09375,0 0.71875,0.015625 1.0625,0.375 -0.40625,0.03125 -0.46875,0.328125 -0.46875,0.453125 0,0.265625 0.1875,0.453125 0.453125,0.453125 0.265625,0 0.46875,-0.15625 0.46875,-0.46875 0,-0.671875 -0.765625,-1.0625 -1.53125,-1.0625 -1.25,0 -2.15625,1.078125 -2.15625,2.3125 0,1.28125 0.984375,2.265625 2.140625,2.265625 1.328125,0 1.65625,-1.203125 1.65625,-1.296875 0,-0.09375 -0.109375,-0.09375 -0.140625,-0.09375 -0.078125,0 -0.109375,0.03125 -0.125,0.09375 -0.28125,0.921875 -0.9375,1.046875 -1.296875,1.046875 -0.53125,0 -1.40625,-0.421875 -1.40625,-2.03125 z m 0,0"
               id="id-1ba3586b-8824-4642-b953-0b7ec2c5d0f3" />
          </symbol>
          <symbol
             overflow="visible"
             id="id-8f35bc77-65ae-4fd9-a7c4-f4ceee7c24d3">
            <path
               style="stroke:none"
               d="M 4.6875,-2.140625 C 4.6875,-3.40625 3.703125,-4.46875 2.5,-4.46875 c -1.25,0 -2.21875,1.09375 -2.21875,2.328125 0,1.296875 1.03125,2.25 2.203125,2.25 1.203125,0 2.203125,-0.984375 2.203125,-2.25 z m -2.1875,2 c -0.4375,0 -0.875,-0.203125 -1.140625,-0.671875 -0.25,-0.4375 -0.25,-1.046875 -0.25,-1.40625 0,-0.390625 0,-0.921875 0.234375,-1.359375 C 1.609375,-4.03125 2.078125,-4.25 2.484375,-4.25 c 0.4375,0 0.859375,0.21875 1.125,0.65625 0.265625,0.421875 0.265625,1 0.265625,1.375 0,0.359375 0,0.90625 -0.21875,1.34375 C 3.421875,-0.421875 2.984375,-0.140625 2.5,-0.140625 Z m 0,0"
               id="id-9a39ba4a-8079-4e9f-9752-7796a8b7a129" />
          </symbol>
          <symbol
             overflow="visible"
             id="id-4495491e-96d7-4504-b064-c3e7565444e8">
            <path
               style="stroke:none"
               d="M 1.09375,-3.421875 V -0.75 c 0,0.4375 -0.109375,0.4375 -0.78125,0.4375 V 0 c 0.359375,-0.015625 0.859375,-0.03125 1.140625,-0.03125 0.25,0 0.765625,0.015625 1.109375,0.03125 v -0.3125 c -0.671875,0 -0.78125,0 -0.78125,-0.4375 V -2.59375 C 1.78125,-3.625 2.5,-4.1875 3.125,-4.1875 c 0.640625,0 0.75,0.53125 0.75,1.109375 V -0.75 c 0,0.4375 -0.109375,0.4375 -0.78125,0.4375 V 0 c 0.34375,-0.015625 0.859375,-0.03125 1.125,-0.03125 0.25,0 0.78125,0.015625 1.109375,0.03125 v -0.3125 c -0.515625,0 -0.765625,0 -0.765625,-0.296875 v -1.90625 c 0,-0.859375 0,-1.15625 -0.3125,-1.515625 -0.140625,-0.171875 -0.46875,-0.375 -1.046875,-0.375 C 2.46875,-4.40625 2,-3.984375 1.71875,-3.359375 V -4.40625 L 0.3125,-4.296875 v 0.3125 c 0.703125,0 0.78125,0.0625 0.78125,0.5625 z m 0,0"
               id="id-bfbebf34-3ae4-4647-b75a-bc8edcff51e7" />
          </symbol>
          <symbol
             overflow="visible"
             id="id-3b32805b-d2af-4452-acbc-6cd97e0e8af3">
            <path
               style="stroke:none"
               d="M 2.546875,2.5 V 2.09375 h -0.96875 v -9.171875 h 0.96875 v -0.40625 h -1.375 V 2.5 Z m 0,0"
               id="id-d8f3e6c2-b08e-4676-ad3a-8e347954ed92" />
          </symbol>
          <symbol
             overflow="visible"
             id="id-ce16f478-dc9d-4926-9121-b3d7e5e87424">
            <path
               style="stroke:none"
               d="m 6.828125,-7.09375 c 0.0625,-0.09375 0.078125,-0.125 0.078125,-0.1875 0,-0.109375 -0.09375,-0.203125 -0.203125,-0.203125 -0.09375,0 -0.140625,0.078125 -0.203125,0.140625 -0.5,0.6875 -1.171875,0.953125 -1.890625,0.953125 -0.703125,0 -1.3125,-0.25 -1.875,-0.765625 -0.1875,-0.171875 -0.390625,-0.328125 -0.703125,-0.328125 -0.765625,0 -1.46875,0.84375 -1.46875,2.015625 0,1.203125 0.71875,2.015625 1.46875,2.015625 0.71875,0 1.28125,-0.890625 1.28125,-2.015625 0,-0.140625 0,-0.609375 -0.203125,-1.125 0.65625,0.375 1.140625,0.421875 1.5,0.421875 0.765625,0 1.265625,-0.3125 1.328125,-0.34375 H 5.953125 L 1.46875,0.15625 c -0.078125,0.140625 -0.078125,0.1875 -0.078125,0.203125 0,0.109375 0.09375,0.203125 0.1875,0.203125 0.109375,0 0.125,-0.046875 0.203125,-0.15625 z M 2.03125,-3.671875 c -0.203125,0 -0.859375,-0.140625 -0.859375,-1.796875 0,-1.65625 0.65625,-1.78125 0.859375,-1.78125 0.53125,0 1.046875,0.734375 1.046875,1.78125 0,1.078125 -0.53125,1.796875 -1.046875,1.796875 z M 6.453125,0.34375 C 6.25,0.34375 5.59375,0.203125 5.59375,-1.453125 c 0,-1.65625 0.640625,-1.78125 0.859375,-1.78125 0.53125,0 1.03125,0.734375 1.03125,1.78125 0,1.078125 -0.515625,1.796875 -1.03125,1.796875 z m 1.28125,-1.796875 c 0,-1.140625 -0.59375,-2 -1.296875,-2 -0.75,0 -1.46875,0.828125 -1.46875,2 0,1.203125 0.71875,2.015625 1.46875,2.015625 0.734375,0 1.296875,-0.890625 1.296875,-2.015625 z m 0,0"
               id="id-067f6964-6f78-4538-84d7-062a7b4dc684" />
          </symbol>
          <symbol
             overflow="visible"
             id="id-d681d1d6-a623-4e04-9892-2e28ce41f983">
            <path
               style="stroke:none"
               d="M 1.578125,-7.484375 H 0.21875 v 0.40625 H 1.1875 V 2.09375 H 0.21875 V 2.5 h 1.359375 z m 0,0"
               id="id-10e878e9-fc09-464b-ac23-4839f172c170" />
          </symbol>
          <symbol
             overflow="visible"
             id="id-6116318d-1656-4410-8b60-b565de965c54">
            <path
               style="stroke:none"
               d=""
               id="id-40d1870d-4d70-4025-8413-83c8a25db680" />
          </symbol>
          <symbol
             overflow="visible"
             id="id-358abf85-906b-420c-b248-f94e0ca9e5d5">
            <path
               style="stroke:none"
               d="M 4.609375,-3.375 C 4.65625,-3.59375 4.75,-3.96875 4.75,-4.03125 c 0,-0.171875 -0.140625,-0.265625 -0.28125,-0.265625 -0.125,0 -0.296875,0.078125 -0.375,0.28125 -0.03125,0.0625 -0.5,1.96875 -0.5625,2.234375 C 3.453125,-1.484375 3.4375,-1.3125 3.4375,-1.125 c 0,0.109375 0,0.125 0.015625,0.171875 -0.234375,0.53125 -0.53125,0.84375 -0.921875,0.84375 -0.796875,0 -0.796875,-0.734375 -0.796875,-0.90625 0,-0.3125 0.046875,-0.703125 0.515625,-1.9375 0.109375,-0.296875 0.171875,-0.4375 0.171875,-0.640625 0,-0.4375 -0.328125,-0.8125 -0.8125,-0.8125 -0.953125,0 -1.3125,1.453125 -1.3125,1.53125 0,0.109375 0.09375,0.109375 0.109375,0.109375 0.109375,0 0.109375,-0.03125 0.15625,-0.1875 C 0.84375,-3.875 1.21875,-4.1875 1.578125,-4.1875 c 0.09375,0 0.25,0.015625 0.25,0.328125 0,0.25 -0.109375,0.53125 -0.1875,0.703125 -0.4375,1.171875 -0.546875,1.625 -0.546875,2.015625 0,0.90625 0.65625,1.25 1.40625,1.25 0.171875,0 0.640625,0 1.03125,-0.703125 0.265625,0.640625 0.953125,0.703125 1.25,0.703125 0.75,0 1.1875,-0.625 1.453125,-1.21875 0.328125,-0.78125 0.65625,-2.125 0.65625,-2.59375 0,-0.546875 -0.265625,-0.703125 -0.4375,-0.703125 -0.25,0 -0.5,0.265625 -0.5,0.484375 0,0.125 0.0625,0.1875 0.140625,0.265625 0.109375,0.109375 0.359375,0.359375 0.359375,0.84375 0,0.34375 -0.28125,1.3125 -0.546875,1.828125 -0.25,0.53125 -0.609375,0.875 -1.09375,0.875 -0.46875,0 -0.734375,-0.296875 -0.734375,-0.875 0,-0.265625 0.0625,-0.578125 0.109375,-0.71875 z m 0,0"
               id="id-e1aec84b-35b3-4444-a4b0-e6843c8b0a12" />
          </symbol>
        </g>
      </defs>
      <g
         id="id-3de91cb9-9f12-4c8f-94c4-b747fa23b394"
         transform="translate(-148.884,-127.281)">
        <g
           style="fill:#000000;fill-opacity:1"
           id="id-89408452-099d-4b9e-b284-7edb7aff2649">
          <g
             transform="translate(148.712,134.765)"
             id="g3487">
            <path
               style="stroke:none"
               d="M 9.0625,-5.828125 C 9.234375,-6.40625 9.671875,-6.5 10.0625,-6.5 v -0.3125 c -0.296875,0.03125 -0.609375,0.03125 -0.90625,0.03125 -0.296875,0 -0.9375,-0.015625 -1.1875,-0.03125 V -6.5 c 0.671875,0.015625 0.859375,0.34375 0.859375,0.53125 0,0.0625 -0.03125,0.140625 -0.046875,0.203125 l -1.5,4.59375 -1.59375,-4.875 C 5.6875,-6.09375 5.65625,-6.15625 5.65625,-6.203125 5.65625,-6.5 6.234375,-6.5 6.5,-6.5 v -0.3125 c -0.359375,0.03125 -1.03125,0.03125 -1.421875,0.03125 -0.375,0 -0.796875,-0.015625 -1.203125,-0.03125 V -6.5 c 0.5625,0 0.765625,0 0.890625,0.359375 L 4.984375,-5.4375 3.59375,-1.171875 2,-6.078125 C 1.984375,-6.09375 1.96875,-6.171875 1.96875,-6.203125 1.96875,-6.5 2.546875,-6.5 2.8125,-6.5 v -0.3125 c -0.359375,0.03125 -1.03125,0.03125 -1.421875,0.03125 -0.375,0 -0.796875,-0.015625 -1.21875,-0.03125 V -6.5 c 0.75,0 0.796875,0.046875 0.921875,0.421875 L 3.078125,0.03125 c 0.03125,0.09375 0.0625,0.1875 0.1875,0.1875 0.140625,0 0.15625,-0.0625 0.203125,-0.203125 l 1.640625,-5.0625 1.65625,5.078125 c 0.03125,0.09375 0.0625,0.1875 0.1875,0.1875 0.140625,0 0.171875,-0.0625 0.203125,-0.203125 z m 0,0"
               id="id-90f0e050-a9b2-41e8-bd81-4e1c30c17834" />
          </g>
        </g>
        <g
           style="fill:#000000;fill-opacity:1"
           id="id-afa51af7-0bb9-4777-80a9-c050fe58fceb">
          <g
             transform="translate(158.125,134.765)"
             id="g3491">
            <path
               style="stroke:none"
               d="m 3.3125,-0.75 c 0.046875,0.390625 0.3125,0.8125 0.78125,0.8125 0.21875,0 0.828125,-0.140625 0.828125,-0.953125 v -0.5625 h -0.25 v 0.5625 c 0,0.578125 -0.25,0.640625 -0.359375,0.640625 -0.328125,0 -0.375,-0.453125 -0.375,-0.5 v -1.984375 c 0,-0.421875 0,-0.8125 -0.359375,-1.1875 C 3.1875,-4.3125 2.6875,-4.46875 2.21875,-4.46875 c -0.828125,0 -1.515625,0.46875 -1.515625,1.125 0,0.296875 0.203125,0.46875 0.46875,0.46875 0.28125,0 0.453125,-0.203125 0.453125,-0.453125 0,-0.125 -0.046875,-0.453125 -0.515625,-0.453125 C 1.390625,-4.140625 1.875,-4.25 2.1875,-4.25 c 0.5,0 1.0625,0.390625 1.0625,1.28125 v 0.359375 c -0.515625,0.03125 -1.203125,0.0625 -1.828125,0.359375 -0.75,0.34375 -1,0.859375 -1,1.296875 0,0.8125 0.96875,1.0625 1.59375,1.0625 0.65625,0 1.109375,-0.40625 1.296875,-0.859375 z M 3.25,-2.390625 v 1 c 0,0.9375 -0.71875,1.28125 -1.171875,1.28125 -0.484375,0 -0.890625,-0.34375 -0.890625,-0.84375 0,-0.546875 0.421875,-1.375 2.0625,-1.4375 z m 0,0"
               id="id-5a6bec6a-ee4d-45b3-957d-c199b240f2bc" />
          </g>
          <g
             transform="translate(163.106,134.765)"
             id="g3494">
            <path
               style="stroke:none"
               d="m 1.71875,-3.984375 h 1.4375 v -0.3125 H 1.71875 V -6.125 h -0.25 c 0,0.8125 -0.296875,1.875 -1.28125,1.921875 v 0.21875 h 0.84375 v 2.75 c 0,1.21875 0.9375,1.34375 1.296875,1.34375 0.703125,0 0.984375,-0.703125 0.984375,-1.34375 v -0.5625 h -0.25 V -1.25 c 0,0.734375 -0.296875,1.109375 -0.671875,1.109375 -0.671875,0 -0.671875,-0.90625 -0.671875,-1.078125 z m 0,0"
               id="id-2c4d078a-5f02-45ed-8065-ed3bde83fd20" />
          </g>
          <g
             transform="translate(166.98,134.765)"
             id="g3497">
            <path
               style="stroke:none"
               d="M 1.109375,-2.515625 C 1.171875,-4 2.015625,-4.25 2.359375,-4.25 c 1.015625,0 1.125,1.34375 1.125,1.734375 z m 0,0.21875 h 2.78125 c 0.21875,0 0.25,0 0.25,-0.21875 0,-0.984375 -0.546875,-1.953125 -1.78125,-1.953125 -1.15625,0 -2.078125,1.03125 -2.078125,2.28125 0,1.328125 1.046875,2.296875 2.1875,2.296875 C 3.6875,0.109375 4.140625,-1 4.140625,-1.1875 4.140625,-1.28125 4.0625,-1.3125 4,-1.3125 c -0.078125,0 -0.109375,0.0625 -0.125,0.140625 -0.34375,1.03125 -1.25,1.03125 -1.34375,1.03125 -0.5,0 -0.890625,-0.296875 -1.125,-0.671875 -0.296875,-0.46875 -0.296875,-1.125 -0.296875,-1.484375 z m 0,0"
               id="id-967f5032-1f4b-4bc3-86f8-9f08e0278eb0" />
          </g>
          <g
             transform="translate(171.408,134.765)"
             id="g3500">
            <path
               style="stroke:none"
               d="M 1.671875,-3.3125 V -4.40625 L 0.28125,-4.296875 v 0.3125 c 0.703125,0 0.78125,0.0625 0.78125,0.5625 V -0.75 c 0,0.4375 -0.109375,0.4375 -0.78125,0.4375 V 0 c 0.390625,-0.015625 0.859375,-0.03125 1.140625,-0.03125 0.390625,0 0.859375,0 1.265625,0.03125 V -0.3125 H 2.46875 c -0.734375,0 -0.75,-0.109375 -0.75,-0.46875 V -2.3125 c 0,-0.984375 0.421875,-1.875 1.171875,-1.875 0.0625,0 0.09375,0 0.109375,0.015625 -0.03125,0 -0.234375,0.125 -0.234375,0.390625 0,0.265625 0.21875,0.421875 0.4375,0.421875 0.171875,0 0.421875,-0.125 0.421875,-0.4375 0,-0.3125 -0.3125,-0.609375 -0.734375,-0.609375 -0.734375,0 -1.09375,0.671875 -1.21875,1.09375 z m 0,0"
               id="id-be0d701f-04cd-4897-ad8f-b729716c0cb7" />
          </g>
        </g>
        <g
           style="fill:#000000;fill-opacity:1"
           id="id-ac773953-5044-4c78-a78f-014e6604cb38">
          <g
             transform="translate(178.628,134.765)"
             id="g3504">
            <path
               style="stroke:none"
               d="m 1.171875,-2.171875 c 0,-1.625 0.8125,-2.046875 1.34375,-2.046875 0.09375,0 0.71875,0.015625 1.0625,0.375 -0.40625,0.03125 -0.46875,0.328125 -0.46875,0.453125 0,0.265625 0.1875,0.453125 0.453125,0.453125 0.265625,0 0.46875,-0.15625 0.46875,-0.46875 0,-0.671875 -0.765625,-1.0625 -1.53125,-1.0625 -1.25,0 -2.15625,1.078125 -2.15625,2.3125 0,1.28125 0.984375,2.265625 2.140625,2.265625 1.328125,0 1.65625,-1.203125 1.65625,-1.296875 0,-0.09375 -0.109375,-0.09375 -0.140625,-0.09375 -0.078125,0 -0.109375,0.03125 -0.125,0.09375 -0.28125,0.921875 -0.9375,1.046875 -1.296875,1.046875 -0.53125,0 -1.40625,-0.421875 -1.40625,-2.03125 z m 0,0"
               id="id-dcae920c-d1c9-4c3f-aad4-d9beaa1c80fa" />
          </g>
          <g
             transform="translate(183.055,134.765)"
             id="g3507">
            <path
               style="stroke:none"
               d="M 4.6875,-2.140625 C 4.6875,-3.40625 3.703125,-4.46875 2.5,-4.46875 c -1.25,0 -2.21875,1.09375 -2.21875,2.328125 0,1.296875 1.03125,2.25 2.203125,2.25 1.203125,0 2.203125,-0.984375 2.203125,-2.25 z m -2.1875,2 c -0.4375,0 -0.875,-0.203125 -1.140625,-0.671875 -0.25,-0.4375 -0.25,-1.046875 -0.25,-1.40625 0,-0.390625 0,-0.921875 0.234375,-1.359375 C 1.609375,-4.03125 2.078125,-4.25 2.484375,-4.25 c 0.4375,0 0.859375,0.21875 1.125,0.65625 0.265625,0.421875 0.265625,1 0.265625,1.375 0,0.359375 0,0.90625 -0.21875,1.34375 C 3.421875,-0.421875 2.984375,-0.140625 2.5,-0.140625 Z m 0,0"
               id="id-370baa07-5c6e-44cf-9f17-e5fa062e52b6" />
          </g>
          <g
             transform="translate(188.036,134.765)"
             id="g3510">
            <path
               style="stroke:none"
               d="M 1.09375,-3.421875 V -0.75 c 0,0.4375 -0.109375,0.4375 -0.78125,0.4375 V 0 c 0.359375,-0.015625 0.859375,-0.03125 1.140625,-0.03125 0.25,0 0.765625,0.015625 1.109375,0.03125 v -0.3125 c -0.671875,0 -0.78125,0 -0.78125,-0.4375 V -2.59375 C 1.78125,-3.625 2.5,-4.1875 3.125,-4.1875 c 0.640625,0 0.75,0.53125 0.75,1.109375 V -0.75 c 0,0.4375 -0.109375,0.4375 -0.78125,0.4375 V 0 c 0.34375,-0.015625 0.859375,-0.03125 1.125,-0.03125 0.25,0 0.78125,0.015625 1.109375,0.03125 v -0.3125 c -0.515625,0 -0.765625,0 -0.765625,-0.296875 v -1.90625 c 0,-0.859375 0,-1.15625 -0.3125,-1.515625 -0.140625,-0.171875 -0.46875,-0.375 -1.046875,-0.375 C 2.46875,-4.40625 2,-3.984375 1.71875,-3.359375 V -4.40625 L 0.3125,-4.296875 v 0.3125 c 0.703125,0 0.78125,0.0625 0.78125,0.5625 z m 0,0"
               id="id-afb29064-238b-4a14-9847-890834f12790" />
          </g>
        </g>
        <g
           style="fill:#000000;fill-opacity:1"
           id="id-674b17d7-5c99-46b4-9c41-b54cf5c36247">
          <g
             transform="translate(193.293,134.765)"
             id="g3514">
            <path
               style="stroke:none"
               d="m 1.71875,-3.984375 h 1.4375 v -0.3125 H 1.71875 V -6.125 h -0.25 c 0,0.8125 -0.296875,1.875 -1.28125,1.921875 v 0.21875 h 0.84375 v 2.75 c 0,1.21875 0.9375,1.34375 1.296875,1.34375 0.703125,0 0.984375,-0.703125 0.984375,-1.34375 v -0.5625 h -0.25 V -1.25 c 0,0.734375 -0.296875,1.109375 -0.671875,1.109375 -0.671875,0 -0.671875,-0.90625 -0.671875,-1.078125 z m 0,0"
               id="id-1e9b0819-b30c-4808-8322-dcd345a7090a" />
          </g>
          <g
             transform="translate(197.167,134.765)"
             id="g3517">
            <path
               style="stroke:none"
               d="M 1.109375,-2.515625 C 1.171875,-4 2.015625,-4.25 2.359375,-4.25 c 1.015625,0 1.125,1.34375 1.125,1.734375 z m 0,0.21875 h 2.78125 c 0.21875,0 0.25,0 0.25,-0.21875 0,-0.984375 -0.546875,-1.953125 -1.78125,-1.953125 -1.15625,0 -2.078125,1.03125 -2.078125,2.28125 0,1.328125 1.046875,2.296875 2.1875,2.296875 C 3.6875,0.109375 4.140625,-1 4.140625,-1.1875 4.140625,-1.28125 4.0625,-1.3125 4,-1.3125 c -0.078125,0 -0.109375,0.0625 -0.125,0.140625 -0.34375,1.03125 -1.25,1.03125 -1.34375,1.03125 -0.5,0 -0.890625,-0.296875 -1.125,-0.671875 -0.296875,-0.46875 -0.296875,-1.125 -0.296875,-1.484375 z m 0,0"
               id="id-af5ea1cd-94f2-4475-9047-0e483b34950f" />
          </g>
          <g
             transform="translate(201.594,134.765)"
             id="g3520">
            <path
               style="stroke:none"
               d="M 1.09375,-3.421875 V -0.75 c 0,0.4375 -0.109375,0.4375 -0.78125,0.4375 V 0 c 0.359375,-0.015625 0.859375,-0.03125 1.140625,-0.03125 0.25,0 0.765625,0.015625 1.109375,0.03125 v -0.3125 c -0.671875,0 -0.78125,0 -0.78125,-0.4375 V -2.59375 C 1.78125,-3.625 2.5,-4.1875 3.125,-4.1875 c 0.640625,0 0.75,0.53125 0.75,1.109375 V -0.75 c 0,0.4375 -0.109375,0.4375 -0.78125,0.4375 V 0 c 0.34375,-0.015625 0.859375,-0.03125 1.125,-0.03125 0.25,0 0.78125,0.015625 1.109375,0.03125 v -0.3125 c -0.515625,0 -0.765625,0 -0.765625,-0.296875 v -1.90625 c 0,-0.859375 0,-1.15625 -0.3125,-1.515625 -0.140625,-0.171875 -0.46875,-0.375 -1.046875,-0.375 C 2.46875,-4.40625 2,-3.984375 1.71875,-3.359375 V -4.40625 L 0.3125,-4.296875 v 0.3125 c 0.703125,0 0.78125,0.0625 0.78125,0.5625 z m 0,0"
               id="id-ff8ba1f1-753e-4f45-b0a2-76e007589b7a" />
          </g>
        </g>
        <g
           style="fill:#000000;fill-opacity:1"
           id="id-282e99d1-f64b-42e6-a20f-b9d2bc5c5618">
          <g
             transform="translate(206.851,134.765)"
             id="g3524">
            <path
               style="stroke:none"
               d="m 1.71875,-3.984375 h 1.4375 v -0.3125 H 1.71875 V -6.125 h -0.25 c 0,0.8125 -0.296875,1.875 -1.28125,1.921875 v 0.21875 h 0.84375 v 2.75 c 0,1.21875 0.9375,1.34375 1.296875,1.34375 0.703125,0 0.984375,-0.703125 0.984375,-1.34375 v -0.5625 h -0.25 V -1.25 c 0,0.734375 -0.296875,1.109375 -0.671875,1.109375 -0.671875,0 -0.671875,-0.90625 -0.671875,-1.078125 z m 0,0"
               id="id-dc351c12-550f-4b35-96c4-7d26e27179c6" />
          </g>
        </g>
        <g
           style="fill:#000000;fill-opacity:1"
           id="id-18d0771a-eb1a-4a2f-bfec-0ce03b1e5a07">
          <g
             transform="translate(214.051,134.765)"
             id="g3528">
            <path
               style="stroke:none"
               d="M 4.609375,-3.375 C 4.65625,-3.59375 4.75,-3.96875 4.75,-4.03125 c 0,-0.171875 -0.140625,-0.265625 -0.28125,-0.265625 -0.125,0 -0.296875,0.078125 -0.375,0.28125 -0.03125,0.0625 -0.5,1.96875 -0.5625,2.234375 C 3.453125,-1.484375 3.4375,-1.3125 3.4375,-1.125 c 0,0.109375 0,0.125 0.015625,0.171875 -0.234375,0.53125 -0.53125,0.84375 -0.921875,0.84375 -0.796875,0 -0.796875,-0.734375 -0.796875,-0.90625 0,-0.3125 0.046875,-0.703125 0.515625,-1.9375 0.109375,-0.296875 0.171875,-0.4375 0.171875,-0.640625 0,-0.4375 -0.328125,-0.8125 -0.8125,-0.8125 -0.953125,0 -1.3125,1.453125 -1.3125,1.53125 0,0.109375 0.09375,0.109375 0.109375,0.109375 0.109375,0 0.109375,-0.03125 0.15625,-0.1875 C 0.84375,-3.875 1.21875,-4.1875 1.578125,-4.1875 c 0.09375,0 0.25,0.015625 0.25,0.328125 0,0.25 -0.109375,0.53125 -0.1875,0.703125 -0.4375,1.171875 -0.546875,1.625 -0.546875,2.015625 0,0.90625 0.65625,1.25 1.40625,1.25 0.171875,0 0.640625,0 1.03125,-0.703125 0.265625,0.640625 0.953125,0.703125 1.25,0.703125 0.75,0 1.1875,-0.625 1.453125,-1.21875 0.328125,-0.78125 0.65625,-2.125 0.65625,-2.59375 0,-0.546875 -0.265625,-0.703125 -0.4375,-0.703125 -0.25,0 -0.5,0.265625 -0.5,0.484375 0,0.125 0.0625,0.1875 0.140625,0.265625 0.109375,0.109375 0.359375,0.359375 0.359375,0.84375 0,0.34375 -0.28125,1.3125 -0.546875,1.828125 -0.25,0.53125 -0.609375,0.875 -1.09375,0.875 -0.46875,0 -0.734375,-0.296875 -0.734375,-0.875 0,-0.265625 0.0625,-0.578125 0.109375,-0.71875 z m 0,0"
               id="id-5ddc6a62-0e3d-44df-be95-d9facf58c497" />
          </g>
        </g>
        <g
           style="fill:#000000;fill-opacity:1"
           id="id-ebf47ae3-955d-4adf-a590-e1be61fb8542">
          <g
             transform="translate(224.772,134.765)"
             id="g3532">
            <path
               style="stroke:none"
               d="M 2.546875,2.5 V 2.09375 h -0.96875 v -9.171875 h 0.96875 v -0.40625 h -1.375 V 2.5 Z m 0,0"
               id="id-4956e132-2614-49d5-92e1-a6c7e1ee826a" />
          </g>
          <g
             transform="translate(227.54,134.765)"
             id="g3535">
            <path
               style="stroke:none"
               d="m 6.828125,-7.09375 c 0.0625,-0.09375 0.078125,-0.125 0.078125,-0.1875 0,-0.109375 -0.09375,-0.203125 -0.203125,-0.203125 -0.09375,0 -0.140625,0.078125 -0.203125,0.140625 -0.5,0.6875 -1.171875,0.953125 -1.890625,0.953125 -0.703125,0 -1.3125,-0.25 -1.875,-0.765625 -0.1875,-0.171875 -0.390625,-0.328125 -0.703125,-0.328125 -0.765625,0 -1.46875,0.84375 -1.46875,2.015625 0,1.203125 0.71875,2.015625 1.46875,2.015625 0.71875,0 1.28125,-0.890625 1.28125,-2.015625 0,-0.140625 0,-0.609375 -0.203125,-1.125 0.65625,0.375 1.140625,0.421875 1.5,0.421875 0.765625,0 1.265625,-0.3125 1.328125,-0.34375 H 5.953125 L 1.46875,0.15625 c -0.078125,0.140625 -0.078125,0.1875 -0.078125,0.203125 0,0.109375 0.09375,0.203125 0.1875,0.203125 0.109375,0 0.125,-0.046875 0.203125,-0.15625 z M 2.03125,-3.671875 c -0.203125,0 -0.859375,-0.140625 -0.859375,-1.796875 0,-1.65625 0.65625,-1.78125 0.859375,-1.78125 0.53125,0 1.046875,0.734375 1.046875,1.78125 0,1.078125 -0.53125,1.796875 -1.046875,1.796875 z M 6.453125,0.34375 C 6.25,0.34375 5.59375,0.203125 5.59375,-1.453125 c 0,-1.65625 0.640625,-1.78125 0.859375,-1.78125 0.53125,0 1.03125,0.734375 1.03125,1.78125 0,1.078125 -0.515625,1.796875 -1.03125,1.796875 z m 1.28125,-1.796875 c 0,-1.140625 -0.59375,-2 -1.296875,-2 -0.75,0 -1.46875,0.828125 -1.46875,2 0,1.203125 0.71875,2.015625 1.46875,2.015625 0.734375,0 1.296875,-0.890625 1.296875,-2.015625 z m 0,0"
               id="id-605e7abf-5dc6-4b96-82fd-6d14dad792d3" />
          </g>
          <g
             transform="translate(235.841,134.765)"
             id="g3538">
            <path
               style="stroke:none"
               d="M 1.578125,-7.484375 H 0.21875 v 0.40625 H 1.1875 V 2.09375 H 0.21875 V 2.5 h 1.359375 z m 0,0"
               id="id-cd50c3c9-ccb9-44e2-8463-cbf9d8d9a87d" />
          </g>
        </g>
      </g>
    </g>
    <g
       transform="matrix(0.44097199,0,0,0.44097199,106.7925,135.25161)"
       ns16:version="1.1.0"
       ns16:texconverter="pdflatex"
       ns16:pdfconverter="inkscape"
       ns16:text=" Depth $z$"
       ns16:preamble="C:\\Users\\zamcr\\AppData\\Roaming\\inkscape\\extensions\\textext\\default_packages.tex"
       ns16:scale="1.25"
       ns16:alignment="middle center"
       ns16:inkscapeversion="1.1.1"
       ns16:jacobian_sqrt="0.440972"
       id="g4111">
      <defs
         id="id-f985e902-9bb0-4844-9b1b-5d39aca27edc">
        <g
           id="id-f2858886-fa84-4036-aff0-2197c213e244">
          <symbol
             overflow="visible"
             id="id-8f0beac5-1784-4e53-a91c-9b528145c2f4">
            <path
               style="stroke:none"
               d=""
               id="id-1c36b708-f65a-4d8a-aa1c-6d4e12db4fd8" />
          </symbol>
          <symbol
             overflow="visible"
             id="id-6c1f5045-1b03-4f29-84e9-83f790a8253c">
            <path
               style="stroke:none"
               d="M 0.34375,-6.8125 V -6.5 h 0.25 c 0.765625,0 0.78125,0.109375 0.78125,0.46875 v 5.25 c 0,0.359375 -0.015625,0.46875 -0.78125,0.46875 h -0.25 V 0 H 4 C 5.671875,0 7.046875,-1.46875 7.046875,-3.34375 7.046875,-5.25 5.703125,-6.8125 4,-6.8125 Z m 2.375,6.5 C 2.25,-0.3125 2.234375,-0.375 2.234375,-0.703125 V -6.09375 C 2.234375,-6.4375 2.25,-6.5 2.71875,-6.5 h 1 c 0.625,0 1.3125,0.21875 1.8125,0.921875 0.4375,0.59375 0.515625,1.453125 0.515625,2.234375 0,1.09375 -0.1875,1.703125 -0.546875,2.1875 -0.203125,0.265625 -0.765625,0.84375 -1.765625,0.84375 z m 0,0"
               id="id-f54d19bd-8241-4f24-96c1-42f039000b27" />
          </symbol>
          <symbol
             overflow="visible"
             id="id-c010b683-a5fe-499c-a0fd-8c6d577aae01">
            <path
               style="stroke:none"
               d="M 1.109375,-2.515625 C 1.171875,-4 2.015625,-4.25 2.359375,-4.25 c 1.015625,0 1.125,1.34375 1.125,1.734375 z m 0,0.21875 h 2.78125 c 0.21875,0 0.25,0 0.25,-0.21875 0,-0.984375 -0.546875,-1.953125 -1.78125,-1.953125 -1.15625,0 -2.078125,1.03125 -2.078125,2.28125 0,1.328125 1.046875,2.296875 2.1875,2.296875 C 3.6875,0.109375 4.140625,-1 4.140625,-1.1875 4.140625,-1.28125 4.0625,-1.3125 4,-1.3125 c -0.078125,0 -0.109375,0.0625 -0.125,0.140625 -0.34375,1.03125 -1.25,1.03125 -1.34375,1.03125 -0.5,0 -0.890625,-0.296875 -1.125,-0.671875 -0.296875,-0.46875 -0.296875,-1.125 -0.296875,-1.484375 z m 0,0"
               id="id-fe8029a3-7c3f-40ae-96f7-2017b3e02d52" />
          </symbol>
          <symbol
             overflow="visible"
             id="id-ebb55379-79ec-43d0-a877-b8b5a122e5c5">
            <path
               style="stroke:none"
               d="m 1.71875,-3.75 v -0.65625 l -1.4375,0.109375 v 0.3125 c 0.703125,0 0.78125,0.0625 0.78125,0.5 v 4.65625 C 1.0625,1.625 0.953125,1.625 0.28125,1.625 V 1.9375 C 0.625,1.921875 1.140625,1.90625 1.390625,1.90625 c 0.28125,0 0.78125,0.015625 1.125,0.03125 V 1.625 C 1.859375,1.625 1.75,1.625 1.75,1.171875 V -0.59375 c 0.046875,0.171875 0.46875,0.703125 1.21875,0.703125 1.1875,0 2.21875,-0.984375 2.21875,-2.265625 0,-1.265625 -0.953125,-2.25 -2.078125,-2.25 -0.78125,0 -1.203125,0.4375 -1.390625,0.65625 z M 1.75,-1.140625 v -2.21875 C 2.03125,-3.875 2.515625,-4.15625 3.03125,-4.15625 c 0.734375,0 1.328125,0.875 1.328125,2 0,1.203125 -0.6875,2.046875 -1.421875,2.046875 -0.40625,0 -0.78125,-0.203125 -1.046875,-0.609375 C 1.75,-0.921875 1.75,-0.9375 1.75,-1.140625 Z m 0,0"
               id="id-483bf554-1db7-4168-9feb-bec4a03f58d5" />
          </symbol>
          <symbol
             overflow="visible"
             id="id-f4619d91-2fa9-4766-ad08-4f2735a4c6fb">
            <path
               style="stroke:none"
               d="m 1.71875,-3.984375 h 1.4375 v -0.3125 H 1.71875 V -6.125 h -0.25 c 0,0.8125 -0.296875,1.875 -1.28125,1.921875 v 0.21875 h 0.84375 v 2.75 c 0,1.21875 0.9375,1.34375 1.296875,1.34375 0.703125,0 0.984375,-0.703125 0.984375,-1.34375 v -0.5625 h -0.25 V -1.25 c 0,0.734375 -0.296875,1.109375 -0.671875,1.109375 -0.671875,0 -0.671875,-0.90625 -0.671875,-1.078125 z m 0,0"
               id="id-4120624d-5e9f-4911-84c3-511bdf8f3433" />
          </symbol>
          <symbol
             overflow="visible"
             id="id-96dbf39d-2e93-48b9-8b05-42ae9eb48705">
            <path
               style="stroke:none"
               d="m 1.09375,-0.75 c 0,0.4375 -0.109375,0.4375 -0.78125,0.4375 V 0 c 0.359375,-0.015625 0.859375,-0.03125 1.140625,-0.03125 0.25,0 0.765625,0.015625 1.109375,0.03125 v -0.3125 c -0.671875,0 -0.78125,0 -0.78125,-0.4375 V -2.59375 C 1.78125,-3.625 2.5,-4.1875 3.125,-4.1875 c 0.640625,0 0.75,0.53125 0.75,1.109375 V -0.75 c 0,0.4375 -0.109375,0.4375 -0.78125,0.4375 V 0 c 0.34375,-0.015625 0.859375,-0.03125 1.125,-0.03125 0.25,0 0.78125,0.015625 1.109375,0.03125 v -0.3125 c -0.515625,0 -0.765625,0 -0.765625,-0.296875 v -1.90625 c 0,-0.859375 0,-1.15625 -0.3125,-1.515625 -0.140625,-0.171875 -0.46875,-0.375 -1.046875,-0.375 -0.84375,0 -1.28125,0.59375 -1.453125,0.984375 v -3.5 L 0.3125,-6.8125 V -6.5 c 0.703125,0 0.78125,0.0625 0.78125,0.5625 z m 0,0"
               id="id-1776a5c9-bda7-44c0-804e-c1f38515a307" />
          </symbol>
          <symbol
             overflow="visible"
             id="id-0b04956b-816d-4c87-8386-6a88692edfb2">
            <path
               style="stroke:none"
               d=""
               id="id-b8cb3c01-20ba-4a4d-b45b-9bf2e9db1088" />
          </symbol>
          <symbol
             overflow="visible"
             id="id-326e1679-d28a-4181-8639-b171507a57ae">
            <path
               style="stroke:none"
               d="m 1.328125,-0.828125 c 0.53125,-0.578125 0.828125,-0.828125 1.1875,-1.140625 0,0 0.609375,-0.53125 0.96875,-0.890625 C 4.4375,-3.78125 4.65625,-4.265625 4.65625,-4.3125 c 0,-0.09375 -0.09375,-0.09375 -0.109375,-0.09375 -0.078125,0 -0.09375,0.015625 -0.15625,0.109375 -0.296875,0.484375 -0.5,0.640625 -0.734375,0.640625 -0.25,0 -0.359375,-0.15625 -0.515625,-0.328125 -0.1875,-0.21875 -0.359375,-0.421875 -0.6875,-0.421875 -0.75,0 -1.203125,0.921875 -1.203125,1.140625 0,0.046875 0.03125,0.109375 0.109375,0.109375 0.09375,0 0.109375,-0.046875 0.140625,-0.109375 0.1875,-0.46875 0.765625,-0.46875 0.84375,-0.46875 0.203125,0 0.390625,0.0625 0.625,0.140625 0.40625,0.15625 0.515625,0.15625 0.765625,0.15625 -0.359375,0.421875 -1.1875,1.140625 -1.375,1.296875 l -0.90625,0.84375 C 0.78125,-0.625 0.421875,-0.0625 0.421875,0.015625 c 0,0.09375 0.109375,0.09375 0.125,0.09375 0.078125,0 0.09375,-0.015625 0.15625,-0.125 0.234375,-0.359375 0.53125,-0.625 0.859375,-0.625 0.21875,0 0.328125,0.09375 0.578125,0.375 0.15625,0.21875 0.34375,0.375 0.625,0.375 1,0 1.578125,-1.265625 1.578125,-1.53125 0,-0.046875 -0.046875,-0.109375 -0.125,-0.109375 -0.09375,0 -0.109375,0.0625 -0.140625,0.140625 C 3.84375,-0.75 3.203125,-0.5625 2.875,-0.5625 c -0.1875,0 -0.375,-0.0625 -0.578125,-0.125 -0.34375,-0.125 -0.5,-0.171875 -0.703125,-0.171875 -0.015625,0 -0.171875,0 -0.265625,0.03125 z m 0,0"
               id="id-c186ba7c-d2d8-456c-8cae-63ce7c413019" />
          </symbol>
        </g>
      </defs>
      <g
         id="id-63ff6daf-3aaf-47e6-81ba-a048d99e4c94"
         transform="translate(-149.056,-127.843)">
        <g
           style="fill:#000000;fill-opacity:1"
           id="id-0fbc156c-c842-4709-bbf1-c0ccacfa690b">
          <g
             transform="translate(148.712,134.765)"
             id="g4091">
            <path
               style="stroke:none"
               d="M 0.34375,-6.8125 V -6.5 h 0.25 c 0.765625,0 0.78125,0.109375 0.78125,0.46875 v 5.25 c 0,0.359375 -0.015625,0.46875 -0.78125,0.46875 h -0.25 V 0 H 4 C 5.671875,0 7.046875,-1.46875 7.046875,-3.34375 7.046875,-5.25 5.703125,-6.8125 4,-6.8125 Z m 2.375,6.5 C 2.25,-0.3125 2.234375,-0.375 2.234375,-0.703125 V -6.09375 C 2.234375,-6.4375 2.25,-6.5 2.71875,-6.5 h 1 c 0.625,0 1.3125,0.21875 1.8125,0.921875 0.4375,0.59375 0.515625,1.453125 0.515625,2.234375 0,1.09375 -0.1875,1.703125 -0.546875,2.1875 -0.203125,0.265625 -0.765625,0.84375 -1.765625,0.84375 z m 0,0"
               id="id-3fc0623c-bbf6-45b8-802c-ef5d2bc09389" />
          </g>
          <g
             transform="translate(156.322,134.765)"
             id="g4094">
            <path
               style="stroke:none"
               d="M 1.109375,-2.515625 C 1.171875,-4 2.015625,-4.25 2.359375,-4.25 c 1.015625,0 1.125,1.34375 1.125,1.734375 z m 0,0.21875 h 2.78125 c 0.21875,0 0.25,0 0.25,-0.21875 0,-0.984375 -0.546875,-1.953125 -1.78125,-1.953125 -1.15625,0 -2.078125,1.03125 -2.078125,2.28125 0,1.328125 1.046875,2.296875 2.1875,2.296875 C 3.6875,0.109375 4.140625,-1 4.140625,-1.1875 4.140625,-1.28125 4.0625,-1.3125 4,-1.3125 c -0.078125,0 -0.109375,0.0625 -0.125,0.140625 -0.34375,1.03125 -1.25,1.03125 -1.34375,1.03125 -0.5,0 -0.890625,-0.296875 -1.125,-0.671875 -0.296875,-0.46875 -0.296875,-1.125 -0.296875,-1.484375 z m 0,0"
               id="id-5e2fc25e-0814-4a5a-ad32-52d6f7e29836" />
          </g>
          <g
             transform="translate(160.75,134.765)"
             id="g4097">
            <path
               style="stroke:none"
               d="m 1.71875,-3.75 v -0.65625 l -1.4375,0.109375 v 0.3125 c 0.703125,0 0.78125,0.0625 0.78125,0.5 v 4.65625 C 1.0625,1.625 0.953125,1.625 0.28125,1.625 V 1.9375 C 0.625,1.921875 1.140625,1.90625 1.390625,1.90625 c 0.28125,0 0.78125,0.015625 1.125,0.03125 V 1.625 C 1.859375,1.625 1.75,1.625 1.75,1.171875 V -0.59375 c 0.046875,0.171875 0.46875,0.703125 1.21875,0.703125 1.1875,0 2.21875,-0.984375 2.21875,-2.265625 0,-1.265625 -0.953125,-2.25 -2.078125,-2.25 -0.78125,0 -1.203125,0.4375 -1.390625,0.65625 z M 1.75,-1.140625 v -2.21875 C 2.03125,-3.875 2.515625,-4.15625 3.03125,-4.15625 c 0.734375,0 1.328125,0.875 1.328125,2 0,1.203125 -0.6875,2.046875 -1.421875,2.046875 -0.40625,0 -0.78125,-0.203125 -1.046875,-0.609375 C 1.75,-0.921875 1.75,-0.9375 1.75,-1.140625 Z m 0,0"
               id="id-750312cb-720e-4e31-a66d-943d07ed13f6" />
          </g>
          <g
             transform="translate(166.285,134.765)"
             id="g4100">
            <path
               style="stroke:none"
               d="m 1.71875,-3.984375 h 1.4375 v -0.3125 H 1.71875 V -6.125 h -0.25 c 0,0.8125 -0.296875,1.875 -1.28125,1.921875 v 0.21875 h 0.84375 v 2.75 c 0,1.21875 0.9375,1.34375 1.296875,1.34375 0.703125,0 0.984375,-0.703125 0.984375,-1.34375 v -0.5625 h -0.25 V -1.25 c 0,0.734375 -0.296875,1.109375 -0.671875,1.109375 -0.671875,0 -0.671875,-0.90625 -0.671875,-1.078125 z m 0,0"
               id="id-4a172b10-2792-4931-98b7-7b14b03b4c49" />
          </g>
          <g
             transform="translate(170.159,134.765)"
             id="g4103">
            <path
               style="stroke:none"
               d="m 1.09375,-0.75 c 0,0.4375 -0.109375,0.4375 -0.78125,0.4375 V 0 c 0.359375,-0.015625 0.859375,-0.03125 1.140625,-0.03125 0.25,0 0.765625,0.015625 1.109375,0.03125 v -0.3125 c -0.671875,0 -0.78125,0 -0.78125,-0.4375 V -2.59375 C 1.78125,-3.625 2.5,-4.1875 3.125,-4.1875 c 0.640625,0 0.75,0.53125 0.75,1.109375 V -0.75 c 0,0.4375 -0.109375,0.4375 -0.78125,0.4375 V 0 c 0.34375,-0.015625 0.859375,-0.03125 1.125,-0.03125 0.25,0 0.78125,0.015625 1.109375,0.03125 v -0.3125 c -0.515625,0 -0.765625,0 -0.765625,-0.296875 v -1.90625 c 0,-0.859375 0,-1.15625 -0.3125,-1.515625 -0.140625,-0.171875 -0.46875,-0.375 -1.046875,-0.375 -0.84375,0 -1.28125,0.59375 -1.453125,0.984375 v -3.5 L 0.3125,-6.8125 V -6.5 c 0.703125,0 0.78125,0.0625 0.78125,0.5625 z m 0,0"
               id="id-225d9cdd-4662-42fc-8897-4f7f6380c35c" />
          </g>
        </g>
        <g
           style="fill:#000000;fill-opacity:1"
           id="id-bea67139-954e-480a-b01b-9bf4bca7466c">
          <g
             transform="translate(179.015,134.765)"
             id="g4107">
            <path
               style="stroke:none"
               d="m 1.328125,-0.828125 c 0.53125,-0.578125 0.828125,-0.828125 1.1875,-1.140625 0,0 0.609375,-0.53125 0.96875,-0.890625 C 4.4375,-3.78125 4.65625,-4.265625 4.65625,-4.3125 c 0,-0.09375 -0.09375,-0.09375 -0.109375,-0.09375 -0.078125,0 -0.09375,0.015625 -0.15625,0.109375 -0.296875,0.484375 -0.5,0.640625 -0.734375,0.640625 -0.25,0 -0.359375,-0.15625 -0.515625,-0.328125 -0.1875,-0.21875 -0.359375,-0.421875 -0.6875,-0.421875 -0.75,0 -1.203125,0.921875 -1.203125,1.140625 0,0.046875 0.03125,0.109375 0.109375,0.109375 0.09375,0 0.109375,-0.046875 0.140625,-0.109375 0.1875,-0.46875 0.765625,-0.46875 0.84375,-0.46875 0.203125,0 0.390625,0.0625 0.625,0.140625 0.40625,0.15625 0.515625,0.15625 0.765625,0.15625 -0.359375,0.421875 -1.1875,1.140625 -1.375,1.296875 l -0.90625,0.84375 C 0.78125,-0.625 0.421875,-0.0625 0.421875,0.015625 c 0,0.09375 0.109375,0.09375 0.125,0.09375 0.078125,0 0.09375,-0.015625 0.15625,-0.125 0.234375,-0.359375 0.53125,-0.625 0.859375,-0.625 0.21875,0 0.328125,0.09375 0.578125,0.375 0.15625,0.21875 0.34375,0.375 0.625,0.375 1,0 1.578125,-1.265625 1.578125,-1.53125 0,-0.046875 -0.046875,-0.109375 -0.125,-0.109375 -0.09375,0 -0.109375,0.0625 -0.140625,0.140625 C 3.84375,-0.75 3.203125,-0.5625 2.875,-0.5625 c -0.1875,0 -0.375,-0.0625 -0.578125,-0.125 -0.34375,-0.125 -0.5,-0.171875 -0.703125,-0.171875 -0.015625,0 -0.171875,0 -0.265625,0.03125 z m 0,0"
               id="id-7378dc3c-6709-4795-9467-8c9bc748b8c3" />
          </g>
        </g>
      </g>
    </g>
    <path
       style="fill:#008000;stroke:#008000;stroke-width:0.665;stroke-linecap:butt;stroke-linejoin:miter;stroke-miterlimit:4;stroke-dasharray:1.995, 0.665;stroke-dashoffset:0;stroke-opacity:1"
       d="M 123.76294,74.909674 V 134.98562"
       id="path11798" />
    <path
       style="fill:none;stroke:#0000ff;stroke-width:0.264583px;stroke-linecap:butt;stroke-linejoin:miter;stroke-opacity:1"
       d="M 107.32156,122.90899 H 141.911"
       id="path12419"
       sodipodi:nodetypes="cc" />
    <path
       sodipodi:type="star"
       style="fill:#0000ff;stroke:none;stroke-width:2.51339;stroke-linecap:round;stroke-miterlimit:4;stroke-dasharray:none;paint-order:fill markers stroke"
       id="path13300"
       inkscape:flatsided="true"
       sodipodi:sides="3"
       sodipodi:cx="374.03812"
       sodipodi:cy="299.31354"
       sodipodi:r1="8.3131046"
       sodipodi:r2="4.1565523"
       sodipodi:arg1="1.5707963"
       sodipodi:arg2="2.6179939"
       inkscape:rounded="0"
       inkscape:randomized="0"
       d="m 374.03812,307.62664 -7.19936,-12.46965 14.39872,0 z"
       transform="matrix(0.26458333,0,0,0.26458333,13.714723,41.516107)"
       inkscape:transform-center-x="1.2467937e-06"
       inkscape:transform-center-y="0.54987625" />
  </g>
  <g
     inkscape:groupmode="layer"
     id="layer4"
     inkscape:label="Frost line"
     style="display:inline"
     transform="translate(-51.675414,-64.740423)">
    <text
       xml:space="preserve"
       style="font-size:5.29167px;line-height:1;font-family:'Times New Roman';-inkscape-font-specification:'Times New Roman, ';text-align:center;text-anchor:middle;white-space:pre;inline-size:50.2101;fill:#000000;stroke-width:0.264583"
       x="88.298439"
       y="68.414619"
       id="text1962"
       transform="translate(1.9851986)"><tspan
         x="88.298439"
         y="68.414619"
         id="tspan46011">Freezing temperature<tspan
   y="68.414619"
   id="tspan46013"> </tspan></tspan><tspan
         x="88.298439"
         y="73.706291"
         id="tspan46015">(T&lt;32 F)</tspan></text>
    <path
       style="fill:none;stroke:#00ffff;stroke-width:0.565;stroke-linecap:butt;stroke-linejoin:miter;stroke-miterlimit:4;stroke-dasharray:none;stroke-opacity:1"
       d="M 76.926677,104.95043 H 103.61737"
       id="path4641" />
    <text
       xml:space="preserve"
       style="font-size:5.29167px;line-height:1;font-family:'Times New Roman';-inkscape-font-specification:'Times New Roman, ';text-align:center;text-anchor:middle;fill:#000000;stroke-width:0.264583"
       x="64.61924"
       y="105.16162"
       id="text6100"><tspan
         sodipodi:role="line"
         id="tspan6098"
         style="font-size:5.29167px;fill:#000000;stroke-width:0.264583"
         x="64.61924"
         y="105.16162">Frost line</tspan></text>
  </g>
  <g
     inkscape:groupmode="layer"
     id="layer5"
     inkscape:label="lenses"
     transform="translate(-51.675414,-64.740423)"
     style="display:inline">
    <path
       id="path7406"
       style="fill:#afafe9;stroke:#afafe9;stroke-width:0.264583px;stroke-linecap:butt;stroke-linejoin:miter;stroke-opacity:1"
       d="m 86.223016,101.49053 0.637005,-0.89475 -0.618289,-0.13748 0.184901,-0.23889 0.80034,-0.78021 0.437346,-0.367036 -0.05746,-0.670591 0.08958,-0.0067 1.317642,-0.703503 0.06818,-0.503521 -0.03649,-0.59635 m 1.592033,-15.11846 -0.506611,-0.45512 -0.342277,-0.464288 -0.282894,-0.153969 -0.932078,-1.272704 0.25255,-0.06453 -0.721212,-0.700027 -0.346709,-0.322995 -0.455603,-0.44613 0.02345,-0.445236 -0.846766,-0.687034 m 4.701819,10.914753 0.3649,-0.566735 0.390636,-0.58674 0.560307,-0.491161 0.38676,-0.514362 0.416061,-0.496858 0.262377,-0.903096 0.563371,-0.203647 0.480515,-0.928172 0.02231,-0.523085 0.754498,-0.230229 m -10.64812,5.211085 0.302128,0.204407 0.13612,0.884068 0.308986,0.772869 0.312816,0.414051 0.322715,0.615297 0.477366,0.408064 0.122513,0.761425 0.81739,0.539736 0.390757,0.214953 0.164849,0.400547 m 8.061462,4.648337 -0.198089,-0.743761 0.184273,-0.208043 -0.477766,-0.0307 0.795071,-0.638689 -0.221605,-1.464461 -0.127881,-0.193375 0.07495,-0.314572 0.112588,-0.580484 0.144478,-0.358606 0.176103,-0.520384 m -15.21892,0.315362 1.733807,-0.06429 2.287001,-0.07012 1.149141,-0.03481 2.013371,0.490576 1.888773,-0.05222 1.334519,-0.372075 2.506723,-0.220633 1.144257,0.181346 2.262798,0.04944 1.534698,0.06145 m -19.486104,9.351426 1.502776,0.0443 1.132138,0.41666 2.258962,0.13061 1.181099,0.0783 1.933269,-0.51359 1.391991,0.35512 0.241708,-0.26173 1.935581,0.3258 2.05218,-0.54079 1.023023,0.002 m 5.424287,-4.464155 -0.87624,-0.0184 -0.894984,0.143658 -1.911068,-0.361405 -1.096064,-0.173326 -1.228997,-0.04608 -1.485219,-0.281862 -1.098122,-0.51654 -1.021792,0.05533 -1.150132,0.178274 -1.46749,0.406265 m -7.846906,-9.443843 1.527549,-0.318389 0.316845,-0.1951 2.271272,-0.170895 0.8196,0.458597 1.668743,-0.01366 1.058457,0.107822 1.104414,0.158208 1.307852,0.644312 1.594481,-0.325801 1.991773,0.177713 m 6.221859,-5.843018 -1.033191,0.226878 -0.996359,0.136075 -1.1284,-0.118641 -0.252094,-0.270935 -1.640707,-0.06193 -0.567967,-0.217317 -1.514746,0.06469 -1.115094,-0.478712 -1.065416,0.350997 -1.29821,0.292763 m -9.387162,-5.166418 0.780957,-0.06862 1.517584,-0.08721 1.30197,-0.106527 0.7703,-0.06114 0.580023,0.348986 1.288489,0.02567 1.065217,0.02286 0.529291,0.04941 1.796125,0.06129 0.666434,0.154212" />
    <path
       inkscape:original-d="M 0,0"
       inkscape:path-effect="#path-effect7778"
       d="m 76.941684,83.751657 1.905406,-0.278383 1.898281,-0.126011 1.90462,0.122586 1.913328,-0.04573 1.907685,-0.05335 1.907475,-0.182078 1.90114,0.129259 1.918064,-0.04462 1.909465,-0.135196 1.902452,-0.170546 1.899848,-0.121522 1.90337,-0.139488 1.902182,0.02053 1.90237,-0.514903 0,3.707768 -6.668827,0.06766 -6.672118,-0.513268 -6.677075,-0.06641 -6.672673,0.265871 z"
       id="path7780"
       style="fill:#afafe9;fill-opacity:1" />
    <path
       style="fill:none;stroke:#afafe9;stroke-width:0.264583px;stroke-linecap:butt;stroke-linejoin:miter;stroke-opacity:1"
       d="m 76.941684,83.751657 1.905406,-0.278383 1.898281,-0.126011 1.90462,0.122586 1.913328,-0.04573 1.907685,-0.05335 1.907475,-0.182078 1.90114,0.129259 1.918064,-0.04462 1.909465,-0.135196 1.902452,-0.170546 1.899848,-0.121522 1.90337,-0.139488 1.902182,0.02053 1.90237,-0.514903"
       id="path7614" />
    <path
       style="fill:none;stroke:#afafe9;stroke-width:0.264583px;stroke-linecap:butt;stroke-linejoin:miter;stroke-opacity:1"
       d="m 76.926677,85.673826 6.672673,-0.265871 6.677075,0.06641 6.672118,0.513268 6.668827,-0.06766"
       id="path7616" />
    <path
       inkscape:original-d="M 0,0"
       inkscape:path-effect="#path-effect11277"
       d="m 103.61737,92.978067 -5.338139,-0.660058 -5.36511,0.0771 -5.340843,1.117849 -5.310615,0.120286 -5.335986,-0.08746 0,1.244615 4.448449,-0.215529 4.456884,0.07601 4.449378,0.503411 4.438259,0.143059 4.44894,0.09749 4.448783,-0.18495 z"
       id="path11279"
       style="fill:#afafe9;fill-opacity:1" />
    <path
       style="fill:#afafe9;stroke:#afafe9;stroke-width:0.264583px;stroke-linecap:butt;stroke-linejoin:miter;stroke-opacity:1"
       d="m 76.926677,94.790399 4.448449,-0.215529 4.456884,0.07601 4.449378,0.503411 4.438259,0.143059 4.44894,0.09749 4.448783,-0.18495"
       id="path7618" />
    <path
       style="fill:#afafe9;stroke:#afafe9;stroke-width:0.264583px;stroke-linecap:butt;stroke-linejoin:miter;stroke-opacity:1"
       d="m 103.61737,92.978067 -5.338139,-0.660058 -5.36511,0.0771 -5.340843,1.117849 -5.310615,0.120286 -5.335986,-0.08746"
       id="path7620" />
    <text
       xml:space="preserve"
       style="font-size:5.29167px;line-height:1;font-family:'Times New Roman';-inkscape-font-specification:'Times New Roman, ';text-align:center;text-anchor:middle;stroke-width:0.264583"
       x="61.900894"
       y="91.492142"
       id="text15293"><tspan
         sodipodi:role="line"
         id="tspan15291"
         style="font-size:5.29167px;stroke-width:0.264583"
         x="61.900894"
         y="91.492142">Ice lenses</tspan></text>
    <path
       style="fill:none;stroke:#000000;stroke-width:0.264583px;stroke-linecap:butt;stroke-linejoin:miter;stroke-opacity:1"
       d="m 74.599503,90.210642 3.175394,-4.570614"
       id="path16269" />
    <path
       style="fill:none;stroke:#000000;stroke-width:0.264583px;stroke-linecap:butt;stroke-linejoin:miter;stroke-opacity:1"
       d="m 74.599503,90.210642 3.948371,4.501208"
       id="path16271" />
  </g>
  <g
     inkscape:groupmode="layer"
     id="layer6"
     inkscape:label="new_wc"
     transform="translate(-51.675414,-64.740423)"
     style="display:inline">
    <path
       style="fill:none;stroke:#00ffff;stroke-width:0.264583px;stroke-linecap:butt;stroke-linejoin:miter;stroke-opacity:1"
       d="m 107.32156,104.95043 h 36.34685"
       id="path16387"
       sodipodi:nodetypes="cc" />
    <text
       xml:space="preserve"
       style="font-size:5.29167px;line-height:1;font-family:'Times New Roman';-inkscape-font-specification:'Times New Roman, ';text-align:center;text-anchor:middle;stroke-width:0.264583"
       x="118.61327"
       y="103.95525"
       id="text18065"><tspan
         sodipodi:role="line"
         id="tspan18063"
         style="font-size:5.29167px;stroke-width:0.264583"
         x="118.61327"
         y="103.95525">Frost line</tspan></text>
    <path
       style="fill:none;stroke:#800000;stroke-width:0.565;stroke-linecap:butt;stroke-linejoin:miter;stroke-miterlimit:4;stroke-dasharray:none;stroke-opacity:1"
       d="m 130.81734,75.019516 c 1.40665,0.341592 1.24394,3.001351 2.19676,3.954176 0.44993,0.449922 5.52911,2.195902 4.50337,3.734501 -2.15561,3.233415 -4.11788,3.628853 -2.96563,8.237868 0.63577,2.543059 5.61859,2.805285 4.72304,5.491912 -0.74254,2.227648 -3.56021,1.598263 -4.83288,3.295147 -1.20284,1.60379 -0.90565,4.29716 -2.63612,5.1624 -2.21649,1.10824 -4.61115,0.65697 -6.37061,2.41644 -2.58716,2.58715 -1.75741,22.99517 -1.75741,27.5694"
       id="path18565" />
    <text
       xml:space="preserve"
       style="font-size:5.29167px;line-height:1;font-family:'Times New Roman';-inkscape-font-specification:'Times New Roman, ';text-align:center;text-anchor:middle;white-space:pre;inline-size:38.5618;stroke-width:0.264583"
       x="137.6273"
       y="87.87059"
       id="text19804"
       transform="translate(17.663217,-3.3217984)"><tspan
         x="137.6273"
         y="87.87059"
         id="tspan46017">Water content<tspan
   y="87.87059"
   id="tspan46019"> </tspan></tspan><tspan
         x="137.6273"
         y="93.162262"
         id="tspan46021">after freezing</tspan></text>
    <path
       style="fill:none;stroke:#000000;stroke-width:0.264583px;stroke-linecap:butt;stroke-linejoin:miter;stroke-opacity:1"
       d="M 138.50602,85.673826 134.442,88.309944"
       id="path20907" />
  </g>
</svg>
