<?xml version="1.0" encoding="UTF-8" standalone="no"?>
<!-- Created with Inkscape (http://www.inkscape.org/) -->

<svg
   width="83.729149mm"
   height="70.466225mm"
   viewBox="0 0 83.729149 70.466224"
   version="1.1"
   id="svg5"
   inkscape:version="1.1.1 (3bf5ae0d25, 2021-09-20)"
   sodipodi:docname="meniscus.svg"
   xmlns:inkscape="http://www.inkscape.org/namespaces/inkscape"
   xmlns:sodipodi="http://sodipodi.sourceforge.net/DTD/sodipodi-0.dtd"
   xmlns="http://www.w3.org/2000/svg"
   xmlns:svg="http://www.w3.org/2000/svg"
   xmlns:ns2="http://www.iki.fi/pav/software/textext/">
  <sodipodi:namedview
     id="namedview7"
     pagecolor="#505050"
     bordercolor="#ffffff"
     borderopacity="1"
     inkscape:pageshadow="0"
     inkscape:pageopacity="0"
     inkscape:pagecheckerboard="1"
     inkscape:document-units="mm"
     showgrid="false"
     inkscape:zoom="1.1474186"
     inkscape:cx="258.84188"
     inkscape:cy="205.24331"
     inkscape:window-width="1920"
     inkscape:window-height="1015"
     inkscape:window-x="-9"
     inkscape:window-y="-9"
     inkscape:window-maximized="1"
     inkscape:current-layer="layer1" />
  <defs
     id="defs2">
    <inkscape:path-effect
       effect="roughen"
       id="path-effect929"
       is_visible="true"
       lpeversion="1.1"
       method="segments"
       max_segment_size="4"
       segments="10"
       displace_x="0.67;1456534098"
       displace_y="0;1738122110"
       global_randomize="1;691413424"
       handles="along"
       shift_nodes="true"
       fixed_displacement="false"
       spray_tool_friendly="true" />
    <marker
       style="overflow:visible"
       id="Arrow2Lstart"
       refX="0"
       refY="0"
       orient="auto"
       inkscape:stockid="Arrow2Lstart"
       inkscape:isstock="true">
      <path
         transform="matrix(1.1,0,0,1.1,1.1,0)"
         d="M 8.7185878,4.0337352 -2.2072895,0.01601326 8.7185884,-4.0017078 c -1.7454984,2.3720609 -1.7354408,5.6174519 -6e-7,8.035443 z"
         style="fill:context-stroke;fill-rule:evenodd;stroke:context-stroke;stroke-width:0.625;stroke-linejoin:round"
         id="path3290" />
    </marker>
    <marker
       style="overflow:visible"
       id="Arrow1Lstart"
       refX="0"
       refY="0"
       orient="auto"
       inkscape:stockid="Arrow1Lstart"
       inkscape:isstock="true">
      <path
         transform="matrix(0.8,0,0,0.8,10,0)"
         style="fill:context-stroke;fill-rule:evenodd;stroke:context-stroke;stroke-width:1pt"
         d="M 0,0 5,-5 -12.5,0 5,5 Z"
         id="path3272" />
    </marker>
    <marker
       style="overflow:visible"
       id="Arrow2Lend"
       refX="0"
       refY="0"
       orient="auto"
       inkscape:stockid="Arrow2Lend"
       inkscape:isstock="true">
      <path
         transform="matrix(-1.1,0,0,-1.1,-1.1,0)"
         d="M 8.7185878,4.0337352 -2.2072895,0.01601326 8.7185884,-4.0017078 c -1.7454984,2.3720609 -1.7354408,5.6174519 -6e-7,8.035443 z"
         style="fill:context-stroke;fill-rule:evenodd;stroke:context-stroke;stroke-width:0.625;stroke-linejoin:round"
         id="path3293" />
    </marker>
  </defs>
  <g
     inkscape:label="Layer 1"
     inkscape:groupmode="layer"
     id="layer1"
     transform="translate(-39.485334,-64.892139)">
    <path
       style="fill:#80b3ff;stroke:none;stroke-width:1.25993;stroke-linecap:round;stroke-linejoin:bevel;paint-order:stroke fill markers"
       d="m 290.21666,357.03944 c -9.22297,-3.35782 -21.20342,-2.57379 -46.51746,-7.11372 -16.79452,-3.01201 -18.33229,-3.39811 -14.59799,-3.74478 1.55784,-0.14463 7.26634,-1.67905 10.1557,-1.81204 20.91676,-0.96275 33.99752,-9.00501 42.17269,-24.41503 l 1.53893,-2.90083 0.82291,5.21057 c 1.89775,12.01631 4.51925,21.89582 9.97012,32.77246 1.05097,2.0971 1.76182,3.79841 1.57966,3.7807 -0.18215,-0.0177 -2.48821,-0.81751 -5.12456,-1.77733 z"
       id="path1351"
       transform="scale(0.26458333)"
       sodipodi:nodetypes="ssssscssss" />
    <path
       style="fill:#80b3ff;stroke:none;stroke-width:1.25993;stroke-linecap:round;stroke-linejoin:bevel;paint-order:stroke fill markers"
       d="m 299.82663,417.95611 c 1.48202,-12.88075 4.54255,-30.68539 4.54794,-38.78826 l 0.004,-6.48042 2.62973,3.43009 c 6.27195,8.18082 13.86731,15.84434 22.5657,22.7682 l 3.62527,2.88569 -4.49679,0.26667 c -12.6661,0.75114 -20.98248,5.61631 -27.14592,14.86601 l -2.88025,4.32249 z"
       id="path1390"
       transform="scale(0.26458333)"
       sodipodi:nodetypes="cccsscsscc" />
    <path
       style="fill:#c87137;stroke:#000000;stroke-width:0.264583px;stroke-linecap:butt;stroke-linejoin:miter;stroke-opacity:1"
       d="m 89.862137,66.08473 c -33.294741,3.33909 -7.451902,52.01632 17.986023,45.65684 30.50495,-7.62624 8.14245,-48.277234 -17.986023,-45.65684 z"
       id="path868"
       sodipodi:nodetypes="sss" />
    <text
       xml:space="preserve"
       style="font-size:12.7px;line-height:1;font-family:Arial;-inkscape-font-specification:Arial;text-align:center;text-anchor:middle;stroke-width:0.264583"
       x="84.395966"
       y="117.60093"
       id="text2569"><tspan
         sodipodi:role="line"
         id="tspan2567"
         style="stroke-width:0.264583"
         x="84.395966"
         y="117.60093" /></text>
    <g
       transform="matrix(0.64849091,0,0,0.64849091,85.641041,111.7882)"
       ns2:version="1.1.0"
       ns2:texconverter="pdflatex"
       ns2:pdfconverter="inkscape"
       ns2:text="$r_m$"
       ns2:preamble="C:\\Users\\zamcr\\AppData\\Roaming\\inkscape\\extensions\\textext\\default_packages.tex"
       ns2:scale="1.0"
       ns2:alignment="middle center"
       ns2:inkscapeversion="1.1.1"
       ns2:jacobian_sqrt="0.352778"
       id="g2692"
       style="fill:#000000">
      <defs
         id="id-22dfb8a1-101c-4f7b-b457-315b6f2fd68a">
        <g
           id="id-72e5ee6e-81c9-46fc-987b-8e9325b8b877">
          <symbol
             overflow="visible"
             id="id-da80dc10-c022-452c-9562-41c1e70a0143">
            <path
               style="stroke:none"
               d=""
               id="id-ae86c8b9-1817-46dd-9b8a-3af0c674ddf5" />
          </symbol>
          <symbol
             overflow="visible"
             id="id-0dc1da94-93a4-4afe-adeb-1063b0d1cf74">
            <path
               style="stroke:none"
               d="m 0.875,-0.59375 c -0.03125,0.15625 -0.09375,0.390625 -0.09375,0.4375 0,0.171875 0.140625,0.265625 0.296875,0.265625 0.125,0 0.296875,-0.078125 0.375,-0.28125 C 1.46875,-0.203125 1.796875,-1.5625 1.84375,-1.75 c 0.078125,-0.328125 0.265625,-1.015625 0.3125,-1.296875 0.046875,-0.125 0.328125,-0.59375 0.5625,-0.8125 0.078125,-0.0625 0.375,-0.328125 0.796875,-0.328125 0.265625,0 0.40625,0.125 0.421875,0.125 -0.296875,0.046875 -0.515625,0.28125 -0.515625,0.546875 0,0.15625 0.109375,0.34375 0.375,0.34375 0.265625,0 0.546875,-0.234375 0.546875,-0.59375 0,-0.34375 -0.3125,-0.640625 -0.828125,-0.640625 C 2.875,-4.40625 2.4375,-3.921875 2.25,-3.640625 2.15625,-4.09375 1.796875,-4.40625 1.328125,-4.40625 0.875,-4.40625 0.6875,-4.015625 0.59375,-3.84375 0.421875,-3.5 0.296875,-2.90625 0.296875,-2.875 c 0,0.109375 0.09375,0.109375 0.109375,0.109375 0.109375,0 0.109375,-0.015625 0.171875,-0.234375 0.171875,-0.703125 0.375,-1.1875 0.734375,-1.1875 0.15625,0 0.296875,0.078125 0.296875,0.453125 0,0.21875 -0.03125,0.328125 -0.15625,0.84375 z m 0,0"
               id="id-75d10d2d-0542-40c9-a1a1-c0caf1b7d619" />
          </symbol>
          <symbol
             overflow="visible"
             id="id-53e56976-5c78-45c3-9ba3-73f409651d43">
            <path
               style="stroke:none"
               d=""
               id="id-7e5d7e80-36f7-4b3d-a2a5-d6b9b59b001f" />
          </symbol>
          <symbol
             overflow="visible"
             id="id-39977988-ec0b-47ec-9480-d5e77c57540f">
            <path
               style="stroke:none"
               d="m 3.03125,-0.5625 c -0.046875,0.140625 -0.109375,0.375 -0.109375,0.40625 0,0.15625 0.125,0.21875 0.234375,0.21875 0.140625,0 0.25,-0.078125 0.28125,-0.140625 0.03125,-0.0625 0.09375,-0.296875 0.125,-0.4375 0.03125,-0.125 0.109375,-0.453125 0.15625,-0.625 0.03125,-0.15625 0.078125,-0.3125 0.109375,-0.46875 0.078125,-0.296875 0.078125,-0.3125 0.21875,-0.53125 C 4.265625,-2.484375 4.625,-2.875 5.15625,-2.875 c 0.390625,0 0.421875,0.3125 0.421875,0.484375 0,0.421875 -0.296875,1.1875 -0.421875,1.484375 -0.0625,0.203125 -0.09375,0.265625 -0.09375,0.375 0,0.375 0.296875,0.59375 0.65625,0.59375 0.703125,0 1,-0.953125 1,-1.0625 0,-0.09375 -0.078125,-0.09375 -0.109375,-0.09375 -0.09375,0 -0.09375,0.046875 -0.125,0.125 C 6.328125,-0.40625 6.015625,-0.125 5.75,-0.125 c -0.15625,0 -0.1875,-0.09375 -0.1875,-0.25 0,-0.15625 0.046875,-0.25 0.171875,-0.5625 0.078125,-0.21875 0.359375,-0.953125 0.359375,-1.34375 0,-0.109375 0,-0.40625 -0.25,-0.609375 -0.125,-0.078125 -0.328125,-0.1875 -0.65625,-0.1875 -0.625,0 -1,0.421875 -1.234375,0.703125 C 3.90625,-2.96875 3.40625,-3.078125 3.046875,-3.078125 2.46875,-3.078125 2.078125,-2.71875 1.875,-2.4375 1.828125,-2.921875 1.421875,-3.078125 1.125,-3.078125 c -0.296875,0 -0.453125,0.21875 -0.546875,0.375 -0.15625,0.265625 -0.25,0.65625 -0.25,0.703125 0,0.078125 0.09375,0.078125 0.125,0.078125 0.09375,0 0.09375,-0.015625 0.140625,-0.203125 0.109375,-0.40625 0.25,-0.75 0.515625,-0.75 0.1875,0 0.234375,0.15625 0.234375,0.34375 0,0.125 -0.0625,0.390625 -0.125,0.578125 -0.046875,0.1875 -0.109375,0.46875 -0.140625,0.625 L 0.84375,-0.4375 c -0.015625,0.09375 -0.0625,0.265625 -0.0625,0.28125 0,0.15625 0.125,0.21875 0.234375,0.21875 0.125,0 0.234375,-0.078125 0.28125,-0.140625 0.03125,-0.0625 0.078125,-0.296875 0.125,-0.4375 0.03125,-0.125 0.109375,-0.453125 0.140625,-0.625 0.046875,-0.15625 0.09375,-0.3125 0.125,-0.46875 0.078125,-0.28125 0.09375,-0.34375 0.296875,-0.625 C 2.171875,-2.515625 2.5,-2.875 3.03125,-2.875 c 0.390625,0 0.40625,0.359375 0.40625,0.484375 0,0.171875 -0.015625,0.265625 -0.125,0.65625 z m 0,0"
               id="id-0f0cba87-c28f-44a5-b819-78d9b0e559e8" />
          </symbol>
        </g>
      </defs>
      <g
         id="id-6f4b6ad9-db23-4217-87a6-44fcf4f248ff"
         transform="translate(-149.009,-130.359)"
         style="fill:#000000">
        <g
           style="fill:#000000;fill-opacity:1"
           id="id-52b1171c-a9f5-4b5a-9e79-c01814e3c10e">
          <g
             transform="translate(148.712,134.765)"
             id="g2684"
             style="fill:#000000">
            <path
               style="fill:#000000;stroke:none"
               d="m 0.875,-0.59375 c -0.03125,0.15625 -0.09375,0.390625 -0.09375,0.4375 0,0.171875 0.140625,0.265625 0.296875,0.265625 0.125,0 0.296875,-0.078125 0.375,-0.28125 C 1.46875,-0.203125 1.796875,-1.5625 1.84375,-1.75 c 0.078125,-0.328125 0.265625,-1.015625 0.3125,-1.296875 0.046875,-0.125 0.328125,-0.59375 0.5625,-0.8125 0.078125,-0.0625 0.375,-0.328125 0.796875,-0.328125 0.265625,0 0.40625,0.125 0.421875,0.125 -0.296875,0.046875 -0.515625,0.28125 -0.515625,0.546875 0,0.15625 0.109375,0.34375 0.375,0.34375 0.265625,0 0.546875,-0.234375 0.546875,-0.59375 0,-0.34375 -0.3125,-0.640625 -0.828125,-0.640625 C 2.875,-4.40625 2.4375,-3.921875 2.25,-3.640625 2.15625,-4.09375 1.796875,-4.40625 1.328125,-4.40625 0.875,-4.40625 0.6875,-4.015625 0.59375,-3.84375 0.421875,-3.5 0.296875,-2.90625 0.296875,-2.875 c 0,0.109375 0.09375,0.109375 0.109375,0.109375 0.109375,0 0.109375,-0.015625 0.171875,-0.234375 0.171875,-0.703125 0.375,-1.1875 0.734375,-1.1875 0.15625,0 0.296875,0.078125 0.296875,0.453125 0,0.21875 -0.03125,0.328125 -0.15625,0.84375 z m 0,0"
               id="id-73a16cfc-6771-4f59-8d42-0b611c01bf36" />
          </g>
        </g>
        <g
           style="fill:#000000;fill-opacity:1"
           id="id-97a0d7fa-0e51-4c4f-bb72-0e56904e4be9">
          <g
             transform="translate(153.207,136.259)"
             id="g2688"
             style="fill:#000000">
            <path
               style="fill:#000000;stroke:none"
               d="m 3.03125,-0.5625 c -0.046875,0.140625 -0.109375,0.375 -0.109375,0.40625 0,0.15625 0.125,0.21875 0.234375,0.21875 0.140625,0 0.25,-0.078125 0.28125,-0.140625 0.03125,-0.0625 0.09375,-0.296875 0.125,-0.4375 0.03125,-0.125 0.109375,-0.453125 0.15625,-0.625 0.03125,-0.15625 0.078125,-0.3125 0.109375,-0.46875 0.078125,-0.296875 0.078125,-0.3125 0.21875,-0.53125 C 4.265625,-2.484375 4.625,-2.875 5.15625,-2.875 c 0.390625,0 0.421875,0.3125 0.421875,0.484375 0,0.421875 -0.296875,1.1875 -0.421875,1.484375 -0.0625,0.203125 -0.09375,0.265625 -0.09375,0.375 0,0.375 0.296875,0.59375 0.65625,0.59375 0.703125,0 1,-0.953125 1,-1.0625 0,-0.09375 -0.078125,-0.09375 -0.109375,-0.09375 -0.09375,0 -0.09375,0.046875 -0.125,0.125 C 6.328125,-0.40625 6.015625,-0.125 5.75,-0.125 c -0.15625,0 -0.1875,-0.09375 -0.1875,-0.25 0,-0.15625 0.046875,-0.25 0.171875,-0.5625 0.078125,-0.21875 0.359375,-0.953125 0.359375,-1.34375 0,-0.109375 0,-0.40625 -0.25,-0.609375 -0.125,-0.078125 -0.328125,-0.1875 -0.65625,-0.1875 -0.625,0 -1,0.421875 -1.234375,0.703125 C 3.90625,-2.96875 3.40625,-3.078125 3.046875,-3.078125 2.46875,-3.078125 2.078125,-2.71875 1.875,-2.4375 1.828125,-2.921875 1.421875,-3.078125 1.125,-3.078125 c -0.296875,0 -0.453125,0.21875 -0.546875,0.375 -0.15625,0.265625 -0.25,0.65625 -0.25,0.703125 0,0.078125 0.09375,0.078125 0.125,0.078125 0.09375,0 0.09375,-0.015625 0.140625,-0.203125 0.109375,-0.40625 0.25,-0.75 0.515625,-0.75 0.1875,0 0.234375,0.15625 0.234375,0.34375 0,0.125 -0.0625,0.390625 -0.125,0.578125 -0.046875,0.1875 -0.109375,0.46875 -0.140625,0.625 L 0.84375,-0.4375 c -0.015625,0.09375 -0.0625,0.265625 -0.0625,0.28125 0,0.15625 0.125,0.21875 0.234375,0.21875 0.125,0 0.234375,-0.078125 0.28125,-0.140625 0.03125,-0.0625 0.078125,-0.296875 0.125,-0.4375 0.03125,-0.125 0.109375,-0.453125 0.140625,-0.625 0.046875,-0.15625 0.09375,-0.3125 0.125,-0.46875 0.078125,-0.28125 0.09375,-0.34375 0.296875,-0.625 C 2.171875,-2.515625 2.5,-2.875 3.03125,-2.875 c 0.390625,0 0.40625,0.359375 0.40625,0.484375 0,0.171875 -0.015625,0.265625 -0.125,0.65625 z m 0,0"
               id="id-154a4739-a4a7-47d6-8828-905194c8f614" />
          </g>
        </g>
      </g>
    </g>
    <g
       transform="matrix(0.64849091,0,0,0.64849091,59.584364,81.811492)"
       ns2:version="1.1.0"
       ns2:texconverter="pdflatex"
       ns2:pdfconverter="inkscape"
       ns2:text="$r_m$"
       ns2:preamble="C:\\Users\\zamcr\\AppData\\Roaming\\inkscape\\extensions\\textext\\default_packages.tex"
       ns2:scale="1.0"
       ns2:alignment="middle center"
       ns2:inkscapeversion="1.1.1"
       ns2:jacobian_sqrt="0.352778"
       id="g2846"
       style="fill:#000000">
      <defs
         id="defs2830">
        <g
           id="g2828">
          <symbol
             overflow="visible"
             id="symbol2814">
            <path
               style="stroke:none"
               d=""
               id="path2812" />
          </symbol>
          <symbol
             overflow="visible"
             id="symbol2818">
            <path
               style="stroke:none"
               d="m 0.875,-0.59375 c -0.03125,0.15625 -0.09375,0.390625 -0.09375,0.4375 0,0.171875 0.140625,0.265625 0.296875,0.265625 0.125,0 0.296875,-0.078125 0.375,-0.28125 C 1.46875,-0.203125 1.796875,-1.5625 1.84375,-1.75 c 0.078125,-0.328125 0.265625,-1.015625 0.3125,-1.296875 0.046875,-0.125 0.328125,-0.59375 0.5625,-0.8125 0.078125,-0.0625 0.375,-0.328125 0.796875,-0.328125 0.265625,0 0.40625,0.125 0.421875,0.125 -0.296875,0.046875 -0.515625,0.28125 -0.515625,0.546875 0,0.15625 0.109375,0.34375 0.375,0.34375 0.265625,0 0.546875,-0.234375 0.546875,-0.59375 0,-0.34375 -0.3125,-0.640625 -0.828125,-0.640625 C 2.875,-4.40625 2.4375,-3.921875 2.25,-3.640625 2.15625,-4.09375 1.796875,-4.40625 1.328125,-4.40625 0.875,-4.40625 0.6875,-4.015625 0.59375,-3.84375 0.421875,-3.5 0.296875,-2.90625 0.296875,-2.875 c 0,0.109375 0.09375,0.109375 0.109375,0.109375 0.109375,0 0.109375,-0.015625 0.171875,-0.234375 0.171875,-0.703125 0.375,-1.1875 0.734375,-1.1875 0.15625,0 0.296875,0.078125 0.296875,0.453125 0,0.21875 -0.03125,0.328125 -0.15625,0.84375 z m 0,0"
               id="path2816" />
          </symbol>
          <symbol
             overflow="visible"
             id="symbol2822">
            <path
               style="stroke:none"
               d=""
               id="path2820" />
          </symbol>
          <symbol
             overflow="visible"
             id="symbol2826">
            <path
               style="stroke:none"
               d="m 3.03125,-0.5625 c -0.046875,0.140625 -0.109375,0.375 -0.109375,0.40625 0,0.15625 0.125,0.21875 0.234375,0.21875 0.140625,0 0.25,-0.078125 0.28125,-0.140625 0.03125,-0.0625 0.09375,-0.296875 0.125,-0.4375 0.03125,-0.125 0.109375,-0.453125 0.15625,-0.625 0.03125,-0.15625 0.078125,-0.3125 0.109375,-0.46875 0.078125,-0.296875 0.078125,-0.3125 0.21875,-0.53125 C 4.265625,-2.484375 4.625,-2.875 5.15625,-2.875 c 0.390625,0 0.421875,0.3125 0.421875,0.484375 0,0.421875 -0.296875,1.1875 -0.421875,1.484375 -0.0625,0.203125 -0.09375,0.265625 -0.09375,0.375 0,0.375 0.296875,0.59375 0.65625,0.59375 0.703125,0 1,-0.953125 1,-1.0625 0,-0.09375 -0.078125,-0.09375 -0.109375,-0.09375 -0.09375,0 -0.09375,0.046875 -0.125,0.125 C 6.328125,-0.40625 6.015625,-0.125 5.75,-0.125 c -0.15625,0 -0.1875,-0.09375 -0.1875,-0.25 0,-0.15625 0.046875,-0.25 0.171875,-0.5625 0.078125,-0.21875 0.359375,-0.953125 0.359375,-1.34375 0,-0.109375 0,-0.40625 -0.25,-0.609375 -0.125,-0.078125 -0.328125,-0.1875 -0.65625,-0.1875 -0.625,0 -1,0.421875 -1.234375,0.703125 C 3.90625,-2.96875 3.40625,-3.078125 3.046875,-3.078125 2.46875,-3.078125 2.078125,-2.71875 1.875,-2.4375 1.828125,-2.921875 1.421875,-3.078125 1.125,-3.078125 c -0.296875,0 -0.453125,0.21875 -0.546875,0.375 -0.15625,0.265625 -0.25,0.65625 -0.25,0.703125 0,0.078125 0.09375,0.078125 0.125,0.078125 0.09375,0 0.09375,-0.015625 0.140625,-0.203125 0.109375,-0.40625 0.25,-0.75 0.515625,-0.75 0.1875,0 0.234375,0.15625 0.234375,0.34375 0,0.125 -0.0625,0.390625 -0.125,0.578125 -0.046875,0.1875 -0.109375,0.46875 -0.140625,0.625 L 0.84375,-0.4375 c -0.015625,0.09375 -0.0625,0.265625 -0.0625,0.28125 0,0.15625 0.125,0.21875 0.234375,0.21875 0.125,0 0.234375,-0.078125 0.28125,-0.140625 0.03125,-0.0625 0.078125,-0.296875 0.125,-0.4375 0.03125,-0.125 0.109375,-0.453125 0.140625,-0.625 0.046875,-0.15625 0.09375,-0.3125 0.125,-0.46875 0.078125,-0.28125 0.09375,-0.34375 0.296875,-0.625 C 2.171875,-2.515625 2.5,-2.875 3.03125,-2.875 c 0.390625,0 0.40625,0.359375 0.40625,0.484375 0,0.171875 -0.015625,0.265625 -0.125,0.65625 z m 0,0"
               id="path2824" />
          </symbol>
        </g>
      </defs>
      <g
         id="g2844"
         transform="translate(-149.009,-130.359)"
         style="fill:#000000">
        <g
           style="fill:#000000;fill-opacity:1"
           id="g2836">
          <g
             transform="translate(148.712,134.765)"
             id="g2834"
             style="fill:#000000">
            <path
               style="fill:#000000;stroke:none"
               d="m 0.875,-0.59375 c -0.03125,0.15625 -0.09375,0.390625 -0.09375,0.4375 0,0.171875 0.140625,0.265625 0.296875,0.265625 0.125,0 0.296875,-0.078125 0.375,-0.28125 C 1.46875,-0.203125 1.796875,-1.5625 1.84375,-1.75 c 0.078125,-0.328125 0.265625,-1.015625 0.3125,-1.296875 0.046875,-0.125 0.328125,-0.59375 0.5625,-0.8125 0.078125,-0.0625 0.375,-0.328125 0.796875,-0.328125 0.265625,0 0.40625,0.125 0.421875,0.125 -0.296875,0.046875 -0.515625,0.28125 -0.515625,0.546875 0,0.15625 0.109375,0.34375 0.375,0.34375 0.265625,0 0.546875,-0.234375 0.546875,-0.59375 0,-0.34375 -0.3125,-0.640625 -0.828125,-0.640625 C 2.875,-4.40625 2.4375,-3.921875 2.25,-3.640625 2.15625,-4.09375 1.796875,-4.40625 1.328125,-4.40625 0.875,-4.40625 0.6875,-4.015625 0.59375,-3.84375 0.421875,-3.5 0.296875,-2.90625 0.296875,-2.875 c 0,0.109375 0.09375,0.109375 0.109375,0.109375 0.109375,0 0.109375,-0.015625 0.171875,-0.234375 0.171875,-0.703125 0.375,-1.1875 0.734375,-1.1875 0.15625,0 0.296875,0.078125 0.296875,0.453125 0,0.21875 -0.03125,0.328125 -0.15625,0.84375 z m 0,0"
               id="path2832" />
          </g>
        </g>
        <g
           style="fill:#000000;fill-opacity:1"
           id="g2842">
          <g
             transform="translate(153.207,136.259)"
             id="g2840"
             style="fill:#000000">
            <path
               style="fill:#000000;stroke:none"
               d="m 3.03125,-0.5625 c -0.046875,0.140625 -0.109375,0.375 -0.109375,0.40625 0,0.15625 0.125,0.21875 0.234375,0.21875 0.140625,0 0.25,-0.078125 0.28125,-0.140625 0.03125,-0.0625 0.09375,-0.296875 0.125,-0.4375 0.03125,-0.125 0.109375,-0.453125 0.15625,-0.625 0.03125,-0.15625 0.078125,-0.3125 0.109375,-0.46875 0.078125,-0.296875 0.078125,-0.3125 0.21875,-0.53125 C 4.265625,-2.484375 4.625,-2.875 5.15625,-2.875 c 0.390625,0 0.421875,0.3125 0.421875,0.484375 0,0.421875 -0.296875,1.1875 -0.421875,1.484375 -0.0625,0.203125 -0.09375,0.265625 -0.09375,0.375 0,0.375 0.296875,0.59375 0.65625,0.59375 0.703125,0 1,-0.953125 1,-1.0625 0,-0.09375 -0.078125,-0.09375 -0.109375,-0.09375 -0.09375,0 -0.09375,0.046875 -0.125,0.125 C 6.328125,-0.40625 6.015625,-0.125 5.75,-0.125 c -0.15625,0 -0.1875,-0.09375 -0.1875,-0.25 0,-0.15625 0.046875,-0.25 0.171875,-0.5625 0.078125,-0.21875 0.359375,-0.953125 0.359375,-1.34375 0,-0.109375 0,-0.40625 -0.25,-0.609375 -0.125,-0.078125 -0.328125,-0.1875 -0.65625,-0.1875 -0.625,0 -1,0.421875 -1.234375,0.703125 C 3.90625,-2.96875 3.40625,-3.078125 3.046875,-3.078125 2.46875,-3.078125 2.078125,-2.71875 1.875,-2.4375 1.828125,-2.921875 1.421875,-3.078125 1.125,-3.078125 c -0.296875,0 -0.453125,0.21875 -0.546875,0.375 -0.15625,0.265625 -0.25,0.65625 -0.25,0.703125 0,0.078125 0.09375,0.078125 0.125,0.078125 0.09375,0 0.09375,-0.015625 0.140625,-0.203125 0.109375,-0.40625 0.25,-0.75 0.515625,-0.75 0.1875,0 0.234375,0.15625 0.234375,0.34375 0,0.125 -0.0625,0.390625 -0.125,0.578125 -0.046875,0.1875 -0.109375,0.46875 -0.140625,0.625 L 0.84375,-0.4375 c -0.015625,0.09375 -0.0625,0.265625 -0.0625,0.28125 0,0.15625 0.125,0.21875 0.234375,0.21875 0.125,0 0.234375,-0.078125 0.28125,-0.140625 0.03125,-0.0625 0.078125,-0.296875 0.125,-0.4375 0.03125,-0.125 0.109375,-0.453125 0.140625,-0.625 0.046875,-0.15625 0.09375,-0.3125 0.125,-0.46875 0.078125,-0.28125 0.09375,-0.34375 0.296875,-0.625 C 2.171875,-2.515625 2.5,-2.875 3.03125,-2.875 c 0.390625,0 0.40625,0.359375 0.40625,0.484375 0,0.171875 -0.015625,0.265625 -0.125,0.65625 z m 0,0"
               id="path2838" />
          </g>
        </g>
      </g>
    </g>
    <path
       style="fill:none;stroke:#ff0000;stroke-width:0.264583px;stroke-linecap:butt;stroke-linejoin:miter;stroke-opacity:1"
       d="m 64.272466,85.27281 5.019847,4.196133"
       id="path2977" />
    <path
       style="fill:#ff0000;stroke:#ff0000;stroke-width:0.264583px;stroke-linecap:butt;stroke-linejoin:miter;stroke-opacity:1"
       d="m 85.548913,111.46147 -1.844722,-3.97768"
       id="path3027" />
    <path
       style="fill:#c87137;stroke:#000000;stroke-width:0.264583px;stroke-linecap:butt;stroke-linejoin:miter;stroke-opacity:1"
       d="m 57.245515,91.178129 c -0.51279,0.0053 -0.932132,0.02988 -1.414625,0.07279 -0.474177,0.04328 -1.222479,0.105235 -1.682415,0.184997 -0.635268,0.06446 -0.743063,0.140548 -1.094681,0.227804 -0.447251,0.108385 -0.739869,0.233999 -1.150715,0.375961 -0.332066,0.155915 -0.519369,0.331548 -0.953449,0.525727 -0.109564,0.215951 -1.117604,0.45484 -1.619859,0.715056 -0.492502,0.183298 -0.880915,0.377177 -1.227068,0.581076 -0.530592,0.207969 -0.662339,0.426361 -0.98647,0.654578 -0.356132,0.267679 -1.204893,0.548874 -1.582906,0.842623 -0.367868,0.285864 -0.444651,0.583617 -0.830591,0.892369 -1.231568,0.985254 -2.515183,2.145564 -3.304699,3.437596 -1.063331,1.272674 -1.045347,2.673154 -1.436446,4.160024 -0.09875,1.5325 -0.289219,3.15678 -0.343603,4.82748 0.276614,1.63033 -0.07468,3.30486 0.144275,4.98146 0.105076,1.69014 0.926257,3.38237 1.383474,5.03354 0.801064,1.61208 0.812353,3.18502 1.417726,4.67863 0.461838,1.55491 1.163726,3.02385 1.944783,4.3615 0.60653,1.35446 1.589393,2.57431 2.512669,3.61248 0.826556,1.0177 1.92797,1.86081 2.904179,2.48501 0.953982,0.60999 1.946852,1.01091 2.859425,1.16141 1.030325,0.16991 1.915854,0.24474 2.847038,0.23499 0.870304,-0.0101 1.864597,-0.11054 2.735894,-0.28978 0.831241,-0.17347 1.791388,-0.42073 2.560538,-0.73124 0.871197,-0.29333 1.284618,-0.64311 1.949869,-1.04045 0.598409,-0.43821 1.75725,-0.93427 2.436553,-1.47627 0.914495,-0.47437 1.143488,-0.98393 1.687021,-1.52069 0.594637,-0.60325 1.486082,-1.24085 2.054866,-1.90148 0.828975,-0.62524 1.471426,-1.2711 1.950035,-1.92797 0.935065,-0.68144 0.446746,-1.37474 0.833393,-2.06915 0.408296,-0.7333 1.580609,-1.46784 2.168943,-2.191 0.553416,-0.68024 0.825713,-1.39696 1.346176,-2.14418 0.276666,-0.78241 1.038001,-1.59825 1.536832,-2.44065 0.440355,-0.8002 0.91636,-1.62438 1.333221,-2.46663 0.407464,-0.83714 0.410235,-1.69215 0.752639,-2.55922 -0.03111,-0.89982 0.482261,-1.81265 0.761587,-2.73201 0.07226,-0.88562 0.263531,-1.7773 0.45132,-2.66927 -0.05488,-0.88534 0.178091,-1.77096 0.278072,-2.65121 -0.06309,-0.87355 0.648253,-1.74182 0.643316,-2.59927 0.48049,-0.89281 -0.317131,-1.77389 -0.630148,-2.637022 -0.30491,-0.840776 -0.615233,-1.664514 -1.044561,-2.465449 -0.356777,-0.665589 -1.092432,-1.232698 -1.592298,-1.716438 -0.740992,-0.425385 -0.901964,-0.786302 -1.429819,-1.093026 -0.585288,-0.354651 -1.519162,-0.636851 -2.226688,-0.862481 -0.884506,-0.204235 -1.299955,-0.362121 -1.99471,-0.485438 -0.775678,-0.139785 -1.609309,-0.235152 -2.44644,-0.303258 -0.837169,-0.06779 -2.060044,-0.108576 -2.920199,-0.139269 -1.125306,-0.02679 -1.520214,-0.04589 -2.247339,-0.06856 -0.892305,-0.02686 -1.894103,-0.05872 -2.720183,-0.114292 -0.991945,-0.0539 -1.227655,-0.130093 -1.955602,-0.245656 -0.755106,-0.119874 -1.875611,-0.282106 -2.65833,-0.50574 z"
       id="path864"
       inkscape:path-effect="#path-effect929"
       inkscape:original-d="m 57.310444,91.178129 c -5.1279,0.0533 -8.646054,2.028336 -12.451863,5.072981 -12.315672,9.85254 -1.42789,37.21072 7.840062,38.73913 10.303249,1.69915 15.449531,-6.11063 20.983695,-12.91304 5.534164,-6.80241 10.112941,-17.25312 5.764753,-25.364911 -3.567776,-6.655886 -14.890559,-3.463851 -22.136647,-5.53416 z"
       sodipodi:nodetypes="csszsc" />
    <g
       id="path3254">
      <path
         style="color:#000000;fill:#008000;-inkscape-stroke:none"
         d="m 79.363281,96.939453 -16.017578,9.248047 0.132813,0.22852 16.017578,-9.246098 z"
         id="path2623" />
      <g
         id="g2613">
        <g
           id="path2615">
          <path
             style="color:#000000;fill:#008000;fill-rule:evenodd;stroke-width:0.181901;stroke-linejoin:round;-inkscape-stroke:none"
             d="m 76.392741,97.452137 3.338519,-0.577278 -2.169196,2.602605 c 0.09477,-0.851882 -0.38004,-1.668417 -1.169323,-2.025327 z"
             id="path2619" />
          <path
             style="color:#000000;fill:#008000;fill-rule:evenodd;stroke-linejoin:round;-inkscape-stroke:none"
             d="m 79.714844,96.785156 -3.337891,0.578125 a 0.09095959,0.09095959 0 0 0 -0.02148,0.171875 c 0.754307,0.341095 1.205607,1.119284 1.115234,1.931641 a 0.09095959,0.09095959 0 0 0 0.162109,0.06836 l 2.167969,-2.601562 a 0.09095959,0.09095959 0 0 0 -0.08594,-0.148438 z m -0.210938,0.220703 -1.896484,2.275391 c 0.002,-0.737433 -0.378538,-1.396826 -1.021485,-1.771484 z"
             id="path2621" />
        </g>
      </g>
    </g>
    <g
       id="path3814">
      <path
         style="color:#000000;fill:#008000;-inkscape-stroke:none"
         d="m 95.380859,87.693359 -16.017578,9.246094 0.132813,0.230469 16.015625,-9.248047 z"
         id="path2609" />
      <g
         id="g2599">
        <g
           id="path2601">
          <path
             style="color:#000000;fill:#008000;fill-rule:evenodd;stroke-width:0.181901;stroke-linejoin:round;-inkscape-stroke:none"
             d="m 82.465847,96.657025 -3.338519,0.577278 2.169196,-2.602605 c -0.09477,0.851882 0.38004,1.668417 1.169323,2.025327 z"
             id="path2605" />
          <path
             style="color:#000000;fill:#008000;fill-rule:evenodd;stroke-linejoin:round;-inkscape-stroke:none"
             d="m 81.294922,94.541016 a 0.09095959,0.09095959 0 0 0 -0.06836,0.0332 l -2.169921,2.601562 a 0.09095959,0.09095959 0 0 0 0.08594,0.148438 l 3.337891,-0.578125 a 0.09095959,0.09095959 0 0 0 0.02344,-0.171875 c -0.754307,-0.341095 -1.20756,-1.119284 -1.117187,-1.931641 a 0.09095959,0.09095959 0 0 0 -0.0918,-0.101562 z M 81.25,94.830078 c -0.0015,0.736815 0.379011,1.395149 1.021484,1.769531 l -2.916015,0.501953 z"
             id="path2607" />
        </g>
      </g>
    </g>
    <g
       transform="matrix(0.882626 0 0 0.882626 90.2774 79.8518)"
       ns2:version="1.1.0"
       ns2:texconverter="pdflatex"
       ns2:pdfconverter="inkscape"
       ns2:text="$F_c$"
       ns2:preamble="C:\\Users\\zamcr\\AppData\\Roaming\\inkscape\\extensions\\textext\\default_packages.tex"
       ns2:scale="2.5019317814602955"
       ns2:alignment="middle center"
       ns2:inkscapeversion="1.1.1"
       ns2:jacobian_sqrt="0.882626"
       style="fill:#000000;stroke-width:0"
       id="g3209">
      <defs
         id="id-c357a12b-e6da-402f-ba62-ed624e09ed19"
         style="fill:#000000;stroke-width:0">
        <g
           id="id-2e5d7076-6606-4757-9195-e359a35a1c97"
           style="fill:#000000;stroke-width:0">
          <symbol
             overflow="visible"
             id="id-5b29c09e-606a-49fb-8ff4-54f56da05946"
             style="fill:#000000;stroke-width:0">
            <path
               style="stroke:none;fill:#000000;stroke-width:0"
               d=""
               id="id-ac97d783-94e0-48b8-94b1-6fcd1433a5b2" />
          </symbol>
          <symbol
             overflow="visible"
             id="id-3bb47ecf-7ee5-46d3-aacc-068e8133dc50"
             style="fill:#000000;stroke-width:0">
            <path
               style="stroke:none;fill:#000000;stroke-width:0"
               d="m 3.015625,-3.234375 h 0.96875 c 0.75,0 0.828125,0.15625 0.828125,0.4375 0,0.078125 0,0.1875 -0.0625,0.5 C 4.71875,-2.25 4.71875,-2.21875 4.71875,-2.1875 c 0,0.078125 0.0625,0.109375 0.109375,0.109375 0.109375,0 0.109375,-0.03125 0.15625,-0.203125 L 5.53125,-4.453125 C 5.5625,-4.5625 5.5625,-4.578125 5.5625,-4.609375 5.5625,-4.625 5.546875,-4.71875 5.4375,-4.71875 5.34375,-4.71875 5.328125,-4.671875 5.296875,-4.5 5.078125,-3.734375 4.859375,-3.546875 4,-3.546875 H 3.09375 l 0.640625,-2.53125 C 3.828125,-6.4375 3.84375,-6.46875 4.28125,-6.46875 h 1.3125 c 1.21875,0 1.453125,0.328125 1.453125,1.09375 0,0.234375 0,0.265625 -0.03125,0.546875 C 7,-4.703125 7,-4.6875 7,-4.65625 c 0,0.046875 0.03125,0.125 0.125,0.125 0.109375,0 0.109375,-0.0625 0.125,-0.25 L 7.453125,-6.515625 C 7.484375,-6.78125 7.4375,-6.78125 7.1875,-6.78125 H 2.296875 c -0.1875,0 -0.296875,0 -0.296875,0.203125 0,0.109375 0.09375,0.109375 0.28125,0.109375 0.375,0 0.65625,0 0.65625,0.171875 0,0.046875 0,0.0625 -0.0625,0.25 L 1.5625,-0.78125 c -0.09375,0.390625 -0.109375,0.46875 -0.90625,0.46875 -0.171875,0 -0.28125,0 -0.28125,0.1875 C 0.375,0 0.5,0 0.53125,0 0.8125,0 1.5625,-0.03125 1.84375,-0.03125 2.171875,-0.03125 3,0 3.328125,0 3.421875,0 3.53125,0 3.53125,-0.1875 3.53125,-0.265625 3.484375,-0.296875 3.484375,-0.296875 3.453125,-0.3125 3.421875,-0.3125 3.203125,-0.3125 c -0.21875,0 -0.265625,0 -0.515625,-0.015625 -0.296875,-0.03125 -0.328125,-0.078125 -0.328125,-0.203125 0,-0.015625 0,-0.078125 0.046875,-0.21875 z m 0,0"
               id="id-6edce344-26cf-4870-9ce6-9d7c3b177f21" />
          </symbol>
          <symbol
             overflow="visible"
             id="id-44cf63e6-b8ed-4983-a169-1646187fd247"
             style="fill:#000000;stroke-width:0">
            <path
               style="stroke:none;fill:#000000;stroke-width:0"
               d=""
               id="id-ef876d23-0875-47ff-abca-ba9f8c94826e" />
          </symbol>
          <symbol
             overflow="visible"
             id="id-51eef8fb-7f48-4d36-a6ec-d2bee23a0003"
             style="fill:#000000;stroke-width:0">
            <path
               style="stroke:none;fill:#000000;stroke-width:0"
               d="m 3.046875,-2.671875 c -0.25,0.046875 -0.34375,0.234375 -0.34375,0.390625 0,0.1875 0.140625,0.265625 0.265625,0.265625 0.15625,0 0.390625,-0.109375 0.390625,-0.453125 0,-0.46875 -0.53125,-0.609375 -0.90625,-0.609375 -1.046875,0 -2.015625,0.96875 -2.015625,1.9375 0,0.59375 0.40625,1.203125 1.28125,1.203125 1.1875,0 1.734375,-0.6875 1.734375,-0.78125 0,-0.046875 -0.0625,-0.125 -0.125,-0.125 -0.03125,0 -0.046875,0.015625 -0.109375,0.078125 C 2.671875,-0.125 1.859375,-0.125 1.734375,-0.125 c -0.5,0 -0.71875,-0.34375 -0.71875,-0.78125 0,-0.1875 0.09375,-0.953125 0.453125,-1.4375 0.265625,-0.34375 0.625,-0.53125 0.984375,-0.53125 0.09375,0 0.421875,0.015625 0.59375,0.203125 z m 0,0"
               id="id-2b78c9bf-4195-48f5-9e87-a60dbbbb8f9d" />
          </symbol>
        </g>
      </defs>
      <g
         id="id-6e390c48-43a3-46b0-8cb6-d046bb921cff"
         transform="translate(-149.087, -127.984)"
         style="fill:#000000;stroke-width:0">
        <g
           style="fill:#000000;fill-opacity:1;stroke-width:0"
           id="id-155156b9-070d-45bb-b388-bbe21990bdba">
          <g
             transform="translate(148.712, 134.765)"
             style="fill:#000000;stroke-width:0"
             id="g3201">
            <path
               style="stroke:none;fill:#000000;stroke-width:0"
               d="m 3.015625,-3.234375 h 0.96875 c 0.75,0 0.828125,0.15625 0.828125,0.4375 0,0.078125 0,0.1875 -0.0625,0.5 C 4.71875,-2.25 4.71875,-2.21875 4.71875,-2.1875 c 0,0.078125 0.0625,0.109375 0.109375,0.109375 0.109375,0 0.109375,-0.03125 0.15625,-0.203125 L 5.53125,-4.453125 C 5.5625,-4.5625 5.5625,-4.578125 5.5625,-4.609375 5.5625,-4.625 5.546875,-4.71875 5.4375,-4.71875 5.34375,-4.71875 5.328125,-4.671875 5.296875,-4.5 5.078125,-3.734375 4.859375,-3.546875 4,-3.546875 H 3.09375 l 0.640625,-2.53125 C 3.828125,-6.4375 3.84375,-6.46875 4.28125,-6.46875 h 1.3125 c 1.21875,0 1.453125,0.328125 1.453125,1.09375 0,0.234375 0,0.265625 -0.03125,0.546875 C 7,-4.703125 7,-4.6875 7,-4.65625 c 0,0.046875 0.03125,0.125 0.125,0.125 0.109375,0 0.109375,-0.0625 0.125,-0.25 L 7.453125,-6.515625 C 7.484375,-6.78125 7.4375,-6.78125 7.1875,-6.78125 H 2.296875 c -0.1875,0 -0.296875,0 -0.296875,0.203125 0,0.109375 0.09375,0.109375 0.28125,0.109375 0.375,0 0.65625,0 0.65625,0.171875 0,0.046875 0,0.0625 -0.0625,0.25 L 1.5625,-0.78125 c -0.09375,0.390625 -0.109375,0.46875 -0.90625,0.46875 -0.171875,0 -0.28125,0 -0.28125,0.1875 C 0.375,0 0.5,0 0.53125,0 0.8125,0 1.5625,-0.03125 1.84375,-0.03125 2.171875,-0.03125 3,0 3.328125,0 3.421875,0 3.53125,0 3.53125,-0.1875 3.53125,-0.265625 3.484375,-0.296875 3.484375,-0.296875 3.453125,-0.3125 3.421875,-0.3125 3.203125,-0.3125 c -0.21875,0 -0.265625,0 -0.515625,-0.015625 -0.296875,-0.03125 -0.328125,-0.078125 -0.328125,-0.203125 0,-0.015625 0,-0.078125 0.046875,-0.21875 z m 0,0"
               id="id-a8dbb023-b221-4924-85e7-b7aa2bd3df00" />
          </g>
        </g>
        <g
           style="fill:#000000;fill-opacity:1;stroke-width:0"
           id="id-3c55c4ef-13c0-4807-9074-f8f1b1cdd1ba">
          <g
             transform="translate(155.119, 136.259)"
             style="fill:#000000;stroke-width:0"
             id="g3205">
            <path
               style="stroke:none;fill:#000000;stroke-width:0"
               d="m 3.046875,-2.671875 c -0.25,0.046875 -0.34375,0.234375 -0.34375,0.390625 0,0.1875 0.140625,0.265625 0.265625,0.265625 0.15625,0 0.390625,-0.109375 0.390625,-0.453125 0,-0.46875 -0.53125,-0.609375 -0.90625,-0.609375 -1.046875,0 -2.015625,0.96875 -2.015625,1.9375 0,0.59375 0.40625,1.203125 1.28125,1.203125 1.1875,0 1.734375,-0.6875 1.734375,-0.78125 0,-0.046875 -0.0625,-0.125 -0.125,-0.125 -0.03125,0 -0.046875,0.015625 -0.109375,0.078125 C 2.671875,-0.125 1.859375,-0.125 1.734375,-0.125 c -0.5,0 -0.71875,-0.34375 -0.71875,-0.78125 0,-0.1875 0.09375,-0.953125 0.453125,-1.4375 0.265625,-0.34375 0.625,-0.53125 0.984375,-0.53125 0.09375,0 0.421875,0.015625 0.59375,0.203125 z m 0,0"
               id="id-23e8ff58-1a92-48ac-86cf-61e029937d59" />
          </g>
        </g>
      </g>
    </g>
    <g
       transform="matrix(0.882626,0,0,0.882626,58.340677,96.569579)"
       ns2:version="1.1.0"
       ns2:texconverter="pdflatex"
       ns2:pdfconverter="inkscape"
       ns2:text="$F_c$"
       ns2:preamble="C:\\Users\\zamcr\\AppData\\Roaming\\inkscape\\extensions\\textext\\default_packages.tex"
       ns2:scale="2.5019317814602955"
       ns2:alignment="middle center"
       ns2:inkscapeversion="1.1.1"
       ns2:jacobian_sqrt="0.882626"
       style="fill:#000000;stroke-width:0"
       id="g3363">
      <defs
         id="defs3347"
         style="fill:#000000;stroke-width:0">
        <g
           id="g3345"
           style="fill:#000000;stroke-width:0">
          <symbol
             overflow="visible"
             id="symbol3331"
             style="fill:#000000;stroke-width:0">
            <path
               style="fill:#000000;stroke:none;stroke-width:0"
               d=""
               id="path3329" />
          </symbol>
          <symbol
             overflow="visible"
             id="symbol3335"
             style="fill:#000000;stroke-width:0">
            <path
               style="fill:#000000;stroke:none;stroke-width:0"
               d="m 3.015625,-3.234375 h 0.96875 c 0.75,0 0.828125,0.15625 0.828125,0.4375 0,0.078125 0,0.1875 -0.0625,0.5 C 4.71875,-2.25 4.71875,-2.21875 4.71875,-2.1875 c 0,0.078125 0.0625,0.109375 0.109375,0.109375 0.109375,0 0.109375,-0.03125 0.15625,-0.203125 L 5.53125,-4.453125 C 5.5625,-4.5625 5.5625,-4.578125 5.5625,-4.609375 5.5625,-4.625 5.546875,-4.71875 5.4375,-4.71875 5.34375,-4.71875 5.328125,-4.671875 5.296875,-4.5 5.078125,-3.734375 4.859375,-3.546875 4,-3.546875 H 3.09375 l 0.640625,-2.53125 C 3.828125,-6.4375 3.84375,-6.46875 4.28125,-6.46875 h 1.3125 c 1.21875,0 1.453125,0.328125 1.453125,1.09375 0,0.234375 0,0.265625 -0.03125,0.546875 C 7,-4.703125 7,-4.6875 7,-4.65625 c 0,0.046875 0.03125,0.125 0.125,0.125 0.109375,0 0.109375,-0.0625 0.125,-0.25 L 7.453125,-6.515625 C 7.484375,-6.78125 7.4375,-6.78125 7.1875,-6.78125 H 2.296875 c -0.1875,0 -0.296875,0 -0.296875,0.203125 0,0.109375 0.09375,0.109375 0.28125,0.109375 0.375,0 0.65625,0 0.65625,0.171875 0,0.046875 0,0.0625 -0.0625,0.25 L 1.5625,-0.78125 c -0.09375,0.390625 -0.109375,0.46875 -0.90625,0.46875 -0.171875,0 -0.28125,0 -0.28125,0.1875 C 0.375,0 0.5,0 0.53125,0 0.8125,0 1.5625,-0.03125 1.84375,-0.03125 2.171875,-0.03125 3,0 3.328125,0 3.421875,0 3.53125,0 3.53125,-0.1875 3.53125,-0.265625 3.484375,-0.296875 3.484375,-0.296875 3.453125,-0.3125 3.421875,-0.3125 3.203125,-0.3125 c -0.21875,0 -0.265625,0 -0.515625,-0.015625 -0.296875,-0.03125 -0.328125,-0.078125 -0.328125,-0.203125 0,-0.015625 0,-0.078125 0.046875,-0.21875 z m 0,0"
               id="path3333" />
          </symbol>
          <symbol
             overflow="visible"
             id="symbol3339"
             style="fill:#000000;stroke-width:0">
            <path
               style="fill:#000000;stroke:none;stroke-width:0"
               d=""
               id="path3337" />
          </symbol>
          <symbol
             overflow="visible"
             id="symbol3343"
             style="fill:#000000;stroke-width:0">
            <path
               style="fill:#000000;stroke:none;stroke-width:0"
               d="m 3.046875,-2.671875 c -0.25,0.046875 -0.34375,0.234375 -0.34375,0.390625 0,0.1875 0.140625,0.265625 0.265625,0.265625 0.15625,0 0.390625,-0.109375 0.390625,-0.453125 0,-0.46875 -0.53125,-0.609375 -0.90625,-0.609375 -1.046875,0 -2.015625,0.96875 -2.015625,1.9375 0,0.59375 0.40625,1.203125 1.28125,1.203125 1.1875,0 1.734375,-0.6875 1.734375,-0.78125 0,-0.046875 -0.0625,-0.125 -0.125,-0.125 -0.03125,0 -0.046875,0.015625 -0.109375,0.078125 C 2.671875,-0.125 1.859375,-0.125 1.734375,-0.125 c -0.5,0 -0.71875,-0.34375 -0.71875,-0.78125 0,-0.1875 0.09375,-0.953125 0.453125,-1.4375 0.265625,-0.34375 0.625,-0.53125 0.984375,-0.53125 0.09375,0 0.421875,0.015625 0.59375,0.203125 z m 0,0"
               id="path3341" />
          </symbol>
        </g>
      </defs>
      <g
         id="g3361"
         transform="translate(-149.087,-127.984)"
         style="fill:#000000;stroke-width:0">
        <g
           style="fill:#000000;fill-opacity:1;stroke-width:0"
           id="g3353">
          <g
             transform="translate(148.712,134.765)"
             style="fill:#000000;stroke-width:0"
             id="g3351">
            <path
               style="fill:#000000;stroke:none;stroke-width:0"
               d="m 3.015625,-3.234375 h 0.96875 c 0.75,0 0.828125,0.15625 0.828125,0.4375 0,0.078125 0,0.1875 -0.0625,0.5 C 4.71875,-2.25 4.71875,-2.21875 4.71875,-2.1875 c 0,0.078125 0.0625,0.109375 0.109375,0.109375 0.109375,0 0.109375,-0.03125 0.15625,-0.203125 L 5.53125,-4.453125 C 5.5625,-4.5625 5.5625,-4.578125 5.5625,-4.609375 5.5625,-4.625 5.546875,-4.71875 5.4375,-4.71875 5.34375,-4.71875 5.328125,-4.671875 5.296875,-4.5 5.078125,-3.734375 4.859375,-3.546875 4,-3.546875 H 3.09375 l 0.640625,-2.53125 C 3.828125,-6.4375 3.84375,-6.46875 4.28125,-6.46875 h 1.3125 c 1.21875,0 1.453125,0.328125 1.453125,1.09375 0,0.234375 0,0.265625 -0.03125,0.546875 C 7,-4.703125 7,-4.6875 7,-4.65625 c 0,0.046875 0.03125,0.125 0.125,0.125 0.109375,0 0.109375,-0.0625 0.125,-0.25 L 7.453125,-6.515625 C 7.484375,-6.78125 7.4375,-6.78125 7.1875,-6.78125 H 2.296875 c -0.1875,0 -0.296875,0 -0.296875,0.203125 0,0.109375 0.09375,0.109375 0.28125,0.109375 0.375,0 0.65625,0 0.65625,0.171875 0,0.046875 0,0.0625 -0.0625,0.25 L 1.5625,-0.78125 c -0.09375,0.390625 -0.109375,0.46875 -0.90625,0.46875 -0.171875,0 -0.28125,0 -0.28125,0.1875 C 0.375,0 0.5,0 0.53125,0 0.8125,0 1.5625,-0.03125 1.84375,-0.03125 2.171875,-0.03125 3,0 3.328125,0 3.421875,0 3.53125,0 3.53125,-0.1875 3.53125,-0.265625 3.484375,-0.296875 3.484375,-0.296875 3.453125,-0.3125 3.421875,-0.3125 3.203125,-0.3125 c -0.21875,0 -0.265625,0 -0.515625,-0.015625 -0.296875,-0.03125 -0.328125,-0.078125 -0.328125,-0.203125 0,-0.015625 0,-0.078125 0.046875,-0.21875 z m 0,0"
               id="path3349" />
          </g>
        </g>
        <g
           style="fill:#000000;fill-opacity:1;stroke-width:0"
           id="g3359">
          <g
             transform="translate(155.119,136.259)"
             style="fill:#000000;stroke-width:0"
             id="g3357">
            <path
               style="fill:#000000;stroke:none;stroke-width:0"
               d="m 3.046875,-2.671875 c -0.25,0.046875 -0.34375,0.234375 -0.34375,0.390625 0,0.1875 0.140625,0.265625 0.265625,0.265625 0.15625,0 0.390625,-0.109375 0.390625,-0.453125 0,-0.46875 -0.53125,-0.609375 -0.90625,-0.609375 -1.046875,0 -2.015625,0.96875 -2.015625,1.9375 0,0.59375 0.40625,1.203125 1.28125,1.203125 1.1875,0 1.734375,-0.6875 1.734375,-0.78125 0,-0.046875 -0.0625,-0.125 -0.125,-0.125 -0.03125,0 -0.046875,0.015625 -0.109375,0.078125 C 2.671875,-0.125 1.859375,-0.125 1.734375,-0.125 c -0.5,0 -0.71875,-0.34375 -0.71875,-0.78125 0,-0.1875 0.09375,-0.953125 0.453125,-1.4375 0.265625,-0.34375 0.625,-0.53125 0.984375,-0.53125 0.09375,0 0.421875,0.015625 0.59375,0.203125 z m 0,0"
               id="path3355" />
          </g>
        </g>
      </g>
    </g>
  </g>
</svg>
