<?xml version="1.0" encoding="UTF-8" standalone="no"?>
<!-- Created with Inkscape (http://www.inkscape.org/) -->

<svg
   width="300.22824mm"
   height="242.47679mm"
   viewBox="0 0 300.22824 242.47679"
   version="1.1"
   id="svg5"
   sodipodi:docname="multilayer.svg"
   inkscape:version="1.1.1 (3bf5ae0d25, 2021-09-20)"
   xmlns:inkscape="http://www.inkscape.org/namespaces/inkscape"
   xmlns:sodipodi="http://sodipodi.sourceforge.net/DTD/sodipodi-0.dtd"
   xmlns="http://www.w3.org/2000/svg"
   xmlns:svg="http://www.w3.org/2000/svg"
   xmlns:ns2="http://www.iki.fi/pav/software/textext/">
  <sodipodi:namedview
     id="namedview7"
     pagecolor="#505050"
     bordercolor="#ffffff"
     borderopacity="1"
     inkscape:pageshadow="0"
     inkscape:pageopacity="0"
     inkscape:pagecheckerboard="1"
     inkscape:document-units="mm"
     showgrid="false"
     inkscape:zoom="0.405"
     inkscape:cx="662.96296"
     inkscape:cy="361.7284"
     inkscape:window-width="2400"
     inkscape:window-height="1271"
     inkscape:window-x="2395"
     inkscape:window-y="-9"
     inkscape:window-maximized="1"
     inkscape:current-layer="layer1"
     inkscape:snap-bbox="true"
     inkscape:bbox-paths="true"
     inkscape:bbox-nodes="true"
     inkscape:snap-bbox-edge-midpoints="true"
     inkscape:snap-bbox-midpoints="true" />
  <defs
     id="defs2">
    <marker
       style="overflow:visible"
       id="DotS"
       refX="0.0"
       refY="0.0"
       orient="auto"
       inkscape:stockid="DotS"
       inkscape:isstock="true">
      <path
         transform="scale(0.2) translate(7.4, 1)"
         style="fill-rule:evenodd;fill:context-stroke;stroke:context-stroke;stroke-width:1.0pt"
         d="M -2.5,-1.0 C -2.5,1.7600000 -4.7400000,4.0 -7.5,4.0 C -10.260000,4.0 -12.5,1.7600000 -12.5,-1.0 C -12.5,-3.7600000 -10.260000,-6.0 -7.5,-6.0 C -4.7400000,-6.0 -2.5,-3.7600000 -2.5,-1.0 z "
         id="path1535" />
    </marker>
    <marker
       style="overflow:visible"
       id="Arrow1Send"
       refX="0"
       refY="0"
       orient="auto"
       inkscape:stockid="Arrow1Send"
       inkscape:isstock="true">
      <path
         transform="matrix(-0.2,0,0,-0.2,-1.2,0)"
         style="fill:context-stroke;fill-rule:evenodd;stroke:context-stroke;stroke-width:1pt"
         d="M 0,0 5,-5 -12.5,0 5,5 Z"
         id="path7775" />
    </marker>
  </defs>
  <g
     inkscape:label="Layer 1"
     inkscape:groupmode="layer"
     id="layer1"
     transform="translate(42.889752,-28.697115)">
    <rect
       style="fill:#d6d2c4;stroke:none;stroke-width:1;stroke-linecap:round;stroke-dashoffset:1.44567;paint-order:stroke fill markers"
       id="rect853"
       width="299.30588"
       height="239.81366"
       x="-41.967392"
       y="31.360247" />
    <rect
       style="fill:#ac9393;stroke:none;stroke-width:0.867135;stroke-linecap:round;stroke-dashoffset:1.44567;paint-order:stroke fill markers"
       id="rect975"
       width="299.30588"
       height="180.32143"
       x="-41.967392"
       y="31.360247" />
    <rect
       style="fill:#ffe680;stroke:none;stroke-width:0.733799;stroke-linecap:round;stroke-dashoffset:1.44567;paint-order:stroke fill markers"
       id="rect995"
       width="299.30588"
       height="129.13043"
       x="-41.967392"
       y="31.360247" />
    <rect
       style="fill:#e9afaf;stroke:none;stroke-width:0.559876;stroke-linecap:round;stroke-dashoffset:1.44567;paint-order:stroke fill markers"
       id="rect1033"
       width="299.30588"
       height="75.172356"
       x="-41.967392"
       y="31.360247" />
    <path
       style="fill:none;stroke:#0000ff;stroke-width:3;stroke-linecap:butt;stroke-linejoin:miter;stroke-miterlimit:4;stroke-dasharray:none;stroke-opacity:1"
       d="M -42.889752,69.638198 H 257.20342"
       id="path1104"
       sodipodi:nodetypes="cc" />
    <path
       sodipodi:type="star"
       style="fill:#0000ff;stroke:none;stroke-width:11.3386;stroke-linecap:round;stroke-miterlimit:4;stroke-dasharray:none;stroke-dashoffset:1.44567;paint-order:stroke fill markers"
       id="path1241"
       inkscape:flatsided="true"
       sodipodi:sides="3"
       sodipodi:cx="-35.743008"
       sodipodi:cy="198.43532"
       sodipodi:r1="28.374683"
       sodipodi:r2="14.187342"
       sodipodi:arg1="1.5707963"
       sodipodi:arg2="2.6179939"
       inkscape:rounded="0"
       inkscape:randomized="0"
       d="m -35.743007,226.81 -24.573198,-42.56202 49.146394,0 z"
       transform="matrix(0.26458333,0,0,0.26458333,0,8.7187613)"
       inkscape:transform-center-y="1.8768664" />
    <path
       style="fill:none;stroke:#ff0000;stroke-width:2;stroke-linecap:butt;stroke-linejoin:miter;stroke-miterlimit:4;stroke-dasharray:4, 2;stroke-dashoffset:0;stroke-opacity:1"
       d="M -42.067363,242.94717 H 257.29573"
       id="path1553" />
    <path
       style="fill:none;stroke:#000000;stroke-width:3;stroke-linecap:butt;stroke-linejoin:miter;stroke-miterlimit:4;stroke-dasharray:none;stroke-opacity:1"
       d="M 24.131666,28.697115 V 250.12145"
       id="path1770" />
    <path
       style="fill:none;stroke:#000000;stroke-width:2;stroke-linecap:butt;stroke-linejoin:miter;stroke-miterlimit:4;stroke-dasharray:none;stroke-opacity:1"
       d="M 14.022454,242.29497 H 36.523601"
       id="path1967" />
    <path
       style="fill:none;stroke:#000000;stroke-width:2;stroke-linecap:butt;stroke-linejoin:miter;stroke-miterlimit:4;stroke-dasharray:none;stroke-opacity:1"
       d="M 14.022454,211.64123 H 36.523601"
       id="path2051" />
    <path
       style="fill:none;stroke:#000000;stroke-width:2;stroke-linecap:butt;stroke-linejoin:miter;stroke-miterlimit:4;stroke-dasharray:none;stroke-opacity:1"
       d="M 14.022454,160.44297 H 36.523601"
       id="path2053" />
    <path
       style="fill:none;stroke:#000000;stroke-width:2;stroke-linecap:butt;stroke-linejoin:miter;stroke-miterlimit:4;stroke-dasharray:none;stroke-opacity:1"
       d="M 14.022454,106.63588 H 36.523601"
       id="path2055" />
    <path
       style="fill:none;stroke:#000000;stroke-width:2;stroke-linecap:butt;stroke-linejoin:miter;stroke-miterlimit:4;stroke-dasharray:none;stroke-opacity:1"
       d="M 14.022454,69.133962 H 36.523601"
       id="path2057" />
    <path
       style="fill:none;stroke:#000000;stroke-width:2;stroke-linecap:butt;stroke-linejoin:miter;stroke-miterlimit:4;stroke-dasharray:none;stroke-opacity:1"
       d="M 14.022454,31.632049 H 36.523601"
       id="path2049" />
    <g
       transform="matrix(1.75507,0,0,1.75507,29.562508,43.81262)"
       ns2:version="1.1.0"
       ns2:texconverter="pdflatex"
       ns2:pdfconverter="inkscape"
       ns2:text="$h_1$"
       ns2:preamble="C:\\Users\\zamcr\\AppData\\Roaming\\inkscape\\extensions\\textext\\default_packages.tex"
       ns2:scale="4.975"
       ns2:alignment="middle center"
       ns2:jacobian_sqrt="1.75507"
       id="g2112"
       style="fill:#faffff">
      <defs
         id="id-a3812549-8a9a-4aa3-8859-2b880c632635">
        <g
           id="id-947c34c4-51ed-4082-a77d-15be9aeb190c">
          <symbol
             overflow="visible"
             id="id-4041f585-799e-4b3c-b20e-94924ab772e9">
            <path
               style="stroke:none"
               d=""
               id="id-b4395711-d4e7-4916-9a37-d075bf881f29" />
          </symbol>
          <symbol
             overflow="visible"
             id="id-fc0e81ae-8b2c-43bb-b6b6-b4e1df7b4d3a">
            <path
               style="stroke:none"
               d="m 2.859375,-6.8125 c 0,0 0,-0.109375 -0.125,-0.109375 -0.234375,0 -0.953125,0.078125 -1.21875,0.109375 -0.078125,0 -0.1875,0.015625 -0.1875,0.1875 0,0.125 0.09375,0.125 0.234375,0.125 0.484375,0 0.5,0.0625 0.5,0.171875 L 2.03125,-6.125 0.59375,-0.390625 c -0.046875,0.140625 -0.046875,0.15625 -0.046875,0.21875 0,0.234375 0.203125,0.28125 0.296875,0.28125 0.15625,0 0.3125,-0.125 0.359375,-0.265625 l 0.1875,-0.75 0.21875,-0.890625 C 1.671875,-2.03125 1.734375,-2.25 1.78125,-2.46875 1.796875,-2.53125 1.890625,-2.859375 1.890625,-2.921875 1.921875,-3.015625 2.234375,-3.5625 2.578125,-3.84375 2.796875,-4 3.09375,-4.1875 3.53125,-4.1875 c 0.421875,0 0.53125,0.34375 0.53125,0.703125 0,0.53125 -0.375,1.625 -0.609375,2.234375 C 3.375,-1.03125 3.3125,-0.90625 3.3125,-0.703125 c 0,0.46875 0.359375,0.8125 0.828125,0.8125 0.9375,0 1.296875,-1.453125 1.296875,-1.53125 0,-0.109375 -0.078125,-0.109375 -0.109375,-0.109375 -0.109375,0 -0.109375,0.03125 -0.15625,0.1875 -0.140625,0.53125 -0.46875,1.234375 -1.015625,1.234375 -0.171875,0 -0.234375,-0.09375 -0.234375,-0.328125 0,-0.25 0.078125,-0.484375 0.171875,-0.703125 0.15625,-0.4375 0.609375,-1.625 0.609375,-2.203125 0,-0.640625 -0.390625,-1.0625 -1.140625,-1.0625 -0.625,0 -1.109375,0.3125 -1.484375,0.765625 z m 0,0"
               id="id-621321af-1fa8-48e6-b027-74ee8b54f156" />
          </symbol>
          <symbol
             overflow="visible"
             id="id-2ab69215-b231-442f-9af8-c89959d04a61">
            <path
               style="stroke:none"
               d=""
               id="id-47a2a655-b2af-492d-8191-69b59dc7a7fe" />
          </symbol>
          <symbol
             overflow="visible"
             id="id-117cc795-dce1-40fc-a2ea-79a3b5022bf5">
            <path
               style="stroke:none"
               d="m 2.328125,-4.4375 c 0,-0.1875 0,-0.1875 -0.203125,-0.1875 -0.453125,0.4375 -1.078125,0.4375 -1.359375,0.4375 v 0.25 c 0.15625,0 0.625,0 1,-0.1875 v 3.546875 c 0,0.234375 0,0.328125 -0.6875,0.328125 H 0.8125 V 0 c 0.125,0 0.984375,-0.03125 1.234375,-0.03125 0.21875,0 1.09375,0.03125 1.25,0.03125 V -0.25 H 3.03125 c -0.703125,0 -0.703125,-0.09375 -0.703125,-0.328125 z m 0,0"
               id="id-19dd972d-db2c-4135-b8fa-4514df418149" />
          </symbol>
        </g>
      </defs>
      <g
         id="id-993c5abc-4909-4562-aa59-53316950b62c"
         transform="translate(-149.259,-127.843)"
         style="fill:#faffff">
        <g
           style="fill:#faffff;fill-opacity:1"
           id="id-a6146f65-6d13-4519-8127-a081925a2328">
          <g
             transform="translate(148.712,134.765)"
             id="g2104"
             style="fill:#faffff">
            <path
               style="fill:#000000;stroke:none"
               d="m 2.859375,-6.8125 c 0,0 0,-0.109375 -0.125,-0.109375 -0.234375,0 -0.953125,0.078125 -1.21875,0.109375 -0.078125,0 -0.1875,0.015625 -0.1875,0.1875 0,0.125 0.09375,0.125 0.234375,0.125 0.484375,0 0.5,0.0625 0.5,0.171875 L 2.03125,-6.125 0.59375,-0.390625 c -0.046875,0.140625 -0.046875,0.15625 -0.046875,0.21875 0,0.234375 0.203125,0.28125 0.296875,0.28125 0.15625,0 0.3125,-0.125 0.359375,-0.265625 l 0.1875,-0.75 0.21875,-0.890625 C 1.671875,-2.03125 1.734375,-2.25 1.78125,-2.46875 1.796875,-2.53125 1.890625,-2.859375 1.890625,-2.921875 1.921875,-3.015625 2.234375,-3.5625 2.578125,-3.84375 2.796875,-4 3.09375,-4.1875 3.53125,-4.1875 c 0.421875,0 0.53125,0.34375 0.53125,0.703125 0,0.53125 -0.375,1.625 -0.609375,2.234375 C 3.375,-1.03125 3.3125,-0.90625 3.3125,-0.703125 c 0,0.46875 0.359375,0.8125 0.828125,0.8125 0.9375,0 1.296875,-1.453125 1.296875,-1.53125 0,-0.109375 -0.078125,-0.109375 -0.109375,-0.109375 -0.109375,0 -0.109375,0.03125 -0.15625,0.1875 -0.140625,0.53125 -0.46875,1.234375 -1.015625,1.234375 -0.171875,0 -0.234375,-0.09375 -0.234375,-0.328125 0,-0.25 0.078125,-0.484375 0.171875,-0.703125 0.15625,-0.4375 0.609375,-1.625 0.609375,-2.203125 0,-0.640625 -0.390625,-1.0625 -1.140625,-1.0625 -0.625,0 -1.109375,0.3125 -1.484375,0.765625 z m 0,0"
               id="id-5eca836e-3100-4f10-aa33-f937047fe6e0" />
          </g>
        </g>
        <g
           style="fill:#faffff;fill-opacity:1"
           id="id-5c49ce40-3a39-4959-b4ba-3a54a6b5a134">
          <g
             transform="translate(154.452,136.259)"
             id="g2108"
             style="fill:#faffff">
            <path
               style="fill:#000000;stroke:none"
               d="m 2.328125,-4.4375 c 0,-0.1875 0,-0.1875 -0.203125,-0.1875 -0.453125,0.4375 -1.078125,0.4375 -1.359375,0.4375 v 0.25 c 0.15625,0 0.625,0 1,-0.1875 v 3.546875 c 0,0.234375 0,0.328125 -0.6875,0.328125 H 0.8125 V 0 c 0.125,0 0.984375,-0.03125 1.234375,-0.03125 0.21875,0 1.09375,0.03125 1.25,0.03125 V -0.25 H 3.03125 c -0.703125,0 -0.703125,-0.09375 -0.703125,-0.328125 z m 0,0"
               id="id-d1e0b8f8-982d-4458-9fe1-e32c182f1bfa" />
          </g>
        </g>
      </g>
    </g>
    <g
       transform="matrix(1.75507,0,0,1.75507,29.3703,81.3147)"
       ns2:version="1.1.0"
       ns2:texconverter="pdflatex"
       ns2:pdfconverter="inkscape"
       ns2:text="$h_2$"
       ns2:preamble="C:\\Users\\zamcr\\AppData\\Roaming\\inkscape\\extensions\\textext\\default_packages.tex"
       ns2:scale="4.975"
       ns2:alignment="middle center"
       ns2:jacobian_sqrt="1.75507"
       style="fill:#faffff;stroke-width:0"
       id="g3691">
      <defs
         id="id-967304dc-605f-40ff-af39-47a6bf19268e"
         style="fill:#faffff;stroke-width:0">
        <g
           id="id-e0deca6c-47fc-4627-81d5-bb79fb40a3dd"
           style="fill:#faffff;stroke-width:0">
          <symbol
             overflow="visible"
             id="id-4e5c9461-2430-41fb-8862-85cfcc758b84"
             style="fill:#faffff;stroke-width:0">
            <path
               style="fill:#faffff;stroke:none;stroke-width:0"
               d=""
               id="id-49da111d-349f-43c6-ad85-063fead7968d" />
          </symbol>
          <symbol
             overflow="visible"
             id="id-69779909-a7aa-4545-9e74-dbfbe4379faf"
             style="fill:#faffff;stroke-width:0">
            <path
               style="fill:#faffff;stroke:none;stroke-width:0"
               d="m 2.859375,-6.8125 c 0,0 0,-0.109375 -0.125,-0.109375 -0.234375,0 -0.953125,0.078125 -1.21875,0.109375 -0.078125,0 -0.1875,0.015625 -0.1875,0.1875 0,0.125 0.09375,0.125 0.234375,0.125 0.484375,0 0.5,0.0625 0.5,0.171875 L 2.03125,-6.125 0.59375,-0.390625 c -0.046875,0.140625 -0.046875,0.15625 -0.046875,0.21875 0,0.234375 0.203125,0.28125 0.296875,0.28125 0.15625,0 0.3125,-0.125 0.359375,-0.265625 l 0.1875,-0.75 0.21875,-0.890625 C 1.671875,-2.03125 1.734375,-2.25 1.78125,-2.46875 1.796875,-2.53125 1.890625,-2.859375 1.890625,-2.921875 1.921875,-3.015625 2.234375,-3.5625 2.578125,-3.84375 2.796875,-4 3.09375,-4.1875 3.53125,-4.1875 c 0.421875,0 0.53125,0.34375 0.53125,0.703125 0,0.53125 -0.375,1.625 -0.609375,2.234375 C 3.375,-1.03125 3.3125,-0.90625 3.3125,-0.703125 c 0,0.46875 0.359375,0.8125 0.828125,0.8125 0.9375,0 1.296875,-1.453125 1.296875,-1.53125 0,-0.109375 -0.078125,-0.109375 -0.109375,-0.109375 -0.109375,0 -0.109375,0.03125 -0.15625,0.1875 -0.140625,0.53125 -0.46875,1.234375 -1.015625,1.234375 -0.171875,0 -0.234375,-0.09375 -0.234375,-0.328125 0,-0.25 0.078125,-0.484375 0.171875,-0.703125 0.15625,-0.4375 0.609375,-1.625 0.609375,-2.203125 0,-0.640625 -0.390625,-1.0625 -1.140625,-1.0625 -0.625,0 -1.109375,0.3125 -1.484375,0.765625 z m 0,0"
               id="id-9e5323a1-7686-490c-980c-2237e707a939" />
          </symbol>
          <symbol
             overflow="visible"
             id="id-de31a817-8caf-4ec8-b502-dad7281eeab2"
             style="fill:#faffff;stroke-width:0">
            <path
               style="fill:#faffff;stroke:none;stroke-width:0"
               d=""
               id="id-d53feaf0-063c-4f61-b97a-e06299a03355" />
          </symbol>
          <symbol
             overflow="visible"
             id="id-9b670e10-2f54-4254-905c-ad46afdb2939"
             style="fill:#faffff;stroke-width:0">
            <path
               style="fill:#faffff;stroke:none;stroke-width:0"
               d="M 3.515625,-1.265625 H 3.28125 c -0.015625,0.15625 -0.09375,0.5625 -0.1875,0.625 C 3.046875,-0.59375 2.515625,-0.59375 2.40625,-0.59375 H 1.125 c 0.734375,-0.640625 0.984375,-0.84375 1.390625,-1.171875 0.515625,-0.40625 1,-0.84375 1,-1.5 0,-0.84375 -0.734375,-1.359375 -1.625,-1.359375 -0.859375,0 -1.453125,0.609375 -1.453125,1.25 0,0.34375 0.296875,0.390625 0.375,0.390625 0.15625,0 0.359375,-0.125 0.359375,-0.375 0,-0.125 -0.046875,-0.375 -0.40625,-0.375 C 0.984375,-4.21875 1.453125,-4.375 1.78125,-4.375 c 0.703125,0 1.0625,0.546875 1.0625,1.109375 0,0.609375 -0.4375,1.078125 -0.65625,1.328125 L 0.515625,-0.265625 C 0.4375,-0.203125 0.4375,-0.1875 0.4375,0 h 2.875 z m 0,0"
               id="id-840d9dc2-9aa5-41b4-b611-44d5210c830d" />
          </symbol>
        </g>
      </defs>
      <g
         id="id-f3b24f40-eb23-4645-b7a7-9506cd8e09b9"
         transform="translate(-149.259,-127.843)"
         style="fill:#faffff;stroke-width:0">
        <g
           style="fill:#faffff;fill-opacity:1;stroke-width:0"
           id="id-fed5af1f-a190-4a7b-97ca-5f3e35a37b71">
          <g
             transform="translate(148.712,134.765)"
             style="fill:#faffff;stroke-width:0"
             id="g3683">
            <path
               style="fill:#000000;stroke:none;stroke-width:0"
               d="m 2.859375,-6.8125 c 0,0 0,-0.109375 -0.125,-0.109375 -0.234375,0 -0.953125,0.078125 -1.21875,0.109375 -0.078125,0 -0.1875,0.015625 -0.1875,0.1875 0,0.125 0.09375,0.125 0.234375,0.125 0.484375,0 0.5,0.0625 0.5,0.171875 L 2.03125,-6.125 0.59375,-0.390625 c -0.046875,0.140625 -0.046875,0.15625 -0.046875,0.21875 0,0.234375 0.203125,0.28125 0.296875,0.28125 0.15625,0 0.3125,-0.125 0.359375,-0.265625 l 0.1875,-0.75 0.21875,-0.890625 C 1.671875,-2.03125 1.734375,-2.25 1.78125,-2.46875 1.796875,-2.53125 1.890625,-2.859375 1.890625,-2.921875 1.921875,-3.015625 2.234375,-3.5625 2.578125,-3.84375 2.796875,-4 3.09375,-4.1875 3.53125,-4.1875 c 0.421875,0 0.53125,0.34375 0.53125,0.703125 0,0.53125 -0.375,1.625 -0.609375,2.234375 C 3.375,-1.03125 3.3125,-0.90625 3.3125,-0.703125 c 0,0.46875 0.359375,0.8125 0.828125,0.8125 0.9375,0 1.296875,-1.453125 1.296875,-1.53125 0,-0.109375 -0.078125,-0.109375 -0.109375,-0.109375 -0.109375,0 -0.109375,0.03125 -0.15625,0.1875 -0.140625,0.53125 -0.46875,1.234375 -1.015625,1.234375 -0.171875,0 -0.234375,-0.09375 -0.234375,-0.328125 0,-0.25 0.078125,-0.484375 0.171875,-0.703125 0.15625,-0.4375 0.609375,-1.625 0.609375,-2.203125 0,-0.640625 -0.390625,-1.0625 -1.140625,-1.0625 -0.625,0 -1.109375,0.3125 -1.484375,0.765625 z m 0,0"
               id="id-ec89cb77-8919-4910-b495-bdbeb91bebde" />
          </g>
        </g>
        <g
           style="fill:#faffff;fill-opacity:1;stroke-width:0"
           id="id-5091ebb7-904e-4fbd-9ed7-b91a2390f8bf">
          <g
             transform="translate(154.452,136.259)"
             style="fill:#faffff;stroke-width:0"
             id="g3687">
            <path
               style="fill:#000000;stroke:none;stroke-width:0"
               d="M 3.515625,-1.265625 H 3.28125 c -0.015625,0.15625 -0.09375,0.5625 -0.1875,0.625 C 3.046875,-0.59375 2.515625,-0.59375 2.40625,-0.59375 H 1.125 c 0.734375,-0.640625 0.984375,-0.84375 1.390625,-1.171875 0.515625,-0.40625 1,-0.84375 1,-1.5 0,-0.84375 -0.734375,-1.359375 -1.625,-1.359375 -0.859375,0 -1.453125,0.609375 -1.453125,1.25 0,0.34375 0.296875,0.390625 0.375,0.390625 0.15625,0 0.359375,-0.125 0.359375,-0.375 0,-0.125 -0.046875,-0.375 -0.40625,-0.375 C 0.984375,-4.21875 1.453125,-4.375 1.78125,-4.375 c 0.703125,0 1.0625,0.546875 1.0625,1.109375 0,0.609375 -0.4375,1.078125 -0.65625,1.328125 L 0.515625,-0.265625 C 0.4375,-0.203125 0.4375,-0.1875 0.4375,0 h 2.875 z m 0,0"
               id="id-b6d0be4d-86f9-4f38-bc2c-f578256cbae5" />
          </g>
        </g>
      </g>
    </g>
    <g
       transform="matrix(1.75507,0,0,1.75507,29.3155,125.542)"
       ns2:version="1.1.0"
       ns2:texconverter="pdflatex"
       ns2:pdfconverter="inkscape"
       ns2:text="$h_3$"
       ns2:preamble="C:\\Users\\zamcr\\AppData\\Roaming\\inkscape\\extensions\\textext\\default_packages.tex"
       ns2:scale="4.975"
       ns2:alignment="middle center"
       ns2:jacobian_sqrt="1.75507"
       style="fill:#faffff;stroke-width:0"
       id="g4066">
      <defs
         id="id-03e7d3c7-f882-4e3e-ad08-16c15aa3d4a3"
         style="fill:#faffff;stroke-width:0">
        <g
           id="id-3333977b-1427-42eb-b457-2dbc6c71ded1"
           style="fill:#faffff;stroke-width:0">
          <symbol
             overflow="visible"
             id="id-283f3b4f-91ee-430b-be04-3b30dcf41a19"
             style="fill:#faffff;stroke-width:0">
            <path
               style="fill:#faffff;stroke:none;stroke-width:0"
               d=""
               id="id-ef847584-1670-4902-875c-773e909fc031" />
          </symbol>
          <symbol
             overflow="visible"
             id="id-a84690ac-364a-4b25-8a44-f81258877e7d"
             style="fill:#faffff;stroke-width:0">
            <path
               style="fill:#faffff;stroke:none;stroke-width:0"
               d="m 2.859375,-6.8125 c 0,0 0,-0.109375 -0.125,-0.109375 -0.234375,0 -0.953125,0.078125 -1.21875,0.109375 -0.078125,0 -0.1875,0.015625 -0.1875,0.1875 0,0.125 0.09375,0.125 0.234375,0.125 0.484375,0 0.5,0.0625 0.5,0.171875 L 2.03125,-6.125 0.59375,-0.390625 c -0.046875,0.140625 -0.046875,0.15625 -0.046875,0.21875 0,0.234375 0.203125,0.28125 0.296875,0.28125 0.15625,0 0.3125,-0.125 0.359375,-0.265625 l 0.1875,-0.75 0.21875,-0.890625 C 1.671875,-2.03125 1.734375,-2.25 1.78125,-2.46875 1.796875,-2.53125 1.890625,-2.859375 1.890625,-2.921875 1.921875,-3.015625 2.234375,-3.5625 2.578125,-3.84375 2.796875,-4 3.09375,-4.1875 3.53125,-4.1875 c 0.421875,0 0.53125,0.34375 0.53125,0.703125 0,0.53125 -0.375,1.625 -0.609375,2.234375 C 3.375,-1.03125 3.3125,-0.90625 3.3125,-0.703125 c 0,0.46875 0.359375,0.8125 0.828125,0.8125 0.9375,0 1.296875,-1.453125 1.296875,-1.53125 0,-0.109375 -0.078125,-0.109375 -0.109375,-0.109375 -0.109375,0 -0.109375,0.03125 -0.15625,0.1875 -0.140625,0.53125 -0.46875,1.234375 -1.015625,1.234375 -0.171875,0 -0.234375,-0.09375 -0.234375,-0.328125 0,-0.25 0.078125,-0.484375 0.171875,-0.703125 0.15625,-0.4375 0.609375,-1.625 0.609375,-2.203125 0,-0.640625 -0.390625,-1.0625 -1.140625,-1.0625 -0.625,0 -1.109375,0.3125 -1.484375,0.765625 z m 0,0"
               id="id-8f90f4a7-6eac-4203-9172-ec8588373a9f" />
          </symbol>
          <symbol
             overflow="visible"
             id="id-66524725-f96a-4f6a-8c01-b4e383c4aa7b"
             style="fill:#faffff;stroke-width:0">
            <path
               style="fill:#faffff;stroke:none;stroke-width:0"
               d=""
               id="id-2809ff62-4315-496d-b61d-27326641159b" />
          </symbol>
          <symbol
             overflow="visible"
             id="id-c487dd54-a9d9-4f8e-a96a-cc3ce9d32950"
             style="fill:#faffff;stroke-width:0">
            <path
               style="fill:#faffff;stroke:none;stroke-width:0"
               d="m 1.90625,-2.328125 c 0.546875,0 0.9375,0.375 0.9375,1.125 0,0.859375 -0.515625,1.125 -0.90625,1.125 -0.28125,0 -0.90625,-0.078125 -1.1875,-0.5 0.328125,0 0.40625,-0.234375 0.40625,-0.390625 0,-0.21875 -0.171875,-0.375 -0.390625,-0.375 -0.1875,0 -0.390625,0.125 -0.390625,0.40625 0,0.65625 0.71875,1.078125 1.5625,1.078125 0.96875,0 1.640625,-0.65625 1.640625,-1.34375 0,-0.546875 -0.4375,-1.09375 -1.203125,-1.25 0.71875,-0.265625 0.984375,-0.78125 0.984375,-1.21875 0,-0.546875 -0.625,-0.953125 -1.40625,-0.953125 -0.765625,0 -1.359375,0.375 -1.359375,0.9375 0,0.234375 0.15625,0.359375 0.359375,0.359375 0.21875,0 0.359375,-0.15625 0.359375,-0.34375 0,-0.203125 -0.140625,-0.359375 -0.359375,-0.375 0.25,-0.296875 0.71875,-0.375 0.984375,-0.375 0.3125,0 0.75,0.15625 0.75,0.75 0,0.296875 -0.09375,0.625 -0.28125,0.828125 -0.21875,0.265625 -0.421875,0.28125 -0.765625,0.3125 -0.171875,0.015625 -0.1875,0.015625 -0.21875,0.015625 -0.015625,0 -0.078125,0.015625 -0.078125,0.09375 0,0.09375 0.0625,0.09375 0.1875,0.09375 z m 0,0"
               id="id-6eb0e1ca-e0c4-480d-9912-2efdc03bafb6" />
          </symbol>
        </g>
      </defs>
      <g
         id="id-906d21df-3ab4-4dbb-841a-b7e68cd775c3"
         transform="translate(-149.259,-127.843)"
         style="fill:#faffff;stroke-width:0">
        <g
           style="fill:#faffff;fill-opacity:1;stroke-width:0"
           id="id-50cd55d7-28c2-42c3-8b3f-cfd690827109">
          <g
             transform="translate(148.712,134.765)"
             style="fill:#faffff;stroke-width:0"
             id="g4058">
            <path
               style="fill:#000000;stroke:none;stroke-width:0"
               d="m 2.859375,-6.8125 c 0,0 0,-0.109375 -0.125,-0.109375 -0.234375,0 -0.953125,0.078125 -1.21875,0.109375 -0.078125,0 -0.1875,0.015625 -0.1875,0.1875 0,0.125 0.09375,0.125 0.234375,0.125 0.484375,0 0.5,0.0625 0.5,0.171875 L 2.03125,-6.125 0.59375,-0.390625 c -0.046875,0.140625 -0.046875,0.15625 -0.046875,0.21875 0,0.234375 0.203125,0.28125 0.296875,0.28125 0.15625,0 0.3125,-0.125 0.359375,-0.265625 l 0.1875,-0.75 0.21875,-0.890625 C 1.671875,-2.03125 1.734375,-2.25 1.78125,-2.46875 1.796875,-2.53125 1.890625,-2.859375 1.890625,-2.921875 1.921875,-3.015625 2.234375,-3.5625 2.578125,-3.84375 2.796875,-4 3.09375,-4.1875 3.53125,-4.1875 c 0.421875,0 0.53125,0.34375 0.53125,0.703125 0,0.53125 -0.375,1.625 -0.609375,2.234375 C 3.375,-1.03125 3.3125,-0.90625 3.3125,-0.703125 c 0,0.46875 0.359375,0.8125 0.828125,0.8125 0.9375,0 1.296875,-1.453125 1.296875,-1.53125 0,-0.109375 -0.078125,-0.109375 -0.109375,-0.109375 -0.109375,0 -0.109375,0.03125 -0.15625,0.1875 -0.140625,0.53125 -0.46875,1.234375 -1.015625,1.234375 -0.171875,0 -0.234375,-0.09375 -0.234375,-0.328125 0,-0.25 0.078125,-0.484375 0.171875,-0.703125 0.15625,-0.4375 0.609375,-1.625 0.609375,-2.203125 0,-0.640625 -0.390625,-1.0625 -1.140625,-1.0625 -0.625,0 -1.109375,0.3125 -1.484375,0.765625 z m 0,0"
               id="id-7a6103e6-c50b-460a-8353-fb91383c3fd2" />
          </g>
        </g>
        <g
           style="fill:#faffff;fill-opacity:1;stroke-width:0"
           id="id-c96ec315-d0f9-4edb-92cd-f6bcc7719422">
          <g
             transform="translate(154.452,136.259)"
             style="fill:#faffff;stroke-width:0"
             id="g4062">
            <path
               style="fill:#000000;stroke:none;stroke-width:0"
               d="m 1.90625,-2.328125 c 0.546875,0 0.9375,0.375 0.9375,1.125 0,0.859375 -0.515625,1.125 -0.90625,1.125 -0.28125,0 -0.90625,-0.078125 -1.1875,-0.5 0.328125,0 0.40625,-0.234375 0.40625,-0.390625 0,-0.21875 -0.171875,-0.375 -0.390625,-0.375 -0.1875,0 -0.390625,0.125 -0.390625,0.40625 0,0.65625 0.71875,1.078125 1.5625,1.078125 0.96875,0 1.640625,-0.65625 1.640625,-1.34375 0,-0.546875 -0.4375,-1.09375 -1.203125,-1.25 0.71875,-0.265625 0.984375,-0.78125 0.984375,-1.21875 0,-0.546875 -0.625,-0.953125 -1.40625,-0.953125 -0.765625,0 -1.359375,0.375 -1.359375,0.9375 0,0.234375 0.15625,0.359375 0.359375,0.359375 0.21875,0 0.359375,-0.15625 0.359375,-0.34375 0,-0.203125 -0.140625,-0.359375 -0.359375,-0.375 0.25,-0.296875 0.71875,-0.375 0.984375,-0.375 0.3125,0 0.75,0.15625 0.75,0.75 0,0.296875 -0.09375,0.625 -0.28125,0.828125 -0.21875,0.265625 -0.421875,0.28125 -0.765625,0.3125 -0.171875,0.015625 -0.1875,0.015625 -0.21875,0.015625 -0.015625,0 -0.078125,0.015625 -0.078125,0.09375 0,0.09375 0.0625,0.09375 0.1875,0.09375 z m 0,0"
               id="id-8cff98f8-1bde-44f6-9a49-6236d5373d82" />
          </g>
        </g>
      </g>
    </g>
    <g
       transform="matrix(1.75507,0,0,1.75507,29.2195,180.45)"
       ns2:version="1.1.0"
       ns2:texconverter="pdflatex"
       ns2:pdfconverter="inkscape"
       ns2:text="$h_4$"
       ns2:preamble="C:\\Users\\zamcr\\AppData\\Roaming\\inkscape\\extensions\\textext\\default_packages.tex"
       ns2:scale="4.975"
       ns2:alignment="middle center"
       ns2:jacobian_sqrt="1.75507"
       style="fill:#faffff;stroke-width:0"
       id="g4441">
      <defs
         id="id-2125d33b-2e3a-4ff3-94f4-a1211cd782f5"
         style="fill:#faffff;stroke-width:0">
        <g
           id="id-0714d57b-723e-4df5-8e7c-b3a7b24178f1"
           style="fill:#faffff;stroke-width:0">
          <symbol
             overflow="visible"
             id="id-9f9d16b8-73e4-45ba-bb52-9e7b7664f299"
             style="fill:#faffff;stroke-width:0">
            <path
               style="fill:#faffff;stroke:none;stroke-width:0"
               d=""
               id="id-1bf62d9e-04e7-48b9-9e61-93df181cd150" />
          </symbol>
          <symbol
             overflow="visible"
             id="id-2fbf1b0a-dd37-4814-9576-0125aa8ffb19"
             style="fill:#faffff;stroke-width:0">
            <path
               style="fill:#faffff;stroke:none;stroke-width:0"
               d="m 2.859375,-6.8125 c 0,0 0,-0.109375 -0.125,-0.109375 -0.234375,0 -0.953125,0.078125 -1.21875,0.109375 -0.078125,0 -0.1875,0.015625 -0.1875,0.1875 0,0.125 0.09375,0.125 0.234375,0.125 0.484375,0 0.5,0.0625 0.5,0.171875 L 2.03125,-6.125 0.59375,-0.390625 c -0.046875,0.140625 -0.046875,0.15625 -0.046875,0.21875 0,0.234375 0.203125,0.28125 0.296875,0.28125 0.15625,0 0.3125,-0.125 0.359375,-0.265625 l 0.1875,-0.75 0.21875,-0.890625 C 1.671875,-2.03125 1.734375,-2.25 1.78125,-2.46875 1.796875,-2.53125 1.890625,-2.859375 1.890625,-2.921875 1.921875,-3.015625 2.234375,-3.5625 2.578125,-3.84375 2.796875,-4 3.09375,-4.1875 3.53125,-4.1875 c 0.421875,0 0.53125,0.34375 0.53125,0.703125 0,0.53125 -0.375,1.625 -0.609375,2.234375 C 3.375,-1.03125 3.3125,-0.90625 3.3125,-0.703125 c 0,0.46875 0.359375,0.8125 0.828125,0.8125 0.9375,0 1.296875,-1.453125 1.296875,-1.53125 0,-0.109375 -0.078125,-0.109375 -0.109375,-0.109375 -0.109375,0 -0.109375,0.03125 -0.15625,0.1875 -0.140625,0.53125 -0.46875,1.234375 -1.015625,1.234375 -0.171875,0 -0.234375,-0.09375 -0.234375,-0.328125 0,-0.25 0.078125,-0.484375 0.171875,-0.703125 0.15625,-0.4375 0.609375,-1.625 0.609375,-2.203125 0,-0.640625 -0.390625,-1.0625 -1.140625,-1.0625 -0.625,0 -1.109375,0.3125 -1.484375,0.765625 z m 0,0"
               id="id-2608152f-262b-4b3e-9227-c2c7eec00d8f" />
          </symbol>
          <symbol
             overflow="visible"
             id="id-232646e8-b90c-43ea-9f81-fb29c66450d2"
             style="fill:#faffff;stroke-width:0">
            <path
               style="fill:#faffff;stroke:none;stroke-width:0"
               d=""
               id="id-38161747-a1fa-45cb-8818-a0b27f742b5f" />
          </symbol>
          <symbol
             overflow="visible"
             id="id-ebbb790f-072f-43ca-b8fb-0478d21de325"
             style="fill:#faffff;stroke-width:0">
            <path
               style="fill:#faffff;stroke:none;stroke-width:0"
               d="m 3.6875,-1.140625 v -0.25 H 2.90625 V -4.5 c 0,-0.140625 0,-0.203125 -0.140625,-0.203125 -0.09375,0 -0.125,0 -0.1875,0.109375 l -2.3125,3.203125 v 0.25 h 2.0625 v 0.5625 c 0,0.25 0,0.328125 -0.578125,0.328125 H 1.5625 V 0 C 1.921875,-0.015625 2.359375,-0.03125 2.609375,-0.03125 2.875,-0.03125 3.3125,-0.015625 3.671875,0 v -0.25 h -0.1875 C 2.90625,-0.25 2.90625,-0.328125 2.90625,-0.578125 v -0.5625 z M 2.375,-3.9375 v 2.546875 H 0.53125 Z m 0,0"
               id="id-09209e91-b418-4796-9914-83d6f78647f3" />
          </symbol>
        </g>
      </defs>
      <g
         id="id-fca35163-8508-4897-be5f-5a7f9c8972cf"
         transform="translate(-149.259,-127.843)"
         style="fill:#faffff;stroke-width:0">
        <g
           style="fill:#faffff;fill-opacity:1;stroke-width:0"
           id="id-4709ed1a-ce2c-45d9-99e7-bbad8b7ce3f1">
          <g
             transform="translate(148.712,134.765)"
             style="fill:#faffff;stroke-width:0"
             id="g4433">
            <path
               style="fill:#000000;stroke:none;stroke-width:0"
               d="m 2.859375,-6.8125 c 0,0 0,-0.109375 -0.125,-0.109375 -0.234375,0 -0.953125,0.078125 -1.21875,0.109375 -0.078125,0 -0.1875,0.015625 -0.1875,0.1875 0,0.125 0.09375,0.125 0.234375,0.125 0.484375,0 0.5,0.0625 0.5,0.171875 L 2.03125,-6.125 0.59375,-0.390625 c -0.046875,0.140625 -0.046875,0.15625 -0.046875,0.21875 0,0.234375 0.203125,0.28125 0.296875,0.28125 0.15625,0 0.3125,-0.125 0.359375,-0.265625 l 0.1875,-0.75 0.21875,-0.890625 C 1.671875,-2.03125 1.734375,-2.25 1.78125,-2.46875 1.796875,-2.53125 1.890625,-2.859375 1.890625,-2.921875 1.921875,-3.015625 2.234375,-3.5625 2.578125,-3.84375 2.796875,-4 3.09375,-4.1875 3.53125,-4.1875 c 0.421875,0 0.53125,0.34375 0.53125,0.703125 0,0.53125 -0.375,1.625 -0.609375,2.234375 C 3.375,-1.03125 3.3125,-0.90625 3.3125,-0.703125 c 0,0.46875 0.359375,0.8125 0.828125,0.8125 0.9375,0 1.296875,-1.453125 1.296875,-1.53125 0,-0.109375 -0.078125,-0.109375 -0.109375,-0.109375 -0.109375,0 -0.109375,0.03125 -0.15625,0.1875 -0.140625,0.53125 -0.46875,1.234375 -1.015625,1.234375 -0.171875,0 -0.234375,-0.09375 -0.234375,-0.328125 0,-0.25 0.078125,-0.484375 0.171875,-0.703125 0.15625,-0.4375 0.609375,-1.625 0.609375,-2.203125 0,-0.640625 -0.390625,-1.0625 -1.140625,-1.0625 -0.625,0 -1.109375,0.3125 -1.484375,0.765625 z m 0,0"
               id="id-4ba72c45-3f25-422e-9bb3-cf2e617dd934" />
          </g>
        </g>
        <g
           style="fill:#faffff;fill-opacity:1;stroke-width:0"
           id="id-3a43ae25-0d70-403b-8e07-de99847c9855">
          <g
             transform="translate(154.452,136.259)"
             style="fill:#faffff;stroke-width:0"
             id="g4437">
            <path
               style="fill:#000000;stroke:none;stroke-width:0"
               d="m 3.6875,-1.140625 v -0.25 H 2.90625 V -4.5 c 0,-0.140625 0,-0.203125 -0.140625,-0.203125 -0.09375,0 -0.125,0 -0.1875,0.109375 l -2.3125,3.203125 v 0.25 h 2.0625 v 0.5625 c 0,0.25 0,0.328125 -0.578125,0.328125 H 1.5625 V 0 C 1.921875,-0.015625 2.359375,-0.03125 2.609375,-0.03125 2.875,-0.03125 3.3125,-0.015625 3.671875,0 v -0.25 h -0.1875 C 2.90625,-0.25 2.90625,-0.328125 2.90625,-0.578125 v -0.5625 z M 2.375,-3.9375 v 2.546875 H 0.53125 Z m 0,0"
               id="id-5edbd419-430d-44ad-a774-b8018063c185" />
          </g>
        </g>
      </g>
    </g>
    <g
       transform="matrix(1.75507,0,0,1.75507,29.3703,220.764)"
       ns2:version="1.1.0"
       ns2:texconverter="pdflatex"
       ns2:pdfconverter="inkscape"
       ns2:text="$h_5$"
       ns2:preamble="C:\\Users\\zamcr\\AppData\\Roaming\\inkscape\\extensions\\textext\\default_packages.tex"
       ns2:scale="4.975"
       ns2:alignment="middle center"
       ns2:jacobian_sqrt="1.75507"
       style="fill:#faffff;stroke-width:0"
       id="g4816">
      <defs
         id="id-03c2f2e1-c1a1-477f-9ab5-7b843e9ef27c"
         style="fill:#faffff;stroke-width:0">
        <g
           id="id-6b50fdb9-61b1-40e0-aa31-f506eba19ffd"
           style="fill:#faffff;stroke-width:0">
          <symbol
             overflow="visible"
             id="id-7c3823e9-b33a-453a-8357-e42de3a0bc20"
             style="fill:#faffff;stroke-width:0">
            <path
               style="fill:#faffff;stroke:none;stroke-width:0"
               d=""
               id="id-01b2042b-3958-4004-8fc2-ff3215566905" />
          </symbol>
          <symbol
             overflow="visible"
             id="id-3956c87f-226a-44ff-9a53-77701afaf265"
             style="fill:#faffff;stroke-width:0">
            <path
               style="fill:#faffff;stroke:none;stroke-width:0"
               d="m 2.859375,-6.8125 c 0,0 0,-0.109375 -0.125,-0.109375 -0.234375,0 -0.953125,0.078125 -1.21875,0.109375 -0.078125,0 -0.1875,0.015625 -0.1875,0.1875 0,0.125 0.09375,0.125 0.234375,0.125 0.484375,0 0.5,0.0625 0.5,0.171875 L 2.03125,-6.125 0.59375,-0.390625 c -0.046875,0.140625 -0.046875,0.15625 -0.046875,0.21875 0,0.234375 0.203125,0.28125 0.296875,0.28125 0.15625,0 0.3125,-0.125 0.359375,-0.265625 l 0.1875,-0.75 0.21875,-0.890625 C 1.671875,-2.03125 1.734375,-2.25 1.78125,-2.46875 1.796875,-2.53125 1.890625,-2.859375 1.890625,-2.921875 1.921875,-3.015625 2.234375,-3.5625 2.578125,-3.84375 2.796875,-4 3.09375,-4.1875 3.53125,-4.1875 c 0.421875,0 0.53125,0.34375 0.53125,0.703125 0,0.53125 -0.375,1.625 -0.609375,2.234375 C 3.375,-1.03125 3.3125,-0.90625 3.3125,-0.703125 c 0,0.46875 0.359375,0.8125 0.828125,0.8125 0.9375,0 1.296875,-1.453125 1.296875,-1.53125 0,-0.109375 -0.078125,-0.109375 -0.109375,-0.109375 -0.109375,0 -0.109375,0.03125 -0.15625,0.1875 -0.140625,0.53125 -0.46875,1.234375 -1.015625,1.234375 -0.171875,0 -0.234375,-0.09375 -0.234375,-0.328125 0,-0.25 0.078125,-0.484375 0.171875,-0.703125 0.15625,-0.4375 0.609375,-1.625 0.609375,-2.203125 0,-0.640625 -0.390625,-1.0625 -1.140625,-1.0625 -0.625,0 -1.109375,0.3125 -1.484375,0.765625 z m 0,0"
               id="id-308a1346-b09d-4894-a321-8cff2f72c2c7" />
          </symbol>
          <symbol
             overflow="visible"
             id="id-767ccaed-d531-4ceb-8a6e-5a33c045b415"
             style="fill:#faffff;stroke-width:0">
            <path
               style="fill:#faffff;stroke:none;stroke-width:0"
               d=""
               id="id-d26f962f-1d32-45e4-8887-34eb868355a1" />
          </symbol>
          <symbol
             overflow="visible"
             id="id-1570e39b-ab42-417d-8dba-10be2a373c99"
             style="fill:#faffff;stroke-width:0">
            <path
               style="fill:#faffff;stroke:none;stroke-width:0"
               d="m 1.078125,-3.890625 c 0.359375,0.09375 0.5625,0.09375 0.671875,0.09375 0.921875,0 1.46875,-0.625 1.46875,-0.734375 0,-0.078125 -0.046875,-0.09375 -0.078125,-0.09375 -0.015625,0 -0.03125,0 -0.0625,0.015625 -0.171875,0.0625 -0.53125,0.203125 -1.046875,0.203125 -0.203125,0 -0.5625,-0.015625 -1.015625,-0.1875 C 0.9375,-4.625 0.921875,-4.625 0.921875,-4.625 c -0.09375,0 -0.09375,0.078125 -0.09375,0.1875 v 2.046875 c 0,0.125 0,0.203125 0.109375,0.203125 0.0625,0 0.078125,0 0.140625,-0.09375 0.296875,-0.375 0.734375,-0.4375 0.96875,-0.4375 0.421875,0 0.609375,0.328125 0.640625,0.390625 0.125,0.234375 0.171875,0.5 0.171875,0.90625 0,0.203125 0,0.609375 -0.21875,0.921875 -0.171875,0.25 -0.46875,0.421875 -0.8125,0.421875 -0.453125,0 -0.921875,-0.25 -1.09375,-0.71875 0.265625,0.015625 0.40625,-0.15625 0.40625,-0.34375 0,-0.296875 -0.265625,-0.34375 -0.359375,-0.34375 0,0 -0.34375,0 -0.34375,0.375 0,0.625 0.578125,1.25 1.40625,1.25 0.890625,0 1.671875,-0.65625 1.671875,-1.546875 0,-0.78125 -0.59375,-1.5 -1.453125,-1.5 -0.3125,0 -0.671875,0.0625 -0.984375,0.328125 z m 0,0"
               id="id-a2260e89-59d6-43ec-8a91-e4ea2e834766" />
          </symbol>
        </g>
      </defs>
      <g
         id="id-120be855-d145-41e7-b617-12bfe83ed5d4"
         transform="translate(-149.259,-127.843)"
         style="fill:#faffff;stroke-width:0">
        <g
           style="fill:#faffff;fill-opacity:1;stroke-width:0"
           id="id-cdac60a9-716c-415a-bde5-65d7b4df25d1">
          <g
             transform="translate(148.712,134.765)"
             style="fill:#faffff;stroke-width:0"
             id="g4808">
            <path
               style="fill:#000000;stroke:none;stroke-width:0"
               d="m 2.859375,-6.8125 c 0,0 0,-0.109375 -0.125,-0.109375 -0.234375,0 -0.953125,0.078125 -1.21875,0.109375 -0.078125,0 -0.1875,0.015625 -0.1875,0.1875 0,0.125 0.09375,0.125 0.234375,0.125 0.484375,0 0.5,0.0625 0.5,0.171875 L 2.03125,-6.125 0.59375,-0.390625 c -0.046875,0.140625 -0.046875,0.15625 -0.046875,0.21875 0,0.234375 0.203125,0.28125 0.296875,0.28125 0.15625,0 0.3125,-0.125 0.359375,-0.265625 l 0.1875,-0.75 0.21875,-0.890625 C 1.671875,-2.03125 1.734375,-2.25 1.78125,-2.46875 1.796875,-2.53125 1.890625,-2.859375 1.890625,-2.921875 1.921875,-3.015625 2.234375,-3.5625 2.578125,-3.84375 2.796875,-4 3.09375,-4.1875 3.53125,-4.1875 c 0.421875,0 0.53125,0.34375 0.53125,0.703125 0,0.53125 -0.375,1.625 -0.609375,2.234375 C 3.375,-1.03125 3.3125,-0.90625 3.3125,-0.703125 c 0,0.46875 0.359375,0.8125 0.828125,0.8125 0.9375,0 1.296875,-1.453125 1.296875,-1.53125 0,-0.109375 -0.078125,-0.109375 -0.109375,-0.109375 -0.109375,0 -0.109375,0.03125 -0.15625,0.1875 -0.140625,0.53125 -0.46875,1.234375 -1.015625,1.234375 -0.171875,0 -0.234375,-0.09375 -0.234375,-0.328125 0,-0.25 0.078125,-0.484375 0.171875,-0.703125 0.15625,-0.4375 0.609375,-1.625 0.609375,-2.203125 0,-0.640625 -0.390625,-1.0625 -1.140625,-1.0625 -0.625,0 -1.109375,0.3125 -1.484375,0.765625 z m 0,0"
               id="id-43ef39a1-5152-49a6-847c-83f431eedd98" />
          </g>
        </g>
        <g
           style="fill:#faffff;fill-opacity:1;stroke-width:0"
           id="id-f8bfb15a-2f5c-4f41-a91b-4b254d08651a">
          <g
             transform="translate(154.452,136.259)"
             style="fill:#faffff;stroke-width:0"
             id="g4812">
            <path
               style="fill:#000000;stroke:none;stroke-width:0"
               d="m 1.078125,-3.890625 c 0.359375,0.09375 0.5625,0.09375 0.671875,0.09375 0.921875,0 1.46875,-0.625 1.46875,-0.734375 0,-0.078125 -0.046875,-0.09375 -0.078125,-0.09375 -0.015625,0 -0.03125,0 -0.0625,0.015625 -0.171875,0.0625 -0.53125,0.203125 -1.046875,0.203125 -0.203125,0 -0.5625,-0.015625 -1.015625,-0.1875 C 0.9375,-4.625 0.921875,-4.625 0.921875,-4.625 c -0.09375,0 -0.09375,0.078125 -0.09375,0.1875 v 2.046875 c 0,0.125 0,0.203125 0.109375,0.203125 0.0625,0 0.078125,0 0.140625,-0.09375 0.296875,-0.375 0.734375,-0.4375 0.96875,-0.4375 0.421875,0 0.609375,0.328125 0.640625,0.390625 0.125,0.234375 0.171875,0.5 0.171875,0.90625 0,0.203125 0,0.609375 -0.21875,0.921875 -0.171875,0.25 -0.46875,0.421875 -0.8125,0.421875 -0.453125,0 -0.921875,-0.25 -1.09375,-0.71875 0.265625,0.015625 0.40625,-0.15625 0.40625,-0.34375 0,-0.296875 -0.265625,-0.34375 -0.359375,-0.34375 0,0 -0.34375,0 -0.34375,0.375 0,0.625 0.578125,1.25 1.40625,1.25 0.890625,0 1.671875,-0.65625 1.671875,-1.546875 0,-0.78125 -0.59375,-1.5 -1.453125,-1.5 -0.3125,0 -0.671875,0.0625 -0.984375,0.328125 z m 0,0"
               id="id-7724f8e2-f67c-4f30-885b-8992f298d9a3" />
          </g>
        </g>
      </g>
    </g>
    <g
       transform="matrix(1.75507,0,0,1.75507,129.699,42.759216)"
       ns2:version="1.1.0"
       ns2:texconverter="pdflatex"
       ns2:pdfconverter="inkscape"
       ns2:text="$\\gamma_1$"
       ns2:preamble="C:\\Users\\zamcr\\AppData\\Roaming\\inkscape\\extensions\\textext\\default_packages.tex"
       ns2:scale="4.975"
       ns2:alignment="middle center"
       ns2:inkscapeversion="1.1.1"
       ns2:jacobian_sqrt="1.75507"
       id="g5455"
       style="fill:#faffff">
      <defs
         id="id-5a014a72-d694-4436-8331-c107ad61e448">
        <g
           id="id-4137fe04-2ad4-4a21-a856-ee371679621a">
          <symbol
             overflow="visible"
             id="id-81c1ef57-52eb-4705-aa7b-2e1253d9be46">
            <path
               style="stroke:none"
               d=""
               id="id-dfb43edf-683a-47be-95ae-c80a8ae5f127" />
          </symbol>
          <symbol
             overflow="visible"
             id="id-edc4cdb9-4247-4920-bb06-e36de9148ae6">
            <path
               style="stroke:none"
               d="M 0.40625,-2.53125 C 0.796875,-3.671875 1.890625,-3.6875 2,-3.6875 c 1.5,0 1.609375,1.75 1.609375,2.53125 0,0.609375 -0.046875,0.78125 -0.125,0.984375 -0.21875,0.71875 -0.515625,1.875 -0.515625,2.140625 0,0.109375 0.046875,0.171875 0.125,0.171875 0.140625,0 0.21875,-0.21875 0.328125,-0.59375 C 3.65625,0.703125 3.75,0.140625 3.78125,-0.171875 c 0.03125,-0.125 0.046875,-0.25 0.09375,-0.390625 0.3125,-0.984375 0.953125,-2.46875 1.34375,-3.25 0.078125,-0.125 0.1875,-0.34375 0.1875,-0.390625 0,-0.09375 -0.09375,-0.09375 -0.109375,-0.09375 -0.03125,0 -0.09375,0 -0.125,0.0625 C 4.65625,-3.28125 4.25,-2.28125 3.859375,-1.28125 3.84375,-1.578125 3.84375,-2.34375 3.453125,-3.3125 3.203125,-3.921875 2.8125,-4.40625 2.125,-4.40625 c -1.25,0 -1.953125,1.515625 -1.953125,1.828125 0,0.09375 0.09375,0.09375 0.203125,0.09375 z m 0,0"
               id="id-087cbb57-3424-46da-af43-d0fcb5310c0d" />
          </symbol>
          <symbol
             overflow="visible"
             id="id-e2f92ec9-0380-4ca2-8165-80e837850391">
            <path
               style="stroke:none"
               d=""
               id="id-825c2676-257b-4f7d-868e-9e8444eecadc" />
          </symbol>
          <symbol
             overflow="visible"
             id="id-71fdc54a-7344-47ee-8245-d065c2ed09de">
            <path
               style="stroke:none"
               d="m 2.328125,-4.4375 c 0,-0.1875 0,-0.1875 -0.203125,-0.1875 -0.453125,0.4375 -1.078125,0.4375 -1.359375,0.4375 v 0.25 c 0.15625,0 0.625,0 1,-0.1875 v 3.546875 c 0,0.234375 0,0.328125 -0.6875,0.328125 H 0.8125 V 0 c 0.125,0 0.984375,-0.03125 1.234375,-0.03125 0.21875,0 1.09375,0.03125 1.25,0.03125 V -0.25 H 3.03125 c -0.703125,0 -0.703125,-0.09375 -0.703125,-0.328125 z m 0,0"
               id="id-11cbfc18-9c9f-4a3f-9bf7-83f5a0efd397" />
          </symbol>
        </g>
      </defs>
      <g
         id="id-b9d3ca3f-fc3c-4c0e-aaa0-9ccbff23b31f"
         transform="translate(-148.884,-130.359)"
         style="fill:#faffff">
        <g
           style="fill:#faffff;fill-opacity:1"
           id="id-8bcd2a5c-4d72-4c81-8a2a-85bdd0d9ed6e">
          <g
             transform="translate(148.712,134.765)"
             id="g5447"
             style="fill:#faffff">
            <path
               style="fill:#000000;stroke:none"
               d="M 0.40625,-2.53125 C 0.796875,-3.671875 1.890625,-3.6875 2,-3.6875 c 1.5,0 1.609375,1.75 1.609375,2.53125 0,0.609375 -0.046875,0.78125 -0.125,0.984375 -0.21875,0.71875 -0.515625,1.875 -0.515625,2.140625 0,0.109375 0.046875,0.171875 0.125,0.171875 0.140625,0 0.21875,-0.21875 0.328125,-0.59375 C 3.65625,0.703125 3.75,0.140625 3.78125,-0.171875 c 0.03125,-0.125 0.046875,-0.25 0.09375,-0.390625 0.3125,-0.984375 0.953125,-2.46875 1.34375,-3.25 0.078125,-0.125 0.1875,-0.34375 0.1875,-0.390625 0,-0.09375 -0.09375,-0.09375 -0.109375,-0.09375 -0.03125,0 -0.09375,0 -0.125,0.0625 C 4.65625,-3.28125 4.25,-2.28125 3.859375,-1.28125 3.84375,-1.578125 3.84375,-2.34375 3.453125,-3.3125 3.203125,-3.921875 2.8125,-4.40625 2.125,-4.40625 c -1.25,0 -1.953125,1.515625 -1.953125,1.828125 0,0.09375 0.09375,0.09375 0.203125,0.09375 z m 0,0"
               id="id-b0da9f61-5317-44e3-a14a-be1755d104a3" />
          </g>
        </g>
        <g
           style="fill:#faffff;fill-opacity:1"
           id="id-fdbd17f4-fd6a-431c-80ba-c00f14133f8b">
          <g
             transform="translate(153.87,136.259)"
             id="g5451"
             style="fill:#faffff">
            <path
               style="fill:#000000;stroke:none"
               d="m 2.328125,-4.4375 c 0,-0.1875 0,-0.1875 -0.203125,-0.1875 -0.453125,0.4375 -1.078125,0.4375 -1.359375,0.4375 v 0.25 c 0.15625,0 0.625,0 1,-0.1875 v 3.546875 c 0,0.234375 0,0.328125 -0.6875,0.328125 H 0.8125 V 0 c 0.125,0 0.984375,-0.03125 1.234375,-0.03125 0.21875,0 1.09375,0.03125 1.25,0.03125 V -0.25 H 3.03125 c -0.703125,0 -0.703125,-0.09375 -0.703125,-0.328125 z m 0,0"
               id="id-6316f8ee-70b8-4a98-b37b-fa000ff74fe3" />
          </g>
        </g>
      </g>
    </g>
    <g
       id="path7582">
      <path
         style="color:#000000;fill:#000000;-inkscape-stroke:none"
         d="m 181.43164,30.951172 v 206.400388 h 3 v -206.400388 z"
         id="path1084" />
      <g
         id="g1066">
        <g
           id="path1076">
          <path
             style="color:#000000;fill:#000000;fill-rule:evenodd;stroke-width:0.6pt;-inkscape-stroke:none"
             d="m 182.93114,233.75205 -3,-3 3,10.5 3,-10.5 z"
             id="path1080" />
          <path
             style="color:#000000;fill:#000000;fill-rule:evenodd;-inkscape-stroke:none"
             d="m 179.12305,229.37695 3.80859,13.33203 3.80859,-13.33203 -3.80859,3.8086 z m 1.61718,2.75 2.19141,2.19141 0.2832,-0.2832 1.90821,-1.90821 -2.19141,7.66992 z"
             id="path1082" />
        </g>
        <g
           id="path1068">
          <path
             style="color:#000000;fill:#000000;fill-rule:evenodd;stroke-width:0.6pt;-inkscape-stroke:none"
             d="m 182.93114,33.890471 c -1.656,0 -3,-1.344 -3,-3 0,-1.656 1.344,-3 3,-3 1.656,0 3,1.344 3,3 0,1.656 -1.344,3 -3,3 z"
             id="path1072" />
          <path
             style="color:#000000;fill:#000000;fill-rule:evenodd;-inkscape-stroke:none"
             d="m 182.93164,27.490234 c -1.87242,0 -3.40039,1.527968 -3.40039,3.400391 0,1.872423 1.52797,3.400391 3.40039,3.400391 1.87242,0 3.40039,-1.527968 3.40039,-3.400391 0,-1.872423 -1.52797,-3.400391 -3.40039,-3.400391 z m 0,0.800782 c 1.43957,0 2.59961,1.160036 2.59961,2.599609 0,1.439573 -1.16004,2.599609 -2.59961,2.599609 -1.43957,0 -2.59961,-1.160036 -2.59961,-2.599609 0,-1.439573 1.16004,-2.599609 2.59961,-2.599609 z"
             id="path1074" />
        </g>
      </g>
    </g>
    <g
       transform="matrix(1.75507,0,0,1.75507,129.507,82.9482)"
       ns2:version="1.1.0"
       ns2:texconverter="pdflatex"
       ns2:pdfconverter="inkscape"
       ns2:text="$\\gamma_2$"
       ns2:preamble="C:\\Users\\zamcr\\AppData\\Roaming\\inkscape\\extensions\\textext\\default_packages.tex"
       ns2:scale="4.975"
       ns2:alignment="middle center"
       ns2:inkscapeversion="1.1.1"
       ns2:jacobian_sqrt="1.75507"
       style="fill:#faffff;stroke-width:0"
       id="g9267">
      <defs
         id="id-7a22e63c-73cf-4cf2-ace9-65a87a403cfd"
         style="fill:#faffff;stroke-width:0">
        <g
           id="id-22042163-2eb5-45f0-ac22-e36b27c1d9a9"
           style="fill:#faffff;stroke-width:0">
          <symbol
             overflow="visible"
             id="id-c6f21602-8631-4480-859e-a6d5ece5cab0"
             style="fill:#faffff;stroke-width:0">
            <path
               style="fill:#faffff;stroke:none;stroke-width:0"
               d=""
               id="id-06e8a8fa-6238-4373-806e-0a3385021391" />
          </symbol>
          <symbol
             overflow="visible"
             id="id-387d1282-d265-4705-9ebe-ff2101ba6efa"
             style="fill:#faffff;stroke-width:0">
            <path
               style="fill:#faffff;stroke:none;stroke-width:0"
               d="M 0.40625,-2.53125 C 0.796875,-3.671875 1.890625,-3.6875 2,-3.6875 c 1.5,0 1.609375,1.75 1.609375,2.53125 0,0.609375 -0.046875,0.78125 -0.125,0.984375 -0.21875,0.71875 -0.515625,1.875 -0.515625,2.140625 0,0.109375 0.046875,0.171875 0.125,0.171875 0.140625,0 0.21875,-0.21875 0.328125,-0.59375 C 3.65625,0.703125 3.75,0.140625 3.78125,-0.171875 c 0.03125,-0.125 0.046875,-0.25 0.09375,-0.390625 0.3125,-0.984375 0.953125,-2.46875 1.34375,-3.25 0.078125,-0.125 0.1875,-0.34375 0.1875,-0.390625 0,-0.09375 -0.09375,-0.09375 -0.109375,-0.09375 -0.03125,0 -0.09375,0 -0.125,0.0625 C 4.65625,-3.28125 4.25,-2.28125 3.859375,-1.28125 3.84375,-1.578125 3.84375,-2.34375 3.453125,-3.3125 3.203125,-3.921875 2.8125,-4.40625 2.125,-4.40625 c -1.25,0 -1.953125,1.515625 -1.953125,1.828125 0,0.09375 0.09375,0.09375 0.203125,0.09375 z m 0,0"
               id="id-96b81d81-61c9-4d40-9dce-bbfe90cfe445" />
          </symbol>
          <symbol
             overflow="visible"
             id="id-0018c227-28d6-450c-9fa7-f806c82f4197"
             style="fill:#faffff;stroke-width:0">
            <path
               style="fill:#faffff;stroke:none;stroke-width:0"
               d=""
               id="id-f23a716c-8a65-4596-94b0-6de74b6a83c6" />
          </symbol>
          <symbol
             overflow="visible"
             id="id-92526e3f-0b28-4dc6-8d22-9b5eed558156"
             style="fill:#faffff;stroke-width:0">
            <path
               style="fill:#faffff;stroke:none;stroke-width:0"
               d="M 3.515625,-1.265625 H 3.28125 c -0.015625,0.15625 -0.09375,0.5625 -0.1875,0.625 C 3.046875,-0.59375 2.515625,-0.59375 2.40625,-0.59375 H 1.125 c 0.734375,-0.640625 0.984375,-0.84375 1.390625,-1.171875 0.515625,-0.40625 1,-0.84375 1,-1.5 0,-0.84375 -0.734375,-1.359375 -1.625,-1.359375 -0.859375,0 -1.453125,0.609375 -1.453125,1.25 0,0.34375 0.296875,0.390625 0.375,0.390625 0.15625,0 0.359375,-0.125 0.359375,-0.375 0,-0.125 -0.046875,-0.375 -0.40625,-0.375 C 0.984375,-4.21875 1.453125,-4.375 1.78125,-4.375 c 0.703125,0 1.0625,0.546875 1.0625,1.109375 0,0.609375 -0.4375,1.078125 -0.65625,1.328125 L 0.515625,-0.265625 C 0.4375,-0.203125 0.4375,-0.1875 0.4375,0 h 2.875 z m 0,0"
               id="id-e733f688-6a3c-48f6-85b3-44a248058c22" />
          </symbol>
        </g>
      </defs>
      <g
         id="id-2c6731dc-a27f-4aa2-aafd-4c0fe4182b5b"
         transform="translate(-148.884,-130.359)"
         style="fill:#faffff;stroke-width:0">
        <g
           style="fill:#faffff;fill-opacity:1;stroke-width:0"
           id="id-1dff1398-de9d-4469-8a85-c27f355f7020">
          <g
             transform="translate(148.712,134.765)"
             style="fill:#faffff;stroke-width:0"
             id="g9259">
            <path
               style="fill:#000000;stroke:none;stroke-width:0"
               d="M 0.40625,-2.53125 C 0.796875,-3.671875 1.890625,-3.6875 2,-3.6875 c 1.5,0 1.609375,1.75 1.609375,2.53125 0,0.609375 -0.046875,0.78125 -0.125,0.984375 -0.21875,0.71875 -0.515625,1.875 -0.515625,2.140625 0,0.109375 0.046875,0.171875 0.125,0.171875 0.140625,0 0.21875,-0.21875 0.328125,-0.59375 C 3.65625,0.703125 3.75,0.140625 3.78125,-0.171875 c 0.03125,-0.125 0.046875,-0.25 0.09375,-0.390625 0.3125,-0.984375 0.953125,-2.46875 1.34375,-3.25 0.078125,-0.125 0.1875,-0.34375 0.1875,-0.390625 0,-0.09375 -0.09375,-0.09375 -0.109375,-0.09375 -0.03125,0 -0.09375,0 -0.125,0.0625 C 4.65625,-3.28125 4.25,-2.28125 3.859375,-1.28125 3.84375,-1.578125 3.84375,-2.34375 3.453125,-3.3125 3.203125,-3.921875 2.8125,-4.40625 2.125,-4.40625 c -1.25,0 -1.953125,1.515625 -1.953125,1.828125 0,0.09375 0.09375,0.09375 0.203125,0.09375 z m 0,0"
               id="id-b9d4addc-f39f-412c-9e36-992eccb24d3f" />
          </g>
        </g>
        <g
           style="fill:#faffff;fill-opacity:1;stroke-width:0"
           id="id-8c4080f4-32c0-4c23-aa18-7d97e7b5c5c2">
          <g
             transform="translate(153.87,136.259)"
             style="fill:#faffff;stroke-width:0"
             id="g9263">
            <path
               style="fill:#000000;stroke:none;stroke-width:0"
               d="M 3.515625,-1.265625 H 3.28125 c -0.015625,0.15625 -0.09375,0.5625 -0.1875,0.625 C 3.046875,-0.59375 2.515625,-0.59375 2.40625,-0.59375 H 1.125 c 0.734375,-0.640625 0.984375,-0.84375 1.390625,-1.171875 0.515625,-0.40625 1,-0.84375 1,-1.5 0,-0.84375 -0.734375,-1.359375 -1.625,-1.359375 -0.859375,0 -1.453125,0.609375 -1.453125,1.25 0,0.34375 0.296875,0.390625 0.375,0.390625 0.15625,0 0.359375,-0.125 0.359375,-0.375 0,-0.125 -0.046875,-0.375 -0.40625,-0.375 C 0.984375,-4.21875 1.453125,-4.375 1.78125,-4.375 c 0.703125,0 1.0625,0.546875 1.0625,1.109375 0,0.609375 -0.4375,1.078125 -0.65625,1.328125 L 0.515625,-0.265625 C 0.4375,-0.203125 0.4375,-0.1875 0.4375,0 h 2.875 z m 0,0"
               id="id-7be566a7-8a43-487e-87a2-b48f2dfcb071" />
          </g>
        </g>
      </g>
    </g>
    <g
       transform="matrix(1.75507,0,0,1.75507,129.452,129.605)"
       ns2:version="1.1.0"
       ns2:texconverter="pdflatex"
       ns2:pdfconverter="inkscape"
       ns2:text="$\\gamma_3$"
       ns2:preamble="C:\\Users\\zamcr\\AppData\\Roaming\\inkscape\\extensions\\textext\\default_packages.tex"
       ns2:scale="4.975"
       ns2:alignment="middle center"
       ns2:inkscapeversion="1.1.1"
       ns2:jacobian_sqrt="1.75507"
       style="fill:#faffff;stroke-width:0"
       id="g10008">
      <defs
         id="id-906517fa-40d5-4477-97f5-14cf3ed4ba3f"
         style="fill:#faffff;stroke-width:0">
        <g
           id="id-7b99d986-3a74-4101-86ef-9ebc776fb78b"
           style="fill:#faffff;stroke-width:0">
          <symbol
             overflow="visible"
             id="id-e9dd58db-9850-4d6d-ad14-da3ec307cd40"
             style="fill:#faffff;stroke-width:0">
            <path
               style="fill:#faffff;stroke:none;stroke-width:0"
               d=""
               id="id-1a8645de-7fe2-4db3-b7e5-6f414102df1c" />
          </symbol>
          <symbol
             overflow="visible"
             id="id-505b0cf3-2ffd-4e56-8c86-75221db2111b"
             style="fill:#faffff;stroke-width:0">
            <path
               style="fill:#faffff;stroke:none;stroke-width:0"
               d="M 0.40625,-2.53125 C 0.796875,-3.671875 1.890625,-3.6875 2,-3.6875 c 1.5,0 1.609375,1.75 1.609375,2.53125 0,0.609375 -0.046875,0.78125 -0.125,0.984375 -0.21875,0.71875 -0.515625,1.875 -0.515625,2.140625 0,0.109375 0.046875,0.171875 0.125,0.171875 0.140625,0 0.21875,-0.21875 0.328125,-0.59375 C 3.65625,0.703125 3.75,0.140625 3.78125,-0.171875 c 0.03125,-0.125 0.046875,-0.25 0.09375,-0.390625 0.3125,-0.984375 0.953125,-2.46875 1.34375,-3.25 0.078125,-0.125 0.1875,-0.34375 0.1875,-0.390625 0,-0.09375 -0.09375,-0.09375 -0.109375,-0.09375 -0.03125,0 -0.09375,0 -0.125,0.0625 C 4.65625,-3.28125 4.25,-2.28125 3.859375,-1.28125 3.84375,-1.578125 3.84375,-2.34375 3.453125,-3.3125 3.203125,-3.921875 2.8125,-4.40625 2.125,-4.40625 c -1.25,0 -1.953125,1.515625 -1.953125,1.828125 0,0.09375 0.09375,0.09375 0.203125,0.09375 z m 0,0"
               id="id-913df940-1717-475f-9168-649a8958d2f0" />
          </symbol>
          <symbol
             overflow="visible"
             id="id-4f663e67-b3ee-4b0f-add5-72f61f668a1f"
             style="fill:#faffff;stroke-width:0">
            <path
               style="fill:#faffff;stroke:none;stroke-width:0"
               d=""
               id="id-f375e320-0cb4-406c-9e86-7596d26ac00a" />
          </symbol>
          <symbol
             overflow="visible"
             id="id-c3373b4b-9ec8-4095-b1c4-9e1fb234b484"
             style="fill:#faffff;stroke-width:0">
            <path
               style="fill:#faffff;stroke:none;stroke-width:0"
               d="m 1.90625,-2.328125 c 0.546875,0 0.9375,0.375 0.9375,1.125 0,0.859375 -0.515625,1.125 -0.90625,1.125 -0.28125,0 -0.90625,-0.078125 -1.1875,-0.5 0.328125,0 0.40625,-0.234375 0.40625,-0.390625 0,-0.21875 -0.171875,-0.375 -0.390625,-0.375 -0.1875,0 -0.390625,0.125 -0.390625,0.40625 0,0.65625 0.71875,1.078125 1.5625,1.078125 0.96875,0 1.640625,-0.65625 1.640625,-1.34375 0,-0.546875 -0.4375,-1.09375 -1.203125,-1.25 0.71875,-0.265625 0.984375,-0.78125 0.984375,-1.21875 0,-0.546875 -0.625,-0.953125 -1.40625,-0.953125 -0.765625,0 -1.359375,0.375 -1.359375,0.9375 0,0.234375 0.15625,0.359375 0.359375,0.359375 0.21875,0 0.359375,-0.15625 0.359375,-0.34375 0,-0.203125 -0.140625,-0.359375 -0.359375,-0.375 0.25,-0.296875 0.71875,-0.375 0.984375,-0.375 0.3125,0 0.75,0.15625 0.75,0.75 0,0.296875 -0.09375,0.625 -0.28125,0.828125 -0.21875,0.265625 -0.421875,0.28125 -0.765625,0.3125 -0.171875,0.015625 -0.1875,0.015625 -0.21875,0.015625 -0.015625,0 -0.078125,0.015625 -0.078125,0.09375 0,0.09375 0.0625,0.09375 0.1875,0.09375 z m 0,0"
               id="id-e29e919c-6cc0-4cbc-b96a-15c81a1174e8" />
          </symbol>
        </g>
      </defs>
      <g
         id="id-a0b693a6-7aa9-4714-b3ad-1f0dcb402b8c"
         transform="translate(-148.884,-130.359)"
         style="fill:#faffff;stroke-width:0">
        <g
           style="fill:#faffff;fill-opacity:1;stroke-width:0"
           id="id-e6d12ce5-2093-4881-8306-54339b65b17b">
          <g
             transform="translate(148.712,134.765)"
             style="fill:#faffff;stroke-width:0"
             id="g10000">
            <path
               style="fill:#000000;stroke:none;stroke-width:0"
               d="M 0.40625,-2.53125 C 0.796875,-3.671875 1.890625,-3.6875 2,-3.6875 c 1.5,0 1.609375,1.75 1.609375,2.53125 0,0.609375 -0.046875,0.78125 -0.125,0.984375 -0.21875,0.71875 -0.515625,1.875 -0.515625,2.140625 0,0.109375 0.046875,0.171875 0.125,0.171875 0.140625,0 0.21875,-0.21875 0.328125,-0.59375 C 3.65625,0.703125 3.75,0.140625 3.78125,-0.171875 c 0.03125,-0.125 0.046875,-0.25 0.09375,-0.390625 0.3125,-0.984375 0.953125,-2.46875 1.34375,-3.25 0.078125,-0.125 0.1875,-0.34375 0.1875,-0.390625 0,-0.09375 -0.09375,-0.09375 -0.109375,-0.09375 -0.03125,0 -0.09375,0 -0.125,0.0625 C 4.65625,-3.28125 4.25,-2.28125 3.859375,-1.28125 3.84375,-1.578125 3.84375,-2.34375 3.453125,-3.3125 3.203125,-3.921875 2.8125,-4.40625 2.125,-4.40625 c -1.25,0 -1.953125,1.515625 -1.953125,1.828125 0,0.09375 0.09375,0.09375 0.203125,0.09375 z m 0,0"
               id="id-40952527-a168-4f4d-a651-7dc8dff03c27" />
          </g>
        </g>
        <g
           style="fill:#faffff;fill-opacity:1;stroke-width:0"
           id="id-970eabbb-c0d3-423c-b685-26d2f0eee3d3">
          <g
             transform="translate(153.87,136.259)"
             style="fill:#faffff;stroke-width:0"
             id="g10004">
            <path
               style="fill:#000000;stroke:none;stroke-width:0"
               d="m 1.90625,-2.328125 c 0.546875,0 0.9375,0.375 0.9375,1.125 0,0.859375 -0.515625,1.125 -0.90625,1.125 -0.28125,0 -0.90625,-0.078125 -1.1875,-0.5 0.328125,0 0.40625,-0.234375 0.40625,-0.390625 0,-0.21875 -0.171875,-0.375 -0.390625,-0.375 -0.1875,0 -0.390625,0.125 -0.390625,0.40625 0,0.65625 0.71875,1.078125 1.5625,1.078125 0.96875,0 1.640625,-0.65625 1.640625,-1.34375 0,-0.546875 -0.4375,-1.09375 -1.203125,-1.25 0.71875,-0.265625 0.984375,-0.78125 0.984375,-1.21875 0,-0.546875 -0.625,-0.953125 -1.40625,-0.953125 -0.765625,0 -1.359375,0.375 -1.359375,0.9375 0,0.234375 0.15625,0.359375 0.359375,0.359375 0.21875,0 0.359375,-0.15625 0.359375,-0.34375 0,-0.203125 -0.140625,-0.359375 -0.359375,-0.375 0.25,-0.296875 0.71875,-0.375 0.984375,-0.375 0.3125,0 0.75,0.15625 0.75,0.75 0,0.296875 -0.09375,0.625 -0.28125,0.828125 -0.21875,0.265625 -0.421875,0.28125 -0.765625,0.3125 -0.171875,0.015625 -0.1875,0.015625 -0.21875,0.015625 -0.015625,0 -0.078125,0.015625 -0.078125,0.09375 0,0.09375 0.0625,0.09375 0.1875,0.09375 z m 0,0"
               id="id-0046d723-873b-4441-8a43-c61d1097bb01" />
          </g>
        </g>
      </g>
    </g>
    <g
       transform="matrix(1.75507,0,0,1.75507,129.356,181.343)"
       ns2:version="1.1.0"
       ns2:texconverter="pdflatex"
       ns2:pdfconverter="inkscape"
       ns2:text="$\\gamma_4$"
       ns2:preamble="C:\\Users\\zamcr\\AppData\\Roaming\\inkscape\\extensions\\textext\\default_packages.tex"
       ns2:scale="4.975"
       ns2:alignment="middle center"
       ns2:inkscapeversion="1.1.1"
       ns2:jacobian_sqrt="1.75507"
       style="fill:#faffff;stroke-width:0"
       id="g10749">
      <defs
         id="id-22e4f946-221f-4f43-aec9-2c61215c3d6f"
         style="fill:#faffff;stroke-width:0">
        <g
           id="id-7754811f-26f6-4d82-b6bc-44815bbc3d3f"
           style="fill:#faffff;stroke-width:0">
          <symbol
             overflow="visible"
             id="id-f7a20d56-ed13-4355-96d2-6e95e6fe9beb"
             style="fill:#faffff;stroke-width:0">
            <path
               style="fill:#faffff;stroke:none;stroke-width:0"
               d=""
               id="id-2c77920e-99ca-490b-8dbf-fda5da09b3cf" />
          </symbol>
          <symbol
             overflow="visible"
             id="id-d2afcf94-904d-4760-a53f-9fbcf2f114f5"
             style="fill:#faffff;stroke-width:0">
            <path
               style="fill:#faffff;stroke:none;stroke-width:0"
               d="M 0.40625,-2.53125 C 0.796875,-3.671875 1.890625,-3.6875 2,-3.6875 c 1.5,0 1.609375,1.75 1.609375,2.53125 0,0.609375 -0.046875,0.78125 -0.125,0.984375 -0.21875,0.71875 -0.515625,1.875 -0.515625,2.140625 0,0.109375 0.046875,0.171875 0.125,0.171875 0.140625,0 0.21875,-0.21875 0.328125,-0.59375 C 3.65625,0.703125 3.75,0.140625 3.78125,-0.171875 c 0.03125,-0.125 0.046875,-0.25 0.09375,-0.390625 0.3125,-0.984375 0.953125,-2.46875 1.34375,-3.25 0.078125,-0.125 0.1875,-0.34375 0.1875,-0.390625 0,-0.09375 -0.09375,-0.09375 -0.109375,-0.09375 -0.03125,0 -0.09375,0 -0.125,0.0625 C 4.65625,-3.28125 4.25,-2.28125 3.859375,-1.28125 3.84375,-1.578125 3.84375,-2.34375 3.453125,-3.3125 3.203125,-3.921875 2.8125,-4.40625 2.125,-4.40625 c -1.25,0 -1.953125,1.515625 -1.953125,1.828125 0,0.09375 0.09375,0.09375 0.203125,0.09375 z m 0,0"
               id="id-e508821e-0e9c-458a-afab-43cb4f92d6d5" />
          </symbol>
          <symbol
             overflow="visible"
             id="id-4c2ac659-3540-4c8c-9a5f-88290ee0ac00"
             style="fill:#faffff;stroke-width:0">
            <path
               style="fill:#faffff;stroke:none;stroke-width:0"
               d=""
               id="id-4fb99091-9c20-48be-b0ef-31df24bcda54" />
          </symbol>
          <symbol
             overflow="visible"
             id="id-cc55f544-dda5-45c8-90bd-53abb8d887b3"
             style="fill:#faffff;stroke-width:0">
            <path
               style="fill:#faffff;stroke:none;stroke-width:0"
               d="m 3.6875,-1.140625 v -0.25 H 2.90625 V -4.5 c 0,-0.140625 0,-0.203125 -0.140625,-0.203125 -0.09375,0 -0.125,0 -0.1875,0.109375 l -2.3125,3.203125 v 0.25 h 2.0625 v 0.5625 c 0,0.25 0,0.328125 -0.578125,0.328125 H 1.5625 V 0 C 1.921875,-0.015625 2.359375,-0.03125 2.609375,-0.03125 2.875,-0.03125 3.3125,-0.015625 3.671875,0 v -0.25 h -0.1875 C 2.90625,-0.25 2.90625,-0.328125 2.90625,-0.578125 v -0.5625 z M 2.375,-3.9375 v 2.546875 H 0.53125 Z m 0,0"
               id="id-d784a595-882b-4218-a51d-645718fcfb86" />
          </symbol>
        </g>
      </defs>
      <g
         id="id-0def00b4-df53-49da-8616-1c13107c0b62"
         transform="translate(-148.884,-130.359)"
         style="fill:#faffff;stroke-width:0">
        <g
           style="fill:#faffff;fill-opacity:1;stroke-width:0"
           id="id-2b18e3de-9703-46ec-a534-90f7ee80a88e">
          <g
             transform="translate(148.712,134.765)"
             style="fill:#faffff;stroke-width:0"
             id="g10741">
            <path
               style="fill:#000000;stroke:none;stroke-width:0"
               d="M 0.40625,-2.53125 C 0.796875,-3.671875 1.890625,-3.6875 2,-3.6875 c 1.5,0 1.609375,1.75 1.609375,2.53125 0,0.609375 -0.046875,0.78125 -0.125,0.984375 -0.21875,0.71875 -0.515625,1.875 -0.515625,2.140625 0,0.109375 0.046875,0.171875 0.125,0.171875 0.140625,0 0.21875,-0.21875 0.328125,-0.59375 C 3.65625,0.703125 3.75,0.140625 3.78125,-0.171875 c 0.03125,-0.125 0.046875,-0.25 0.09375,-0.390625 0.3125,-0.984375 0.953125,-2.46875 1.34375,-3.25 0.078125,-0.125 0.1875,-0.34375 0.1875,-0.390625 0,-0.09375 -0.09375,-0.09375 -0.109375,-0.09375 -0.03125,0 -0.09375,0 -0.125,0.0625 C 4.65625,-3.28125 4.25,-2.28125 3.859375,-1.28125 3.84375,-1.578125 3.84375,-2.34375 3.453125,-3.3125 3.203125,-3.921875 2.8125,-4.40625 2.125,-4.40625 c -1.25,0 -1.953125,1.515625 -1.953125,1.828125 0,0.09375 0.09375,0.09375 0.203125,0.09375 z m 0,0"
               id="id-8fbcd3b2-65cf-4c61-a586-4cc4cde7eba4" />
          </g>
        </g>
        <g
           style="fill:#faffff;fill-opacity:1;stroke-width:0"
           id="id-19823bac-9b5b-400e-bbc9-7977249d20bf">
          <g
             transform="translate(153.87,136.259)"
             style="fill:#faffff;stroke-width:0"
             id="g10745">
            <path
               style="fill:#000000;stroke:none;stroke-width:0"
               d="m 3.6875,-1.140625 v -0.25 H 2.90625 V -4.5 c 0,-0.140625 0,-0.203125 -0.140625,-0.203125 -0.09375,0 -0.125,0 -0.1875,0.109375 l -2.3125,3.203125 v 0.25 h 2.0625 v 0.5625 c 0,0.25 0,0.328125 -0.578125,0.328125 H 1.5625 V 0 C 1.921875,-0.015625 2.359375,-0.03125 2.609375,-0.03125 2.875,-0.03125 3.3125,-0.015625 3.671875,0 v -0.25 h -0.1875 C 2.90625,-0.25 2.90625,-0.328125 2.90625,-0.578125 v -0.5625 z M 2.375,-3.9375 v 2.546875 H 0.53125 Z m 0,0"
               id="id-77b5533e-5619-485d-9636-6b8658e0ef42" />
          </g>
        </g>
      </g>
    </g>
    <g
       transform="matrix(1.75507,0,0,1.75507,129.507,221.995)"
       ns2:version="1.1.0"
       ns2:texconverter="pdflatex"
       ns2:pdfconverter="inkscape"
       ns2:text="$\\gamma_5$"
       ns2:preamble="C:\\Users\\zamcr\\AppData\\Roaming\\inkscape\\extensions\\textext\\default_packages.tex"
       ns2:scale="4.975"
       ns2:alignment="middle center"
       ns2:inkscapeversion="1.1.1"
       ns2:jacobian_sqrt="1.75507"
       style="fill:#faffff;stroke-width:0"
       id="g11490">
      <defs
         id="id-92550665-648c-45d3-90da-d18f265c1801"
         style="fill:#faffff;stroke-width:0">
        <g
           id="id-0160dbdb-8839-4c58-918b-2ce722e20477"
           style="fill:#faffff;stroke-width:0">
          <symbol
             overflow="visible"
             id="id-c8764792-8281-47de-aaf7-81fd3bf7e3e3"
             style="fill:#faffff;stroke-width:0">
            <path
               style="fill:#faffff;stroke:none;stroke-width:0"
               d=""
               id="id-028b320a-76bd-4242-9669-dcd728d5e630" />
          </symbol>
          <symbol
             overflow="visible"
             id="id-cebbbfb7-177d-4693-acc5-82aef096f93f"
             style="fill:#faffff;stroke-width:0">
            <path
               style="fill:#faffff;stroke:none;stroke-width:0"
               d="M 0.40625,-2.53125 C 0.796875,-3.671875 1.890625,-3.6875 2,-3.6875 c 1.5,0 1.609375,1.75 1.609375,2.53125 0,0.609375 -0.046875,0.78125 -0.125,0.984375 -0.21875,0.71875 -0.515625,1.875 -0.515625,2.140625 0,0.109375 0.046875,0.171875 0.125,0.171875 0.140625,0 0.21875,-0.21875 0.328125,-0.59375 C 3.65625,0.703125 3.75,0.140625 3.78125,-0.171875 c 0.03125,-0.125 0.046875,-0.25 0.09375,-0.390625 0.3125,-0.984375 0.953125,-2.46875 1.34375,-3.25 0.078125,-0.125 0.1875,-0.34375 0.1875,-0.390625 0,-0.09375 -0.09375,-0.09375 -0.109375,-0.09375 -0.03125,0 -0.09375,0 -0.125,0.0625 C 4.65625,-3.28125 4.25,-2.28125 3.859375,-1.28125 3.84375,-1.578125 3.84375,-2.34375 3.453125,-3.3125 3.203125,-3.921875 2.8125,-4.40625 2.125,-4.40625 c -1.25,0 -1.953125,1.515625 -1.953125,1.828125 0,0.09375 0.09375,0.09375 0.203125,0.09375 z m 0,0"
               id="id-5d2c39ae-fbab-487a-b18f-5fd60d7cb55c" />
          </symbol>
          <symbol
             overflow="visible"
             id="id-f71e2a42-c797-4638-bb80-7e86f414d43f"
             style="fill:#faffff;stroke-width:0">
            <path
               style="fill:#faffff;stroke:none;stroke-width:0"
               d=""
               id="id-6d610249-6d4b-4fb8-8f13-be002aaa162c" />
          </symbol>
          <symbol
             overflow="visible"
             id="id-fe2b0f4b-09eb-425d-8428-9e1761bab238"
             style="fill:#faffff;stroke-width:0">
            <path
               style="fill:#faffff;stroke:none;stroke-width:0"
               d="m 1.078125,-3.890625 c 0.359375,0.09375 0.5625,0.09375 0.671875,0.09375 0.921875,0 1.46875,-0.625 1.46875,-0.734375 0,-0.078125 -0.046875,-0.09375 -0.078125,-0.09375 -0.015625,0 -0.03125,0 -0.0625,0.015625 -0.171875,0.0625 -0.53125,0.203125 -1.046875,0.203125 -0.203125,0 -0.5625,-0.015625 -1.015625,-0.1875 C 0.9375,-4.625 0.921875,-4.625 0.921875,-4.625 c -0.09375,0 -0.09375,0.078125 -0.09375,0.1875 v 2.046875 c 0,0.125 0,0.203125 0.109375,0.203125 0.0625,0 0.078125,0 0.140625,-0.09375 0.296875,-0.375 0.734375,-0.4375 0.96875,-0.4375 0.421875,0 0.609375,0.328125 0.640625,0.390625 0.125,0.234375 0.171875,0.5 0.171875,0.90625 0,0.203125 0,0.609375 -0.21875,0.921875 -0.171875,0.25 -0.46875,0.421875 -0.8125,0.421875 -0.453125,0 -0.921875,-0.25 -1.09375,-0.71875 0.265625,0.015625 0.40625,-0.15625 0.40625,-0.34375 0,-0.296875 -0.265625,-0.34375 -0.359375,-0.34375 0,0 -0.34375,0 -0.34375,0.375 0,0.625 0.578125,1.25 1.40625,1.25 0.890625,0 1.671875,-0.65625 1.671875,-1.546875 0,-0.78125 -0.59375,-1.5 -1.453125,-1.5 -0.3125,0 -0.671875,0.0625 -0.984375,0.328125 z m 0,0"
               id="id-11be02e2-b851-4d8b-896b-1318d08133ac" />
          </symbol>
        </g>
      </defs>
      <g
         id="id-72793203-2702-473c-a024-91e58b57b9fa"
         transform="translate(-148.884,-130.359)"
         style="fill:#faffff;stroke-width:0">
        <g
           style="fill:#faffff;fill-opacity:1;stroke-width:0"
           id="id-8ca30618-dfe1-4b59-bb6c-ad9257a4d88f">
          <g
             transform="translate(148.712,134.765)"
             style="fill:#faffff;stroke-width:0"
             id="g11482">
            <path
               style="fill:#000000;stroke:none;stroke-width:0"
               d="M 0.40625,-2.53125 C 0.796875,-3.671875 1.890625,-3.6875 2,-3.6875 c 1.5,0 1.609375,1.75 1.609375,2.53125 0,0.609375 -0.046875,0.78125 -0.125,0.984375 -0.21875,0.71875 -0.515625,1.875 -0.515625,2.140625 0,0.109375 0.046875,0.171875 0.125,0.171875 0.140625,0 0.21875,-0.21875 0.328125,-0.59375 C 3.65625,0.703125 3.75,0.140625 3.78125,-0.171875 c 0.03125,-0.125 0.046875,-0.25 0.09375,-0.390625 0.3125,-0.984375 0.953125,-2.46875 1.34375,-3.25 0.078125,-0.125 0.1875,-0.34375 0.1875,-0.390625 0,-0.09375 -0.09375,-0.09375 -0.109375,-0.09375 -0.03125,0 -0.09375,0 -0.125,0.0625 C 4.65625,-3.28125 4.25,-2.28125 3.859375,-1.28125 3.84375,-1.578125 3.84375,-2.34375 3.453125,-3.3125 3.203125,-3.921875 2.8125,-4.40625 2.125,-4.40625 c -1.25,0 -1.953125,1.515625 -1.953125,1.828125 0,0.09375 0.09375,0.09375 0.203125,0.09375 z m 0,0"
               id="id-14ececce-9ec9-495e-8adf-0d56af18a7ba" />
          </g>
        </g>
        <g
           style="fill:#faffff;fill-opacity:1;stroke-width:0"
           id="id-1b903cb6-c6be-470c-ae3e-8a0b2f5d7ce1">
          <g
             transform="translate(153.87,136.259)"
             style="fill:#faffff;stroke-width:0"
             id="g11486">
            <path
               style="fill:#000000;stroke:none;stroke-width:0"
               d="m 1.078125,-3.890625 c 0.359375,0.09375 0.5625,0.09375 0.671875,0.09375 0.921875,0 1.46875,-0.625 1.46875,-0.734375 0,-0.078125 -0.046875,-0.09375 -0.078125,-0.09375 -0.015625,0 -0.03125,0 -0.0625,0.015625 -0.171875,0.0625 -0.53125,0.203125 -1.046875,0.203125 -0.203125,0 -0.5625,-0.015625 -1.015625,-0.1875 C 0.9375,-4.625 0.921875,-4.625 0.921875,-4.625 c -0.09375,0 -0.09375,0.078125 -0.09375,0.1875 v 2.046875 c 0,0.125 0,0.203125 0.109375,0.203125 0.0625,0 0.078125,0 0.140625,-0.09375 0.296875,-0.375 0.734375,-0.4375 0.96875,-0.4375 0.421875,0 0.609375,0.328125 0.640625,0.390625 0.125,0.234375 0.171875,0.5 0.171875,0.90625 0,0.203125 0,0.609375 -0.21875,0.921875 -0.171875,0.25 -0.46875,0.421875 -0.8125,0.421875 -0.453125,0 -0.921875,-0.25 -1.09375,-0.71875 0.265625,0.015625 0.40625,-0.15625 0.40625,-0.34375 0,-0.296875 -0.265625,-0.34375 -0.359375,-0.34375 0,0 -0.34375,0 -0.34375,0.375 0,0.625 0.578125,1.25 1.40625,1.25 0.890625,0 1.671875,-0.65625 1.671875,-1.546875 0,-0.78125 -0.59375,-1.5 -1.453125,-1.5 -0.3125,0 -0.671875,0.0625 -0.984375,0.328125 z m 0,0"
               id="id-53eeb993-09a1-4a4a-93e7-6970e2fd0102" />
          </g>
        </g>
      </g>
    </g>
    <g
       transform="matrix(1.75507,0,0,1.75507,129.452,253.407)"
       ns2:version="1.1.0"
       ns2:texconverter="pdflatex"
       ns2:pdfconverter="inkscape"
       ns2:text="$\\gamma_6$"
       ns2:preamble="C:\\Users\\zamcr\\AppData\\Roaming\\inkscape\\extensions\\textext\\default_packages.tex"
       ns2:scale="4.975"
       ns2:alignment="middle center"
       ns2:inkscapeversion="1.1.1"
       ns2:jacobian_sqrt="1.75507"
       style="fill:#faffff;stroke-width:0"
       id="g12231">
      <defs
         id="id-5f993a4e-bb68-47ae-a59c-a0ca09699bb6"
         style="fill:#faffff;stroke-width:0">
        <g
           id="id-72e4b58b-65df-4e5b-b735-669bec387446"
           style="fill:#faffff;stroke-width:0">
          <symbol
             overflow="visible"
             id="id-03b3e791-9d54-43de-babf-606d984f5a78"
             style="fill:#faffff;stroke-width:0">
            <path
               style="fill:#faffff;stroke:none;stroke-width:0"
               d=""
               id="id-c1626652-5fc1-4666-9af1-fbf144b59c37" />
          </symbol>
          <symbol
             overflow="visible"
             id="id-3fbea07a-d954-4ab2-bb62-0bbbcf111fd1"
             style="fill:#faffff;stroke-width:0">
            <path
               style="fill:#faffff;stroke:none;stroke-width:0"
               d="M 0.40625,-2.53125 C 0.796875,-3.671875 1.890625,-3.6875 2,-3.6875 c 1.5,0 1.609375,1.75 1.609375,2.53125 0,0.609375 -0.046875,0.78125 -0.125,0.984375 -0.21875,0.71875 -0.515625,1.875 -0.515625,2.140625 0,0.109375 0.046875,0.171875 0.125,0.171875 0.140625,0 0.21875,-0.21875 0.328125,-0.59375 C 3.65625,0.703125 3.75,0.140625 3.78125,-0.171875 c 0.03125,-0.125 0.046875,-0.25 0.09375,-0.390625 0.3125,-0.984375 0.953125,-2.46875 1.34375,-3.25 0.078125,-0.125 0.1875,-0.34375 0.1875,-0.390625 0,-0.09375 -0.09375,-0.09375 -0.109375,-0.09375 -0.03125,0 -0.09375,0 -0.125,0.0625 C 4.65625,-3.28125 4.25,-2.28125 3.859375,-1.28125 3.84375,-1.578125 3.84375,-2.34375 3.453125,-3.3125 3.203125,-3.921875 2.8125,-4.40625 2.125,-4.40625 c -1.25,0 -1.953125,1.515625 -1.953125,1.828125 0,0.09375 0.09375,0.09375 0.203125,0.09375 z m 0,0"
               id="id-9320a16b-08ad-456c-a1d3-5409c1df422a" />
          </symbol>
          <symbol
             overflow="visible"
             id="id-5f0ab517-7321-4670-b689-1153c287aead"
             style="fill:#faffff;stroke-width:0">
            <path
               style="fill:#faffff;stroke:none;stroke-width:0"
               d=""
               id="id-e17c572b-8e4a-494d-8aaf-d907e15cf236" />
          </symbol>
          <symbol
             overflow="visible"
             id="id-c5ed576b-3809-4229-87a9-0a541538f718"
             style="fill:#faffff;stroke-width:0">
            <path
               style="fill:#faffff;stroke:none;stroke-width:0"
               d="m 1.046875,-2.28125 c 0,-0.5625 0.046875,-1.078125 0.3125,-1.515625 0.234375,-0.375 0.609375,-0.625 1.0625,-0.625 0.203125,0 0.484375,0.046875 0.625,0.234375 C 2.875,-4.171875 2.71875,-4.046875 2.71875,-3.84375 c 0,0.171875 0.125,0.328125 0.328125,0.328125 0.21875,0 0.34375,-0.140625 0.34375,-0.34375 0,-0.40625 -0.296875,-0.765625 -0.984375,-0.765625 -1,0 -2.03125,0.921875 -2.03125,2.421875 0,1.796875 0.84375,2.34375 1.625,2.34375 0.84375,0 1.578125,-0.65625 1.578125,-1.5625 0,-0.890625 -0.703125,-1.546875 -1.515625,-1.546875 -0.5625,0 -0.859375,0.375 -1.015625,0.6875 z M 2,-0.078125 c -0.359375,0 -0.625,-0.203125 -0.78125,-0.515625 C 1.125,-0.796875 1.0625,-1.15625 1.0625,-1.5625 c 0,-0.6875 0.40625,-1.203125 0.96875,-1.203125 0.3125,0 0.53125,0.125 0.703125,0.375 0.171875,0.265625 0.171875,0.5625 0.171875,0.96875 0,0.390625 0,0.6875 -0.1875,0.96875 -0.15625,0.234375 -0.390625,0.375 -0.71875,0.375 z m 0,0"
               id="id-d67c9eb3-c3b7-4f91-a467-e6ac5de9ecf7" />
          </symbol>
        </g>
      </defs>
      <g
         id="id-244714ec-fa64-4065-8496-dac98515984a"
         transform="translate(-148.884,-130.359)"
         style="fill:#faffff;stroke-width:0">
        <g
           style="fill:#faffff;fill-opacity:1;stroke-width:0"
           id="id-0efa3219-60e1-445d-aaba-7b0bd684f61f">
          <g
             transform="translate(148.712,134.765)"
             style="fill:#faffff;stroke-width:0"
             id="g12223">
            <path
               style="fill:#000000;stroke:none;stroke-width:0"
               d="M 0.40625,-2.53125 C 0.796875,-3.671875 1.890625,-3.6875 2,-3.6875 c 1.5,0 1.609375,1.75 1.609375,2.53125 0,0.609375 -0.046875,0.78125 -0.125,0.984375 -0.21875,0.71875 -0.515625,1.875 -0.515625,2.140625 0,0.109375 0.046875,0.171875 0.125,0.171875 0.140625,0 0.21875,-0.21875 0.328125,-0.59375 C 3.65625,0.703125 3.75,0.140625 3.78125,-0.171875 c 0.03125,-0.125 0.046875,-0.25 0.09375,-0.390625 0.3125,-0.984375 0.953125,-2.46875 1.34375,-3.25 0.078125,-0.125 0.1875,-0.34375 0.1875,-0.390625 0,-0.09375 -0.09375,-0.09375 -0.109375,-0.09375 -0.03125,0 -0.09375,0 -0.125,0.0625 C 4.65625,-3.28125 4.25,-2.28125 3.859375,-1.28125 3.84375,-1.578125 3.84375,-2.34375 3.453125,-3.3125 3.203125,-3.921875 2.8125,-4.40625 2.125,-4.40625 c -1.25,0 -1.953125,1.515625 -1.953125,1.828125 0,0.09375 0.09375,0.09375 0.203125,0.09375 z m 0,0"
               id="id-0afe5cd0-0ca0-49bb-a237-67f3d3b75d05" />
          </g>
        </g>
        <g
           style="fill:#faffff;fill-opacity:1;stroke-width:0"
           id="id-1c442d88-fc7b-467e-8ec7-7a15fb3c3ddf">
          <g
             transform="translate(153.87,136.259)"
             style="fill:#faffff;stroke-width:0"
             id="g12227">
            <path
               style="fill:#000000;stroke:none;stroke-width:0"
               d="m 1.046875,-2.28125 c 0,-0.5625 0.046875,-1.078125 0.3125,-1.515625 0.234375,-0.375 0.609375,-0.625 1.0625,-0.625 0.203125,0 0.484375,0.046875 0.625,0.234375 C 2.875,-4.171875 2.71875,-4.046875 2.71875,-3.84375 c 0,0.171875 0.125,0.328125 0.328125,0.328125 0.21875,0 0.34375,-0.140625 0.34375,-0.34375 0,-0.40625 -0.296875,-0.765625 -0.984375,-0.765625 -1,0 -2.03125,0.921875 -2.03125,2.421875 0,1.796875 0.84375,2.34375 1.625,2.34375 0.84375,0 1.578125,-0.65625 1.578125,-1.5625 0,-0.890625 -0.703125,-1.546875 -1.515625,-1.546875 -0.5625,0 -0.859375,0.375 -1.015625,0.6875 z M 2,-0.078125 c -0.359375,0 -0.625,-0.203125 -0.78125,-0.515625 C 1.125,-0.796875 1.0625,-1.15625 1.0625,-1.5625 c 0,-0.6875 0.40625,-1.203125 0.96875,-1.203125 0.3125,0 0.53125,0.125 0.703125,0.375 0.171875,0.265625 0.171875,0.5625 0.171875,0.96875 0,0.390625 0,0.6875 -0.1875,0.96875 -0.15625,0.234375 -0.390625,0.375 -0.71875,0.375 z m 0,0"
               id="id-cbdc384d-bfc5-48f4-91a0-8a092981cbe0" />
          </g>
        </g>
      </g>
    </g>
    <g
       transform="matrix(1.75507,0,0,1.75507,187.76179,133.23532)"
       ns2:version="1.1.0"
       ns2:texconverter="pdflatex"
       ns2:pdfconverter="inkscape"
       ns2:text="$z$"
       ns2:preamble="C:\\Users\\zamcr\\AppData\\Roaming\\inkscape\\extensions\\textext\\default_packages.tex"
       ns2:scale="4.975"
       ns2:alignment="middle center"
       ns2:inkscapeversion="1.1.1"
       ns2:jacobian_sqrt="1.75507"
       id="g12894"
       style="fill:#faffff">
      <defs
         id="id-ed8aff83-ade1-4f0e-b58f-9e9d99202bd1">
        <g
           id="id-617fec85-ab97-43da-beed-951e7aa9cfe0">
          <symbol
             overflow="visible"
             id="id-5f822099-7e7d-4c58-bac9-0f632aadeb7f">
            <path
               style="stroke:none"
               d=""
               id="id-2fdda8b6-dd1d-4569-9221-0d4450541696" />
          </symbol>
          <symbol
             overflow="visible"
             id="id-5e091889-fcbd-4102-95dc-e1e48266d90a">
            <path
               style="stroke:none"
               d="m 1.328125,-0.828125 c 0.53125,-0.578125 0.828125,-0.828125 1.1875,-1.140625 0,0 0.609375,-0.53125 0.96875,-0.890625 C 4.4375,-3.78125 4.65625,-4.265625 4.65625,-4.3125 c 0,-0.09375 -0.09375,-0.09375 -0.109375,-0.09375 -0.078125,0 -0.09375,0.015625 -0.15625,0.109375 -0.296875,0.484375 -0.5,0.640625 -0.734375,0.640625 -0.25,0 -0.359375,-0.15625 -0.515625,-0.328125 -0.1875,-0.21875 -0.359375,-0.421875 -0.6875,-0.421875 -0.75,0 -1.203125,0.921875 -1.203125,1.140625 0,0.046875 0.03125,0.109375 0.109375,0.109375 0.09375,0 0.109375,-0.046875 0.140625,-0.109375 0.1875,-0.46875 0.765625,-0.46875 0.84375,-0.46875 0.203125,0 0.390625,0.0625 0.625,0.140625 0.40625,0.15625 0.515625,0.15625 0.765625,0.15625 -0.359375,0.421875 -1.1875,1.140625 -1.375,1.296875 l -0.90625,0.84375 C 0.78125,-0.625 0.421875,-0.0625 0.421875,0.015625 c 0,0.09375 0.109375,0.09375 0.125,0.09375 0.078125,0 0.09375,-0.015625 0.15625,-0.125 0.234375,-0.359375 0.53125,-0.625 0.859375,-0.625 0.21875,0 0.328125,0.09375 0.578125,0.375 0.15625,0.21875 0.34375,0.375 0.625,0.375 1,0 1.578125,-1.265625 1.578125,-1.53125 0,-0.046875 -0.046875,-0.109375 -0.125,-0.109375 -0.09375,0 -0.109375,0.0625 -0.140625,0.140625 C 3.84375,-0.75 3.203125,-0.5625 2.875,-0.5625 c -0.1875,0 -0.375,-0.0625 -0.578125,-0.125 -0.34375,-0.125 -0.5,-0.171875 -0.703125,-0.171875 -0.015625,0 -0.171875,0 -0.265625,0.03125 z m 0,0"
               id="id-c4f94d65-9b30-4c26-8399-6184c4b2710f" />
          </symbol>
        </g>
      </defs>
      <g
         id="id-7daa22d1-0594-4bbc-ad8a-e089653d281c"
         transform="translate(-149.134,-130.359)"
         style="fill:#faffff">
        <g
           style="fill:#faffff;fill-opacity:1"
           id="id-72b0954f-cefb-465a-ab2b-84a4ad2630b9">
          <g
             transform="translate(148.712,134.765)"
             id="g12890"
             style="fill:#faffff">
            <path
               style="fill:#000000;stroke:none"
               d="m 1.328125,-0.828125 c 0.53125,-0.578125 0.828125,-0.828125 1.1875,-1.140625 0,0 0.609375,-0.53125 0.96875,-0.890625 C 4.4375,-3.78125 4.65625,-4.265625 4.65625,-4.3125 c 0,-0.09375 -0.09375,-0.09375 -0.109375,-0.09375 -0.078125,0 -0.09375,0.015625 -0.15625,0.109375 -0.296875,0.484375 -0.5,0.640625 -0.734375,0.640625 -0.25,0 -0.359375,-0.15625 -0.515625,-0.328125 -0.1875,-0.21875 -0.359375,-0.421875 -0.6875,-0.421875 -0.75,0 -1.203125,0.921875 -1.203125,1.140625 0,0.046875 0.03125,0.109375 0.109375,0.109375 0.09375,0 0.109375,-0.046875 0.140625,-0.109375 0.1875,-0.46875 0.765625,-0.46875 0.84375,-0.46875 0.203125,0 0.390625,0.0625 0.625,0.140625 0.40625,0.15625 0.515625,0.15625 0.765625,0.15625 -0.359375,0.421875 -1.1875,1.140625 -1.375,1.296875 l -0.90625,0.84375 C 0.78125,-0.625 0.421875,-0.0625 0.421875,0.015625 c 0,0.09375 0.109375,0.09375 0.125,0.09375 0.078125,0 0.09375,-0.015625 0.15625,-0.125 0.234375,-0.359375 0.53125,-0.625 0.859375,-0.625 0.21875,0 0.328125,0.09375 0.578125,0.375 0.15625,0.21875 0.34375,0.375 0.625,0.375 1,0 1.578125,-1.265625 1.578125,-1.53125 0,-0.046875 -0.046875,-0.109375 -0.125,-0.109375 -0.09375,0 -0.109375,0.0625 -0.140625,0.140625 C 3.84375,-0.75 3.203125,-0.5625 2.875,-0.5625 c -0.1875,0 -0.375,-0.0625 -0.578125,-0.125 -0.34375,-0.125 -0.5,-0.171875 -0.703125,-0.171875 -0.015625,0 -0.171875,0 -0.265625,0.03125 z m 0,0"
               id="id-5b730f57-b203-4bf6-b009-3d86f44114c3" />
          </g>
        </g>
      </g>
    </g>
    <text
       xml:space="preserve"
       style="font-size:13.7939px;line-height:1;font-family:'Times New Roman';-inkscape-font-specification:'Times New Roman, ';text-align:center;text-anchor:middle;stroke-width:0.264583"
       x="9.2150574"
       y="264.86636"
       id="text4356"><tspan
         sodipodi:role="line"
         id="tspan4354"
         style="stroke-width:0.264583"
         x="9.2150574"
         y="264.86636">Depth of interest</tspan></text>
    <path
       style="fill:none;stroke:#000000;stroke-width:1.165;stroke-linecap:butt;stroke-linejoin:miter;stroke-opacity:1;stroke-miterlimit:4;stroke-dasharray:none"
       d="M 61.048396,259.67078 83.683815,243.50262"
       id="path5285" />
  </g>
</svg>
