<?xml version="1.0" encoding="UTF-8" standalone="no"?>
<!-- Created with Inkscape (http://www.inkscape.org/) -->

<svg
   width="2in"
   height="1.9in"
   viewBox="0 0 50.800001 48.259999"
   version="1.1"
   id="svg1"
   inkscape:version="1.4 (86a8ad7, 2024-10-11)"
   sodipodi:docname="undrained_circles.svg"
   xmlns:inkscape="http://www.inkscape.org/namespaces/inkscape"
   xmlns:sodipodi="http://sodipodi.sourceforge.net/DTD/sodipodi-0.dtd"
   xmlns="http://www.w3.org/2000/svg"
   xmlns:svg="http://www.w3.org/2000/svg"
   xmlns:ns14="http://www.iki.fi/pav/software/textext/">
  <sodipodi:namedview
     id="namedview1"
     pagecolor="#ffffff"
     bordercolor="#111111"
     borderopacity="1"
     inkscape:showpageshadow="0"
     inkscape:pageopacity="0"
     inkscape:pagecheckerboard="1"
     inkscape:deskcolor="#d1d1d1"
     inkscape:document-units="mm"
     inkscape:zoom="2.0510461"
     inkscape:cx="182.34597"
     inkscape:cy="4.8755607"
     inkscape:window-width="1920"
     inkscape:window-height="1009"
     inkscape:window-x="1912"
     inkscape:window-y="-8"
     inkscape:window-maximized="1"
     inkscape:current-layer="layer1" />
  <defs
     id="defs1">
    <marker
       style="overflow:visible"
       id="marker20"
       refX="0"
       refY="0"
       orient="auto-start-reverse"
       inkscape:stockid="Wide, rounded arrow"
       markerWidth="1"
       markerHeight="1"
       viewBox="0 0 1 1"
       inkscape:isstock="true"
       inkscape:collect="always"
       preserveAspectRatio="xMidYMid">
      <path
         style="fill:none;stroke:context-stroke;stroke-width:1;stroke-linecap:round"
         d="M 3,-3 0,0 3,3"
         transform="rotate(180,0.125,0)"
         sodipodi:nodetypes="ccc"
         id="path20" />
    </marker>
    <marker
       style="overflow:visible"
       id="ArrowWideRounded"
       refX="0"
       refY="0"
       orient="auto-start-reverse"
       inkscape:stockid="Wide, rounded arrow"
       markerWidth="1"
       markerHeight="1"
       viewBox="0 0 1 1"
       inkscape:isstock="true"
       inkscape:collect="always"
       preserveAspectRatio="xMidYMid">
      <path
         style="fill:none;stroke:context-stroke;stroke-width:1;stroke-linecap:round"
         d="M 3,-3 0,0 3,3"
         transform="rotate(180,0.125,0)"
         sodipodi:nodetypes="ccc"
         id="path11" />
    </marker>
    <marker
       style="overflow:visible"
       id="ArrowWide"
       refX="0"
       refY="0"
       orient="auto-start-reverse"
       inkscape:stockid="Wide arrow"
       markerWidth="1"
       markerHeight="1"
       viewBox="0 0 1 1"
       inkscape:isstock="true"
       inkscape:collect="always"
       preserveAspectRatio="xMidYMid">
      <path
         style="fill:none;stroke:context-stroke;stroke-width:1;stroke-linecap:butt"
         d="M 3,-3 0,0 3,3"
         transform="rotate(180,0.125,0)"
         sodipodi:nodetypes="ccc"
         id="path8" />
    </marker>
    <marker
       style="overflow:visible"
       id="DartArrow"
       refX="0"
       refY="0"
       orient="auto-start-reverse"
       inkscape:stockid="Dart arrow"
       markerWidth="1"
       markerHeight="1"
       viewBox="0 0 1 1"
       inkscape:isstock="true"
       inkscape:collect="always"
       preserveAspectRatio="xMidYMid">
      <path
         style="fill:context-stroke;fill-rule:evenodd;stroke:none"
         d="M 0,0 5,-5 -12.5,0 5,5 Z"
         transform="scale(-0.5)"
         id="path6" />
    </marker>
  </defs>
  <g
     inkscape:label="Layer 1"
     inkscape:groupmode="layer"
     id="layer1">
    <path
       style="fill:none;stroke:#000000;stroke-width:0.264583px;stroke-linecap:butt;stroke-linejoin:miter;stroke-opacity:1;marker-end:url(#DartArrow)"
       d="M 4.063475,35.322436 V 3.5886318"
       id="path1" />
    <path
       style="fill:none;stroke:#000000;stroke-width:0.264583px;stroke-linecap:butt;stroke-linejoin:miter;stroke-opacity:1;marker-end:url(#DartArrow)"
       d="M 4.063475,19.29017 H 46.439716"
       id="path2" />
    <g
       transform="matrix(0.352778,0,0,0.352778,0.88987187,1.934944)"
       ns14:version="1.10.2"
       ns14:texconverter="pdflatex"
       ns14:pdfconverter="inkscape"
       ns14:text="$\\tau$"
       ns14:preamble="C:\Users\zamcr\AppData\Roaming\inkscape\extensions\textext\default_packages.tex"
       ns14:scale="1.0"
       ns14:alignment="middle center"
       ns14:stroke-to-path="0"
       ns14:inkscapeversion="1.4"
       ns14:jacobian_sqrt="0.352778"
       id="g3">
      <defs
         id="id-fe9c574b-9e9d-441b-bdbe-da2ec46884e7">
        <g
           id="id-9d51d5eb-4126-4364-879f-4f682b41bde3">
          <g
             id="id-b1803992-55a5-49ef-a8d2-45b1782ab955">
            <path
               d="m 2.9375,-3.71875 h 1.671875 c 0.125,0 0.484375,0 0.484375,-0.34375 0,-0.234375 -0.203125,-0.234375 -0.40625,-0.234375 H 1.90625 c -0.203125,0 -0.59375,0 -1.03125,0.46875 -0.328125,0.359375 -0.609375,0.84375 -0.609375,0.890625 0,0.015625 0,0.109375 0.125,0.109375 0.078125,0 0.09375,-0.046875 0.15625,-0.125 C 1.03125,-3.71875 1.609375,-3.71875 1.8125,-3.71875 h 0.828125 l -0.96875,3.203125 C 1.625,-0.40625 1.5625,-0.1875 1.5625,-0.15625 c 0,0.109375 0.078125,0.28125 0.296875,0.28125 0.328125,0 0.375,-0.28125 0.40625,-0.4375 z m 0,0"
               id="id-63002114-7cfc-486a-b74c-f4dc35bba31f" />
          </g>
        </g>
      </defs>
      <g
         fill="#000000"
         fill-opacity="1"
         id="id-bba05895-7bce-40d9-88ad-837c6b4f8138"
         transform="translate(-148.978,-130.468)">
        <g
           transform="translate(148.712,134.765)"
           id="g2">
          <path
             d="m 2.9375,-3.71875 h 1.671875 c 0.125,0 0.484375,0 0.484375,-0.34375 0,-0.234375 -0.203125,-0.234375 -0.40625,-0.234375 H 1.90625 c -0.203125,0 -0.59375,0 -1.03125,0.46875 -0.328125,0.359375 -0.609375,0.84375 -0.609375,0.890625 0,0.015625 0,0.109375 0.125,0.109375 0.078125,0 0.09375,-0.046875 0.15625,-0.125 C 1.03125,-3.71875 1.609375,-3.71875 1.8125,-3.71875 h 0.828125 l -0.96875,3.203125 C 1.625,-0.40625 1.5625,-0.1875 1.5625,-0.15625 c 0,0.109375 0.078125,0.28125 0.296875,0.28125 0.328125,0 0.375,-0.28125 0.40625,-0.4375 z m 0,0"
             id="id-15d2effb-d9d8-4f1f-b7bd-d0f6347fa9d2" />
        </g>
      </g>
    </g>
    <g
       transform="matrix(0.352778,0,0,0.352778,46.230251,19.951583)"
       ns14:version="1.10.2"
       ns14:texconverter="pdflatex"
       ns14:pdfconverter="inkscape"
       ns14:text="$\\sigma$"
       ns14:preamble="C:\Users\zamcr\AppData\Roaming\inkscape\extensions\textext\default_packages.tex"
       ns14:scale="1.0"
       ns14:alignment="middle center"
       ns14:stroke-to-path="0"
       ns14:inkscapeversion="1.4"
       ns14:jacobian_sqrt="0.352778"
       id="g5">
      <defs
         id="id-afb8622c-54db-4b94-bf1a-08312c10fa1d">
        <g
           id="id-858b0270-937b-4672-9bb5-60d58e7b8913">
          <g
             id="id-587b314a-9d8c-4618-8da2-236a4675ad7c">
            <path
               d="m 5.15625,-3.71875 c 0.140625,0 0.5,0 0.5,-0.34375 0,-0.234375 -0.21875,-0.234375 -0.390625,-0.234375 h -2.28125 c -1.5,0 -2.609375,1.640625 -2.609375,2.828125 0,0.875 0.59375,1.578125 1.5,1.578125 1.171875,0 2.5,-1.203125 2.5,-2.734375 0,-0.171875 0,-0.65625 -0.3125,-1.09375 z M 1.890625,-0.109375 C 1.390625,-0.109375 1,-0.46875 1,-1.1875 c 0,-0.296875 0.109375,-1.109375 0.46875,-1.703125 0.421875,-0.6875 1.015625,-0.828125 1.359375,-0.828125 0.828125,0 0.90625,0.65625 0.90625,0.96875 0,0.46875 -0.203125,1.28125 -0.53125,1.796875 -0.390625,0.578125 -0.9375,0.84375 -1.3125,0.84375 z m 0,0"
               id="id-d49d585b-1749-441b-bb30-291ca24ae43a" />
          </g>
        </g>
      </defs>
      <g
         fill="#000000"
         fill-opacity="1"
         id="id-31255062-2b60-48e7-88e8-f5e6f11132f5"
         transform="translate(-149.087,-130.468)">
        <g
           transform="translate(148.712,134.765)"
           id="g4">
          <path
             d="m 5.15625,-3.71875 c 0.140625,0 0.5,0 0.5,-0.34375 0,-0.234375 -0.21875,-0.234375 -0.390625,-0.234375 h -2.28125 c -1.5,0 -2.609375,1.640625 -2.609375,2.828125 0,0.875 0.59375,1.578125 1.5,1.578125 1.171875,0 2.5,-1.203125 2.5,-2.734375 0,-0.171875 0,-0.65625 -0.3125,-1.09375 z M 1.890625,-0.109375 C 1.390625,-0.109375 1,-0.46875 1,-1.1875 c 0,-0.296875 0.109375,-1.109375 0.46875,-1.703125 0.421875,-0.6875 1.015625,-0.828125 1.359375,-0.828125 0.828125,0 0.90625,0.65625 0.90625,0.96875 0,0.46875 -0.203125,1.28125 -0.53125,1.796875 -0.390625,0.578125 -0.9375,0.84375 -1.3125,0.84375 z m 0,0"
             id="id-04e5a3ab-e239-486b-9bdd-628dc81319bb" />
        </g>
      </g>
    </g>
    <path
       style="fill:none;stroke:#008000;stroke-width:0.264583px;stroke-linecap:butt;stroke-linejoin:miter;stroke-opacity:1;stroke-dasharray:0.79374898,0.79374898;stroke-dashoffset:0"
       d="M 4.063475,19.29017 30.250315,2.7149581"
       id="path5" />
    <text
       xml:space="preserve"
       style="font-size:3.175px;line-height:0.95;font-family:'Times New Roman';-inkscape-font-specification:'Times New Roman, ';font-variant-ligatures:none;stroke-width:0.264583;fill:#008000"
       x="9.0944443"
       y="6.5789595"
       id="text5"><tspan
         sodipodi:role="line"
         id="tspan5"
         style="stroke-width:0.264583;fill:#008000"
         x="9.0944443"
         y="6.5789595">M.C. line</tspan></text>
    <path
       style="fill:none;stroke:#000000;stroke-width:0.165;stroke-linecap:butt;stroke-linejoin:miter;stroke-opacity:1;stroke-dasharray:none;marker-end:url(#ArrowWide)"
       d="m 21.298986,6.0544762 1.598101,1.3147781"
       id="path7" />
    <path
       id="path9"
       style="fill:none;stroke:#008000;stroke-width:0.265;stroke-linecap:round;stroke-miterlimit:4.1;stroke-dasharray:none;paint-order:fill markers stroke"
       d="m 23.123311,19.290169 a 6.6359797,6.6359797 0 0 1 -6.63598,6.63598 6.6359797,6.6359797 0 0 1 -6.6359803,-6.63598 6.6359797,6.6359797 0 0 1 6.6359803,-6.635978 6.6359797,6.6359797 0 0 1 6.63598,6.635978 z" />
    <text
       xml:space="preserve"
       style="font-size:3.175px;line-height:0.95;font-family:'Times New Roman';-inkscape-font-specification:'Times New Roman, ';font-variant-ligatures:none;text-align:center;text-anchor:middle;white-space:pre;inline-size:18.0472;display:inline;stroke-width:0.264583"
       x="12.222973"
       y="29.827702"
       id="text9"
       transform="translate(4.2321186,1.0812974)"><tspan
         x="12.222973"
         y="29.827702"
         id="tspan1">Effective<tspan
   y="29.827702"
   id="tspan2"> </tspan></tspan><tspan
         x="12.222973"
         y="32.843953"
         id="tspan3">stress circle</tspan></text>
    <path
       style="fill:none;stroke:#000000;stroke-width:0.165;stroke-linecap:butt;stroke-linejoin:miter;stroke-opacity:1;stroke-dasharray:none;marker-end:url(#ArrowWideRounded)"
       d="M 16.669763,28.459459 V 25.923641"
       id="path10" />
    <text
       xml:space="preserve"
       style="font-size:3.175px;line-height:0.95;font-family:'Times New Roman';-inkscape-font-specification:'Times New Roman, ';font-variant-ligatures:none;text-align:center;text-anchor:middle;white-space:pre;inline-size:42.3181;display:inline;stroke-width:0.264583"
       x="6.0202699"
       y="41.229729"
       id="text11"
       transform="translate(19.339959)"><tspan
         x="6.0202699"
         y="41.229729"
         id="tspan4">If test is undrained, circle shifts<tspan
   y="41.229729"
   id="tspan6"> </tspan></tspan><tspan
         x="6.0202699"
         y="44.24598"
         id="tspan7">to the right due to excess pore<tspan
   y="44.24598"
   id="tspan8"> </tspan></tspan><tspan
         x="6.0202699"
         y="47.26223"
         id="tspan9">pressure</tspan></text>
    <path
       id="path13"
       style="fill:none;stroke:#ff0000;stroke-width:0.265;stroke-linecap:round;stroke-miterlimit:4.1;stroke-dasharray:none;paint-order:fill markers stroke"
       d="m 31.887576,19.290169 a 6.6359797,6.6359797 0 0 1 -6.63598,6.63598 6.6359797,6.6359797 0 0 1 -6.635981,-6.63598 6.6359797,6.6359797 0 0 1 6.635981,-6.635978 6.6359797,6.6359797 0 0 1 6.63598,6.635978 z" />
    <path
       id="path12"
       style="fill:none;stroke:#ff0000;stroke-width:0.265;stroke-linecap:round;stroke-miterlimit:4.1;stroke-dasharray:none;paint-order:fill markers stroke"
       d="m 41.65419,19.290169 a 6.6359797,6.6359797 0 0 1 -6.63598,6.63598 6.6359797,6.6359797 0 0 1 -6.635981,-6.63598 6.6359797,6.6359797 0 0 1 6.635981,-6.635978 6.6359797,6.6359797 0 0 1 6.63598,6.635978 z" />
    <text
       xml:space="preserve"
       style="font-size:3.175px;line-height:0.95;font-family:'Times New Roman';-inkscape-font-specification:'Times New Roman, ';font-variant-ligatures:none;text-align:center;text-anchor:middle;white-space:pre;inline-size:16.4605;display:inline;fill:#ff0000;stroke-width:0.264583"
       x="42.569736"
       y="9.9329386"
       id="text13"
       transform="translate(-1.6408564,19.746334)"><tspan
         x="42.569736"
         y="9.9329386"
         id="tspan10">Total stress<tspan
   y="9.9329386"
   id="tspan11"> </tspan></tspan><tspan
         x="42.569736"
         y="12.949189"
         id="tspan12">circles</tspan></text>
    <path
       style="fill:none;stroke:#ff0000;stroke-width:0.465;stroke-linecap:butt;stroke-linejoin:miter;stroke-opacity:1;stroke-dasharray:none"
       d="m 46.739494,12.654191 -42.676019,0"
       id="path16"
       sodipodi:nodetypes="cc" />
    <path
       style="fill:none;stroke:#000000;stroke-width:0.264583px;stroke-linecap:butt;stroke-linejoin:miter;stroke-opacity:1"
       d="M 25.791385,5.5007306 H 30.76267"
       id="path17" />
    <g
       transform="matrix(0.352778,0,0,0.352778,29.639764,2.1303337)"
       ns14:version="1.10.2"
       ns14:texconverter="pdflatex"
       ns14:pdfconverter="inkscape"
       ns14:text="$\\phi'$"
       ns14:preamble="C:\Users\zamcr\AppData\Roaming\inkscape\extensions\textext\default_packages.tex"
       ns14:scale="1.0"
       ns14:alignment="middle center"
       ns14:stroke-to-path="0"
       ns14:inkscapeversion="1.4"
       ns14:jacobian_sqrt="0.352778"
       id="g19"
       style="fill:#008000">
      <defs
         id="id-8df5f51b-65f8-4342-ad48-c49921afd977">
        <g
           id="id-6aa5f4fe-a469-4142-9a1e-ff3fefc09652">
          <g
             id="id-abe1ef10-1896-43a9-9c15-7a3fe293e106">
            <path
               d="m 4.359375,-6.671875 c 0,-0.03125 0.03125,-0.140625 0.03125,-0.140625 0,-0.015625 0,-0.109375 -0.125,-0.109375 -0.09375,0 -0.109375,0.03125 -0.15625,0.203125 L 3.53125,-4.421875 c -1.578125,0.0625 -3.046875,1.375 -3.046875,2.734375 0,0.953125 0.703125,1.734375 1.921875,1.8125 C 2.328125,0.421875 2.25,0.75 2.171875,1.0625 c -0.125,0.46875 -0.21875,0.84375 -0.21875,0.875 0,0.09375 0.078125,0.109375 0.125,0.109375 C 2.125,2.046875 2.140625,2.03125 2.171875,2 2.1875,1.984375 2.25,1.75 2.28125,1.609375 L 2.65625,0.125 c 1.609375,-0.0625 3.0625,-1.40625 3.0625,-2.734375 0,-0.796875 -0.53125,-1.703125 -1.921875,-1.8125 z m -1.90625,6.578125 c -0.59375,-0.03125 -1.3125,-0.390625 -1.3125,-1.375 0,-1.203125 0.859375,-2.59375 2.34375,-2.734375 z m 1.28125,-4.109375 c 0.765625,0.046875 1.328125,0.5 1.328125,1.375 0,1.1875 -0.859375,2.609375 -2.34375,2.734375 z m 0,0"
               id="id-9417d1c4-a3f9-4990-8552-b31d952e8007" />
          </g>
          <g
             id="id-a6dfea05-5013-46b7-ba49-db4f03182c75">
            <path
               d="m 2.015625,-3.296875 c 0.0625,-0.109375 0.0625,-0.171875 0.0625,-0.21875 0,-0.21875 -0.1875,-0.375 -0.40625,-0.375 -0.265625,0 -0.34375,0.21875 -0.375,0.328125 L 0.375,-0.546875 c -0.015625,0.015625 -0.046875,0.09375 -0.046875,0.109375 0,0.078125 0.21875,0.15625 0.28125,0.15625 0.046875,0 0.046875,-0.015625 0.09375,-0.125 z m 0,0"
               id="id-ec5cfc8e-09ab-420d-b253-e30ba1324ab1" />
          </g>
        </g>
      </defs>
      <g
         fill="#000000"
         fill-opacity="1"
         id="id-a7726037-9dae-44ac-b900-933f08213764"
         transform="translate(-149.196,-127.258)"
         style="fill:#008000">
        <g
           transform="translate(148.712,134.765)"
           id="g17"
           style="fill:#008000">
          <path
             d="m 4.359375,-6.671875 c 0,-0.03125 0.03125,-0.140625 0.03125,-0.140625 0,-0.015625 0,-0.109375 -0.125,-0.109375 -0.09375,0 -0.109375,0.03125 -0.15625,0.203125 L 3.53125,-4.421875 c -1.578125,0.0625 -3.046875,1.375 -3.046875,2.734375 0,0.953125 0.703125,1.734375 1.921875,1.8125 C 2.328125,0.421875 2.25,0.75 2.171875,1.0625 c -0.125,0.46875 -0.21875,0.84375 -0.21875,0.875 0,0.09375 0.078125,0.109375 0.125,0.109375 C 2.125,2.046875 2.140625,2.03125 2.171875,2 2.1875,1.984375 2.25,1.75 2.28125,1.609375 L 2.65625,0.125 c 1.609375,-0.0625 3.0625,-1.40625 3.0625,-2.734375 0,-0.796875 -0.53125,-1.703125 -1.921875,-1.8125 z m -1.90625,6.578125 c -0.59375,-0.03125 -1.3125,-0.390625 -1.3125,-1.375 0,-1.203125 0.859375,-2.59375 2.34375,-2.734375 z m 1.28125,-4.109375 c 0.765625,0.046875 1.328125,0.5 1.328125,1.375 0,1.1875 -0.859375,2.609375 -2.34375,2.734375 z m 0,0"
             id="id-2c61d7df-9aa1-4f74-9f58-f8bccfa9d250"
             style="fill:#008000" />
        </g>
      </g>
      <g
         fill="#000000"
         fill-opacity="1"
         id="id-cd8cf0d5-be8b-4201-a818-e9b2b63ee6c5"
         transform="translate(-149.196,-127.258)"
         style="fill:#008000">
        <g
           transform="translate(154.648,131.149)"
           id="g18"
           style="fill:#008000">
          <path
             d="m 2.015625,-3.296875 c 0.0625,-0.109375 0.0625,-0.171875 0.0625,-0.21875 0,-0.21875 -0.1875,-0.375 -0.40625,-0.375 -0.265625,0 -0.34375,0.21875 -0.375,0.328125 L 0.375,-0.546875 c -0.015625,0.015625 -0.046875,0.09375 -0.046875,0.109375 0,0.078125 0.21875,0.15625 0.28125,0.15625 0.046875,0 0.046875,-0.015625 0.09375,-0.125 z m 0,0"
             id="id-c6559a8f-1b5a-47e3-8bc9-bb393c56aded"
             style="fill:#008000" />
        </g>
      </g>
    </g>
    <text
       xml:space="preserve"
       style="font-size:3.175px;line-height:0.95;font-family:'Times New Roman';-inkscape-font-specification:'Times New Roman, ';font-variant-ligatures:none;text-align:center;text-anchor:middle;white-space:pre;inline-size:24.8477;stroke-width:0.264583;fill:#ff0000"
       x="4.0634751"
       y="10.706935"
       id="text19"
       transform="translate(33.283037,-2.0804979)"><tspan
         x="4.0634751"
         y="10.706935"
         id="tspan13">Strength envelope<tspan
   y="10.706935"
   id="tspan14"> </tspan></tspan><tspan
         x="4.0634751"
         y="13.723185"
         id="tspan15">in total stress space</tspan></text>
    <path
       style="fill:none;stroke:#000000;stroke-width:0.165;stroke-linecap:butt;stroke-linejoin:miter;stroke-opacity:1;stroke-dasharray:none;marker-end:url(#marker20)"
       d="M 39.428208,26.84037 38.374293,25.014934"
       id="path19" />
    <g
       transform="matrix(0.352778,0,0,0.352778,4.4739352,8.7676289)"
       ns14:version="1.10.2"
       ns14:texconverter="pdflatex"
       ns14:pdfconverter="inkscape"
       ns14:text="$\\tau_f=S_u=c_u$"
       ns14:preamble="C:\Users\zamcr\AppData\Roaming\inkscape\extensions\textext\default_packages.tex"
       ns14:scale="1.0"
       ns14:alignment="middle center"
       ns14:stroke-to-path="0"
       ns14:inkscapeversion="1.4"
       ns14:jacobian_sqrt="0.352778"
       id="g28">
      <defs
         id="id-921e9fa8-1452-41e8-856e-839ec31d18b9">
        <g
           id="id-c2bed8fd-a625-4473-a683-c761198eb799">
          <g
             id="id-7717615c-6a81-4ad1-a0d8-6a54f9a3c14b">
            <path
               d="m 2.9375,-3.71875 h 1.671875 c 0.125,0 0.484375,0 0.484375,-0.34375 0,-0.234375 -0.203125,-0.234375 -0.40625,-0.234375 H 1.90625 c -0.203125,0 -0.59375,0 -1.03125,0.46875 -0.328125,0.359375 -0.609375,0.84375 -0.609375,0.890625 0,0.015625 0,0.109375 0.125,0.109375 0.078125,0 0.09375,-0.046875 0.15625,-0.125 C 1.03125,-3.71875 1.609375,-3.71875 1.8125,-3.71875 h 0.828125 l -0.96875,3.203125 C 1.625,-0.40625 1.5625,-0.1875 1.5625,-0.15625 c 0,0.109375 0.078125,0.28125 0.296875,0.28125 0.328125,0 0.375,-0.28125 0.40625,-0.4375 z m 0,0"
               id="id-e46e320e-83fa-4170-996a-6de0d019d7e2" />
          </g>
          <g
             id="id-7fff3e12-6107-4b55-a9d9-5a98b4fa45ca">
            <path
               d="m 6.4375,-6.921875 c 0,-0.03125 -0.03125,-0.109375 -0.125,-0.109375 -0.046875,0 -0.046875,0.015625 -0.171875,0.15625 L 5.65625,-6.3125 c -0.25,-0.46875 -0.765625,-0.71875 -1.421875,-0.71875 -1.265625,0 -2.453125,1.15625 -2.453125,2.359375 0,0.796875 0.515625,1.265625 1.03125,1.40625 l 1.0625,0.28125 c 0.375,0.09375 0.921875,0.25 0.921875,1.0625 0,0.890625 -0.8125,1.828125 -1.796875,1.828125 -0.640625,0 -1.75,-0.21875 -1.75,-1.453125 0,-0.234375 0.0625,-0.484375 0.0625,-0.53125 0.015625,-0.046875 0.015625,-0.0625 0.015625,-0.078125 0,-0.09375 -0.0625,-0.109375 -0.109375,-0.109375 -0.046875,0 -0.078125,0.015625 -0.109375,0.046875 -0.03125,0.03125 -0.59375,2.3125 -0.59375,2.34375 0,0.046875 0.046875,0.09375 0.109375,0.09375 0.046875,0 0.0625,-0.015625 0.1875,-0.15625 L 1.296875,-0.5 c 0.421875,0.578125 1.109375,0.71875 1.6875,0.71875 1.359375,0 2.53125,-1.328125 2.53125,-2.5625 0,-0.6875 -0.34375,-1.03125 -0.484375,-1.171875 C 4.796875,-3.734375 4.640625,-3.78125 3.765625,-4 3.53125,-4.0625 3.1875,-4.171875 3.09375,-4.1875 2.828125,-4.28125 2.484375,-4.5625 2.484375,-5.09375 c 0,-0.8125 0.796875,-1.65625 1.75,-1.65625 0.8125,0 1.421875,0.4375 1.421875,1.546875 0,0.3125 -0.03125,0.5 -0.03125,0.5625 0,0 0,0.09375 0.109375,0.09375 0.109375,0 0.125,-0.03125 0.15625,-0.203125 z m 0,0"
               id="id-1b07a15c-af8f-4f48-82e3-5736426764a7" />
          </g>
          <g
             id="id-2c593886-6a90-4a47-a36b-4497cdc7b601">
            <path
               d="m 3.953125,-3.78125 c -0.171875,0 -0.296875,0 -0.4375,0.125 -0.171875,0.15625 -0.1875,0.328125 -0.1875,0.390625 0,0.25 0.1875,0.359375 0.375,0.359375 0.28125,0 0.546875,-0.25 0.546875,-0.640625 0,-0.484375 -0.46875,-0.859375 -1.171875,-0.859375 -1.34375,0 -2.671875,1.421875 -2.671875,2.828125 0,0.90625 0.578125,1.6875 1.625,1.6875 1.421875,0 2.25,-1.0625 2.25,-1.171875 0,-0.0625 -0.046875,-0.140625 -0.109375,-0.140625 -0.0625,0 -0.078125,0.03125 -0.140625,0.109375 -0.78125,0.984375 -1.875,0.984375 -1.984375,0.984375 -0.625,0 -0.90625,-0.484375 -0.90625,-1.09375 0,-0.40625 0.203125,-1.375 0.546875,-1.984375 0.3125,-0.578125 0.859375,-1 1.40625,-1 0.328125,0 0.71875,0.125 0.859375,0.40625 z m 0,0"
               id="id-bfad2211-568b-4667-bf0a-6d01448ebc56" />
          </g>
          <g
             id="id-d9ad5a58-4246-4c48-97df-a5b893fc14be">
            <path
               d="M 2.84375,-2.75 H 3.515625 C 3.65625,-2.75 3.75,-2.75 3.75,-2.90625 3.75,-3 3.65625,-3 3.53125,-3 H 2.890625 c 0.15625,-0.890625 0.203125,-1.203125 0.265625,-1.40625 0.03125,-0.15625 0.1875,-0.296875 0.359375,-0.296875 0,0 0.1875,0 0.328125,0.078125 -0.296875,0.09375 -0.3125,0.34375 -0.3125,0.375 0,0.15625 0.125,0.265625 0.28125,0.265625 0.1875,0 0.390625,-0.15625 0.390625,-0.421875 0,-0.328125 -0.328125,-0.5 -0.6875,-0.5 -0.3125,0 -0.65625,0.171875 -0.84375,0.515625 C 2.53125,-4.125 2.484375,-3.8125 2.328125,-3 H 1.78125 c -0.140625,0 -0.234375,0 -0.234375,0.15625 0,0.09375 0.09375,0.09375 0.21875,0.09375 H 2.28125 c 0,0.046875 -0.4375,2.546875 -0.609375,3.296875 -0.03125,0.15625 -0.15625,0.671875 -0.484375,0.671875 -0.015625,0 -0.171875,0 -0.3125,-0.078125 0.28125,-0.09375 0.3125,-0.34375 0.3125,-0.375 C 1.1875,0.609375 1.0625,0.5 0.90625,0.5 c -0.1875,0 -0.390625,0.15625 -0.390625,0.421875 0,0.3125 0.328125,0.5 0.671875,0.5 0.4375,0 0.75,-0.453125 0.828125,-0.609375 0.25,-0.46875 0.421875,-1.328125 0.4375,-1.40625 z m 0,0"
               id="id-12fc3c52-9735-4615-84e9-81f8e914c56c" />
          </g>
          <g
             id="id-5eecf11e-3890-4bce-a86f-a963b0561e45">
            <path
               d="M 2.953125,-1.125 C 2.90625,-0.984375 2.84375,-0.71875 2.84375,-0.71875 2.703125,-0.5 2.421875,-0.125 2,-0.125 c -0.484375,0 -0.484375,-0.453125 -0.484375,-0.578125 0,-0.40625 0.1875,-0.90625 0.390625,-1.421875 C 1.953125,-2.265625 2,-2.359375 2,-2.46875 2,-2.84375 1.6875,-3.078125 1.34375,-3.078125 0.640625,-3.078125 0.328125,-2.125 0.328125,-2 c 0,0.078125 0.09375,0.078125 0.125,0.078125 0.09375,0 0.09375,-0.03125 0.125,-0.109375 0.15625,-0.5625 0.46875,-0.84375 0.734375,-0.84375 0.125,0 0.171875,0.078125 0.171875,0.234375 0,0.171875 -0.046875,0.3125 -0.125,0.46875 -0.375,0.96875 -0.375,1.171875 -0.375,1.359375 0,0.109375 0,0.4375 0.265625,0.65625 0.203125,0.171875 0.46875,0.21875 0.71875,0.21875 0.4375,0 0.671875,-0.234375 0.90625,-0.453125 C 3.03125,0.0625 3.484375,0.0625 3.578125,0.0625 3.8125,0.0625 4,-0.0625 4.125,-0.296875 4.28125,-0.578125 4.375,-0.96875 4.375,-1 c 0,-0.09375 -0.09375,-0.09375 -0.109375,-0.09375 -0.109375,0 -0.109375,0.03125 -0.15625,0.21875 -0.09375,0.328125 -0.21875,0.75 -0.515625,0.75 -0.171875,0 -0.234375,-0.15625 -0.234375,-0.34375 0,-0.109375 0.0625,-0.375 0.109375,-0.546875 0.046875,-0.1875 0.125,-0.46875 0.15625,-0.625 l 0.15625,-0.625 C 3.828125,-2.4375 3.90625,-2.75 3.90625,-2.78125 3.90625,-2.921875 3.796875,-3 3.671875,-3 c -0.25,0 -0.3125,0.203125 -0.359375,0.421875 z m 0,0"
               id="id-be3df4ba-cfa6-4c37-8c63-82095ccbd183" />
          </g>
          <g
             id="id-0a80e739-8d85-4636-8af9-445b3bf0d582">
            <path
               d="m 6.84375,-3.265625 c 0.15625,0 0.34375,0 0.34375,-0.1875 C 7.1875,-3.65625 7,-3.65625 6.859375,-3.65625 h -5.96875 c -0.140625,0 -0.328125,0 -0.328125,0.203125 0,0.1875 0.1875,0.1875 0.328125,0.1875 z m 0.015625,1.9375 c 0.140625,0 0.328125,0 0.328125,-0.203125 0,-0.1875 -0.1875,-0.1875 -0.34375,-0.1875 H 0.890625 c -0.140625,0 -0.328125,0 -0.328125,0.1875 0,0.203125 0.1875,0.203125 0.328125,0.203125 z m 0,0"
               id="id-e4b46d44-1099-4fcd-b2de-2e6316f9d770" />
          </g>
        </g>
      </defs>
      <g
         fill="#000000"
         fill-opacity="1"
         id="id-b155b67f-e2b6-473f-8a26-2461871c7ced"
         transform="translate(-148.978,-127.734)">
        <g
           transform="translate(148.712,134.765)"
           id="g20">
          <path
             d="m 2.9375,-3.71875 h 1.671875 c 0.125,0 0.484375,0 0.484375,-0.34375 0,-0.234375 -0.203125,-0.234375 -0.40625,-0.234375 H 1.90625 c -0.203125,0 -0.59375,0 -1.03125,0.46875 -0.328125,0.359375 -0.609375,0.84375 -0.609375,0.890625 0,0.015625 0,0.109375 0.125,0.109375 0.078125,0 0.09375,-0.046875 0.15625,-0.125 C 1.03125,-3.71875 1.609375,-3.71875 1.8125,-3.71875 h 0.828125 l -0.96875,3.203125 C 1.625,-0.40625 1.5625,-0.1875 1.5625,-0.15625 c 0,0.109375 0.078125,0.28125 0.296875,0.28125 0.328125,0 0.375,-0.28125 0.40625,-0.4375 z m 0,0"
             id="id-87026df0-2f11-42a5-a7cf-c08b6c051259" />
        </g>
      </g>
      <g
         fill="#000000"
         fill-opacity="1"
         id="id-38627a10-5d8a-43bc-8e6f-2b9a97347844"
         transform="translate(-148.978,-127.734)">
        <g
           transform="translate(153.068,136.259)"
           id="g21">
          <path
             d="M 2.84375,-2.75 H 3.515625 C 3.65625,-2.75 3.75,-2.75 3.75,-2.90625 3.75,-3 3.65625,-3 3.53125,-3 H 2.890625 c 0.15625,-0.890625 0.203125,-1.203125 0.265625,-1.40625 0.03125,-0.15625 0.1875,-0.296875 0.359375,-0.296875 0,0 0.1875,0 0.328125,0.078125 -0.296875,0.09375 -0.3125,0.34375 -0.3125,0.375 0,0.15625 0.125,0.265625 0.28125,0.265625 0.1875,0 0.390625,-0.15625 0.390625,-0.421875 0,-0.328125 -0.328125,-0.5 -0.6875,-0.5 -0.3125,0 -0.65625,0.171875 -0.84375,0.515625 C 2.53125,-4.125 2.484375,-3.8125 2.328125,-3 H 1.78125 c -0.140625,0 -0.234375,0 -0.234375,0.15625 0,0.09375 0.09375,0.09375 0.21875,0.09375 H 2.28125 c 0,0.046875 -0.4375,2.546875 -0.609375,3.296875 -0.03125,0.15625 -0.15625,0.671875 -0.484375,0.671875 -0.015625,0 -0.171875,0 -0.3125,-0.078125 0.28125,-0.09375 0.3125,-0.34375 0.3125,-0.375 C 1.1875,0.609375 1.0625,0.5 0.90625,0.5 c -0.1875,0 -0.390625,0.15625 -0.390625,0.421875 0,0.3125 0.328125,0.5 0.671875,0.5 0.4375,0 0.75,-0.453125 0.828125,-0.609375 0.25,-0.46875 0.421875,-1.328125 0.4375,-1.40625 z m 0,0"
             id="id-753a8570-ab69-4ea2-a1a8-e7199ed8aa4d" />
        </g>
      </g>
      <g
         fill="#000000"
         fill-opacity="1"
         id="id-3d3059b2-abe7-40fd-8110-fe4dac49b816"
         transform="translate(-148.978,-127.734)">
        <g
           transform="translate(161,134.765)"
           id="g22">
          <path
             d="m 6.84375,-3.265625 c 0.15625,0 0.34375,0 0.34375,-0.1875 C 7.1875,-3.65625 7,-3.65625 6.859375,-3.65625 h -5.96875 c -0.140625,0 -0.328125,0 -0.328125,0.203125 0,0.1875 0.1875,0.1875 0.328125,0.1875 z m 0.015625,1.9375 c 0.140625,0 0.328125,0 0.328125,-0.203125 0,-0.1875 -0.1875,-0.1875 -0.34375,-0.1875 H 0.890625 c -0.140625,0 -0.328125,0 -0.328125,0.1875 0,0.203125 0.1875,0.203125 0.328125,0.203125 z m 0,0"
             id="id-35a1ba43-0afe-4a9e-8773-cfec4405191b" />
        </g>
      </g>
      <g
         fill="#000000"
         fill-opacity="1"
         id="id-3e4a2b78-ee25-4855-a2d9-508787401753"
         transform="translate(-148.978,-127.734)">
        <g
           transform="translate(171.516,134.765)"
           id="g23">
          <path
             d="m 6.4375,-6.921875 c 0,-0.03125 -0.03125,-0.109375 -0.125,-0.109375 -0.046875,0 -0.046875,0.015625 -0.171875,0.15625 L 5.65625,-6.3125 c -0.25,-0.46875 -0.765625,-0.71875 -1.421875,-0.71875 -1.265625,0 -2.453125,1.15625 -2.453125,2.359375 0,0.796875 0.515625,1.265625 1.03125,1.40625 l 1.0625,0.28125 c 0.375,0.09375 0.921875,0.25 0.921875,1.0625 0,0.890625 -0.8125,1.828125 -1.796875,1.828125 -0.640625,0 -1.75,-0.21875 -1.75,-1.453125 0,-0.234375 0.0625,-0.484375 0.0625,-0.53125 0.015625,-0.046875 0.015625,-0.0625 0.015625,-0.078125 0,-0.09375 -0.0625,-0.109375 -0.109375,-0.109375 -0.046875,0 -0.078125,0.015625 -0.109375,0.046875 -0.03125,0.03125 -0.59375,2.3125 -0.59375,2.34375 0,0.046875 0.046875,0.09375 0.109375,0.09375 0.046875,0 0.0625,-0.015625 0.1875,-0.15625 L 1.296875,-0.5 c 0.421875,0.578125 1.109375,0.71875 1.6875,0.71875 1.359375,0 2.53125,-1.328125 2.53125,-2.5625 0,-0.6875 -0.34375,-1.03125 -0.484375,-1.171875 C 4.796875,-3.734375 4.640625,-3.78125 3.765625,-4 3.53125,-4.0625 3.1875,-4.171875 3.09375,-4.1875 2.828125,-4.28125 2.484375,-4.5625 2.484375,-5.09375 c 0,-0.8125 0.796875,-1.65625 1.75,-1.65625 0.8125,0 1.421875,0.4375 1.421875,1.546875 0,0.3125 -0.03125,0.5 -0.03125,0.5625 0,0 0,0.09375 0.109375,0.09375 0.109375,0 0.125,-0.03125 0.15625,-0.203125 z m 0,0"
             id="id-1d557024-fe65-479b-acce-e6c6cdbc805e" />
        </g>
      </g>
      <g
         fill="#000000"
         fill-opacity="1"
         id="id-29435e53-2f30-4bf7-af90-aa09c0a46fc4"
         transform="translate(-148.978,-127.734)">
        <g
           transform="translate(177.625,136.259)"
           id="g24">
          <path
             d="M 2.953125,-1.125 C 2.90625,-0.984375 2.84375,-0.71875 2.84375,-0.71875 2.703125,-0.5 2.421875,-0.125 2,-0.125 c -0.484375,0 -0.484375,-0.453125 -0.484375,-0.578125 0,-0.40625 0.1875,-0.90625 0.390625,-1.421875 C 1.953125,-2.265625 2,-2.359375 2,-2.46875 2,-2.84375 1.6875,-3.078125 1.34375,-3.078125 0.640625,-3.078125 0.328125,-2.125 0.328125,-2 c 0,0.078125 0.09375,0.078125 0.125,0.078125 0.09375,0 0.09375,-0.03125 0.125,-0.109375 0.15625,-0.5625 0.46875,-0.84375 0.734375,-0.84375 0.125,0 0.171875,0.078125 0.171875,0.234375 0,0.171875 -0.046875,0.3125 -0.125,0.46875 -0.375,0.96875 -0.375,1.171875 -0.375,1.359375 0,0.109375 0,0.4375 0.265625,0.65625 0.203125,0.171875 0.46875,0.21875 0.71875,0.21875 0.4375,0 0.671875,-0.234375 0.90625,-0.453125 C 3.03125,0.0625 3.484375,0.0625 3.578125,0.0625 3.8125,0.0625 4,-0.0625 4.125,-0.296875 4.28125,-0.578125 4.375,-0.96875 4.375,-1 c 0,-0.09375 -0.09375,-0.09375 -0.109375,-0.09375 -0.109375,0 -0.109375,0.03125 -0.15625,0.21875 -0.09375,0.328125 -0.21875,0.75 -0.515625,0.75 -0.171875,0 -0.234375,-0.15625 -0.234375,-0.34375 0,-0.109375 0.0625,-0.375 0.109375,-0.546875 0.046875,-0.1875 0.125,-0.46875 0.15625,-0.625 l 0.15625,-0.625 C 3.828125,-2.4375 3.90625,-2.75 3.90625,-2.78125 3.90625,-2.921875 3.796875,-3 3.671875,-3 c -0.25,0 -0.3125,0.203125 -0.359375,0.421875 z m 0,0"
             id="id-88f92bfd-ae8d-4d45-8310-f44df699dd91" />
        </g>
      </g>
      <g
         fill="#000000"
         fill-opacity="1"
         id="id-6db74bf3-dd23-4d92-b7e2-c4da3fead9f2"
         transform="translate(-148.978,-127.734)">
        <g
           transform="translate(185.601,134.765)"
           id="g25">
          <path
             d="m 6.84375,-3.265625 c 0.15625,0 0.34375,0 0.34375,-0.1875 C 7.1875,-3.65625 7,-3.65625 6.859375,-3.65625 h -5.96875 c -0.140625,0 -0.328125,0 -0.328125,0.203125 0,0.1875 0.1875,0.1875 0.328125,0.1875 z m 0.015625,1.9375 c 0.140625,0 0.328125,0 0.328125,-0.203125 0,-0.1875 -0.1875,-0.1875 -0.34375,-0.1875 H 0.890625 c -0.140625,0 -0.328125,0 -0.328125,0.1875 0,0.203125 0.1875,0.203125 0.328125,0.203125 z m 0,0"
             id="id-3172bce4-cb0d-4c7d-8d73-838207918183" />
        </g>
      </g>
      <g
         fill="#000000"
         fill-opacity="1"
         id="id-0a6dab17-3ebc-443a-99c2-4b8e524aa4f9"
         transform="translate(-148.978,-127.734)">
        <g
           transform="translate(196.117,134.765)"
           id="g26">
          <path
             d="m 3.953125,-3.78125 c -0.171875,0 -0.296875,0 -0.4375,0.125 -0.171875,0.15625 -0.1875,0.328125 -0.1875,0.390625 0,0.25 0.1875,0.359375 0.375,0.359375 0.28125,0 0.546875,-0.25 0.546875,-0.640625 0,-0.484375 -0.46875,-0.859375 -1.171875,-0.859375 -1.34375,0 -2.671875,1.421875 -2.671875,2.828125 0,0.90625 0.578125,1.6875 1.625,1.6875 1.421875,0 2.25,-1.0625 2.25,-1.171875 0,-0.0625 -0.046875,-0.140625 -0.109375,-0.140625 -0.0625,0 -0.078125,0.03125 -0.140625,0.109375 -0.78125,0.984375 -1.875,0.984375 -1.984375,0.984375 -0.625,0 -0.90625,-0.484375 -0.90625,-1.09375 0,-0.40625 0.203125,-1.375 0.546875,-1.984375 0.3125,-0.578125 0.859375,-1 1.40625,-1 0.328125,0 0.71875,0.125 0.859375,0.40625 z m 0,0"
             id="id-d99fad79-b1d2-480a-93c3-fbb11b545304" />
        </g>
      </g>
      <g
         fill="#000000"
         fill-opacity="1"
         id="id-ad2b16bb-5595-4f1e-83f3-babedcb2497a"
         transform="translate(-148.978,-127.734)">
        <g
           transform="translate(200.428,136.259)"
           id="g27">
          <path
             d="M 2.953125,-1.125 C 2.90625,-0.984375 2.84375,-0.71875 2.84375,-0.71875 2.703125,-0.5 2.421875,-0.125 2,-0.125 c -0.484375,0 -0.484375,-0.453125 -0.484375,-0.578125 0,-0.40625 0.1875,-0.90625 0.390625,-1.421875 C 1.953125,-2.265625 2,-2.359375 2,-2.46875 2,-2.84375 1.6875,-3.078125 1.34375,-3.078125 0.640625,-3.078125 0.328125,-2.125 0.328125,-2 c 0,0.078125 0.09375,0.078125 0.125,0.078125 0.09375,0 0.09375,-0.03125 0.125,-0.109375 0.15625,-0.5625 0.46875,-0.84375 0.734375,-0.84375 0.125,0 0.171875,0.078125 0.171875,0.234375 0,0.171875 -0.046875,0.3125 -0.125,0.46875 -0.375,0.96875 -0.375,1.171875 -0.375,1.359375 0,0.109375 0,0.4375 0.265625,0.65625 0.203125,0.171875 0.46875,0.21875 0.71875,0.21875 0.4375,0 0.671875,-0.234375 0.90625,-0.453125 C 3.03125,0.0625 3.484375,0.0625 3.578125,0.0625 3.8125,0.0625 4,-0.0625 4.125,-0.296875 4.28125,-0.578125 4.375,-0.96875 4.375,-1 c 0,-0.09375 -0.09375,-0.09375 -0.109375,-0.09375 -0.109375,0 -0.109375,0.03125 -0.15625,0.21875 -0.09375,0.328125 -0.21875,0.75 -0.515625,0.75 -0.171875,0 -0.234375,-0.15625 -0.234375,-0.34375 0,-0.109375 0.0625,-0.375 0.109375,-0.546875 0.046875,-0.1875 0.125,-0.46875 0.15625,-0.625 l 0.15625,-0.625 C 3.828125,-2.4375 3.90625,-2.75 3.90625,-2.78125 3.90625,-2.921875 3.796875,-3 3.671875,-3 c -0.25,0 -0.3125,0.203125 -0.359375,0.421875 z m 0,0"
             id="id-1ab75e36-3993-4339-99bd-e8753ba3d1d1" />
        </g>
      </g>
    </g>
  </g>
</svg>
