<?xml version="1.0" encoding="UTF-8" standalone="no"?>
<!-- Created with Inkscape (http://www.inkscape.org/) -->

<svg
   width="3.4000001in"
   height="0.60000002in"
   viewBox="0 0 86.360004 15.240001"
   version="1.1"
   id="svg1"
   inkscape:version="1.4 (86a8ad7, 2024-10-11)"
   sodipodi:docname="EX340.svg"
   xmlns:inkscape="http://www.inkscape.org/namespaces/inkscape"
   xmlns:sodipodi="http://sodipodi.sourceforge.net/DTD/sodipodi-0.dtd"
   xmlns="http://www.w3.org/2000/svg"
   xmlns:svg="http://www.w3.org/2000/svg">
  <sodipodi:namedview
     id="namedview1"
     pagecolor="#ffffff"
     bordercolor="#111111"
     borderopacity="1"
     inkscape:showpageshadow="0"
     inkscape:pageopacity="0"
     inkscape:pagecheckerboard="1"
     inkscape:deskcolor="#d1d1d1"
     inkscape:document-units="mm"
     inkscape:zoom="2.932688"
     inkscape:cx="141.6789"
     inkscape:cy="83.02963"
     inkscape:window-width="1920"
     inkscape:window-height="1012"
     inkscape:window-x="1912"
     inkscape:window-y="-8"
     inkscape:window-maximized="1"
     inkscape:current-layer="layer1" />
  <defs
     id="defs1" />
  <g
     inkscape:label="Layer 1"
     inkscape:groupmode="layer"
     id="layer1">
    <g
       id="g1"
       style="stroke:#008000">
      <g
         id="g17"
         transform="matrix(0.04564188,0,0,0.04564188,52.158096,-6.7424341)"
         style="stroke:#008000">
        <path
           fill="none"
           stroke="#000000"
           stroke-width="4"
           stroke-linecap="round"
           stroke-linejoin="round"
           d="m -570.968,170.828 -0.784,-1.016 0.033,-1.935 0.695,-0.607 -0.339,-0.103 0.659,0.148 -0.654,0.042 0.334,1.049 -1.562,4.149 -0.464,3.108 -2.457,6.72 -0.756,5.151 -0.39,-0.15 0.787,-0.731 0.041,-0.771 -1.463,-1.784 0.014,-1.459 -2.137,-6.621 -1.985,-7.907 -0.281,-2.343 0.293,-2.705 12.933,-1.564 12.752,-0.038 6.125,0.692 4.8,1.568 2.272,0.36 3.966,2.008 0.818,0.639 1.033,1.81 -0.402,2.32 -2.166,3.399 -2.996,2.774 -4.489,3.044 -10.199,5.75 -15.163,6.948 -12.381,4.148 -0.952,-0.052 0.015,-0.863 0.383,-1.268 1.055,-1.097 2.966,-1.899 4.978,-1.484"
           id="path17"
           style="stroke:#008000" />
      </g>
      <g
         id="g18"
         transform="matrix(0.04564188,0,0,0.04564188,52.158096,-6.7424341)"
         style="stroke:#008000">
        <path
           fill="none"
           stroke="#000000"
           stroke-width="4"
           stroke-linecap="round"
           stroke-linejoin="round"
           d="m -541.972,175.97 7.215,-3.3 4.175,-3.221 3.265,-3.634 -0.639,-0.964 -0.73,0.184 -0.472,-0.943 -0.034,0.376 0.627,0.045 -0.555,0.236 0.539,0.247 0.522,3.317 -1.499,6.225 -4.801,8.933 -1.051,2.998 0.255,0.136 -0.359,0.098 0.522,-0.282 -0.044,-0.602 0.824,-0.583 -0.263,-0.449 0.231,-1.037 0.448,-0.657 0.957,-3.378 1.194,-1.31 0.598,-2.462 0.936,-1.729 0.214,-2.043 2.181,-3.093 0.716,-0.738 0.463,0.154 0.568,-1.464 1.285,-1.712 -0.524,-0.263 -0.049,-0.415 0.739,-0.295 1.319,-0.449 2.375,0.358 4.89,3.836 0.81,1.896 -0.025,0.62 0.996,1.169 0.681,2.729 0.907,1.409 -0.728,2.536 -0.793,0.818 -0.279,2.698 0.445,0.921 -0.511,2.373 1.309,-0.116 -0.555,-0.301 -0.58,-1.164 -1.37,-0.985 -4.017,-1.624 -7.396,-1.661 -1.772,-1.02 -0.671,0.223 -5,-0.061 -0.006,-0.544 0.294,0.412 1.48,0.298 0.996,-0.415 2.322,0.344 5.565,-0.349 10.863,-1.565 3.86,-0.215 0.827,0.214 3.189,-1.31 2.072,-1.553"
           id="path18"
           style="stroke:#008000" />
      </g>
      <g
         id="g19"
         transform="matrix(0.04564188,0,0,0.04564188,52.158096,-6.7424341)"
         style="stroke:#008000">
        <path
           fill="none"
           stroke="#000000"
           stroke-width="4"
           stroke-linecap="round"
           stroke-linejoin="round"
           d="m -492.82,168.439 -1.808,-0.794 0.723,0.292 -0.401,0.254 1.521,1.602 -0.729,4.922 0.574,1.163 -1.035,2.662 -0.935,1.06 -0.41,3.571 0.604,1.218 -0.488,0.489 -0.478,1.832 -0.665,0.196 0.342,1.369 0.364,-0.577 -0.307,-0.398 -0.045,-1.442 0.271,-0.547 -0.781,-3.247 -1.236,-2.245 -2.874,-3.109 -2.333,-1.933 -3.074,-3.871 -0.553,-1.438 -2.542,-2.331 -0.279,-0.846 1.17,0.336 -0.31,0.088 0.368,0.372 0.219,-0.508 1.256,0.234 3.673,-0.624 0.929,-0.731 3.81,-0.207 1.112,-0.438 8.55,-1.32 2.714,-0.036 2.982,-1.24 3.142,-0.364 1.932,0.143"
           id="path19"
           style="stroke:#008000" />
      </g>
      <g
         id="g20"
         transform="matrix(0.04564188,0,0,0.04564188,52.158096,-6.7424341)"
         style="stroke:#008000">
        <path
           fill="none"
           stroke="#000000"
           stroke-width="4"
           stroke-linecap="round"
           stroke-linejoin="round"
           d="m -460.142,169.489 -0.657,-2.116 0.078,-0.579 0.434,-0.176 -0.627,0.388 -0.102,0.866 0.411,0.608 -3.528,3.786 -2.194,4.137 -3.238,3.691 -1.792,1.212 -1.512,2.802 -1.209,1.231 -1.192,2.201 -0.01,1.389 -0.272,-0.117 0.181,-0.178 -0.477,-0.018 -0.234,-0.222 0.442,-0.019 -0.195,-0.14 0.53,-0.322 -0.473,-1.17 0.506,-0.399 1.037,-2.46 1.113,-1.34 1.716,-3.048 1.376,-1.382 3.462,-6.436 1.912,-2.386 3.286,-2.79 0.463,-1.058 1.381,1.07 0.671,1.894 1.714,2.306 1.123,3.676 -0.608,0.62 -0.214,0.836 0.676,0.715 1.586,3.797 0.579,2.954 -0.324,0.896 0.653,2.384 0.997,0.991 -0.233,0.322 0.132,0.964 0.215,-0.306 -0.673,-0.037 0.15,-0.364 -0.544,-0.35 0.302,-0.17 -0.116,-0.65 -1.795,-0.341 -2.289,-0.997 -8.208,-5.402 -0.607,0.106 0.118,0.401 0.917,0.808 0.798,0.145 0.386,-0.303 3.214,0.574 0.458,-0.455 8.203,-1.548 3.122,-1.008"
           id="path20"
           style="stroke:#008000" />
      </g>
      <g
         id="g21"
         transform="matrix(0.04564188,0,0,0.04564188,52.158096,-6.7424341)"
         style="stroke:#008000">
        <path
           fill="none"
           stroke="#000000"
           stroke-width="4"
           stroke-linecap="round"
           stroke-linejoin="round"
           d="m -423.663,176.066 -0.364,-0.289 0.076,0.36 -0.222,-0.053 0.487,-0.002 0.207,-0.49 -0.306,-0.094 0.353,0.522 -0.097,0.827 0.626,1.065"
           id="path21"
           style="stroke:#008000" />
      </g>
      <g
         id="g22"
         transform="matrix(0.04564188,0,0,0.04564188,52.158096,-6.7424341)"
         style="stroke:#008000">
        <path
           fill="none"
           stroke="#000000"
           stroke-width="4"
           stroke-linecap="round"
           stroke-linejoin="round"
           d="m -425.495,190.352 -0.532,0.267 0.185,-0.513 0.056,0.3 -0.486,0.315 0.59,-0.143 -0.137,-0.362 1.013,-0.341"
           id="path22"
           style="stroke:#008000" />
      </g>
    </g>
    <g
       id="g3"
       style="stroke:#008000">
      <g
         id="g43"
         transform="matrix(0.04564188,0,0,0.04564188,52.158096,-6.7424341)"
         style="stroke:#008000">
        <path
           fill="none"
           stroke="#000000"
           stroke-width="4"
           stroke-linecap="round"
           stroke-linejoin="round"
           d="m -574.327,232.133 0.148,-1.388 0.822,-0.297 -0.594,0.062 -1.45,1.497 -3.07,6.416 -4.283,13.592 -0.347,2.885 -1.888,3.643 0.19,0.315 -0.393,0.247 -0.197,-0.495 0.443,0.005 0.519,-1.618 0.518,-3.821 0.567,-1.277 0.706,-3.475 0.569,-4.791"
           id="path43"
           style="stroke:#008000" />
      </g>
      <g
         id="g44"
         transform="matrix(0.04564188,0,0,0.04564188,52.158096,-6.7424341)"
         style="stroke:#008000">
        <path
           fill="none"
           stroke="#000000"
           stroke-width="4"
           stroke-linecap="round"
           stroke-linejoin="round"
           d="m -576.74,227.92 0.044,-0.861 1.395,-2.224 2.448,-1.115 2.188,-0.25 3.136,0.322 5.911,-1.359 5.235,-0.088 2.037,0.258 1.145,0.51 0.571,0.558 0.07,0.588 -0.218,2.309 -1.159,3.212 -7.642,8.914 -8.555,5.828 -4.669,1.777 -1.239,0.055 -0.641,-1.124 -0.263,-1.282 0.391,-1.292 0.452,-0.345"
           id="path44"
           style="stroke:#008000" />
      </g>
      <g
         id="g45"
         transform="matrix(0.04564188,0,0,0.04564188,52.158096,-6.7424341)"
         style="stroke:#008000">
        <path
           fill="none"
           stroke="#000000"
           stroke-width="4"
           stroke-linecap="round"
           stroke-linejoin="round"
           d="m -546.028,232.899 -0.538,-0.308 0.39,-0.684 -0.295,0.843 -0.163,3.569 -0.993,3.503 -1.005,5.597 -1.621,2.68 -0.205,1.623 -0.501,-0.005 0.999,-1.048 -0.495,-0.881 0.061,-1.114 1.346,-1.921 1.503,-3.27 2.283,-3.831 1.347,-1.709 2.328,-1.948 5.083,-5.265 3.642,-2.215 4.59,-1.612 2.246,-0.148 0.183,0.79 0.908,0.337 -1.124,3.579 -0.753,1.206 -0.084,1.202 -7.583,9.943 -0.848,2.551 -0.094,2.877 0.03,0.447 0.805,0.544 0.378,0.861 5.268,-0.711 6.802,-3.499 1.384,-1.317 0.602,-1.264 3.462,-2.052 1.147,-1.727 0.192,-1.309 2.523,-1.793 0.383,-2.435 0.765,-0.461 0.415,0.239 -0.278,0.336 0.453,-0.084 -0.787,-0.024 0.771,-0.179"
           id="path45"
           style="stroke:#008000" />
      </g>
      <g
         id="g46"
         transform="matrix(0.04564188,0,0,0.04564188,52.158096,-6.7424341)"
         style="stroke:#008000">
        <path
           fill="none"
           stroke="#000000"
           stroke-width="4"
           stroke-linecap="round"
           stroke-linejoin="round"
           d="m -508.94,229.439 -0.258,-0.104 0.288,0.294 -0.245,0.648 -0.01,-0.43 -0.5,0.026 0.213,0.046 0.13,1.8 -6.481,10.21 -0.687,2.065 -2.85,4.398 -0.445,1.672 -0.814,1.185 -0.506,1.379 0.677,0.787 2.527,-0.045"
           id="path46"
           style="stroke:#008000" />
      </g>
      <g
         id="g47"
         transform="matrix(0.04564188,0,0,0.04564188,52.158096,-6.7424341)"
         style="stroke:#008000">
        <path
           fill="none"
           stroke="#000000"
           stroke-width="4"
           stroke-linecap="round"
           stroke-linejoin="round"
           d="m -498.804,239.721 0.074,-0.734 -0.397,-0.347 0.718,-0.879 -0.344,0.008 0.442,1.41 -0.693,2.036 -0.891,0.936 0.05,0.648 -2.152,6.319 -5.403,5.543 0.056,-0.469 0.668,-0.351 0.002,-0.369 0.83,-0.774 -0.367,-0.172 -0.31,-2.297 0.458,-2.361 1.031,-1.564 0.874,-2.375 0.179,-1.457 2.194,-3.102 1.87,-1.398 1.834,-2.594 1.629,-1.722 1.425,-0.713 1.123,-0.05 1.782,0.986 -0.303,0.44 0.419,0.299 1.774,3.342 -0.296,0.382 -0.171,2.495 1.261,8.08 1.366,1.565 1.933,1.159 0.757,-0.253 0.843,-0.904 2.605,-0.939 1.672,-2.895 1.68,-2.174 1.481,-4.897 -0.2,-0.755 0.393,-2.521 -0.415,-1.101 -0.11,-2.115 -0.317,-0.284 0.092,-0.561 -0.288,0.107 0.824,1.161 0.077,1.177 0.295,0.28"
           id="path47"
           style="stroke:#008000" />
      </g>
      <g
         id="g48"
         transform="matrix(0.04564188,0,0,0.04564188,52.158096,-6.7424341)"
         style="stroke:#008000">
        <path
           fill="none"
           stroke="#000000"
           stroke-width="4"
           stroke-linecap="round"
           stroke-linejoin="round"
           d="m -455.287,230.708 0.958,-3.866 0.093,-3.903 -0.499,1.022 0.09,0.695 -1.214,1.313 0.014,0.613 -6.517,5.16 -2.667,2.939 -4.722,6.813 -1.296,3.701 0.245,3.644 -0.503,1.028 2.749,3.626 0.25,-0.22 3.549,0.282 4.787,-0.756 6.218,-2.58 0.882,-1.081"
           id="path48"
           style="stroke:#008000" />
      </g>
      <g
         id="g49"
         transform="matrix(0.04564188,0,0,0.04564188,52.158096,-6.7424341)"
         style="stroke:#008000">
        <path
           fill="none"
           stroke="#000000"
           stroke-width="4"
           stroke-linecap="round"
           stroke-linejoin="round"
           d="m -439.513,230.647 0.546,-1.36 -0.513,-0.929 0.744,0.076 -0.103,0.652 -0.773,0.613 -0.178,2.037 -1.718,3.359 -1.44,1.593 -1.013,3.487 0.014,1.958 -2.486,4.985 -0.257,2.742 0.308,1.036 -0.454,1.192 0.705,0.361"
           id="path49"
           style="stroke:#008000" />
      </g>
      <g
         id="g50"
         transform="matrix(0.04564188,0,0,0.04564188,52.158096,-6.7424341)"
         style="stroke:#008000">
        <path
           fill="none"
           stroke="#000000"
           stroke-width="4"
           stroke-linecap="round"
           stroke-linejoin="round"
           d="m -429.512,231.445 -1.246,-0.381 -0.126,0.473 0.438,0.102 -0.222,-0.319 -0.377,1.779 -0.559,0.535 -0.895,5.946 -2.341,10.327 -0.522,1.271 0.53,0.866 -0.385,0.19 -0.403,-0.946 0.176,0.427 0.302,-0.423 -0.287,-0.685 0.721,-1.149 0.988,-2.96 0.003,-1.42 1.199,-3.002 1.367,-1.627 1.817,-6.528 3.088,-4.326 1.633,-1.011 0.482,-0.916 3.009,-2.795 2.83,-0.65 2.308,1.263 2.408,0.592 0.068,1.326 -0.609,1.992 0.383,0.328 -0.696,0.299 -1.734,2.061 -2.149,1.469 -4.611,2.597 -6.252,2.912 -3.771,0.971 -1.035,-0.372 -0.093,0.551 0.657,0.266 1.03,-0.55 2.417,-0.258"
           id="path50"
           style="stroke:#008000" />
      </g>
      <g
         id="g51"
         transform="matrix(0.04564188,0,0,0.04564188,52.158096,-6.7424341)"
         style="stroke:#008000">
        <path
           fill="none"
           stroke="#000000"
           stroke-width="4"
           stroke-linecap="round"
           stroke-linejoin="round"
           d="m -405.592,225.491 -1.065,0.199 -0.26,0.434 0.197,0.113 -0.18,-0.213 -1.015,1.121 -2.457,5.067 -3.451,5.505 -0.411,1.576 -1.581,2.392 -0.031,0.56 -0.132,-0.206 -0.337,0.293 -0.295,2.323 0.403,1.019 0.75,0.235 0.398,-0.461 1.919,0.292 0.956,-0.429 0.685,0.188 4.103,-0.448 9.585,-2.595 1.493,-0.744"
           id="path51"
           style="stroke:#008000" />
      </g>
      <g
         id="g52"
         transform="matrix(0.04564188,0,0,0.04564188,52.158096,-6.7424341)"
         style="stroke:#008000">
        <path
           fill="none"
           stroke="#000000"
           stroke-width="4"
           stroke-linecap="round"
           stroke-linejoin="round"
           d="m -386.395,226.315 -1.023,1.02 -1.018,1.962 -0.615,0.569 -0.364,1.845 -1.383,2.346 -0.816,0.678 -1.323,3.38 -0.604,0.751 -1.757,6.655 0.414,0.526 -0.204,1.078 1.055,0.09 0.832,-0.463 0.241,-0.307 -0.21,-0.894 0.602,-0.175 2.506,-2.219 1.136,-2.202"
           id="path52"
           style="stroke:#008000" />
      </g>
      <g
         id="g53"
         transform="matrix(0.04564188,0,0,0.04564188,52.158096,-6.7424341)"
         style="stroke:#008000">
        <path
           fill="none"
           stroke="#000000"
           stroke-width="4"
           stroke-linecap="round"
           stroke-linejoin="round"
           d="m -387.112,227.94 -0.195,-0.284 0.682,-0.28 0.741,-1.114 0.328,0.124 1.362,-0.683 3.549,-0.426 2.162,0.075 1.719,-0.361 0.305,-0.349 1.478,0.003 -0.012,-0.486 -0.408,-0.228 -0.125,0.545 -0.855,0.372 -2.512,0.42 -5.151,2.243 -4.916,2.622 -1.455,1.456 -2.292,1.598 -0.109,0.851 -0.805,0.563 -0.141,0.9 0.567,0.851 1.743,1.41 1.824,0.963 1.015,-0.005 2.104,1.019 1.915,0.05 0.336,-0.556 0.891,0.284 -0.008,0.752 -10.883,6.254 -0.924,0.949 -1.066,0.553 -0.207,-0.148 0.525,1.262 3.145,0.15 2.889,1.04 3.548,0.101 4.265,-1.171 1.483,-0.969 3.209,-1.08 1.294,-0.891 6.066,-1.62 3.396,-1.284 0.751,-0.312 2.392,-2.106"
           id="path53"
           style="stroke:#008000" />
      </g>
      <g
         id="g54"
         transform="matrix(0.04564188,0,0,0.04564188,52.158096,-6.7424341)"
         style="stroke:#008000">
        <path
           fill="none"
           stroke="#000000"
           stroke-width="4"
           stroke-linecap="round"
           stroke-linejoin="round"
           d="m -357.728,225.071 0.7,-0.615 0.655,-0.109 -0.054,-0.317 -0.344,-0.037 0.503,-0.181 0.106,0.214 -0.276,0.027 0.342,0.061 -0.022,-0.466 -0.491,-0.001 0.079,0.427 -0.945,0.858 -5.069,2.318 -1.62,0.424 -0.513,0.699 -2.559,1.549 -1.434,2.164 0.119,1.19 -0.324,0.427 2.328,2.307 1.423,0.532 2.381,1.74 1.064,0.254 1.15,1.457 0.335,1.055 1.925,2.261 0.56,0.401 0.431,-0.234 1.677,6.691 -0.616,1.645 -1.607,1.727 -1.438,0.459 -5.653,0.023 -2.069,-0.754 -1.376,-1.426 -1.973,-1.048 0.291,-0.248 0.073,-0.992 1.122,-0.916"
           id="path54"
           style="stroke:#008000" />
      </g>
      <g
         id="g55"
         transform="matrix(0.04564188,0,0,0.04564188,52.158096,-6.7424341)"
         style="stroke:#008000">
        <path
           fill="none"
           stroke="#000000"
           stroke-width="4"
           stroke-linecap="round"
           stroke-linejoin="round"
           d="m -330.867,237.986 0.637,-2.457 -0.147,-0.511 -0.368,0.151 0.13,-0.488 -0.263,-0.387 0.263,-0.269 -0.854,0.066 0.015,0.553 -0.502,-0.35 -0.666,0.311 -0.328,-0.396 0.1,-0.231 0.631,0.259 0.151,-0.244 -0.295,0.151 0.748,2.296"
           id="path55"
           style="stroke:#008000" />
      </g>
      <g
         id="g56"
         transform="matrix(0.04564188,0,0,0.04564188,52.158096,-6.7424341)"
         style="stroke:#008000">
        <path
           fill="none"
           stroke="#000000"
           stroke-width="4"
           stroke-linecap="round"
           stroke-linejoin="round"
           d="m -335.252,249.279 0.35,-0.404 -0.219,-0.026 0.07,0.263 0.772,0.063 0.261,-0.243"
           id="path56"
           style="stroke:#008000" />
      </g>
    </g>
    <g
       id="g57"
       transform="matrix(0.04564188,0,0,0.04564188,52.158096,-6.7424341)">
      <path
         fill="none"
         stroke="#000000"
         stroke-width="4"
         stroke-linecap="round"
         stroke-linejoin="round"
         d="m -273.192,262.276 -0.285,-4.371 0.469,-1.724 2.515,1.494 1.477,2.113 2.672,9.386 1.145,8.014 -0.695,7.689 -1.373,5.18 -1.268,3.272 -2.996,4.407 -4.494,3.803 -0.534,1.237 -1.992,-0.06 -0.196,0.282 -0.604,-3.278 -0.07,-2.362 1.581,-4.24 2.35,-3.759 4.776,-6.655 3.03,-3.712 2.933,-2.885 0.674,-1.558 4.432,-6.029 1.87,-3.429 7.345,-11.373 2.684,-3.355 1.993,-1.995 3.642,-1.787 -0.33,0.434 -0.171,-0.314 -0.715,1.634 -0.381,-0.894 -0.481,2.034 0.783,1.686 1.069,1.005"
         id="path57" />
    </g>
    <g
       id="g58"
       transform="matrix(0.04564188,0,0,0.04564188,52.158096,-6.7424341)">
      <path
         fill="none"
         stroke="#000000"
         stroke-width="4"
         stroke-linecap="round"
         stroke-linejoin="round"
         d="m -243.125,280.731 1.3,-2.41 0.968,-2.652 0.041,-1.333 0.392,0.112 -0.192,0.531 -0.464,-0.015 0.153,0.969 -0.611,2.249 -1.803,4.689 -4.1,8.486 -3.293,7.925 0.164,1.644 -0.221,0.402 0.715,0.822 0.531,-0.983 -0.218,-0.684 0.459,-0.914 -0.085,-2.176 -1.059,-1.141 -3.463,-1.246 -2.984,0.507 -2.967,1.838 -0.765,0.897 -0.374,1.316 -0.738,0.71 -0.561,1.6 1.133,3.857 1.637,0.571 1.004,-0.264 1.095,0.293 4.006,-0.102 5.761,-0.948 2.845,-0.964 1.313,-1.477 -0.574,-0.521 0.021,0.748 -0.116,-0.469 -0.697,-0.015"
         id="path58" />
    </g>
    <g
       id="g59"
       transform="matrix(0.04564188,0,0,0.04564188,52.158096,-6.7424341)">
      <path
         fill="none"
         stroke="#000000"
         stroke-width="4"
         stroke-linecap="round"
         stroke-linejoin="round"
         d="m -230.759,308.92 1.411,-0.445 0.538,-0.524 0.893,0.715 -0.373,1.126 -0.634,0.485 -1.059,1.999 -3.95,4.254 -5.739,4.377 -0.969,0.408 0.033,-0.341 0.519,-0.096 0.18,0.45 0.419,0.011 1.495,-1.271"
         id="path59" />
    </g>
    <g
       id="g60"
       transform="matrix(0.04564188,0,0,0.04564188,52.158096,-6.7424341)">
      <path
         fill="none"
         stroke="#000000"
         stroke-width="4"
         stroke-linecap="round"
         stroke-linejoin="round"
         d="m -205.965,283.28 0.413,-1.131 0.324,0.374 -0.445,0.159 -0.12,-0.536 -1.309,1.933 -6.005,6.208 -2.638,4.019 -1.914,3.89 -0.456,3.236 0.465,0.271 0.594,3.123 0.195,-0.314 1.069,0.212 0.572,-0.353 1.182,0.339 0.892,-0.353 3.326,0.058 1.612,-0.504 1.138,-0.905 1.175,-0.161 1.892,-1.057 0.596,-0.907 0.447,-1.703 -0.422,-2.097"
         id="path60" />
    </g>
    <g
       id="g61"
       transform="matrix(0.04564188,0,0,0.04564188,52.158096,-6.7424341)">
      <path
         fill="none"
         stroke="#000000"
         stroke-width="4"
         stroke-linecap="round"
         stroke-linejoin="round"
         d="m -220.899,294.295 5.245,-0.651 1.457,-0.879 0.74,0.282 2.899,-0.262 3.375,0.106 1.349,0.343 1.129,-0.017 0.634,-0.337 0.443,0.243"
         id="path61" />
    </g>
    <g
       id="g62"
       transform="matrix(0.04564188,0,0,0.04564188,52.158096,-6.7424341)">
      <path
         fill="none"
         stroke="#000000"
         stroke-width="4"
         stroke-linecap="round"
         stroke-linejoin="round"
         d="m -192.725,288.362 -0.765,-0.845 0.103,-2.622 0.739,-0.094 -0.981,1.57 -1.234,4.454 -2.327,3.91 -2.124,4.526 -2.117,5.831 0.694,-0.055 0.111,-0.478 2.241,-2.045 3.546,-2.693 3.707,-3.574 0.913,-1.498 0.962,-0.467 0.389,0.07 0.201,0.55 -0.537,0.237 -0.177,1.922 -0.947,1.284 -3.588,7.151 0.628,0.767 1.138,-0.276 0.606,-0.924 0.32,0.28 1.447,-0.355 0.69,0.231 3.087,-1.12"
         id="path62" />
    </g>
    <g
       id="g63"
       transform="matrix(0.04564188,0,0,0.04564188,52.158096,-6.7424341)">
      <path
         fill="none"
         stroke="#000000"
         stroke-width="4"
         stroke-linecap="round"
         stroke-linejoin="round"
         d="m -182.281,301.726 2.684,-1.767 1.534,-0.59 0.624,0.143 1.153,-1.183 -0.032,-0.388 1.005,-1.271 -0.212,-1.849 0.301,-1.177 -0.268,-0.743 -2.124,2.374 -0.816,1.76 -1.37,1.394 -0.593,1.14 -0.61,3.476 0.639,1.151 1.196,0.529 0.503,-0.316 0.567,0.368 1.108,0.068 2.331,-0.443 3.117,-1.381 3.23,-2.485 1.275,-2.184 0.09,-0.463 -0.461,-0.583 -0.441,0.866 -1.199,0.531 -0.709,-0.217 -1.554,1.772 -0.856,1.89 -0.896,0.56 -0.116,1.055 0.335,0.487 3.218,0.991 2.75,0.264 1.58,-0.336 0.769,-0.263 1.149,-1.019 0.555,0.16 2.965,-1.142 1.513,-1.464 0.954,-1.618 0.105,-1.946 -0.894,-1.993 -1.207,-1.301 -0.869,0.221 -0.446,0.896"
         id="path63" />
    </g>
    <g
       id="g64"
       transform="matrix(0.04564188,0,0,0.04564188,52.158096,-6.7424341)">
      <path
         fill="none"
         stroke="#000000"
         stroke-width="4"
         stroke-linecap="round"
         stroke-linejoin="round"
         d="m -143.953,295.17 0.492,0.393 -0.488,1.975 -3.67,10.185 0.273,-0.517 0.025,-2.312 1.924,-3.849 2.705,-2.434 0.555,0.06 0.915,-1.253 2.903,-2.664 1.416,-0.77 2.498,-0.169"
         id="path64" />
    </g>
    <g
       id="g65"
       transform="matrix(0.04564188,0,0,0.04564188,52.158096,-6.7424341)">
      <path
         fill="none"
         stroke="#000000"
         stroke-width="4"
         stroke-linecap="round"
         stroke-linejoin="round"
         d="m -126.851,293.703 -1.936,0.224 -0.551,0.576 -0.745,0.163 -1.08,1.619 -0.2,1.38 0.29,1.542 0.929,0.6 0.516,-0.464 0.267,0.555 1.497,0.81 2.4,0.077 2.745,-1.073 1.372,-1.101 1.268,-1.606 0.965,-1.415 0.333,-3.452 -0.111,-0.521 -0.873,2.969 -2.65,11.117 -0.512,4.365 -1.744,8.727 -2.168,6.314 -3.337,5.581 -4.515,4.981 -1.666,1.002 -1.217,0.27 -2.461,-1.098 -0.874,-1.853 -0.333,-2.52 0.457,-2.202 2.436,-6.275 3.363,-6.142 2.81,-4.324 2.468,-3.35 3.113,0.706"
         id="path65" />
    </g>
    <g
       id="g66"
       transform="matrix(0.04564188,0,0,0.04564188,52.158096,-6.7424341)">
      <path
         fill="none"
         stroke="#000000"
         stroke-width="4"
         stroke-linecap="round"
         stroke-linejoin="round"
         d="m -72.0364,289.521 -1.261,0.238 -0.2111,-0.367 -0.487,0.658 0.5617,-0.101 0.2572,-0.448 1.0595,1.16 0.3504,-0.4 1.402,-0.318 4.2359,-0.557 1.5603,0.073 1.5151,-0.443 9.9286,-0.913 0.2359,0.425 -0.5365,-0.693 -1.3292,1.359"
         id="path66" />
    </g>
    <g
       id="g67"
       transform="matrix(0.04564188,0,0,0.04564188,52.158096,-6.7424341)">
      <path
         fill="none"
         stroke="#000000"
         stroke-width="4"
         stroke-linecap="round"
         stroke-linejoin="round"
         d="m -77.8371,300.604 0.221,0.248 3.1466,-0.05 1.3935,-0.741 0.779,0.327 4.1464,0.039 5.0899,-0.504 2.0638,-0.812 2.0903,0.102 6.2493,-0.559 0.6878,0.044 -0.249,0.458"
         id="path67" />
    </g>
    <g
       id="g68"
       transform="matrix(0.04564188,0,0,0.04564188,52.158096,-6.7424341)">
      <path
         fill="none"
         stroke="#000000"
         stroke-width="4"
         stroke-linecap="round"
         stroke-linejoin="round"
         d="m 37.0518,257.41 0.1693,-1.82 1.3299,-1.506 1.0325,-0.284 0.826,1.09 0.2908,2.882 -1.2236,30.24 -1.0345,4.787 -0.8361,1.968 -0.8391,1.021 -0.4382,-0.386 -1.0665,0.702 -0.6248,-0.752 -0.5936,-1.893 0.0713,-1.775 3.068,-12.297 1.9113,-4.522 3.2939,-6.386 3.839,-5.347 5.898,-6.372 2.7164,-2.143 4.3301,-2.486 4.3601,-1.988 3.8489,-2.806 1.9033,-2.173 1.4555,-3.855 -0.4307,2.058 -0.6373,0.965 -1.0624,3.622 -0.3494,2.56"
         id="path68" />
    </g>
    <g
       id="g69"
       transform="matrix(0.04564188,0,0,0.04564188,52.158096,-6.7424341)">
      <path
         fill="none"
         stroke="#000000"
         stroke-width="4"
         stroke-linecap="round"
         stroke-linejoin="round"
         d="m 62.6752,288.171 0.3219,-3.089 -0.2782,-1.725 0.5498,-1.041 -0.8077,1.334 -7.0487,8.309 -1.2199,2.504 0.1867,0.65 0.3144,-0.259 1.459,0.836 2.0045,0.035 3.03,-0.696 3.6744,-1.631 1.4972,-0.965 2.1855,-2.047 1.1109,-2.878 -0.0459,-0.603 -0.0535,0.496 -0.3539,-0.694 -0.4741,0.405 -1.2157,4.352 0.0953,0.973 0.725,1.086 1.6164,1.241 1.2991,0.167 6.388,-0.458 3.2378,-1.226 1.7035,-1.92 0.4894,-1.211 0.2988,-2.779 -1.2934,-3.598 -0.3687,0.047 1.8388,-0.238"
         id="path69" />
    </g>
    <g
       id="g70"
       transform="matrix(0.04564188,0,0,0.04564188,52.158096,-6.7424341)">
      <path
         fill="none"
         stroke="#000000"
         stroke-width="4"
         stroke-linecap="round"
         stroke-linejoin="round"
         d="m 144.896,262.327 1.437,-2.01 -0.192,-1.617 -0.115,-0.305 -3.165,-1.656 -3.372,-0.186 -5.151,0.911 -9.889,3.855 -3.718,2.33 -1.856,1.531 -1.977,2.26 -0.977,0.474 -4.841,4.117 -2.406,3.115 -1.305,2.381 -1.696,5.87 -0.096,4.023 0.543,2.828 1.246,3.038 1.398,1.963 2.362,2.127 4.432,2.434 4.691,1.127 2.303,-0.276 1.152,0.491 2.16,0.251 4.801,0.189 4.471,-1.069 2.008,-1.215 3.792,-1.558 2.692,-1.862 3.638,-3.42 2.197,-4.672 0.098,-2.194 -0.362,-1.411 -0.9,-1.249 -2.069,-1.525 -2.758,-1.224 -3.191,-0.576 -5.434,-0.193 -4.823,1.045 -0.804,-0.542 -0.623,0.851 -0.224,1.25 2.324,1.278"
         id="path70" />
    </g>
    <g
       id="g71"
       transform="matrix(0.04564188,0,0,0.04564188,52.158096,-6.7424341)">
      <path
         fill="none"
         stroke="#000000"
         stroke-width="4"
         stroke-linecap="round"
         stroke-linejoin="round"
         d="m 174.72,283.78 0.531,-1.603 -0.219,-0.751 -0.554,1.014 -0.987,-0.57 -3.286,0.789 -2.674,0.007 -3.709,0.708 -3.02,1.221 -1.169,0.891 -0.274,1.039 0.496,1.019 1.076,0.79 0.412,-0.232 0.324,0.786 1.541,1.018 1.212,0.173 2.786,1.458 0.504,-0.026 2.26,1.359 3.332,3.878 0.535,1.279 -0.394,1.37 -1.266,0.391 -5.68,0.974 -3.817,0.291 -0.597,0.472 -1.677,-1.308"
         id="path71" />
    </g>
    <g
       id="g72"
       transform="matrix(0.04564188,0,0,0.04564188,52.158096,-6.7424341)">
      <path
         fill="none"
         stroke="#000000"
         stroke-width="4"
         stroke-linecap="round"
         stroke-linejoin="round"
         d="M -25,312 H 242"
         id="path72" />
    </g>
    <g
       id="g73"
       transform="matrix(0.04564188,0,0,0.04564188,52.158096,-6.7424341)">
      <path
         fill="none"
         stroke="#000000"
         stroke-width="4"
         stroke-linecap="round"
         stroke-linejoin="round"
         d="m 10.3579,363.893 1.1488,-1.843 2.7752,-2.239 0.9179,-1.395 1.9846,-1.743 3.3464,-6.043 4.5277,-4.823 2.3478,-3.258 2.5936,-5.784 2.1595,-8.056 -0.9001,4.314 -1.6994,4.647 -1.891,6.646 -2.1516,5.219 -0.3642,2.912 0.4826,0.775 1.2778,-0.188"
         id="path73" />
    </g>
    <g
       id="g74"
       transform="matrix(0.04564188,0,0,0.04564188,52.158096,-6.7424341)">
      <path
         fill="none"
         stroke="#000000"
         stroke-width="4"
         stroke-linecap="round"
         stroke-linejoin="round"
         d="m 69.9063,333.669 0.4425,-2.249 0.7351,-0.758 0.4188,0.47 0.2293,-0.367 -0.2061,0.341 0.3292,3.317 -0.544,4.482 -3.4153,9.187 -1.7745,3.083 -0.1414,3.486 0.0906,0.363 0.7936,-0.592 -0.3014,-3.735"
         id="path74" />
    </g>
    <g
       id="g75"
       transform="matrix(0.04564188,0,0,0.04564188,52.158096,-6.7424341)">
      <path
         fill="none"
         stroke="#000000"
         stroke-width="4"
         stroke-linecap="round"
         stroke-linejoin="round"
         d="m 55.1829,344.544 -0.3011,-0.205 -0.0224,0.25 1.2375,-0.689 1.5087,-0.075 1.3691,-0.513 0.6946,0.539 0.8179,0.061 0.832,-0.5 3.7189,-0.879 1.7789,-0.931 5.1206,-0.092 2.6677,0.37 0.7858,0.378"
         id="path75" />
    </g>
    <g
       id="g76"
       transform="matrix(0.04564188,0,0,0.04564188,52.158096,-6.7424341)">
      <path
         fill="none"
         stroke="#000000"
         stroke-width="4"
         stroke-linecap="round"
         stroke-linejoin="round"
         d="m 121.921,329.723 0.744,-0.81 0.628,0.097 0.27,-0.38 -0.249,0.203 0.252,-0.021 0.219,0.54 0.037,-0.747 -0.122,0.215 -0.185,-0.236 0.217,0.342 -0.453,0.455 -0.526,-0.014 0.3,0.012 0.047,-0.317 0.023,0.449 0.262,-0.378 -0.218,0.357 0.18,-0.297 0.395,0.366 0.045,-0.613 -0.244,0.522 0.391,-0.105 -0.262,0.008 0.081,0.62 0.209,-0.427 -0.202,-0.483 -0.24,0.175 0.021,0.266 0.279,-0.226 -0.211,0.002 0.102,0.374 0.172,-0.757 -0.158,0.566 -0.064,-0.57 -0.07,0.323 0.173,0.34 0.037,-0.686 -0.187,0.544 0.093,-0.238 0.114,0.372 0.055,-0.522 -0.263,0.225 0.052,0.361 0.314,-0.374 -0.087,-0.512 -0.212,0.396 0.452,0.079 0.095,-0.3 0.033,0.614 0.033,-1.171 -0.071,0.675 -0.065,-0.339 -0.811,0.622 -1.069,0.006 -3.368,1.861 -1.828,1.712 -3.2,4.956 -0.757,1.92 -0.105,1.658 -0.327,0.59 0.381,2.169 1.637,1.232 3.025,0.745 2.24,-0.746 1.148,-1.03 0.564,0.063 2.748,-0.931 1.916,-1.472 1.112,-1.836 0.336,0.025 1.497,-1.531 0.523,-0.737 -0.434,-0.767 -0.443,0.848 -2.382,1.518 -1.439,1.402 -0.706,1.457 -0.213,1.258 0.086,1.668 1.155,1.929 0.99,0.068 1.072,0.845 2.091,0.62 2.691,-0.247 1.237,-0.622 0.703,0.016 4.435,-1.47 2.281,-1.204 2.511,-2.1 1.537,-2.405 0.799,-2.551 0.345,-6.91 -0.663,-2.986 -0.386,-0.201 -0.271,1.131 -0.198,-0.214 0.133,0.348 -0.195,0.162 -0.065,-0.362 -0.091,0.252 0.143,0.569 1.07,0.288"
         id="path76" />
    </g>
    <g
       id="g77"
       transform="matrix(0.04564188,0,0,0.04564188,52.158096,-6.7424341)">
      <path
         fill="none"
         stroke="#000000"
         stroke-width="4"
         stroke-linecap="round"
         stroke-linejoin="round"
         d="m 192.678,320.514 0.137,-2.481 -1.242,-1.468 -1.899,0.643 -3.605,0.405 -3.655,1.435 -4.85,3.338 -6.223,4.878 -4.55,3.686 -1.353,1.484 -2.304,3.327 -0.775,2.738 -0.089,1.774 0.811,3.566 2.493,2.654 2.264,1.326 3.462,1.077 1.473,-0.115 4.87,0.883 3.761,-0.776 5.654,-3.117 3.041,-3.066 0.523,-1.593 0.135,-1.999 -0.908,-2.644 -2.119,-1.073 -1.091,0.499 -1.749,-0.556 -3.083,0.472 -2.732,1.127 -2.198,1.446 -0.081,1.097 0.655,0.181 0.513,0.786"
         id="path77" />
    </g>
    <g
       id="g78"
       transform="matrix(0.04564188,0,0,0.04564188,52.158096,-6.7424341)">
      <path
         fill="none"
         stroke="#000000"
         stroke-width="4"
         stroke-linecap="round"
         stroke-linejoin="round"
         d="m 207.536,334.442 0.69,-3.517 -1.187,0.814 -0.694,-0.307 -0.342,0.382 -1.713,0.461 -0.528,-0.133 -1.35,0.872 -1.883,0.58 -1.115,1.309 -0.571,0.248 -0.578,0.989 0.503,3.453 0.856,1.194 1.679,1.389 0.482,0.866 1.624,1.033 3.148,3.034 0.418,-0.088 0.921,3.14 -0.147,0.495 -1.034,0.897 -1.401,0.635 -3.5,0.757 -4.031,0.019 -4.007,-1.149 0.351,-0.644"
         id="path78" />
    </g>
    <g
       id="g79"
       transform="matrix(0.04564188,0,0,0.04564188,52.158096,-6.7424341)">
      <path
         fill="none"
         stroke="#000000"
         stroke-width="4"
         stroke-linecap="round"
         stroke-linejoin="round"
         d="m 244.447,325.609 0.537,-0.404 1.226,-0.016 0.484,-0.841 2.044,-1.308 0.052,0.478 -0.357,-0.146 0.103,-0.277 -0.043,0.656 -0.027,-0.222 -0.747,0.192 -6.114,7.884 -6.519,9.231 -5.943,7.121 -5.426,4.816 -4.45,4.478 -4.176,5.705 -1.632,1.237 -2.909,4.652 -1.052,3.344 0.01,-0.64 0.029,1.055 0.299,-0.679 -0.187,-0.673 -0.182,0.2 1.899,-3.965 3.417,-2.357"
         id="path79" />
    </g>
    <g
       id="g80"
       transform="matrix(0.04564188,0,0,0.04564188,52.158096,-6.7424341)">
      <path
         fill="none"
         stroke="#000000"
         stroke-width="4"
         stroke-linecap="round"
         stroke-linejoin="round"
         d="m 269.891,336.29 -0.191,-0.256 -0.247,0.153 -0.069,-0.542 0.884,-1.181 0.029,-0.97 -0.915,-0.254 -0.379,0.233 -1.934,-0.592 -3.166,0.837 -5.387,2.347 -1.288,-0.051 -0.494,0.802 -4.397,3.907 -0.997,1.505 0.296,2.392 1.542,2.214 2.179,0.464 1.951,1.139 1.201,1.465 0.529,-0.164 2.441,0.594 0.726,-0.102 2.572,1.01 1.724,1.019 2.114,2.023 0.543,1.691 -0.171,1.437 0.329,0.94 -2.715,4.206 -1.328,1.233 -1.219,0.333 -1.159,0.842 -3.318,1.463 -3.004,0.787 -4.424,0.368 -1.476,-0.878 -1.522,0.513 -3.441,0.057 -1.611,-0.699 -2.036,-2.284 -0.382,-1.196 0.081,-1.831 -0.438,-1.047 0.928,1.283"
         id="path80" />
    </g>
    <g
       id="g81"
       transform="matrix(0.04564188,0,0,0.04564188,52.158096,-6.7424341)">
      <path
         fill="none"
         stroke="#000000"
         stroke-width="4"
         stroke-linecap="round"
         stroke-linejoin="round"
         d="m -254.161,428.284 2.311,-1.621 3.22,-1.553 0.365,-0.7 0.337,-0.014 0.083,0.399 -0.245,0.036 -0.128,-1.175 -0.343,-0.307 -0.004,0.289 -0.681,0.019 -0.619,0.472 -1.566,-0.54 -8.748,0.703 -6.858,1.729 -4.615,1.551 -3.466,1.656 -3.567,2.149 -0.577,0.63 -0.085,0.729 -1.16,1.973 -0.011,1.695 -0.535,1.562 h 0.382 l 1.963,2.389 2.632,1.385 1.702,1.392 0.854,-0.013 4.091,1.225 1.83,-0.12 5.009,3.696 5.09,2.985 1.264,2.811 -0.245,0.747 0.145,0.944 -0.584,1.042 -0.994,0.358 -0.806,1.503 -0.403,-0.304 -2.048,0.514 -2.41,-0.718 -1.854,1.124 -3.46,0.791 -2.081,0.987 -5.595,-0.011 -1.903,-0.674 -0.842,0.163 -2.13,-0.424 -1.394,-1.429 0.02,-0.924 0.175,-0.3 1.056,0.112 0.531,-0.38 1.048,0.421"
         id="path81" />
    </g>
    <g
       id="g82"
       transform="matrix(0.04564188,0,0,0.04564188,52.158096,-6.7424341)">
      <path
         fill="none"
         stroke="#000000"
         stroke-width="4"
         stroke-linecap="round"
         stroke-linejoin="round"
         d="m -224.293,452.309 0.773,-0.128 -0.845,1.423 0.178,0.198 -0.52,0.024 -0.288,0.896 -1.405,1.544 -3.641,1.081 -1.548,-0.073 -2.696,0.511 -5.128,-0.289 -1.512,0.544 -3.209,-1.899 -0.593,-0.614 -0.751,-1.907 0.118,0.27 0.239,-0.24 0.279,-2.221 1.334,-2.966 7.099,-8.395 2.587,-1.751 1.202,-1.772 2.736,-0.424 1.033,-0.453 5.75,-0.591 1.195,0.219 2.211,1.213 0.748,1.13 0.197,1.409 -1.261,3.252 -2.236,1.995 -1.627,0.109 -1.864,1.131 -3.193,1.229 -1.936,1.658 -0.865,-0.18 -2.61,0.397 -1.441,-1.203 -1.556,0.727 -2.593,0.049 -1.12,-0.898 0.055,-0.797 0.482,-0.597"
         id="path82" />
    </g>
    <g
       id="g83"
       transform="matrix(0.04564188,0,0,0.04564188,52.158096,-6.7424341)">
      <path
         fill="none"
         stroke="#000000"
         stroke-width="4"
         stroke-linecap="round"
         stroke-linejoin="round"
         d="m -190.222,444.777 -0.219,-0.615 -0.103,0.449 -0.821,-1.15 -0.532,0.788 -0.386,0.195 -0.172,-0.356 0.08,0.605 0.718,-1.173 0.272,0.31 1.106,0.111 0.701,0.729 4.117,-0.523 1.891,-0.779 0.888,0.298 5.134,0.241 6.101,0.009 0.639,0.351 1.137,-0.946 -0.186,0.228 -0.274,-0.189 -0.026,0.96 -0.596,-1.344 -0.286,0.556 -1.16,0.023 -6.94,2.475"
         id="path83" />
    </g>
    <g
       id="g84"
       transform="matrix(0.04564188,0,0,0.04564188,52.158096,-6.7424341)">
      <path
         fill="none"
         stroke="#000000"
         stroke-width="4"
         stroke-linecap="round"
         stroke-linejoin="round"
         d="m -194.582,454.005 0.168,-0.345 1.312,0.353 0.603,0.576 0.909,0.23 0.57,-0.553 1.934,-0.073 1.471,-0.628 7.636,1.019 4.466,0.144 2.554,0.518 2.608,-0.163 0.145,-0.422 0.673,-0.053 -0.196,0.409 -0.317,-0.936 -0.527,0.325"
         id="path84" />
    </g>
    <g
       id="g85"
       transform="matrix(0.04564188,0,0,0.04564188,52.158096,-6.7424341)">
      <path
         fill="none"
         stroke="#000000"
         stroke-width="4"
         stroke-linecap="round"
         stroke-linejoin="round"
         d="m -133.346,437.005 2.299,-2.939 -0.062,-0.368 -0.172,0.627 -0.968,0.588 -0.44,0.101 -0.607,-0.402 -5.783,7.034 -3.182,4.727 -1.237,3.504 -0.763,1.269 -0.451,3.461 0.656,1.501 0.887,0.861 0.835,-0.31 0.755,0.924 0.784,0.346 0.281,-0.184 1.082,1.108 0.537,-0.366 1.765,-0.108 1.522,-0.746 1.18,0.136 3.082,-0.567 2.831,-1.921 2.058,-2.208 1.535,-2.345 1.912,-4.474 -0.016,-0.607 0.645,-0.814 2.406,-5.392 -0.071,0.549 -0.053,-0.266 -0.821,1.461 -1.065,1.067 -2.156,3.286 -0.665,1.871 -0.401,0.143 -1.138,1.773 -0.215,2.012 1.453,3.23 2.197,1.428 4.13,1.113 3.407,-0.017 1.267,1.087 1.546,-0.993 2.127,-0.77 1.186,-1.683 0.556,0.084 2.034,-1.052 2.429,-4.185 1.299,-4.676 0.825,-4.452 1.512,-20.22 0.113,1.878 0.288,-1.237 0.255,0.268 0.4036,-0.273 0.4711,0.551 0.7212,0.12"
         id="path85" />
    </g>
    <g
       id="g86"
       transform="matrix(0.04564188,0,0,0.04564188,52.158096,-6.7424341)">
      <path
         fill="none"
         stroke="#000000"
         stroke-width="4"
         stroke-linecap="round"
         stroke-linejoin="round"
         d="m -57.2931,424.429 0.3706,-1.866 0.8952,-1.216 0.2725,0.178 0.3066,-1.576 -1.7411,-0.917 -4.0461,-1.002 -4.8474,0.864 -7.9355,4.433 -0.9757,0.112 -8.0947,8.834 -3.1714,4.178 -2.9485,6.001 -1.0716,3.378 -0.3018,2.004 0.4984,3.584 0.6912,1.577 1.5049,2.132 1.0057,0.107 1.0586,1.453 1.8801,1.447 1.2644,1.719 0.7421,-0.097 2.5623,0.672 1.7487,-0.176 5.0793,0.547 5.4792,-0.772 4.6701,-2.528 3.8147,-3.422 1.3466,-2.441 0.1346,-2.739 -0.2829,-1.388 -1.2526,-2.565 -1.9168,-1.988 -2.7106,-1.038 -1.1746,0.15 -1.3635,0.693 -0.6224,-0.286 -1.9365,0.204 -1.0321,-0.581 -3.0636,2.451 -0.4272,0.6 -0.0345,0.782"
         id="path86" />
    </g>
    <g
       id="g87"
       transform="matrix(0.04564188,0,0,0.04564188,52.158096,-6.7424341)">
      <path
         fill="none"
         stroke="#000000"
         stroke-width="4"
         stroke-linecap="round"
         stroke-linejoin="round"
         d="m -28.4786,440.962 -0.001,-2.847 -0.894,-1.627 -1.5936,0.991 -2.3471,0.64 -0.8364,0.185 -0.754,-0.39 -0.6891,0.048 -3.5347,1.952 -1.0926,1.123 -0.4422,0.004 -1.0768,0.976 -0.0307,0.728 0.5784,1.436 3.4247,3.338 0.9795,1.384 1.9728,1.082 1.039,0.081 4.3165,4.731 1.6575,1.276 1.571,3.299 -0.4317,1.885 -3.1867,-0.045 -4.3812,0.623 -9.1105,-0.393 -5.8244,-1.111 -2.9344,-1.323 -0.3119,-0.549 -0.1214,0.255"
         id="path87" />
    </g>
    <g
       id="g88"
       transform="matrix(0.04564188,0,0,0.04564188,52.158096,-6.7424341)">
      <path
         fill="none"
         stroke="#000000"
         stroke-width="4"
         stroke-linecap="round"
         stroke-linejoin="round"
         d="m 137.491,202.638 -0.3,-0.72 1.619,-0.21 0.53,1.563 -2.74,5.779 -3.635,4.559 -6.695,6.073 -0.368,0.767 0.109,0.461"
         id="path88" />
    </g>
    <g
       id="g2">
      <g
         id="g23"
         transform="matrix(0.04564188,0,0,0.04564188,52.158096,-6.7424341)">
        <path
           fill="none"
           stroke="#000000"
           stroke-width="4"
           stroke-linecap="round"
           stroke-linejoin="round"
           d="m -339.103,171.714 6.563,-4.26 1.858,-0.77 0.26,-0.621 0.588,-0.171 1.106,-1.132 -0.15,-0.879 -0.569,-0.142 0.095,-0.666 -0.591,-0.733 -1.823,-0.202 -0.711,-0.386 -3.056,0.808 -1.84,1.197 -4.535,1.575 -5.853,3.611 -4.762,4.609 -2.399,3.96 -1.136,3.489 -0.221,1.973 0.606,0.955 -0.067,1.161 0.59,1.432 0.062,1.239 1.53,1.226 0.61,0.224 1.138,-0.287 0.521,0.618 2.298,0.668 5.788,0.473 1.837,-0.094 5.464,-1.212 2.903,-1.424 0.82,-0.979 0.109,-1.414 -0.458,-0.5 -0.442,-3.354 -1.055,-1.5 -0.86,-0.228 -2.353,-1.97 -2.339,-0.019 -1.487,0.913 -0.659,1.102 0.156,0.833 1.056,0.345"
           id="path23" />
      </g>
      <g
         id="g24"
         transform="matrix(0.04564188,0,0,0.04564188,52.158096,-6.7424341)">
        <path
           fill="none"
           stroke="#000000"
           stroke-width="4"
           stroke-linecap="round"
           stroke-linejoin="round"
           d="m -314.618,173.52 -0.601,-1.015 -1.295,-0.616 -1.234,3.82 -0.763,1.38 -0.956,3.462 -0.689,0.846 -1.411,4.895 0.368,2.652 0.597,0.557"
           id="path24" />
      </g>
      <g
         id="g25"
         transform="matrix(0.04564188,0,0,0.04564188,52.158096,-6.7424341)">
        <path
           fill="none"
           stroke="#000000"
           stroke-width="4"
           stroke-linecap="round"
           stroke-linejoin="round"
           d="m -300.134,171.513 -1.027,0.624 1.869,4.666 0.598,4.877 1.284,5.164 1.071,1.381 1.377,0.932 0.923,-0.15 0.229,-0.632 0.879,-0.239 1.876,-1.449"
           id="path25" />
      </g>
      <g
         id="g26"
         transform="matrix(0.04564188,0,0,0.04564188,52.158096,-6.7424341)">
        <path
           fill="none"
           stroke="#000000"
           stroke-width="4"
           stroke-linecap="round"
           stroke-linejoin="round"
           d="m -278.335,169.638 -0.44,0.047 -1.204,1.811 -2.622,5.129 -3.686,5.295 -2.17,4.139 -1.421,1.271 -1.327,1.768 -0.677,0.576 -0.349,-0.127 -0.238,1.42 0.277,0.829 0.494,0.144 2.16,-0.629"
           id="path26" />
      </g>
      <g
         id="g27"
         transform="matrix(0.04564188,0,0,0.04564188,52.158096,-6.7424341)">
        <path
           fill="none"
           stroke="#000000"
           stroke-width="4"
           stroke-linecap="round"
           stroke-linejoin="round"
           d="m -269.407,172.802 -0.025,-0.649 0.291,1.177 -3.624,7.367 -3.771,5.901 -2.062,4.543 0.166,0.461 0.565,0.008 0.974,-1.334 3.266,-2.904"
           id="path27" />
      </g>
      <g
         id="g28"
         transform="matrix(0.04564188,0,0,0.04564188,52.158096,-6.7424341)">
        <path
           fill="none"
           stroke="#000000"
           stroke-width="4"
           stroke-linecap="round"
           stroke-linejoin="round"
           d="m -276.294,175.847 -0.702,0.008 0.949,-0.602 3.024,-1.216 2.515,-1.51 4.65,-0.608 3.115,-0.827 2.172,-0.995 1.348,0.167 2.252,-0.282 1.784,-0.648 0.014,-0.255 -1.129,0.822"
           id="path28" />
      </g>
      <g
         id="g29"
         transform="matrix(0.04564188,0,0,0.04564188,52.158096,-6.7424341)">
        <path
           fill="none"
           stroke="#000000"
           stroke-width="4"
           stroke-linecap="round"
           stroke-linejoin="round"
           d="m -274.231,182.941 1.331,0.545 2.073,0.115 3.59,-0.33 9.132,-1.454 0.923,-0.392 0.743,-0.778 0.821,-0.082 0.141,0.401 -1.301,-0.21 -2.386,0.506 -8.623,3.328"
           id="path29" />
      </g>
      <g
         id="g30"
         transform="matrix(0.04564188,0,0,0.04564188,52.158096,-6.7424341)">
        <path
           fill="none"
           stroke="#000000"
           stroke-width="4"
           stroke-linecap="round"
           stroke-linejoin="round"
           d="m -278.334,192.673 0.747,0.768 1.973,0.598 7.734,-1.164 11.04,-4.846 4.458,-3.002 1.315,-0.546 1.558,-1.375 0.287,-0.68 1.489,-0.694 -0.232,-0.66 -0.467,0.868 -2.251,1.579 -3.909,5.789 -4.744,4.892 -0.773,1.571 -0.478,-0.218 0.229,-0.319 1.525,-0.822 1.925,-2.363 3.733,-3.516 3.025,-4.124 3.395,-5.629 1.212,-1.469 0.279,-0.858 1.245,-0.902 0.617,0.272 0.035,0.521 -0.362,0.333 0.527,3.092 -1.005,2.759 -0.389,2.804 0.047,2.755 0.813,1.342 1.702,0.606 1.408,-0.153 2.406,-0.867 1.951,-0.846 2.008,-2.584 2.191,-3.742 0.63,-8.891 -0.212,-0.451 0.721,-0.498 1.646,0.045"
           id="path30" />
      </g>
      <g
         id="g31"
         transform="matrix(0.04564188,0,0,0.04564188,52.158096,-6.7424341)">
        <path
           fill="none"
           stroke="#000000"
           stroke-width="4"
           stroke-linecap="round"
           stroke-linejoin="round"
           d="m -178.263,182.292 1.874,-3.475 1.241,-1.118 -0.875,1.719 -0.592,3.791 -0.738,1.367 -0.669,2.595 -1.357,3.349 -1.897,2.908 -0.415,1.453 -0.322,0.154 2.155,-0.333 3.368,-1.498"
           id="path31" />
      </g>
      <g
         id="g32"
         transform="matrix(0.04564188,0,0,0.04564188,52.158096,-6.7424341)">
        <path
           fill="none"
           stroke="#000000"
           stroke-width="4"
           stroke-linecap="round"
           stroke-linejoin="round"
           d="m -157.486,181.074 0.786,-0.75 0.177,0.965 -1.829,4.738 -4.296,5.866 -2.237,2.171 -0.994,0.478 -0.879,1.247 1.015,-3.205 2.865,-4.862 0.965,-0.717 2.648,-3.778 1.37,-1.313 1.051,-0.128 1.055,0.37 0.447,0.812 0.742,2.028 0.664,3.426 1.292,2.499 2.595,2.357 1.859,0.507 3.08,-0.416 1.013,-0.774 2.251,-3.381 1.194,-6.493 0.411,-0.948 0.878,-8.204 0.478,-0.75 1.426,-0.807"
           id="path32" />
      </g>
      <g
         id="g33"
         transform="matrix(0.04564188,0,0,0.04564188,52.158096,-6.7424341)">
        <path
           fill="none"
           stroke="#000000"
           stroke-width="4"
           stroke-linecap="round"
           stroke-linejoin="round"
           d="m -62.5087,180.441 -0.8106,-0.208 -1.1551,0.94 -2.5299,8.008 -3.2646,7.478 0.5863,-0.519 0.5603,-1.778 0.0612,-2.456 -0.7481,-2.355"
           id="path33" />
      </g>
      <g
         id="g34"
         transform="matrix(0.04564188,0,0,0.04564188,52.158096,-6.7424341)">
        <path
           fill="none"
           stroke="#000000"
           stroke-width="4"
           stroke-linecap="round"
           stroke-linejoin="round"
           d="m -82.9995,178.656 -1.087,0.068 0.6604,-0.728 0.7566,0.138 2.7258,-0.555 7.6712,-1.905 8.6197,-1.276 7.9016,-0.275 5.2085,-1.085 0.6958,0.165 1.7945,-0.72"
           id="path34" />
      </g>
      <g
         id="g35"
         transform="matrix(0.04564188,0,0,0.04564188,52.158096,-6.7424341)">
        <path
           fill="none"
           stroke="#000000"
           stroke-width="4"
           stroke-linecap="round"
           stroke-linejoin="round"
           d="m -32.4868,174.35 1.4284,-1.842 1.1146,-0.33 -0.6891,0.709 -1.8286,3.372 -2.9255,3.497 -5.908,9.142 -2.2766,2.685 -1.8337,1.609 0.2073,0.305 1.201,-1.84 0.4728,0.115 0.8425,-1.782 3.4744,-5.057 4.5557,-5.113 2.3691,-2.323 1.9353,-1.21 2.1107,-0.77 0.8916,0.283 0.7783,1.228 0.3179,0.025 2.6835,7.603 0.3285,3.801 -0.6882,2.449 -2.2508,-1.315 -3.743,0.189"
           id="path35" />
      </g>
      <g
         id="g36"
         transform="matrix(0.04564188,0,0,0.04564188,52.158096,-6.7424341)">
        <path
           fill="none"
           stroke="#000000"
           stroke-width="4"
           stroke-linecap="round"
           stroke-linejoin="round"
           d="m -39.1528,189.865 3.616,-1.277 7.3212,-1.623 4.953,-0.022"
           id="path36" />
      </g>
      <g
         id="g37"
         transform="matrix(0.04564188,0,0,0.04564188,52.158096,-6.7424341)">
        <path
           fill="none"
           stroke="#000000"
           stroke-width="4"
           stroke-linecap="round"
           stroke-linejoin="round"
           d="m -9.01147,179.92 -1.86073,0.932 -2.2757,2.718 -1.1697,2.939 -0.8166,3.149 0.5316,-0.68 0.244,-1.514 1.3616,-2.668 1.5671,-4.274 2.94601,-4.809 2.05408,-2.215 3.00922,-0.992 6.98443,-0.057 1.10346,-0.443 0.82416,2.07 -0.19977,0.855 -1.25135,2.058 -2.91442,3.256 -2.31324,1.414 -3.11133,1.232 1.33509,-0.774 3.0140361,0.574 2.2172839,0.794 1.50147,1.509 0.81286,1.991 0.30481,2.27 -0.55395,1.868 -1.16809,1.756 -2.252018,1.664 -3.563232,1.506 -4.54199,0.782 -3.70602,-0.191 -0.6854,0.209 -0.5565,-1.043 0.3459,-1.727 1.7834,-1.571 1.73707,-0.499"
           id="path37" />
      </g>
      <g
         id="g38"
         transform="matrix(0.04564188,0,0,0.04564188,52.158096,-6.7424341)">
        <path
           fill="none"
           stroke="#000000"
           stroke-width="4"
           stroke-linecap="round"
           stroke-linejoin="round"
           d="m 24.5538,173.629 -0.6609,-0.978 -1.6126,0.62 -3.7496,2.804 -6.315,5.545 -1.8857,1.965 -1.4962,2.125 -0.43341,1.749 0.29828,2.085 0.75171,1.039 0.66252,-0.448 0.665,1.252 1.4687,0.912 1.7662,0.316 3.1358,-0.063 0.6402,-0.452 2.8634,-0.354 10.6488,-3.124"
           id="path38" />
      </g>
      <g
         id="g39"
         transform="matrix(0.04564188,0,0,0.04564188,52.158096,-6.7424341)">
        <path
           fill="none"
           stroke="#000000"
           stroke-width="4"
           stroke-linecap="round"
           stroke-linejoin="round"
           d="m 46.9663,174.013 -0.9971,2.81 -5.6267,8.486 -2.1277,4.529 -0.2536,1.301 0.1739,1.47 1.0965,0.918 3.3774,-2.233"
           id="path39" />
      </g>
      <g
         id="g40"
         transform="matrix(0.04564188,0,0,0.04564188,52.158096,-6.7424341)">
        <path
           fill="none"
           stroke="#000000"
           stroke-width="4"
           stroke-linecap="round"
           stroke-linejoin="round"
           d="m 42.6776,174.671 0.0087,-1.25 0.3378,-0.562 1.3175,-0.811 0.7502,-0.873 11.3342,-1.234 1.9325,-0.584 4.8783,-0.546 2.2189,-0.917"
           id="path40" />
      </g>
      <g
         id="g41"
         transform="matrix(0.04564188,0,0,0.04564188,52.158096,-6.7424341)">
        <path
           fill="none"
           stroke="#000000"
           stroke-width="4"
           stroke-linecap="round"
           stroke-linejoin="round"
           d="m 48.7531,183.574 4.0229,-0.857 4.2079,-0.183 1.9794,0.482 0.8501,-0.454 2.8775,-0.266 1.1525,-0.418 -2.526,0.703 -7.7211,3.947"
           id="path41" />
      </g>
      <g
         id="g42"
         transform="matrix(0.04564188,0,0,0.04564188,52.158096,-6.7424341)">
        <path
           fill="none"
           stroke="#000000"
           stroke-width="4"
           stroke-linecap="round"
           stroke-linejoin="round"
           d="m 41.6075,195.003 4.5158,-0.637 7.2873,0.392 6.1647,-0.945 4.3541,-1.089 5.4956,-0.66 2.8935,0.355 0.3866,0.764 -0.8001,0.964"
           id="path42" />
      </g>
      <g
         id="g89"
         transform="matrix(0.04564188,0,0,0.04564188,52.158096,-6.7424341)">
        <path
           fill="none"
           stroke="#000000"
           stroke-width="4"
           stroke-linecap="round"
           stroke-linejoin="round"
           d="m 219.636,165.165 1.831,-3.396 0.726,-0.668 -0.018,-0.379 -0.755,-1.195 -1.358,-0.736 -1.61,-0.21 -4.402,0.66 -3.151,1.006 -5.045,2.456 -5.002,3.364 -2.888,2.664 -5.992,6.876 -2.633,3.686 -1.983,3.549 -1.717,4.486 -0.297,3.083 0.23,2.155 0.808,2.115 0.714,1.327 1.242,1.318 1.428,0.886 1.519,0.22 0.822,0.745 3.052,1.317 3.297,1.298 3.523,0.92 5.973,0.441 5.322,-0.4 2.37,-0.835 2.158,-1.26 3.051,-2.57 2.66,-6.023 0.23,-1.051 -0.206,-1.195 -1.891,-3.298 -3.561,-1.461 -0.922,-0.173 -4.718,0.489 -10.27,2.439 -1.378,0.794 -0.903,1.2 -0.104,0.64"
           id="path89" />
      </g>
      <g
         id="g90"
         transform="matrix(0.04564188,0,0,0.04564188,52.158096,-6.7424341)">
        <path
           fill="none"
           stroke="#000000"
           stroke-width="4"
           stroke-linecap="round"
           stroke-linejoin="round"
           d="m 248.56,189.942 0.192,0.147 0.242,-0.811 0.158,0.191 -0.15,-0.298 -0.25,0.436 -1.128,-0.515 -2.239,0.317 -4.938,1.16 -1.284,0.787 0.298,0.548 0.284,-0.095 0.409,0.457 0.267,-0.439 1.364,1.255 2.704,1.529 1.003,-0.02 3.332,2.882 1.147,1.778 -0.437,1.612 -0.747,0.783 -3.683,2.24 -2.748,0.013 -3.77,-0.621 -0.975,0.196 -1.393,-1.462 -0.264,-0.976 0.377,-1.434 0.963,-0.43"
           id="path90" />
      </g>
      <g
         id="g91"
         transform="matrix(0.04564188,0,0,0.04564188,52.158096,-6.7424341)">
        <path
           fill="none"
           stroke="#000000"
           stroke-width="4"
           stroke-linecap="round"
           stroke-linejoin="round"
           d="m 284.169,182.42 -1.396,-1.175 -3.426,-0.136 1.418,0.338 1.755,-0.377 4.398,0.187 5.194,-0.3 2.089,-0.562 2.879,0.233 5.969,-0.578 0.843,-0.704 1.127,0.437 -2.12,0.404 -5.246,3.433"
           id="path91" />
      </g>
      <g
         id="g92"
         transform="matrix(0.04564188,0,0,0.04564188,52.158096,-6.7424341)">
        <path
           fill="none"
           stroke="#000000"
           stroke-width="4"
           stroke-linecap="round"
           stroke-linejoin="round"
           d="m 278.103,192.762 2.429,0.015 1.986,-0.482 6.844,-0.586 3.148,-0.075 3.009,0.496 7.663,-1.43 3.114,-0.159 0.687,0.349 0.77,-0.29 0.17,0.354 -1.462,0.048 -3.32,1.693"
           id="path92" />
      </g>
      <g
         id="g93"
         transform="matrix(0.04564188,0,0,0.04564188,52.158096,-6.7424341)">
        <path
           fill="none"
           stroke="#000000"
           stroke-width="4"
           stroke-linecap="round"
           stroke-linejoin="round"
           d="m 334.884,177.091 -1.865,-0.885 1.652,-0.534 1.026,-0.981 6.611,-1.365 1.835,-0.649 11.748,-1.351 -0.385,0.75 -0.601,0.183 -0.311,1.165 -1.775,2.716 -5.081,6.229 -2.951,2.698 -5.181,5.654 -2.11,1.441 -1.309,1.872 0.665,0.21 0.269,-0.234 0.4,0.761 2.242,0.739 7.044,0.45 8.762,-1.359 2.091,0.102 1.738,-1.377 -0.355,0.227 0.539,1.498"
           id="path93" />
      </g>
      <g
         id="g94"
         transform="matrix(0.04564188,0,0,0.04564188,52.158096,-6.7424341)">
        <path
           fill="none"
           stroke="#000000"
           stroke-width="4"
           stroke-linecap="round"
           stroke-linejoin="round"
           d="m 384.078,196.393 0.132,-0.694 -0.233,0.525 0.33,-0.121 -0.285,0.212 -0.468,-0.238 0.37,-0.161 0.126,0.523 0.025,-0.265 1.079,-0.349 3.805,0.304 -2.312,1.76 -1.062,0.254 -1.104,1.277 -0.225,-0.302 -1.381,-0.251 0.444,-1.033 0.987,-0.602"
           id="path94" />
      </g>
      <g
         id="g95"
         transform="matrix(0.04564188,0,0,0.04564188,52.158096,-6.7424341)">
        <path
           fill="none"
           stroke="#000000"
           stroke-width="4"
           stroke-linecap="round"
           stroke-linejoin="round"
           d="m 426.573,176.416 0.658,-1.917 -0.44,-0.983 -2.99,-1.085 -7.24,1.443 -3.161,1.413 -6.544,3.528 -4.668,4.991 -3.241,5.442 -0.2,2.925 0.412,1.302 1.218,2.144 1.165,0.739 1.229,1.356 h 0.794 l 5.273,1.888 5.107,0.72 3.684,-1.727 0.871,-1.137 0.255,-1.801 -1.218,-2.081 -1.251,-0.635 -2.985,-0.688 -2.123,0.094 -3.99,-0.924 -0.163,0.573 0.921,0.169"
           id="path95" />
      </g>
      <g
         id="g96"
         transform="matrix(0.04564188,0,0,0.04564188,52.158096,-6.7424341)">
        <path
           fill="none"
           stroke="#000000"
           stroke-width="4"
           stroke-linecap="round"
           stroke-linejoin="round"
           d="m 448.042,178.923 -0.823,-0.306 -0.542,-1.805 0.582,-0.747 0.489,0.299 -0.435,0.395 -0.377,-0.089 0.023,-0.331 0.126,1.969 -0.046,-0.592 -0.235,-0.262 -0.142,0.203 -0.42,-1.32 -0.458,-0.393 -0.178,-0.5 0.223,-0.138 -0.331,-0.052 0.321,-0.139 0.291,0.481 3.835,0.24 6.817,-0.249 2.89,-0.915 0.763,0.207 2.681,-2.782 0.719,-0.577 0.163,0.196 -0.343,0.292 0.143,0.323 0.074,-0.234 -0.418,1.052 -0.599,4.904 -5.091,13.053 -0.446,2.273 -1.957,4.289 -0.788,2.653 -0.298,2.062 0.555,1.299 -0.18,0.915 -0.412,0.319 0.563,0.354 -0.36,0.343 0.103,-0.768 -0.163,0.584"
           id="path96" />
      </g>
      <g
         id="g97"
         transform="matrix(0.04564188,0,0,0.04564188,52.158096,-6.7424341)">
        <path
           fill="none"
           stroke="#000000"
           stroke-width="4"
           stroke-linecap="round"
           stroke-linejoin="round"
           d="m 447.667,193.298 -1.017,-0.274 -0.176,0.419 0.275,-0.897 1.998,-0.111 3.245,-1.04 12.551,-1.614 1.009,0.277 -0.442,0.26 -0.869,-0.396 -0.981,0.615"
           id="path97" />
      </g>
    </g>
  </g>
</svg>
