<?xml version="1.0" encoding="UTF-8" standalone="no"?>
<!-- Created with Inkscape (http://www.inkscape.org/) -->

<svg
   width="4in"
   height="0.5in"
   viewBox="0 0 101.6 12.7"
   version="1.1"
   id="svg1"
   inkscape:version="1.4 (86a8ad7, 2024-10-11)"
   sodipodi:docname="EX360.svg"
   xmlns:inkscape="http://www.inkscape.org/namespaces/inkscape"
   xmlns:sodipodi="http://sodipodi.sourceforge.net/DTD/sodipodi-0.dtd"
   xmlns="http://www.w3.org/2000/svg"
   xmlns:svg="http://www.w3.org/2000/svg">
  <sodipodi:namedview
     id="namedview1"
     pagecolor="#ffffff"
     bordercolor="#111111"
     borderopacity="1"
     inkscape:showpageshadow="0"
     inkscape:pageopacity="0"
     inkscape:pagecheckerboard="1"
     inkscape:deskcolor="#d1d1d1"
     inkscape:document-units="mm"
     inkscape:zoom="2.0737236"
     inkscape:cx="129.47724"
     inkscape:cy="-22.905657"
     inkscape:window-width="1920"
     inkscape:window-height="1012"
     inkscape:window-x="1912"
     inkscape:window-y="-8"
     inkscape:window-maximized="1"
     inkscape:current-layer="layer1" />
  <defs
     id="defs1">
    <clipPath
       id="p44dd5dd881">
      <rect
         height="217.44"
         width="334.79999"
         x="54"
         y="34.560001"
         id="rect115" />
    </clipPath>
    <clipPath
       id="clipPath1">
      <rect
         height="217.44"
         width="334.79999"
         x="54"
         y="34.560001"
         id="rect1" />
    </clipPath>
    <clipPath
       id="clipPath2">
      <rect
         height="217.44"
         width="334.79999"
         x="54"
         y="34.560001"
         id="rect2" />
    </clipPath>
    <clipPath
       id="clipPath3">
      <rect
         height="217.44"
         width="334.79999"
         x="54"
         y="34.560001"
         id="rect3" />
    </clipPath>
    <clipPath
       id="clipPath4">
      <rect
         height="217.44"
         width="334.79999"
         x="54"
         y="34.560001"
         id="rect4" />
    </clipPath>
    <path
       d="M 0,0 V 3.5"
       id="ma4d37d3fb4"
       style="stroke:#000000;stroke-width:0.8" />
    <path
       d="M 794,531 H 1825 V 4091 L 703,3866 v 575 l 1116,225 h 631 V 531 H 3481 V 0 H 794 Z"
       id="DejaVuSans-31"
       transform="scale(0.015625)" />
    <path
       d="M 1228,531 H 3431 V 0 H 469 v 531 q 359,372 979,998 621,627 780,809 303,340 423,576 121,236 121,464 0,372 -261,606 -261,235 -680,235 -297,0 -627,-103 -329,-103 -704,-313 v 638 q 381,153 712,231 332,78 607,78 725,0 1156,-363 431,-362 431,-968 0,-288 -108,-546 -107,-257 -392,-607 -78,-91 -497,-524 Q 1991,1309 1228,531 Z"
       id="DejaVuSans-32"
       transform="scale(0.015625)" />
    <path
       d="M 2419,4116 825,1625 h 1594 z m -166,550 h 794 V 1625 h 666 V 1100 H 3047 V 0 H 2419 V 1100 H 313 v 609 z"
       id="DejaVuSans-34"
       transform="scale(0.015625)" />
    <path
       d="m 2113,2584 q -425,0 -674,-291 -248,-290 -248,-796 0,-503 248,-796 249,-292 674,-292 425,0 673,292 248,293 248,796 0,506 -248,796 -248,291 -673,291 z m 1253,1979 v -575 q -238,112 -480,171 -242,60 -480,60 -625,0 -955,-422 -329,-422 -376,-1275 184,272 462,417 279,145 613,145 703,0 1111,-427 408,-426 408,-1160 0,-719 -425,-1154 -425,-434 -1131,-434 -810,0 -1238,620 -428,621 -428,1799 0,1106 525,1764 525,658 1409,658 238,0 480,-47 242,-47 505,-140 z"
       id="DejaVuSans-36"
       transform="scale(0.015625)" />
    <path
       d="m 2034,2216 q -450,0 -708,-241 -257,-241 -257,-662 0,-422 257,-663 258,-241 708,-241 450,0 709,242 260,243 260,662 0,421 -258,662 -257,241 -711,241 z m -631,268 q -406,100 -633,378 -226,279 -226,679 0,559 398,884 399,325 1092,325 697,0 1094,-325 397,-325 397,-884 0,-400 -227,-679 -226,-278 -629,-378 456,-106 710,-416 255,-309 255,-755 Q 3634,634 3220,271 2806,-91 2034,-91 1263,-91 848,271 434,634 434,1313 q 0,446 256,755 257,310 713,416 z m -231,997 q 0,-362 226,-565 227,-203 636,-203 407,0 636,203 230,203 230,565 0,363 -230,566 -229,203 -636,203 -409,0 -636,-203 -226,-203 -226,-566 z"
       id="DejaVuSans-38"
       transform="scale(0.015625)" />
    <path
       d="m 2034,4250 q -487,0 -733,-480 -245,-479 -245,-1442 0,-959 245,-1439 246,-480 733,-480 491,0 736,480 246,480 246,1439 0,963 -246,1442 -245,480 -736,480 z m 0,500 q 785,0 1199,-621 414,-620 414,-1801 0,-1178 -414,-1799 -414,-620 -1199,-620 -784,0 -1198,620 -414,621 -414,1799 0,1181 414,1801 414,621 1198,621 z"
       id="DejaVuSans-30"
       transform="scale(0.015625)" />
    <path
       d="m 213,4666 h 637 l 981,-3944 978,3944 h 710 l 981,-3944 978,3944 h 641 L 4947,0 H 4153 L 3169,4050 2175,0 h -794 z"
       id="DejaVuSans-57"
       transform="scale(0.015625)" />
    <path
       d="m 2194,1759 q -697,0 -966,-159 -269,-159 -269,-544 0,-306 202,-486 202,-179 548,-179 479,0 768,339 289,339 289,901 v 128 z m 1147,238 V 0 H 2766 V 531 Q 2569,213 2275,61 1981,-91 1556,-91 q -537,0 -855,302 -317,302 -317,808 0,590 395,890 396,300 1180,300 h 807 v 57 q 0,397 -261,614 -261,217 -733,217 -300,0 -585,-72 -284,-72 -546,-216 v 532 q 315,122 612,182 297,61 578,61 760,0 1135,-394 375,-393 375,-1193 z"
       id="DejaVuSans-61"
       transform="scale(0.015625)" />
    <path
       d="M 1172,4494 V 3500 H 2356 V 3053 H 1172 V 1153 q 0,-428 117,-550 117,-122 477,-122 h 590 V 0 H 1766 Q 1100,0 847,248 594,497 594,1153 V 3053 H 172 v 447 h 422 v 994 z"
       id="DejaVuSans-74"
       transform="scale(0.015625)" />
    <path
       d="M 3597,1894 V 1613 H 953 q 38,-594 358,-905 320,-311 892,-311 331,0 642,81 311,81 618,244 V 178 Q 3153,47 2828,-22 2503,-91 2169,-91 1331,-91 842,396 353,884 353,1716 q 0,859 464,1363 464,505 1252,505 706,0 1117,-455 411,-454 411,-1235 z m -575,169 q -6,471 -264,752 -258,282 -683,282 -481,0 -770,-272 -289,-272 -333,-766 z"
       id="DejaVuSans-65"
       transform="scale(0.015625)" />
    <path
       d="m 2631,2963 q -97,56 -211,82 -114,27 -251,27 -488,0 -749,-317 -261,-317 -261,-911 V 0 H 581 v 3500 h 578 v -544 q 182,319 472,473 291,155 707,155 59,0 131,-8 72,-7 159,-23 z"
       id="DejaVuSans-72"
       transform="scale(0.015625)" />
    <path
       id="DejaVuSans-20"
       transform="scale(0.015625)"
       d="" />
    <path
       d="m 3122,3366 v -538 q -244,135 -489,202 -245,67 -495,67 -560,0 -870,-355 -309,-354 -309,-995 0,-641 309,-996 310,-354 870,-354 250,0 495,67 245,67 489,202 V 134 Q 2881,22 2623,-34 2366,-91 2075,-91 1284,-91 818,406 353,903 353,1747 q 0,856 470,1346 471,491 1290,491 265,0 518,-55 253,-54 491,-163 z"
       id="DejaVuSans-63"
       transform="scale(0.015625)" />
    <path
       d="m 1959,3097 q -462,0 -731,-361 -269,-361 -269,-989 0,-628 267,-989 268,-361 733,-361 460,0 728,362 269,363 269,988 0,622 -269,986 -268,364 -728,364 z m 0,487 q 750,0 1178,-488 429,-487 429,-1349 Q 3566,888 3137,398 2709,-91 1959,-91 1206,-91 779,398 353,888 353,1747 q 0,862 426,1349 427,488 1180,488 z"
       id="DejaVuSans-6f"
       transform="scale(0.015625)" />
    <path
       d="M 3513,2113 V 0 h -575 v 2094 q 0,497 -194,743 -194,247 -581,247 -466,0 -735,-297 -269,-296 -269,-809 V 0 H 581 v 3500 h 578 v -544 q 207,316 486,472 280,156 646,156 603,0 912,-373 310,-373 310,-1098 z"
       id="DejaVuSans-6e"
       transform="scale(0.015625)" />
    <path
       d="m 544,3500 h 569 L 1259,684 2566,3500 h 665 L 3425,684 4666,3500 h 575 L 3641,0 H 2969 L 2797,2900 1459,0 H 781 Z"
       id="DejaVuSans-Oblique-77"
       transform="scale(0.015625)" />
    <path
       d="M 550,4863 H 1875 V 4416 H 1125 V -397 h 750 V -844 H 550 Z"
       id="DejaVuSans-5b"
       transform="scale(0.015625)" />
    <path
       d="m 4653,2053 q -272,0 -427,-231 -154,-231 -154,-644 0,-406 154,-639 155,-233 427,-233 266,0 420,233 155,233 155,639 0,410 -155,642 -154,233 -420,233 z m 0,397 q 494,0 784,-344 291,-343 291,-928 0,-584 -292,-927 -292,-342 -783,-342 -500,0 -791,342 -290,343 -290,927 0,588 292,930 292,342 789,342 z M 1428,4353 q -269,0 -424,-233 -154,-232 -154,-639 0,-412 153,-644 153,-231 425,-231 272,0 426,231 155,232 155,644 0,403 -156,637 -156,235 -425,235 z m 2822,397 h 500 L 1831,-91 h -500 z m -2822,0 q 494,0 787,-342 294,-342 294,-927 0,-590 -292,-931 -292,-341 -789,-341 -497,0 -786,342 -289,343 -289,930 0,582 290,925 291,344 785,344 z"
       id="DejaVuSans-25"
       transform="scale(0.015625)" />
    <path
       d="M 1947,4863 V -844 H 622 v 447 h 747 V 4416 H 622 v 447 z"
       id="DejaVuSans-5d"
       transform="scale(0.015625)" />
    <path
       d="M 0,0 H -3.5"
       id="m4bd5dc5498"
       style="stroke:#000000;stroke-width:0.8" />
    <path
       d="m 703,97 v 575 q 238,-113 481,-172 244,-59 479,-59 625,0 954,420 330,420 377,1277 -181,-269 -460,-413 -278,-144 -615,-144 -700,0 -1108,423 -408,424 -408,1159 0,718 425,1152 425,435 1131,435 810,0 1236,-621 427,-620 427,-1801 Q 3622,1225 3098,567 2575,-91 1691,-91 1453,-91 1209,-44 966,3 703,97 Z m 1256,1978 q 425,0 673,290 249,291 249,798 0,503 -249,795 -248,292 -673,292 -425,0 -673,-292 -248,-292 -248,-795 0,-507 248,-798 248,-290 673,-290 z"
       id="DejaVuSans-39"
       transform="scale(0.015625)" />
    <path
       d="m 628,4666 h 941 L 2759,1491 3956,4666 h 941 V 0 H 4281 V 4097 L 3078,897 H 2444 L 1241,4097 V 0 H 628 Z"
       id="DejaVuSans-4d"
       transform="scale(0.015625)" />
    <path
       d="M 3513,3500 2247,1797 3578,0 H 2900 L 1881,1375 863,0 H 184 L 1544,1831 300,3500 h 678 l 928,-1247 928,1247 z"
       id="DejaVuSans-78"
       transform="scale(0.015625)" />
    <path
       d="m 684,794 h 660 V 0 H 684 Z"
       id="DejaVuSans-2e"
       transform="scale(0.015625)" />
    <path
       d="m 2906,2969 v 1894 h 575 V 0 H 2906 V 525 Q 2725,213 2448,61 2172,-91 1784,-91 1150,-91 751,415 353,922 353,1747 q 0,825 398,1331 399,506 1033,506 388,0 664,-152 277,-151 458,-463 z M 947,1747 q 0,-634 261,-995 261,-361 717,-361 456,0 718,361 263,361 263,995 0,634 -263,995 -262,361 -718,361 -456,0 -717,-361 -261,-361 -261,-995 z"
       id="DejaVuSans-64"
       transform="scale(0.015625)" />
    <path
       d="m 2059,-325 q -243,-625 -475,-815 -231,-191 -618,-191 H 506 v 481 h 338 q 237,0 368,113 132,112 291,531 L 1606,56 191,3500 H 800 L 1894,763 2988,3500 h 609 z"
       id="DejaVuSans-79"
       transform="scale(0.015625)" />
    <path
       d="m 544,1381 v 2119 h 575 V 1403 q 0,-497 193,-746 194,-248 582,-248 465,0 735,297 271,297 271,810 v 1984 h 575 V 0 H 2900 V 538 Q 2691,219 2414,64 2138,-91 1772,-91 1169,-91 856,284 544,659 544,1381 Z m 1447,2203 z"
       id="DejaVuSans-75"
       transform="scale(0.015625)" />
    <path
       d="m 603,3500 h 575 V 0 H 603 Z m 0,1363 h 575 V 4134 H 603 Z"
       id="DejaVuSans-69"
       transform="scale(0.015625)" />
    <path
       d="m 269,3500 h 575 l 719,-2731 715,2731 h 678 l 719,-2731 716,2731 h 575 L 4050,0 H 3372 L 2619,2869 1863,0 h -679 z"
       id="DejaVuSans-77"
       transform="scale(0.015625)" />
    <path
       d="m 2906,1791 q 0,625 -258,968 -257,344 -723,344 -462,0 -720,-344 -258,-343 -258,-968 0,-622 258,-966 258,-344 720,-344 466,0 723,344 258,344 258,966 z M 3481,434 q 0,-893 -397,-1329 -396,-436 -1215,-436 -303,0 -572,45 -269,45 -522,139 v 559 q 253,-137 500,-202 247,-66 503,-66 566,0 847,295 281,295 281,892 V 616 Q 2728,306 2450,153 2172,0 1784,0 1141,0 747,490 353,981 353,1791 q 0,812 394,1302 394,491 1037,491 388,0 666,-153 278,-153 456,-462 v 531 h 575 z"
       id="DejaVuSans-67"
       transform="scale(0.015625)" />
    <path
       d="M 3513,2113 V 0 h -575 v 2094 q 0,497 -194,743 -194,247 -581,247 -466,0 -735,-297 -269,-296 -269,-809 V 0 H 581 v 4863 h 578 V 2956 q 207,316 486,472 280,156 646,156 603,0 912,-373 310,-373 310,-1098 z"
       id="DejaVuSans-68"
       transform="scale(0.015625)" />
    <path
       d="M 1491,2950 1838,788 3456,3500 h 610 L 1972,0 1713,-1331 H 1138 L 1397,0 988,2613 q -63,393 -360,393 H 475 l 94,494 h 219 q 615,0 703,-550 z"
       id="DejaVuSans-Oblique-3b3"
       transform="scale(0.015625)" />
    <path
       d="M 2675,525 Q 2444,222 2128,65 1813,-91 1428,-91 903,-91 598,267 294,625 294,1247 q 0,519 184,989 185,470 535,842 231,247 521,376 291,130 610,130 337,0 595,-163 258,-162 399,-465 l 375,1907 h 578 L 3144,0 H 2566 Z M 891,1350 q 0,-453 204,-706 205,-253 568,-253 268,0 498,129 230,130 405,383 184,263 290,606 107,344 107,679 0,434 -205,677 -205,244 -564,244 -272,0 -507,-128 Q 1453,2853 1288,2613 1106,2353 998,2009 891,1666 891,1350 Z"
       id="DejaVuSans-Oblique-64"
       transform="scale(0.015625)" />
    <path
       d="m 750,794 h 659 V 256 L 897,-744 H 494 L 750,256 Z"
       id="DejaVuSans-2c"
       transform="scale(0.015625)" />
    <path
       d="M 5747,2113 5338,0 h -575 l 403,2094 q 25,134 37,231 13,97 13,166 0,281 -157,437 -156,156 -437,156 -419,0 -747,-314 -328,-314 -425,-817 L 3066,0 h -575 l 409,2094 q 25,115 37,213 13,99 13,177 0,285 -156,442 -156,158 -431,158 -425,0 -754,-314 -328,-314 -425,-817 L 800,0 H 225 l 684,3500 h 575 l -109,-544 q 234,307 548,467 315,161 674,161 381,0 626,-200 246,-200 296,-556 262,369 607,562 346,194 730,194 450,0 695,-259 246,-259 246,-734 0,-103 -13,-227 -12,-123 -37,-251 z"
       id="DejaVuSans-Oblique-6d"
       transform="scale(0.015625)" />
    <path
       d="M 3438,1997 3047,0 h -575 l 106,531 Q 2325,219 2001,64 1678,-91 1281,-91 834,-91 548,182 263,456 263,884 q 0,613 489,969 489,356 1348,356 h 800 l 31,154 q 7,25 10,54 3,30 3,92 0,279 -227,433 -226,155 -636,155 -281,0 -577,-72 -295,-72 -607,-216 l 100,532 q 325,122 636,182 311,61 601,61 619,0 942,-269 324,-268 324,-781 0,-103 -16,-242 -15,-139 -46,-295 z m -622,-238 h -575 q -707,0 -1046,-189 -339,-189 -339,-586 0,-275 173,-431 174,-156 480,-156 469,0 819,336 350,336 463,898 z"
       id="DejaVuSans-Oblique-61"
       transform="scale(0.015625)" />
    <path
       d="M 3841,3500 2234,1784 3219,0 H 2559 L 1819,1388 531,0 H -166 L 1556,1844 641,3500 h 659 l 672,-1266 1172,1266 z"
       id="DejaVuSans-Oblique-78"
       transform="scale(0.015625)" />
    <path
       d="M 1159,525 V -1331 H 581 v 4831 h 578 v -531 q 182,312 458,463 277,152 661,152 638,0 1036,-506 399,-506 399,-1331 0,-825 -399,-1332 -398,-506 -1036,-506 -384,0 -661,152 -276,152 -458,464 z m 1957,1222 q 0,634 -261,995 -261,361 -717,361 -457,0 -718,-361 -261,-361 -261,-995 0,-634 261,-995 261,-361 718,-361 456,0 717,361 261,361 261,995 z"
       id="DejaVuSans-70"
       transform="scale(0.015625)" />
    <path
       d="m 2375,4863 v -479 h -550 q -309,0 -430,-125 -120,-125 -120,-450 v -309 h 947 V 3053 H 1275 V 0 H 697 V 3053 H 147 v 447 h 550 v 244 q 0,584 272,851 272,268 862,268 z"
       id="DejaVuSans-66"
       transform="scale(0.015625)" />
    <path
       d="m 0,-3 -0.673542,2.072949 H -2.85317 L -1.089814,0.354102 -1.763356,2.427051 0,1.145898 1.763356,2.427051 1.089814,0.354102 2.85317,-0.927051 H 0.673542 Z"
       id="m1ec0aa1826"
       style="stroke:#1f77b4;stroke-linejoin:bevel" />
    <defs
       id="defs102">
      <path
         d="m 0,-3 -0.673542,2.072949 H -2.85317 L -1.089814,0.354102 -1.763356,2.427051 0,1.145898 1.763356,2.427051 1.089814,0.354102 2.85317,-0.927051 H 0.673542 Z"
         id="path43"
         style="stroke:#1f77b4;stroke-linejoin:bevel" />
    </defs>
  </defs>
  <g
     inkscape:label="Layer 1"
     inkscape:groupmode="layer"
     id="layer1">
    <g
       id="line2d_19"
       style="stroke:#ff0000;stroke-width:1.6415;stroke-linecap:butt;stroke-linejoin:round;stroke-dasharray:none"
       transform="matrix(0.12973707,0,0,0.18600856,0.64229518,-4.8035299)" />
    <g
       id="g357"
       style="stroke:#008000">
      <g
         id="g17"
         transform="matrix(0.06089527,0,0,0.06089527,49.558098,-9.0722514)"
         style="stroke:#008000">
        <path
           fill="none"
           stroke="#000000"
           stroke-width="4"
           stroke-linecap="round"
           stroke-linejoin="round"
           d="m -577.455,170.075 -0.46,-2.673 -0.158,-0.432 -0.243,0.063 -0.285,5.945 -1.577,6.279 0.205,3.297 -0.751,7.263 0.197,1.79 0.55,1.001 1.187,-0.055 -0.623,-0.815 -0.128,-2.38 -0.41,-1.124 -4.572,-8.678 -3.665,-5.843 -2.634,-3.886 -1.88,-1.902 -1.221,-3.699 0.518,-0.668 8.306,-2.808 7.334,-0.924 8.554,0.584 4.321,0.747 4.376,1.173 6.386,3.2 2.762,2.833 1.561,2.699 -0.031,4.647 -0.692,2.822 -1.805,2.916 -2.197,2.015 -10.203,6.619 -3.077,1.526 -6.524,2.14 -11.693,2.478 h -1.367 l -0.133,-0.796 0.291,-0.605"
           id="path17"
           style="stroke:#008000" />
      </g>
      <g
         id="g18"
         transform="matrix(0.06089527,0,0,0.06089527,49.558098,-9.0722514)"
         style="stroke:#008000">
        <path
           fill="none"
           stroke="#000000"
           stroke-width="4"
           stroke-linecap="round"
           stroke-linejoin="round"
           d="m -529.323,170.899 -0.265,-0.853 0.907,-0.027 -1.335,-0.136 -0.139,-0.631 0.205,-0.241 -0.047,0.497 -0.39,0.6 0.447,0.326 0.018,0.44 -0.654,0.233 -2.571,2.81 -2.403,3.522 -3.593,4.156 -4.363,6.374 -0.027,0.738 1.553,-0.891 1.011,-2.598 2.661,-3.061 2.592,-1.3 0.205,-0.797 3.117,-4.398 2.395,-2.403 3.885,-5.14 1.396,-1.376 1.02,0.627 1.24,1.898 -0.106,0.743 1.283,3.396 -0.462,5.218 -0.629,2.284 0.731,0.749 0.321,0.916 -0.583,0.613 -0.466,2.033 -0.421,0.047 1.035,2.275 0.846,0.157 -0.145,0.194 0.55,-0.609 -0.512,-0.197 0.102,-1.185 -0.8,-1.095 -2.313,-1.225 -3.716,-0.818 -4.01,0.163"
           id="path18"
           style="stroke:#008000" />
      </g>
      <g
         id="g19"
         transform="matrix(0.06089527,0,0,0.06089527,49.558098,-9.0722514)"
         style="stroke:#008000">
        <path
           fill="none"
           stroke="#000000"
           stroke-width="4"
           stroke-linecap="round"
           stroke-linejoin="round"
           d="m -534.75,183.477 -5.817,0.516 1.355,-0.322 12.441,-0.14 4.859,-0.377 2.229,0.188 6.01,-0.71"
           id="path19"
           style="stroke:#008000" />
      </g>
      <g
         id="g20"
         transform="matrix(0.06089527,0,0,0.06089527,49.558098,-9.0722514)"
         style="stroke:#008000">
        <path
           fill="none"
           stroke="#000000"
           stroke-width="4"
           stroke-linecap="round"
           stroke-linejoin="round"
           d="m -490.214,175.372 -1.463,-0.404 -1.765,0.48 0.171,0.652 -0.692,0.142 -1.286,1.4 -0.261,-0.177 -0.132,0.242 -0.111,2.755 0.798,1.645 -0.181,0.768 0.41,3.063 -0.301,1.618 1.471,4.126 0.456,2.319 -0.268,0.854 1.293,1.12 0.139,0.518 -0.263,-0.521 0.738,-1.149 -0.45,-0.964"
           id="path20"
           style="stroke:#008000" />
      </g>
      <g
         id="g21"
         transform="matrix(0.06089527,0,0,0.06089527,49.558098,-9.0722514)"
         style="stroke:#008000">
        <path
           fill="none"
           stroke="#000000"
           stroke-width="4"
           stroke-linecap="round"
           stroke-linejoin="round"
           d="m -512.902,175.026 0.043,-0.567 0.46,-0.195 -0.097,-0.403 0.363,-0.309 11.094,-1.482 15.178,-0.297 9.157,1.008"
           id="path21"
           style="stroke:#008000" />
      </g>
      <g
         id="g22"
         transform="matrix(0.06089527,0,0,0.06089527,49.558098,-9.0722514)"
         style="stroke:#008000">
        <path
           fill="none"
           stroke="#000000"
           stroke-width="4"
           stroke-linecap="round"
           stroke-linejoin="round"
           d="m -458.358,173.925 0.515,-0.274 0.002,-0.635 0.699,0.476 -0.263,0.793 -3.204,4.133 -4.183,4.446 -2.324,1.973 -2.401,4.436 -0.354,0.972 0.059,0.984 -0.452,0.906 -0.865,0.625 -1.669,2.587 -0.419,1.389 0.729,0.036 0.346,-0.662 -0.421,-1.268 6.37,-13.893 0.539,-0.906 1.567,-1.254 1.772,-2.754 0.978,0.067 0.995,0.569 0.365,1.073 2.578,1.901 0.955,1.69 0.172,1.243 1.284,2.942 0.907,0.936 0.402,2.431 1.884,4.262 -0.051,0.737 1.551,1.081 0.074,0.602 0.238,-0.384 -0.657,-0.377 0.338,-0.095 -0.12,-0.188 0.317,0.195 -1.428,-0.735 -6.971,-0.499"
           id="path22"
           style="stroke:#008000" />
      </g>
      <g
         id="g23"
         transform="matrix(0.06089527,0,0,0.06089527,49.558098,-9.0722514)"
         style="stroke:#008000">
        <path
           fill="none"
           stroke="#000000"
           stroke-width="4"
           stroke-linecap="round"
           stroke-linejoin="round"
           d="m -472.975,191.228 9.602,-1.978 15.474,0.173 4.931,-0.115 2.357,-0.655 1.721,0.155"
           id="path23"
           style="stroke:#008000" />
      </g>
      <g
         id="g24"
         transform="matrix(0.06089527,0,0,0.06089527,49.558098,-9.0722514)"
         style="stroke:#008000">
        <path
           fill="none"
           stroke="#000000"
           stroke-width="4"
           stroke-linecap="round"
           stroke-linejoin="round"
           d="m -425.083,182.178 -0.268,0.948 0.52,0.974 -0.37,2.89"
           id="path24"
           style="stroke:#008000" />
      </g>
      <g
         id="g25"
         transform="matrix(0.06089527,0,0,0.06089527,49.558098,-9.0722514)"
         style="stroke:#008000">
        <path
           fill="none"
           stroke="#000000"
           stroke-width="4"
           stroke-linecap="round"
           stroke-linejoin="round"
           d="m -426.021,195.441 0.328,1.339 0.485,-0.091 -0.138,-0.314 1.12,0.072 1.37,-0.971"
           id="path25"
           style="stroke:#008000" />
      </g>
    </g>
    <g
       id="g358">
      <g
         id="g26"
         transform="matrix(0.06089527,0,0,0.06089527,49.558098,-9.0722514)">
        <path
           fill="none"
           stroke="#000000"
           stroke-width="4"
           stroke-linecap="round"
           stroke-linejoin="round"
           d="m -290.724,172.795 1.467,-5.085 -0.135,-1.383 -1.099,-1.968 -0.225,0.056 0.257,-1.34 -0.25,-0.341 0.159,0.328 0.034,-0.364 0.218,0.122 -0.564,0.087 0.148,-0.431 0.658,1.484 -0.117,0.528 1.17,4.046 0.776,1.505 3.378,11.407 0.948,1.855 2.552,8.927 0.81,0.908 1.813,3.747 0.268,1.128 -0.195,0.289 0.561,0.482 -0.479,-0.097 0.039,-1.548"
           id="path26" />
      </g>
      <g
         id="g27"
         transform="matrix(0.06089527,0,0,0.06089527,49.558098,-9.0722514)">
        <path
           fill="none"
           stroke="#000000"
           stroke-width="4"
           stroke-linecap="round"
           stroke-linejoin="round"
           d="m -262.007,162.115 0.578,-2.531 1.176,-3.044 0.364,-0.437 0.658,0.343 -0.85,10.247 -3.371,7.911 -2.201,2.728 -8.783,16.659 -1.409,3.972 0.216,0.065 -0.11,1.512 1.216,-0.478"
           id="path27" />
      </g>
      <g
         id="g28"
         transform="matrix(0.06089527,0,0,0.06089527,49.558098,-9.0722514)">
        <path
           fill="none"
           stroke="#000000"
           stroke-width="4"
           stroke-linecap="round"
           stroke-linejoin="round"
           d="m -245.988,179.22 -0.076,-1.847 -0.35,-0.668 0.453,-0.795 0.21,-0.008 -0.165,0.976 -0.277,0.019 0.215,0.116 -0.211,-0.159 -0.8,0.853 -2.222,5.811 -0.969,1.038 -0.758,4.252 -0.469,5.427 0.417,3.989 0.38,0.984 -0.196,0.278 1.19,1.478 0.221,0.994 0.402,-0.185 1.924,0.922 2.784,0.792 2.184,-0.247"
           id="path28" />
      </g>
      <g
         id="g29"
         transform="matrix(0.06089527,0,0,0.06089527,49.558098,-9.0722514)">
        <path
           fill="none"
           stroke="#000000"
           stroke-width="4"
           stroke-linecap="round"
           stroke-linejoin="round"
           d="m -259.617,193.225 -0.444,0.208 -0.462,-0.274 1.492,0.389 0.437,0.53 1.987,0.338 7.765,-0.002 3.763,-0.352"
           id="path29" />
      </g>
      <g
         id="g30"
         transform="matrix(0.06089527,0,0,0.06089527,49.558098,-9.0722514)">
        <path
           fill="none"
           stroke="#000000"
           stroke-width="4"
           stroke-linecap="round"
           stroke-linejoin="round"
           d="m -205.546,184.548 -1.842,0.113 -0.358,0.368 -0.44,-0.5 4.789,0.045 9.727,-0.611 2.05,0.032 1.728,0.626 0.734,-0.276 5.403,-0.321 1.501,0.107 0.135,0.552 -0.663,-0.449 -0.557,0.329"
           id="path30" />
      </g>
      <g
         id="g31"
         transform="matrix(0.06089527,0,0,0.06089527,49.558098,-9.0722514)">
        <path
           fill="none"
           stroke="#000000"
           stroke-width="4"
           stroke-linecap="round"
           stroke-linejoin="round"
           d="m -202.821,194.749 -5.303,0.827 1.593,0.19 0.656,0.801 1.944,0.041 3.059,0.594 19.796,-1.091 2.629,-0.474 0.444,-0.159 -0.247,-0.122 -1.026,0.35 -1.159,-0.18 -1.192,0.371 -0.607,0.714 -0.301,-0.247 -0.879,0.19"
           id="path31" />
      </g>
      <g
         id="g32"
         transform="matrix(0.06089527,0,0,0.06089527,49.558098,-9.0722514)">
        <path
           fill="none"
           stroke="#000000"
           stroke-width="4"
           stroke-linecap="round"
           stroke-linejoin="round"
           d="m -108.49,187.762 -0.667,-3.367 0.941,-3.252 0.183,-2.918 -0.438,-0.837 -0.835,-0.01 -0.274,0.847 -0.766,-0.185 -1.37,0.471 -3.845,3.223 -2.503,3.486 -1.347,2.834 -0.577,2.487 0.15,3.105 0.574,1.719 1.136,1.889 1.694,1.147 4.975,0.99 2.835,-0.091 2.714,-0.626 2.289,-1.95 1.288,-1.773 2.6105,-6.151 0.526,-2.372 0.2811,-4.15 -0.3059,-5.691 -0.3768,-1.719 -0.7869,-1.466 -0.912,-0.513 -1.323,0.214 -0.995,0.898 -0.631,0.045 -3.143,3.41 -0.647,1.964 -0.003,1.829"
           id="path32" />
      </g>
      <g
         id="g33"
         transform="matrix(0.06089527,0,0,0.06089527,49.558098,-9.0722514)">
        <path
           fill="none"
           stroke="#000000"
           stroke-width="4"
           stroke-linecap="round"
           stroke-linejoin="round"
           d="m -80.4782,197.048 -0.6215,-0.034 0.1087,-0.184 0.4572,0.841 -0.0342,0.49 -1.1923,0.271 0.1948,-0.362"
           id="path33" />
      </g>
      <g
         id="g34"
         transform="matrix(0.06089527,0,0,0.06089527,49.558098,-9.0722514)">
        <path
           fill="none"
           stroke="#000000"
           stroke-width="4"
           stroke-linecap="round"
           stroke-linejoin="round"
           d="m -59.1015,182.042 -0.6708,-0.499 -0.6965,0.032 -1.1335,0.849 -2.1973,2.783 -3.348,5.195 -0.9561,2.549 0.0582,1.838 0.5125,1.316 1.7793,0.859 0.9776,-0.47 0.4873,0.353 1.9658,0.127 3.4689,-0.325 3.8225,-0.795 4.0242,-2.129 3.4367,-3.433 0.9042,-2.879 -0.2009,-3.496 -0.7838,-2.829 -0.8558,-1.742 -0.8609,-0.849 -2.7625,-0.557 -5.6407,1.117 -1.3743,1.093 -0.8244,1.181"
           id="path34" />
      </g>
      <g
         id="g35"
         transform="matrix(0.06089527,0,0,0.06089527,49.558098,-9.0722514)">
        <path
           fill="none"
           stroke="#000000"
           stroke-width="4"
           stroke-linecap="round"
           stroke-linejoin="round"
           d="m -32.3998,176.234 -0.6107,-0.624 0.1285,-0.9 2.2308,-0.99 9.5556,-1.929 1.1508,0.474 0.321,1.079 -0.4278,1.318 -2.1303,3.419 -1.3417,0.974 -3.0955,3.239 -2.0333,1.34 -0.6135,-0.068 -0.6371,1.009 0.6336,0.167 0.758,-0.678 2.1321,0.307 0.5404,-0.189 2.6388,0.454 1.3623,0.592 3.2094,3.277 0.5393,3.241 -0.3126,0.836 -2.9587,2.125 -5.6517,2.354 -9.8473,1.539 -1.82,-0.55 1.9112,-0.841"
           id="path35" />
      </g>
      <g
         id="g36"
         transform="matrix(0.06089527,0,0,0.06089527,49.558098,-9.0722514)">
        <path
           fill="none"
           stroke="#000000"
           stroke-width="4"
           stroke-linecap="round"
           stroke-linejoin="round"
           d="m 10.4145,179.134 4.5308,-5.273 5.1741,-13.161 0.7225,-1.087 1.8294,-6.261 -0.1308,-0.695 -0.6563,0.255 -2.2751,3.734 -1.5612,1.866 -1.587,2.906 -1.2813,3.055 -7.32254,22.007 -1.13648,5.118 -0.35034,5.054 1.80023,7.231 0.91382,-0.756 0.11841,-1.438"
           id="path36" />
      </g>
      <g
         id="g37"
         transform="matrix(0.06089527,0,0,0.06089527,49.558098,-9.0722514)">
        <path
           fill="none"
           stroke="#000000"
           stroke-width="4"
           stroke-linecap="round"
           stroke-linejoin="round"
           d="m -3.20337,189.113 0.62189,0.33 4.05151,-0.203 7.15601,-1.551 5.25606,-0.551 2.1022,0.084 3.5337,-1.162 4.6849,-0.655"
           id="path37" />
      </g>
      <g
         id="g38"
         transform="matrix(0.06089527,0,0,0.06089527,49.558098,-9.0722514)">
        <path
           fill="none"
           stroke="#000000"
           stroke-width="4"
           stroke-linecap="round"
           stroke-linejoin="round"
           d="m 35.2664,174.574 1.0517,-2.277 -0.0711,1.954 -5.6849,12.253 -0.9189,3.493 -0.0983,2.326 0.4143,1.297 1.4071,2.082 1.6098,1.329 0.5885,-0.139 0.8902,0.958 3.2335,-1.451 1.2454,-1.367"
           id="path38" />
      </g>
      <g
         id="g39"
         transform="matrix(0.06089527,0,0,0.06089527,49.558098,-9.0722514)">
        <path
           fill="none"
           stroke="#000000"
           stroke-width="4"
           stroke-linecap="round"
           stroke-linejoin="round"
           d="m 24.6852,187.968 0.5844,-0.727 1.6272,-0.116 0.9449,0.338 2.8119,-0.903 3.448,-0.16 7.2174,-1.216"
           id="path39" />
      </g>
      <g
         id="g40"
         transform="matrix(0.06089527,0,0,0.06089527,49.558098,-9.0722514)">
        <path
           fill="none"
           stroke="#000000"
           stroke-width="4"
           stroke-linecap="round"
           stroke-linejoin="round"
           d="m 46.7759,159.83 0.3634,-0.835 0.972,-0.97 1.8244,-0.581 1.0386,0.142 1.2416,-0.487 2.9174,-0.274 1.2315,-0.439 1.5873,0.519 0.5245,0.514 0.0326,1.14 -0.6565,1.384 -2.4396,3.389 -2.2782,1.098 -0.6535,1.084 1.0179,-0.4 2.1563,-0.016 2.8352,0.792 1.4446,0.893 0.9538,2.187 -0.9463,1.914 -0.4633,-0.05 -2.0571,1.153 -1.1018,1.031 -0.6124,-0.137 -6.1722,1.236 -1.2774,-0.075 -0.0161,-0.511 0.6745,-0.138"
           id="path40" />
      </g>
      <g
         id="g41"
         transform="matrix(0.06089527,0,0,0.06089527,49.558098,-9.0722514)">
        <path
           fill="none"
           stroke="#000000"
           stroke-width="4"
           stroke-linecap="round"
           stroke-linejoin="round"
           d="m 87.9492,219.458 0.7039,-0.823 0.1014,-0.615 1.2128,-1.221 -1.2623,2.82 -6.005,7.438 -5.3577,5.676 -2.0498,1.771 -0.4326,0.276 -0.1395,-0.196 0.1009,0.429 0.8682,-0.115"
           id="path41" />
      </g>
      <g
         id="g42"
         transform="matrix(0.06089527,0,0,0.06089527,49.558098,-9.0722514)">
        <path
           fill="none"
           stroke="#000000"
           stroke-width="4"
           stroke-linecap="round"
           stroke-linejoin="round"
           d="m 130.528,174.096 -1.144,-1.682 -0.087,-2.168 0.253,-0.991 1.406,-0.669 0.069,-0.372 -0.443,0.786 0.181,1.058 2.324,5.689 3.321,6.355 1.933,4.995 1.629,5.708 1.697,4.172 0.951,1.657 0.977,-1.233"
           id="path42" />
      </g>
      <g
         id="g43"
         transform="matrix(0.06089527,0,0,0.06089527,49.558098,-9.0722514)">
        <path
           fill="none"
           stroke="#000000"
           stroke-width="4"
           stroke-linecap="round"
           stroke-linejoin="round"
           d="m 156.717,180.424 -0.517,0.362 -0.222,-0.323 0.202,0.197 -0.262,-0.021 -0.243,0.768 -1.152,0.945 -2.616,3.26 -3.244,4.535 -3.071,3.499 -0.987,0.681 -2.509,3.566 -0.325,0.274 -0.16,-0.185 0.001,0.565 0.317,0.038"
           id="path43-3" />
      </g>
      <g
         id="g44"
         transform="matrix(0.06089527,0,0,0.06089527,49.558098,-9.0722514)">
        <path
           fill="none"
           stroke="#000000"
           stroke-width="4"
           stroke-linecap="round"
           stroke-linejoin="round"
           d="m 156.16,181.343 -0.65,0.115 -0.332,-0.318 -1.573,-0.279 -0.537,0.709 -0.133,1.317 1.955,3.832 1.941,2.086 4.504,2.614 5.786,2.004 0.989,0.711 1.916,0.321 0.448,-0.197"
           id="path44" />
      </g>
      <g
         id="g45"
         transform="matrix(0.06089527,0,0,0.06089527,49.558098,-9.0722514)">
        <path
           fill="none"
           stroke="#000000"
           stroke-width="4"
           stroke-linecap="round"
           stroke-linejoin="round"
           d="m 181.339,166.684 -0.331,-1.222 -0.191,0.744 -0.621,0.263 -3.46,6.877 -3.145,5.362 -2.676,5.833 -3.103,7.703 -0.214,2.842 0.884,1.799"
           id="path45" />
      </g>
      <g
         id="g46"
         transform="matrix(0.06089527,0,0,0.06089527,49.558098,-9.0722514)">
        <path
           fill="none"
           stroke="#000000"
           stroke-width="4"
           stroke-linecap="round"
           stroke-linejoin="round"
           d="m 199.705,171.959 0.929,-2.243 -0.214,-0.098 -0.257,0.959 -0.58,4.227 -0.764,2.966 -6.062,14.499 -0.19,1.949 0.939,1.529 0.79,0.583 1.197,0.444 0.875,-0.247 2.835,1.111 1.163,0.006 2.22,-1.517"
           id="path46" />
      </g>
      <g
         id="g47"
         transform="matrix(0.06089527,0,0,0.06089527,49.558098,-9.0722514)">
        <path
           fill="none"
           stroke="#000000"
           stroke-width="4"
           stroke-linecap="round"
           stroke-linejoin="round"
           d="m 189.719,188.727 0.146,-0.573 -0.329,-0.264 0.695,-0.737 1.882,-0.222 11,0.751"
           id="path47" />
      </g>
      <g
         id="g48"
         transform="matrix(0.06089527,0,0,0.06089527,49.558098,-9.0722514)">
        <path
           fill="none"
           stroke="#000000"
           stroke-width="4"
           stroke-linecap="round"
           stroke-linejoin="round"
           d="m 231.51,183.124 -3.589,0.06 -0.764,0.387 0.442,-0.429 1.961,-0.143 18.521,-0.298 5.251,-0.797 2.685,0.364 0.231,0.449 -0.421,0.287"
           id="path48" />
      </g>
      <g
         id="g49"
         transform="matrix(0.06089527,0,0,0.06089527,49.558098,-9.0722514)">
        <path
           fill="none"
           stroke="#000000"
           stroke-width="4"
           stroke-linecap="round"
           stroke-linejoin="round"
           d="m 222.783,195.887 -0.229,0.298 -0.017,-0.281 0.643,-0.323 3.318,-0.174 16.608,0.671 18.411,-1.047 0.381,0.2 -0.719,0.193"
           id="path49" />
      </g>
      <g
         id="g50"
         transform="matrix(0.06089527,0,0,0.06089527,49.558098,-9.0722514)">
        <path
           fill="none"
           stroke="#000000"
           stroke-width="4"
           stroke-linecap="round"
           stroke-linejoin="round"
           d="m 311.86,177.335 -2.481,-1.884 0.984,-0.805 0.645,-1.037 1.962,-1.224 2.552,-0.917 7.643,-2.018 5.973,0.358 1,0.5 1.448,2.056 -0.692,1.661 -2.009,2.967 -8.186,6.104 -0.545,1.116 0.853,-0.604 2.234,0.111 3.261,2.3 4.046,4.574 1.244,0.873 0.645,1.802 -0.729,2.14 -1.988,2.534 -1.507,0.966 -8.641,3.154 -3.745,0.373 -1.052,-1.782 0.967,-1.755"
           id="path50" />
      </g>
      <g
         id="g51"
         transform="matrix(0.06089527,0,0,0.06089527,49.558098,-9.0722514)">
        <path
           fill="none"
           stroke="#000000"
           stroke-width="4"
           stroke-linecap="round"
           stroke-linejoin="round"
           d="m 346.3,197.673 -0.088,-0.726 -1.821,0.877 -0.007,0.338 0.607,-0.112"
           id="path51" />
      </g>
      <g
         id="g52"
         transform="matrix(0.06089527,0,0,0.06089527,49.558098,-9.0722514)">
        <path
           fill="none"
           stroke="#000000"
           stroke-width="4"
           stroke-linecap="round"
           stroke-linejoin="round"
           d="m 373.719,173.819 -1.876,-0.683 -1.998,0.361 -0.473,-0.291 -3.52,4.953 0.319,1.759 1.777,1.432 2.627,0.835 2.439,-0.118 3.766,-0.611 3.454,-1.076 2.091,-1.329 0.886,-1.969 0.01,-0.742 -0.649,-1.258 -2.823,-3.291 -3.773,-1.164 -2.898,0.382 -2.191,0.701 -1.943,0.974 -1.674,1.501"
           id="path52" />
      </g>
      <g
         id="g53"
         transform="matrix(0.06089527,0,0,0.06089527,49.558098,-9.0722514)">
        <path
           fill="none"
           stroke="#000000"
           stroke-width="4"
           stroke-linecap="round"
           stroke-linejoin="round"
           d="m 377.216,181.599 -2.511,0.493 -3.578,1.991 -1.067,1.758 -1.369,3.405 -0.032,1.029 0.758,1.069 3.099,1.096 6.05,0.502 4.411,-0.577 2.555,-0.67 3.505,-1.395 0.84,-0.786 0.417,-1.197 -0.549,-1.895 -1.333,-2.255 -0.875,-0.638 -0.835,-1.322 -3.062,-2.206 -3.611,-0.334 -1.342,0.277"
           id="path53" />
      </g>
      <g
         id="g54"
         transform="matrix(0.06089527,0,0,0.06089527,49.558098,-9.0722514)">
        <path
           fill="none"
           stroke="#000000"
           stroke-width="4"
           stroke-linecap="round"
           stroke-linejoin="round"
           d="m 418.028,161.335 0.221,-3.834 0.782,-2.378 0.417,-0.238 0.084,0.304 -0.704,1.823 0.186,1.239 -3.386,21.267 -1.191,4.058 -0.213,3.249 0.047,1.535 0.273,-0.774"
           id="path54" />
      </g>
      <g
         id="g55"
         transform="matrix(0.06089527,0,0,0.06089527,49.558098,-9.0722514)">
        <path
           fill="none"
           stroke="#000000"
           stroke-width="4"
           stroke-linecap="round"
           stroke-linejoin="round"
           d="m 438.361,153.686 -0.45,-2.705 0.446,0.288 -0.507,0.511 -1.211,4.591 -3.814,9.642 -0.841,3.129 -1.19,1.9 -1.262,5.426 -0.355,6.433 1.085,2.594 0.102,1.022 -0.046,-0.856 0.602,-0.322 0.536,-1.381 0.422,0.013 5.011,-3.149 4.613,-2.279 4.522,-0.819 2.6,0.531 1.528,1.193 0.794,2.34 -0.152,3.792 -1.095,1.414 -1.576,1.007 -1.263,0.318 -1.785,-0.386 -1.065,0.533 -2.573,0.422 -6.458,0.392 -3.204,-0.181 -3.202,-0.849 -0.245,-1.084 0.955,-0.823 1.012,-0.066"
           id="path55" />
      </g>
      <g
         id="g56"
         transform="matrix(0.06089527,0,0,0.06089527,49.558098,-9.0722514)">
        <path
           fill="none"
           stroke="#000000"
           stroke-width="4"
           stroke-linecap="round"
           stroke-linejoin="round"
           d="m -286.487,240.173 -0.22,-1.579 0.193,-0.551 -0.884,-2.285 0.001,-1.112 -1.773,-2.158 0.932,-1.111 0.228,0.476 0.297,-0.902 -0.232,0.637 0.375,0.128 0.86,1.324 4.332,7.599 1.986,4.481 0.29,1.869 2.225,3.89 2.468,3.006 0.345,1.277 0.128,-0.213 0.143,0.515 1.193,0.745 1.286,-0.679 0.887,-1.29"
           id="path56" />
      </g>
      <g
         id="g57"
         transform="matrix(0.06089527,0,0,0.06089527,49.558098,-9.0722514)">
        <path
           fill="none"
           stroke="#000000"
           stroke-width="4"
           stroke-linecap="round"
           stroke-linejoin="round"
           d="m -265.787,233.297 0.526,0.42 -0.401,1.801 0.124,2.414 -0.907,2.8 -1.551,3.32 -4.336,6.583 -3.518,2.836 -1.463,1.73 -0.19,1.1 0.267,0.582 2.265,-0.555"
           id="path57" />
      </g>
      <g
         id="g58"
         transform="matrix(0.06089527,0,0,0.06089527,49.558098,-9.0722514)">
        <path
           fill="none"
           stroke="#000000"
           stroke-width="4"
           stroke-linecap="round"
           stroke-linejoin="round"
           d="m -267.836,238.614 -0.302,-0.579 -0.252,0.225 0.418,-0.077 0.312,1.438 1.738,4.044 1.224,1.953 3.949,4.815 2.539,1.025 2.437,1.503 1.68,0.307 1.201,-0.454"
           id="path58" />
      </g>
      <g
         id="g59"
         transform="matrix(0.06089527,0,0,0.06089527,49.558098,-9.0722514)">
        <path
           fill="none"
           stroke="#000000"
           stroke-width="4"
           stroke-linecap="round"
           stroke-linejoin="round"
           d="m -247.033,221.628 -0.149,-0.431 -0.705,-0.069 0.084,1.891 -1.607,5.539 -3.538,16.394 -0.699,7.943 0.171,1.916 0.833,2.976"
           id="path59" />
      </g>
      <g
         id="g60"
         transform="matrix(0.06089527,0,0,0.06089527,49.558098,-9.0722514)">
        <path
           fill="none"
           stroke="#000000"
           stroke-width="4"
           stroke-linecap="round"
           stroke-linejoin="round"
           d="m -229.088,252.07 1.151,-1.462 0.585,-0.464 -0.058,0.448 -0.062,-1.047 -1.272,-1.014 -2.597,-0.333 -1.021,-0.61 -5.483,1.948 -0.985,1.044 0.899,0.057 1.879,0.919 2.87,1.609 1.284,1.227 3.071,1.208 1.92,1.267 1.993,2.244 0.884,0.396 1.779,3.05 -0.028,1.744 -1.171,1.659 -1.637,1.014 -3.858,1.08 -1.188,0.659 -3.615,-0.343 -3.303,-1.442 -1.439,-1.014 -0.593,-1.482 0.173,-1.13 0.516,-0.422"
           id="path60" />
      </g>
      <g
         id="g61"
         transform="matrix(0.06089527,0,0,0.06089527,49.558098,-9.0722514)">
        <path
           fill="none"
           stroke="#000000"
           stroke-width="4"
           stroke-linecap="round"
           stroke-linejoin="round"
           d="m -195.942,242.048 -2.05,-0.196 -2.323,-1.168 0.477,0.506 0.518,-0.555 0.169,0.345 1.757,0.795 2.863,0.235 12.94,-0.435 3.604,0.495 2.653,0.002 0.587,0.255 -0.058,0.351 -0.865,0.921"
           id="path61" />
      </g>
      <g
         id="g62"
         transform="matrix(0.06089527,0,0,0.06089527,49.558098,-9.0722514)">
        <path
           fill="none"
           stroke="#000000"
           stroke-width="4"
           stroke-linecap="round"
           stroke-linejoin="round"
           d="m -199.906,250.796 0.085,0.347 3.797,1.271 5.293,-0.171 2.821,-0.655 1.52,0.307 9.596,0.122 10.873,-0.261 -0.563,-0.328 -1.201,0.319"
           id="path62" />
      </g>
      <g
         id="g63"
         transform="matrix(0.06089527,0,0,0.06089527,49.558098,-9.0722514)">
        <path
           fill="none"
           stroke="#000000"
           stroke-width="4"
           stroke-linecap="round"
           stroke-linejoin="round"
           d="m -140.626,241.492 -1.684,-4.483 0.323,-0.394 0.212,0.439 3.767,-1.953 6.493,-2.02 5.533,-0.94 1.4,-0.53 3.909,0.481 -0.075,0.668 -4.914,6.221 -4.639,3.924 -2.378,2.783 0.27,0.373 0.808,-0.361 0.436,-0.69 1.737,0.784 2.777,0.404 5.515,0.231 2.888,0.982 3.065,1.8 1.304,1.828 -0.164,0.893 -0.862,1.136 -5.501,2.285 -5.487,1.325 -1.666,-0.282 -0.676,0.596 -2.803,0.906 -1.23,0.72 -2.106,0.465 -1.293,-0.349 0.13,-0.957"
           id="path63" />
      </g>
      <g
         id="g64"
         transform="matrix(0.06089527,0,0,0.06089527,49.558098,-9.0722514)">
        <path
           fill="none"
           stroke="#000000"
           stroke-width="4"
           stroke-linecap="round"
           stroke-linejoin="round"
           d="m -97.3177,255.35 -1.4211,-0.032 -0.72,0.464 -0.6832,-0.059 0.009,-0.325 0.3455,0.54 0.4294,-0.214 0.5247,0.494"
           id="path64" />
      </g>
      <g
         id="g65"
         transform="matrix(0.06089527,0,0,0.06089527,49.558098,-9.0722514)">
        <path
           fill="none"
           stroke="#000000"
           stroke-width="4"
           stroke-linecap="round"
           stroke-linejoin="round"
           d="m -84.6352,247.65 0.7735,-5.237 2.7049,-7.271 1.672,-8.24 -0.1868,5.807 -1.9783,7.874 -0.5324,5.561 0.2978,1.825 0.8889,1.465 1.3074,1.147 0.8596,-0.006 2.2566,1.238"
           id="path65" />
      </g>
      <g
         id="g66"
         transform="matrix(0.06089527,0,0,0.06089527,49.558098,-9.0722514)">
        <path
           fill="none"
           stroke="#000000"
           stroke-width="4"
           stroke-linecap="round"
           stroke-linejoin="round"
           d="m -36.6031,222.406 0.6699,-1.516 -0.0832,-0.34 -0.5389,1.011 -8.5487,19.066 -1.0937,4.124 -0.0217,1.669 0.5168,0.333 0.4248,-0.185 1.2937,0.754 2.5844,-0.041"
           id="path66" />
      </g>
      <g
         id="g67"
         transform="matrix(0.06089527,0,0,0.06089527,49.558098,-9.0722514)">
        <path
           fill="none"
           stroke="#000000"
           stroke-width="4"
           stroke-linecap="round"
           stroke-linejoin="round"
           d="m -22.7648,215.674 -0.8685,5.654 -2.1275,8.281 -3.5487,8.971 -0.3108,3.088 0.2015,2.374 1.1465,-0.941 1.0991,0.027 1.7936,-1.248 3.9102,-1.482 4.4999,-0.394 2.8501,0.183 2.4658,0.841 2.34482,1.257 1.35218,3.571 0.02868,1.944 -0.32568,0.744 -1.185,0.788 -5.2299,1.08 -2.4672,0.817 -9.4875,-0.131 -2.9424,-0.418 -0.6923,-0.369 -0.2873,-0.553 1.2677,-1.261"
           id="path67" />
      </g>
    </g>
    <g
       id="g359"
       style="stroke:#008000">
      <g
         id="g68"
         transform="matrix(0.06089527,0,0,0.06089527,49.558098,-9.0722514)"
         style="stroke:#008000">
        <path
           fill="none"
           stroke="#000000"
           stroke-width="4"
           stroke-linecap="round"
           stroke-linejoin="round"
           d="m -574.42,326.14 -0.228,-0.324 -0.231,0.142 -0.629,2.352 -0.24,5.759 -1.676,3.592 -0.826,2.563 -0.613,4.552 0.222,2.327 -0.862,0.18 0.524,0.434 -0.02,1.121 0.444,-0.45 -0.578,-0.351 0.34,-1.402"
           id="path68"
           style="stroke:#008000" />
      </g>
      <g
         id="g69"
         transform="matrix(0.06089527,0,0,0.06089527,49.558098,-9.0722514)"
         style="stroke:#008000">
        <path
           fill="none"
           stroke="#000000"
           stroke-width="4"
           stroke-linecap="round"
           stroke-linejoin="round"
           d="m -583.378,317.696 -0.37,-2.457 0.722,-1.584 -0.404,-0.433 0.098,-0.796 2.561,-0.375 5.72,-1.664 8.394,-0.722 3.184,0.415 2.875,0.788 2.794,1.314 3.809,3.349 1.035,1.698 0.359,1.628 -0.061,3.151 -0.645,1.012 0.082,0.343 -0.73,1.129 -1.719,0.989 -9.267,3.957 -3.661,1.159 -8.264,1.938 -6.275,0.552 1.518,0.641"
           id="path69"
           style="stroke:#008000" />
      </g>
      <g
         id="g70"
         transform="matrix(0.06089527,0,0,0.06089527,49.558098,-9.0722514)"
         style="stroke:#008000">
        <path
           fill="none"
           stroke="#000000"
           stroke-width="4"
           stroke-linecap="round"
           stroke-linejoin="round"
           d="m -550.496,328.496 -0.509,0.045 -0.538,0.834 -1.617,3.596 -0.451,2.385 -2.096,5.844 -0.082,3.91 0.348,1.551 0.82,-0.316 -0.215,0.141 -0.422,-0.523 0.736,-0.408 -0.731,-0.737 -0.254,-1.096 0.104,-4.375 0.489,-2.594 1.045,-2.619 2.355,-3.971 4.618,-5.893 7.828,-4.252 2.413,0.124 1.332,0.493 -0.526,0.078 -0.877,0.901 -2.303,3.687 -5.516,6.011 -2.309,4.517 0.181,2.927 0.712,1.281 1.011,0.77 1.162,0.221 2.444,-0.181 2.654,0.72 3.146,-0.068 0.61,-0.572 -0.083,-0.25 1.734,-0.866 0.294,-0.618"
           id="path70"
           style="stroke:#008000" />
      </g>
      <g
         id="g71"
         transform="matrix(0.06089527,0,0,0.06089527,49.558098,-9.0722514)"
         style="stroke:#008000">
        <path
           fill="none"
           stroke="#000000"
           stroke-width="4"
           stroke-linecap="round"
           stroke-linejoin="round"
           d="m -525.896,326.832 0.648,-1.619 1.233,-1.773 -0.255,0.087 0.041,-0.406 -0.627,0.634 -0.811,2.969 -1.063,2.011 -0.154,4.009 -1.21,3.657 -0.942,4.41 0.015,0.605 0.517,0.462 -0.377,0.629 0.029,2.094 1.549,0.517"
           id="path71"
           style="stroke:#008000" />
      </g>
      <g
         id="g72"
         transform="matrix(0.06089527,0,0,0.06089527,49.558098,-9.0722514)"
         style="stroke:#008000">
        <path
           fill="none"
           stroke="#000000"
           stroke-width="4"
           stroke-linecap="round"
           stroke-linejoin="round"
           d="m -504.943,328.651 0.715,-0.148 -1.208,0.674 0.181,0.146 -0.496,0.804 -2.436,3.014 -0.086,0.701 -1.913,3.453 -5.024,7.353 -0.699,1.28 0.057,0.855 -1.019,1.286 -0.254,1.036 0.296,-0.614 0.549,-0.236 0.008,-1.744 0.353,0.048 1.792,-1.571 2.217,-4.263 5.479,-8.223 0.996,-2.787 0.656,0.075 -0.005,0.272 -1.254,1.363 0.518,2.33 -0.391,2.879 0.745,3.23 1.722,2.342 1.623,-0.325 0.31,0.67 1.32,0.521 1.615,-0.081 1.652,0.36 6.454,-1.261 3.006,-1.75 2.982,-2.905 0.33,-2.739 -0.844,-0.144 -0.443,-0.574 0.431,-0.779 -0.495,-2.87 0.328,-0.722 -0.136,-0.696 -0.616,-0.602 -1.315,-3.131 -0.926,-0.742 0.058,0.373 -0.286,0.01 0.697,-0.257 0.307,1.828"
           id="path72"
           style="stroke:#008000" />
      </g>
      <g
         id="g73"
         transform="matrix(0.06089527,0,0,0.06089527,49.558098,-9.0722514)"
         style="stroke:#008000">
        <path
           fill="none"
           stroke="#000000"
           stroke-width="4"
           stroke-linecap="round"
           stroke-linejoin="round"
           d="m -455.592,328.659 -1.403,-2.219 -4.692,-0.785 -3.85,0.698 -5.552,1.79 -3.41,2.049 -6.784,5.119 -0.785,0.113 -1.884,3.631 -0.276,0.781 0.225,0.693 -0.642,1.481 1.018,2.711 2.026,1.598 0.686,-0.059 0.848,0.703 3.194,0.413 1.564,0.558 3.801,-0.315 0.535,0.363 6.816,-1.834 3.838,-1.494 2.945,-1.809 3.56,-1.268 0.196,-0.85"
           id="path73"
           style="stroke:#008000" />
      </g>
      <g
         id="g74"
         transform="matrix(0.06089527,0,0,0.06089527,49.558098,-9.0722514)"
         style="stroke:#008000">
        <path
           fill="none"
           stroke="#000000"
           stroke-width="4"
           stroke-linecap="round"
           stroke-linejoin="round"
           d="m -446.482,325.093 -0.051,-0.448 0.493,-0.497 -0.781,-0.289 0.449,0.649 -0.67,1.925 -0.627,4.104 0.06,1.912 -4.514,8.918 -1.298,2.216 -1.205,0.955 -0.694,2.501 0.035,1.537 0.549,0.629"
           id="path74"
           style="stroke:#008000" />
      </g>
      <g
         id="g75"
         transform="matrix(0.06089527,0,0,0.06089527,49.558098,-9.0722514)"
         style="stroke:#008000">
        <path
           fill="none"
           stroke="#000000"
           stroke-width="4"
           stroke-linecap="round"
           stroke-linejoin="round"
           d="m -424.762,325.616 -0.02,0.296 -0.964,0.323 -0.838,0.81 -2.075,4.378 -2.393,10.732 -1.342,1.511 0.238,0.624 -0.15,2.634 -0.47,0.379 -0.216,-0.169 0.803,-0.714 -1.394,-0.237 -0.235,-0.925 -0.626,-0.13 0.307,-0.121 -0.006,0.25 -0.367,-0.307 -0.237,-1.846 -0.626,-1.452 0.538,-4.776 1.613,-3.364 4.706,-6.543 1.004,-2.121 5.185,-3.736 3.532,-1.631 3.988,-0.836 2.265,0.256 2.031,0.576 2.435,1.31 1.652,2.741 0.239,0.772 -0.678,2.038 -1.253,1.196 -0.642,1.464 -4.314,3.63 -6.851,2.704 -8.533,2.644 -3.008,-0.023 -1.575,0.744 -2.096,0.274 -0.562,-0.252 1.093,-0.907"
           id="path75"
           style="stroke:#008000" />
      </g>
      <g
         id="g76"
         transform="matrix(0.06089527,0,0,0.06089527,49.558098,-9.0722514)"
         style="stroke:#008000">
        <path
           fill="none"
           stroke="#000000"
           stroke-width="4"
           stroke-linecap="round"
           stroke-linejoin="round"
           d="m -396.397,320.13 0.067,-2.701 -0.572,-0.837 0.85,1.122 -0.358,-0.017 -0.317,0.613 -0.777,2.639 0.043,1.377 -1.618,3.345 -0.485,1.765 -1.73,2.987 -0.177,0.843 -3.613,3.226 -0.334,1.535 0.822,0.317 0.271,0.634 -0.59,0.092 0.816,-0.128 0.709,0.495 0.494,-0.763 0.764,0.695 3.35,1.231 0.246,-0.389 1.713,-0.625 0.94,-0.929 1.164,-0.188 1.954,-1.138 2.161,-0.76"
           id="path76"
           style="stroke:#008000" />
      </g>
      <g
         id="g77"
         transform="matrix(0.06089527,0,0,0.06089527,49.558098,-9.0722514)"
         style="stroke:#008000">
        <path
           fill="none"
           stroke="#000000"
           stroke-width="4"
           stroke-linecap="round"
           stroke-linejoin="round"
           d="m -377.291,321.808 -0.074,-0.311 -0.284,0.11 -0.993,1.521 0.142,0.562 -3.424,5.081 -2.359,4.333 -0.193,1.967 -2.278,3.152 -1.504,3.431 -0.513,0.174 0.826,0.537 0.175,0.632 0.274,-0.593 -0.321,-0.652 1.559,-0.346"
           id="path77"
           style="stroke:#008000" />
      </g>
      <g
         id="g78"
         transform="matrix(0.06089527,0,0,0.06089527,49.558098,-9.0722514)"
         style="stroke:#008000">
        <path
           fill="none"
           stroke="#000000"
           stroke-width="4"
           stroke-linecap="round"
           stroke-linejoin="round"
           d="m -379.219,320.03 -0.866,-1.633 1,-0.427 19.66,-0.02 0.625,-0.138 -0.869,-0.385 -1.08,0.374 -0.471,0.866"
           id="path78"
           style="stroke:#008000" />
      </g>
      <g
         id="g79"
         transform="matrix(0.06089527,0,0,0.06089527,49.558098,-9.0722514)"
         style="stroke:#008000">
        <path
           fill="none"
           stroke="#000000"
           stroke-width="4"
           stroke-linecap="round"
           stroke-linejoin="round"
           d="m -380.122,332.375 3.28,-0.416 4.738,0.673 1.632,0.736 0.609,-0.349 1.785,-0.189 0.905,-0.591 2.393,0.091 0.69,0.427 -0.11,-0.28 -1.171,-0.179 -1.629,0.468 -1.581,-0.095 -8.627,3.566 -5.584,3.312 -0.749,1.37 3.325,1.002 0.581,0.85 0.766,0.41 0.665,-0.304 2.242,-0.095 0.679,-0.445 6.774,0.029 0.499,-0.401 3.495,-1.039 4.4,-0.562 1.141,0.569 -0.085,0.207"
           id="path79"
           style="stroke:#008000" />
      </g>
      <g
         id="g80"
         transform="matrix(0.06089527,0,0,0.06089527,49.558098,-9.0722514)"
         style="stroke:#008000">
        <path
           fill="none"
           stroke="#000000"
           stroke-width="4"
           stroke-linecap="round"
           stroke-linejoin="round"
           d="m -313.457,329.339 -0.518,-1.39 -0.247,0.023 0.084,0.446 0.063,-0.435 0.176,0.169 -0.336,0.082 -0.111,0.637 0.337,0.092 0.057,-0.451 0.335,-0.068 0.174,1.133"
           id="path80"
           style="stroke:#008000" />
      </g>
      <g
         id="g81"
         transform="matrix(0.06089527,0,0,0.06089527,49.558098,-9.0722514)"
         style="stroke:#008000">
        <path
           fill="none"
           stroke="#000000"
           stroke-width="4"
           stroke-linecap="round"
           stroke-linejoin="round"
           d="m -315.444,345.66 0.593,-0.467 -0.236,-0.145 -0.173,0.521 0.232,0.234 0.051,-0.484 0.353,-0.095 -0.646,0.081 0.15,0.352 0.194,-0.821 0.528,-0.005 0.272,-1.173 0.943,0.324"
           id="path81"
           style="stroke:#008000" />
      </g>
    </g>
    <g
       id="g360">
      <g
         id="g82"
         transform="matrix(0.06089527,0,0,0.06089527,49.558098,-9.0722514)">
        <path
           fill="none"
           stroke="#000000"
           stroke-width="4"
           stroke-linecap="round"
           stroke-linejoin="round"
           d="m -225.069,331.673 -0.096,-1.347 0.316,-0.004 -0.5,-0.174 0.19,0.314 -1.401,4.082 -1.992,8.783 -0.633,5.205 -0.039,3.357 0.638,1.564 0.504,0.145 -0.674,1.894 0.343,-0.281 -0.257,0.044 -0.169,-1.501"
           id="path82" />
      </g>
      <g
         id="g83"
         transform="matrix(0.06089527,0,0,0.06089527,49.558098,-9.0722514)">
        <path
           fill="none"
           stroke="#000000"
           stroke-width="4"
           stroke-linecap="round"
           stroke-linejoin="round"
           d="m -252.024,318.693 -0.098,-0.789 4.374,-1.82 8.984,-1.856 7.657,-1.02 4.788,0.094 8.816,1.201 4.272,1.139 2.435,1.62 0.801,0.061 1.047,2.789 -0.418,3.174 -1.325,4.933 -1.293,2.876 -0.898,1.115 -3.267,2.709 -4.294,2.895 -7.04,1.961 -3.166,1.472 -1.134,0.2 -3.104,1.796 -1.397,1.426 -0.882,0.335 -0.511,0.814 0.364,0.685 1.209,0.38"
           id="path83" />
      </g>
      <g
         id="g84"
         transform="matrix(0.06089527,0,0,0.06089527,49.558098,-9.0722514)">
        <path
           fill="none"
           stroke="#000000"
           stroke-width="4"
           stroke-linecap="round"
           stroke-linejoin="round"
           d="m -197.305,328.869 -0.626,-3.08 -0.057,0.224 -0.195,-0.264 -0.244,0.155 1.657,5.675 0.015,4.479 -0.759,4.89 -1.562,4.606 -0.776,3.509 0.283,1.018 -0.227,2.012 0.665,0.86 -0.286,0.298 -0.9,-5.266 0.378,-8.622 0.263,-0.12 -0.021,0.496 0.328,-0.391 2.556,1.434 0.898,0.082 2.61,1.699 2.455,0.716 2.493,0.206 1.563,-0.595 0.873,-0.868 1.272,-0.627 0.205,0.29 0.304,-0.126 1.313,-2.092 0.469,-1.491 0.608,-3.352 1.101,-3.632 0.087,-1.444 1.258,-1.156 0.192,0.608 -0.543,1.415 -0.317,3.22 -1.357,6.145 -0.065,3.314 1.564,2.586 0.513,0.691 0.255,-0.256 0.929,1.618"
           id="path84" />
      </g>
      <g
         id="g85"
         transform="matrix(0.06089527,0,0,0.06089527,49.558098,-9.0722514)">
        <path
           fill="none"
           stroke="#000000"
           stroke-width="4"
           stroke-linecap="round"
           stroke-linejoin="round"
           d="m -160.079,328.909 -0.241,2.04 -0.923,2.611 -3.39,6.232 -1.738,2.632 -4.325,5.116 -1.522,1.506 -0.943,0.407 -0.027,-0.397 -0.178,0.222 0.107,0.275 0.116,-0.406 0.703,-0.066 0.515,-1.464 1.971,-1.943 1.62,-2.537 0.524,-1.848 9.632,-12.206 1.462,-1.506 1.398,-0.602 0.545,0.254 -0.158,2.963 2.025,12.531 0.525,0.217 0.422,1.485 1.19,2.029 1.521,1.182 0.168,0.527 0.108,-0.294 -0.267,-0.497 -6.743,-1.742"
           id="path85" />
      </g>
      <g
         id="g86"
         transform="matrix(0.06089527,0,0,0.06089527,49.558098,-9.0722514)">
        <path
           fill="none"
           stroke="#000000"
           stroke-width="4"
           stroke-linecap="round"
           stroke-linejoin="round"
           d="m -160.944,344.008 -0.934,-0.202 0.044,-0.301 1.783,-0.953 5.45,-1.225 8.474,0.316"
           id="path86" />
      </g>
      <g
         id="g87"
         transform="matrix(0.06089527,0,0,0.06089527,49.558098,-9.0722514)">
        <path
           fill="none"
           stroke="#000000"
           stroke-width="4"
           stroke-linecap="round"
           stroke-linejoin="round"
           d="m -126.134,324.573 -3.072,-0.877 -3.314,0.937 -2.981,1.261 -0.399,1.288 0.219,0.698 0.962,1.943 2.061,2.228 5.756,3.411 6.064,3.05 1.129,1.222 0.649,0.196 1.578,1.318 0.259,0.507 0.716,0.227 0.69,2.956 -0.163,1.145 -0.969,1.736 -3.028,2.103 -3.5,1.1 -5.421,0.599 -4.404,-0.172 -1.985,0.229 -5.537,-1.664 -0.924,-0.877 -0.694,-1.169 0.043,-0.944 0.43,-0.553 1.731,-0.907"
           id="path87" />
      </g>
      <g
         id="g88"
         transform="matrix(0.06089527,0,0,0.06089527,49.558098,-9.0722514)">
        <path
           fill="none"
           stroke="#000000"
           stroke-width="4"
           stroke-linecap="round"
           stroke-linejoin="round"
           d="m -104.635,327.532 1.026,-0.24 0.329,0.202 0.339,-0.623 0.281,0.45 0.046,2.05 -2.242,7.778 -0.591,3.134 0.615,4.382 0.576,0.459 0.239,-0.286 1.139,1.057 1.177,0.263 1.112,-0.162"
           id="path88" />
      </g>
      <g
         id="g89"
         transform="matrix(0.06089527,0,0,0.06089527,49.558098,-9.0722514)">
        <path
           fill="none"
           stroke="#000000"
           stroke-width="4"
           stroke-linecap="round"
           stroke-linejoin="round"
           d="m -108.406,327.58 -0.224,0.378 0.518,-0.506 1.47,-0.413 10.3129,-1.959 7.9422,-0.912 1.0144,-0.627 0.5211,0.16 -0.1306,0.389 -0.9188,-0.252 -1.0693,0.143"
           id="path89" />
      </g>
      <g
         id="g90"
         transform="matrix(0.06089527,0,0,0.06089527,49.558098,-9.0722514)">
        <path
           fill="none"
           stroke="#000000"
           stroke-width="4"
           stroke-linecap="round"
           stroke-linejoin="round"
           d="m -106.647,334.544 4.2,-0.581 7.626,-0.047 5.2356,-0.527 2.5755,0.386 0.9855,-0.145 1.0253,0.587 0.2332,0.357 -0.3305,0.405 -1.7454,0.535"
           id="path90" />
      </g>
      <g
         id="g91"
         transform="matrix(0.06089527,0,0,0.06089527,49.558098,-9.0722514)">
        <path
           fill="none"
           stroke="#000000"
           stroke-width="4"
           stroke-linecap="round"
           stroke-linejoin="round"
           d="m -105.325,347.669 7.7148,0.624 3.6531,-0.35 1.3231,-0.567 1.485,0.158 2.0486,-0.37 1.1624,0.353 2.038,-0.518 -0.6573,-0.137 -1.6582,0.65"
           id="path91" />
      </g>
      <g
         id="g92"
         transform="matrix(0.06089527,0,0,0.06089527,49.558098,-9.0722514)">
        <path
           fill="none"
           stroke="#000000"
           stroke-width="4"
           stroke-linecap="round"
           stroke-linejoin="round"
           d="m -28.3879,335.549 -1.7266,-3.979 -1.3936,-0.937 -0.7797,0.646 0.1488,0.877 0.6947,0.552 1.8141,9.794 0.7792,10.663 -0.1619,1.125 0.0153,-1.167 -2.486,-9.291 -0.1766,-3.24 0.3652,-2.743 0.7451,-2.854 2.2752,-4.358 2.2546,-1.886 2.4273,-0.92 16.14114,-1.21 2.62054,0.662 0.7323,1.019 -2.24328,3.568 -3.9233,3.669 -6.3511,4.255 -2.8189,2.329 -2.7941,1.879 -0.2732,-0.124 -0.4081,2.029 1.662,1.889 1.6721,0.931 1.0098,-0.003 1.2747,0.706 4.0999,1.216 4.72941,-0.254 3.85815,-0.498 5.86841,-1.279 3.18286,-1.265 0.44739,-1.187"
           id="path92" />
      </g>
      <g
         id="g93"
         transform="matrix(0.06089527,0,0,0.06089527,49.558098,-9.0722514)">
        <path
           fill="none"
           stroke="#000000"
           stroke-width="4"
           stroke-linecap="round"
           stroke-linejoin="round"
           d="m 8.75061,336.467 0.17847,-0.345 0.23559,2.095 -1.0003,7.254 0.26105,3.805 0.10528,-0.286 0.263,0.403 2.9693,0.124"
           id="path93" />
      </g>
      <g
         id="g94"
         transform="matrix(0.06089527,0,0,0.06089527,49.558098,-9.0722514)">
        <path
           fill="none"
           stroke="#000000"
           stroke-width="4"
           stroke-linecap="round"
           stroke-linejoin="round"
           d="m 5.35065,332.128 0.57306,-0.494 3.38037,-0.685 5.38762,-0.427 7.1463,0.308 5.2039,-0.122 1.1992,-0.157 0.3229,-0.494 0.5108,0.244 0.0103,0.515"
           id="path94" />
      </g>
      <g
         id="g95"
         transform="matrix(0.06089527,0,0,0.06089527,49.558098,-9.0722514)">
        <path
           fill="none"
           stroke="#000000"
           stroke-width="4"
           stroke-linecap="round"
           stroke-linejoin="round"
           d="m 9.29602,342.044 0.93228,-0.05 2.0888,0.663 14.0789,-0.887 3.2123,-0.666 0.2669,-0.338 -1.1958,-0.262 -6.1665,2.504"
           id="path95" />
      </g>
      <g
         id="g96"
         transform="matrix(0.06089527,0,0,0.06089527,49.558098,-9.0722514)">
        <path
           fill="none"
           stroke="#000000"
           stroke-width="4"
           stroke-linecap="round"
           stroke-linejoin="round"
           d="m 6.422,353.52 13.8033,0.386 4.7352,0.577 2.7904,0.884 3.1312,0.169 1.209,-0.613 1.1464,0.425 2.2609,0.173"
           id="path96" />
      </g>
      <g
         id="g97"
         transform="matrix(0.06089527,0,0,0.06089527,49.558098,-9.0722514)">
        <path
           fill="none"
           stroke="#000000"
           stroke-width="4"
           stroke-linecap="round"
           stroke-linejoin="round"
           d="m 60.7112,333.388 -0.2203,-3.268 -0.3007,1.344 -2.9575,3.682 -1.1351,0.669 -2.4141,3.345 -1.4073,3.401 -2.401,8.89 0.1801,0.629 1.6902,1.364 4.5077,0.649 4.3152,-0.533 2.0121,-0.783 4.7549,-0.766 0.806,0.564 0.8845,0.083 3.6551,-2.105 -0.3382,-0.516 -1.7982,-0.298"
           id="path97" />
      </g>
      <g
         id="g98"
         transform="matrix(0.06089527,0,0,0.06089527,49.558098,-9.0722514)">
        <path
           fill="none"
           stroke="#000000"
           stroke-width="4"
           stroke-linecap="round"
           stroke-linejoin="round"
           d="m 87.6731,336.64 1.0375,-2.479 0.9431,-0.844 -0.3656,1.006 -3.6082,5.086 -2.8203,2.807 -1.6729,1.192 -3.5035,3.711 -2.4214,2.757 -0.0438,0.84 1.3707,0.082 3.8078,-2.959 5.0029,-5.285 1.0261,-0.684 3.0716,-4.897 2.2707,-2.865 3.71,-4.298 1.3392,-0.673 0.2396,0.099 0.1483,4.868 -2.0054,10.64 0.1018,4.134 0.4149,0.922 0.597,0.126 1.6811,2.327 1.4806,0.635 0.6031,-0.136 0.87,-1.224 -1.9742,-1.303 -2.1366,-0.805"
           id="path98" />
      </g>
      <g
         id="g99"
         transform="matrix(0.06089527,0,0,0.06089527,49.558098,-9.0722514)">
        <path
           fill="none"
           stroke="#000000"
           stroke-width="4"
           stroke-linecap="round"
           stroke-linejoin="round"
           d="m 81.8447,346.738 -1.1311,-0.541 1.6058,0.034 1.2674,-0.498 7.3364,0.599 7.0896,-0.298 4.5922,0.165 3.383,0.609"
           id="path99" />
      </g>
      <g
         id="g100"
         transform="matrix(0.06089527,0,0,0.06089527,49.558098,-9.0722514)">
        <path
           fill="none"
           stroke="#000000"
           stroke-width="4"
           stroke-linecap="round"
           stroke-linejoin="round"
           d="m 129.276,333.202 -0.004,-1.76 -0.226,0.19 0.035,0.656 -2.612,5.304 -6.084,10.598 -0.017,1.48 0.381,1.266 1.203,1.066 0.905,-0.018 0.468,-0.516 1.081,0.044 0.539,-0.79 0.06,-2.023"
           id="path100" />
      </g>
      <g
         id="g101"
         transform="matrix(0.06089527,0,0,0.06089527,49.558098,-9.0722514)">
        <path
           fill="none"
           stroke="#000000"
           stroke-width="4"
           stroke-linecap="round"
           stroke-linejoin="round"
           d="m 113.07,332.739 -2.238,-3.083 0.015,-0.342 1.601,-0.55 0.319,0.27 2.1,-0.305 1.406,0.305 15.154,0.474 9.302,1.027"
           id="path101" />
      </g>
      <g
         id="g102"
         transform="matrix(0.06089527,0,0,0.06089527,49.558098,-9.0722514)">
        <path
           fill="none"
           stroke="#000000"
           stroke-width="4"
           stroke-linecap="round"
           stroke-linejoin="round"
           d="m 153.504,328.788 -1.933,1.233 -1.086,1.264 -2.282,4.027 -1.333,1.123 -2.708,3.198 -2.674,4.319 -0.518,1.851 0.071,1.062 0.652,0.807 2.002,1.01"
           id="path102" />
      </g>
      <g
         id="g103"
         transform="matrix(0.06089527,0,0,0.06089527,49.558098,-9.0722514)">
        <path
           fill="none"
           stroke="#000000"
           stroke-width="4"
           stroke-linecap="round"
           stroke-linejoin="round"
           d="m 167.266,337.49 -0.1,0.441 -5.596,3.5 -1.286,1.719 -1.821,3.801 0.076,1.348 0.837,0.833 2.572,1.396 6.729,-0.036 5.063,-0.68 4.758,-1.464 2.364,-1.569 1.132,-1.968 -0.365,-2.701 -2.225,-3.877 -2.919,-2.971 -2.599,-0.315 -0.707,-0.355 -3.384,-0.166 -0.631,0.699 -0.177,-0.189 0.229,-0.161 1.689,1.66"
           id="path103" />
      </g>
      <g
         id="g104"
         transform="matrix(0.06089527,0,0,0.06089527,49.558098,-9.0722514)">
        <path
           fill="none"
           stroke="#000000"
           stroke-width="4"
           stroke-linecap="round"
           stroke-linejoin="round"
           d="m 189.541,338.65 -0.399,-0.17 -0.093,0.541 -1.665,1.921 -4.804,3.913 -2.943,2.97 -0.648,1.123 -0.338,1.571 2.352,-0.858 0.786,0.004 1.401,-1.277 1.297,-1.575 2.889,-2.592 3.67,-4.747 3.828,-4 0.396,0.28 0.013,0.619 -0.566,0.394 -0.868,2.442 0.255,3.42 0.269,0.706 1.062,0.99 2.524,1.651 1.717,0.943 4.052,0.333 4.43,-0.318 3.359,-1.057 1.419,-0.772 1.174,-1.397 0.663,-2.099 -0.578,-5.301 0.233,-9.082 -0.142,-0.678 -0.231,-0.084 0.123,0.628 -0.215,-0.235 1.117,0.367"
           id="path104" />
      </g>
      <g
         id="g105"
         transform="matrix(0.06089527,0,0,0.06089527,49.558098,-9.0722514)">
        <path
           fill="none"
           stroke="#000000"
           stroke-width="4"
           stroke-linecap="round"
           stroke-linejoin="round"
           d="m 240.171,331.677 1.346,-1.804 1.201,-0.974 0.478,0.1 0.298,-0.637 0.313,-0.042 0.009,-0.317 -0.558,-0.29 -6.873,0.152 -3.67,0.588 -3.822,1.356 -2.015,1.664 -0.725,2.155 0.04,1.12 0.531,1.25 0.341,0.46 2.289,1.246 6.733,1.794 5.392,2.206 6.825,4.581 0.182,1.54 -3.302,0.79 -3.465,-0.032 -1.878,-0.737 -2.159,0.221 -3.568,-0.475 -1.014,0.432 -1.075,0.027 -0.945,-0.63 -8.507,-2.069 -1.697,-0.987 -0.74,0.176 1.42,1.202"
           id="path105" />
      </g>
      <g
         id="g106"
         transform="matrix(0.06089527,0,0,0.06089527,49.558098,-9.0722514)">
        <path
           fill="none"
           stroke="#000000"
           stroke-width="4"
           stroke-linecap="round"
           stroke-linejoin="round"
           d="m 266.234,334.003 -1.024,-2.768 0.259,0.262 -0.175,1.033 -0.27,0.068 -1.508,3.418 -0.994,3.257 -0.574,3.907 0.367,2.609 0.771,2.887 0.29,-0.044 -0.147,0.338 -0.208,-0.477 0.226,-1.937 -1.514,-7.423 0.32,0.845 2.427,0.716 2.501,0.283 4.4,-0.436 3.62,0.063 1.372,0.414 8.615,-3.155 1.656,-1.442 1.379,-3.773 -0.281,-2.872 -0.792,-1.591 -0.943,0.474 -2.004,3.523 -0.659,2.106 -0.278,4.15 0.749,4.044 3.003,3.585 0.834,0.007 1.563,-1.635"
           id="path106" />
      </g>
      <g
         id="g107"
         transform="matrix(0.06089527,0,0,0.06089527,49.558098,-9.0722514)">
        <path
           fill="none"
           stroke="#000000"
           stroke-width="4"
           stroke-linecap="round"
           stroke-linejoin="round"
           d="m 301.139,326.394 -2.879,3.837 -1.343,2.397 -1.149,2.902 -1.01,4.027 0.674,1.909 2.142,3.224 0.52,2.204 0.105,-0.328 0.334,0.847 -0.273,0.608 0.162,0.458 1.782,0.746"
           id="path107" />
      </g>
      <g
         id="g108"
         transform="matrix(0.06089527,0,0,0.06089527,49.558098,-9.0722514)">
        <path
           fill="none"
           stroke="#000000"
           stroke-width="4"
           stroke-linecap="round"
           stroke-linejoin="round"
           d="m 313.549,333.049 0.609,-0.028 0.718,0.575 0.296,1.459 -1.792,6.03 -0.486,3.517 0.031,2.576 1.387,4.006 0.484,0.658 0.179,-0.312 0.434,0.022 -0.223,0.352 -0.48,-0.422 -1.082,-6.396 -0.509,-4.244 -0.077,-4.725 0.457,-4.778 0.447,-1.57 1.153,-1.731 2.479,-1.274 3.836,-0.984 3.019,-0.578 5.013,-0.129 1.912,0.823 2.232,3.323 0.716,0.724 0.329,-0.238 0.377,0.269 1.139,1.973 0.214,0.953 -0.018,1.244 -0.724,1.165 -1.937,1.204 -1.887,0.399 -2.467,1.017 -1.52,0.451 -6.762,0.756 -9.83,0.485 -3.906,0.817 -4.695,0.119 -1.251,-0.255 0.912,-0.659 2.893,-0.175"
           id="path108" />
      </g>
      <g
         id="g109"
         transform="matrix(0.06089527,0,0,0.06089527,49.558098,-9.0722514)">
        <path
           fill="none"
           stroke="#000000"
           stroke-width="4"
           stroke-linecap="round"
           stroke-linejoin="round"
           d="m 352.742,328.594 0.251,-3.437 0.72,-2.065 -0.311,-1.308 -0.7,0.543 -0.129,0.495 -3.454,0.945 -2.557,1.558 -0.58,0.832 -0.391,2.236 0.822,0.603 3.446,4.964 6.567,4.496 7.906,7.075 1.229,2.146 -0.122,1.312 -1.406,0.804 -5.446,1.278 -2.584,0.936 -7.183,-0.57 -2.822,-0.969 -1.363,0.318 -3.787,-0.11 -4.465,-0.566 -1.201,-0.525 0.209,-0.304 1.063,-0.46 1.838,-0.078"
           id="path109" />
      </g>
    </g>
  </g>
</svg>
